# MagicaVoxel @ Ephtracy

# group
o 

# material
mtllib Bouleau4.mtl
usemtl palette

# normals
vn -1 0 0
vn 1 0 0
vn 0 0 1
vn 0 0 -1
vn 0 -1 0
vn 0 1 0

# texcoords
vt 0.970703 0.5
vt 0.974609 0.5
vt 0.978516 0.5
vt 0.982422 0.5

# verts
v -0.2 1.9 0.2
v -0.2 1.9 0
v -0.2 2.4 0.2
v -0.2 2.4 0
v -0.2 2.5 0.2
v -0.2 2.5 -0.1
v -0.2 2.8 0.2
v -0.2 2.8 -0.1
v -0.1 0 0.1
v -0.1 0 -0.1
v -0.1 0.1 0.1
v -0.1 0.1 -0.1
v -0.1 0.2 0.1
v -0.1 0.2 -0.1
v -0.1 0.4 0.1
v -0.1 0.4 -0.1
v -0.1 0.5 0.1
v -0.1 0.5 -0.1
v -0.1 0.8 0.1
v -0.1 0.8 -0.1
v -0.1 0.9 0.1
v -0.1 0.9 -0.1
v -0.1 1 0.1
v -0.1 1 -0.1
v -0.1 1.1 0.1
v -0.1 1.1 -0.1
v -0.1 1.4 0.1
v -0.1 1.4 -0.1
v -0.1 1.6 0.1
v -0.1 1.6 -0.1
v -0.1 1.7 0.1
v -0.1 1.7 -0.1
v -0.1 1.9 0.1
v -0.1 1.9 0
v -0.1 1.9 -0.1
v -0.1 2 -0.1
v -0.1 2 -0.2
v -0.1 2.3 0
v -0.1 2.3 -0.1
v -0.1 2.3 -0.2
v -0.1 2.4 0.1
v -0.1 2.4 0
v -0.1 2.5 0.1
v -0.1 2.5 0
v -0.1 2.5 -0.1
v -0.1 2.5 -0.2
v -0.1 2.8 0.1
v -0.1 2.8 -0.1
v -0.1 2.8 -0.2
v -0.1 2.9 0.1
v -0.1 2.9 -0.1
v 0 1.6 0.2
v 0 1.6 0.1
v 0 1.7 0.1
v 0 1.7 -0.1
v 0 1.7 -0.2
v 0 1.9 0.2
v 0 1.9 0.1
v 0 1.9 -0.1
v 0 2 -0.1
v 0 2 -0.2
v 0 2.4 0.2
v 0 2.4 0.1
v 0 2.5 0.2
v 0 2.5 0.1
v 0.1 2.4 -0.1
v 0.1 2.4 -0.2
v 0.1 2.5 -0.1
v 0.1 2.5 -0.2
v 0 2.6 0.2
v 0 2.6 0.1
v 0 2.8 0.2
v 0 2.8 0.1
v 0.1 0 0.1
v 0.1 0 -0.1
v 0.1 0.1 0.1
v 0.1 0.1 -0.1
v 0.1 0.2 0.1
v 0.1 0.2 -0.1
v 0.1 0.4 0.1
v 0.1 0.4 -0.1
v 0.1 0.5 0.1
v 0.1 0.5 -0.1
v 0.1 0.8 0.1
v 0.1 0.8 -0.1
v 0.1 0.9 0.1
v 0.1 0.9 -0.1
v 0.1 1 0.1
v 0.1 1 -0.1
v 0.1 1.1 0.1
v 0.1 1.1 -0.1
v 0.1 1.4 0.1
v 0.1 1.4 -0.1
v 0.1 1.6 0.1
v 0.1 1.6 0
v 0.1 1.6 -0.1
v 0.1 1.7 0
v 0.1 1.7 -0.1
v 0.1 1.9 0.2
v 0.1 1.9 0.1
v 0.1 1.9 0
v 0.1 2 0.1
v 0.1 2 0
v 0.1 2.3 0.2
v 0.1 2.3 0.1
v 0.1 2.7 0.1
v 0.1 2.7 -0.2
v 0.1 2.8 -0.1
v 0.1 2.8 -0.2
v 0.1 2.9 0.1
v 0.1 2.9 -0.1
v 0.2 1.6 0.2
v 0.2 1.6 0
v 0.2 1.7 0
v 0.2 1.7 -0.2
v 0.2 1.9 0.2
v 0.2 1.9 0
v 0.2 2 0.1
v 0.2 2 0
v 0.2 2.3 0.2
v 0.2 2.3 0.1
v 0.2 2.3 -0.1
v 0.2 2.3 -0.2
v 0.2 2.4 -0.1
v 0.2 2.4 -0.2
v 0.2 2.6 0.2
v 0.2 2.6 0.1
v 0.2 2.7 0.1
v 0.2 2.7 -0.2
v -0.2 1.9 0.2
v -0.2 2.4 0.2
v -0.2 2.5 0.2
v -0.2 2.8 0.2
v 0 1.6 0.2
v 0 1.9 0.2
v 0 2.4 0.2
v 0 2.5 0.2
v 0 2.6 0.2
v 0 2.8 0.2
v 0.1 1.9 0.2
v 0.1 2.3 0.2
v 0.1 2.4 0.2
v 0.2 1.6 0.2
v 0.2 1.9 0.2
v 0.2 2.3 0.2
v 0.2 2.6 0.2
v -0.1 0 0.1
v -0.1 0.1 0.1
v -0.1 0.2 0.1
v -0.1 0.4 0.1
v -0.1 0.5 0.1
v -0.1 0.8 0.1
v -0.1 0.9 0.1
v -0.1 1 0.1
v -0.1 1.1 0.1
v -0.1 1.4 0.1
v -0.1 1.6 0.1
v -0.1 1.7 0.1
v -0.1 1.9 0.1
v -0.1 2.4 0.1
v -0.1 2.5 0.1
v -0.1 2.8 0.1
v -0.1 2.9 0.1
v 0 1.6 0.1
v 0 1.7 0.1
v 0 1.9 0.1
v 0 2.4 0.1
v 0 2.5 0.1
v 0 2.6 0.1
v 0 2.8 0.1
v 0.1 0 0.1
v 0.1 0.1 0.1
v 0.1 0.2 0.1
v 0.1 0.4 0.1
v 0.1 0.5 0.1
v 0.1 0.8 0.1
v 0.1 0.9 0.1
v 0.1 1 0.1
v 0.1 1.1 0.1
v 0.1 1.4 0.1
v 0.1 1.6 0.1
v 0.1 2 0.1
v 0.1 2.3 0.1
v 0.1 2.7 0.1
v 0.1 2.9 0.1
v 0.2 2 0.1
v 0.2 2.3 0.1
v 0.2 2.6 0.1
v 0.2 2.7 0.1
v 0.1 1.9 0
v 0.1 2 0
v 0.2 1.9 0
v 0.2 2 0
v -0.2 1.9 0
v -0.2 2.4 0
v -0.1 1.9 0
v -0.1 2.3 0
v -0.1 2.4 0
v 0.1 1.6 0
v 0.1 1.7 0
v 0.2 1.6 0
v 0.2 1.7 0
v -0.2 2.5 -0.1
v -0.2 2.8 -0.1
v -0.1 0 -0.1
v -0.1 0.1 -0.1
v -0.1 0.2 -0.1
v -0.1 0.4 -0.1
v -0.1 0.5 -0.1
v -0.1 0.8 -0.1
v -0.1 0.9 -0.1
v -0.1 1 -0.1
v -0.1 1.1 -0.1
v -0.1 1.4 -0.1
v -0.1 1.6 -0.1
v -0.1 1.7 -0.1
v -0.1 1.9 -0.1
v -0.1 2 -0.1
v -0.1 2.3 -0.1
v -0.1 2.5 -0.1
v -0.1 2.8 -0.1
v -0.1 2.9 -0.1
v 0 1.7 -0.1
v 0 1.9 -0.1
v 0 2 -0.1
v 0.1 0 -0.1
v 0.1 0.1 -0.1
v 0.1 0.2 -0.1
v 0.1 0.4 -0.1
v 0.1 0.5 -0.1
v 0.1 0.8 -0.1
v 0.1 0.9 -0.1
v 0.1 1 -0.1
v 0.1 1.1 -0.1
v 0.1 1.4 -0.1
v 0.1 1.6 -0.1
v 0.1 1.7 -0.1
v 0.1 2.3 -0.1
v 0.1 2.4 -0.1
v 0.1 2.5 -0.1
v 0.1 2.8 -0.1
v 0.1 2.9 -0.1
v 0.2 2.3 -0.1
v 0.2 2.4 -0.1
v -0.1 2 -0.2
v -0.1 2.3 -0.2
v -0.1 2.5 -0.2
v -0.1 2.8 -0.2
v 0 1.7 -0.2
v 0 2 -0.2
v 0.1 2.4 -0.2
v 0.1 2.5 -0.2
v 0.1 2.7 -0.2
v 0.1 2.8 -0.2
v 0.2 1.7 -0.2
v 0.2 2.3 -0.2
v 0.2 2.4 -0.2
v 0.2 2.7 -0.2
v -0.1 0 0.1
v 0.1 0 0.1
v -0.1 0 -0.1
v 0.1 0 -0.1
v 0 1.6 0.2
v 0.2 1.6 0.2
v 0 1.6 0.1
v 0.1 1.6 0.1
v 0.1 1.6 0
v 0.2 1.6 0
v 0.1 1.7 0
v 0.2 1.7 0
v 0 1.7 -0.1
v 0.1 1.7 -0.1
v 0 1.7 -0.2
v 0.2 1.7 -0.2
v -0.2 1.9 0.2
v 0 1.9 0.2
v -0.1 1.9 0.1
v 0 1.9 0.1
v -0.2 1.9 0
v -0.1 1.9 0
v 0.1 2 0.1
v 0.2 2 0.1
v 0.1 2 0
v 0.2 2 0
v -0.1 2 -0.1
v 0 2 -0.1
v -0.1 2 -0.2
v 0 2 -0.2
v 0.1 2.3 0.2
v 0.2 2.3 0.2
v 0.1 2.3 0.1
v 0.2 2.3 0.1
v 0.1 2.4 -0.1
v 0.2 2.4 -0.1
v 0.1 2.4 -0.2
v 0.2 2.4 -0.2
v -0.2 2.5 0.2
v 0 2.5 0.2
v -0.1 2.5 0.1
v 0 2.5 0.1
v -0.1 2.5 0
v -0.2 2.5 -0.1
v -0.1 2.5 -0.1
v 0.1 2.5 -0.1
v -0.1 2.5 -0.2
v 0.1 2.5 -0.2
v 0.1 1.9 0.2
v 0.2 1.9 0.2
v 0.1 1.9 0.1
v 0.1 1.9 0
v 0.2 1.9 0
v -0.1 2.3 -0.1
v 0.1 2.3 -0.1
v 0.2 2.3 -0.1
v -0.1 2.3 -0.2
v 0.2 2.3 -0.2
v -0.2 2.4 0.2
v 0 2.4 0.2
v -0.1 2.4 0.1
v 0 2.4 0.1
v -0.2 2.4 0
v -0.1 2.4 0
v 0 2.6 0.2
v 0.2 2.6 0.2
v 0 2.6 0.1
v 0.2 2.6 0.1
v 0.1 2.7 0.1
v 0.2 2.7 0.1
v 0.1 2.7 -0.2
v 0.2 2.7 -0.2
v -0.2 2.8 0.2
v 0 2.8 0.2
v -0.1 2.8 0.1
v 0 2.8 0.1
v -0.2 2.8 -0.1
v -0.1 2.8 -0.1
v 0.1 2.8 -0.1
v -0.1 2.8 -0.2
v 0.1 2.8 -0.2
v -0.1 2.9 0.1
v 0.1 2.9 0.1
v -0.1 2.9 -0.1
v 0.1 2.9 -0.1

# faces
f 3/3/1 2/3/1 1/3/1
f 4/3/1 2/3/1 3/3/1
f 7/3/1 6/3/1 5/3/1
f 8/3/1 6/3/1 7/3/1
f 11/2/1 10/2/1 9/2/1
f 12/2/1 10/2/1 11/2/1
f 13/1/1 12/1/1 11/1/1
f 14/1/1 12/1/1 13/1/1
f 15/2/1 14/2/1 13/2/1
f 16/2/1 14/2/1 15/2/1
f 17/1/1 16/1/1 15/1/1
f 18/1/1 16/1/1 17/1/1
f 19/2/1 18/2/1 17/2/1
f 20/2/1 18/2/1 19/2/1
f 21/1/1 20/1/1 19/1/1
f 22/1/1 20/1/1 21/1/1
f 23/2/1 22/2/1 21/2/1
f 24/2/1 22/2/1 23/2/1
f 25/1/1 24/1/1 23/1/1
f 26/1/1 24/1/1 25/1/1
f 27/2/1 26/2/1 25/2/1
f 28/2/1 26/2/1 27/2/1
f 29/1/1 28/1/1 27/1/1
f 30/1/1 28/1/1 29/1/1
f 31/2/1 30/2/1 29/2/1
f 32/2/1 30/2/1 31/2/1
f 33/4/1 32/4/1 31/4/1
f 34/4/1 32/4/1 33/4/1
f 35/4/1 32/4/1 34/4/1
f 36/3/1 35/3/1 34/3/1
f 38/3/1 36/3/1 34/3/1
f 38/3/1 37/3/1 36/3/1
f 39/3/1 37/3/1 38/3/1
f 40/3/1 37/3/1 39/3/1
f 42/4/1 39/4/1 38/4/1
f 43/3/1 42/3/1 41/3/1
f 44/4/1 39/4/1 42/4/1
f 44/3/1 42/3/1 43/3/1
f 45/4/1 39/4/1 44/4/1
f 48/3/1 46/3/1 45/3/1
f 49/3/1 46/3/1 48/3/1
f 50/3/1 48/3/1 47/3/1
f 51/3/1 48/3/1 50/3/1
f 54/3/1 53/3/1 52/3/1
f 57/3/1 54/3/1 52/3/1
f 58/3/1 54/3/1 57/3/1
f 59/3/1 56/3/1 55/3/1
f 60/3/1 56/3/1 59/3/1
f 61/3/1 56/3/1 60/3/1
f 64/4/1 63/4/1 62/4/1
f 65/4/1 63/4/1 64/4/1
f 68/3/1 67/3/1 66/3/1
f 69/3/1 67/3/1 68/3/1
f 70/3/2 71/3/2 72/3/2
f 72/3/2 71/3/2 73/3/2
f 74/2/2 75/2/2 76/2/2
f 76/2/2 75/2/2 77/2/2
f 76/1/2 77/1/2 78/1/2
f 78/1/2 77/1/2 79/1/2
f 78/2/2 79/2/2 80/2/2
f 80/2/2 79/2/2 81/2/2
f 80/1/2 81/1/2 82/1/2
f 82/1/2 81/1/2 83/1/2
f 82/2/2 83/2/2 84/2/2
f 84/2/2 83/2/2 85/2/2
f 84/1/2 85/1/2 86/1/2
f 86/1/2 85/1/2 87/1/2
f 86/2/2 87/2/2 88/2/2
f 88/2/2 87/2/2 89/2/2
f 88/1/2 89/1/2 90/1/2
f 90/1/2 89/1/2 91/1/2
f 90/2/2 91/2/2 92/2/2
f 92/2/2 91/2/2 93/2/2
f 92/1/2 93/1/2 94/1/2
f 94/1/2 93/1/2 95/1/2
f 95/1/2 93/1/2 96/1/2
f 95/2/2 96/2/2 97/2/2
f 97/2/2 96/2/2 98/2/2
f 99/3/2 100/3/2 102/3/2
f 100/4/2 101/4/2 102/4/2
f 102/4/2 101/4/2 103/4/2
f 99/3/2 102/3/2 104/3/2
f 104/3/2 102/3/2 105/3/2
f 106/3/2 107/3/2 108/3/2
f 108/3/2 107/3/2 109/3/2
f 106/3/2 108/3/2 110/3/2
f 110/3/2 108/3/2 111/3/2
f 112/3/2 113/3/2 114/3/2
f 112/3/2 114/3/2 116/3/2
f 114/3/2 115/3/2 116/3/2
f 116/3/2 115/3/2 117/3/2
f 117/3/2 115/3/2 119/3/2
f 118/3/2 119/3/2 121/3/2
f 119/3/2 115/3/2 122/3/2
f 121/3/2 119/3/2 122/3/2
f 122/3/2 115/3/2 123/3/2
f 121/3/2 122/3/2 124/3/2
f 120/4/2 121/4/2 126/4/2
f 124/3/2 125/3/2 127/3/2
f 126/4/2 121/4/2 127/4/2
f 121/3/2 124/3/2 127/3/2
f 127/3/2 125/3/2 128/3/2
f 128/3/2 125/3/2 129/3/2
f 135/3/3 131/3/3 130/3/3
f 136/3/3 131/3/3 135/3/3
f 137/3/3 133/3/3 132/3/3
f 138/3/3 133/3/3 137/3/3
f 139/3/3 133/3/3 138/3/3
f 140/3/3 136/3/3 135/3/3
f 140/3/3 135/3/3 134/3/3
f 141/3/3 136/3/3 140/3/3
f 142/4/3 138/4/3 137/4/3
f 142/3/3 136/3/3 141/3/3
f 142/4/3 137/4/3 136/4/3
f 143/3/3 140/3/3 134/3/3
f 144/3/3 140/3/3 143/3/3
f 145/4/3 142/4/3 141/4/3
f 146/4/3 138/4/3 142/4/3
f 146/4/3 142/4/3 145/4/3
f 164/1/3 157/1/3 156/1/3
f 164/2/3 158/2/3 157/2/3
f 165/4/3 159/4/3 158/4/3
f 165/2/3 158/2/3 164/2/3
f 166/4/3 159/4/3 165/4/3
f 167/3/3 161/3/3 160/3/3
f 168/3/3 161/3/3 167/3/3
f 170/3/3 163/3/3 162/3/3
f 171/2/3 148/2/3 147/2/3
f 172/1/3 149/1/3 148/1/3
f 172/2/3 148/2/3 171/2/3
f 173/2/3 150/2/3 149/2/3
f 173/1/3 149/1/3 172/1/3
f 174/1/3 151/1/3 150/1/3
f 174/2/3 150/2/3 173/2/3
f 175/2/3 152/2/3 151/2/3
f 175/1/3 151/1/3 174/1/3
f 176/1/3 153/1/3 152/1/3
f 176/2/3 152/2/3 175/2/3
f 177/2/3 154/2/3 153/2/3
f 177/1/3 153/1/3 176/1/3
f 178/1/3 155/1/3 154/1/3
f 178/2/3 154/2/3 177/2/3
f 179/2/3 156/2/3 155/2/3
f 179/1/3 155/1/3 178/1/3
f 180/1/3 164/1/3 156/1/3
f 180/2/3 156/2/3 179/2/3
f 181/1/3 164/1/3 180/1/3
f 184/3/3 170/3/3 169/3/3
f 185/3/3 163/3/3 170/3/3
f 185/3/3 170/3/3 184/3/3
f 186/3/3 183/3/3 182/3/3
f 187/3/3 183/3/3 186/3/3
f 188/3/3 184/3/3 169/3/3
f 189/3/3 184/3/3 188/3/3
f 192/3/3 191/3/3 190/3/3
f 193/3/3 191/3/3 192/3/3
f 194/3/4 195/3/4 196/3/4
f 196/3/4 195/3/4 197/3/4
f 197/3/4 195/3/4 198/3/4
f 199/3/4 200/3/4 201/3/4
f 201/3/4 200/3/4 202/3/4
f 203/3/4 204/3/4 220/3/4
f 220/3/4 204/3/4 221/3/4
f 215/2/4 216/2/4 223/2/4
f 216/4/4 217/4/4 223/4/4
f 217/3/4 218/3/4 224/3/4
f 223/4/4 217/4/4 224/4/4
f 224/3/4 218/3/4 225/3/4
f 205/2/4 206/2/4 226/2/4
f 206/1/4 207/1/4 227/1/4
f 226/2/4 206/2/4 227/2/4
f 207/2/4 208/2/4 228/2/4
f 227/1/4 207/1/4 228/1/4
f 208/1/4 209/1/4 229/1/4
f 228/2/4 208/2/4 229/2/4
f 209/2/4 210/2/4 230/2/4
f 229/1/4 209/1/4 230/1/4
f 210/1/4 211/1/4 231/1/4
f 230/2/4 210/2/4 231/2/4
f 211/2/4 212/2/4 232/2/4
f 231/1/4 211/1/4 232/1/4
f 212/1/4 213/1/4 233/1/4
f 232/2/4 212/2/4 233/2/4
f 213/2/4 214/2/4 234/2/4
f 233/1/4 213/1/4 234/1/4
f 214/1/4 215/1/4 235/1/4
f 234/2/4 214/2/4 235/2/4
f 215/2/4 223/2/4 236/2/4
f 235/1/4 215/1/4 236/1/4
f 236/2/4 223/2/4 237/2/4
f 219/4/4 220/4/4 238/4/4
f 238/4/4 220/4/4 239/4/4
f 239/4/4 220/4/4 240/4/4
f 221/3/4 222/3/4 241/3/4
f 241/3/4 222/3/4 242/3/4
f 238/3/4 239/3/4 243/3/4
f 243/3/4 239/3/4 244/3/4
f 245/3/4 246/3/4 250/3/4
f 247/3/4 248/3/4 252/3/4
f 252/3/4 248/3/4 253/3/4
f 253/3/4 248/3/4 254/3/4
f 249/3/4 250/3/4 255/3/4
f 250/3/4 246/3/4 256/3/4
f 255/3/4 250/3/4 256/3/4
f 251/3/4 252/3/4 257/3/4
f 252/3/4 253/3/4 257/3/4
f 257/3/4 253/3/4 258/3/4
f 261/2/5 260/2/5 259/2/5
f 262/2/5 260/2/5 261/2/5
f 265/3/5 264/3/5 263/3/5
f 266/3/5 264/3/5 265/3/5
f 267/3/5 264/3/5 266/3/5
f 268/3/5 264/3/5 267/3/5
f 272/3/5 270/3/5 269/3/5
f 273/3/5 272/3/5 271/3/5
f 274/3/5 270/3/5 272/3/5
f 274/3/5 272/3/5 273/3/5
f 277/3/5 276/3/5 275/3/5
f 278/3/5 276/3/5 277/3/5
f 279/3/5 277/3/5 275/3/5
f 280/3/5 277/3/5 279/3/5
f 283/3/5 282/3/5 281/3/5
f 284/3/5 282/3/5 283/3/5
f 287/3/5 286/3/5 285/3/5
f 288/3/5 286/3/5 287/3/5
f 291/4/5 290/4/5 289/4/5
f 292/4/5 290/4/5 291/4/5
f 295/3/5 294/3/5 293/3/5
f 296/3/5 294/3/5 295/3/5
f 299/3/5 298/3/5 297/3/5
f 300/3/5 298/3/5 299/3/5
f 301/3/5 299/3/5 297/3/5
f 302/3/5 301/3/5 297/3/5
f 303/3/5 301/3/5 302/3/5
f 305/3/5 304/3/5 303/3/5
f 306/3/5 304/3/5 305/3/5
f 307/3/6 308/3/6 309/3/6
f 309/3/6 308/3/6 310/3/6
f 310/3/6 308/3/6 311/3/6
f 312/3/6 313/3/6 315/3/6
f 313/3/6 314/3/6 315/3/6
f 315/3/6 314/3/6 316/3/6
f 317/3/6 318/3/6 319/3/6
f 319/3/6 318/3/6 320/3/6
f 317/3/6 319/3/6 321/3/6
f 321/3/6 319/3/6 322/3/6
f 323/4/6 324/4/6 325/4/6
f 325/4/6 324/4/6 326/4/6
f 327/3/6 328/3/6 329/3/6
f 329/3/6 328/3/6 330/3/6
f 331/3/6 332/3/6 333/3/6
f 333/3/6 332/3/6 334/3/6
f 331/3/6 333/3/6 335/3/6
f 335/3/6 333/3/6 336/3/6
f 336/3/6 337/3/6 338/3/6
f 338/3/6 337/3/6 339/3/6
f 340/3/6 341/3/6 342/3/6
f 342/3/6 341/3/6 343/3/6
