# MagicaVoxel @ Ephtracy

# group
o 

# material
mtllib Bush6.mtl
usemtl palette

# normals
vn -1 0 0
vn 1 0 0
vn 0 0 1
vn 0 0 -1
vn 0 -1 0
vn 0 1 0

# texcoords
vt 0.978516 0.5
vt 0.986328 0.5
vt 0.990234 0.5
vt 0.994141 0.5

# verts
v -0.6 0.1 0.6
v -0.6 0.1 0.2
v -0.6 0.3 0
v -0.6 0.3 -0.1
v -0.6 0.4 0.6
v -0.6 0.4 0.2
v -0.6 0.4 0
v -0.6 0.4 -0.1
v -0.6 0.5 0
v -0.6 0.5 -0.5
v -0.6 0.9 0
v -0.6 0.9 -0.1
v -0.6 0.9 -0.3
v -0.6 0.9 -0.5
v -0.6 1 -0.1
v -0.6 1 -0.3
v -0.5 0.2 0.2
v -0.5 0.2 -0.4
v -0.5 0.3 0
v -0.5 0.3 -0.1
v -0.5 0.4 0.5
v -0.5 0.4 0.2
v -0.5 0.4 0
v -0.5 0.4 -0.1
v -0.5 0.5 0
v -0.5 0.5 -0.4
v -0.5 0.6 0.5
v -0.5 0.6 0
v -0.2 0 0.1
v -0.2 0 -0.1
v -0.2 0.2 0.1
v -0.2 0.2 -0.1
v -0.2 0.5 0.6
v -0.2 0.5 0.5
v -0.2 0.6 0.6
v -0.2 0.6 0.5
v -0.2 0.8 -0.5
v -0.2 0.8 -0.6
v -0.2 0.9 -0.2
v -0.2 0.9 -0.5
v -0.2 1 -0.2
v -0.2 1 -0.6
v -0.1 0.3 0.6
v -0.1 0.3 0.5
v -0.1 0.5 0.6
v -0.1 0.5 0.5
v -0.1 0.6 0.6
v -0.1 0.6 0.5
v -0.1 0.6 0.2
v -0.1 0.7 0.6
v -0.1 0.7 0.2
v -0.4 0.1 0.6
v -0.4 0.1 0.2
v -0.4 0.2 0.5
v -0.4 0.2 0.2
v -0.4 0.4 0.6
v -0.4 0.4 0.5
v -0.4 0.9 -0.1
v -0.4 0.9 -0.3
v -0.4 1 -0.1
v -0.4 1 -0.3
v -0.1 0.5 -0.4
v -0.1 0.5 -0.5
v -0.1 0.6 0
v -0.1 0.6 -0.1
v -0.1 0.6 -0.2
v -0.1 0.6 -0.4
v -0.1 0.7 -0.1
v -0.1 0.7 -0.2
v -0.1 0.8 -0.2
v -0.1 0.8 -0.5
v -0.1 0.9 0
v -0.1 0.9 -0.2
v 0 0 0.1
v 0 0 -0.1
v 0 0.2 0.1
v 0 0.2 -0.1
v 0 0.6 -0.1
v 0 0.6 -0.2
v 0 0.7 -0.1
v 0 0.7 -0.2
v 0 0.8 -0.2
v 0 0.8 -0.6
v 0 1 -0.2
v 0 1 -0.6
v 0.3 0.2 0.5
v 0.3 0.2 -0.4
v 0.3 0.3 0.5
v 0.3 0.3 0.2
v 0.3 0.4 0.2
v 0.3 0.4 0.1
v 0.3 0.5 0.2
v 0.3 0.5 0.1
v 0.3 0.6 0.2
v 0.3 0.6 -0.4
v 0.4 0.3 0.6
v 0.4 0.3 0.2
v 0.4 0.4 0.2
v 0.4 0.4 0.1
v 0.4 0.5 0.2
v 0.4 0.5 0.1
v 0.4 0.7 0.6
v 0.4 0.7 0.2
v -0.6 0.1 0.6
v -0.6 0.4 0.6
v -0.4 0.1 0.6
v -0.4 0.4 0.6
v -0.2 0.5 0.6
v -0.2 0.6 0.6
v -0.1 0.3 0.6
v -0.1 0.5 0.6
v -0.1 0.6 0.6
v -0.1 0.7 0.6
v 0.4 0.3 0.6
v 0.4 0.7 0.6
v -0.5 0.4 0.5
v -0.5 0.6 0.5
v -0.4 0.2 0.5
v -0.4 0.4 0.5
v -0.2 0.5 0.5
v -0.2 0.6 0.5
v -0.1 0.3 0.5
v -0.1 0.5 0.5
v 0.3 0.2 0.5
v 0.3 0.3 0.5
v -0.2 0 0.1
v -0.2 0.2 0.1
v 0 0 0.1
v 0 0.2 0.1
v -0.6 0.3 0
v -0.6 0.4 0
v -0.6 0.5 0
v -0.6 0.9 0
v -0.5 0.3 0
v -0.5 0.4 0
v -0.5 0.5 0
v -0.5 0.6 0
v -0.1 0.6 0
v -0.1 0.9 0
v -0.6 0.9 -0.1
v -0.6 1 -0.1
v -0.4 0.9 -0.1
v -0.4 1 -0.1
v -0.1 0.6 -0.1
v -0.1 0.7 -0.1
v 0 0.6 -0.1
v 0 0.7 -0.1
v -0.2 0.9 -0.2
v -0.2 1 -0.2
v -0.1 0.8 -0.2
v -0.1 0.9 -0.2
v 0 0.8 -0.2
v 0 1 -0.2
v -0.6 0.1 0.2
v -0.6 0.4 0.2
v -0.5 0.2 0.2
v -0.5 0.4 0.2
v -0.4 0.1 0.2
v -0.4 0.2 0.2
v -0.1 0.6 0.2
v -0.1 0.7 0.2
v 0.3 0.3 0.2
v 0.3 0.4 0.2
v 0.3 0.5 0.2
v 0.3 0.6 0.2
v 0.4 0.3 0.2
v 0.4 0.4 0.2
v 0.4 0.5 0.2
v 0.4 0.7 0.2
v 0.3 0.4 0.1
v 0.3 0.5 0.1
v 0.4 0.4 0.1
v 0.4 0.5 0.1
v -0.6 0.3 -0.1
v -0.6 0.4 -0.1
v -0.5 0.3 -0.1
v -0.5 0.4 -0.1
v -0.2 0 -0.1
v -0.2 0.2 -0.1
v 0 0 -0.1
v 0 0.2 -0.1
v -0.1 0.6 -0.2
v -0.1 0.7 -0.2
v 0 0.6 -0.2
v 0 0.7 -0.2
v -0.6 0.9 -0.3
v -0.6 1 -0.3
v -0.4 0.9 -0.3
v -0.4 1 -0.3
v -0.5 0.2 -0.4
v -0.5 0.5 -0.4
v -0.1 0.5 -0.4
v -0.1 0.6 -0.4
v 0.3 0.2 -0.4
v 0.3 0.6 -0.4
v -0.6 0.5 -0.5
v -0.6 0.9 -0.5
v -0.2 0.8 -0.5
v -0.2 0.9 -0.5
v -0.1 0.5 -0.5
v -0.1 0.8 -0.5
v -0.2 0.8 -0.6
v -0.2 1 -0.6
v 0 0.8 -0.6
v 0 1 -0.6
v -0.2 0 0.1
v 0 0 0.1
v -0.2 0 -0.1
v 0 0 -0.1
v -0.6 0.1 0.6
v -0.4 0.1 0.6
v -0.6 0.1 0.2
v -0.4 0.1 0.2
v -0.4 0.2 0.5
v 0.3 0.2 0.5
v -0.5 0.2 0.2
v -0.4 0.2 0.2
v -0.2 0.2 0.1
v 0 0.2 0.1
v -0.2 0.2 -0.1
v 0 0.2 -0.1
v -0.5 0.2 -0.4
v 0.3 0.2 -0.4
v -0.1 0.3 0.6
v 0.4 0.3 0.6
v -0.1 0.3 0.5
v 0.3 0.3 0.5
v 0.3 0.3 0.2
v 0.4 0.3 0.2
v -0.6 0.3 0
v -0.5 0.3 0
v -0.6 0.3 -0.1
v -0.5 0.3 -0.1
v 0.3 0.4 0.2
v 0.4 0.4 0.2
v 0.3 0.4 0.1
v 0.4 0.4 0.1
v -0.2 0.5 0.6
v -0.1 0.5 0.6
v -0.2 0.5 0.5
v -0.1 0.5 0.5
v -0.6 0.5 0
v -0.5 0.5 0
v -0.5 0.5 -0.4
v -0.1 0.5 -0.4
v -0.6 0.5 -0.5
v -0.1 0.5 -0.5
v -0.1 0.8 -0.2
v 0 0.8 -0.2
v -0.2 0.8 -0.5
v -0.1 0.8 -0.5
v -0.2 0.8 -0.6
v 0 0.8 -0.6
v -0.6 0.4 0.6
v -0.4 0.4 0.6
v -0.5 0.4 0.5
v -0.4 0.4 0.5
v -0.6 0.4 0.2
v -0.5 0.4 0.2
v -0.6 0.4 0
v -0.5 0.4 0
v -0.6 0.4 -0.1
v -0.5 0.4 -0.1
v 0.3 0.5 0.2
v 0.4 0.5 0.2
v 0.3 0.5 0.1
v 0.4 0.5 0.1
v -0.2 0.6 0.6
v -0.1 0.6 0.6
v -0.5 0.6 0.5
v -0.2 0.6 0.5
v -0.1 0.6 0.5
v -0.1 0.6 0.2
v 0.3 0.6 0.2
v -0.5 0.6 0
v -0.1 0.6 0
v -0.1 0.6 -0.1
v 0 0.6 -0.1
v -0.1 0.6 -0.2
v 0 0.6 -0.2
v -0.1 0.6 -0.4
v 0.3 0.6 -0.4
v -0.1 0.7 0.6
v 0.4 0.7 0.6
v -0.1 0.7 0.2
v 0.4 0.7 0.2
v -0.1 0.7 -0.1
v 0 0.7 -0.1
v -0.1 0.7 -0.2
v 0 0.7 -0.2
v -0.6 0.9 0
v -0.1 0.9 0
v -0.6 0.9 -0.1
v -0.4 0.9 -0.1
v -0.2 0.9 -0.2
v -0.1 0.9 -0.2
v -0.6 0.9 -0.3
v -0.4 0.9 -0.3
v -0.6 0.9 -0.5
v -0.2 0.9 -0.5
v -0.6 1 -0.1
v -0.4 1 -0.1
v -0.2 1 -0.2
v 0 1 -0.2
v -0.6 1 -0.3
v -0.4 1 -0.3
v -0.2 1 -0.6
v 0 1 -0.6

# faces
f 5/1/1 2/1/1 1/1/1
f 6/1/1 2/1/1 5/1/1
f 7/4/1 4/4/1 3/4/1
f 8/4/1 4/4/1 7/4/1
f 11/3/1 10/3/1 9/3/1
f 12/3/1 10/3/1 11/3/1
f 13/3/1 10/3/1 12/3/1
f 14/3/1 10/3/1 13/3/1
f 15/2/1 13/2/1 12/2/1
f 16/2/1 13/2/1 15/2/1
f 19/2/1 18/2/1 17/2/1
f 20/2/1 18/2/1 19/2/1
f 22/2/1 19/2/1 17/2/1
f 23/2/1 19/2/1 22/2/1
f 24/2/1 18/2/1 20/2/1
f 25/2/1 23/2/1 22/2/1
f 25/2/1 24/2/1 23/2/1
f 25/2/1 22/2/1 21/2/1
f 26/2/1 18/2/1 24/2/1
f 26/2/1 24/2/1 25/2/1
f 27/2/1 25/2/1 21/2/1
f 28/2/1 25/2/1 27/2/1
f 31/2/1 30/2/1 29/2/1
f 32/2/1 30/2/1 31/2/1
f 35/4/1 34/4/1 33/4/1
f 36/4/1 34/4/1 35/4/1
f 40/2/1 38/2/1 37/2/1
f 41/2/1 40/2/1 39/2/1
f 42/2/1 38/2/1 40/2/1
f 42/2/1 40/2/1 41/2/1
f 45/3/1 44/3/1 43/3/1
f 46/3/1 44/3/1 45/3/1
f 50/3/1 48/3/1 47/3/1
f 50/3/1 49/3/1 48/3/1
f 51/3/1 49/3/1 50/3/1
f 52/1/2 53/1/2 54/1/2
f 54/1/2 53/1/2 55/1/2
f 52/1/2 54/1/2 56/1/2
f 56/1/2 54/1/2 57/1/2
f 58/2/2 59/2/2 60/2/2
f 60/2/2 59/2/2 61/2/2
f 62/3/2 63/3/2 67/3/2
f 64/3/2 65/3/2 68/3/2
f 66/3/2 67/3/2 69/3/2
f 69/3/2 67/3/2 70/3/2
f 68/3/2 69/3/2 70/3/2
f 67/3/2 63/3/2 71/3/2
f 70/3/2 67/3/2 71/3/2
f 64/3/2 68/3/2 72/3/2
f 68/3/2 70/3/2 72/3/2
f 72/3/2 70/3/2 73/3/2
f 74/2/2 75/2/2 76/2/2
f 76/2/2 75/2/2 77/2/2
f 78/4/2 79/4/2 80/4/2
f 80/4/2 79/4/2 81/4/2
f 82/2/2 83/2/2 84/2/2
f 84/2/2 83/2/2 85/2/2
f 86/2/2 87/2/2 88/2/2
f 88/2/2 87/2/2 89/2/2
f 89/2/2 87/2/2 90/2/2
f 90/2/2 87/2/2 91/2/2
f 91/2/2 87/2/2 93/2/2
f 92/2/2 93/2/2 94/2/2
f 93/2/2 87/2/2 95/2/2
f 94/2/2 93/2/2 95/2/2
f 96/3/2 97/3/2 98/3/2
f 96/3/2 98/3/2 100/3/2
f 98/4/2 99/4/2 100/4/2
f 100/4/2 99/4/2 101/4/2
f 96/3/2 100/3/2 102/3/2
f 102/3/2 100/3/2 103/3/2
f 106/1/3 105/1/3 104/1/3
f 107/1/3 105/1/3 106/1/3
f 111/4/3 109/4/3 108/4/3
f 112/4/3 109/4/3 111/4/3
f 114/3/3 111/3/3 110/3/3
f 114/3/3 113/3/3 112/3/3
f 114/3/3 112/3/3 111/3/3
f 115/3/3 113/3/3 114/3/3
f 119/2/3 117/2/3 116/2/3
f 120/2/3 117/2/3 119/2/3
f 120/2/3 119/2/3 118/2/3
f 121/2/3 117/2/3 120/2/3
f 122/2/3 120/2/3 118/2/3
f 123/2/3 120/2/3 122/2/3
f 124/2/3 122/2/3 118/2/3
f 125/2/3 122/2/3 124/2/3
f 128/2/3 127/2/3 126/2/3
f 129/2/3 127/2/3 128/2/3
f 134/4/3 131/4/3 130/4/3
f 135/4/3 131/4/3 134/4/3
f 136/3/3 133/3/3 132/3/3
f 137/3/3 133/3/3 136/3/3
f 138/3/3 133/3/3 137/3/3
f 139/3/3 133/3/3 138/3/3
f 142/2/3 141/2/3 140/2/3
f 143/2/3 141/2/3 142/2/3
f 146/4/3 145/4/3 144/4/3
f 147/4/3 145/4/3 146/4/3
f 151/2/3 149/2/3 148/2/3
f 152/2/3 151/2/3 150/2/3
f 153/2/3 149/2/3 151/2/3
f 153/2/3 151/2/3 152/2/3
f 154/1/4 155/1/4 156/1/4
f 156/1/4 155/1/4 157/1/4
f 154/1/4 156/1/4 158/1/4
f 158/1/4 156/1/4 159/1/4
f 160/3/4 161/3/4 165/3/4
f 162/3/4 163/3/4 166/3/4
f 166/3/4 163/3/4 167/3/4
f 164/3/4 165/3/4 168/3/4
f 165/3/4 161/3/4 169/3/4
f 168/3/4 165/3/4 169/3/4
f 170/4/4 171/4/4 172/4/4
f 172/4/4 171/4/4 173/4/4
f 174/4/4 175/4/4 176/4/4
f 176/4/4 175/4/4 177/4/4
f 178/2/4 179/2/4 180/2/4
f 180/2/4 179/2/4 181/2/4
f 182/4/4 183/4/4 184/4/4
f 184/4/4 183/4/4 185/4/4
f 186/2/4 187/2/4 188/2/4
f 188/2/4 187/2/4 189/2/4
f 190/2/4 191/2/4 192/2/4
f 190/2/4 192/2/4 194/2/4
f 192/2/4 193/2/4 194/2/4
f 194/2/4 193/2/4 195/2/4
f 196/3/4 197/3/4 198/3/4
f 198/3/4 197/3/4 199/3/4
f 196/3/4 198/3/4 200/3/4
f 200/3/4 198/3/4 201/3/4
f 202/2/4 203/2/4 204/2/4
f 204/2/4 203/2/4 205/2/4
f 208/2/5 207/2/5 206/2/5
f 209/2/5 207/2/5 208/2/5
f 212/1/5 211/1/5 210/1/5
f 213/1/5 211/1/5 212/1/5
f 217/2/5 215/2/5 214/2/5
f 218/2/5 215/2/5 217/2/5
f 218/2/5 217/2/5 216/2/5
f 219/2/5 215/2/5 218/2/5
f 220/2/5 218/2/5 216/2/5
f 221/2/5 215/2/5 219/2/5
f 222/2/5 220/2/5 216/2/5
f 222/2/5 221/2/5 220/2/5
f 223/2/5 215/2/5 221/2/5
f 223/2/5 221/2/5 222/2/5
f 226/3/5 225/3/5 224/3/5
f 227/3/5 225/3/5 226/3/5
f 228/3/5 225/3/5 227/3/5
f 229/3/5 225/3/5 228/3/5
f 232/4/5 231/4/5 230/4/5
f 233/4/5 231/4/5 232/4/5
f 236/4/5 235/4/5 234/4/5
f 237/4/5 235/4/5 236/4/5
f 240/4/5 239/4/5 238/4/5
f 241/4/5 239/4/5 240/4/5
f 244/3/5 243/3/5 242/3/5
f 246/3/5 244/3/5 242/3/5
f 246/3/5 245/3/5 244/3/5
f 247/3/5 245/3/5 246/3/5
f 251/2/5 249/2/5 248/2/5
f 252/2/5 251/2/5 250/2/5
f 253/2/5 249/2/5 251/2/5
f 253/2/5 251/2/5 252/2/5
f 254/1/6 255/1/6 256/1/6
f 256/1/6 255/1/6 257/1/6
f 254/1/6 256/1/6 258/1/6
f 258/1/6 256/1/6 259/1/6
f 260/4/6 261/4/6 262/4/6
f 262/4/6 261/4/6 263/4/6
f 264/4/6 265/4/6 266/4/6
f 266/4/6 265/4/6 267/4/6
f 268/4/6 269/4/6 271/4/6
f 271/4/6 269/4/6 272/4/6
f 270/2/6 271/2/6 273/2/6
f 271/2/6 272/2/6 273/2/6
f 270/2/6 273/2/6 275/2/6
f 273/2/6 274/2/6 275/2/6
f 275/2/6 274/2/6 276/2/6
f 276/2/6 274/2/6 277/2/6
f 277/2/6 274/2/6 278/2/6
f 278/2/6 274/2/6 280/2/6
f 279/2/6 280/2/6 281/2/6
f 280/2/6 274/2/6 282/2/6
f 281/2/6 280/2/6 282/2/6
f 283/3/6 284/3/6 285/3/6
f 285/3/6 284/3/6 286/3/6
f 287/4/6 288/4/6 289/4/6
f 289/4/6 288/4/6 290/4/6
f 291/3/6 292/3/6 293/3/6
f 293/3/6 292/3/6 294/3/6
f 294/3/6 292/3/6 295/3/6
f 295/3/6 292/3/6 296/3/6
f 294/3/6 295/3/6 298/3/6
f 297/3/6 298/3/6 299/3/6
f 298/3/6 295/3/6 300/3/6
f 299/3/6 298/3/6 300/3/6
f 301/2/6 302/2/6 305/2/6
f 305/2/6 302/2/6 306/2/6
f 303/2/6 304/2/6 307/2/6
f 307/2/6 304/2/6 308/2/6
