# MagicaVoxel @ Ephtracy

# group
o 

# material
mtllib Bush7.mtl
usemtl palette

# normals
vn -1 0 0
vn 1 0 0
vn 0 0 1
vn 0 0 -1
vn 0 -1 0
vn 0 1 0

# texcoords
vt 0.978516 0.5
vt 0.986328 0.5
vt 0.990234 0.5

# verts
v -0.9 0 0.6
v -0.9 0 0.1
v -0.9 0.1 0.6
v -0.9 0.1 0.1
v -0.8 0 0.8
v -0.8 0 0.6
v -0.8 0 -0.6
v -0.8 0 -0.8
v -0.8 0.1 0.6
v -0.8 0.1 0.2
v -0.8 0.2 0.8
v -0.8 0.2 0.2
v -0.8 0.2 -0.6
v -0.8 0.2 -0.8
v -0.6 0 0.2
v -0.6 0 -5.96046e-08
v -0.6 0.1 0.2
v -0.6 0.1 -5.96046e-08
v -0.5 0.2 0.7
v -0.5 0.2 0.4
v -0.5 0.3 0.7
v -0.5 0.3 0.4
v 0.1 0 -0.2
v 0.1 0 -0.4
v 0.1 0.3 -0.2
v 0.1 0.3 -0.4
v 0.2 0 -0.1
v 0.2 0 -0.2
v 0.2 0 -0.4
v 0.2 0 -0.5
v 0.2 0.2 -0.1
v 0.2 0.2 -0.2
v 0.2 0.2 -0.4
v 0.2 0.2 -0.5
v 0.4 0 -5.96046e-08
v 0.4 0 -0.1
v 0.4 0.2 -0.1
v 0.4 0.2 -0.3
v 0.4 0.3 -5.96046e-08
v 0.4 0.3 -0.3
v -0.7 0 0.2
v -0.7 0 0.1
v -0.7 0.1 0.2
v -0.7 0.1 0.1
v -0.6 0 -0.6
v -0.6 0 -0.8
v -0.6 0.2 -0.6
v -0.6 0.2 -0.8
v -0.3 0 0.8
v -0.3 0 0.7
v -0.3 0.1 0.4
v -0.3 0.1 0.2
v -0.3 0.2 0.8
v -0.3 0.2 0.7
v -0.3 0.2 0.4
v -0.3 0.2 0.2
v -0.2 0 0.7
v -0.2 0 0.5
v -0.2 0.1 0.5
v -0.2 0.1 0.4
v -0.2 0.3 0.7
v -0.2 0.3 0.4
v 0 0 0.5
v 0 0 -5.96046e-08
v 0 0.1 0.5
v 0 0.1 -5.96046e-08
v 0.3 0.2 -0.2
v 0.3 0.2 -0.4
v 0.3 0.3 -0.2
v 0.3 0.3 -0.4
v 0.6 0 -0.3
v 0.6 0 -0.5
v 0.6 0.2 -0.3
v 0.6 0.2 -0.5
v 0.8 0 -5.96046e-08
v 0.8 0 -0.3
v 0.8 0.3 -5.96046e-08
v 0.8 0.3 -0.3
v -0.8 0 0.8
v -0.8 0.2 0.8
v -0.3 0 0.8
v -0.3 0.2 0.8
v -0.5 0.2 0.7
v -0.5 0.3 0.7
v -0.3 0 0.7
v -0.3 0.2 0.7
v -0.2 0 0.7
v -0.2 0.3 0.7
v -0.9 0 0.6
v -0.9 0.1 0.6
v -0.8 0 0.6
v -0.8 0.1 0.6
v -0.2 0 0.5
v -0.2 0.1 0.5
v 0 0 0.5
v 0 0.1 0.5
v 0.4 0 -5.96046e-08
v 0.4 0.3 -5.96046e-08
v 0.8 0 -5.96046e-08
v 0.8 0.3 -5.96046e-08
v 0.2 0 -0.1
v 0.2 0.2 -0.1
v 0.4 0 -0.1
v 0.4 0.2 -0.1
v 0.1 0 -0.2
v 0.1 0.3 -0.2
v 0.2 0 -0.2
v 0.2 0.2 -0.2
v 0.3 0.2 -0.2
v 0.3 0.3 -0.2
v -0.8 0 -0.6
v -0.8 0.2 -0.6
v -0.6 0 -0.6
v -0.6 0.2 -0.6
v -0.5 0.2 0.4
v -0.5 0.3 0.4
v -0.3 0.1 0.4
v -0.3 0.2 0.4
v -0.2 0.1 0.4
v -0.2 0.3 0.4
v -0.8 0.1 0.2
v -0.8 0.2 0.2
v -0.7 0 0.2
v -0.7 0.1 0.2
v -0.6 0 0.2
v -0.6 0.1 0.2
v -0.3 0.1 0.2
v -0.3 0.2 0.2
v -0.9 0 0.1
v -0.9 0.1 0.1
v -0.7 0 0.1
v -0.7 0.1 0.1
v -0.6 0 -5.96046e-08
v -0.6 0.1 -5.96046e-08
v 0 0 -5.96046e-08
v 0 0.1 -5.96046e-08
v 0.4 0.2 -0.3
v 0.4 0.3 -0.3
v 0.6 0 -0.3
v 0.6 0.2 -0.3
v 0.8 0 -0.3
v 0.8 0.3 -0.3
v 0.1 0 -0.4
v 0.1 0.3 -0.4
v 0.2 0 -0.4
v 0.2 0.2 -0.4
v 0.3 0.2 -0.4
v 0.3 0.3 -0.4
v 0.2 0 -0.5
v 0.2 0.2 -0.5
v 0.6 0 -0.5
v 0.6 0.2 -0.5
v -0.8 0 -0.8
v -0.8 0.2 -0.8
v -0.6 0 -0.8
v -0.6 0.2 -0.8
v -0.8 0 0.8
v -0.3 0 0.8
v -0.3 0 0.7
v -0.2 0 0.7
v -0.9 0 0.6
v -0.8 0 0.6
v -0.3 0 0.5
v -0.2 0 0.5
v 0 0 0.5
v -0.8 0 0.2
v -0.7 0 0.2
v -0.6 0 0.2
v -0.3 0 0.2
v -0.9 0 0.1
v -0.7 0 0.1
v -0.6 0 -5.96046e-08
v 0 0 -5.96046e-08
v 0.4 0 -5.96046e-08
v 0.8 0 -5.96046e-08
v 0.2 0 -0.1
v 0.4 0 -0.1
v 0.1 0 -0.2
v 0.2 0 -0.2
v 0.6 0 -0.3
v 0.8 0 -0.3
v 0.1 0 -0.4
v 0.2 0 -0.4
v 0.2 0 -0.5
v 0.6 0 -0.5
v -0.8 0 -0.6
v -0.6 0 -0.6
v -0.8 0 -0.8
v -0.6 0 -0.8
v -0.9 0.1 0.6
v -0.8 0.1 0.6
v -0.2 0.1 0.5
v 0 0.1 0.5
v -0.3 0.1 0.4
v -0.2 0.1 0.4
v -0.8 0.1 0.2
v -0.7 0.1 0.2
v -0.6 0.1 0.2
v -0.3 0.1 0.2
v -0.9 0.1 0.1
v -0.7 0.1 0.1
v -0.6 0.1 -5.96046e-08
v 0 0.1 -5.96046e-08
v -0.8 0.2 0.8
v -0.3 0.2 0.8
v -0.5 0.2 0.7
v -0.3 0.2 0.7
v -0.5 0.2 0.4
v -0.3 0.2 0.4
v -0.8 0.2 0.2
v -0.3 0.2 0.2
v 0.2 0.2 -0.1
v 0.4 0.2 -0.1
v 0.2 0.2 -0.2
v 0.3 0.2 -0.2
v 0.4 0.2 -0.3
v 0.6 0.2 -0.3
v 0.2 0.2 -0.4
v 0.3 0.2 -0.4
v 0.2 0.2 -0.5
v 0.6 0.2 -0.5
v -0.8 0.2 -0.6
v -0.6 0.2 -0.6
v -0.8 0.2 -0.8
v -0.6 0.2 -0.8
v -0.5 0.3 0.7
v -0.2 0.3 0.7
v -0.5 0.3 0.4
v -0.2 0.3 0.4
v 0.4 0.3 -5.96046e-08
v 0.8 0.3 -5.96046e-08
v 0.1 0.3 -0.2
v 0.3 0.3 -0.2
v 0.4 0.3 -0.3
v 0.8 0.3 -0.3
v 0.1 0.3 -0.4
v 0.3 0.3 -0.4

# faces
f 3/1/1 2/1/1 1/1/1
f 4/1/1 2/1/1 3/1/1
f 9/2/1 6/2/1 5/2/1
f 11/2/1 9/2/1 5/2/1
f 11/2/1 10/2/1 9/2/1
f 12/2/1 10/2/1 11/2/1
f 13/1/1 8/1/1 7/1/1
f 14/1/1 8/1/1 13/1/1
f 17/3/1 16/3/1 15/3/1
f 18/3/1 16/3/1 17/3/1
f 21/2/1 20/2/1 19/2/1
f 22/2/1 20/2/1 21/2/1
f 25/2/1 24/2/1 23/2/1
f 26/2/1 24/2/1 25/2/1
f 31/1/1 28/1/1 27/1/1
f 32/1/1 28/1/1 31/1/1
f 33/1/1 30/1/1 29/1/1
f 34/1/1 30/1/1 33/1/1
f 37/1/1 36/1/1 35/1/1
f 39/1/1 37/1/1 35/1/1
f 39/1/1 38/1/1 37/1/1
f 40/1/1 38/1/1 39/1/1
f 41/1/2 42/1/2 43/1/2
f 43/1/2 42/1/2 44/1/2
f 45/1/2 46/1/2 47/1/2
f 47/1/2 46/1/2 48/1/2
f 49/2/2 50/2/2 53/2/2
f 53/2/2 50/2/2 54/2/2
f 51/2/2 52/2/2 55/2/2
f 55/2/2 52/2/2 56/2/2
f 57/2/2 58/2/2 59/2/2
f 57/2/2 59/2/2 61/2/2
f 59/2/2 60/2/2 61/2/2
f 61/2/2 60/2/2 62/2/2
f 63/3/2 64/3/2 65/3/2
f 65/3/2 64/3/2 66/3/2
f 67/2/2 68/2/2 69/2/2
f 69/2/2 68/2/2 70/2/2
f 71/1/2 72/1/2 73/1/2
f 73/1/2 72/1/2 74/1/2
f 75/1/2 76/1/2 77/1/2
f 77/1/2 76/1/2 78/1/2
f 81/2/3 80/2/3 79/2/3
f 82/2/3 80/2/3 81/2/3
f 86/2/3 84/2/3 83/2/3
f 87/2/3 86/2/3 85/2/3
f 88/2/3 84/2/3 86/2/3
f 88/2/3 86/2/3 87/2/3
f 91/1/3 90/1/3 89/1/3
f 92/1/3 90/1/3 91/1/3
f 95/3/3 94/3/3 93/3/3
f 96/3/3 94/3/3 95/3/3
f 99/1/3 98/1/3 97/1/3
f 100/1/3 98/1/3 99/1/3
f 103/1/3 102/1/3 101/1/3
f 104/1/3 102/1/3 103/1/3
f 107/2/3 106/2/3 105/2/3
f 108/2/3 106/2/3 107/2/3
f 109/2/3 106/2/3 108/2/3
f 110/2/3 106/2/3 109/2/3
f 113/1/3 112/1/3 111/1/3
f 114/1/3 112/1/3 113/1/3
f 115/2/4 116/2/4 118/2/4
f 117/2/4 118/2/4 119/2/4
f 118/2/4 116/2/4 120/2/4
f 119/2/4 118/2/4 120/2/4
f 121/2/4 122/2/4 124/2/4
f 123/2/4 124/2/4 125/2/4
f 124/2/4 122/2/4 126/2/4
f 125/2/4 124/2/4 126/2/4
f 126/2/4 122/2/4 127/2/4
f 127/2/4 122/2/4 128/2/4
f 129/1/4 130/1/4 131/1/4
f 131/1/4 130/1/4 132/1/4
f 133/3/4 134/3/4 135/3/4
f 135/3/4 134/3/4 136/3/4
f 137/1/4 138/1/4 140/1/4
f 139/1/4 140/1/4 141/1/4
f 140/1/4 138/1/4 142/1/4
f 141/1/4 140/1/4 142/1/4
f 143/2/4 144/2/4 145/2/4
f 145/2/4 144/2/4 146/2/4
f 146/2/4 144/2/4 147/2/4
f 147/2/4 144/2/4 148/2/4
f 149/1/4 150/1/4 151/1/4
f 151/1/4 150/1/4 152/1/4
f 153/1/4 154/1/4 155/1/4
f 155/1/4 154/1/4 156/1/4
f 159/2/5 158/2/5 157/2/5
f 162/2/5 159/2/5 157/2/5
f 162/2/5 160/2/5 159/2/5
f 163/2/5 160/2/5 162/2/5
f 164/2/5 160/2/5 163/2/5
f 166/1/5 162/1/5 161/1/5
f 166/2/5 163/2/5 162/2/5
f 167/2/5 163/2/5 166/2/5
f 168/2/5 163/2/5 167/2/5
f 169/3/5 165/3/5 164/3/5
f 169/2/5 163/2/5 168/2/5
f 169/3/5 164/3/5 163/3/5
f 170/1/5 167/1/5 166/1/5
f 170/1/5 166/1/5 161/1/5
f 171/1/5 167/1/5 170/1/5
f 172/3/5 169/3/5 168/3/5
f 173/3/5 165/3/5 169/3/5
f 173/3/5 169/3/5 172/3/5
f 177/1/5 175/1/5 174/1/5
f 179/1/5 177/1/5 176/1/5
f 180/1/5 175/1/5 177/1/5
f 180/1/5 177/1/5 179/1/5
f 181/1/5 175/1/5 180/1/5
f 182/2/5 179/2/5 178/2/5
f 183/1/5 180/1/5 179/1/5
f 183/2/5 179/2/5 182/2/5
f 184/1/5 180/1/5 183/1/5
f 185/1/5 180/1/5 184/1/5
f 188/1/5 187/1/5 186/1/5
f 189/1/5 187/1/5 188/1/5
f 192/3/6 193/3/6 195/3/6
f 190/1/6 191/1/6 196/1/6
f 194/3/6 195/3/6 199/3/6
f 196/1/6 197/1/6 200/1/6
f 190/1/6 196/1/6 200/1/6
f 200/1/6 197/1/6 201/1/6
f 198/3/6 199/3/6 202/3/6
f 195/3/6 193/3/6 203/3/6
f 202/3/6 199/3/6 203/3/6
f 199/3/6 195/3/6 203/3/6
f 204/2/6 205/2/6 206/2/6
f 206/2/6 205/2/6 207/2/6
f 204/2/6 206/2/6 208/2/6
f 204/2/6 208/2/6 210/2/6
f 208/2/6 209/2/6 210/2/6
f 210/2/6 209/2/6 211/2/6
f 212/1/6 213/1/6 214/1/6
f 214/1/6 213/1/6 215/1/6
f 215/1/6 213/1/6 216/1/6
f 215/1/6 216/1/6 219/1/6
f 216/1/6 217/1/6 219/1/6
f 218/1/6 219/1/6 220/1/6
f 219/1/6 217/1/6 221/1/6
f 220/1/6 219/1/6 221/1/6
f 222/1/6 223/1/6 224/1/6
f 224/1/6 223/1/6 225/1/6
f 226/2/6 227/2/6 228/2/6
f 228/2/6 227/2/6 229/2/6
f 230/1/6 231/1/6 234/1/6
f 234/1/6 231/1/6 235/1/6
f 232/2/6 233/2/6 236/2/6
f 236/2/6 233/2/6 237/2/6
