# MagicaVoxel @ Ephtracy

# group
o 

# material
mtllib Chene4.mtl
usemtl palette

# normals
vn -1 0 0
vn 1 0 0
vn 0 0 1
vn 0 0 -1
vn 0 -1 0
vn 0 1 0

# texcoords
vt 0.939453 0.5
vt 0.943359 0.5
vt 0.986328 0.5
vt 0.990234 0.5
vt 0.994141 0.5

# verts
v -1 1.6 -0.1
v -1 1.6 -0.3
v -1 1.9 -0.1
v -1 1.9 -0.3
v -1 1.9 -0.4
v -1 1.9 -0.5
v -1 2 -0.4
v -1 2 -0.5
v -1 2 -0.6
v -1 2.3 -0.4
v -1 2.3 -0.6
v -0.9 1.7 0.1
v -0.9 1.7 -0.1
v -0.9 1.7 -0.3
v -0.9 1.7 -0.5
v -0.9 1.9 -0.1
v -0.9 1.9 -0.3
v -0.9 1.9 -0.4
v -0.9 1.9 -0.5
v -0.9 2 -0.4
v -0.9 2.3 -0.4
v -0.9 2.3 -0.5
v -0.9 2.4 0.1
v -0.9 2.4 -0.5
v -0.7 2 0.4
v -0.7 2 0.1
v -0.7 2.3 0.4
v -0.7 2.3 0.1
v -0.6 1.9 0.2
v -0.6 1.9 0.1
v -0.6 2 0.2
v -0.6 2 0.1
v -0.5 1.9 0.5
v -0.5 1.9 0.2
v -0.5 2 0.4
v -0.5 2 0.2
v -0.5 2.2 0.5
v -0.5 2.2 0.4
v -0.4 1.3 0.4
v -0.4 1.3 0.2
v -0.4 1.5 0.4
v -0.4 1.5 0.2
v -0.4 1.6 -0.1
v -0.4 1.6 -0.2
v -0.4 1.7 -0.1
v -0.4 1.7 -0.2
v -0.4 1.8 -0.5
v -0.4 1.8 -0.6
v -0.4 2 -0.5
v -0.4 2 -0.6
v -0.4 2.4 0
v -0.4 2.4 -0.3
v -0.4 2.6 0
v -0.4 2.6 -0.3
v -0.3 1.2 0.4
v -0.3 1.2 0.2
v -0.3 1.3 0.4
v -0.3 1.3 0.2
v -0.3 1.6 0.6
v -0.3 1.6 -0.1
v -0.3 1.7 0.1
v -0.3 1.7 -0.1
v -0.3 1.9 0.5
v -0.3 1.9 0.1
v -0.3 2 -0.5
v -0.3 2 -0.6
v -0.3 2.1 -0.5
v -0.3 2.1 -0.6
v -0.3 2.2 0.5
v -0.3 2.2 0.4
v -0.3 2.3 0.4
v -0.3 2.3 0.1
v -0.3 2.4 0.1
v -0.3 2.4 0
v -0.3 2.5 0.6
v -0.3 2.5 0
v -0.2 1.1 0.3
v -0.2 1.1 0
v -0.2 1.2 0.3
v -0.2 1.2 0.2
v -0.2 1.3 0.2
v -0.2 1.3 0
v -0.1 0 0.1
v -0.1 0 -0.1
v -0.1 0.7 0.1
v -0.1 0.7 0
v -0.1 0.9 0.1
v -0.1 0.9 0
v -0.1 1.1 0.1
v -0.1 1.1 0
v -0.1 1.3 0.1
v -0.1 1.3 0
v -0.1 1.4 0
v -0.1 1.4 -0.1
v -0.1 1.5 0
v -0.1 1.5 -0.1
v -0.1 1.6 0.1
v -0.1 1.6 -0.1
v -0.1 2.1 -0.5
v -0.1 2.1 -0.6
v -0.1 2.4 -0.3
v -0.1 2.4 -0.5
v -0.1 2.5 0.5
v -0.1 2.5 0.3
v -0.1 2.5 0.2
v -0.1 2.5 -0.2
v -0.1 2.5 -0.3
v -0.1 2.6 0.5
v -0.1 2.6 0.3
v -0.1 2.6 0.2
v -0.1 2.6 -0.6
v 0 0.6 -0.1
v 0 0.6 -0.2
v 0 0.7 -0.1
v 0 0.7 -0.2
v 0.1 2.2 -0.6
v 0.1 2.2 -0.7
v 0.1 2.4 -0.6
v 0.1 2.4 -0.7
v 0.2 2.6 -0.1
v 0.2 2.6 -0.4
v 0.2 2.7 -0.1
v 0.2 2.7 -0.4
v -0.7 1.6 -0.1
v -0.7 1.6 -0.3
v -0.7 1.7 -0.1
v -0.7 1.7 -0.3
v -0.7 2 -0.5
v -0.7 2 -0.6
v -0.7 2.3 -0.5
v -0.7 2.3 -0.6
v -0.2 1.4 0.4
v -0.2 1.4 0.2
v -0.2 1.5 0.4
v -0.2 1.5 0.2
v -0.2 1.8 -0.5
v -0.2 1.8 -0.6
v -0.2 1.9 -0.5
v -0.2 1.9 -0.6
v -0.2 2.5 0
v -0.2 2.5 -0.2
v -0.2 2.5 -0.3
v -0.2 2.6 0
v -0.2 2.6 -0.3
v -0.1 1.2 0.4
v -0.1 1.2 0.3
v -0.1 1.3 0.3
v -0.1 1.3 0.2
v -0.1 1.4 0.4
v -0.1 1.4 0.2
v -0.1 1.7 -0.2
v -0.1 1.7 -0.5
v -0.1 1.8 -0.2
v -0.1 1.8 -0.4
v -0.1 1.8 -0.5
v 0 1.1 0.3
v 0 1.1 0.1
v 0 1.3 0.3
v 0 1.3 0.1
v 0 1.8 -0.4
v 0 1.8 -0.5
v 0 1.9 -0.4
v 0 1.9 -0.5
v 0.1 0 0.1
v 0.1 0 -0.1
v 0.1 0.6 0
v 0.1 0.6 -0.1
v 0.1 0.7 0.1
v 0.1 0.7 0
v 0.1 0.7 -0.1
v 0.1 0.9 0.1
v 0.1 0.9 0
v 0.1 1.5 0
v 0.1 1.5 -0.1
v 0.1 1.6 0.1
v 0.1 1.6 0
v 0.1 1.6 -0.1
v 0.1 1.8 -0.2
v 0.1 1.8 -0.4
v 0.1 1.9 -0.2
v 0.1 1.9 -0.4
v 0.1 2.5 0.5
v 0.1 2.5 0.3
v 0.1 2.6 0.5
v 0.1 2.6 0.3
v 0.2 0.6 0
v 0.2 0.6 -0.2
v 0.2 0.7 0
v 0.2 0.7 -0.2
v 0.3 1.6 0.6
v 0.3 1.6 -0.2
v 0.3 1.8 0.4
v 0.3 1.8 -0.1
v 0.3 1.8 -0.2
v 0.3 1.9 0.5
v 0.3 1.9 0.4
v 0.3 2 0.5
v 0.3 2.2 0.5
v 0.3 2.2 0.4
v 0.3 2.2 -0.6
v 0.3 2.2 -0.7
v 0.3 2.4 0.4
v 0.3 2.4 0.2
v 0.3 2.4 -0.6
v 0.3 2.4 -0.7
v 0.3 2.5 0.6
v 0.3 2.5 0.2
v 0.4 1.8 -0.1
v 0.4 1.8 -0.2
v 0.4 1.9 0.5
v 0.4 1.9 0.4
v 0.4 1.9 -0.1
v 0.4 1.9 -0.2
v 0.4 1.9 -0.6
v 0.4 2 0.5
v 0.4 2 0.4
v 0.4 2.3 -0.3
v 0.4 2.3 -0.5
v 0.4 2.4 0.2
v 0.4 2.4 -0.1
v 0.4 2.6 0.2
v 0.4 2.6 -0.1
v 0.4 2.6 -0.3
v 0.4 2.6 -0.4
v 0.4 2.6 -0.5
v 0.4 2.6 -0.6
v 0.4 2.7 -0.1
v 0.4 2.7 -0.4
v 0.5 2 0.5
v 0.5 2 0.4
v 0.5 2.2 0.5
v 0.5 2.2 0.4
v 0.5 2.3 -0.3
v 0.5 2.3 -0.5
v 0.5 2.6 -0.3
v 0.5 2.6 -0.5
v 0.6 1.8 0.4
v 0.6 1.8 -0.1
v 0.6 2.4 0.4
v 0.6 2.4 -0.1
v -0.3 1.6 0.6
v -0.3 2.5 0.6
v 0.3 1.6 0.6
v 0.3 2.5 0.6
v -0.5 1.9 0.5
v -0.5 2.2 0.5
v -0.3 1.9 0.5
v -0.3 2.2 0.5
v -0.1 2.5 0.5
v -0.1 2.6 0.5
v 0.1 2.5 0.5
v 0.1 2.6 0.5
v 0.3 1.9 0.5
v 0.3 2 0.5
v 0.3 2.2 0.5
v 0.4 1.9 0.5
v 0.4 2 0.5
v 0.5 2 0.5
v 0.5 2.2 0.5
v -0.7 2 0.4
v -0.7 2.3 0.4
v -0.5 2 0.4
v -0.5 2.2 0.4
v -0.4 1.3 0.4
v -0.4 1.5 0.4
v -0.3 1.2 0.4
v -0.3 1.3 0.4
v -0.3 2.2 0.4
v -0.3 2.3 0.4
v -0.2 1.4 0.4
v -0.2 1.5 0.4
v -0.1 1.2 0.4
v -0.1 1.4 0.4
v 0.3 1.8 0.4
v 0.3 1.9 0.4
v 0.3 2.2 0.4
v 0.3 2.4 0.4
v 0.4 1.9 0.4
v 0.4 2 0.4
v 0.5 2 0.4
v 0.5 2.2 0.4
v 0.6 1.8 0.4
v 0.6 2.4 0.4
v -0.2 1.1 0.3
v -0.2 1.2 0.3
v -0.1 1.2 0.3
v -0.1 1.3 0.3
v 0 1.1 0.3
v 0 1.3 0.3
v -0.6 1.9 0.2
v -0.6 2 0.2
v -0.5 1.9 0.2
v -0.5 2 0.2
v -0.1 2.5 0.2
v -0.1 2.6 0.2
v 0.3 2.4 0.2
v 0.3 2.5 0.2
v 0.4 2.4 0.2
v 0.4 2.6 0.2
v -0.9 1.7 0.1
v -0.9 2.4 0.1
v -0.7 2 0.1
v -0.7 2.3 0.1
v -0.6 1.9 0.1
v -0.6 2 0.1
v -0.5 1.9 0.1
v -0.3 1.7 0.1
v -0.3 1.9 0.1
v -0.3 2.3 0.1
v -0.3 2.4 0.1
v -0.1 0 0.1
v -0.1 0.7 0.1
v -0.1 0.9 0.1
v -0.1 1.1 0.1
v -0.1 1.3 0.1
v -0.1 1.6 0.1
v 0 1.1 0.1
v 0 1.3 0.1
v 0.1 0 0.1
v 0.1 0.7 0.1
v 0.1 0.9 0.1
v 0.1 1.6 0.1
v -0.4 2.4 0
v -0.4 2.6 0
v -0.3 2.4 0
v -0.3 2.5 0
v -0.2 2.5 0
v -0.2 2.6 0
v 0.1 0.6 0
v 0.1 0.7 0
v 0.2 0.6 0
v 0.2 0.7 0
v -1 1.6 -0.1
v -1 1.9 -0.1
v -0.9 1.7 -0.1
v -0.9 1.9 -0.1
v -0.7 1.6 -0.1
v -0.7 1.7 -0.1
v -0.4 1.6 -0.1
v -0.4 1.7 -0.1
v -0.3 1.6 -0.1
v -0.3 1.7 -0.1
v 0.2 2.6 -0.1
v 0.2 2.7 -0.1
v 0.4 2.6 -0.1
v 0.4 2.7 -0.1
v 0.4 2.3 -0.3
v 0.4 2.6 -0.3
v 0.5 2.3 -0.3
v 0.5 2.6 -0.3
v -1 1.9 -0.4
v -1 2 -0.4
v -1 2.3 -0.4
v -0.9 1.9 -0.4
v -0.9 2 -0.4
v -0.9 2.3 -0.4
v -0.1 2.5 0.3
v -0.1 2.6 0.3
v 0.1 2.5 0.3
v 0.1 2.6 0.3
v -0.4 1.3 0.2
v -0.4 1.5 0.2
v -0.3 1.2 0.2
v -0.3 1.3 0.2
v -0.2 1.2 0.2
v -0.2 1.3 0.2
v -0.2 1.4 0.2
v -0.2 1.5 0.2
v -0.1 1.3 0.2
v -0.1 1.4 0.2
v -0.2 1.1 0
v -0.2 1.3 0
v -0.1 1.1 0
v -0.1 1.3 0
v -0.1 0 -0.1
v -0.1 1.4 -0.1
v -0.1 1.5 -0.1
v -0.1 1.6 -0.1
v 0 0.6 -0.1
v 0 0.7 -0.1
v 0 1.4 -0.1
v 0 1.5 -0.1
v 0 1.6 -0.1
v 0.1 0 -0.1
v 0.1 0.6 -0.1
v 0.1 0.7 -0.1
v 0.1 1.5 -0.1
v 0.1 1.6 -0.1
v 0.4 1.8 -0.1
v 0.4 1.9 -0.1
v 0.4 2.4 -0.1
v 0.6 1.8 -0.1
v 0.6 2.4 -0.1
v -0.4 1.6 -0.2
v -0.4 1.7 -0.2
v -0.3 1.6 -0.2
v -0.3 1.7 -0.2
v -0.1 1.7 -0.2
v -0.1 1.8 -0.2
v 0 0.6 -0.2
v 0 0.7 -0.2
v 0.1 1.8 -0.2
v 0.1 1.9 -0.2
v 0.2 0.6 -0.2
v 0.2 0.7 -0.2
v 0.3 1.6 -0.2
v 0.3 1.8 -0.2
v 0.3 1.9 -0.2
v 0.4 1.8 -0.2
v 0.4 1.9 -0.2
v -1 1.6 -0.3
v -1 1.9 -0.3
v -0.9 1.7 -0.3
v -0.9 1.9 -0.3
v -0.7 1.6 -0.3
v -0.7 1.7 -0.3
v -0.4 2.4 -0.3
v -0.4 2.6 -0.3
v -0.2 2.4 -0.3
v -0.2 2.5 -0.3
v -0.2 2.6 -0.3
v -0.1 2.4 -0.3
v -0.1 2.5 -0.3
v 0 1.8 -0.4
v 0 1.9 -0.4
v 0.1 1.8 -0.4
v 0.1 1.9 -0.4
v 0.2 2.6 -0.4
v 0.2 2.7 -0.4
v 0.4 2.6 -0.4
v 0.4 2.7 -0.4
v -1 1.9 -0.5
v -1 2 -0.5
v -0.9 1.7 -0.5
v -0.9 1.9 -0.5
v -0.9 2 -0.5
v -0.9 2.3 -0.5
v -0.9 2.4 -0.5
v -0.7 2 -0.5
v -0.7 2.3 -0.5
v -0.4 1.8 -0.5
v -0.4 2 -0.5
v -0.3 2 -0.5
v -0.3 2.1 -0.5
v -0.2 1.8 -0.5
v -0.2 1.9 -0.5
v -0.1 1.7 -0.5
v -0.1 1.8 -0.5
v -0.1 1.9 -0.5
v -0.1 2.1 -0.5
v -0.1 2.4 -0.5
v 0 1.8 -0.5
v 0 1.9 -0.5
v 0.4 2.3 -0.5
v 0.4 2.6 -0.5
v 0.5 2.3 -0.5
v 0.5 2.6 -0.5
v -1 2 -0.6
v -1 2.3 -0.6
v -0.7 2 -0.6
v -0.7 2.3 -0.6
v -0.4 1.8 -0.6
v -0.4 2 -0.6
v -0.3 2 -0.6
v -0.3 2.1 -0.6
v -0.2 1.8 -0.6
v -0.2 1.9 -0.6
v -0.1 1.9 -0.6
v -0.1 2.1 -0.6
v -0.1 2.6 -0.6
v 0.1 2.2 -0.6
v 0.1 2.4 -0.6
v 0.3 2.2 -0.6
v 0.3 2.4 -0.6
v 0.4 1.9 -0.6
v 0.4 2.6 -0.6
v 0.1 2.2 -0.7
v 0.1 2.4 -0.7
v 0.3 2.2 -0.7
v 0.3 2.4 -0.7
v -0.1 0 0.1
v 0.1 0 0.1
v -0.1 0 -0.1
v 0.1 0 -0.1
v 0.1 0.6 0
v 0.2 0.6 0
v 0 0.6 -0.1
v 0.1 0.6 -0.1
v 0 0.6 -0.2
v 0.2 0.6 -0.2
v -0.2 1.1 0.3
v 0 1.1 0.3
v -0.1 1.1 0.1
v 0 1.1 0.1
v -0.2 1.1 0
v -0.1 1.1 0
v -0.3 1.2 0.4
v -0.1 1.2 0.4
v -0.2 1.2 0.3
v -0.1 1.2 0.3
v -0.3 1.2 0.2
v -0.2 1.2 0.2
v -0.4 1.3 0.4
v -0.3 1.3 0.4
v -0.4 1.3 0.2
v -0.3 1.3 0.2
v -0.3 1.6 0.6
v 0.3 1.6 0.6
v -0.1 1.6 0.1
v 0.1 1.6 0.1
v 0.1 1.6 0
v -1 1.6 -0.1
v -0.7 1.6 -0.1
v -0.4 1.6 -0.1
v -0.3 1.6 -0.1
v -0.1 1.6 -0.1
v 0 1.6 -0.1
v 0.1 1.6 -0.1
v -0.4 1.6 -0.2
v -0.3 1.6 -0.2
v 0.3 1.6 -0.2
v -1 1.6 -0.3
v -0.7 1.6 -0.3
v -0.9 1.7 0.1
v -0.3 1.7 0.1
v -0.9 1.7 -0.1
v -0.7 1.7 -0.1
v -0.4 1.7 -0.1
v -0.3 1.7 -0.1
v -0.4 1.7 -0.2
v -0.3 1.7 -0.2
v -0.1 1.7 -0.2
v -0.9 1.7 -0.3
v -0.7 1.7 -0.3
v -0.9 1.7 -0.5
v -0.1 1.7 -0.5
v 0.3 1.8 0.4
v 0.6 1.8 0.4
v 0.3 1.8 -0.1
v 0.4 1.8 -0.1
v 0.6 1.8 -0.1
v -0.1 1.8 -0.2
v 0.1 1.8 -0.2
v 0.3 1.8 -0.2
v 0.4 1.8 -0.2
v -0.1 1.8 -0.4
v 0 1.8 -0.4
v 0.1 1.8 -0.4
v -0.4 1.8 -0.5
v -0.2 1.8 -0.5
v -0.1 1.8 -0.5
v 0 1.8 -0.5
v -0.4 1.8 -0.6
v -0.2 1.8 -0.6
v -0.5 1.9 0.5
v -0.3 1.9 0.5
v 0.3 1.9 0.5
v 0.4 1.9 0.5
v 0.3 1.9 0.4
v 0.4 1.9 0.4
v -0.6 1.9 0.2
v -0.5 1.9 0.2
v -0.6 1.9 0.1
v -0.5 1.9 0.1
v -0.3 1.9 0.1
v 0.1 1.9 -0.2
v 0.3 1.9 -0.2
v 0.4 1.9 -0.2
v -1 1.9 -0.4
v -0.9 1.9 -0.4
v 0 1.9 -0.4
v 0.1 1.9 -0.4
v -1 1.9 -0.5
v -0.9 1.9 -0.5
v -0.2 1.9 -0.5
v -0.1 1.9 -0.5
v 0 1.9 -0.5
v -0.2 1.9 -0.6
v -0.1 1.9 -0.6
v 0.4 1.9 -0.6
v 0.4 2 0.5
v 0.5 2 0.5
v -0.7 2 0.4
v -0.5 2 0.4
v 0.4 2 0.4
v 0.5 2 0.4
v -0.6 2 0.2
v -0.5 2 0.2
v -0.7 2 0.1
v -0.6 2 0.1
v -1 2 -0.5
v -0.9 2 -0.5
v -0.7 2 -0.5
v -1 2 -0.6
v -0.7 2 -0.6
v 0.1 2.2 -0.6
v 0.3 2.2 -0.6
v 0.1 2.2 -0.7
v 0.3 2.2 -0.7
v 0.4 2.3 -0.3
v 0.5 2.3 -0.3
v 0.4 2.3 -0.5
v 0.5 2.3 -0.5
v 0.1 0.7 0
v 0.2 0.7 0
v 0 0.7 -0.1
v 0.1 0.7 -0.1
v 0 0.7 -0.2
v 0.2 0.7 -0.2
v -0.1 1.3 0.3
v 0 1.3 0.3
v -0.2 1.3 0.2
v -0.1 1.3 0.2
v -0.1 1.3 0.1
v 0 1.3 0.1
v -0.2 1.3 0
v -0.1 1.3 0
v -0.2 1.4 0.4
v -0.1 1.4 0.4
v -0.2 1.4 0.2
v -0.1 1.4 0.2
v -0.4 1.5 0.4
v -0.2 1.5 0.4
v -0.4 1.5 0.2
v -0.2 1.5 0.2
v -1 1.9 -0.1
v -0.9 1.9 -0.1
v -1 1.9 -0.3
v -0.9 1.9 -0.3
v -0.4 2 -0.5
v -0.3 2 -0.5
v -0.4 2 -0.6
v -0.3 2 -0.6
v -0.3 2.1 -0.5
v -0.1 2.1 -0.5
v -0.3 2.1 -0.6
v -0.1 2.1 -0.6
v -0.5 2.2 0.5
v -0.3 2.2 0.5
v 0.3 2.2 0.5
v 0.5 2.2 0.5
v -0.5 2.2 0.4
v -0.3 2.2 0.4
v 0.3 2.2 0.4
v 0.5 2.2 0.4
v -0.7 2.3 0.4
v -0.3 2.3 0.4
v -0.7 2.3 0.1
v -0.3 2.3 0.1
v -1 2.3 -0.4
v -0.9 2.3 -0.4
v -0.9 2.3 -0.5
v -0.7 2.3 -0.5
v -1 2.3 -0.6
v -0.7 2.3 -0.6
v 0.3 2.4 0.4
v 0.6 2.4 0.4
v 0.3 2.4 0.2
v 0.4 2.4 0.2
v -0.9 2.4 0.1
v -0.3 2.4 0.1
v -0.4 2.4 0
v -0.3 2.4 0
v 0.4 2.4 -0.1
v 0.6 2.4 -0.1
v -0.4 2.4 -0.3
v -0.2 2.4 -0.3
v -0.1 2.4 -0.3
v -0.9 2.4 -0.5
v -0.1 2.4 -0.5
v 0.1 2.4 -0.6
v 0.3 2.4 -0.6
v 0.1 2.4 -0.7
v 0.3 2.4 -0.7
v -0.3 2.5 0.6
v 0.3 2.5 0.6
v -0.1 2.5 0.5
v 0.1 2.5 0.5
v -0.1 2.5 0.3
v 0.1 2.5 0.3
v -0.1 2.5 0.2
v 0.3 2.5 0.2
v -0.3 2.5 0
v -0.2 2.5 0
v -0.2 2.5 -0.2
v -0.1 2.5 -0.2
v -0.2 2.5 -0.3
v -0.1 2.5 -0.3
v -0.1 2.6 0.5
v 0.1 2.6 0.5
v -0.1 2.6 0.3
v 0.1 2.6 0.3
v -0.1 2.6 0.2
v 0.4 2.6 0.2
v -0.4 2.6 0
v -0.2 2.6 0
v 0.2 2.6 -0.1
v 0.4 2.6 -0.1
v -0.4 2.6 -0.3
v -0.2 2.6 -0.3
v 0.4 2.6 -0.3
v 0.5 2.6 -0.3
v 0.2 2.6 -0.4
v 0.4 2.6 -0.4
v 0.4 2.6 -0.5
v 0.5 2.6 -0.5
v -0.1 2.6 -0.6
v 0.4 2.6 -0.6
v 0.2 2.7 -0.1
v 0.4 2.7 -0.1
v 0.2 2.7 -0.4
v 0.4 2.7 -0.4

# faces
f 3/4/1 2/4/1 1/4/1
f 4/4/1 2/4/1 3/4/1
f 7/5/1 6/5/1 5/5/1
f 8/5/1 6/5/1 7/5/1
f 10/3/1 8/3/1 7/3/1
f 10/3/1 9/3/1 8/3/1
f 11/3/1 9/3/1 10/3/1
f 16/3/1 13/3/1 12/3/1
f 17/3/1 15/3/1 14/3/1
f 18/3/1 15/3/1 17/3/1
f 19/3/1 15/3/1 18/3/1
f 20/3/1 17/3/1 16/3/1
f 20/3/1 18/3/1 17/3/1
f 21/3/1 20/3/1 16/3/1
f 23/3/1 16/3/1 12/3/1
f 23/3/1 22/3/1 21/3/1
f 23/3/1 21/3/1 16/3/1
f 24/3/1 22/3/1 23/3/1
f 27/3/1 26/3/1 25/3/1
f 28/3/1 26/3/1 27/3/1
f 31/5/1 30/5/1 29/5/1
f 32/5/1 30/5/1 31/5/1
f 35/4/1 34/4/1 33/4/1
f 36/4/1 34/4/1 35/4/1
f 37/4/1 35/4/1 33/4/1
f 38/4/1 35/4/1 37/4/1
f 41/3/1 40/3/1 39/3/1
f 42/3/1 40/3/1 41/3/1
f 45/5/1 44/5/1 43/5/1
f 46/5/1 44/5/1 45/5/1
f 49/4/1 48/4/1 47/4/1
f 50/4/1 48/4/1 49/4/1
f 53/4/1 52/4/1 51/4/1
f 54/4/1 52/4/1 53/4/1
f 57/3/1 56/3/1 55/3/1
f 58/3/1 56/3/1 57/3/1
f 61/3/1 60/3/1 59/3/1
f 62/3/1 60/3/1 61/3/1
f 63/3/1 61/3/1 59/3/1
f 64/3/1 61/3/1 63/3/1
f 67/4/1 66/4/1 65/4/1
f 68/4/1 66/4/1 67/4/1
f 69/3/1 63/3/1 59/3/1
f 71/3/1 70/3/1 69/3/1
f 73/3/1 72/3/1 71/3/1
f 75/3/1 69/3/1 59/3/1
f 75/3/1 74/3/1 73/3/1
f 75/3/1 73/3/1 71/3/1
f 75/3/1 71/3/1 69/3/1
f 76/3/1 74/3/1 75/3/1
f 79/3/1 78/3/1 77/3/1
f 80/3/1 78/3/1 79/3/1
f 81/3/1 78/3/1 80/3/1
f 82/3/1 78/3/1 81/3/1
f 85/2/1 84/2/1 83/2/1
f 86/2/1 84/2/1 85/2/1
f 87/1/1 86/1/1 85/1/1
f 88/2/1 84/2/1 86/2/1
f 88/1/1 86/1/1 87/1/1
f 89/2/1 88/2/1 87/2/1
f 90/2/1 84/2/1 88/2/1
f 90/2/1 88/2/1 89/2/1
f 92/2/1 84/2/1 90/2/1
f 93/2/1 84/2/1 92/2/1
f 93/2/1 92/2/1 91/2/1
f 94/2/1 84/2/1 93/2/1
f 95/2/1 93/2/1 91/2/1
f 95/1/1 94/1/1 93/1/1
f 96/1/1 94/1/1 95/1/1
f 97/2/1 95/2/1 91/2/1
f 97/2/1 96/2/1 95/2/1
f 98/2/1 96/2/1 97/2/1
f 102/3/1 100/3/1 99/3/1
f 107/3/1 102/3/1 101/3/1
f 108/3/1 104/3/1 103/3/1
f 109/3/1 104/3/1 108/3/1
f 110/3/1 106/3/1 105/3/1
f 110/3/1 107/3/1 106/3/1
f 111/3/1 100/3/1 102/3/1
f 111/3/1 107/3/1 110/3/1
f 111/3/1 102/3/1 107/3/1
f 114/3/1 113/3/1 112/3/1
f 115/3/1 113/3/1 114/3/1
f 118/3/1 117/3/1 116/3/1
f 119/3/1 117/3/1 118/3/1
f 122/4/1 121/4/1 120/4/1
f 123/4/1 121/4/1 122/4/1
f 124/4/2 125/4/2 126/4/2
f 126/4/2 125/4/2 127/4/2
f 128/3/2 129/3/2 130/3/2
f 130/3/2 129/3/2 131/3/2
f 132/3/2 133/3/2 134/3/2
f 134/3/2 133/3/2 135/3/2
f 136/4/2 137/4/2 138/4/2
f 138/4/2 137/4/2 139/4/2
f 140/4/2 141/4/2 143/4/2
f 141/4/2 142/4/2 143/4/2
f 143/4/2 142/4/2 144/4/2
f 145/3/2 146/3/2 147/3/2
f 145/3/2 147/3/2 149/3/2
f 147/3/2 148/3/2 149/3/2
f 149/3/2 148/3/2 150/3/2
f 151/3/2 152/3/2 153/3/2
f 153/3/2 152/3/2 154/3/2
f 154/3/2 152/3/2 155/3/2
f 156/3/2 157/3/2 158/3/2
f 158/3/2 157/3/2 159/3/2
f 160/5/2 161/5/2 162/5/2
f 162/5/2 161/5/2 163/5/2
f 164/2/2 165/2/2 166/2/2
f 166/2/2 165/2/2 167/2/2
f 164/2/2 166/2/2 168/2/2
f 168/2/2 166/2/2 169/2/2
f 168/1/2 169/1/2 171/1/2
f 169/2/2 170/2/2 172/2/2
f 171/1/2 169/1/2 172/1/2
f 171/2/2 172/2/2 173/2/2
f 172/2/2 170/2/2 173/2/2
f 173/2/2 170/2/2 174/2/2
f 171/2/2 173/2/2 175/2/2
f 173/1/2 174/1/2 176/1/2
f 175/2/2 173/2/2 176/2/2
f 176/1/2 174/1/2 177/1/2
f 178/3/2 179/3/2 180/3/2
f 180/3/2 179/3/2 181/3/2
f 182/3/2 183/3/2 184/3/2
f 184/3/2 183/3/2 185/3/2
f 186/3/2 187/3/2 188/3/2
f 188/3/2 187/3/2 189/3/2
f 190/3/2 191/3/2 192/3/2
f 192/3/2 191/3/2 193/3/2
f 193/3/2 191/3/2 194/3/2
f 190/3/2 192/3/2 195/3/2
f 195/3/2 192/3/2 196/3/2
f 190/3/2 195/3/2 197/3/2
f 190/3/2 197/3/2 198/3/2
f 198/3/2 199/3/2 202/3/2
f 200/3/2 201/3/2 204/3/2
f 204/3/2 201/3/2 205/3/2
f 202/3/2 203/3/2 206/3/2
f 190/3/2 198/3/2 206/3/2
f 198/3/2 202/3/2 206/3/2
f 206/3/2 203/3/2 207/3/2
f 208/5/2 209/5/2 212/5/2
f 212/5/2 209/5/2 213/5/2
f 210/5/2 211/5/2 215/5/2
f 215/5/2 211/5/2 216/5/2
f 213/3/2 214/3/2 217/3/2
f 212/3/2 213/3/2 217/3/2
f 217/3/2 214/3/2 218/3/2
f 212/3/2 217/3/2 220/3/2
f 219/3/2 220/3/2 221/3/2
f 220/3/2 217/3/2 222/3/2
f 221/3/2 220/3/2 222/3/2
f 222/3/2 217/3/2 223/3/2
f 218/3/2 214/3/2 225/3/2
f 225/3/2 214/3/2 226/3/2
f 223/4/2 224/4/2 227/4/2
f 222/4/2 223/4/2 227/4/2
f 227/4/2 224/4/2 228/4/2
f 229/3/2 230/3/2 231/3/2
f 231/3/2 230/3/2 232/3/2
f 233/4/2 234/4/2 235/4/2
f 235/4/2 234/4/2 236/4/2
f 237/3/2 238/3/2 239/3/2
f 239/3/2 238/3/2 240/3/2
f 243/3/3 242/3/3 241/3/3
f 244/3/3 242/3/3 243/3/3
f 247/4/3 246/4/3 245/4/3
f 248/4/3 246/4/3 247/4/3
f 251/3/3 250/3/3 249/3/3
f 252/3/3 250/3/3 251/3/3
f 256/5/3 254/5/3 253/5/3
f 257/3/3 255/3/3 254/3/3
f 257/5/3 254/5/3 256/5/3
f 258/3/3 255/3/3 257/3/3
f 259/3/3 255/3/3 258/3/3
f 262/3/3 261/3/3 260/3/3
f 263/3/3 261/3/3 262/3/3
f 267/3/3 265/3/3 264/3/3
f 268/3/3 261/3/3 263/3/3
f 269/3/3 261/3/3 268/3/3
f 270/3/3 267/3/3 266/3/3
f 270/3/3 265/3/3 267/3/3
f 271/3/3 265/3/3 270/3/3
f 272/3/3 270/3/3 266/3/3
f 273/3/3 270/3/3 272/3/3
f 278/3/3 275/3/3 274/3/3
f 280/3/3 279/3/3 278/3/3
f 281/3/3 277/3/3 276/3/3
f 282/3/3 280/3/3 278/3/3
f 282/3/3 281/3/3 280/3/3
f 282/3/3 278/3/3 274/3/3
f 283/3/3 277/3/3 281/3/3
f 283/3/3 281/3/3 282/3/3
f 286/3/3 285/3/3 284/3/3
f 288/3/3 286/3/3 284/3/3
f 288/3/3 287/3/3 286/3/3
f 289/3/3 287/3/3 288/3/3
f 292/5/3 291/5/3 290/5/3
f 293/5/3 291/5/3 292/5/3
f 297/3/3 295/3/3 294/3/3
f 298/3/3 297/3/3 296/3/3
f 299/3/3 295/3/3 297/3/3
f 299/3/3 297/3/3 298/3/3
f 302/3/3 301/3/3 300/3/3
f 303/3/3 301/3/3 302/3/3
f 304/3/3 302/3/3 300/3/3
f 305/3/3 302/3/3 304/3/3
f 306/3/3 304/3/3 300/3/3
f 307/3/3 306/3/3 300/3/3
f 308/3/3 306/3/3 307/3/3
f 309/3/3 301/3/3 303/3/3
f 310/3/3 301/3/3 309/3/3
f 317/2/3 314/2/3 313/2/3
f 318/2/3 316/2/3 315/2/3
f 319/2/3 312/2/3 311/2/3
f 320/1/3 313/1/3 312/1/3
f 320/2/3 312/2/3 319/2/3
f 321/2/3 318/2/3 317/2/3
f 321/1/3 313/1/3 320/1/3
f 321/2/3 317/2/3 313/2/3
f 322/2/3 316/2/3 318/2/3
f 322/2/3 318/2/3 321/2/3
f 325/4/3 324/4/3 323/4/3
f 326/4/3 324/4/3 325/4/3
f 327/4/3 324/4/3 326/4/3
f 328/4/3 324/4/3 327/4/3
f 331/3/3 330/3/3 329/3/3
f 332/3/3 330/3/3 331/3/3
f 335/4/3 334/4/3 333/4/3
f 336/4/3 334/4/3 335/4/3
f 337/4/3 335/4/3 333/4/3
f 338/4/3 335/4/3 337/4/3
f 341/5/3 340/5/3 339/5/3
f 342/5/3 340/5/3 341/5/3
f 345/4/3 344/4/3 343/4/3
f 346/4/3 344/4/3 345/4/3
f 349/4/3 348/4/3 347/4/3
f 350/4/3 348/4/3 349/4/3
f 354/5/3 352/5/3 351/5/3
f 355/3/3 353/3/3 352/3/3
f 355/5/3 352/5/3 354/5/3
f 356/3/3 353/3/3 355/3/3
f 357/3/4 358/3/4 359/3/4
f 359/3/4 358/3/4 360/3/4
f 361/3/4 362/3/4 364/3/4
f 363/3/4 364/3/4 365/3/4
f 364/3/4 362/3/4 366/3/4
f 365/3/4 364/3/4 366/3/4
f 366/3/4 362/3/4 367/3/4
f 367/3/4 362/3/4 368/3/4
f 366/3/4 367/3/4 369/3/4
f 369/3/4 367/3/4 370/3/4
f 371/3/4 372/3/4 373/3/4
f 373/3/4 372/3/4 374/3/4
f 375/2/4 376/2/4 379/2/4
f 379/2/4 376/2/4 380/2/4
f 376/1/4 377/1/4 381/1/4
f 380/2/4 376/2/4 381/2/4
f 377/2/4 378/2/4 382/2/4
f 381/1/4 377/1/4 382/1/4
f 382/2/4 378/2/4 383/2/4
f 375/2/4 379/2/4 384/2/4
f 384/2/4 379/2/4 385/2/4
f 380/2/4 381/2/4 386/2/4
f 381/2/4 382/2/4 386/2/4
f 382/1/4 383/1/4 387/1/4
f 386/2/4 382/2/4 387/2/4
f 387/1/4 383/1/4 388/1/4
f 389/3/4 390/3/4 392/3/4
f 390/3/4 391/3/4 392/3/4
f 392/3/4 391/3/4 393/3/4
f 394/5/4 395/5/4 396/5/4
f 396/5/4 395/5/4 397/5/4
f 396/3/4 397/3/4 398/3/4
f 398/3/4 399/3/4 402/3/4
f 400/3/4 401/3/4 404/3/4
f 404/3/4 401/3/4 405/3/4
f 396/3/4 398/3/4 406/3/4
f 402/3/4 403/3/4 406/3/4
f 398/3/4 402/3/4 406/3/4
f 406/3/4 403/3/4 407/3/4
f 407/3/4 403/3/4 408/3/4
f 407/5/4 408/5/4 409/5/4
f 409/5/4 408/5/4 410/5/4
f 411/4/4 412/4/4 413/4/4
f 413/4/4 412/4/4 414/4/4
f 411/4/4 413/4/4 415/4/4
f 415/4/4 413/4/4 416/4/4
f 417/4/4 418/4/4 419/4/4
f 419/4/4 418/4/4 420/4/4
f 420/4/4 418/4/4 421/4/4
f 419/5/4 420/5/4 422/5/4
f 422/5/4 420/5/4 423/5/4
f 424/3/4 425/3/4 426/3/4
f 426/3/4 425/3/4 427/3/4
f 428/4/4 429/4/4 430/4/4
f 430/4/4 429/4/4 431/4/4
f 432/5/4 433/5/4 435/5/4
f 435/5/4 433/5/4 436/5/4
f 434/3/4 435/3/4 439/3/4
f 435/3/4 436/3/4 439/3/4
f 437/3/4 438/3/4 440/3/4
f 434/3/4 439/3/4 441/3/4
f 439/3/4 440/3/4 441/3/4
f 441/3/4 440/3/4 442/3/4
f 442/3/4 440/3/4 443/3/4
f 443/3/4 440/3/4 444/3/4
f 434/3/4 441/3/4 445/3/4
f 434/3/4 445/3/4 447/3/4
f 445/3/4 446/3/4 447/3/4
f 447/3/4 446/3/4 448/3/4
f 448/3/4 446/3/4 449/3/4
f 444/3/4 440/3/4 450/3/4
f 440/3/4 438/3/4 451/3/4
f 450/3/4 440/3/4 451/3/4
f 448/5/4 449/5/4 452/5/4
f 452/5/4 449/5/4 453/5/4
f 454/4/4 455/4/4 456/4/4
f 456/4/4 455/4/4 457/4/4
f 458/3/4 459/3/4 460/3/4
f 460/3/4 459/3/4 461/3/4
f 462/4/4 463/4/4 464/4/4
f 462/4/4 464/4/4 466/4/4
f 464/4/4 465/4/4 466/4/4
f 466/4/4 465/4/4 467/4/4
f 467/4/4 465/4/4 468/4/4
f 468/4/4 465/4/4 469/4/4
f 468/3/4 469/3/4 471/3/4
f 469/3/4 470/3/4 471/3/4
f 471/3/4 470/3/4 472/3/4
f 468/3/4 471/3/4 473/3/4
f 472/3/4 470/3/4 474/3/4
f 468/3/4 473/3/4 475/3/4
f 473/3/4 474/3/4 475/3/4
f 474/3/4 470/3/4 476/3/4
f 475/3/4 474/3/4 476/3/4
f 477/3/4 478/3/4 479/3/4
f 479/3/4 478/3/4 480/3/4
f 483/2/5 482/2/5 481/2/5
f 484/2/5 482/2/5 483/2/5
f 488/3/5 486/3/5 485/3/5
f 489/3/5 488/3/5 487/3/5
f 490/3/5 486/3/5 488/3/5
f 490/3/5 488/3/5 489/3/5
f 493/3/5 492/3/5 491/3/5
f 494/3/5 492/3/5 493/3/5
f 495/3/5 493/3/5 491/3/5
f 496/3/5 493/3/5 495/3/5
f 499/3/5 498/3/5 497/3/5
f 500/3/5 498/3/5 499/3/5
f 501/3/5 499/3/5 497/3/5
f 502/3/5 499/3/5 501/3/5
f 505/3/5 504/3/5 503/3/5
f 506/3/5 504/3/5 505/3/5
f 509/3/5 508/3/5 507/3/5
f 510/3/5 508/3/5 509/3/5
f 511/3/5 508/3/5 510/3/5
f 515/3/5 509/3/5 507/3/5
f 516/3/5 509/3/5 515/3/5
f 518/3/5 508/3/5 511/3/5
f 519/5/5 515/5/5 514/5/5
f 520/3/5 517/3/5 516/3/5
f 520/5/5 515/5/5 519/5/5
f 520/3/5 518/3/5 517/3/5
f 520/3/5 516/3/5 515/3/5
f 521/3/5 508/3/5 518/3/5
f 521/3/5 518/3/5 520/3/5
f 522/4/5 513/4/5 512/4/5
f 523/4/5 513/4/5 522/4/5
f 526/3/5 525/3/5 524/3/5
f 527/3/5 525/3/5 526/3/5
f 528/3/5 525/3/5 527/3/5
f 529/3/5 525/3/5 528/3/5
f 530/3/5 528/3/5 527/3/5
f 534/3/5 531/3/5 530/3/5
f 534/3/5 532/3/5 531/3/5
f 534/3/5 530/3/5 527/3/5
f 535/3/5 534/3/5 533/3/5
f 536/3/5 532/3/5 534/3/5
f 536/3/5 534/3/5 535/3/5
f 539/3/5 538/3/5 537/3/5
f 540/3/5 538/3/5 539/3/5
f 541/3/5 538/3/5 540/3/5
f 544/5/5 540/5/5 539/5/5
f 545/5/5 540/5/5 544/5/5
f 546/3/5 543/3/5 542/3/5
f 547/3/5 543/3/5 546/3/5
f 548/3/5 543/3/5 547/3/5
f 551/5/5 547/5/5 546/5/5
f 552/5/5 547/5/5 551/5/5
f 553/4/5 550/4/5 549/4/5
f 554/4/5 550/4/5 553/4/5
f 559/5/5 558/5/5 557/5/5
f 560/5/5 558/5/5 559/5/5
f 562/4/5 556/4/5 555/4/5
f 563/5/5 562/5/5 561/5/5
f 564/4/5 556/4/5 562/4/5
f 564/5/5 562/5/5 563/5/5
f 565/4/5 556/4/5 564/4/5
f 572/3/5 567/3/5 566/3/5
f 572/3/5 568/3/5 567/3/5
f 573/5/5 570/5/5 569/5/5
f 574/5/5 570/5/5 573/5/5
f 577/3/5 572/3/5 571/3/5
f 578/4/5 576/4/5 575/4/5
f 579/3/5 577/3/5 576/3/5
f 579/4/5 576/4/5 578/4/5
f 580/3/5 568/3/5 572/3/5
f 580/3/5 577/3/5 579/3/5
f 580/3/5 572/3/5 577/3/5
f 585/3/5 582/3/5 581/3/5
f 586/3/5 582/3/5 585/3/5
f 587/3/5 584/3/5 583/3/5
f 588/3/5 584/3/5 587/3/5
f 589/3/5 587/3/5 583/3/5
f 590/3/5 587/3/5 589/3/5
f 594/3/5 592/3/5 591/3/5
f 594/3/5 593/3/5 592/3/5
f 595/3/5 593/3/5 594/3/5
f 598/3/5 597/3/5 596/3/5
f 599/3/5 597/3/5 598/3/5
f 602/4/5 601/4/5 600/4/5
f 603/4/5 601/4/5 602/4/5
f 604/3/6 605/3/6 607/3/6
f 606/3/6 607/3/6 608/3/6
f 607/3/6 605/3/6 609/3/6
f 608/3/6 607/3/6 609/3/6
f 610/3/6 611/3/6 613/3/6
f 613/3/6 611/3/6 614/3/6
f 612/3/6 613/3/6 614/3/6
f 614/3/6 611/3/6 615/3/6
f 612/3/6 614/3/6 616/3/6
f 616/3/6 614/3/6 617/3/6
f 618/3/6 619/3/6 620/3/6
f 620/3/6 619/3/6 621/3/6
f 622/3/6 623/3/6 624/3/6
f 624/3/6 623/3/6 625/3/6
f 626/4/6 627/4/6 628/4/6
f 628/4/6 627/4/6 629/4/6
f 630/4/6 631/4/6 632/4/6
f 632/4/6 631/4/6 633/4/6
f 634/4/6 635/4/6 636/4/6
f 636/4/6 635/4/6 637/4/6
f 638/4/6 639/4/6 642/4/6
f 642/4/6 639/4/6 643/4/6
f 640/3/6 641/3/6 644/3/6
f 644/3/6 641/3/6 645/3/6
f 646/3/6 647/3/6 648/3/6
f 648/3/6 647/3/6 649/3/6
f 650/3/6 651/3/6 652/3/6
f 650/3/6 652/3/6 654/3/6
f 652/3/6 653/3/6 654/3/6
f 654/3/6 653/3/6 655/3/6
f 656/3/6 657/3/6 658/3/6
f 658/3/6 657/3/6 659/3/6
f 660/3/6 661/3/6 662/3/6
f 662/3/6 661/3/6 663/3/6
f 659/3/6 657/3/6 664/3/6
f 664/3/6 657/3/6 665/3/6
f 660/3/6 662/3/6 666/3/6
f 660/3/6 666/3/6 669/3/6
f 667/3/6 668/3/6 669/3/6
f 666/3/6 667/3/6 669/3/6
f 669/3/6 668/3/6 670/3/6
f 671/3/6 672/3/6 673/3/6
f 673/3/6 672/3/6 674/3/6
f 675/3/6 676/3/6 677/3/6
f 677/3/6 676/3/6 678/3/6
f 675/3/6 677/3/6 679/3/6
f 678/3/6 676/3/6 680/3/6
f 675/3/6 679/3/6 681/3/6
f 679/3/6 680/3/6 681/3/6
f 680/3/6 676/3/6 682/3/6
f 681/3/6 680/3/6 682/3/6
f 675/3/6 681/3/6 683/3/6
f 683/3/6 681/3/6 684/3/6
f 684/3/6 681/3/6 685/3/6
f 685/3/6 681/3/6 686/3/6
f 685/5/6 686/5/6 687/5/6
f 687/5/6 686/5/6 688/5/6
f 689/3/6 690/3/6 691/3/6
f 691/3/6 690/3/6 692/3/6
f 693/3/6 694/3/6 697/3/6
f 697/3/6 694/3/6 698/3/6
f 695/4/6 696/4/6 699/4/6
f 699/4/6 696/4/6 700/4/6
f 693/3/6 697/3/6 703/3/6
f 701/4/6 702/4/6 704/4/6
f 704/4/6 702/4/6 705/4/6
f 703/3/6 704/3/6 705/3/6
f 705/4/6 702/4/6 706/4/6
f 693/3/6 703/3/6 707/3/6
f 703/3/6 705/3/6 707/3/6
f 707/3/6 705/3/6 708/3/6
f 709/4/6 710/4/6 711/4/6
f 711/4/6 710/4/6 712/4/6
