# MagicaVoxel @ Ephtracy

# group
o 

# material
mtllib Fleur3.mtl
usemtl palette

# normals
vn -1 0 0
vn 1 0 0
vn 0 0 1
vn 0 0 -1
vn 0 -1 0
vn 0 1 0

# texcoords
vt 0.908203 0.5
vt 0.943359 0.5
vt 0.966797 0.5
vt 0.978516 0.5
vt 0.986328 0.5
vt 0.990234 0.5

# verts
v -0.5 1.6 -0.4
v -0.5 1.6 -0.5
v -0.5 2.1 -0.4
v -0.5 2.1 -0.5
v -0.4 1.1 0.1
v -0.4 1.1 -0.3
v -0.4 1.2 0.1
v -0.4 1.2 -0.3
v -0.4 1.5 -0.3
v -0.4 1.5 -0.4
v -0.4 1.6 -0.4
v -0.4 2.1 -0.4
v -0.4 2.2 -0.3
v -0.4 2.2 -0.4
v -0.3 1.4 -0.4
v -0.3 1.4 -0.5
v -0.3 1.5 -0.4
v -0.3 1.6 -0.4
v -0.3 1.6 -0.5
v -0.3 1.6 -0.6
v -0.3 2.1 -0.4
v -0.3 2.1 -0.5
v -0.3 2.1 -0.6
v -0.3 2.2 -0.4
v -0.3 2.3 -0.4
v -0.3 2.3 -0.5
v -0.1 0 -0.2
v -0.1 0 -0.3
v -0.1 0.5 0.2
v -0.1 0.5 -0.2
v -0.1 0.6 0.2
v -0.1 0.6 -0.2
v -0.1 0.9 -0.2
v -0.1 0.9 -0.3
v -0.1 1.1 -0.2
v -0.1 1.1 -0.3
v -0.1 1.2 -0.2
v -0.1 1.2 -0.3
v -0.1 1.5 -0.3
v -0.1 1.9 -0.2
v -0.1 1.9 -0.3
v 0 0 -0.2
v 0 0 -0.3
v 0 0.5 -0.2
v 0 0.5 -0.3
v 0 0.6 -0.2
v 0 0.6 -0.3
v 0 0.9 -0.2
v 0 0.9 -0.3
v 0 1.1 0.1
v 0 1.1 -0.2
v 0 1.2 0.1
v 0 1.2 -0.2
v 0 1.5 -0.3
v 0 1.9 -0.2
v 0 1.9 -0.3
v 0.2 1.4 -0.4
v 0.2 1.4 -0.5
v 0.2 1.5 -0.4
v 0.2 1.6 -0.4
v 0.2 1.6 -0.5
v 0.2 1.6 -0.6
v 0.2 2.1 -0.4
v 0.2 2.1 -0.5
v 0.2 2.1 -0.6
v 0.2 2.2 -0.4
v 0.2 2.3 -0.4
v 0.2 2.3 -0.5
v 0.3 1.5 -0.3
v 0.3 1.5 -0.4
v 0.3 1.6 -0.4
v 0.3 2.1 -0.4
v 0.3 2.2 -0.3
v 0.3 2.2 -0.4
v 0.4 0.5 0.2
v 0.4 0.5 -0.3
v 0.4 0.6 0.2
v 0.4 0.6 -0.3
v 0.4 1.6 -0.4
v 0.4 1.6 -0.5
v 0.4 2.1 -0.4
v 0.4 2.1 -0.5
v -0.1 0.5 0.2
v -0.1 0.6 0.2
v 0.4 0.5 0.2
v 0.4 0.6 0.2
v -0.4 1.1 0.1
v -0.4 1.2 0.1
v 0 1.1 0.1
v 0 1.2 0.1
v -0.1 0 -0.2
v -0.1 0.5 -0.2
v -0.1 0.6 -0.2
v -0.1 0.9 -0.2
v -0.1 1.1 -0.2
v -0.1 1.2 -0.2
v -0.1 1.9 -0.2
v 0 0 -0.2
v 0 0.5 -0.2
v 0 0.6 -0.2
v 0 0.9 -0.2
v 0 1.1 -0.2
v 0 1.2 -0.2
v 0 1.9 -0.2
v -0.4 1.5 -0.3
v -0.4 2.2 -0.3
v -0.1 1.5 -0.3
v -0.1 1.9 -0.3
v 0 1.5 -0.3
v 0 1.9 -0.3
v 0.3 1.5 -0.3
v 0.3 2.2 -0.3
v -0.5 1.6 -0.4
v -0.5 2.1 -0.4
v -0.4 1.6 -0.4
v -0.4 2.1 -0.4
v -0.3 1.4 -0.4
v -0.3 1.5 -0.4
v -0.3 2.2 -0.4
v -0.3 2.3 -0.4
v 0.2 1.4 -0.4
v 0.2 1.5 -0.4
v 0.2 2.2 -0.4
v 0.2 2.3 -0.4
v 0.3 1.6 -0.4
v 0.3 2.1 -0.4
v 0.4 1.6 -0.4
v 0.4 2.1 -0.4
v -0.4 1.1 -0.3
v -0.4 1.2 -0.3
v -0.1 0 -0.3
v -0.1 0.9 -0.3
v -0.1 1.1 -0.3
v -0.1 1.2 -0.3
v -0.1 1.5 -0.3
v 0 0 -0.3
v 0 0.5 -0.3
v 0 0.6 -0.3
v 0 0.9 -0.3
v 0 1.5 -0.3
v 0.4 0.5 -0.3
v 0.4 0.6 -0.3
v -0.4 1.5 -0.4
v -0.4 1.6 -0.4
v -0.4 2.1 -0.4
v -0.4 2.2 -0.4
v -0.3 1.5 -0.4
v -0.3 1.6 -0.4
v -0.3 2.1 -0.4
v -0.3 2.2 -0.4
v 0.2 1.5 -0.4
v 0.2 1.6 -0.4
v 0.2 2.1 -0.4
v 0.2 2.2 -0.4
v 0.3 1.5 -0.4
v 0.3 1.6 -0.4
v 0.3 2.1 -0.4
v 0.3 2.2 -0.4
v -0.5 1.6 -0.5
v -0.5 2.1 -0.5
v -0.3 1.4 -0.5
v -0.3 1.6 -0.5
v -0.3 2.1 -0.5
v -0.3 2.3 -0.5
v 0.2 1.4 -0.5
v 0.2 1.6 -0.5
v 0.2 2.1 -0.5
v 0.2 2.3 -0.5
v 0.4 1.6 -0.5
v 0.4 2.1 -0.5
v -0.3 1.6 -0.6
v -0.3 2.1 -0.6
v -0.2 1.7 -0.6
v -0.2 2 -0.6
v 0.1 1.7 -0.6
v 0.1 2 -0.6
v 0.2 1.6 -0.6
v 0.2 2.1 -0.6
v -0.1 0 -0.2
v 0 0 -0.2
v -0.1 0 -0.3
v 0 0 -0.3
v -0.1 0.5 0.2
v 0.4 0.5 0.2
v -0.1 0.5 -0.2
v 0 0.5 -0.2
v 0 0.5 -0.3
v 0.4 0.5 -0.3
v -0.4 1.1 0.1
v 0 1.1 0.1
v -0.1 1.1 -0.2
v 0 1.1 -0.2
v -0.4 1.1 -0.3
v -0.1 1.1 -0.3
v -0.3 1.4 -0.4
v 0.2 1.4 -0.4
v -0.3 1.4 -0.5
v 0.2 1.4 -0.5
v -0.4 1.5 -0.3
v -0.1 1.5 -0.3
v 0 1.5 -0.3
v 0.3 1.5 -0.3
v -0.4 1.5 -0.4
v -0.3 1.5 -0.4
v 0.2 1.5 -0.4
v 0.3 1.5 -0.4
v -0.5 1.6 -0.4
v -0.4 1.6 -0.4
v -0.3 1.6 -0.4
v 0.2 1.6 -0.4
v 0.3 1.6 -0.4
v 0.4 1.6 -0.4
v -0.5 1.6 -0.5
v -0.3 1.6 -0.5
v 0.2 1.6 -0.5
v 0.4 1.6 -0.5
v -0.3 1.6 -0.6
v 0.2 1.6 -0.6
v -0.1 0.6 0.2
v 0.4 0.6 0.2
v -0.1 0.6 -0.2
v 0 0.6 -0.2
v 0 0.6 -0.3
v 0.4 0.6 -0.3
v -0.4 1.2 0.1
v 0 1.2 0.1
v -0.1 1.2 -0.2
v 0 1.2 -0.2
v -0.4 1.2 -0.3
v -0.1 1.2 -0.3
v -0.1 1.9 -0.2
v 0 1.9 -0.2
v -0.1 1.9 -0.3
v 0 1.9 -0.3
v -0.5 2.1 -0.4
v -0.4 2.1 -0.4
v -0.3 2.1 -0.4
v 0.2 2.1 -0.4
v 0.3 2.1 -0.4
v 0.4 2.1 -0.4
v -0.5 2.1 -0.5
v -0.3 2.1 -0.5
v 0.2 2.1 -0.5
v 0.4 2.1 -0.5
v -0.3 2.1 -0.6
v 0.2 2.1 -0.6
v -0.4 2.2 -0.3
v 0.3 2.2 -0.3
v -0.4 2.2 -0.4
v -0.3 2.2 -0.4
v 0.2 2.2 -0.4
v 0.3 2.2 -0.4
v -0.3 2.3 -0.4
v 0.2 2.3 -0.4
v -0.3 2.3 -0.5
v 0.2 2.3 -0.5

# faces
f 3/1/1 2/1/1 1/1/1
f 4/1/1 2/1/1 3/1/1
f 7/4/1 6/4/1 5/4/1
f 8/4/1 6/4/1 7/4/1
f 11/4/1 10/4/1 9/4/1
f 12/4/1 11/4/1 9/4/1
f 13/4/1 12/4/1 9/4/1
f 14/4/1 12/4/1 13/4/1
f 17/1/1 16/1/1 15/1/1
f 18/1/1 16/1/1 17/1/1
f 19/1/1 16/1/1 18/1/1
f 22/3/1 20/3/1 19/3/1
f 23/3/1 20/3/1 22/3/1
f 24/1/1 22/1/1 21/1/1
f 25/1/1 22/1/1 24/1/1
f 26/1/1 22/1/1 25/1/1
f 30/6/1 28/6/1 27/6/1
f 31/5/1 30/5/1 29/5/1
f 32/6/1 28/6/1 30/6/1
f 32/5/1 30/5/1 31/5/1
f 33/6/1 28/6/1 32/6/1
f 34/6/1 28/6/1 33/6/1
f 35/5/1 34/5/1 33/5/1
f 36/5/1 34/5/1 35/5/1
f 39/5/1 38/5/1 37/5/1
f 40/5/1 39/5/1 37/5/1
f 41/5/1 39/5/1 40/5/1
f 42/6/2 43/6/2 44/6/2
f 44/6/2 43/6/2 45/6/2
f 46/6/2 47/6/2 48/6/2
f 48/6/2 47/6/2 49/6/2
f 48/5/2 49/5/2 51/5/2
f 50/4/2 51/4/2 52/4/2
f 51/5/2 49/5/2 53/5/2
f 52/4/2 51/4/2 53/4/2
f 53/5/2 49/5/2 54/5/2
f 53/5/2 54/5/2 55/5/2
f 55/5/2 54/5/2 56/5/2
f 57/1/2 58/1/2 59/1/2
f 59/1/2 58/1/2 60/1/2
f 60/1/2 58/1/2 61/1/2
f 61/3/2 62/3/2 64/3/2
f 64/3/2 62/3/2 65/3/2
f 63/1/2 64/1/2 66/1/2
f 66/1/2 64/1/2 67/1/2
f 67/1/2 64/1/2 68/1/2
f 69/4/2 70/4/2 71/4/2
f 69/4/2 71/4/2 72/4/2
f 69/4/2 72/4/2 73/4/2
f 73/4/2 72/4/2 74/4/2
f 75/5/2 76/5/2 77/5/2
f 77/5/2 76/5/2 78/5/2
f 79/1/2 80/1/2 81/1/2
f 81/1/2 80/1/2 82/1/2
f 85/5/3 84/5/3 83/5/3
f 86/5/3 84/5/3 85/5/3
f 89/4/3 88/4/3 87/4/3
f 90/4/3 88/4/3 89/4/3
f 98/6/3 92/6/3 91/6/3
f 99/6/3 92/6/3 98/6/3
f 100/6/3 94/6/3 93/6/3
f 101/5/3 95/5/3 94/5/3
f 101/6/3 94/6/3 100/6/3
f 102/5/3 95/5/3 101/5/3
f 103/5/3 97/5/3 96/5/3
f 104/5/3 97/5/3 103/5/3
f 107/4/3 106/4/3 105/4/3
f 108/4/3 106/4/3 107/4/3
f 110/4/3 106/4/3 108/4/3
f 111/4/3 110/4/3 109/4/3
f 112/4/3 106/4/3 110/4/3
f 112/4/3 110/4/3 111/4/3
f 115/1/3 114/1/3 113/1/3
f 116/1/3 114/1/3 115/1/3
f 121/1/3 118/1/3 117/1/3
f 122/1/3 118/1/3 121/1/3
f 123/1/3 120/1/3 119/1/3
f 124/1/3 120/1/3 123/1/3
f 127/1/3 126/1/3 125/1/3
f 128/1/3 126/1/3 127/1/3
f 129/4/4 130/4/4 133/4/4
f 133/4/4 130/4/4 134/4/4
f 131/6/4 132/6/4 136/6/4
f 136/6/4 132/6/4 137/6/4
f 137/6/4 132/6/4 138/6/4
f 134/5/4 135/5/4 139/5/4
f 138/6/4 132/6/4 139/6/4
f 132/5/4 133/5/4 139/5/4
f 133/5/4 134/5/4 139/5/4
f 139/5/4 135/5/4 140/5/4
f 137/5/4 138/5/4 141/5/4
f 141/5/4 138/5/4 142/5/4
f 143/4/4 144/4/4 147/4/4
f 147/4/4 144/4/4 148/4/4
f 145/4/4 146/4/4 149/4/4
f 149/4/4 146/4/4 150/4/4
f 151/4/4 152/4/4 155/4/4
f 155/4/4 152/4/4 156/4/4
f 153/4/4 154/4/4 157/4/4
f 157/4/4 154/4/4 158/4/4
f 159/1/4 160/1/4 162/1/4
f 162/1/4 160/1/4 163/1/4
f 161/1/4 162/1/4 165/1/4
f 165/1/4 162/1/4 166/1/4
f 163/1/4 164/1/4 167/1/4
f 167/1/4 164/1/4 168/1/4
f 166/1/4 167/1/4 169/1/4
f 169/1/4 167/1/4 170/1/4
f 171/3/4 172/3/4 173/3/4
f 173/3/4 172/3/4 174/3/4
f 171/3/4 173/3/4 175/3/4
f 173/2/4 174/2/4 175/2/4
f 174/3/4 172/3/4 176/3/4
f 175/2/4 174/2/4 176/2/4
f 171/3/4 175/3/4 177/3/4
f 175/3/4 176/3/4 177/3/4
f 176/3/4 172/3/4 178/3/4
f 177/3/4 176/3/4 178/3/4
f 181/6/5 180/6/5 179/6/5
f 182/6/5 180/6/5 181/6/5
f 185/5/5 184/5/5 183/5/5
f 186/5/5 184/5/5 185/5/5
f 187/5/5 184/5/5 186/5/5
f 188/5/5 184/5/5 187/5/5
f 191/4/5 190/4/5 189/4/5
f 192/4/5 190/4/5 191/4/5
f 193/4/5 191/4/5 189/4/5
f 194/4/5 191/4/5 193/4/5
f 197/1/5 196/1/5 195/1/5
f 198/1/5 196/1/5 197/1/5
f 203/4/5 200/4/5 199/4/5
f 203/4/5 202/4/5 201/4/5
f 203/4/5 201/4/5 200/4/5
f 204/4/5 202/4/5 203/4/5
f 205/4/5 202/4/5 204/4/5
f 206/4/5 202/4/5 205/4/5
f 213/1/5 208/1/5 207/1/5
f 213/1/5 209/1/5 208/1/5
f 214/1/5 209/1/5 213/1/5
f 215/1/5 212/1/5 211/1/5
f 215/1/5 211/1/5 210/1/5
f 216/1/5 212/1/5 215/1/5
f 217/3/5 215/3/5 214/3/5
f 218/3/5 215/3/5 217/3/5
f 219/5/6 220/5/6 221/5/6
f 221/5/6 220/5/6 222/5/6
f 222/5/6 220/5/6 223/5/6
f 223/5/6 220/5/6 224/5/6
f 225/4/6 226/4/6 227/4/6
f 227/4/6 226/4/6 228/4/6
f 225/4/6 227/4/6 229/4/6
f 229/4/6 227/4/6 230/4/6
f 231/5/6 232/5/6 233/5/6
f 233/5/6 232/5/6 234/5/6
f 235/1/6 236/1/6 241/1/6
f 236/1/6 237/1/6 241/1/6
f 241/1/6 237/1/6 242/1/6
f 239/1/6 240/1/6 243/1/6
f 238/1/6 239/1/6 243/1/6
f 243/1/6 240/1/6 244/1/6
f 242/3/6 243/3/6 245/3/6
f 245/3/6 243/3/6 246/3/6
f 247/4/6 248/4/6 249/4/6
f 249/4/6 248/4/6 250/4/6
f 250/4/6 248/4/6 251/4/6
f 251/4/6 248/4/6 252/4/6
f 253/1/6 254/1/6 255/1/6
f 255/1/6 254/1/6 256/1/6
