# MagicaVoxel @ Ephtracy

# group
o 

# material
mtllib Fleur2.mtl
usemtl palette

# normals
vn -1 0 0
vn 1 0 0
vn 0 0 1
vn 0 0 -1
vn 0 -1 0
vn 0 1 0

# texcoords
vt 0.880859 0.5
vt 0.947266 0.5
vt 0.962891 0.5
vt 0.966797 0.5
vt 0.978516 0.5
vt 0.986328 0.5
vt 0.990234 0.5

# verts
v -0.7 0.5 0
v -0.7 0.5 -0.2
v -0.7 0.6 0
v -0.7 0.6 -0.2
v -0.7 0.8 -0.5
v -0.7 0.8 -0.7
v -0.7 0.9 -0.5
v -0.7 0.9 -0.7
v -0.6 0.4 -0.1
v -0.6 0.4 -0.3
v -0.6 0.5 -0.1
v -0.6 0.5 -0.2
v -0.6 0.5 -0.3
v -0.6 0.7 -0.4
v -0.6 0.7 -0.6
v -0.6 0.8 -0.4
v -0.6 0.8 -0.5
v -0.6 0.8 -0.6
v -0.5 0.3 -0.2
v -0.5 0.3 -0.4
v -0.5 0.4 -0.2
v -0.5 0.4 -0.3
v -0.5 0.4 -0.4
v -0.5 0.6 -0.3
v -0.5 0.6 -0.5
v -0.5 0.7 -0.3
v -0.5 0.7 -0.4
v -0.5 0.7 -0.5
v -0.5 1 -0.3
v -0.5 1 -0.4
v -0.5 1.3 -0.3
v -0.5 1.3 -0.4
v -0.4 0 -0.3
v -0.4 0 -0.4
v -0.4 0.1 -0.3
v -0.4 0.1 -0.4
v -0.4 0.3 -0.3
v -0.4 0.3 -0.4
v -0.4 0.4 -0.3
v -0.4 0.4 -0.4
v -0.4 0.5 -0.3
v -0.4 0.6 -0.3
v -0.4 0.6 -0.4
v -0.4 0.7 -0.3
v -0.4 0.7 -0.4
v -0.4 0.8 -0.4
v -0.4 0.9 -0.3
v -0.4 0.9 -0.4
v -0.4 1 -0.2
v -0.4 1 -0.3
v -0.4 1 -0.4
v -0.4 1 -0.5
v -0.4 1.3 -0.2
v -0.4 1.3 -0.3
v -0.4 1.3 -0.4
v -0.4 1.3 -0.5
v -0.3 1.2 -0.3
v -0.3 1.2 -0.4
v -0.3 1.3 -0.3
v -0.3 1.3 -0.4
v 0.3 0.5 0.5
v 0.3 0.5 0.3
v 0.3 0.6 0.5
v 0.3 0.6 0.3
v 0.4 0.4 0.4
v 0.4 0.4 0.2
v 0.4 0.5 0.4
v 0.4 0.5 0.3
v 0.4 0.5 0.2
v 0.5 0.3 0.3
v 0.5 0.3 0.1
v 0.5 0.4 0.3
v 0.5 0.4 0.2
v 0.5 0.4 0.1
v 0.5 1 0.2
v 0.5 1 0.1
v 0.5 1.3 0.2
v 0.5 1.3 0.1
v 0.6 0 0.2
v 0.6 0 0.1
v 0.6 0.1 0.2
v 0.6 0.1 0.1
v 0.6 0.3 0.2
v 0.6 0.3 0.1
v 0.6 0.4 0.2
v 0.6 0.4 0.1
v 0.6 0.5 0.2
v 0.6 0.6 0.1
v 0.6 0.6 0
v 0.6 0.7 0.2
v 0.6 0.7 0.1
v 0.6 0.7 0
v 0.6 0.9 0.2
v 0.6 0.9 0.1
v 0.6 1 0.3
v 0.6 1 0.2
v 0.6 1 0.1
v 0.6 1 0
v 0.6 1.3 0.3
v 0.6 1.3 0.2
v 0.6 1.3 0.1
v 0.6 1.3 0
v 0.7 0.7 0.1
v 0.7 0.7 0
v 0.7 0.7 -0.1
v 0.7 0.8 0.1
v 0.7 0.8 -0.1
v 0.7 1.2 0.2
v 0.7 1.2 0.1
v 0.7 1.3 0.2
v 0.7 1.3 0.1
v 0.8 0.8 0
v 0.8 0.8 -0.1
v 0.8 0.8 -0.2
v 0.8 0.9 0
v 0.8 0.9 -0.2
v -0.5 0.5 0
v -0.5 0.5 -0.1
v -0.5 0.5 -0.2
v -0.5 0.6 0
v -0.5 0.6 -0.2
v -0.5 0.8 -0.5
v -0.5 0.8 -0.6
v -0.5 0.9 -0.5
v -0.5 0.9 -0.6
v -0.4 0.4 -0.1
v -0.4 0.4 -0.2
v -0.4 0.4 -0.3
v -0.4 0.5 -0.1
v -0.4 0.5 -0.3
v -0.4 0.7 -0.4
v -0.4 0.7 -0.5
v -0.4 0.7 -0.6
v -0.4 0.8 -0.4
v -0.4 0.8 -0.6
v -0.4 0.8 -0.7
v -0.4 0.9 -0.6
v -0.4 0.9 -0.7
v -0.4 1.2 -0.3
v -0.4 1.2 -0.4
v -0.4 1.3 -0.3
v -0.4 1.3 -0.4
v -0.3 0 -0.3
v -0.3 0 -0.4
v -0.3 0.1 -0.3
v -0.3 0.1 -0.4
v -0.3 0.3 -0.2
v -0.3 0.3 -0.3
v -0.3 0.4 -0.2
v -0.3 0.4 -0.3
v -0.3 0.4 -0.4
v -0.3 0.6 -0.4
v -0.3 0.6 -0.5
v -0.3 0.7 -0.3
v -0.3 0.7 -0.4
v -0.3 0.7 -0.5
v -0.3 0.9 -0.3
v -0.3 0.9 -0.4
v -0.3 1 -0.2
v -0.3 1 -0.3
v -0.3 1 -0.4
v -0.3 1 -0.5
v -0.3 1.3 -0.2
v -0.3 1.3 -0.3
v -0.3 1.3 -0.4
v -0.3 1.3 -0.5
v -0.2 1 -0.3
v -0.2 1 -0.4
v -0.2 1.3 -0.3
v -0.2 1.3 -0.4
v 0.5 0.5 0.5
v 0.5 0.5 0.4
v 0.5 0.5 0.3
v 0.5 0.6 0.5
v 0.5 0.6 0.3
v 0.6 0.4 0.4
v 0.6 0.4 0.3
v 0.6 0.4 0.2
v 0.6 0.5 0.4
v 0.6 0.5 0.2
v 0.6 1.2 0.2
v 0.6 1.2 0.1
v 0.6 1.3 0.2
v 0.6 1.3 0.1
v 0.7 0 0.2
v 0.7 0 0.1
v 0.7 0.1 0.2
v 0.7 0.1 0.1
v 0.7 0.3 0.3
v 0.7 0.3 0.2
v 0.7 0.4 0.3
v 0.7 0.4 0.2
v 0.7 0.4 0.1
v 0.7 0.6 0.2
v 0.7 0.6 0.1
v 0.7 0.7 0.2
v 0.7 0.7 0.1
v 0.7 0.8 0.1
v 0.7 0.9 0.2
v 0.7 0.9 0.1
v 0.7 1 0.3
v 0.7 1 0.2
v 0.7 1 0.1
v 0.7 1 0
v 0.7 1.3 0.3
v 0.7 1.3 0.2
v 0.7 1.3 0.1
v 0.7 1.3 0
v 0.8 0.6 0.2
v 0.8 0.6 0
v 0.8 0.7 0.2
v 0.8 0.7 0.1
v 0.8 0.7 0
v 0.8 1 0.2
v 0.8 1 0.1
v 0.8 1.3 0.2
v 0.8 1.3 0.1
v 0.9 0.7 0.1
v 0.9 0.7 -0.1
v 0.9 0.8 0.1
v 0.9 0.8 0
v 0.9 0.8 -0.1
v 1 0.8 0
v 1 0.8 -0.2
v 1 0.9 0
v 1 0.9 -0.2
v 0.3 0.5 0.5
v 0.3 0.6 0.5
v 0.5 0.5 0.5
v 0.5 0.6 0.5
v 0.4 0.4 0.4
v 0.4 0.5 0.4
v 0.5 0.5 0.4
v 0.6 0.4 0.4
v 0.6 0.5 0.4
v 0.5 0.3 0.3
v 0.5 0.4 0.3
v 0.6 0.4 0.3
v 0.6 1 0.3
v 0.6 1.3 0.3
v 0.7 0.3 0.3
v 0.7 0.4 0.3
v 0.7 1 0.3
v 0.7 1.3 0.3
v 0.5 1 0.2
v 0.5 1.3 0.2
v 0.6 0 0.2
v 0.6 0.1 0.2
v 0.6 0.3 0.2
v 0.6 0.4 0.2
v 0.6 0.5 0.2
v 0.6 0.7 0.2
v 0.6 0.9 0.2
v 0.6 1 0.2
v 0.6 1.3 0.2
v 0.7 0 0.2
v 0.7 0.1 0.2
v 0.7 0.3 0.2
v 0.7 0.4 0.2
v 0.7 0.6 0.2
v 0.7 0.7 0.2
v 0.7 0.9 0.2
v 0.7 1 0.2
v 0.7 1.3 0.2
v 0.8 0.6 0.2
v 0.8 0.7 0.2
v 0.8 1 0.2
v 0.8 1.3 0.2
v 0.6 1.2 0.1
v 0.6 1.3 0.1
v 0.7 0.7 0.1
v 0.7 0.8 0.1
v 0.7 1.2 0.1
v 0.7 1.3 0.1
v 0.8 0.7 0.1
v 0.9 0.7 0.1
v 0.9 0.8 0.1
v -0.7 0.5 0
v -0.7 0.6 0
v -0.5 0.5 0
v -0.5 0.6 0
v 0.8 0.8 0
v 0.8 0.9 0
v 0.9 0.8 0
v 1 0.8 0
v 1 0.9 0
v -0.6 0.4 -0.1
v -0.6 0.5 -0.1
v -0.5 0.5 -0.1
v -0.4 0.4 -0.1
v -0.4 0.5 -0.1
v -0.5 0.3 -0.2
v -0.5 0.4 -0.2
v -0.4 0.4 -0.2
v -0.4 1 -0.2
v -0.4 1.3 -0.2
v -0.3 0.3 -0.2
v -0.3 0.4 -0.2
v -0.3 1 -0.2
v -0.3 1.3 -0.2
v -0.5 0.6 -0.3
v -0.5 0.7 -0.3
v -0.5 1 -0.3
v -0.5 1.3 -0.3
v -0.4 0 -0.3
v -0.4 0.1 -0.3
v -0.4 0.3 -0.3
v -0.4 0.4 -0.3
v -0.4 0.5 -0.3
v -0.4 0.6 -0.3
v -0.4 0.7 -0.3
v -0.4 0.9 -0.3
v -0.4 1 -0.3
v -0.4 1.3 -0.3
v -0.3 0 -0.3
v -0.3 0.1 -0.3
v -0.3 0.3 -0.3
v -0.3 0.4 -0.3
v -0.3 0.7 -0.3
v -0.3 0.9 -0.3
v -0.3 1 -0.3
v -0.3 1.3 -0.3
v -0.2 1 -0.3
v -0.2 1.3 -0.3
v -0.6 0.7 -0.4
v -0.6 0.8 -0.4
v -0.5 0.7 -0.4
v -0.4 0.7 -0.4
v -0.4 0.8 -0.4
v -0.4 1.2 -0.4
v -0.4 1.3 -0.4
v -0.3 1.2 -0.4
v -0.3 1.3 -0.4
v -0.7 0.8 -0.5
v -0.7 0.9 -0.5
v -0.6 0.8 -0.5
v -0.5 0.8 -0.5
v -0.5 0.9 -0.5
v -0.5 0.8 -0.6
v -0.5 0.9 -0.6
v -0.4 0.8 -0.6
v -0.4 0.9 -0.6
v 0.3 0.5 0.3
v 0.3 0.6 0.3
v 0.4 0.5 0.3
v 0.5 0.5 0.3
v 0.5 0.6 0.3
v 0.4 0.4 0.2
v 0.4 0.5 0.2
v 0.5 0.4 0.2
v 0.6 0.4 0.2
v 0.6 0.5 0.2
v 0.6 1.2 0.2
v 0.6 1.3 0.2
v 0.7 1.2 0.2
v 0.7 1.3 0.2
v 0.5 0.3 0.1
v 0.5 0.4 0.1
v 0.5 1 0.1
v 0.5 1.3 0.1
v 0.6 0 0.1
v 0.6 0.1 0.1
v 0.6 0.3 0.1
v 0.6 0.4 0.1
v 0.6 0.6 0.1
v 0.6 0.7 0.1
v 0.6 0.9 0.1
v 0.6 1 0.1
v 0.6 1.3 0.1
v 0.7 0 0.1
v 0.7 0.1 0.1
v 0.7 0.4 0.1
v 0.7 0.6 0.1
v 0.7 0.7 0.1
v 0.7 0.8 0.1
v 0.7 0.9 0.1
v 0.7 1 0.1
v 0.7 1.3 0.1
v 0.8 1 0.1
v 0.8 1.3 0.1
v 0.6 0.6 0
v 0.6 0.7 0
v 0.6 1 0
v 0.6 1.3 0
v 0.7 0.7 0
v 0.7 1 0
v 0.7 1.3 0
v 0.8 0.6 0
v 0.8 0.7 0
v 0.7 0.7 -0.1
v 0.7 0.8 -0.1
v 0.8 0.8 -0.1
v 0.9 0.7 -0.1
v 0.9 0.8 -0.1
v -0.7 0.5 -0.2
v -0.7 0.6 -0.2
v -0.6 0.5 -0.2
v -0.5 0.5 -0.2
v -0.5 0.6 -0.2
v 0.8 0.8 -0.2
v 0.8 0.9 -0.2
v 1 0.8 -0.2
v 1 0.9 -0.2
v -0.6 0.4 -0.3
v -0.6 0.5 -0.3
v -0.5 0.4 -0.3
v -0.4 0.4 -0.3
v -0.4 0.5 -0.3
v -0.4 1.2 -0.3
v -0.4 1.3 -0.3
v -0.3 1.2 -0.3
v -0.3 1.3 -0.3
v -0.5 0.3 -0.4
v -0.5 0.4 -0.4
v -0.5 1 -0.4
v -0.5 1.3 -0.4
v -0.4 0 -0.4
v -0.4 0.1 -0.4
v -0.4 0.3 -0.4
v -0.4 0.4 -0.4
v -0.4 0.6 -0.4
v -0.4 0.7 -0.4
v -0.4 0.8 -0.4
v -0.4 0.9 -0.4
v -0.4 1 -0.4
v -0.4 1.3 -0.4
v -0.3 0 -0.4
v -0.3 0.1 -0.4
v -0.3 0.4 -0.4
v -0.3 0.6 -0.4
v -0.3 0.7 -0.4
v -0.3 0.9 -0.4
v -0.3 1 -0.4
v -0.3 1.3 -0.4
v -0.2 1 -0.4
v -0.2 1.3 -0.4
v -0.5 0.6 -0.5
v -0.5 0.7 -0.5
v -0.4 0.7 -0.5
v -0.4 1 -0.5
v -0.4 1.3 -0.5
v -0.3 0.6 -0.5
v -0.3 0.7 -0.5
v -0.3 1 -0.5
v -0.3 1.3 -0.5
v -0.6 0.7 -0.6
v -0.6 0.8 -0.6
v -0.4 0.7 -0.6
v -0.4 0.8 -0.6
v -0.7 0.8 -0.7
v -0.7 0.9 -0.7
v -0.4 0.8 -0.7
v -0.4 0.9 -0.7
v 0.6 0 0.2
v 0.7 0 0.2
v 0.6 0 0.1
v 0.7 0 0.1
v -0.4 0 -0.3
v -0.3 0 -0.3
v -0.4 0 -0.4
v -0.3 0 -0.4
v 0.5 0.3 0.3
v 0.7 0.3 0.3
v 0.6 0.3 0.2
v 0.7 0.3 0.2
v 0.5 0.3 0.1
v 0.6 0.3 0.1
v -0.5 0.3 -0.2
v -0.3 0.3 -0.2
v -0.4 0.3 -0.3
v -0.3 0.3 -0.3
v -0.5 0.3 -0.4
v -0.4 0.3 -0.4
v 0.4 0.4 0.4
v 0.6 0.4 0.4
v 0.5 0.4 0.3
v 0.6 0.4 0.3
v 0.4 0.4 0.2
v 0.5 0.4 0.2
v -0.6 0.4 -0.1
v -0.4 0.4 -0.1
v -0.5 0.4 -0.2
v -0.4 0.4 -0.2
v -0.6 0.4 -0.3
v -0.5 0.4 -0.3
v 0.3 0.5 0.5
v 0.5 0.5 0.5
v 0.4 0.5 0.4
v 0.5 0.5 0.4
v 0.3 0.5 0.3
v 0.4 0.5 0.3
v -0.7 0.5 0
v -0.5 0.5 0
v -0.6 0.5 -0.1
v -0.5 0.5 -0.1
v -0.7 0.5 -0.2
v -0.6 0.5 -0.2
v 0.7 0.6 0.2
v 0.8 0.6 0.2
v 0.6 0.6 0.1
v 0.7 0.6 0.1
v 0.6 0.6 0
v 0.8 0.6 0
v -0.5 0.6 -0.3
v -0.4 0.6 -0.3
v -0.4 0.6 -0.4
v -0.3 0.6 -0.4
v -0.5 0.6 -0.5
v -0.3 0.6 -0.5
v 0.8 0.7 0.1
v 0.9 0.7 0.1
v 0.7 0.7 0
v 0.8 0.7 0
v 0.7 0.7 -0.1
v 0.9 0.7 -0.1
v -0.6 0.7 -0.4
v -0.5 0.7 -0.4
v -0.5 0.7 -0.5
v -0.4 0.7 -0.5
v -0.6 0.7 -0.6
v -0.4 0.7 -0.6
v 0.9 0.8 0
v 1 0.8 0
v 0.8 0.8 -0.1
v 0.9 0.8 -0.1
v 0.8 0.8 -0.2
v 1 0.8 -0.2
v -0.7 0.8 -0.5
v -0.6 0.8 -0.5
v -0.6 0.8 -0.6
v -0.4 0.8 -0.6
v -0.7 0.8 -0.7
v -0.4 0.8 -0.7
v 0.6 1 0.3
v 0.7 1 0.3
v 0.5 1 0.2
v 0.6 1 0.2
v 0.7 1 0.2
v 0.8 1 0.2
v 0.5 1 0.1
v 0.6 1 0.1
v 0.7 1 0.1
v 0.8 1 0.1
v 0.6 1 0
v 0.7 1 0
v -0.4 1 -0.2
v -0.3 1 -0.2
v -0.5 1 -0.3
v -0.4 1 -0.3
v -0.3 1 -0.3
v -0.2 1 -0.3
v -0.5 1 -0.4
v -0.4 1 -0.4
v -0.3 1 -0.4
v -0.2 1 -0.4
v -0.4 1 -0.5
v -0.3 1 -0.5
v 0.6 0.4 0.3
v 0.7 0.4 0.3
v 0.5 0.4 0.2
v 0.6 0.4 0.2
v 0.7 0.4 0.2
v 0.5 0.4 0.1
v 0.6 0.4 0.1
v -0.4 0.4 -0.2
v -0.3 0.4 -0.2
v -0.5 0.4 -0.3
v -0.4 0.4 -0.3
v -0.3 0.4 -0.3
v -0.5 0.4 -0.4
v -0.4 0.4 -0.4
v 0.5 0.5 0.4
v 0.6 0.5 0.4
v 0.4 0.5 0.3
v 0.5 0.5 0.3
v 0.4 0.5 0.2
v 0.6 0.5 0.2
v -0.5 0.5 -0.1
v -0.4 0.5 -0.1
v -0.6 0.5 -0.2
v -0.5 0.5 -0.2
v -0.6 0.5 -0.3
v -0.4 0.5 -0.3
v 0.3 0.6 0.5
v 0.5 0.6 0.5
v 0.3 0.6 0.3
v 0.5 0.6 0.3
v -0.7 0.6 0
v -0.5 0.6 0
v -0.7 0.6 -0.2
v -0.5 0.6 -0.2
v 0.7 0.7 0.2
v 0.8 0.7 0.2
v 0.6 0.7 0.1
v 0.7 0.7 0.1
v 0.8 0.7 0.1
v 0.6 0.7 0
v 0.7 0.7 0
v -0.5 0.7 -0.3
v -0.4 0.7 -0.3
v -0.5 0.7 -0.4
v -0.4 0.7 -0.4
v -0.3 0.7 -0.4
v -0.4 0.7 -0.5
v -0.3 0.7 -0.5
v 0.7 0.8 0.1
v 0.9 0.8 0.1
v 0.8 0.8 0
v 0.9 0.8 0
v 0.7 0.8 -0.1
v 0.8 0.8 -0.1
v -0.6 0.8 -0.4
v -0.4 0.8 -0.4
v -0.6 0.8 -0.5
v -0.5 0.8 -0.5
v -0.5 0.8 -0.6
v -0.4 0.8 -0.6
v 0.8 0.9 0
v 1 0.9 0
v 0.8 0.9 -0.2
v 1 0.9 -0.2
v -0.7 0.9 -0.5
v -0.5 0.9 -0.5
v -0.5 0.9 -0.6
v -0.4 0.9 -0.6
v -0.7 0.9 -0.7
v -0.4 0.9 -0.7
v 0.6 1.2 0.2
v 0.7 1.2 0.2
v 0.6 1.2 0.1
v 0.7 1.2 0.1
v -0.4 1.2 -0.3
v -0.3 1.2 -0.3
v -0.4 1.2 -0.4
v -0.3 1.2 -0.4
v 0.6 1.3 0.3
v 0.7 1.3 0.3
v 0.5 1.3 0.2
v 0.6 1.3 0.2
v 0.7 1.3 0.2
v 0.8 1.3 0.2
v 0.5 1.3 0.1
v 0.6 1.3 0.1
v 0.7 1.3 0.1
v 0.8 1.3 0.1
v 0.6 1.3 0
v 0.7 1.3 0
v -0.4 1.3 -0.2
v -0.3 1.3 -0.2
v -0.5 1.3 -0.3
v -0.4 1.3 -0.3
v -0.3 1.3 -0.3
v -0.2 1.3 -0.3
v -0.5 1.3 -0.4
v -0.4 1.3 -0.4
v -0.3 1.3 -0.4
v -0.2 1.3 -0.4
v -0.4 1.3 -0.5
v -0.3 1.3 -0.5

# faces
f 3/6/1 2/6/1 1/6/1
f 4/6/1 2/6/1 3/6/1
f 7/5/1 6/5/1 5/5/1
f 8/5/1 6/5/1 7/5/1
f 11/6/1 10/6/1 9/6/1
f 12/6/1 10/6/1 11/6/1
f 13/6/1 10/6/1 12/6/1
f 16/5/1 15/5/1 14/5/1
f 17/5/1 15/5/1 16/5/1
f 18/5/1 15/5/1 17/5/1
f 21/6/1 20/6/1 19/6/1
f 22/6/1 20/6/1 21/6/1
f 23/6/1 20/6/1 22/6/1
f 26/5/1 25/5/1 24/5/1
f 27/5/1 25/5/1 26/5/1
f 28/5/1 25/5/1 27/5/1
f 31/3/1 30/3/1 29/3/1
f 32/3/1 30/3/1 31/3/1
f 35/2/1 34/2/1 33/2/1
f 36/2/1 34/2/1 35/2/1
f 37/7/1 36/7/1 35/7/1
f 38/7/1 36/7/1 37/7/1
f 41/6/1 40/6/1 39/6/1
f 42/6/1 40/6/1 41/6/1
f 43/6/1 40/6/1 42/6/1
f 46/5/1 45/5/1 44/5/1
f 47/5/1 46/5/1 44/5/1
f 48/5/1 46/5/1 47/5/1
f 50/3/1 48/3/1 47/3/1
f 51/3/1 48/3/1 50/3/1
f 53/3/1 50/3/1 49/3/1
f 54/3/1 50/3/1 53/3/1
f 55/3/1 52/3/1 51/3/1
f 56/3/1 52/3/1 55/3/1
f 59/3/1 58/3/1 57/3/1
f 60/3/1 58/3/1 59/3/1
f 63/6/1 62/6/1 61/6/1
f 64/6/1 62/6/1 63/6/1
f 67/6/1 66/6/1 65/6/1
f 68/6/1 66/6/1 67/6/1
f 69/6/1 66/6/1 68/6/1
f 72/6/1 71/6/1 70/6/1
f 73/6/1 71/6/1 72/6/1
f 74/6/1 71/6/1 73/6/1
f 77/1/1 76/1/1 75/1/1
f 78/1/1 76/1/1 77/1/1
f 81/2/1 80/2/1 79/2/1
f 82/2/1 80/2/1 81/2/1
f 83/7/1 82/7/1 81/7/1
f 84/7/1 82/7/1 83/7/1
f 87/6/1 86/6/1 85/6/1
f 88/6/1 86/6/1 87/6/1
f 90/6/1 88/6/1 87/6/1
f 91/5/1 89/5/1 88/5/1
f 91/6/1 88/6/1 90/6/1
f 92/5/1 89/5/1 91/5/1
f 93/5/1 91/5/1 90/5/1
f 94/5/1 91/5/1 93/5/1
f 96/1/1 94/1/1 93/1/1
f 97/1/1 94/1/1 96/1/1
f 99/1/1 96/1/1 95/1/1
f 100/1/1 96/1/1 99/1/1
f 101/1/1 98/1/1 97/1/1
f 102/1/1 98/1/1 101/1/1
f 106/5/1 104/5/1 103/5/1
f 106/5/1 105/5/1 104/5/1
f 107/5/1 105/5/1 106/5/1
f 110/1/1 109/1/1 108/1/1
f 111/1/1 109/1/1 110/1/1
f 115/5/1 113/5/1 112/5/1
f 115/5/1 114/5/1 113/5/1
f 116/5/1 114/5/1 115/5/1
f 117/6/2 118/6/2 120/6/2
f 118/6/2 119/6/2 120/6/2
f 120/6/2 119/6/2 121/6/2
f 122/5/2 123/5/2 124/5/2
f 124/5/2 123/5/2 125/5/2
f 126/6/2 127/6/2 129/6/2
f 127/6/2 128/6/2 129/6/2
f 129/6/2 128/6/2 130/6/2
f 131/5/2 132/5/2 134/5/2
f 132/5/2 133/5/2 134/5/2
f 134/5/2 133/5/2 135/5/2
f 135/5/2 136/5/2 137/5/2
f 137/5/2 136/5/2 138/5/2
f 139/3/2 140/3/2 141/3/2
f 141/3/2 140/3/2 142/3/2
f 143/2/2 144/2/2 145/2/2
f 145/2/2 144/2/2 146/2/2
f 145/7/2 146/7/2 148/7/2
f 147/6/2 148/6/2 149/6/2
f 148/7/2 146/7/2 150/7/2
f 149/6/2 148/6/2 150/6/2
f 150/7/2 146/7/2 151/7/2
f 150/6/2 151/6/2 152/6/2
f 150/6/2 152/6/2 154/6/2
f 152/5/2 153/5/2 155/5/2
f 154/6/2 152/6/2 155/6/2
f 155/5/2 153/5/2 156/5/2
f 154/5/2 155/5/2 157/5/2
f 157/5/2 155/5/2 158/5/2
f 157/3/2 158/3/2 160/3/2
f 160/3/2 158/3/2 161/3/2
f 159/3/2 160/3/2 163/3/2
f 163/3/2 160/3/2 164/3/2
f 161/3/2 162/3/2 165/3/2
f 165/3/2 162/3/2 166/3/2
f 167/3/2 168/3/2 169/3/2
f 169/3/2 168/3/2 170/3/2
f 171/6/2 172/6/2 174/6/2
f 172/6/2 173/6/2 174/6/2
f 174/6/2 173/6/2 175/6/2
f 176/6/2 177/6/2 179/6/2
f 177/6/2 178/6/2 179/6/2
f 179/6/2 178/6/2 180/6/2
f 181/1/2 182/1/2 183/1/2
f 183/1/2 182/1/2 184/1/2
f 185/2/2 186/2/2 187/2/2
f 187/2/2 186/2/2 188/2/2
f 187/7/2 188/7/2 190/7/2
f 189/6/2 190/6/2 191/6/2
f 190/7/2 188/7/2 192/7/2
f 191/6/2 190/6/2 192/6/2
f 192/7/2 188/7/2 193/7/2
f 192/6/2 193/6/2 194/6/2
f 194/6/2 193/6/2 195/6/2
f 196/5/2 197/5/2 198/5/2
f 196/5/2 198/5/2 199/5/2
f 199/5/2 198/5/2 200/5/2
f 199/1/2 200/1/2 202/1/2
f 202/1/2 200/1/2 203/1/2
f 201/1/2 202/1/2 205/1/2
f 205/1/2 202/1/2 206/1/2
f 203/1/2 204/1/2 207/1/2
f 207/1/2 204/1/2 208/1/2
f 209/5/2 210/5/2 211/5/2
f 211/5/2 210/5/2 212/5/2
f 212/5/2 210/5/2 213/5/2
f 214/1/2 215/1/2 216/1/2
f 216/1/2 215/1/2 217/1/2
f 218/5/2 219/5/2 220/5/2
f 220/5/2 219/5/2 221/5/2
f 221/5/2 219/5/2 222/5/2
f 223/5/2 224/5/2 225/5/2
f 225/5/2 224/5/2 226/5/2
f 229/6/3 228/6/3 227/6/3
f 230/6/3 228/6/3 229/6/3
f 233/6/3 232/6/3 231/6/3
f 234/6/3 233/6/3 231/6/3
f 235/6/3 233/6/3 234/6/3
f 238/6/3 237/6/3 236/6/3
f 241/6/3 238/6/3 236/6/3
f 242/6/3 238/6/3 241/6/3
f 243/1/3 240/1/3 239/1/3
f 244/1/3 240/1/3 243/1/3
f 254/1/3 246/1/3 245/1/3
f 255/1/3 246/1/3 254/1/3
f 256/2/3 248/2/3 247/2/3
f 257/7/3 249/7/3 248/7/3
f 257/2/3 248/2/3 256/2/3
f 258/7/3 249/7/3 257/7/3
f 259/6/3 251/6/3 250/6/3
f 259/6/3 252/6/3 251/6/3
f 260/6/3 252/6/3 259/6/3
f 261/5/3 253/5/3 252/5/3
f 261/6/3 252/6/3 260/6/3
f 262/1/3 254/1/3 253/1/3
f 262/5/3 253/5/3 261/5/3
f 263/1/3 254/1/3 262/1/3
f 265/5/3 261/5/3 260/5/3
f 266/5/3 261/5/3 265/5/3
f 267/1/3 264/1/3 263/1/3
f 268/1/3 264/1/3 267/1/3
f 273/1/3 270/1/3 269/1/3
f 274/1/3 270/1/3 273/1/3
f 275/5/3 272/5/3 271/5/3
f 276/5/3 272/5/3 275/5/3
f 277/5/3 272/5/3 276/5/3
f 280/6/3 279/6/3 278/6/3
f 281/6/3 279/6/3 280/6/3
f 284/5/3 283/5/3 282/5/3
f 285/5/3 283/5/3 284/5/3
f 286/5/3 283/5/3 285/5/3
f 289/6/3 288/6/3 287/6/3
f 290/6/3 289/6/3 287/6/3
f 291/6/3 289/6/3 290/6/3
f 294/6/3 293/6/3 292/6/3
f 297/6/3 294/6/3 292/6/3
f 298/6/3 294/6/3 297/6/3
f 299/3/3 296/3/3 295/3/3
f 300/3/3 296/3/3 299/3/3
f 310/5/3 302/5/3 301/5/3
f 311/5/3 302/5/3 310/5/3
f 313/3/3 304/3/3 303/3/3
f 314/3/3 304/3/3 313/3/3
f 315/2/3 306/2/3 305/2/3
f 316/7/3 307/7/3 306/7/3
f 316/2/3 306/2/3 315/2/3
f 317/7/3 307/7/3 316/7/3
f 318/6/3 309/6/3 308/6/3
f 318/6/3 310/6/3 309/6/3
f 318/6/3 311/6/3 310/6/3
f 319/5/3 312/5/3 311/5/3
f 319/6/3 311/6/3 318/6/3
f 320/3/3 313/3/3 312/3/3
f 320/5/3 312/5/3 319/5/3
f 321/3/3 313/3/3 320/3/3
f 323/3/3 322/3/3 321/3/3
f 324/3/3 322/3/3 323/3/3
f 327/5/3 326/5/3 325/5/3
f 328/5/3 326/5/3 327/5/3
f 329/5/3 326/5/3 328/5/3
f 332/3/3 331/3/3 330/3/3
f 333/3/3 331/3/3 332/3/3
f 336/5/3 335/5/3 334/5/3
f 337/5/3 335/5/3 336/5/3
f 338/5/3 335/5/3 337/5/3
f 341/5/3 340/5/3 339/5/3
f 342/5/3 340/5/3 341/5/3
f 343/6/4 344/6/4 345/6/4
f 345/6/4 344/6/4 346/6/4
f 346/6/4 344/6/4 347/6/4
f 348/6/4 349/6/4 350/6/4
f 350/6/4 349/6/4 351/6/4
f 351/6/4 349/6/4 352/6/4
f 353/1/4 354/1/4 355/1/4
f 355/1/4 354/1/4 356/1/4
f 357/6/4 358/6/4 363/6/4
f 363/6/4 358/6/4 364/6/4
f 359/1/4 360/1/4 368/1/4
f 368/1/4 360/1/4 369/1/4
f 361/2/4 362/2/4 370/2/4
f 362/7/4 363/7/4 371/7/4
f 370/2/4 362/2/4 371/2/4
f 363/7/4 364/7/4 371/7/4
f 364/6/4 365/6/4 372/6/4
f 371/7/4 364/7/4 372/7/4
f 372/6/4 365/6/4 373/6/4
f 366/5/4 367/5/4 374/5/4
f 374/5/4 367/5/4 375/5/4
f 367/1/4 368/1/4 376/1/4
f 375/5/4 367/5/4 376/5/4
f 376/1/4 368/1/4 377/1/4
f 377/1/4 378/1/4 379/1/4
f 379/1/4 378/1/4 380/1/4
f 381/5/4 382/5/4 385/5/4
f 383/1/4 384/1/4 386/1/4
f 386/1/4 384/1/4 387/1/4
f 381/5/4 385/5/4 388/5/4
f 388/5/4 385/5/4 389/5/4
f 390/5/4 391/5/4 392/5/4
f 390/5/4 392/5/4 393/5/4
f 393/5/4 392/5/4 394/5/4
f 395/6/4 396/6/4 397/6/4
f 397/6/4 396/6/4 398/6/4
f 398/6/4 396/6/4 399/6/4
f 400/5/4 401/5/4 402/5/4
f 402/5/4 401/5/4 403/5/4
f 404/6/4 405/6/4 406/6/4
f 406/6/4 405/6/4 407/6/4
f 407/6/4 405/6/4 408/6/4
f 409/3/4 410/3/4 411/3/4
f 411/3/4 410/3/4 412/3/4
f 413/6/4 414/6/4 419/6/4
f 419/6/4 414/6/4 420/6/4
f 415/3/4 416/3/4 425/3/4
f 425/3/4 416/3/4 426/3/4
f 417/2/4 418/2/4 427/2/4
f 418/7/4 419/7/4 428/7/4
f 427/2/4 418/2/4 428/2/4
f 419/7/4 420/7/4 428/7/4
f 420/6/4 421/6/4 429/6/4
f 428/7/4 420/7/4 429/7/4
f 429/6/4 421/6/4 430/6/4
f 423/5/4 424/5/4 431/5/4
f 422/5/4 423/5/4 431/5/4
f 424/3/4 425/3/4 432/3/4
f 431/5/4 424/5/4 432/5/4
f 432/3/4 425/3/4 433/3/4
f 433/3/4 434/3/4 435/3/4
f 435/3/4 434/3/4 436/3/4
f 437/5/4 438/5/4 439/5/4
f 437/5/4 439/5/4 442/5/4
f 442/5/4 439/5/4 443/5/4
f 440/3/4 441/3/4 444/3/4
f 444/3/4 441/3/4 445/3/4
f 446/5/4 447/5/4 448/5/4
f 448/5/4 447/5/4 449/5/4
f 450/5/4 451/5/4 452/5/4
f 452/5/4 451/5/4 453/5/4
f 456/2/5 455/2/5 454/2/5
f 457/2/5 455/2/5 456/2/5
f 460/2/5 459/2/5 458/2/5
f 461/2/5 459/2/5 460/2/5
f 464/6/5 463/6/5 462/6/5
f 465/6/5 463/6/5 464/6/5
f 466/6/5 464/6/5 462/6/5
f 467/6/5 464/6/5 466/6/5
f 470/6/5 469/6/5 468/6/5
f 471/6/5 469/6/5 470/6/5
f 472/6/5 470/6/5 468/6/5
f 473/6/5 470/6/5 472/6/5
f 476/6/5 475/6/5 474/6/5
f 477/6/5 475/6/5 476/6/5
f 478/6/5 476/6/5 474/6/5
f 479/6/5 476/6/5 478/6/5
f 482/6/5 481/6/5 480/6/5
f 483/6/5 481/6/5 482/6/5
f 484/6/5 482/6/5 480/6/5
f 485/6/5 482/6/5 484/6/5
f 488/6/5 487/6/5 486/6/5
f 489/6/5 487/6/5 488/6/5
f 490/6/5 488/6/5 486/6/5
f 491/6/5 488/6/5 490/6/5
f 494/6/5 493/6/5 492/6/5
f 495/6/5 493/6/5 494/6/5
f 496/6/5 494/6/5 492/6/5
f 497/6/5 494/6/5 496/6/5
f 501/5/5 499/5/5 498/5/5
f 502/5/5 501/5/5 500/5/5
f 503/5/5 499/5/5 501/5/5
f 503/5/5 501/5/5 502/5/5
f 506/5/5 505/5/5 504/5/5
f 508/5/5 506/5/5 504/5/5
f 508/5/5 507/5/5 506/5/5
f 509/5/5 507/5/5 508/5/5
f 513/5/5 511/5/5 510/5/5
f 514/5/5 513/5/5 512/5/5
f 515/5/5 511/5/5 513/5/5
f 515/5/5 513/5/5 514/5/5
f 518/5/5 517/5/5 516/5/5
f 520/5/5 518/5/5 516/5/5
f 520/5/5 519/5/5 518/5/5
f 521/5/5 519/5/5 520/5/5
f 525/5/5 523/5/5 522/5/5
f 526/5/5 525/5/5 524/5/5
f 527/5/5 523/5/5 525/5/5
f 527/5/5 525/5/5 526/5/5
f 530/5/5 529/5/5 528/5/5
f 532/5/5 530/5/5 528/5/5
f 532/5/5 531/5/5 530/5/5
f 533/5/5 531/5/5 532/5/5
f 537/1/5 535/1/5 534/1/5
f 538/1/5 535/1/5 537/1/5
f 540/1/5 537/1/5 536/1/5
f 541/1/5 537/1/5 540/1/5
f 542/1/5 539/1/5 538/1/5
f 543/1/5 539/1/5 542/1/5
f 544/1/5 542/1/5 541/1/5
f 545/1/5 542/1/5 544/1/5
f 549/3/5 547/3/5 546/3/5
f 550/3/5 547/3/5 549/3/5
f 552/3/5 549/3/5 548/3/5
f 553/3/5 549/3/5 552/3/5
f 554/3/5 551/3/5 550/3/5
f 555/3/5 551/3/5 554/3/5
f 556/3/5 554/3/5 553/3/5
f 557/3/5 554/3/5 556/3/5
f 558/6/6 559/6/6 561/6/6
f 561/6/6 559/6/6 562/6/6
f 560/6/6 561/6/6 563/6/6
f 563/6/6 561/6/6 564/6/6
f 565/6/6 566/6/6 568/6/6
f 568/6/6 566/6/6 569/6/6
f 567/6/6 568/6/6 570/6/6
f 570/6/6 568/6/6 571/6/6
f 572/6/6 573/6/6 575/6/6
f 574/6/6 575/6/6 576/6/6
f 575/6/6 573/6/6 577/6/6
f 576/6/6 575/6/6 577/6/6
f 578/6/6 579/6/6 581/6/6
f 580/6/6 581/6/6 582/6/6
f 581/6/6 579/6/6 583/6/6
f 582/6/6 581/6/6 583/6/6
f 584/6/6 585/6/6 586/6/6
f 586/6/6 585/6/6 587/6/6
f 588/6/6 589/6/6 590/6/6
f 590/6/6 589/6/6 591/6/6
f 592/5/6 593/5/6 595/5/6
f 595/5/6 593/5/6 596/5/6
f 594/5/6 595/5/6 597/5/6
f 597/5/6 595/5/6 598/5/6
f 599/5/6 600/5/6 601/5/6
f 601/5/6 600/5/6 602/5/6
f 602/5/6 603/5/6 604/5/6
f 604/5/6 603/5/6 605/5/6
f 606/5/6 607/5/6 608/5/6
f 608/5/6 607/5/6 609/5/6
f 606/5/6 608/5/6 610/5/6
f 610/5/6 608/5/6 611/5/6
f 612/5/6 613/5/6 614/5/6
f 614/5/6 613/5/6 615/5/6
f 615/5/6 613/5/6 616/5/6
f 616/5/6 613/5/6 617/5/6
f 618/5/6 619/5/6 620/5/6
f 620/5/6 619/5/6 621/5/6
f 622/5/6 623/5/6 624/5/6
f 622/5/6 624/5/6 626/5/6
f 624/5/6 625/5/6 626/5/6
f 626/5/6 625/5/6 627/5/6
f 628/4/6 629/4/6 630/4/6
f 630/4/6 629/4/6 631/4/6
f 632/4/6 633/4/6 634/4/6
f 634/4/6 633/4/6 635/4/6
f 636/1/6 637/1/6 639/1/6
f 639/1/6 637/1/6 640/1/6
f 638/1/6 639/1/6 642/1/6
f 642/1/6 639/1/6 643/1/6
f 640/1/6 641/1/6 644/1/6
f 644/1/6 641/1/6 645/1/6
f 643/1/6 644/1/6 646/1/6
f 646/1/6 644/1/6 647/1/6
f 648/3/6 649/3/6 651/3/6
f 651/3/6 649/3/6 652/3/6
f 650/3/6 651/3/6 654/3/6
f 654/3/6 651/3/6 655/3/6
f 652/3/6 653/3/6 656/3/6
f 656/3/6 653/3/6 657/3/6
f 655/3/6 656/3/6 658/3/6
f 658/3/6 656/3/6 659/3/6
