# MagicaVoxel @ Ephtracy

# group
o 

# material
mtllib Tronc2.mtl
usemtl palette

# normals
vn -1 0 0
vn 1 0 0
vn 0 0 1
vn 0 0 -1
vn 0 -1 0
vn 0 1 0

# texcoords
vt 0.970703 0.5
vt 0.974609 0.5

# verts
v -0.5 0 0.8
v -0.5 0 0.6
v -0.5 0.2 0.8
v -0.5 0.2 0.6
v -0.4 0 0.6
v -0.4 0 0.5
v -0.4 0 0.4
v -0.4 0.2 0.6
v -0.4 0.2 0.5
v -0.4 0.2 0.4
v -0.3 0 0.4
v -0.3 0 0.2
v -0.3 0.2 0.4
v -0.3 0.2 0.2
v -0.2 0 0.2
v -0.2 0 0.1
v -0.2 0 -5.96046e-08
v -0.2 0.2 0.2
v -0.2 0.2 0.1
v -0.2 0.2 -5.96046e-08
v -0.1 0 -5.96046e-08
v -0.1 0 -0.1
v -0.1 0 -0.2
v -0.1 0.2 -5.96046e-08
v -0.1 0.2 -0.1
v -0.1 0.2 -0.2
v 0 0 -0.2
v 0 0 -0.4
v 0 0.2 -0.2
v 0 0.2 -0.4
v 0.1 0 -0.4
v 0.1 0 -0.6
v 0.1 0.2 -0.4
v 0.1 0.2 -0.6
v 0.2 0 -0.6
v 0.2 0 -0.7
v 0.2 0 -0.8
v 0.2 0.2 -0.6
v 0.2 0.2 -0.7
v 0.2 0.2 -0.8
v -0.3 0 0.8
v -0.3 0 0.6
v -0.3 0.2 0.8
v -0.3 0.2 0.6
v -0.2 0 0.6
v -0.2 0 0.5
v -0.2 0 0.4
v -0.2 0.2 0.6
v -0.2 0.2 0.5
v -0.2 0.2 0.4
v -0.1 0 0.4
v -0.1 0 0.2
v -0.1 0.2 0.4
v -0.1 0.2 0.2
v 0 0 0.2
v 0 0 0.1
v 0 0 -5.96046e-08
v 0 0.2 0.2
v 0 0.2 0.1
v 0 0.2 -5.96046e-08
v 0.1 0 -5.96046e-08
v 0.1 0 -0.1
v 0.1 0 -0.2
v 0.1 0.2 -5.96046e-08
v 0.1 0.2 -0.1
v 0.1 0.2 -0.2
v 0.2 0 -0.2
v 0.2 0 -0.4
v 0.2 0.2 -0.2
v 0.2 0.2 -0.4
v 0.3 0 -0.4
v 0.3 0 -0.6
v 0.3 0.2 -0.4
v 0.3 0.2 -0.6
v 0.4 0 -0.6
v 0.4 0 -0.7
v 0.4 0 -0.8
v 0.4 0.2 -0.6
v 0.4 0.2 -0.7
v 0.4 0.2 -0.8
v -0.5 0 0.8
v -0.5 0.2 0.8
v -0.3 0 0.8
v -0.3 0.2 0.8
v -0.3 0 0.6
v -0.3 0.2 0.6
v -0.2 0 0.6
v -0.2 0.2 0.6
v -0.2 0 0.4
v -0.2 0.2 0.4
v -0.1 0 0.4
v -0.1 0.2 0.4
v -0.1 0 0.2
v -0.1 0.2 0.2
v 0 0 0.2
v 0 0.2 0.2
v 0 0 -5.96046e-08
v 0 0.2 -5.96046e-08
v 0.1 0 -5.96046e-08
v 0.1 0.2 -5.96046e-08
v 0.1 0 -0.2
v 0.1 0.2 -0.2
v 0.2 0 -0.2
v 0.2 0.2 -0.2
v 0.2 0 -0.4
v 0.2 0.2 -0.4
v 0.3 0 -0.4
v 0.3 0.2 -0.4
v 0.3 0 -0.6
v 0.3 0.2 -0.6
v 0.4 0 -0.6
v 0.4 0.2 -0.6
v -0.5 0 0.6
v -0.5 0.2 0.6
v -0.4 0 0.6
v -0.4 0.2 0.6
v -0.4 0 0.4
v -0.4 0.2 0.4
v -0.3 0 0.4
v -0.3 0.2 0.4
v -0.3 0 0.2
v -0.3 0.2 0.2
v -0.2 0 0.2
v -0.2 0.2 0.2
v -0.2 0 -5.96046e-08
v -0.2 0.2 -5.96046e-08
v -0.1 0 -5.96046e-08
v -0.1 0.2 -5.96046e-08
v -0.1 0 -0.2
v -0.1 0.2 -0.2
v 0 0 -0.2
v 0 0.2 -0.2
v 0 0 -0.4
v 0 0.2 -0.4
v 0.1 0 -0.4
v 0.1 0.2 -0.4
v 0.1 0 -0.6
v 0.1 0.2 -0.6
v 0.2 0 -0.6
v 0.2 0.2 -0.6
v 0.2 0 -0.8
v 0.2 0.2 -0.8
v 0.3 0 -0.8
v 0.3 0.2 -0.8
v 0.4 0 -0.8
v 0.4 0.2 -0.8
v -0.5 0 0.8
v -0.3 0 0.8
v -0.5 0 0.6
v -0.4 0 0.6
v -0.3 0 0.6
v -0.2 0 0.6
v -0.4 0 0.5
v -0.3 0 0.5
v -0.2 0 0.5
v -0.4 0 0.4
v -0.3 0 0.4
v -0.2 0 0.4
v -0.1 0 0.4
v -0.3 0 0.2
v -0.2 0 0.2
v -0.1 0 0.2
v 0 0 0.2
v -0.2 0 0.1
v -0.1 0 0.1
v 0 0 0.1
v -0.2 0 -5.96046e-08
v -0.1 0 -5.96046e-08
v 0 0 -5.96046e-08
v 0.1 0 -5.96046e-08
v -0.1 0 -0.1
v 0 0 -0.1
v 0.1 0 -0.1
v -0.1 0 -0.2
v 0 0 -0.2
v 0.1 0 -0.2
v 0.2 0 -0.2
v 0 0 -0.4
v 0.1 0 -0.4
v 0.2 0 -0.4
v 0.3 0 -0.4
v 0.1 0 -0.6
v 0.2 0 -0.6
v 0.3 0 -0.6
v 0.4 0 -0.6
v 0.2 0 -0.7
v 0.3 0 -0.7
v 0.4 0 -0.7
v 0.2 0 -0.8
v 0.3 0 -0.8
v 0.4 0 -0.8
v -0.5 0.2 0.8
v -0.3 0.2 0.8
v -0.5 0.2 0.6
v -0.4 0.2 0.6
v -0.3 0.2 0.6
v -0.2 0.2 0.6
v -0.4 0.2 0.5
v -0.3 0.2 0.5
v -0.2 0.2 0.5
v -0.4 0.2 0.4
v -0.3 0.2 0.4
v -0.2 0.2 0.4
v -0.1 0.2 0.4
v -0.3 0.2 0.2
v -0.2 0.2 0.2
v -0.1 0.2 0.2
v 0 0.2 0.2
v -0.2 0.2 0.1
v -0.1 0.2 0.1
v 0 0.2 0.1
v -0.2 0.2 -5.96046e-08
v -0.1 0.2 -5.96046e-08
v 0 0.2 -5.96046e-08
v 0.1 0.2 -5.96046e-08
v -0.1 0.2 -0.1
v 0 0.2 -0.1
v 0.1 0.2 -0.1
v -0.1 0.2 -0.2
v 0 0.2 -0.2
v 0.1 0.2 -0.2
v 0.2 0.2 -0.2
v 0 0.2 -0.4
v 0.1 0.2 -0.4
v 0.2 0.2 -0.4
v 0.3 0.2 -0.4
v 0.1 0.2 -0.6
v 0.2 0.2 -0.6
v 0.3 0.2 -0.6
v 0.4 0.2 -0.6
v 0.2 0.2 -0.7
v 0.3 0.2 -0.7
v 0.4 0.2 -0.7
v 0.2 0.2 -0.8
v 0.3 0.2 -0.8
v 0.4 0.2 -0.8

# faces
f 3/2/1 2/2/1 1/2/1
f 4/2/1 2/2/1 3/2/1
f 8/2/1 6/2/1 5/2/1
f 9/1/1 7/1/1 6/1/1
f 9/2/1 6/2/1 8/2/1
f 10/1/1 7/1/1 9/1/1
f 13/2/1 12/2/1 11/2/1
f 14/2/1 12/2/1 13/2/1
f 18/2/1 16/2/1 15/2/1
f 19/1/1 17/1/1 16/1/1
f 19/2/1 16/2/1 18/2/1
f 20/1/1 17/1/1 19/1/1
f 24/2/1 22/2/1 21/2/1
f 25/1/1 23/1/1 22/1/1
f 25/2/1 22/2/1 24/2/1
f 26/1/1 23/1/1 25/1/1
f 29/2/1 28/2/1 27/2/1
f 30/2/1 28/2/1 29/2/1
f 33/2/1 32/2/1 31/2/1
f 34/2/1 32/2/1 33/2/1
f 38/2/1 36/2/1 35/2/1
f 39/1/1 37/1/1 36/1/1
f 39/2/1 36/2/1 38/2/1
f 40/1/1 37/1/1 39/1/1
f 41/2/2 42/2/2 43/2/2
f 43/2/2 42/2/2 44/2/2
f 45/1/2 46/1/2 48/1/2
f 46/2/2 47/2/2 49/2/2
f 48/1/2 46/1/2 49/1/2
f 49/2/2 47/2/2 50/2/2
f 51/2/2 52/2/2 53/2/2
f 53/2/2 52/2/2 54/2/2
f 55/1/2 56/1/2 58/1/2
f 56/2/2 57/2/2 59/2/2
f 58/1/2 56/1/2 59/1/2
f 59/2/2 57/2/2 60/2/2
f 61/1/2 62/1/2 64/1/2
f 62/2/2 63/2/2 65/2/2
f 64/1/2 62/1/2 65/1/2
f 65/2/2 63/2/2 66/2/2
f 67/2/2 68/2/2 69/2/2
f 69/2/2 68/2/2 70/2/2
f 71/2/2 72/2/2 73/2/2
f 73/2/2 72/2/2 74/2/2
f 75/1/2 76/1/2 78/1/2
f 76/2/2 77/2/2 79/2/2
f 78/1/2 76/1/2 79/1/2
f 79/2/2 77/2/2 80/2/2
f 83/2/3 82/2/3 81/2/3
f 84/2/3 82/2/3 83/2/3
f 87/1/3 86/1/3 85/1/3
f 88/1/3 86/1/3 87/1/3
f 91/2/3 90/2/3 89/2/3
f 92/2/3 90/2/3 91/2/3
f 95/1/3 94/1/3 93/1/3
f 96/1/3 94/1/3 95/1/3
f 99/1/3 98/1/3 97/1/3
f 100/1/3 98/1/3 99/1/3
f 103/2/3 102/2/3 101/2/3
f 104/2/3 102/2/3 103/2/3
f 107/2/3 106/2/3 105/2/3
f 108/2/3 106/2/3 107/2/3
f 111/1/3 110/1/3 109/1/3
f 112/1/3 110/1/3 111/1/3
f 113/2/4 114/2/4 115/2/4
f 115/2/4 114/2/4 116/2/4
f 117/1/4 118/1/4 119/1/4
f 119/1/4 118/1/4 120/1/4
f 121/2/4 122/2/4 123/2/4
f 123/2/4 122/2/4 124/2/4
f 125/1/4 126/1/4 127/1/4
f 127/1/4 126/1/4 128/1/4
f 129/1/4 130/1/4 131/1/4
f 131/1/4 130/1/4 132/1/4
f 133/2/4 134/2/4 135/2/4
f 135/2/4 134/2/4 136/2/4
f 137/2/4 138/2/4 139/2/4
f 139/2/4 138/2/4 140/2/4
f 141/1/4 142/1/4 143/1/4
f 143/1/4 142/1/4 144/1/4
f 143/2/4 144/2/4 145/2/4
f 145/2/4 144/2/4 146/2/4
f 149/2/5 148/2/5 147/2/5
f 150/2/5 148/2/5 149/2/5
f 151/2/5 148/2/5 150/2/5
f 153/2/5 151/2/5 150/2/5
f 154/1/5 152/1/5 151/1/5
f 154/2/5 151/2/5 153/2/5
f 155/1/5 152/1/5 154/1/5
f 156/1/5 154/1/5 153/1/5
f 157/2/5 155/2/5 154/2/5
f 157/1/5 154/1/5 156/1/5
f 158/2/5 155/2/5 157/2/5
f 160/2/5 158/2/5 157/2/5
f 160/2/5 159/2/5 158/2/5
f 161/2/5 159/2/5 160/2/5
f 162/2/5 159/2/5 161/2/5
f 164/2/5 162/2/5 161/2/5
f 165/1/5 163/1/5 162/1/5
f 165/2/5 162/2/5 164/2/5
f 166/1/5 163/1/5 165/1/5
f 167/1/5 165/1/5 164/1/5
f 168/2/5 166/2/5 165/2/5
f 168/1/5 165/1/5 167/1/5
f 169/2/5 166/2/5 168/2/5
f 171/2/5 169/2/5 168/2/5
f 172/1/5 170/1/5 169/1/5
f 172/2/5 169/2/5 171/2/5
f 173/1/5 170/1/5 172/1/5
f 174/1/5 172/1/5 171/1/5
f 175/2/5 173/2/5 172/2/5
f 175/1/5 172/1/5 174/1/5
f 176/2/5 173/2/5 175/2/5
f 178/2/5 176/2/5 175/2/5
f 178/2/5 177/2/5 176/2/5
f 179/2/5 177/2/5 178/2/5
f 180/2/5 177/2/5 179/2/5
f 182/2/5 181/2/5 180/2/5
f 182/2/5 180/2/5 179/2/5
f 183/2/5 181/2/5 182/2/5
f 184/2/5 181/2/5 183/2/5
f 186/2/5 184/2/5 183/2/5
f 187/1/5 185/1/5 184/1/5
f 187/2/5 184/2/5 186/2/5
f 188/1/5 185/1/5 187/1/5
f 189/1/5 187/1/5 186/1/5
f 190/2/5 188/2/5 187/2/5
f 190/1/5 187/1/5 189/1/5
f 191/2/5 188/2/5 190/2/5
f 192/2/6 193/2/6 194/2/6
f 194/2/6 193/2/6 195/2/6
f 195/2/6 193/2/6 196/2/6
f 195/2/6 196/2/6 198/2/6
f 196/1/6 197/1/6 199/1/6
f 198/2/6 196/2/6 199/2/6
f 199/1/6 197/1/6 200/1/6
f 198/1/6 199/1/6 201/1/6
f 199/2/6 200/2/6 202/2/6
f 201/1/6 199/1/6 202/1/6
f 202/2/6 200/2/6 203/2/6
f 202/2/6 203/2/6 205/2/6
f 203/2/6 204/2/6 205/2/6
f 205/2/6 204/2/6 206/2/6
f 206/2/6 204/2/6 207/2/6
f 206/2/6 207/2/6 209/2/6
f 207/1/6 208/1/6 210/1/6
f 209/2/6 207/2/6 210/2/6
f 210/1/6 208/1/6 211/1/6
f 209/1/6 210/1/6 212/1/6
f 210/2/6 211/2/6 213/2/6
f 212/1/6 210/1/6 213/1/6
f 213/2/6 211/2/6 214/2/6
f 213/2/6 214/2/6 216/2/6
f 214/1/6 215/1/6 217/1/6
f 216/2/6 214/2/6 217/2/6
f 217/1/6 215/1/6 218/1/6
f 216/1/6 217/1/6 219/1/6
f 217/2/6 218/2/6 220/2/6
f 219/1/6 217/1/6 220/1/6
f 220/2/6 218/2/6 221/2/6
f 220/2/6 221/2/6 223/2/6
f 221/2/6 222/2/6 223/2/6
f 223/2/6 222/2/6 224/2/6
f 224/2/6 222/2/6 225/2/6
f 225/2/6 226/2/6 227/2/6
f 224/2/6 225/2/6 227/2/6
f 227/2/6 226/2/6 228/2/6
f 228/2/6 226/2/6 229/2/6
f 228/2/6 229/2/6 231/2/6
f 229/1/6 230/1/6 232/1/6
f 231/2/6 229/2/6 232/2/6
f 232/1/6 230/1/6 233/1/6
f 231/1/6 232/1/6 234/1/6
f 232/2/6 233/2/6 235/2/6
f 234/1/6 232/1/6 235/1/6
f 235/2/6 233/2/6 236/2/6
