# MagicaVoxel @ Ephtracy

# group
o 

# material
mtllib Tronc3.mtl
usemtl palette

# normals
vn -1 0 0
vn 1 0 0
vn 0 0 1
vn 0 0 -1
vn 0 -1 0
vn 0 1 0

# texcoords
vt 0.939453 0.5
vt 0.943359 0.5

# verts
v -0.8 0 0.4
v -0.8 0 0.2
v -0.8 0.2 0.4
v -0.8 0.2 0.2
v -0.4 0 0.2
v -0.4 0 0.1
v -0.4 0.1 0.2
v -0.4 0.1 0.1
v -0.4 0.2 0.2
v -0.4 0.2 0.1
v 5.96046e-08 0 0.1
v 5.96046e-08 0 0
v 5.96046e-08 0.1 0.1
v 5.96046e-08 0.1 0
v 5.96046e-08 0.2 0.1
v 5.96046e-08 0.2 0
v 0.4 0 0
v 0.4 0 -0.1
v 0.4 0.1 0
v 0.4 0.1 -0.1
v 0.4 0.2 0
v 0.4 0.2 -0.1
v -0.4 0 0.4
v -0.4 0 0.3
v -0.4 0.1 0.3
v -0.4 0.2 0.4
v -0.4 0.2 0.3
v 5.96046e-08 0 0.3
v 5.96046e-08 0 0.2
v 5.96046e-08 0.2 0.3
v 5.96046e-08 0.2 0.2
v 0.4 0 0.2
v 0.4 0 0.1
v 0.4 0.1 0.2
v 0.4 0.1 0.1
v 0.4 0.2 0.2
v 0.4 0.2 0.1
v 0.8 0 0.1
v 0.8 0 -0.1
v 0.8 0.2 0.1
v 0.8 0.2 -0.1
v -0.8 0 0.4
v -0.8 0.2 0.4
v -0.6 0.1 0.4
v -0.6 0.2 0.4
v -0.5 0.1 0.4
v -0.5 0.2 0.4
v -0.4 0 0.4
v -0.4 0.2 0.4
v -0.4 0 0.3
v -0.4 0.1 0.3
v -0.4 0.2 0.3
v -0.3 0.1 0.3
v -0.3 0.2 0.3
v 5.96046e-08 0 0.3
v 5.96046e-08 0.2 0.3
v 5.96046e-08 0 0.2
v 5.96046e-08 0.2 0.2
v 0.1 0 0.2
v 0.1 0.1 0.2
v 0.2 0.1 0.2
v 0.2 0.2 0.2
v 0.3 0.1 0.2
v 0.3 0.2 0.2
v 0.4 0 0.2
v 0.4 0.1 0.2
v 0.4 0.2 0.2
v 0.4 0 0.1
v 0.4 0.1 0.1
v 0.4 0.2 0.1
v 0.8 0 0.1
v 0.8 0.2 0.1
v -0.8 0 0.2
v -0.8 0.2 0.2
v -0.4 0 0.2
v -0.4 0.1 0.2
v -0.4 0.2 0.2
v -0.4 0 0.1
v -0.4 0.1 0.1
v -0.4 0.2 0.1
v -0.3 0.1 0.1
v -0.3 0.2 0.1
v -0.2 0.1 0.1
v -0.2 0.2 0.1
v -0.1 0.1 0.1
v -0.1 0.2 0.1
v 5.96046e-08 0 0.1
v 5.96046e-08 0.1 0.1
v 5.96046e-08 0.2 0.1
v 5.96046e-08 0 0
v 5.96046e-08 0.1 0
v 5.96046e-08 0.2 0
v 0.1 0.1 0
v 0.1 0.2 0
v 0.2 0 0
v 0.2 0.2 0
v 0.4 0 0
v 0.4 0.1 0
v 0.4 0.2 0
v 0.4 0 -0.1
v 0.4 0.1 -0.1
v 0.4 0.2 -0.1
v 0.6 0 -0.1
v 0.6 0.1 -0.1
v 0.6 0.2 -0.1
v 0.7 0.1 -0.1
v 0.7 0.2 -0.1
v 0.8 0 -0.1
v 0.8 0.2 -0.1
v -0.8 0 0.4
v -0.4 0 0.4
v -0.4 0 0.3
v 5.96046e-08 0 0.3
v -0.8 0 0.2
v -0.4 0 0.2
v 5.96046e-08 0 0.2
v 0.1 0 0.2
v 0.4 0 0.2
v -0.4 0 0.1
v 5.96046e-08 0 0.1
v 0.1 0 0.1
v 0.2 0 0.1
v 0.4 0 0.1
v 0.8 0 0.1
v 5.96046e-08 0 0
v 0.2 0 0
v 0.4 0 0
v 0.6 0 0
v 0.4 0 -0.1
v 0.6 0 -0.1
v 0.8 0 -0.1
v -0.8 0.2 0.4
v -0.6 0.2 0.4
v -0.5 0.2 0.4
v -0.4 0.2 0.4
v -0.6 0.2 0.3
v -0.5 0.2 0.3
v -0.4 0.2 0.3
v -0.3 0.2 0.3
v 5.96046e-08 0.2 0.3
v -0.8 0.2 0.2
v -0.4 0.2 0.2
v -0.2 0.2 0.2
v -0.1 0.2 0.2
v 5.96046e-08 0.2 0.2
v 0.2 0.2 0.2
v 0.3 0.2 0.2
v 0.4 0.2 0.2
v -0.4 0.2 0.1
v -0.3 0.2 0.1
v -0.2 0.2 0.1
v -0.1 0.2 0.1
v 5.96046e-08 0.2 0.1
v 0.1 0.2 0.1
v 0.2 0.2 0.1
v 0.3 0.2 0.1
v 0.4 0.2 0.1
v 0.8 0.2 0.1
v 5.96046e-08 0.2 0
v 0.1 0.2 0
v 0.2 0.2 0
v 0.4 0.2 0
v 0.6 0.2 0
v 0.7 0.2 0
v 0.4 0.2 -0.1
v 0.6 0.2 -0.1
v 0.7 0.2 -0.1
v 0.8 0.2 -0.1

# faces
f 3/1/1 2/1/1 1/1/1
f 4/1/1 2/1/1 3/1/1
f 7/1/1 6/1/1 5/1/1
f 8/1/1 6/1/1 7/1/1
f 9/2/1 8/2/1 7/2/1
f 10/2/1 8/2/1 9/2/1
f 13/2/1 12/2/1 11/2/1
f 14/2/1 12/2/1 13/2/1
f 15/1/1 14/1/1 13/1/1
f 16/1/1 14/1/1 15/1/1
f 19/2/1 18/2/1 17/2/1
f 20/2/1 18/2/1 19/2/1
f 21/1/1 20/1/1 19/1/1
f 22/1/1 20/1/1 21/1/1
f 23/1/2 24/1/2 25/1/2
f 23/1/2 25/1/2 26/1/2
f 26/1/2 25/1/2 27/1/2
f 28/1/2 29/1/2 30/1/2
f 30/1/2 29/1/2 31/1/2
f 32/2/2 33/2/2 34/2/2
f 34/2/2 33/2/2 35/2/2
f 34/1/2 35/1/2 36/1/2
f 36/1/2 35/1/2 37/1/2
f 38/1/2 39/1/2 40/1/2
f 40/1/2 39/1/2 41/1/2
f 44/1/3 43/1/3 42/1/3
f 45/1/3 43/1/3 44/1/3
f 46/1/3 44/1/3 42/1/3
f 46/2/3 45/2/3 44/2/3
f 47/2/3 45/2/3 46/2/3
f 48/1/3 46/1/3 42/1/3
f 48/1/3 47/1/3 46/1/3
f 49/1/3 47/1/3 48/1/3
f 53/1/3 51/1/3 50/1/3
f 53/2/3 52/2/3 51/2/3
f 54/2/3 52/2/3 53/2/3
f 55/1/3 53/1/3 50/1/3
f 55/1/3 54/1/3 53/1/3
f 56/1/3 54/1/3 55/1/3
f 59/1/3 58/1/3 57/1/3
f 60/1/3 58/1/3 59/1/3
f 61/2/3 60/2/3 59/2/3
f 61/1/3 58/1/3 60/1/3
f 62/1/3 58/1/3 61/1/3
f 63/2/3 61/2/3 59/2/3
f 63/2/3 62/2/3 61/2/3
f 64/2/3 62/2/3 63/2/3
f 65/2/3 63/2/3 59/2/3
f 66/1/3 64/1/3 63/1/3
f 66/2/3 63/2/3 65/2/3
f 67/1/3 64/1/3 66/1/3
f 71/1/3 69/1/3 68/1/3
f 71/1/3 70/1/3 69/1/3
f 72/1/3 70/1/3 71/1/3
f 73/1/4 74/1/4 75/1/4
f 75/1/4 74/1/4 76/1/4
f 76/1/4 74/1/4 77/1/4
f 78/1/4 79/1/4 81/1/4
f 79/2/4 80/2/4 81/2/4
f 81/2/4 80/2/4 82/2/4
f 78/1/4 81/1/4 83/1/4
f 81/1/4 82/1/4 83/1/4
f 83/1/4 82/1/4 84/1/4
f 78/1/4 83/1/4 85/1/4
f 83/2/4 84/2/4 85/2/4
f 85/2/4 84/2/4 86/2/4
f 78/1/4 85/1/4 87/1/4
f 85/1/4 86/1/4 87/1/4
f 87/1/4 86/1/4 88/1/4
f 88/1/4 86/1/4 89/1/4
f 90/2/4 91/2/4 93/2/4
f 91/1/4 92/1/4 93/1/4
f 93/1/4 92/1/4 94/1/4
f 90/2/4 93/2/4 95/2/4
f 93/2/4 94/2/4 95/2/4
f 95/2/4 94/2/4 96/2/4
f 95/1/4 96/1/4 97/1/4
f 97/1/4 96/1/4 98/1/4
f 98/1/4 96/1/4 99/1/4
f 100/2/4 101/2/4 103/2/4
f 101/1/4 102/1/4 104/1/4
f 103/2/4 101/2/4 104/2/4
f 104/1/4 102/1/4 105/1/4
f 103/1/4 104/1/4 106/1/4
f 104/2/4 105/2/4 106/2/4
f 106/2/4 105/2/4 107/2/4
f 103/1/4 106/1/4 108/1/4
f 106/1/4 107/1/4 108/1/4
f 108/1/4 107/1/4 109/1/4
f 112/1/5 111/1/5 110/1/5
f 114/1/5 112/1/5 110/1/5
f 114/1/5 113/1/5 112/1/5
f 115/1/5 113/1/5 114/1/5
f 116/1/5 113/1/5 115/1/5
f 119/1/5 116/1/5 115/1/5
f 119/1/5 117/1/5 116/1/5
f 120/1/5 117/1/5 119/1/5
f 121/2/5 118/2/5 117/2/5
f 121/1/5 117/1/5 120/1/5
f 122/2/5 118/2/5 121/2/5
f 123/2/5 118/2/5 122/2/5
f 125/2/5 121/2/5 120/2/5
f 125/2/5 122/2/5 121/2/5
f 126/1/5 124/1/5 123/1/5
f 126/2/5 122/2/5 125/2/5
f 126/1/5 123/1/5 122/1/5
f 127/1/5 124/1/5 126/1/5
f 128/1/5 124/1/5 127/1/5
f 129/2/5 128/2/5 127/2/5
f 130/1/5 124/1/5 128/1/5
f 130/2/5 128/2/5 129/2/5
f 131/1/5 124/1/5 130/1/5
f 132/1/6 133/1/6 136/1/6
f 133/2/6 134/2/6 136/2/6
f 134/1/6 135/1/6 137/1/6
f 136/2/6 134/2/6 137/2/6
f 137/1/6 135/1/6 138/1/6
f 132/1/6 136/1/6 141/1/6
f 136/1/6 137/1/6 141/1/6
f 137/1/6 138/1/6 141/1/6
f 138/2/6 139/2/6 142/2/6
f 141/1/6 138/1/6 142/1/6
f 139/1/6 140/1/6 143/1/6
f 143/1/6 140/1/6 144/1/6
f 144/1/6 140/1/6 145/1/6
f 142/2/6 139/2/6 149/2/6
f 139/1/6 143/1/6 150/1/6
f 149/2/6 139/2/6 150/2/6
f 143/2/6 144/2/6 151/2/6
f 150/1/6 143/1/6 151/1/6
f 144/1/6 145/1/6 152/1/6
f 151/2/6 144/2/6 152/2/6
f 145/1/6 146/1/6 152/1/6
f 152/1/6 146/1/6 153/1/6
f 153/1/6 146/1/6 154/1/6
f 146/2/6 147/2/6 155/2/6
f 154/1/6 146/1/6 155/1/6
f 147/1/6 148/1/6 156/1/6
f 155/2/6 147/2/6 156/2/6
f 156/1/6 148/1/6 157/1/6
f 153/1/6 154/1/6 159/1/6
f 154/2/6 155/2/6 160/2/6
f 159/1/6 154/1/6 160/1/6
f 157/1/6 158/1/6 161/1/6
f 160/2/6 155/2/6 161/2/6
f 156/1/6 157/1/6 161/1/6
f 155/1/6 156/1/6 161/1/6
f 161/1/6 158/1/6 162/1/6
f 162/1/6 158/1/6 163/1/6
f 163/1/6 158/1/6 164/1/6
f 162/1/6 163/1/6 165/1/6
f 163/2/6 164/2/6 166/2/6
f 165/1/6 163/1/6 166/1/6
f 164/1/6 158/1/6 167/1/6
f 166/2/6 164/2/6 167/2/6
f 167/1/6 158/1/6 168/1/6
