# MagicaVoxel @ Ephtracy

# group
o 

# material
mtllib Cailloux6.mtl
usemtl palette

# normals
vn -1 0 0
vn 1 0 0
vn 0 0 1
vn 0 0 -1
vn 0 -1 0
vn 0 1 0

# texcoords
vt 0.970703 0.5
vt 0.974609 0.5

# verts
v -0.9 0 0.4
v -0.9 0 0.2
v -0.9 0.1 0.4
v -0.9 0.1 0.2
v -0.6 0 -0.3
v -0.6 0 -0.5
v -0.6 0 -0.8
v -0.6 0 -0.9
v -0.6 0.1 -0.3
v -0.6 0.1 -0.5
v -0.6 0.1 -0.8
v -0.6 0.1 -0.9
v -0.5 0 0.9
v -0.5 0 0.8
v -0.5 0.1 0.9
v -0.5 0.1 0.8
v -0.2 0 -0.8
v -0.2 0 -0.9
v -0.2 0.1 -0.8
v -0.2 0.1 -0.9
v -0.1 0 0.7
v -0.1 0 0.6
v -0.1 0.1 0.7
v -0.1 0.1 0.6
v 0.2 0 0.3
v 0.2 0 0.2
v 0.2 0 -0.4
v 0.2 0 -0.5
v 0.2 0.1 0.3
v 0.2 0.1 0.2
v 0.2 0.1 -0.4
v 0.2 0.1 -0.5
v 0.3 0 -0.5
v 0.3 0 -0.6
v 0.3 0.1 -0.5
v 0.3 0.1 -0.6
v 0.5 0 -0.5
v 0.5 0 -0.6
v 0.5 0.1 -0.5
v 0.5 0.1 -0.6
v 0.7 0 0.6
v 0.7 0 0.4
v 0.7 0.1 0.6
v 0.7 0.1 0.4
v -0.7 0 0.4
v -0.7 0 0.2
v -0.7 0.1 0.4
v -0.7 0.1 0.2
v -0.5 0 -0.8
v -0.5 0 -0.9
v -0.5 0.1 -0.8
v -0.5 0.1 -0.9
v -0.4 0 -0.3
v -0.4 0 -0.5
v -0.4 0.1 -0.3
v -0.4 0.1 -0.5
v -0.3 0 0.9
v -0.3 0 0.8
v -0.3 0.1 0.9
v -0.3 0.1 0.8
v -0.1 0 -0.8
v -0.1 0 -0.9
v -0.1 0.1 -0.8
v -0.1 0.1 -0.9
v 0 0 0.7
v 0 0 0.6
v 0 0.1 0.7
v 0 0.1 0.6
v 0.3 0 0.3
v 0.3 0 0.2
v 0.3 0.1 0.3
v 0.3 0.1 0.2
v 0.4 0 -0.4
v 0.4 0 -0.6
v 0.4 0.1 -0.4
v 0.4 0.1 -0.6
v 0.6 0 -0.5
v 0.6 0 -0.6
v 0.6 0.1 -0.5
v 0.6 0.1 -0.6
v 0.8 0 0.6
v 0.8 0 0.4
v 0.8 0.1 0.6
v 0.8 0.1 0.4
v -0.5 0 0.9
v -0.5 0.1 0.9
v -0.3 0 0.9
v -0.3 0.1 0.9
v -0.1 0 0.7
v -0.1 0.1 0.7
v 0 0 0.7
v 0 0.1 0.7
v 0.7 0 0.6
v 0.7 0.1 0.6
v 0.8 0 0.6
v 0.8 0.1 0.6
v -0.9 0 0.4
v -0.9 0.1 0.4
v -0.7 0 0.4
v -0.7 0.1 0.4
v 0.2 0 0.3
v 0.2 0.1 0.3
v 0.3 0 0.3
v 0.3 0.1 0.3
v -0.6 0 -0.3
v -0.6 0.1 -0.3
v -0.4 0 -0.3
v -0.4 0.1 -0.3
v 0.2 0 -0.4
v 0.2 0.1 -0.4
v 0.4 0 -0.4
v 0.4 0.1 -0.4
v 0.5 0 -0.5
v 0.5 0.1 -0.5
v 0.6 0 -0.5
v 0.6 0.1 -0.5
v -0.6 0 -0.8
v -0.6 0.1 -0.8
v -0.5 0 -0.8
v -0.5 0.1 -0.8
v -0.2 0 -0.8
v -0.2 0.1 -0.8
v -0.1 0 -0.8
v -0.1 0.1 -0.8
v -0.5 0 0.8
v -0.5 0.1 0.8
v -0.3 0 0.8
v -0.3 0.1 0.8
v -0.1 0 0.6
v -0.1 0.1 0.6
v 0 0 0.6
v 0 0.1 0.6
v 0.7 0 0.4
v 0.7 0.1 0.4
v 0.8 0 0.4
v 0.8 0.1 0.4
v -0.9 0 0.2
v -0.9 0.1 0.2
v -0.7 0 0.2
v -0.7 0.1 0.2
v 0.2 0 0.2
v 0.2 0.1 0.2
v 0.3 0 0.2
v 0.3 0.1 0.2
v -0.6 0 -0.5
v -0.6 0.1 -0.5
v -0.4 0 -0.5
v -0.4 0.1 -0.5
v 0.2 0 -0.5
v 0.2 0.1 -0.5
v 0.3 0 -0.5
v 0.3 0.1 -0.5
v 0.3 0 -0.6
v 0.3 0.1 -0.6
v 0.4 0 -0.6
v 0.4 0.1 -0.6
v 0.5 0 -0.6
v 0.5 0.1 -0.6
v 0.6 0 -0.6
v 0.6 0.1 -0.6
v -0.6 0 -0.9
v -0.6 0.1 -0.9
v -0.5 0 -0.9
v -0.5 0.1 -0.9
v -0.2 0 -0.9
v -0.2 0.1 -0.9
v -0.1 0 -0.9
v -0.1 0.1 -0.9
v -0.5 0 0.9
v -0.3 0 0.9
v -0.5 0 0.8
v -0.3 0 0.8
v -0.1 0 0.7
v 0 0 0.7
v -0.1 0 0.6
v 0 0 0.6
v 0.7 0 0.6
v 0.8 0 0.6
v -0.9 0 0.4
v -0.7 0 0.4
v 0.7 0 0.4
v 0.8 0 0.4
v 0.2 0 0.3
v 0.3 0 0.3
v -0.9 0 0.2
v -0.7 0 0.2
v 0.2 0 0.2
v 0.3 0 0.2
v -0.6 0 -0.3
v -0.4 0 -0.3
v 0.2 0 -0.4
v 0.4 0 -0.4
v -0.6 0 -0.5
v -0.4 0 -0.5
v 0.2 0 -0.5
v 0.3 0 -0.5
v 0.5 0 -0.5
v 0.6 0 -0.5
v 0.3 0 -0.6
v 0.4 0 -0.6
v 0.5 0 -0.6
v 0.6 0 -0.6
v -0.6 0 -0.8
v -0.5 0 -0.8
v -0.2 0 -0.8
v -0.1 0 -0.8
v -0.6 0 -0.9
v -0.5 0 -0.9
v -0.2 0 -0.9
v -0.1 0 -0.9
v -0.5 0.1 0.9
v -0.3 0.1 0.9
v -0.5 0.1 0.8
v -0.3 0.1 0.8
v -0.1 0.1 0.7
v 0 0.1 0.7
v -0.1 0.1 0.6
v 0 0.1 0.6
v 0.7 0.1 0.6
v 0.8 0.1 0.6
v -0.9 0.1 0.4
v -0.7 0.1 0.4
v 0.7 0.1 0.4
v 0.8 0.1 0.4
v 0.2 0.1 0.3
v 0.3 0.1 0.3
v -0.9 0.1 0.2
v -0.7 0.1 0.2
v 0.2 0.1 0.2
v 0.3 0.1 0.2
v -0.6 0.1 -0.3
v -0.4 0.1 -0.3
v 0.2 0.1 -0.4
v 0.4 0.1 -0.4
v -0.6 0.1 -0.5
v -0.4 0.1 -0.5
v 0.2 0.1 -0.5
v 0.3 0.1 -0.5
v 0.5 0.1 -0.5
v 0.6 0.1 -0.5
v 0.3 0.1 -0.6
v 0.4 0.1 -0.6
v 0.5 0.1 -0.6
v 0.6 0.1 -0.6
v -0.6 0.1 -0.8
v -0.5 0.1 -0.8
v -0.2 0.1 -0.8
v -0.1 0.1 -0.8
v -0.6 0.1 -0.9
v -0.5 0.1 -0.9
v -0.2 0.1 -0.9
v -0.1 0.1 -0.9

# faces
f 3/2/1 2/2/1 1/2/1
f 4/2/1 2/2/1 3/2/1
f 9/1/1 6/1/1 5/1/1
f 10/1/1 6/1/1 9/1/1
f 11/1/1 8/1/1 7/1/1
f 12/1/1 8/1/1 11/1/1
f 15/1/1 14/1/1 13/1/1
f 16/1/1 14/1/1 15/1/1
f 19/2/1 18/2/1 17/2/1
f 20/2/1 18/2/1 19/2/1
f 23/1/1 22/1/1 21/1/1
f 24/1/1 22/1/1 23/1/1
f 29/2/1 26/2/1 25/2/1
f 30/2/1 26/2/1 29/2/1
f 31/1/1 28/1/1 27/1/1
f 32/1/1 28/1/1 31/1/1
f 35/1/1 34/1/1 33/1/1
f 36/1/1 34/1/1 35/1/1
f 39/1/1 38/1/1 37/1/1
f 40/1/1 38/1/1 39/1/1
f 43/1/1 42/1/1 41/1/1
f 44/1/1 42/1/1 43/1/1
f 45/2/2 46/2/2 47/2/2
f 47/2/2 46/2/2 48/2/2
f 49/1/2 50/1/2 51/1/2
f 51/1/2 50/1/2 52/1/2
f 53/1/2 54/1/2 55/1/2
f 55/1/2 54/1/2 56/1/2
f 57/1/2 58/1/2 59/1/2
f 59/1/2 58/1/2 60/1/2
f 61/2/2 62/2/2 63/2/2
f 63/2/2 62/2/2 64/2/2
f 65/1/2 66/1/2 67/1/2
f 67/1/2 66/1/2 68/1/2
f 69/2/2 70/2/2 71/2/2
f 71/2/2 70/2/2 72/2/2
f 73/1/2 74/1/2 75/1/2
f 75/1/2 74/1/2 76/1/2
f 77/1/2 78/1/2 79/1/2
f 79/1/2 78/1/2 80/1/2
f 81/1/2 82/1/2 83/1/2
f 83/1/2 82/1/2 84/1/2
f 87/1/3 86/1/3 85/1/3
f 88/1/3 86/1/3 87/1/3
f 91/1/3 90/1/3 89/1/3
f 92/1/3 90/1/3 91/1/3
f 95/1/3 94/1/3 93/1/3
f 96/1/3 94/1/3 95/1/3
f 99/2/3 98/2/3 97/2/3
f 100/2/3 98/2/3 99/2/3
f 103/2/3 102/2/3 101/2/3
f 104/2/3 102/2/3 103/2/3
f 107/1/3 106/1/3 105/1/3
f 108/1/3 106/1/3 107/1/3
f 111/1/3 110/1/3 109/1/3
f 112/1/3 110/1/3 111/1/3
f 115/1/3 114/1/3 113/1/3
f 116/1/3 114/1/3 115/1/3
f 119/1/3 118/1/3 117/1/3
f 120/1/3 118/1/3 119/1/3
f 123/2/3 122/2/3 121/2/3
f 124/2/3 122/2/3 123/2/3
f 125/1/4 126/1/4 127/1/4
f 127/1/4 126/1/4 128/1/4
f 129/1/4 130/1/4 131/1/4
f 131/1/4 130/1/4 132/1/4
f 133/1/4 134/1/4 135/1/4
f 135/1/4 134/1/4 136/1/4
f 137/2/4 138/2/4 139/2/4
f 139/2/4 138/2/4 140/2/4
f 141/2/4 142/2/4 143/2/4
f 143/2/4 142/2/4 144/2/4
f 145/1/4 146/1/4 147/1/4
f 147/1/4 146/1/4 148/1/4
f 149/1/4 150/1/4 151/1/4
f 151/1/4 150/1/4 152/1/4
f 153/1/4 154/1/4 155/1/4
f 155/1/4 154/1/4 156/1/4
f 157/1/4 158/1/4 159/1/4
f 159/1/4 158/1/4 160/1/4
f 161/1/4 162/1/4 163/1/4
f 163/1/4 162/1/4 164/1/4
f 165/2/4 166/2/4 167/2/4
f 167/2/4 166/2/4 168/2/4
f 171/1/5 170/1/5 169/1/5
f 172/1/5 170/1/5 171/1/5
f 175/1/5 174/1/5 173/1/5
f 176/1/5 174/1/5 175/1/5
f 181/1/5 178/1/5 177/1/5
f 182/1/5 178/1/5 181/1/5
f 185/2/5 180/2/5 179/2/5
f 186/2/5 180/2/5 185/2/5
f 187/2/5 184/2/5 183/2/5
f 188/2/5 184/2/5 187/2/5
f 193/1/5 190/1/5 189/1/5
f 194/1/5 190/1/5 193/1/5
f 195/1/5 192/1/5 191/1/5
f 196/1/5 192/1/5 195/1/5
f 199/1/5 192/1/5 196/1/5
f 200/1/5 192/1/5 199/1/5
f 201/1/5 198/1/5 197/1/5
f 202/1/5 198/1/5 201/1/5
f 207/1/5 204/1/5 203/1/5
f 208/1/5 204/1/5 207/1/5
f 209/2/5 206/2/5 205/2/5
f 210/2/5 206/2/5 209/2/5
f 211/1/6 212/1/6 213/1/6
f 213/1/6 212/1/6 214/1/6
f 215/1/6 216/1/6 217/1/6
f 217/1/6 216/1/6 218/1/6
f 219/1/6 220/1/6 223/1/6
f 223/1/6 220/1/6 224/1/6
f 221/2/6 222/2/6 227/2/6
f 227/2/6 222/2/6 228/2/6
f 225/2/6 226/2/6 229/2/6
f 229/2/6 226/2/6 230/2/6
f 231/1/6 232/1/6 235/1/6
f 235/1/6 232/1/6 236/1/6
f 233/1/6 234/1/6 237/1/6
f 237/1/6 234/1/6 238/1/6
f 238/1/6 234/1/6 241/1/6
f 241/1/6 234/1/6 242/1/6
f 239/1/6 240/1/6 243/1/6
f 243/1/6 240/1/6 244/1/6
f 245/1/6 246/1/6 249/1/6
f 249/1/6 246/1/6 250/1/6
f 247/2/6 248/2/6 251/2/6
f 251/2/6 248/2/6 252/2/6
