# MagicaVoxel @ Ephtracy

# group
o 

# material
mtllib Cailloux7.mtl
usemtl palette

# normals
vn -1 0 0
vn 1 0 0
vn 0 0 1
vn 0 0 -1
vn 0 -1 0
vn 0 1 0

# texcoords
vt 0.916016 0.5
vt 0.970703 0.5

# verts
v -0.7 0 0.5
v -0.7 0 0.2
v -0.7 0.2 0.5
v -0.7 0.2 0.2
v -0.6 0 -0.6
v -0.6 0 -0.8
v -0.6 0.2 -0.6
v -0.6 0.2 -0.8
v -0.5 0 -0.5
v -0.5 0 -0.6
v -0.5 0.1 -0.5
v -0.5 0.1 -0.6
v 0.1 0 -0.1
v 0.1 0 -0.3
v 0.1 0.1 -0.1
v 0.1 0.1 -0.3
v 0.2 0 -0.3
v 0.2 0 -0.4
v 0.2 0.1 -0.2
v 0.2 0.1 -0.3
v 0.2 0.2 -0.2
v 0.2 0.2 -0.4
v 0.5 0 0.7
v 0.5 0 0.6
v 0.5 0.1 0.7
v 0.5 0.1 0.6
v -0.4 0 0.5
v -0.4 0 0.4
v -0.4 0 -0.7
v -0.4 0 -0.8
v -0.4 0.1 0.4
v -0.4 0.1 0.2
v -0.4 0.1 -0.6
v -0.4 0.1 -0.7
v -0.4 0.2 0.5
v -0.4 0.2 0.2
v -0.4 0.2 -0.6
v -0.4 0.2 -0.8
v -0.3 0 0.4
v -0.3 0 0.2
v -0.3 0 -0.5
v -0.3 0 -0.7
v -0.3 0.1 0.4
v -0.3 0.1 0.2
v -0.3 0.1 -0.5
v -0.3 0.1 -0.7
v 0.3 0 -0.1
v 0.3 0 -0.2
v 0.3 0.1 -0.1
v 0.3 0.1 -0.2
v 0.4 0 -0.2
v 0.4 0 -0.4
v 0.4 0.2 -0.2
v 0.4 0.2 -0.4
v 0.7 0 0.7
v 0.7 0 0.6
v 0.7 0.1 0.7
v 0.7 0.1 0.6
v 0.5 0 0.7
v 0.5 0.1 0.7
v 0.7 0 0.7
v 0.7 0.1 0.7
v -0.7 0 0.5
v -0.7 0.2 0.5
v -0.4 0 0.5
v -0.4 0.2 0.5
v -0.4 0 0.4
v -0.4 0.1 0.4
v -0.3 0 0.4
v -0.3 0.1 0.4
v 0.1 0 -0.1
v 0.1 0.1 -0.1
v 0.3 0 -0.1
v 0.3 0.1 -0.1
v 0.2 0.1 -0.2
v 0.2 0.2 -0.2
v 0.3 0 -0.2
v 0.3 0.1 -0.2
v 0.4 0 -0.2
v 0.4 0.2 -0.2
v -0.5 0 -0.5
v -0.5 0.1 -0.5
v -0.3 0 -0.5
v -0.3 0.1 -0.5
v -0.6 0 -0.6
v -0.6 0.2 -0.6
v -0.5 0 -0.6
v -0.5 0.1 -0.6
v -0.4 0.1 -0.6
v -0.4 0.2 -0.6
v 0.5 0 0.6
v 0.5 0.1 0.6
v 0.7 0 0.6
v 0.7 0.1 0.6
v -0.7 0 0.2
v -0.7 0.2 0.2
v -0.4 0 0.2
v -0.4 0.1 0.2
v -0.4 0.2 0.2
v -0.3 0 0.2
v -0.3 0.1 0.2
v 0.1 0 -0.3
v 0.1 0.1 -0.3
v 0.2 0 -0.3
v 0.2 0.1 -0.3
v 0.2 0 -0.4
v 0.2 0.2 -0.4
v 0.4 0 -0.4
v 0.4 0.2 -0.4
v -0.4 0 -0.7
v -0.4 0.1 -0.7
v -0.3 0 -0.7
v -0.3 0.1 -0.7
v -0.6 0 -0.8
v -0.6 0.2 -0.8
v -0.4 0 -0.8
v -0.4 0.2 -0.8
v 0.5 0 0.7
v 0.7 0 0.7
v 0.5 0 0.6
v 0.7 0 0.6
v -0.7 0 0.5
v -0.4 0 0.5
v -0.4 0 0.4
v -0.3 0 0.4
v -0.7 0 0.2
v -0.4 0 0.2
v -0.3 0 0.2
v 0.1 0 -0.1
v 0.3 0 -0.1
v 0.3 0 -0.2
v 0.4 0 -0.2
v 0.1 0 -0.3
v 0.2 0 -0.3
v 0.3 0 -0.3
v 0.2 0 -0.4
v 0.4 0 -0.4
v -0.5 0 -0.5
v -0.3 0 -0.5
v -0.6 0 -0.6
v -0.5 0 -0.6
v -0.4 0 -0.7
v -0.3 0 -0.7
v -0.6 0 -0.8
v -0.4 0 -0.8
v 0.5 0.1 0.7
v 0.7 0.1 0.7
v 0.5 0.1 0.6
v 0.7 0.1 0.6
v -0.4 0.1 0.4
v -0.3 0.1 0.4
v -0.4 0.1 0.2
v -0.3 0.1 0.2
v 0.1 0.1 -0.1
v 0.3 0.1 -0.1
v 0.2 0.1 -0.2
v 0.3 0.1 -0.2
v 0.1 0.1 -0.3
v 0.2 0.1 -0.3
v -0.5 0.1 -0.5
v -0.3 0.1 -0.5
v -0.5 0.1 -0.6
v -0.4 0.1 -0.6
v -0.4 0.1 -0.7
v -0.3 0.1 -0.7
v -0.7 0.2 0.5
v -0.4 0.2 0.5
v -0.7 0.2 0.2
v -0.4 0.2 0.2
v 0.2 0.2 -0.2
v 0.4 0.2 -0.2
v 0.2 0.2 -0.4
v 0.4 0.2 -0.4
v -0.6 0.2 -0.6
v -0.4 0.2 -0.6
v -0.6 0.2 -0.8
v -0.4 0.2 -0.8

# faces
f 3/2/1 2/2/1 1/2/1
f 4/2/1 2/2/1 3/2/1
f 7/1/1 6/1/1 5/1/1
f 8/1/1 6/1/1 7/1/1
f 11/1/1 10/1/1 9/1/1
f 12/1/1 10/1/1 11/1/1
f 15/1/1 14/1/1 13/1/1
f 16/1/1 14/1/1 15/1/1
f 20/2/1 18/2/1 17/2/1
f 21/2/1 20/2/1 19/2/1
f 22/2/1 18/2/1 20/2/1
f 22/2/1 20/2/1 21/2/1
f 25/2/1 24/2/1 23/2/1
f 26/2/1 24/2/1 25/2/1
f 27/2/2 28/2/2 31/2/2
f 29/1/2 30/1/2 34/1/2
f 31/2/2 32/2/2 35/2/2
f 27/2/2 31/2/2 35/2/2
f 35/2/2 32/2/2 36/2/2
f 33/1/2 34/1/2 37/1/2
f 34/1/2 30/1/2 38/1/2
f 37/1/2 34/1/2 38/1/2
f 39/1/2 40/1/2 43/1/2
f 43/1/2 40/1/2 44/1/2
f 41/1/2 42/1/2 45/1/2
f 45/1/2 42/1/2 46/1/2
f 47/1/2 48/1/2 49/1/2
f 49/1/2 48/1/2 50/1/2
f 51/2/2 52/2/2 53/2/2
f 53/2/2 52/2/2 54/2/2
f 55/2/2 56/2/2 57/2/2
f 57/2/2 56/2/2 58/2/2
f 61/2/3 60/2/3 59/2/3
f 62/2/3 60/2/3 61/2/3
f 65/2/3 64/2/3 63/2/3
f 66/2/3 64/2/3 65/2/3
f 69/1/3 68/1/3 67/1/3
f 70/1/3 68/1/3 69/1/3
f 73/1/3 72/1/3 71/1/3
f 74/1/3 72/1/3 73/1/3
f 78/2/3 76/2/3 75/2/3
f 79/2/3 78/2/3 77/2/3
f 80/2/3 76/2/3 78/2/3
f 80/2/3 78/2/3 79/2/3
f 83/1/3 82/1/3 81/1/3
f 84/1/3 82/1/3 83/1/3
f 87/1/3 86/1/3 85/1/3
f 88/1/3 86/1/3 87/1/3
f 89/1/3 86/1/3 88/1/3
f 90/1/3 86/1/3 89/1/3
f 91/2/4 92/2/4 93/2/4
f 93/2/4 92/2/4 94/2/4
f 95/2/4 96/2/4 97/2/4
f 97/2/4 96/2/4 98/2/4
f 98/2/4 96/2/4 99/2/4
f 97/1/4 98/1/4 100/1/4
f 100/1/4 98/1/4 101/1/4
f 102/1/4 103/1/4 104/1/4
f 104/1/4 103/1/4 105/1/4
f 106/2/4 107/2/4 108/2/4
f 108/2/4 107/2/4 109/2/4
f 110/1/4 111/1/4 112/1/4
f 112/1/4 111/1/4 113/1/4
f 114/1/4 115/1/4 116/1/4
f 116/1/4 115/1/4 117/1/4
f 120/2/5 119/2/5 118/2/5
f 121/2/5 119/2/5 120/2/5
f 124/2/5 123/2/5 122/2/5
f 126/2/5 124/2/5 122/2/5
f 127/1/5 125/1/5 124/1/5
f 127/2/5 124/2/5 126/2/5
f 128/1/5 125/1/5 127/1/5
f 131/1/5 130/1/5 129/1/5
f 133/1/5 131/1/5 129/1/5
f 134/1/5 131/1/5 133/1/5
f 135/2/5 132/2/5 131/2/5
f 135/1/5 131/1/5 134/1/5
f 136/2/5 135/2/5 134/2/5
f 137/2/5 132/2/5 135/2/5
f 137/2/5 135/2/5 136/2/5
f 141/1/5 139/1/5 138/1/5
f 142/1/5 139/1/5 141/1/5
f 142/1/5 141/1/5 140/1/5
f 143/1/5 139/1/5 142/1/5
f 144/1/5 142/1/5 140/1/5
f 145/1/5 142/1/5 144/1/5
f 146/2/6 147/2/6 148/2/6
f 148/2/6 147/2/6 149/2/6
f 150/1/6 151/1/6 152/1/6
f 152/1/6 151/1/6 153/1/6
f 154/1/6 155/1/6 156/1/6
f 156/1/6 155/1/6 157/1/6
f 154/1/6 156/1/6 158/1/6
f 158/1/6 156/1/6 159/1/6
f 160/1/6 161/1/6 162/1/6
f 162/1/6 161/1/6 163/1/6
f 163/1/6 161/1/6 164/1/6
f 164/1/6 161/1/6 165/1/6
f 166/2/6 167/2/6 168/2/6
f 168/2/6 167/2/6 169/2/6
f 170/2/6 171/2/6 172/2/6
f 172/2/6 171/2/6 173/2/6
f 174/1/6 175/1/6 176/1/6
f 176/1/6 175/1/6 177/1/6
