# MagicaVoxel @ Ephtracy

# group
o 

# material
mtllib Cailloux8.mtl
usemtl palette

# normals
vn -1 0 0
vn 1 0 0
vn 0 0 1
vn 0 0 -1
vn 0 -1 0
vn 0 1 0

# texcoords
vt 0.916016 0.5
vt 0.919922 0.5
vt 0.970703 0.5

# verts
v -0.7 0 -0.6
v -0.7 0 -0.8
v -0.7 0.1 -0.6
v -0.7 0.1 -0.8
v -0.1 0 0.2
v -0.1 0 -0.1
v -0.1 0.2 0.2
v -0.1 0.2 -0.1
v 0 0 -0.1
v 0 0 -0.3
v 0 0.2 0.1
v 0 0.2 -0.1
v 0 0.3 0.1
v 0 0.3 -0.3
v 0.2 0 -0.3
v 0.2 0 -0.4
v 0.2 0.1 -0.3
v 0.2 0.1 -0.4
v 0.4 0 0.5
v 0.4 0 0.4
v 0.4 0.1 0.5
v 0.4 0.1 0.4
v -0.5 0 -0.6
v -0.5 0 -0.8
v -0.5 0.1 -0.6
v -0.5 0.1 -0.8
v 0.1 0 0.2
v 0.1 0 0.1
v 0.1 0.2 0.2
v 0.1 0.2 0.1
v 0.2 0 0.1
v 0.2 0 -0.2
v 0.2 0.1 -0.2
v 0.2 0.1 -0.3
v 0.2 0.3 0.1
v 0.2 0.3 -0.3
v 0.4 0 -0.2
v 0.4 0 -0.4
v 0.4 0.1 -0.2
v 0.4 0.1 -0.4
v 0.5 0 0.5
v 0.5 0 0.4
v 0.5 0.1 0.5
v 0.5 0.1 0.4
v 0.4 0 0.5
v 0.4 0.1 0.5
v 0.5 0 0.5
v 0.5 0.1 0.5
v -0.1 0 0.2
v -0.1 0.2 0.2
v 0.1 0 0.2
v 0.1 0.2 0.2
v 0 0.2 0.1
v 0 0.3 0.1
v 0.1 0 0.1
v 0.1 0.2 0.1
v 0.2 0 0.1
v 0.2 0.3 0.1
v 0.2 0 -0.2
v 0.2 0.1 -0.2
v 0.4 0 -0.2
v 0.4 0.1 -0.2
v -0.7 0 -0.6
v -0.7 0.1 -0.6
v -0.5 0 -0.6
v -0.5 0.1 -0.6
v 0.4 0 0.4
v 0.4 0.1 0.4
v 0.5 0 0.4
v 0.5 0.1 0.4
v -0.1 0 -0.1
v -0.1 0.2 -0.1
v 0 0 -0.1
v 0 0.2 -0.1
v 0 0 -0.3
v 0 0.3 -0.3
v 0.2 0 -0.3
v 0.2 0.1 -0.3
v 0.2 0.3 -0.3
v 0.2 0 -0.4
v 0.2 0.1 -0.4
v 0.4 0 -0.4
v 0.4 0.1 -0.4
v -0.7 0 -0.8
v -0.7 0.1 -0.8
v -0.5 0 -0.8
v -0.5 0.1 -0.8
v 0.4 0 0.5
v 0.5 0 0.5
v 0.4 0 0.4
v 0.5 0 0.4
v -0.1 0 0.2
v 0.1 0 0.2
v 0 0 0.1
v 0.1 0 0.1
v 0.2 0 0.1
v -0.1 0 -0.1
v 0 0 -0.1
v 0.2 0 -0.2
v 0.4 0 -0.2
v 0 0 -0.3
v 0.2 0 -0.3
v 0.2 0 -0.4
v 0.4 0 -0.4
v -0.7 0 -0.6
v -0.5 0 -0.6
v -0.7 0 -0.8
v -0.5 0 -0.8
v 0.4 0.1 0.5
v 0.5 0.1 0.5
v 0.4 0.1 0.4
v 0.5 0.1 0.4
v 0.2 0.1 -0.2
v 0.4 0.1 -0.2
v 0.2 0.1 -0.3
v 0.2 0.1 -0.4
v 0.4 0.1 -0.4
v -0.7 0.1 -0.6
v -0.5 0.1 -0.6
v -0.7 0.1 -0.8
v -0.5 0.1 -0.8
v -0.1 0.2 0.2
v 0.1 0.2 0.2
v 0 0.2 0.1
v 0.1 0.2 0.1
v -0.1 0.2 -0.1
v 0 0.2 -0.1
v 0 0.3 0.1
v 0.2 0.3 0.1
v 0 0.3 -0.3
v 0.2 0.3 -0.3

# faces
f 3/1/1 2/1/1 1/1/1
f 4/1/1 2/1/1 3/1/1
f 7/3/1 6/3/1 5/3/1
f 8/3/1 6/3/1 7/3/1
f 12/2/1 10/2/1 9/2/1
f 13/2/1 12/2/1 11/2/1
f 14/2/1 10/2/1 12/2/1
f 14/2/1 12/2/1 13/2/1
f 17/3/1 16/3/1 15/3/1
f 18/3/1 16/3/1 17/3/1
f 21/3/1 20/3/1 19/3/1
f 22/3/1 20/3/1 21/3/1
f 23/1/2 24/1/2 25/1/2
f 25/1/2 24/1/2 26/1/2
f 27/3/2 28/3/2 29/3/2
f 29/3/2 28/3/2 30/3/2
f 31/2/2 32/2/2 33/2/2
f 31/2/2 33/2/2 35/2/2
f 33/2/2 34/2/2 35/2/2
f 35/2/2 34/2/2 36/2/2
f 37/3/2 38/3/2 39/3/2
f 39/3/2 38/3/2 40/3/2
f 41/3/2 42/3/2 43/3/2
f 43/3/2 42/3/2 44/3/2
f 47/3/3 46/3/3 45/3/3
f 48/3/3 46/3/3 47/3/3
f 51/3/3 50/3/3 49/3/3
f 52/3/3 50/3/3 51/3/3
f 56/2/3 54/2/3 53/2/3
f 57/2/3 56/2/3 55/2/3
f 58/2/3 54/2/3 56/2/3
f 58/2/3 56/2/3 57/2/3
f 61/3/3 60/3/3 59/3/3
f 62/3/3 60/3/3 61/3/3
f 65/1/3 64/1/3 63/1/3
f 66/1/3 64/1/3 65/1/3
f 67/3/4 68/3/4 69/3/4
f 69/3/4 68/3/4 70/3/4
f 71/3/4 72/3/4 73/3/4
f 73/3/4 72/3/4 74/3/4
f 75/2/4 76/2/4 77/2/4
f 77/2/4 76/2/4 78/2/4
f 78/2/4 76/2/4 79/2/4
f 80/3/4 81/3/4 82/3/4
f 82/3/4 81/3/4 83/3/4
f 84/1/4 85/1/4 86/1/4
f 86/1/4 85/1/4 87/1/4
f 90/3/5 89/3/5 88/3/5
f 91/3/5 89/3/5 90/3/5
f 94/3/5 93/3/5 92/3/5
f 95/3/5 93/3/5 94/3/5
f 97/3/5 94/3/5 92/3/5
f 98/2/5 96/2/5 95/2/5
f 98/3/5 94/3/5 97/3/5
f 98/2/5 95/2/5 94/2/5
f 99/2/5 96/2/5 98/2/5
f 101/2/5 99/2/5 98/2/5
f 102/3/5 100/3/5 99/3/5
f 102/2/5 99/2/5 101/2/5
f 103/3/5 100/3/5 102/3/5
f 104/3/5 100/3/5 103/3/5
f 107/1/5 106/1/5 105/1/5
f 108/1/5 106/1/5 107/1/5
f 109/3/6 110/3/6 111/3/6
f 111/3/6 110/3/6 112/3/6
f 113/3/6 114/3/6 115/3/6
f 115/3/6 114/3/6 116/3/6
f 116/3/6 114/3/6 117/3/6
f 118/1/6 119/1/6 120/1/6
f 120/1/6 119/1/6 121/1/6
f 122/3/6 123/3/6 124/3/6
f 124/3/6 123/3/6 125/3/6
f 122/3/6 124/3/6 126/3/6
f 126/3/6 124/3/6 127/3/6
f 128/2/6 129/2/6 130/2/6
f 130/2/6 129/2/6 131/2/6
