# MagicaVoxel @ Ephtracy

# group
o 

# material
mtllib Cailloux5.mtl
usemtl palette

# normals
vn -1 0 0
vn 1 0 0
vn 0 0 1
vn 0 0 -1
vn 0 -1 0
vn 0 1 0

# texcoords
vt 0.970703 0.5
vt 0.974609 0.5

# verts
v -0.7 0 0.6
v -0.7 0 0.5
v -0.7 0.1 0.6
v -0.7 0.1 0.5
v -0.6 0 -0.5
v -0.6 0 -0.7
v -0.6 0.2 -0.5
v -0.6 0.2 -0.7
v 0.4 0 0.6
v 0.4 0 0.4
v 0.4 0.1 0.6
v 0.4 0.1 0.4
v 0.5 0 0.7
v 0.5 0 0.6
v 0.5 0.1 0.6
v 0.5 0.1 0.5
v 0.5 0.2 0.7
v 0.5 0.2 0.5
v -0.6 0 0.6
v -0.6 0 0.5
v -0.6 0.1 0.6
v -0.6 0.1 0.5
v -0.3 0 -0.5
v -0.3 0 -0.7
v -0.3 0.2 -0.5
v -0.3 0.2 -0.7
v 0.6 0 0.5
v 0.6 0 0.4
v 0.6 0.1 0.5
v 0.6 0.1 0.4
v 0.7 0 0.7
v 0.7 0 0.5
v 0.7 0.2 0.7
v 0.7 0.2 0.5
v 0.5 0 0.7
v 0.5 0.2 0.7
v 0.7 0 0.7
v 0.7 0.2 0.7
v -0.7 0 0.6
v -0.7 0.1 0.6
v -0.6 0 0.6
v -0.6 0.1 0.6
v 0.4 0 0.6
v 0.4 0.1 0.6
v 0.5 0 0.6
v 0.5 0.1 0.6
v -0.6 0 -0.5
v -0.6 0.2 -0.5
v -0.3 0 -0.5
v -0.3 0.2 -0.5
v -0.7 0 0.5
v -0.7 0.1 0.5
v -0.6 0 0.5
v -0.6 0.1 0.5
v 0.5 0.1 0.5
v 0.5 0.2 0.5
v 0.6 0 0.5
v 0.6 0.1 0.5
v 0.7 0 0.5
v 0.7 0.2 0.5
v 0.4 0 0.4
v 0.4 0.1 0.4
v 0.6 0 0.4
v 0.6 0.1 0.4
v -0.6 0 -0.7
v -0.6 0.2 -0.7
v -0.3 0 -0.7
v -0.3 0.2 -0.7
v 0.5 0 0.7
v 0.7 0 0.7
v -0.7 0 0.6
v -0.6 0 0.6
v 0.4 0 0.6
v 0.5 0 0.6
v -0.7 0 0.5
v -0.6 0 0.5
v 0.5 0 0.5
v 0.6 0 0.5
v 0.7 0 0.5
v 0.4 0 0.4
v 0.6 0 0.4
v -0.6 0 -0.5
v -0.3 0 -0.5
v -0.6 0 -0.7
v -0.3 0 -0.7
v -0.7 0.1 0.6
v -0.6 0.1 0.6
v 0.4 0.1 0.6
v 0.5 0.1 0.6
v -0.7 0.1 0.5
v -0.6 0.1 0.5
v 0.5 0.1 0.5
v 0.6 0.1 0.5
v 0.4 0.1 0.4
v 0.6 0.1 0.4
v 0.5 0.2 0.7
v 0.7 0.2 0.7
v 0.5 0.2 0.5
v 0.7 0.2 0.5
v -0.6 0.2 -0.5
v -0.3 0.2 -0.5
v -0.6 0.2 -0.7
v -0.3 0.2 -0.7

# faces
f 3/2/1 2/2/1 1/2/1
f 4/2/1 2/2/1 3/2/1
f 7/1/1 6/1/1 5/1/1
f 8/1/1 6/1/1 7/1/1
f 11/2/1 10/2/1 9/2/1
f 12/2/1 10/2/1 11/2/1
f 15/1/1 14/1/1 13/1/1
f 17/1/1 15/1/1 13/1/1
f 17/1/1 16/1/1 15/1/1
f 18/1/1 16/1/1 17/1/1
f 19/2/2 20/2/2 21/2/2
f 21/2/2 20/2/2 22/2/2
f 23/1/2 24/1/2 25/1/2
f 25/1/2 24/1/2 26/1/2
f 27/2/2 28/2/2 29/2/2
f 29/2/2 28/2/2 30/2/2
f 31/1/2 32/1/2 33/1/2
f 33/1/2 32/1/2 34/1/2
f 37/1/3 36/1/3 35/1/3
f 38/1/3 36/1/3 37/1/3
f 41/2/3 40/2/3 39/2/3
f 42/2/3 40/2/3 41/2/3
f 45/2/3 44/2/3 43/2/3
f 46/2/3 44/2/3 45/2/3
f 49/1/3 48/1/3 47/1/3
f 50/1/3 48/1/3 49/1/3
f 51/2/4 52/2/4 53/2/4
f 53/2/4 52/2/4 54/2/4
f 55/1/4 56/1/4 58/1/4
f 57/1/4 58/1/4 59/1/4
f 58/1/4 56/1/4 60/1/4
f 59/1/4 58/1/4 60/1/4
f 61/2/4 62/2/4 63/2/4
f 63/2/4 62/2/4 64/2/4
f 65/1/4 66/1/4 67/1/4
f 67/1/4 66/1/4 68/1/4
f 74/1/5 70/1/5 69/1/5
f 75/2/5 72/2/5 71/2/5
f 76/2/5 72/2/5 75/2/5
f 77/2/5 74/2/5 73/2/5
f 77/1/5 70/1/5 74/1/5
f 78/1/5 70/1/5 77/1/5
f 79/1/5 70/1/5 78/1/5
f 80/2/5 77/2/5 73/2/5
f 80/2/5 78/2/5 77/2/5
f 81/2/5 78/2/5 80/2/5
f 84/1/5 83/1/5 82/1/5
f 85/1/5 83/1/5 84/1/5
f 86/2/6 87/2/6 90/2/6
f 90/2/6 87/2/6 91/2/6
f 88/2/6 89/2/6 92/2/6
f 92/2/6 93/2/6 94/2/6
f 88/2/6 92/2/6 94/2/6
f 94/2/6 93/2/6 95/2/6
f 96/1/6 97/1/6 98/1/6
f 98/1/6 97/1/6 99/1/6
f 100/1/6 101/1/6 102/1/6
f 102/1/6 101/1/6 103/1/6
