# MagicaVoxel @ Ephtracy

# group
o 

# material
mtllib Gemme5.mtl
usemtl palette

# normals
vn -1 0 0
vn 1 0 0
vn 0 0 1
vn 0 0 -1
vn 0 -1 0
vn 0 1 0

# texcoords
vt 0.970703 0.5
vt 0.974609 0.5
vt 0.982422 0.5

# verts
v -0.7 0 0.2
v -0.7 0 0.1
v -0.7 0.1 0.2
v -0.7 0.1 0.1
v -0.5 0 0
v -0.5 0 -0.5
v -0.5 0.6 0
v -0.5 0.6 -0.5
v -0.3 0 0.6
v -0.3 0 0.4
v -0.3 0 0.3
v -0.3 0 0
v -0.3 0.1 0.6
v -0.3 0.1 0.4
v -0.3 0.5 0.3
v -0.3 0.5 0.2
v -0.3 0.6 0
v -0.3 0.6 -0.2
v -0.3 0.7 0.3
v -0.3 0.7 0.2
v -0.3 1 0.3
v -0.3 1 -0.2
v -0.2 0.6 -0.2
v -0.2 0.6 -0.3
v -0.2 0.9 -0.2
v -0.2 0.9 -0.3
v -0.1 0.9 0.4
v -0.1 0.9 0.3
v -0.1 1 0.3
v -0.1 1 0
v -0.1 1.1 0.4
v -0.1 1.1 0
v 0 0 0.4
v 0 0 0.3
v 0 0.2 0.4
v 0 0.2 0.3
v 0 1.1 0.3
v 0 1.1 0.1
v 0 1.2 0.3
v 0 1.2 0.1
v 0.1 0 -0.2
v 0.1 0 -0.3
v 0.1 0.2 -0.2
v 0.1 0.2 -0.3
v -0.6 0 0.2
v -0.6 0 0.1
v -0.6 0.1 0.2
v -0.6 0.1 0.1
v -0.1 0 0.6
v -0.1 0 0.4
v -0.1 0.1 0.6
v -0.1 0.1 0.4
v 0 0 -0.2
v 0 0 -0.5
v 0 0.6 -0.2
v 0 0.6 -0.3
v 0 0.6 -0.5
v 0.1 0.6 -0.2
v 0.1 0.6 -0.3
v 0.1 0.9 0.4
v 0.1 0.9 0.3
v 0.1 0.9 -0.2
v 0.1 0.9 -0.3
v 0.1 1 0.3
v 0.1 1 0.1
v 0.1 1 0
v 0.1 1.1 0.4
v 0.1 1.1 0.3
v 0.1 1.1 0.1
v 0.1 1.1 0
v 0.2 0 0.4
v 0.2 0 0.3
v 0.2 0 0.1
v 0.2 0.2 0.4
v 0.2 0.2 0.3
v 0.2 0.2 0.1
v 0.2 0.2 -0.2
v 0.2 1 0.3
v 0.2 1 0.1
v 0.2 1 -0.2
v 0.2 1.2 0.3
v 0.2 1.2 0.1
v 0.3 0 0.1
v 0.3 0 -0.3
v 0.3 0.2 0.1
v 0.3 0.2 -0.3
v -0.3 0 0.6
v -0.3 0.1 0.6
v -0.1 0 0.6
v -0.1 0.1 0.6
v -0.1 0.9 0.4
v -0.1 1.1 0.4
v 0 0 0.4
v 0 0.2 0.4
v 0.1 0.9 0.4
v 0.1 1.1 0.4
v 0.2 0 0.4
v 0.2 0.2 0.4
v -0.3 0 0.3
v -0.3 0.5 0.3
v -0.3 0.7 0.3
v -0.3 1 0.3
v -0.2 0.5 0.3
v -0.2 0.7 0.3
v -0.1 0.9 0.3
v -0.1 1 0.3
v 0 0 0.3
v 0 0.2 0.3
v 0 1.1 0.3
v 0 1.2 0.3
v 0.1 0.9 0.3
v 0.1 1 0.3
v 0.1 1.1 0.3
v 0.2 0.2 0.3
v 0.2 1 0.3
v 0.2 1.2 0.3
v -0.7 0 0.2
v -0.7 0.1 0.2
v -0.6 0 0.2
v -0.6 0.1 0.2
v 0.2 0 0.1
v 0.2 0.2 0.1
v 0.3 0 0.1
v 0.3 0.2 0.1
v -0.5 0 0
v -0.5 0.6 0
v -0.3 0 0
v -0.3 0.6 0
v -0.3 0 0.4
v -0.3 0.1 0.4
v -0.1 0 0.4
v -0.1 0.1 0.4
v -0.7 0 0.1
v -0.7 0.1 0.1
v -0.6 0 0.1
v -0.6 0.1 0.1
v 0 1.1 0.1
v 0 1.2 0.1
v 0.1 1 0.1
v 0.1 1.1 0.1
v 0.2 1 0.1
v 0.2 1.2 0.1
v -0.1 1 0
v -0.1 1.1 0
v 0.1 1 0
v 0.1 1.1 0
v -0.3 0.6 -0.2
v -0.3 1 -0.2
v -0.2 0.6 -0.2
v -0.2 0.9 -0.2
v 0 0 -0.2
v 0 0.6 -0.2
v 0.1 0 -0.2
v 0.1 0.2 -0.2
v 0.1 0.6 -0.2
v 0.1 0.9 -0.2
v 0.2 0.2 -0.2
v 0.2 1 -0.2
v -0.2 0.6 -0.3
v -0.2 0.9 -0.3
v 0 0.6 -0.3
v 0.1 0 -0.3
v 0.1 0.2 -0.3
v 0.1 0.6 -0.3
v 0.1 0.9 -0.3
v 0.3 0 -0.3
v 0.3 0.2 -0.3
v -0.5 0 -0.5
v -0.5 0.6 -0.5
v 0 0 -0.5
v 0 0.6 -0.5
v -0.3 0 0.6
v -0.1 0 0.6
v -0.3 0 0.4
v -0.1 0 0.4
v 0 0 0.4
v 0.2 0 0.4
v -0.3 0 0.3
v 0 0 0.3
v 0.2 0 0.3
v -0.7 0 0.2
v -0.6 0 0.2
v -0.7 0 0.1
v -0.6 0 0.1
v 0.2 0 0.1
v 0.3 0 0.1
v -0.5 0 0
v -0.3 0 0
v 0 0 -0.2
v 0.1 0 -0.2
v 0.2 0 -0.2
v 0.1 0 -0.3
v 0.3 0 -0.3
v -0.5 0 -0.5
v 0 0 -0.5
v 0 0.6 -0.2
v 0.1 0.6 -0.2
v 0 0.6 -0.3
v 0.1 0.6 -0.3
v -0.1 0.9 0.4
v 0.1 0.9 0.4
v -0.1 0.9 0.3
v 0.1 0.9 0.3
v -0.3 0.1 0.6
v -0.1 0.1 0.6
v -0.3 0.1 0.4
v -0.1 0.1 0.4
v -0.7 0.1 0.2
v -0.6 0.1 0.2
v -0.7 0.1 0.1
v -0.6 0.1 0.1
v 0 0.2 0.4
v 0.2 0.2 0.4
v 0 0.2 0.3
v 0.2 0.2 0.3
v 0.2 0.2 0.1
v 0.3 0.2 0.1
v 0.1 0.2 -0.2
v 0.2 0.2 -0.2
v 0.1 0.2 -0.3
v 0.3 0.2 -0.3
v -0.5 0.6 0
v -0.3 0.6 0
v -0.3 0.6 -0.2
v -0.2 0.6 -0.2
v -0.2 0.6 -0.3
v 0 0.6 -0.3
v -0.5 0.6 -0.5
v 0 0.6 -0.5
v -0.2 0.9 -0.2
v 0.1 0.9 -0.2
v -0.2 0.9 -0.3
v 0.1 0.9 -0.3
v -0.3 1 0.3
v -0.1 1 0.3
v 0.1 1 0.1
v 0.2 1 0.1
v -0.1 1 0
v 0.1 1 0
v -0.3 1 -0.2
v 0.2 1 -0.2
v -0.1 1.1 0.4
v 0.1 1.1 0.4
v 0 1.1 0.3
v 0.1 1.1 0.3
v 0 1.1 0.1
v 0.1 1.1 0.1
v -0.1 1.1 0
v 0.1 1.1 0
v 0 1.2 0.3
v 0.2 1.2 0.3
v 0 1.2 0.1
v 0.2 1.2 0.1

# faces
f 3/2/1 2/2/1 1/2/1
f 4/2/1 2/2/1 3/2/1
f 7/1/1 6/1/1 5/1/1
f 8/1/1 6/1/1 7/1/1
f 13/2/1 10/2/1 9/2/1
f 14/2/1 10/2/1 13/2/1
f 15/1/1 12/1/1 11/1/1
f 16/1/1 12/1/1 15/1/1
f 17/1/1 12/1/1 16/1/1
f 19/3/1 16/3/1 15/3/1
f 20/1/1 18/1/1 17/1/1
f 20/3/1 16/3/1 19/3/1
f 20/1/1 17/1/1 16/1/1
f 21/1/1 20/1/1 19/1/1
f 22/1/1 18/1/1 20/1/1
f 22/1/1 20/1/1 21/1/1
f 25/2/1 24/2/1 23/2/1
f 26/2/1 24/2/1 25/2/1
f 29/3/1 28/3/1 27/3/1
f 31/3/1 29/3/1 27/3/1
f 31/3/1 30/3/1 29/3/1
f 32/3/1 30/3/1 31/3/1
f 35/3/1 34/3/1 33/3/1
f 36/3/1 34/3/1 35/3/1
f 39/3/1 38/3/1 37/3/1
f 40/3/1 38/3/1 39/3/1
f 43/2/1 42/2/1 41/2/1
f 44/2/1 42/2/1 43/2/1
f 45/2/2 46/2/2 47/2/2
f 47/2/2 46/2/2 48/2/2
f 49/2/2 50/2/2 51/2/2
f 51/2/2 50/2/2 52/2/2
f 53/1/2 54/1/2 55/1/2
f 55/1/2 54/1/2 56/1/2
f 56/1/2 54/1/2 57/1/2
f 58/2/2 59/2/2 62/2/2
f 62/2/2 59/2/2 63/2/2
f 60/3/2 61/3/2 64/3/2
f 60/3/2 64/3/2 67/3/2
f 67/3/2 64/3/2 68/3/2
f 65/3/2 66/3/2 69/3/2
f 69/3/2 66/3/2 70/3/2
f 71/3/2 72/3/2 74/3/2
f 72/1/2 73/1/2 75/1/2
f 74/3/2 72/3/2 75/3/2
f 75/1/2 73/1/2 76/1/2
f 76/1/2 77/1/2 78/1/2
f 75/1/2 76/1/2 78/1/2
f 78/1/2 77/1/2 79/1/2
f 79/1/2 77/1/2 80/1/2
f 78/3/2 79/3/2 81/3/2
f 81/3/2 79/3/2 82/3/2
f 83/2/2 84/2/2 85/2/2
f 85/2/2 84/2/2 86/2/2
f 89/2/3 88/2/3 87/2/3
f 90/2/3 88/2/3 89/2/3
f 95/3/3 92/3/3 91/3/3
f 96/3/3 92/3/3 95/3/3
f 97/3/3 94/3/3 93/3/3
f 98/3/3 94/3/3 97/3/3
f 103/1/3 100/1/3 99/1/3
f 103/3/3 101/3/3 100/3/3
f 104/1/3 102/1/3 101/1/3
f 104/3/3 101/3/3 103/3/3
f 105/1/3 104/1/3 103/1/3
f 105/1/3 102/1/3 104/1/3
f 106/1/3 102/1/3 105/1/3
f 107/1/3 103/1/3 99/1/3
f 107/1/3 105/1/3 103/1/3
f 108/1/3 105/1/3 107/1/3
f 111/1/3 105/1/3 108/1/3
f 113/3/3 110/3/3 109/3/3
f 114/1/3 112/1/3 111/1/3
f 114/1/3 111/1/3 108/1/3
f 115/3/3 113/3/3 112/3/3
f 115/1/3 112/1/3 114/1/3
f 116/3/3 110/3/3 113/3/3
f 116/3/3 113/3/3 115/3/3
f 119/2/3 118/2/3 117/2/3
f 120/2/3 118/2/3 119/2/3
f 123/2/3 122/2/3 121/2/3
f 124/2/3 122/2/3 123/2/3
f 127/1/3 126/1/3 125/1/3
f 128/1/3 126/1/3 127/1/3
f 129/2/4 130/2/4 131/2/4
f 131/2/4 130/2/4 132/2/4
f 133/2/4 134/2/4 135/2/4
f 135/2/4 134/2/4 136/2/4
f 137/3/4 138/3/4 140/3/4
f 139/3/4 140/3/4 141/3/4
f 140/3/4 138/3/4 142/3/4
f 141/3/4 140/3/4 142/3/4
f 143/3/4 144/3/4 145/3/4
f 145/3/4 144/3/4 146/3/4
f 147/1/4 148/1/4 149/1/4
f 149/1/4 148/1/4 150/1/4
f 151/1/4 152/1/4 153/1/4
f 153/1/4 152/1/4 154/1/4
f 154/1/4 152/1/4 155/1/4
f 150/1/4 148/1/4 156/1/4
f 154/1/4 155/1/4 157/1/4
f 155/1/4 156/1/4 157/1/4
f 156/1/4 148/1/4 158/1/4
f 157/1/4 156/1/4 158/1/4
f 159/2/4 160/2/4 161/2/4
f 161/2/4 160/2/4 164/2/4
f 164/2/4 160/2/4 165/2/4
f 162/2/4 163/2/4 166/2/4
f 166/2/4 163/2/4 167/2/4
f 168/1/4 169/1/4 170/1/4
f 170/1/4 169/1/4 171/1/4
f 174/2/5 173/2/5 172/2/5
f 175/2/5 173/2/5 174/2/5
f 179/3/5 177/3/5 176/3/5
f 180/3/5 177/3/5 179/3/5
f 183/2/5 182/2/5 181/2/5
f 184/2/5 182/2/5 183/2/5
f 185/1/5 179/1/5 178/1/5
f 185/1/5 180/1/5 179/1/5
f 188/1/5 185/1/5 178/1/5
f 189/1/5 185/1/5 188/1/5
f 189/1/5 188/1/5 187/1/5
f 190/1/5 185/1/5 189/1/5
f 191/2/5 186/2/5 185/2/5
f 191/1/5 185/1/5 190/1/5
f 192/2/5 191/2/5 190/2/5
f 193/2/5 186/2/5 191/2/5
f 193/2/5 191/2/5 192/2/5
f 194/1/5 189/1/5 187/1/5
f 195/1/5 189/1/5 194/1/5
f 198/2/5 197/2/5 196/2/5
f 199/2/5 197/2/5 198/2/5
f 202/3/5 201/3/5 200/3/5
f 203/3/5 201/3/5 202/3/5
f 204/2/6 205/2/6 206/2/6
f 206/2/6 205/2/6 207/2/6
f 208/2/6 209/2/6 210/2/6
f 210/2/6 209/2/6 211/2/6
f 212/3/6 213/3/6 214/3/6
f 214/3/6 213/3/6 215/3/6
f 216/2/6 217/2/6 219/2/6
f 218/2/6 219/2/6 220/2/6
f 219/2/6 217/2/6 221/2/6
f 220/2/6 219/2/6 221/2/6
f 222/1/6 223/1/6 224/1/6
f 224/1/6 225/1/6 226/1/6
f 222/1/6 224/1/6 228/1/6
f 226/1/6 227/1/6 228/1/6
f 224/1/6 226/1/6 228/1/6
f 228/1/6 227/1/6 229/1/6
f 230/2/6 231/2/6 232/2/6
f 232/2/6 231/2/6 233/2/6
f 234/1/6 235/1/6 238/1/6
f 236/1/6 237/1/6 239/1/6
f 234/1/6 238/1/6 240/1/6
f 238/1/6 239/1/6 240/1/6
f 239/1/6 237/1/6 241/1/6
f 240/1/6 239/1/6 241/1/6
f 242/3/6 243/3/6 244/3/6
f 244/3/6 243/3/6 245/3/6
f 242/3/6 244/3/6 246/3/6
f 242/3/6 246/3/6 248/3/6
f 246/3/6 247/3/6 248/3/6
f 248/3/6 247/3/6 249/3/6
f 250/3/6 251/3/6 252/3/6
f 252/3/6 251/3/6 253/3/6
