# MagicaVoxel @ Ephtracy

# group
o 

# material
mtllib Gemme4.mtl
usemtl palette

# normals
vn -1 0 0
vn 1 0 0
vn 0 0 1
vn 0 0 -1
vn 0 -1 0
vn 0 1 0

# texcoords
vt 0.970703 0.5
vt 0.974609 0.5
vt 0.994141 0.5

# verts
v -0.6 0 0
v -0.6 0 -0.4
v -0.6 0.3 0
v -0.6 0.3 -0.4
v -0.5 0 -0.4
v -0.5 0 -0.7
v -0.5 0.2 -0.4
v -0.5 0.2 -0.7
v -0.4 0.2 -0.4
v -0.4 0.2 -0.6
v -0.4 0.3 -0.4
v -0.4 0.3 -0.6
v 0 0.1 -0.2
v 0 0.1 -0.4
v 0 0.2 -0.2
v 0 0.2 -0.4
v 0.3 0 0.5
v 0.3 0 0.2
v 0.3 0.1 0.5
v 0.3 0.1 0.4
v 0.3 0.1 0.2
v 0.3 0.3 0.4
v 0.3 0.3 0.2
v 0.6 0 -0.3
v 0.6 0 -0.4
v 0.6 0.1 -0.3
v 0.6 0.1 -0.4
v -0.4 0 0
v -0.4 0 -0.1
v -0.4 0.2 -0.1
v -0.4 0.2 -0.2
v -0.4 0.2 -0.4
v -0.4 0.3 0
v -0.4 0.3 -0.4
v -0.2 0.1 -0.2
v -0.2 0.1 -0.4
v -0.2 0.2 -0.2
v -0.2 0.2 -0.4
v 0 0.2 -0.4
v 0 0.2 -0.6
v 0 0.3 -0.4
v 0 0.3 -0.6
v 0.1 0 -0.1
v 0.1 0 -0.7
v 0.1 0.2 -0.1
v 0.1 0.2 -0.7
v 0.5 0.1 0.4
v 0.5 0.1 0.2
v 0.5 0.3 0.4
v 0.5 0.3 0.2
v 0.6 0 0.5
v 0.6 0 0.2
v 0.6 0.1 0.5
v 0.6 0.1 0.2
v 0.7 0 -0.3
v 0.7 0 -0.4
v 0.7 0.1 -0.3
v 0.7 0.1 -0.4
v 0.3 0 0.5
v 0.3 0.1 0.5
v 0.6 0 0.5
v 0.6 0.1 0.5
v 0.3 0.1 0.4
v 0.3 0.3 0.4
v 0.5 0.1 0.4
v 0.5 0.3 0.4
v -0.6 0 0
v -0.6 0.3 0
v -0.4 0 0
v -0.4 0.3 0
v -0.4 0 -0.1
v -0.4 0.2 -0.1
v 0.1 0 -0.1
v 0.1 0.2 -0.1
v 0.6 0 -0.3
v 0.6 0.1 -0.3
v 0.7 0 -0.3
v 0.7 0.1 -0.3
v -0.4 0.2 -0.4
v -0.4 0.3 -0.4
v -0.2 0.1 -0.4
v -0.2 0.2 -0.4
v 0 0.1 -0.4
v 0 0.2 -0.4
v 0 0.3 -0.4
v 0.3 0 0.2
v 0.3 0.1 0.2
v 0.3 0.3 0.2
v 0.5 0.1 0.2
v 0.5 0.3 0.2
v 0.6 0 0.2
v 0.6 0.1 0.2
v -0.2 0.1 -0.2
v -0.2 0.2 -0.2
v 0 0.1 -0.2
v 0 0.2 -0.2
v -0.6 0 -0.4
v -0.6 0.3 -0.4
v -0.5 0 -0.4
v -0.5 0.2 -0.4
v -0.4 0.2 -0.4
v -0.4 0.3 -0.4
v 0.6 0 -0.4
v 0.6 0.1 -0.4
v 0.7 0 -0.4
v 0.7 0.1 -0.4
v -0.4 0.2 -0.6
v -0.4 0.3 -0.6
v 0 0.2 -0.6
v 0 0.3 -0.6
v -0.5 0 -0.7
v -0.5 0.2 -0.7
v 0.1 0 -0.7
v 0.1 0.2 -0.7
v 0.3 0 0.5
v 0.6 0 0.5
v 0.3 0 0.2
v 0.6 0 0.2
v -0.6 0 0
v -0.4 0 0
v -0.5 0 -0.1
v -0.4 0 -0.1
v 0.1 0 -0.1
v 0.6 0 -0.3
v 0.7 0 -0.3
v -0.6 0 -0.4
v -0.5 0 -0.4
v 0.6 0 -0.4
v 0.7 0 -0.4
v -0.5 0 -0.7
v 0.1 0 -0.7
v 0.3 0.1 0.5
v 0.6 0.1 0.5
v 0.3 0.1 0.4
v 0.5 0.1 0.4
v 0.5 0.1 0.2
v 0.6 0.1 0.2
v -0.2 0.1 -0.2
v 0 0.1 -0.2
v 0.6 0.1 -0.3
v 0.7 0.1 -0.3
v -0.2 0.1 -0.4
v 0 0.1 -0.4
v 0.6 0.1 -0.4
v 0.7 0.1 -0.4
v -0.4 0.2 -0.1
v 0.1 0.2 -0.1
v -0.4 0.2 -0.2
v -0.2 0.2 -0.2
v 0 0.2 -0.2
v -0.5 0.2 -0.4
v -0.4 0.2 -0.4
v -0.2 0.2 -0.4
v 0 0.2 -0.4
v -0.4 0.2 -0.6
v 0 0.2 -0.6
v -0.5 0.2 -0.7
v 0.1 0.2 -0.7
v 0.3 0.3 0.4
v 0.5 0.3 0.4
v 0.3 0.3 0.2
v 0.5 0.3 0.2
v -0.6 0.3 0
v -0.4 0.3 0
v -0.6 0.3 -0.4
v -0.4 0.3 -0.4
v 0 0.3 -0.4
v -0.4 0.3 -0.6
v 0 0.3 -0.6

# faces
f 3/2/1 2/2/1 1/2/1
f 4/2/1 2/2/1 3/2/1
f 7/1/1 6/1/1 5/1/1
f 8/1/1 6/1/1 7/1/1
f 11/3/1 10/3/1 9/3/1
f 12/3/1 10/3/1 11/3/1
f 15/1/1 14/1/1 13/1/1
f 16/1/1 14/1/1 15/1/1
f 19/1/1 18/1/1 17/1/1
f 20/1/1 18/1/1 19/1/1
f 21/1/1 18/1/1 20/1/1
f 22/3/1 21/3/1 20/3/1
f 23/3/1 21/3/1 22/3/1
f 26/2/1 25/2/1 24/2/1
f 27/2/1 25/2/1 26/2/1
f 28/2/2 29/2/2 30/2/2
f 28/2/2 30/2/2 33/2/2
f 31/2/2 32/2/2 33/2/2
f 30/2/2 31/2/2 33/2/2
f 33/2/2 32/2/2 34/2/2
f 35/3/2 36/3/2 37/3/2
f 37/3/2 36/3/2 38/3/2
f 39/3/2 40/3/2 41/3/2
f 41/3/2 40/3/2 42/3/2
f 43/1/2 44/1/2 45/1/2
f 45/1/2 44/1/2 46/1/2
f 47/3/2 48/3/2 49/3/2
f 49/3/2 48/3/2 50/3/2
f 51/1/2 52/1/2 53/1/2
f 53/1/2 52/1/2 54/1/2
f 55/2/2 56/2/2 57/2/2
f 57/2/2 56/2/2 58/2/2
f 61/1/3 60/1/3 59/1/3
f 62/1/3 60/1/3 61/1/3
f 65/3/3 64/3/3 63/3/3
f 66/3/3 64/3/3 65/3/3
f 69/2/3 68/2/3 67/2/3
f 70/2/3 68/2/3 69/2/3
f 73/1/3 72/1/3 71/1/3
f 74/1/3 72/1/3 73/1/3
f 77/2/3 76/2/3 75/2/3
f 78/2/3 76/2/3 77/2/3
f 82/3/3 80/3/3 79/3/3
f 83/3/3 82/3/3 81/3/3
f 84/3/3 80/3/3 82/3/3
f 84/3/3 82/3/3 83/3/3
f 85/3/3 80/3/3 84/3/3
f 86/1/4 87/1/4 89/1/4
f 87/3/4 88/3/4 89/3/4
f 89/3/4 88/3/4 90/3/4
f 86/1/4 89/1/4 91/1/4
f 91/1/4 89/1/4 92/1/4
f 93/1/4 94/1/4 95/1/4
f 95/1/4 94/1/4 96/1/4
f 97/2/4 98/2/4 99/2/4
f 99/2/4 98/2/4 100/2/4
f 100/2/4 98/2/4 101/2/4
f 101/2/4 98/2/4 102/2/4
f 103/2/4 104/2/4 105/2/4
f 105/2/4 104/2/4 106/2/4
f 107/3/4 108/3/4 109/3/4
f 109/3/4 108/3/4 110/3/4
f 111/1/4 112/1/4 113/1/4
f 113/1/4 112/1/4 114/1/4
f 117/1/5 116/1/5 115/1/5
f 118/1/5 116/1/5 117/1/5
f 121/2/5 120/2/5 119/2/5
f 122/2/5 120/2/5 121/2/5
f 126/2/5 121/2/5 119/2/5
f 127/1/5 123/1/5 122/1/5
f 127/2/5 121/2/5 126/2/5
f 127/1/5 122/1/5 121/1/5
f 128/2/5 125/2/5 124/2/5
f 129/2/5 125/2/5 128/2/5
f 130/1/5 123/1/5 127/1/5
f 131/1/5 123/1/5 130/1/5
f 132/1/6 133/1/6 134/1/6
f 134/1/6 133/1/6 135/1/6
f 135/1/6 133/1/6 136/1/6
f 136/1/6 133/1/6 137/1/6
f 138/1/6 139/1/6 142/1/6
f 142/1/6 139/1/6 143/1/6
f 140/2/6 141/2/6 144/2/6
f 144/2/6 141/2/6 145/2/6
f 146/1/6 147/1/6 148/1/6
f 148/1/6 147/1/6 149/1/6
f 149/1/6 147/1/6 150/1/6
f 148/3/6 149/3/6 152/3/6
f 152/3/6 149/3/6 153/3/6
f 150/1/6 147/1/6 154/1/6
f 151/1/6 152/1/6 155/1/6
f 154/1/6 147/1/6 156/1/6
f 151/1/6 155/1/6 157/1/6
f 155/1/6 156/1/6 157/1/6
f 156/1/6 147/1/6 158/1/6
f 157/1/6 156/1/6 158/1/6
f 159/3/6 160/3/6 161/3/6
f 161/3/6 160/3/6 162/3/6
f 163/2/6 164/2/6 165/2/6
f 165/2/6 164/2/6 166/2/6
f 166/3/6 167/3/6 168/3/6
f 168/3/6 167/3/6 169/3/6
