# MagicaVoxel @ Ephtracy

# group
o 

# material
mtllib Gemme1.mtl
usemtl palette

# normals
vn -1 0 0
vn 1 0 0
vn 0 0 1
vn 0 0 -1
vn 0 -1 0
vn 0 1 0

# texcoords
vt 0.880859 0.5
vt 0.958984 0.5
vt 0.970703 0.5

# verts
v -0.7 0 0.2
v -0.7 0 -0.3
v -0.7 0.3 0.2
v -0.7 0.3 -0.3
v -0.6 0 0.3
v -0.6 0 0.2
v -0.6 0.3 0.2
v -0.6 0.5 0.3
v -0.6 0.5 0.2
v -0.5 0 -0.3
v -0.5 0 -0.4
v -0.5 0.2 -0.3
v -0.5 0.2 -0.4
v -0.5 0.3 0
v -0.5 0.3 -0.2
v -0.5 0.8 0
v -0.5 0.8 -0.2
v 0.3 0 0.6
v 0.3 0 0.3
v 0.3 0.1 0.6
v 0.3 0.1 0.4
v 0.3 0.1 0.3
v 0.3 0.3 0.4
v 0.3 0.3 0.3
v 0.5 0 0.1
v 0.5 0 -0.1
v 0.5 0.1 0.5
v 0.5 0.1 0.4
v 0.5 0.1 0.1
v 0.5 0.1 -0.1
v 0.5 0.2 0.5
v 0.5 0.2 0.4
v -0.5 0 0.3
v -0.5 0 0.2
v -0.5 0.3 0.2
v -0.5 0.5 0.3
v -0.5 0.5 0.2
v -0.3 0.3 0
v -0.3 0.3 -0.2
v -0.3 0.8 0
v -0.3 0.8 -0.2
v -0.2 0 0.2
v -0.2 0 0
v -0.2 0.2 0
v -0.2 0.2 -0.3
v -0.2 0.3 0.2
v -0.2 0.3 -0.3
v -0.1 0 0
v -0.1 0 -0.4
v -0.1 0.2 0
v -0.1 0.2 -0.4
v 0.4 0.1 0.4
v 0.4 0.1 0.3
v 0.4 0.3 0.4
v 0.4 0.3 0.3
v 0.6 0 0.6
v 0.6 0 0.3
v 0.6 0.1 0.6
v 0.6 0.1 0.5
v 0.6 0.1 0.4
v 0.6 0.1 0.3
v 0.6 0.2 0.5
v 0.6 0.2 0.4
v 0.7 0 0.1
v 0.7 0 -0.1
v 0.7 0.1 0.1
v 0.7 0.1 -0.1
v 0.3 0 0.6
v 0.3 0.1 0.6
v 0.6 0 0.6
v 0.6 0.1 0.6
v 0.5 0.1 0.5
v 0.5 0.2 0.5
v 0.6 0.1 0.5
v 0.6 0.2 0.5
v 0.3 0.1 0.4
v 0.3 0.3 0.4
v 0.4 0.1 0.4
v 0.4 0.3 0.4
v -0.6 0 0.3
v -0.6 0.5 0.3
v -0.5 0 0.3
v -0.5 0.5 0.3
v -0.7 0 0.2
v -0.7 0.3 0.2
v -0.6 0 0.2
v -0.6 0.3 0.2
v -0.5 0 0.2
v -0.5 0.3 0.2
v -0.2 0 0.2
v -0.2 0.3 0.2
v 0.5 0 0.1
v 0.5 0.1 0.1
v 0.7 0 0.1
v 0.7 0.1 0.1
v -0.5 0.3 0
v -0.5 0.8 0
v -0.3 0.3 0
v -0.3 0.8 0
v -0.2 0 0
v -0.2 0.2 0
v -0.1 0 0
v -0.1 0.2 0
v 0.5 0.1 0.4
v 0.5 0.2 0.4
v 0.6 0.1 0.4
v 0.6 0.2 0.4
v 0.3 0 0.3
v 0.3 0.1 0.3
v 0.3 0.3 0.3
v 0.4 0.1 0.3
v 0.4 0.3 0.3
v 0.6 0 0.3
v 0.6 0.1 0.3
v -0.6 0.3 0.2
v -0.6 0.5 0.2
v -0.5 0.3 0.2
v -0.5 0.5 0.2
v 0.5 0 -0.1
v 0.5 0.1 -0.1
v 0.7 0 -0.1
v 0.7 0.1 -0.1
v -0.5 0.3 -0.2
v -0.5 0.8 -0.2
v -0.3 0.3 -0.2
v -0.3 0.8 -0.2
v -0.7 0 -0.3
v -0.7 0.3 -0.3
v -0.5 0 -0.3
v -0.5 0.2 -0.3
v -0.2 0.2 -0.3
v -0.2 0.3 -0.3
v -0.5 0 -0.4
v -0.5 0.2 -0.4
v -0.1 0 -0.4
v -0.1 0.2 -0.4
v 0.3 0 0.6
v 0.6 0 0.6
v -0.6 0 0.3
v -0.5 0 0.3
v 0.3 0 0.3
v 0.6 0 0.3
v -0.7 0 0.2
v -0.6 0 0.2
v -0.5 0 0.2
v -0.2 0 0.2
v 0.5 0 0.1
v 0.7 0 0.1
v -0.5 0 0
v -0.2 0 0
v -0.1 0 0
v 0.5 0 -0.1
v 0.7 0 -0.1
v -0.7 0 -0.3
v -0.5 0 -0.3
v -0.5 0 -0.4
v -0.1 0 -0.4
v 0.3 0.1 0.6
v 0.6 0.1 0.6
v 0.5 0.1 0.5
v 0.6 0.1 0.5
v 0.3 0.1 0.4
v 0.4 0.1 0.4
v 0.5 0.1 0.4
v 0.6 0.1 0.4
v 0.4 0.1 0.3
v 0.6 0.1 0.3
v 0.5 0.1 0.1
v 0.7 0.1 0.1
v 0.5 0.1 -0.1
v 0.7 0.1 -0.1
v 0.5 0.2 0.5
v 0.6 0.2 0.5
v 0.5 0.2 0.4
v 0.6 0.2 0.4
v -0.2 0.2 0
v -0.1 0.2 0
v -0.5 0.2 -0.3
v -0.2 0.2 -0.3
v -0.5 0.2 -0.4
v -0.1 0.2 -0.4
v 0.3 0.3 0.4
v 0.4 0.3 0.4
v 0.3 0.3 0.3
v 0.4 0.3 0.3
v -0.7 0.3 0.2
v -0.6 0.3 0.2
v -0.5 0.3 0.2
v -0.2 0.3 0.2
v -0.5 0.3 0
v -0.3 0.3 0
v -0.5 0.3 -0.2
v -0.3 0.3 -0.2
v -0.7 0.3 -0.3
v -0.2 0.3 -0.3
v -0.6 0.5 0.3
v -0.5 0.5 0.3
v -0.6 0.5 0.2
v -0.5 0.5 0.2
v -0.5 0.8 0
v -0.3 0.8 0
v -0.5 0.8 -0.2
v -0.3 0.8 -0.2

# faces
f 3/3/1 2/3/1 1/3/1
f 4/3/1 2/3/1 3/3/1
f 7/1/1 6/1/1 5/1/1
f 8/1/1 7/1/1 5/1/1
f 9/1/1 7/1/1 8/1/1
f 12/2/1 11/2/1 10/2/1
f 13/2/1 11/2/1 12/2/1
f 16/1/1 15/1/1 14/1/1
f 17/1/1 15/1/1 16/1/1
f 20/3/1 19/3/1 18/3/1
f 21/3/1 19/3/1 20/3/1
f 22/3/1 19/3/1 21/3/1
f 23/1/1 22/1/1 21/1/1
f 24/1/1 22/1/1 23/1/1
f 29/3/1 26/3/1 25/3/1
f 30/3/1 26/3/1 29/3/1
f 31/1/1 28/1/1 27/1/1
f 32/1/1 28/1/1 31/1/1
f 33/1/2 34/1/2 35/1/2
f 33/1/2 35/1/2 36/1/2
f 36/1/2 35/1/2 37/1/2
f 38/1/2 39/1/2 40/1/2
f 40/1/2 39/1/2 41/1/2
f 42/3/2 43/3/2 44/3/2
f 42/3/2 44/3/2 46/3/2
f 44/3/2 45/3/2 46/3/2
f 46/3/2 45/3/2 47/3/2
f 48/2/2 49/2/2 50/2/2
f 50/2/2 49/2/2 51/2/2
f 52/1/2 53/1/2 54/1/2
f 54/1/2 53/1/2 55/1/2
f 56/3/2 57/3/2 58/3/2
f 58/3/2 57/3/2 59/3/2
f 59/3/2 57/3/2 60/3/2
f 60/3/2 57/3/2 61/3/2
f 59/1/2 60/1/2 62/1/2
f 62/1/2 60/1/2 63/1/2
f 64/3/2 65/3/2 66/3/2
f 66/3/2 65/3/2 67/3/2
f 70/3/3 69/3/3 68/3/3
f 71/3/3 69/3/3 70/3/3
f 74/1/3 73/1/3 72/1/3
f 75/1/3 73/1/3 74/1/3
f 78/1/3 77/1/3 76/1/3
f 79/1/3 77/1/3 78/1/3
f 82/1/3 81/1/3 80/1/3
f 83/1/3 81/1/3 82/1/3
f 86/3/3 85/3/3 84/3/3
f 87/3/3 85/3/3 86/3/3
f 90/3/3 89/3/3 88/3/3
f 91/3/3 89/3/3 90/3/3
f 94/3/3 93/3/3 92/3/3
f 95/3/3 93/3/3 94/3/3
f 98/1/3 97/1/3 96/1/3
f 99/1/3 97/1/3 98/1/3
f 102/2/3 101/2/3 100/2/3
f 103/2/3 101/2/3 102/2/3
f 104/1/4 105/1/4 106/1/4
f 106/1/4 105/1/4 107/1/4
f 108/3/4 109/3/4 111/3/4
f 109/1/4 110/1/4 111/1/4
f 111/1/4 110/1/4 112/1/4
f 108/3/4 111/3/4 113/3/4
f 113/3/4 111/3/4 114/3/4
f 115/1/4 116/1/4 117/1/4
f 117/1/4 116/1/4 118/1/4
f 119/3/4 120/3/4 121/3/4
f 121/3/4 120/3/4 122/3/4
f 123/1/4 124/1/4 125/1/4
f 125/1/4 124/1/4 126/1/4
f 127/3/4 128/3/4 129/3/4
f 129/3/4 128/3/4 130/3/4
f 130/3/4 128/3/4 131/3/4
f 131/3/4 128/3/4 132/3/4
f 133/2/4 134/2/4 135/2/4
f 135/2/4 134/2/4 136/2/4
f 141/3/5 138/3/5 137/3/5
f 142/3/5 138/3/5 141/3/5
f 144/1/5 140/1/5 139/1/5
f 145/1/5 140/1/5 144/1/5
f 149/3/5 146/3/5 145/3/5
f 149/3/5 144/3/5 143/3/5
f 149/3/5 145/3/5 144/3/5
f 150/3/5 146/3/5 149/3/5
f 152/3/5 148/3/5 147/3/5
f 153/3/5 148/3/5 152/3/5
f 154/3/5 149/3/5 143/3/5
f 155/2/5 151/2/5 150/2/5
f 155/3/5 149/3/5 154/3/5
f 155/2/5 150/2/5 149/2/5
f 156/2/5 151/2/5 155/2/5
f 157/2/5 151/2/5 156/2/5
f 158/3/6 159/3/6 160/3/6
f 160/3/6 159/3/6 161/3/6
f 158/3/6 160/3/6 162/3/6
f 162/3/6 160/3/6 163/3/6
f 163/3/6 160/3/6 164/3/6
f 164/3/6 165/3/6 166/3/6
f 163/3/6 164/3/6 166/3/6
f 166/3/6 165/3/6 167/3/6
f 168/3/6 169/3/6 170/3/6
f 170/3/6 169/3/6 171/3/6
f 172/1/6 173/1/6 174/1/6
f 174/1/6 173/1/6 175/1/6
f 176/2/6 177/2/6 179/2/6
f 178/2/6 179/2/6 180/2/6
f 179/2/6 177/2/6 181/2/6
f 180/2/6 179/2/6 181/2/6
f 182/1/6 183/1/6 184/1/6
f 184/1/6 183/1/6 185/1/6
f 186/3/6 187/3/6 190/3/6
f 188/3/6 189/3/6 190/3/6
f 187/3/6 188/3/6 190/3/6
f 190/3/6 189/3/6 191/3/6
f 186/3/6 190/3/6 192/3/6
f 191/3/6 189/3/6 193/3/6
f 186/3/6 192/3/6 194/3/6
f 192/3/6 193/3/6 194/3/6
f 193/3/6 189/3/6 195/3/6
f 194/3/6 193/3/6 195/3/6
f 196/1/6 197/1/6 198/1/6
f 198/1/6 197/1/6 199/1/6
f 200/1/6 201/1/6 202/1/6
f 202/1/6 201/1/6 203/1/6
