# MagicaVoxel @ Ephtracy

# group
o 

# material
mtllib Gemme2.mtl
usemtl palette

# normals
vn -1 0 0
vn 1 0 0
vn 0 0 1
vn 0 0 -1
vn 0 -1 0
vn 0 1 0

# texcoords
vt 0.931641 0.5
vt 0.962891 0.5
vt 0.970703 0.5
vt 0.974609 0.5

# verts
v -0.7 0 -0.2
v -0.7 0 -0.5
v -0.7 0.1 -0.2
v -0.7 0.1 -0.5
v -0.6 0 0.1
v -0.6 0 -0.2
v -0.6 0.1 -0.2
v -0.6 0.1 -0.4
v -0.6 0.5 0.1
v -0.6 0.5 -0.4
v -0.5 0 0.3
v -0.5 0 0.1
v -0.5 0.3 0.3
v -0.5 0.3 0.1
v 0.4 0 -0.3
v 0.4 0 -0.5
v 0.4 0.3 -0.3
v 0.4 0.3 -0.5
v 0.5 0 0.1
v 0.5 0 -2.98023e-08
v 0.5 0.2 -0.2
v 0.5 0.2 -0.3
v 0.5 0.3 -2.98023e-08
v 0.5 0.3 -0.2
v 0.5 0.3 -0.3
v 0.5 0.3 -0.4
v 0.5 0.4 -2.98023e-08
v 0.5 0.4 -0.3
v 0.5 0.5 0.1
v 0.5 0.5 -0.4
v 0.6 0 -2.98023e-08
v 0.6 0 -0.3
v 0.6 0.2 -0.2
v 0.6 0.2 -0.3
v 0.6 0.3 -2.98023e-08
v 0.6 0.3 -0.2
v -0.4 0 -0.1
v -0.4 0 -0.2
v -0.4 0 -0.4
v -0.4 0 -0.5
v -0.4 0.1 -0.4
v -0.4 0.1 -0.5
v -0.4 0.3 -0.1
v -0.4 0.3 -0.2
v -0.2 0 0.3
v -0.2 0 0.1
v -0.2 0 -2.98023e-08
v -0.2 0 -0.1
v -0.2 0 -0.2
v -0.2 0 -0.3
v -0.2 0.1 -0.2
v -0.2 0.1 -0.3
v -0.2 0.2 -2.98023e-08
v -0.2 0.2 -0.1
v -0.2 0.3 0.3
v -0.2 0.3 0.1
v -0.2 0.3 -0.1
v -0.2 0.3 -0.2
v -0.2 0.3 -0.3
v -0.2 0.4 -0.1
v -0.2 0.4 -0.3
v -0.1 0 0.1
v -0.1 0 -2.98023e-08
v -0.1 0 -0.3
v -0.1 0 -0.4
v -0.1 0.2 -2.98023e-08
v -0.1 0.2 -0.1
v -0.1 0.4 -2.98023e-08
v -0.1 0.4 -0.1
v -0.1 0.4 -0.3
v -0.1 0.5 0.1
v -0.1 0.5 -0.4
v 0.7 0 -0.4
v 0.7 0 -0.5
v 0.7 0.3 -0.4
v 0.7 0.3 -0.5
v 0.8 0 0.1
v 0.8 0 -0.4
v 0.8 0.5 0.1
v 0.8 0.5 -0.4
v -0.5 0 0.3
v -0.5 0.3 0.3
v -0.2 0 0.3
v -0.2 0.3 0.3
v -0.6 0 0.1
v -0.6 0.5 0.1
v -0.5 0 0.1
v -0.5 0.3 0.1
v -0.2 0 0.1
v -0.2 0.3 0.1
v -0.1 0 0.1
v -0.1 0.5 0.1
v 0.5 0 0.1
v 0.5 0.5 0.1
v 0.8 0 0.1
v 0.8 0.5 0.1
v -0.7 0 -0.2
v -0.7 0.1 -0.2
v -0.6 0 -0.2
v -0.6 0.1 -0.2
v -0.4 0 -0.2
v -0.4 0.3 -0.2
v -0.3 0 -0.2
v -0.3 0.1 -0.2
v -0.3 0.3 -0.2
v -0.2 0 -0.2
v -0.2 0.1 -0.2
v -0.2 0.3 -0.2
v 0.5 0.2 -0.2
v 0.5 0.3 -0.2
v 0.6 0.2 -0.2
v 0.6 0.3 -0.2
v -0.2 0 -0.3
v -0.2 0.1 -0.3
v -0.2 0.3 -0.3
v -0.2 0.4 -0.3
v -0.1 0 -0.3
v -0.1 0.4 -0.3
v 0.4 0 -0.3
v 0.4 0.3 -0.3
v 0.5 0 -0.3
v 0.5 0.2 -0.3
v 0.5 0.3 -0.3
v 0.6 0 -0.3
v 0.6 0.2 -0.3
v -0.2 0 -2.98023e-08
v -0.2 0.2 -2.98023e-08
v -0.1 0 -2.98023e-08
v -0.1 0.2 -2.98023e-08
v 0.5 0 -2.98023e-08
v 0.5 0.3 -2.98023e-08
v 0.6 0 -2.98023e-08
v 0.6 0.3 -2.98023e-08
v -0.4 0 -0.1
v -0.4 0.3 -0.1
v -0.3 0.3 -0.1
v -0.2 0 -0.1
v -0.2 0.2 -0.1
v -0.2 0.3 -0.1
v -0.2 0.4 -0.1
v -0.1 0.2 -0.1
v -0.1 0.4 -0.1
v -0.6 0.1 -0.4
v -0.6 0.5 -0.4
v -0.4 0 -0.4
v -0.4 0.1 -0.4
v -0.1 0 -0.4
v -0.1 0.5 -0.4
v 0.5 0.3 -0.4
v 0.5 0.5 -0.4
v 0.7 0 -0.4
v 0.7 0.3 -0.4
v 0.8 0 -0.4
v 0.8 0.5 -0.4
v -0.7 0 -0.5
v -0.7 0.1 -0.5
v -0.4 0 -0.5
v -0.4 0.1 -0.5
v 0.4 0 -0.5
v 0.4 0.3 -0.5
v 0.7 0 -0.5
v 0.7 0.3 -0.5
v -0.5 0 0.3
v -0.2 0 0.3
v -0.6 0 0.1
v -0.5 0 0.1
v -0.2 0 0.1
v -0.1 0 0.1
v 0.5 0 0.1
v 0.8 0 0.1
v -0.5 0 -2.98023e-08
v -0.2 0 -2.98023e-08
v -0.1 0 -2.98023e-08
v 0.5 0 -2.98023e-08
v 0.6 0 -2.98023e-08
v 0.7 0 -2.98023e-08
v -0.4 0 -0.1
v -0.2 0 -0.1
v -0.7 0 -0.2
v -0.6 0 -0.2
v -0.4 0 -0.2
v -0.3 0 -0.2
v -0.2 0 -0.2
v -0.5 0 -0.3
v -0.3 0 -0.3
v -0.2 0 -0.3
v -0.1 0 -0.3
v 0.4 0 -0.3
v 0.5 0 -0.3
v 0.6 0 -0.3
v 0.7 0 -0.3
v -0.6 0 -0.4
v -0.4 0 -0.4
v -0.1 0 -0.4
v 0.5 0 -0.4
v 0.7 0 -0.4
v 0.8 0 -0.4
v -0.7 0 -0.5
v -0.4 0 -0.5
v 0.4 0 -0.5
v 0.7 0 -0.5
v -0.2 0.2 -2.98023e-08
v -0.1 0.2 -2.98023e-08
v -0.2 0.2 -0.1
v -0.1 0.2 -0.1
v 0.5 0.2 -0.2
v 0.6 0.2 -0.2
v 0.5 0.2 -0.3
v 0.6 0.2 -0.3
v 0.5 0.3 -2.98023e-08
v 0.6 0.3 -2.98023e-08
v -0.4 0.3 -0.1
v -0.3 0.3 -0.1
v -0.2 0.3 -0.1
v -0.4 0.3 -0.2
v -0.3 0.3 -0.2
v -0.2 0.3 -0.2
v 0.5 0.3 -0.2
v 0.6 0.3 -0.2
v -0.2 0.4 -0.1
v -0.1 0.4 -0.1
v -0.2 0.4 -0.3
v -0.1 0.4 -0.3
v -0.7 0.1 -0.2
v -0.6 0.1 -0.2
v -0.6 0.1 -0.4
v -0.4 0.1 -0.4
v -0.7 0.1 -0.5
v -0.4 0.1 -0.5
v -0.5 0.3 0.3
v -0.2 0.3 0.3
v -0.5 0.3 0.1
v -0.2 0.3 0.1
v 0.4 0.3 -0.3
v 0.5 0.3 -0.3
v 0.5 0.3 -0.4
v 0.7 0.3 -0.4
v 0.4 0.3 -0.5
v 0.7 0.3 -0.5
v -0.6 0.5 0.1
v -0.1 0.5 0.1
v 0.5 0.5 0.1
v 0.8 0.5 0.1
v -0.6 0.5 -0.4
v -0.1 0.5 -0.4
v 0.5 0.5 -0.4
v 0.8 0.5 -0.4

# faces
f 3/4/1 2/4/1 1/4/1
f 4/4/1 2/4/1 3/4/1
f 7/3/1 6/3/1 5/3/1
f 9/3/1 7/3/1 5/3/1
f 9/3/1 8/3/1 7/3/1
f 10/3/1 8/3/1 9/3/1
f 13/4/1 12/4/1 11/4/1
f 14/4/1 12/4/1 13/4/1
f 17/4/1 16/4/1 15/4/1
f 18/4/1 16/4/1 17/4/1
f 23/3/1 20/3/1 19/3/1
f 24/2/1 22/2/1 21/2/1
f 25/2/1 22/2/1 24/2/1
f 27/3/1 23/3/1 19/3/1
f 27/2/1 24/2/1 23/2/1
f 27/2/1 25/2/1 24/2/1
f 28/3/1 26/3/1 25/3/1
f 28/2/1 25/2/1 27/2/1
f 29/3/1 27/3/1 19/3/1
f 29/3/1 28/3/1 27/3/1
f 30/3/1 26/3/1 28/3/1
f 30/3/1 28/3/1 29/3/1
f 33/1/1 32/1/1 31/1/1
f 34/1/1 32/1/1 33/1/1
f 35/1/1 33/1/1 31/1/1
f 36/1/1 33/1/1 35/1/1
f 39/4/2 40/4/2 41/4/2
f 41/4/2 40/4/2 42/4/2
f 37/1/2 38/1/2 43/1/2
f 43/1/2 38/1/2 44/1/2
f 49/2/2 50/2/2 51/2/2
f 51/2/2 50/2/2 52/2/2
f 47/1/2 48/1/2 53/1/2
f 53/1/2 48/1/2 54/1/2
f 45/4/2 46/4/2 55/4/2
f 55/4/2 46/4/2 56/4/2
f 51/1/2 52/1/2 58/1/2
f 58/1/2 52/1/2 59/1/2
f 57/2/2 58/2/2 60/2/2
f 58/2/2 59/2/2 60/2/2
f 60/2/2 59/2/2 61/2/2
f 62/3/2 63/3/2 66/3/2
f 62/3/2 66/3/2 68/3/2
f 66/2/2 67/2/2 68/2/2
f 68/2/2 67/2/2 69/2/2
f 64/3/2 65/3/2 70/3/2
f 68/3/2 69/3/2 71/3/2
f 69/3/2 70/3/2 71/3/2
f 62/3/2 68/3/2 71/3/2
f 70/3/2 65/3/2 72/3/2
f 71/3/2 70/3/2 72/3/2
f 73/4/2 74/4/2 75/4/2
f 75/4/2 74/4/2 76/4/2
f 77/3/2 78/3/2 79/3/2
f 79/3/2 78/3/2 80/3/2
f 83/4/3 82/4/3 81/4/3
f 84/4/3 82/4/3 83/4/3
f 87/3/3 86/3/3 85/3/3
f 88/3/3 86/3/3 87/3/3
f 90/3/3 86/3/3 88/3/3
f 91/3/3 90/3/3 89/3/3
f 92/3/3 86/3/3 90/3/3
f 92/3/3 90/3/3 91/3/3
f 95/3/3 94/3/3 93/3/3
f 96/3/3 94/3/3 95/3/3
f 99/4/3 98/4/3 97/4/3
f 100/4/3 98/4/3 99/4/3
f 103/1/3 102/1/3 101/1/3
f 104/1/3 102/1/3 103/1/3
f 105/1/3 102/1/3 104/1/3
f 106/2/3 104/2/3 103/2/3
f 107/1/3 105/1/3 104/1/3
f 107/2/3 104/2/3 106/2/3
f 108/1/3 105/1/3 107/1/3
f 111/2/3 110/2/3 109/2/3
f 112/2/3 110/2/3 111/2/3
f 117/3/3 114/3/3 113/3/3
f 117/3/3 116/3/3 115/3/3
f 117/3/3 115/3/3 114/3/3
f 118/3/3 116/3/3 117/3/3
f 121/4/3 120/4/3 119/4/3
f 122/4/3 120/4/3 121/4/3
f 123/4/3 120/4/3 122/4/3
f 124/3/3 122/3/3 121/3/3
f 125/3/3 122/3/3 124/3/3
f 126/3/4 127/3/4 128/3/4
f 128/3/4 127/3/4 129/3/4
f 130/3/4 131/3/4 132/3/4
f 132/3/4 131/3/4 133/3/4
f 134/1/4 135/1/4 136/1/4
f 134/1/4 136/1/4 137/1/4
f 137/1/4 136/1/4 138/1/4
f 138/1/4 136/1/4 139/1/4
f 138/2/4 139/2/4 141/2/4
f 139/2/4 140/2/4 141/2/4
f 141/2/4 140/2/4 142/2/4
f 143/3/4 144/3/4 146/3/4
f 145/3/4 146/3/4 147/3/4
f 146/3/4 144/3/4 148/3/4
f 147/3/4 146/3/4 148/3/4
f 149/3/4 150/3/4 152/3/4
f 151/3/4 152/3/4 153/3/4
f 152/3/4 150/3/4 154/3/4
f 153/3/4 152/3/4 154/3/4
f 155/4/4 156/4/4 157/4/4
f 157/4/4 156/4/4 158/4/4
f 159/4/4 160/4/4 161/4/4
f 161/4/4 160/4/4 162/4/4
f 166/4/5 164/4/5 163/4/5
f 167/4/5 164/4/5 166/4/5
f 171/3/5 166/3/5 165/3/5
f 171/3/5 167/3/5 166/3/5
f 171/3/5 168/3/5 167/3/5
f 172/3/5 168/3/5 171/3/5
f 173/3/5 168/3/5 172/3/5
f 174/3/5 170/3/5 169/3/5
f 175/3/5 170/3/5 174/3/5
f 176/3/5 170/3/5 175/3/5
f 177/1/5 172/1/5 171/1/5
f 178/1/5 172/1/5 177/1/5
f 180/3/5 171/3/5 165/3/5
f 181/1/5 177/1/5 171/1/5
f 184/3/5 171/3/5 180/3/5
f 184/1/5 181/1/5 171/1/5
f 184/1/5 182/1/5 181/1/5
f 185/2/5 183/2/5 182/2/5
f 185/1/5 182/1/5 184/1/5
f 186/2/5 183/2/5 185/2/5
f 190/1/5 176/1/5 175/1/5
f 191/3/5 170/3/5 176/3/5
f 191/1/5 176/1/5 190/1/5
f 192/3/5 186/3/5 185/3/5
f 192/4/5 180/4/5 179/4/5
f 192/3/5 184/3/5 180/3/5
f 192/3/5 185/3/5 184/3/5
f 192/3/5 187/3/5 186/3/5
f 193/3/5 187/3/5 192/3/5
f 194/3/5 187/3/5 193/3/5
f 195/3/5 190/3/5 189/3/5
f 195/4/5 189/4/5 188/4/5
f 195/3/5 191/3/5 190/3/5
f 196/3/5 170/3/5 191/3/5
f 196/3/5 191/3/5 195/3/5
f 197/3/5 170/3/5 196/3/5
f 198/4/5 193/4/5 192/4/5
f 198/4/5 192/4/5 179/4/5
f 199/4/5 193/4/5 198/4/5
f 200/4/5 195/4/5 188/4/5
f 200/4/5 196/4/5 195/4/5
f 201/4/5 196/4/5 200/4/5
f 204/2/5 203/2/5 202/2/5
f 205/2/5 203/2/5 204/2/5
f 208/2/5 207/2/5 206/2/5
f 209/2/5 207/2/5 208/2/5
f 215/1/5 213/1/5 212/1/5
f 216/2/5 214/2/5 213/2/5
f 216/1/5 213/1/5 215/1/5
f 217/2/5 214/2/5 216/2/5
f 218/2/5 211/2/5 210/2/5
f 219/2/5 211/2/5 218/2/5
f 222/3/5 221/3/5 220/3/5
f 223/3/5 221/3/5 222/3/5
f 224/4/6 225/4/6 226/4/6
f 224/4/6 226/4/6 228/4/6
f 226/4/6 227/4/6 228/4/6
f 228/4/6 227/4/6 229/4/6
f 230/4/6 231/4/6 232/4/6
f 232/4/6 231/4/6 233/4/6
f 234/4/6 235/4/6 236/4/6
f 234/4/6 236/4/6 238/4/6
f 236/4/6 237/4/6 238/4/6
f 238/4/6 237/4/6 239/4/6
f 240/3/6 241/3/6 244/3/6
f 244/3/6 241/3/6 245/3/6
f 242/3/6 243/3/6 246/3/6
f 246/3/6 243/3/6 247/3/6
