# MagicaVoxel @ Ephtracy

# group
o 

# material
mtllib Gemme6.mtl
usemtl palette

# normals
vn -1 0 0
vn 1 0 0
vn 0 0 1
vn 0 0 -1
vn 0 -1 0
vn 0 1 0

# texcoords
vt 0.923828 0.5
vt 0.970703 0.5
vt 0.974609 0.5

# verts
v -0.7 0 0.7
v -0.7 0 0.5
v -0.7 0 0.4
v -0.7 0 0.2
v -0.7 0 0
v -0.7 0 -0.4
v -0.7 0.2 0.4
v -0.7 0.2 0.2
v -0.7 0.3 0
v -0.7 0.3 -0.4
v -0.7 0.5 0.7
v -0.7 0.5 0.5
v -0.6 0 0.5
v -0.6 0 0.4
v -0.6 0.2 0.4
v -0.6 0.2 0.3
v -0.6 0.4 0.5
v -0.6 0.4 0.3
v -0.5 0 0.1
v -0.5 0 0
v -0.5 0.1 0.1
v -0.5 0.1 0
v -0.3 0 0.7
v -0.3 0 0.6
v -0.3 0.1 0.7
v -0.3 0.1 0.6
v 0 0 0.4
v 0 0 0.2
v 0 0.1 0.4
v 0 0.1 0.2
v 0.2 0 -0.2
v 0.2 0 -0.4
v 0.2 0.3 -0.2
v 0.2 0.3 -0.4
v 0.3 0 -0.4
v 0.3 0 -0.5
v 0.3 0.2 -0.4
v 0.3 0.2 -0.5
v -0.5 0 0.3
v -0.5 0 0.2
v -0.5 0.2 0.3
v -0.5 0.2 0.2
v -0.4 0 0.7
v -0.4 0 0.6
v -0.4 0 -0.1
v -0.4 0 -0.4
v -0.4 0.1 0
v -0.4 0.1 -0.1
v -0.4 0.3 0
v -0.4 0.3 -0.4
v -0.4 0.4 0.6
v -0.4 0.4 0.5
v -0.4 0.5 0.7
v -0.4 0.5 0.5
v -0.3 0 0.1
v -0.3 0 -0.1
v -0.3 0.1 0.6
v -0.3 0.1 0.3
v -0.3 0.1 0.1
v -0.3 0.1 -0.1
v -0.3 0.4 0.6
v -0.3 0.4 0.3
v -0.1 0 0.7
v -0.1 0 0.3
v -0.1 0.1 0.7
v -0.1 0.1 0.3
v 0.3 0 0.4
v 0.3 0 0.2
v 0.3 0.1 0.4
v 0.3 0.1 0.2
v 0.4 0 -0.2
v 0.4 0 -0.3
v 0.4 0.2 -0.3
v 0.4 0.2 -0.4
v 0.4 0.3 -0.2
v 0.4 0.3 -0.4
v 0.6 0 -0.3
v 0.6 0 -0.5
v 0.6 0.2 -0.3
v 0.6 0.2 -0.5
v -0.7 0 0.7
v -0.7 0.5 0.7
v -0.4 0 0.7
v -0.4 0.5 0.7
v -0.3 0 0.7
v -0.3 0.1 0.7
v -0.1 0 0.7
v -0.1 0.1 0.7
v -0.4 0 0.6
v -0.4 0.4 0.6
v -0.3 0 0.6
v -0.3 0.1 0.6
v -0.3 0.4 0.6
v -0.7 0 0.4
v -0.7 0.2 0.4
v -0.6 0 0.4
v -0.6 0.2 0.4
v 0 0 0.4
v 0 0.1 0.4
v 0.3 0 0.4
v 0.3 0.1 0.4
v -0.5 0 0.1
v -0.5 0.1 0.1
v -0.3 0 0.1
v -0.3 0.1 0.1
v -0.7 0 0
v -0.7 0.3 0
v -0.5 0 0
v -0.5 0.1 0
v -0.4 0.1 0
v -0.4 0.3 0
v 0.2 0 -0.2
v 0.2 0.3 -0.2
v 0.4 0 -0.2
v 0.4 0.3 -0.2
v 0.4 0 -0.3
v 0.4 0.2 -0.3
v 0.6 0 -0.3
v 0.6 0.2 -0.3
v -0.7 0 0.5
v -0.7 0.5 0.5
v -0.6 0 0.5
v -0.6 0.4 0.5
v -0.4 0.4 0.5
v -0.4 0.5 0.5
v -0.6 0.2 0.3
v -0.6 0.4 0.3
v -0.5 0 0.3
v -0.5 0.2 0.3
v -0.3 0 0.3
v -0.3 0.1 0.3
v -0.3 0.4 0.3
v -0.1 0 0.3
v -0.1 0.1 0.3
v -0.7 0 0.2
v -0.7 0.2 0.2
v -0.5 0 0.2
v -0.5 0.2 0.2
v 0 0 0.2
v 0 0.1 0.2
v 0.3 0 0.2
v 0.3 0.1 0.2
v -0.4 0 -0.1
v -0.4 0.1 -0.1
v -0.3 0 -0.1
v -0.3 0.1 -0.1
v -0.7 0 -0.4
v -0.7 0.3 -0.4
v -0.4 0 -0.4
v -0.4 0.3 -0.4
v 0.2 0 -0.4
v 0.2 0.3 -0.4
v 0.3 0 -0.4
v 0.3 0.2 -0.4
v 0.4 0.2 -0.4
v 0.4 0.3 -0.4
v 0.3 0 -0.5
v 0.3 0.2 -0.5
v 0.6 0 -0.5
v 0.6 0.2 -0.5
v -0.7 0 0.7
v -0.4 0 0.7
v -0.3 0 0.7
v -0.1 0 0.7
v -0.6 0 0.6
v -0.4 0 0.6
v -0.3 0 0.6
v -0.7 0 0.5
v -0.6 0 0.5
v -0.7 0 0.4
v -0.6 0 0.4
v 0 0 0.4
v 0.3 0 0.4
v -0.5 0 0.3
v -0.3 0 0.3
v -0.1 0 0.3
v -0.7 0 0.2
v -0.5 0 0.2
v 0 0 0.2
v 0.3 0 0.2
v -0.5 0 0.1
v -0.3 0 0.1
v -0.7 0 0
v -0.5 0 0
v -0.4 0 0
v -0.4 0 -0.1
v -0.3 0 -0.1
v 0.2 0 -0.2
v 0.4 0 -0.2
v 0.3 0 -0.3
v 0.4 0 -0.3
v 0.6 0 -0.3
v -0.7 0 -0.4
v -0.4 0 -0.4
v 0.2 0 -0.4
v 0.3 0 -0.4
v 0.3 0 -0.5
v 0.6 0 -0.5
v -0.3 0.1 0.7
v -0.1 0.1 0.7
v -0.3 0.1 0.6
v 0 0.1 0.4
v 0.3 0.1 0.4
v -0.3 0.1 0.3
v -0.1 0.1 0.3
v 0 0.1 0.2
v 0.3 0.1 0.2
v -0.5 0.1 0.1
v -0.3 0.1 0.1
v -0.5 0.1 0
v -0.4 0.1 0
v -0.4 0.1 -0.1
v -0.3 0.1 -0.1
v -0.7 0.2 0.4
v -0.6 0.2 0.4
v -0.6 0.2 0.3
v -0.5 0.2 0.3
v -0.7 0.2 0.2
v -0.5 0.2 0.2
v 0.4 0.2 -0.3
v 0.6 0.2 -0.3
v 0.3 0.2 -0.4
v 0.4 0.2 -0.4
v 0.3 0.2 -0.5
v 0.6 0.2 -0.5
v -0.7 0.3 0
v -0.4 0.3 0
v 0.2 0.3 -0.2
v 0.4 0.3 -0.2
v -0.7 0.3 -0.4
v -0.4 0.3 -0.4
v 0.2 0.3 -0.4
v 0.4 0.3 -0.4
v -0.4 0.4 0.6
v -0.3 0.4 0.6
v -0.6 0.4 0.5
v -0.4 0.4 0.5
v -0.6 0.4 0.3
v -0.3 0.4 0.3
v -0.7 0.5 0.7
v -0.4 0.5 0.7
v -0.7 0.5 0.5
v -0.4 0.5 0.5

# faces
f 7/1/1 4/1/1 3/1/1
f 8/1/1 4/1/1 7/1/1
f 9/2/1 6/2/1 5/2/1
f 10/2/1 6/2/1 9/2/1
f 11/2/1 2/2/1 1/2/1
f 12/2/1 2/2/1 11/2/1
f 15/1/1 14/1/1 13/1/1
f 17/1/1 15/1/1 13/1/1
f 17/1/1 16/1/1 15/1/1
f 18/1/1 16/1/1 17/1/1
f 21/3/1 20/3/1 19/3/1
f 22/3/1 20/3/1 21/3/1
f 25/2/1 24/2/1 23/2/1
f 26/2/1 24/2/1 25/2/1
f 29/3/1 28/3/1 27/3/1
f 30/3/1 28/3/1 29/3/1
f 33/3/1 32/3/1 31/3/1
f 34/3/1 32/3/1 33/3/1
f 37/2/1 36/2/1 35/2/1
f 38/2/1 36/2/1 37/2/1
f 39/1/2 40/1/2 41/1/2
f 41/1/2 40/1/2 42/1/2
f 45/2/2 46/2/2 48/2/2
f 47/2/2 48/2/2 49/2/2
f 48/2/2 46/2/2 50/2/2
f 49/2/2 48/2/2 50/2/2
f 43/2/2 44/2/2 51/2/2
f 43/2/2 51/2/2 53/2/2
f 51/2/2 52/2/2 53/2/2
f 53/2/2 52/2/2 54/2/2
f 55/3/2 56/3/2 59/3/2
f 59/3/2 56/3/2 60/3/2
f 57/1/2 58/1/2 61/1/2
f 61/1/2 58/1/2 62/1/2
f 63/2/2 64/2/2 65/2/2
f 65/2/2 64/2/2 66/2/2
f 67/3/2 68/3/2 69/3/2
f 69/3/2 68/3/2 70/3/2
f 71/3/2 72/3/2 73/3/2
f 71/3/2 73/3/2 75/3/2
f 73/3/2 74/3/2 75/3/2
f 75/3/2 74/3/2 76/3/2
f 77/2/2 78/2/2 79/2/2
f 79/2/2 78/2/2 80/2/2
f 83/2/3 82/2/3 81/2/3
f 84/2/3 82/2/3 83/2/3
f 87/2/3 86/2/3 85/2/3
f 88/2/3 86/2/3 87/2/3
f 91/1/3 90/1/3 89/1/3
f 92/1/3 90/1/3 91/1/3
f 93/1/3 90/1/3 92/1/3
f 96/1/3 95/1/3 94/1/3
f 97/1/3 95/1/3 96/1/3
f 100/3/3 99/3/3 98/3/3
f 101/3/3 99/3/3 100/3/3
f 104/3/3 103/3/3 102/3/3
f 105/3/3 103/3/3 104/3/3
f 108/2/3 107/2/3 106/2/3
f 109/2/3 107/2/3 108/2/3
f 110/2/3 107/2/3 109/2/3
f 111/2/3 107/2/3 110/2/3
f 114/3/3 113/3/3 112/3/3
f 115/3/3 113/3/3 114/3/3
f 118/2/3 117/2/3 116/2/3
f 119/2/3 117/2/3 118/2/3
f 120/2/4 121/2/4 122/2/4
f 122/2/4 121/2/4 123/2/4
f 123/2/4 121/2/4 124/2/4
f 124/2/4 121/2/4 125/2/4
f 126/1/4 127/1/4 129/1/4
f 128/1/4 129/1/4 130/1/4
f 130/1/4 129/1/4 131/1/4
f 129/1/4 127/1/4 132/1/4
f 131/1/4 129/1/4 132/1/4
f 130/2/4 131/2/4 133/2/4
f 133/2/4 131/2/4 134/2/4
f 135/1/4 136/1/4 137/1/4
f 137/1/4 136/1/4 138/1/4
f 139/3/4 140/3/4 141/3/4
f 141/3/4 140/3/4 142/3/4
f 143/3/4 144/3/4 145/3/4
f 145/3/4 144/3/4 146/3/4
f 147/2/4 148/2/4 149/2/4
f 149/2/4 148/2/4 150/2/4
f 151/3/4 152/3/4 153/3/4
f 153/3/4 152/3/4 154/3/4
f 154/3/4 152/3/4 155/3/4
f 155/3/4 152/3/4 156/3/4
f 157/2/4 158/2/4 159/2/4
f 159/2/4 158/2/4 160/2/4
f 165/2/5 162/2/5 161/2/5
f 166/2/5 162/2/5 165/2/5
f 167/2/5 164/2/5 163/2/5
f 168/2/5 165/2/5 161/2/5
f 169/1/5 166/1/5 165/1/5
f 169/2/5 165/2/5 168/2/5
f 169/1/5 167/1/5 166/1/5
f 171/1/5 167/1/5 169/1/5
f 174/1/5 167/1/5 171/1/5
f 174/1/5 171/1/5 170/1/5
f 175/2/5 164/2/5 167/2/5
f 175/1/5 167/1/5 174/1/5
f 176/2/5 164/2/5 175/2/5
f 177/1/5 174/1/5 170/1/5
f 178/1/5 174/1/5 177/1/5
f 179/3/5 173/3/5 172/3/5
f 180/3/5 173/3/5 179/3/5
f 184/3/5 182/3/5 181/3/5
f 185/3/5 182/3/5 184/3/5
f 186/2/5 184/2/5 183/2/5
f 186/3/5 182/3/5 185/3/5
f 186/2/5 185/2/5 184/2/5
f 187/3/5 182/3/5 186/3/5
f 190/3/5 189/3/5 188/3/5
f 191/3/5 189/3/5 190/3/5
f 193/2/5 186/2/5 183/2/5
f 194/2/5 186/2/5 193/2/5
f 195/3/5 190/3/5 188/3/5
f 196/2/5 192/2/5 191/2/5
f 196/3/5 190/3/5 195/3/5
f 196/2/5 191/2/5 190/2/5
f 197/2/5 192/2/5 196/2/5
f 198/2/5 192/2/5 197/2/5
f 199/2/6 200/2/6 201/2/6
f 201/2/6 200/2/6 204/2/6
f 204/2/6 200/2/6 205/2/6
f 202/3/6 203/3/6 206/3/6
f 206/3/6 203/3/6 207/3/6
f 208/3/6 209/3/6 210/3/6
f 210/3/6 209/3/6 211/3/6
f 211/3/6 209/3/6 212/3/6
f 212/3/6 209/3/6 213/3/6
f 214/1/6 215/1/6 216/1/6
f 214/1/6 216/1/6 218/1/6
f 216/1/6 217/1/6 218/1/6
f 218/1/6 217/1/6 219/1/6
f 220/2/6 221/2/6 223/2/6
f 222/2/6 223/2/6 224/2/6
f 223/2/6 221/2/6 225/2/6
f 224/2/6 223/2/6 225/2/6
f 226/2/6 227/2/6 230/2/6
f 230/2/6 227/2/6 231/2/6
f 228/3/6 229/3/6 232/3/6
f 232/3/6 229/3/6 233/3/6
f 234/1/6 235/1/6 237/1/6
f 236/1/6 237/1/6 238/1/6
f 237/1/6 235/1/6 239/1/6
f 238/1/6 237/1/6 239/1/6
f 240/2/6 241/2/6 242/2/6
f 242/2/6 241/2/6 243/2/6
