# MagicaVoxel @ Ephtracy

# group
o 

# material
mtllib Gemme10.mtl
usemtl palette

# normals
vn -1 0 0
vn 1 0 0
vn 0 0 1
vn 0 0 -1
vn 0 -1 0
vn 0 1 0

# texcoords
vt 0.927734 0.5
vt 0.966797 0.5
vt 0.970703 0.5
vt 0.974609 0.5

# verts
v -0.3 0 -0.2
v -0.3 0 -0.3
v -0.3 0.1 -0.2
v -0.3 0.1 -0.3
v -0.2 0 0.3
v -0.2 0 -2.98023e-08
v -0.2 0.5 0.3
v -0.2 0.5 -2.98023e-08
v -0.1 0.2 -2.98023e-08
v -0.1 0.2 -0.3
v -0.1 0.5 0.2
v -0.1 0.5 -2.98023e-08
v -0.1 0.8 0.2
v -0.1 0.8 -0.3
v 0.1 0 -0.3
v 0.1 0 -0.5
v 0.1 0.1 -0.3
v 0.1 0.1 -0.5
v 0.2 0 -0.2
v 0.2 0 -0.3
v 0.2 0.1 -0.3
v 0.2 0.1 -0.4
v 0.2 0.2 -0.2
v 0.2 0.2 -0.3
v 0.2 0.3 -0.3
v 0.2 0.3 -0.4
v -0.2 0 -0.2
v -0.2 0 -0.3
v -0.2 0.1 -0.2
v -0.2 0.1 -0.3
v 0.1 0 0.3
v 0.1 0 -2.98023e-08
v 0.1 0.2 0.2
v 0.1 0.2 -2.98023e-08
v 0.1 0.5 0.3
v 0.1 0.5 0.2
v 0.3 0 -0.4
v 0.3 0 -0.5
v 0.3 0.1 -0.4
v 0.3 0.1 -0.5
v 0.3 0.2 0.2
v 0.3 0.2 -0.2
v 0.3 0.3 0.1
v 0.3 0.3 -0.2
v 0.3 0.3 -0.3
v 0.3 0.5 0.2
v 0.3 0.5 0.1
v 0.3 0.7 -0.1
v 0.3 0.7 -0.2
v 0.3 0.8 -0.1
v 0.3 0.8 -0.3
v 0.4 0 -0.2
v 0.4 0 -0.4
v 0.4 0.3 0.1
v 0.4 0.3 -0.2
v 0.4 0.3 -0.4
v 0.4 0.5 0.1
v 0.4 0.7 0.1
v 0.4 0.7 -0.1
v 0.4 0.7 -0.2
v 0.5 0.5 0.2
v 0.5 0.5 0.1
v 0.5 0.7 0.1
v 0.5 0.7 -0.1
v 0.5 0.8 0.2
v 0.5 0.8 -0.1
v -0.2 0 0.3
v -0.2 0.5 0.3
v 0.1 0 0.3
v 0.1 0.5 0.3
v -0.1 0.5 0.2
v -0.1 0.8 0.2
v 0.1 0.2 0.2
v 0.1 0.5 0.2
v 0.3 0.2 0.2
v 0.3 0.5 0.2
v 0.5 0.5 0.2
v 0.5 0.8 0.2
v 0.3 0.3 0.1
v 0.3 0.5 0.1
v 0.4 0.3 0.1
v 0.4 0.5 0.1
v -0.3 0 -0.2
v -0.3 0.1 -0.2
v -0.2 0 -0.2
v -0.2 0.1 -0.2
v 0.2 0 -0.2
v 0.2 0.2 -0.2
v 0.3 0.2 -0.2
v 0.3 0.3 -0.2
v 0.4 0 -0.2
v 0.4 0.3 -0.2
v 0.1 0 -0.3
v 0.1 0.1 -0.3
v 0.2 0 -0.3
v 0.2 0.1 -0.3
v 0.4 0.5 0.1
v 0.4 0.7 0.1
v 0.5 0.5 0.1
v 0.5 0.7 0.1
v -0.2 0 -2.98023e-08
v -0.2 0.5 -2.98023e-08
v -0.1 0.2 -2.98023e-08
v -0.1 0.5 -2.98023e-08
v 0.1 0 -2.98023e-08
v 0.1 0.2 -2.98023e-08
v 0.3 0.7 -0.1
v 0.3 0.8 -0.1
v 0.4 0.7 -0.1
v 0.5 0.7 -0.1
v 0.5 0.8 -0.1
v 0.3 0.3 -0.2
v 0.3 0.7 -0.2
v 0.4 0.3 -0.2
v 0.4 0.7 -0.2
v -0.3 0 -0.3
v -0.3 0.1 -0.3
v -0.2 0 -0.3
v -0.2 0.1 -0.3
v -0.1 0.2 -0.3
v -0.1 0.8 -0.3
v 0.2 0.2 -0.3
v 0.2 0.3 -0.3
v 0.3 0.3 -0.3
v 0.3 0.8 -0.3
v 0.2 0.1 -0.4
v 0.2 0.3 -0.4
v 0.3 0 -0.4
v 0.3 0.1 -0.4
v 0.4 0 -0.4
v 0.4 0.3 -0.4
v 0.1 0 -0.5
v 0.1 0.1 -0.5
v 0.3 0 -0.5
v 0.3 0.1 -0.5
v -0.2 0 0.3
v 0.1 0 0.3
v -0.2 0 -2.98023e-08
v 0.1 0 -2.98023e-08
v -0.3 0 -0.2
v -0.2 0 -0.2
v 0.2 0 -0.2
v 0.4 0 -0.2
v -0.3 0 -0.3
v -0.2 0 -0.3
v 0.1 0 -0.3
v 0.2 0 -0.3
v 0.3 0 -0.4
v 0.4 0 -0.4
v 0.1 0 -0.5
v 0.3 0 -0.5
v 0.1 0.2 0.2
v 0.3 0.2 0.2
v -0.1 0.2 -2.98023e-08
v 0.1 0.2 -2.98023e-08
v 0.2 0.2 -0.2
v 0.3 0.2 -0.2
v -0.1 0.2 -0.3
v 0.2 0.2 -0.3
v 0.3 0.3 0.1
v 0.4 0.3 0.1
v 0.3 0.3 -0.2
v 0.4 0.3 -0.2
v 0.3 0.5 0.2
v 0.5 0.5 0.2
v 0.3 0.5 0.1
v 0.4 0.5 0.1
v 0.5 0.5 0.1
v 0.4 0.7 0.1
v 0.5 0.7 0.1
v 0.4 0.7 -0.1
v 0.5 0.7 -0.1
v -0.3 0.1 -0.2
v -0.2 0.1 -0.2
v -0.3 0.1 -0.3
v -0.2 0.1 -0.3
v 0.1 0.1 -0.3
v 0.2 0.1 -0.3
v 0.2 0.1 -0.4
v 0.3 0.1 -0.4
v 0.1 0.1 -0.5
v 0.3 0.1 -0.5
v 0.3 0.3 -0.2
v 0.4 0.3 -0.2
v 0.2 0.3 -0.3
v 0.3 0.3 -0.3
v 0.2 0.3 -0.4
v 0.4 0.3 -0.4
v -0.2 0.5 0.3
v 0.1 0.5 0.3
v -0.1 0.5 0.2
v 0.1 0.5 0.2
v -0.2 0.5 -2.98023e-08
v -0.1 0.5 -2.98023e-08
v 0.3 0.7 -0.1
v 0.4 0.7 -0.1
v 0.3 0.7 -0.2
v 0.4 0.7 -0.2
v -0.1 0.8 0.2
v 0.5 0.8 0.2
v 0.3 0.8 -0.1
v 0.5 0.8 -0.1
v -0.1 0.8 -0.3
v 0.3 0.8 -0.3

# faces
f 3/4/1 2/4/1 1/4/1
f 4/4/1 2/4/1 3/4/1
f 7/3/1 6/3/1 5/3/1
f 8/3/1 6/3/1 7/3/1
f 12/1/1 10/1/1 9/1/1
f 13/1/1 12/1/1 11/1/1
f 14/1/1 10/1/1 12/1/1
f 14/1/1 12/1/1 13/1/1
f 17/3/1 16/3/1 15/3/1
f 18/3/1 16/3/1 17/3/1
f 21/3/1 20/3/1 19/3/1
f 23/3/1 21/3/1 19/3/1
f 23/3/1 22/3/1 21/3/1
f 24/3/1 22/3/1 23/3/1
f 25/3/1 22/3/1 24/3/1
f 26/3/1 22/3/1 25/3/1
f 27/4/2 28/4/2 29/4/2
f 29/4/2 28/4/2 30/4/2
f 31/3/2 32/3/2 33/3/2
f 33/3/2 32/3/2 34/3/2
f 31/3/2 33/3/2 35/3/2
f 35/3/2 33/3/2 36/3/2
f 37/3/2 38/3/2 39/3/2
f 39/3/2 38/3/2 40/3/2
f 41/1/2 42/1/2 43/1/2
f 43/1/2 42/1/2 44/1/2
f 41/1/2 43/1/2 46/1/2
f 46/1/2 43/1/2 47/1/2
f 44/1/2 45/1/2 49/1/2
f 48/1/2 49/1/2 50/1/2
f 49/1/2 45/1/2 51/1/2
f 50/1/2 49/1/2 51/1/2
f 52/3/2 53/3/2 55/3/2
f 55/3/2 53/3/2 56/3/2
f 54/2/2 55/2/2 57/2/2
f 57/2/2 55/2/2 58/2/2
f 58/2/2 55/2/2 59/2/2
f 59/2/2 55/2/2 60/2/2
f 61/1/2 62/1/2 63/1/2
f 61/1/2 63/1/2 65/1/2
f 63/1/2 64/1/2 65/1/2
f 65/1/2 64/1/2 66/1/2
f 69/3/3 68/3/3 67/3/3
f 70/3/3 68/3/3 69/3/3
f 74/1/3 72/1/3 71/1/3
f 75/1/3 74/1/3 73/1/3
f 76/1/3 72/1/3 74/1/3
f 76/1/3 74/1/3 75/1/3
f 77/1/3 72/1/3 76/1/3
f 78/1/3 72/1/3 77/1/3
f 81/2/3 80/2/3 79/2/3
f 82/2/3 80/2/3 81/2/3
f 85/4/3 84/4/3 83/4/3
f 86/4/3 84/4/3 85/4/3
f 89/3/3 88/3/3 87/3/3
f 91/3/3 89/3/3 87/3/3
f 91/3/3 90/3/3 89/3/3
f 92/3/3 90/3/3 91/3/3
f 95/3/3 94/3/3 93/3/3
f 96/3/3 94/3/3 95/3/3
f 97/1/4 98/1/4 99/1/4
f 99/1/4 98/1/4 100/1/4
f 101/3/4 102/3/4 103/3/4
f 103/3/4 102/3/4 104/3/4
f 101/3/4 103/3/4 105/3/4
f 105/3/4 103/3/4 106/3/4
f 107/1/4 108/1/4 109/1/4
f 109/1/4 108/1/4 110/1/4
f 110/1/4 108/1/4 111/1/4
f 112/2/4 113/2/4 114/2/4
f 114/2/4 113/2/4 115/2/4
f 116/4/4 117/4/4 118/4/4
f 118/4/4 117/4/4 119/4/4
f 120/1/4 121/1/4 122/1/4
f 122/1/4 121/1/4 123/1/4
f 123/1/4 121/1/4 124/1/4
f 124/1/4 121/1/4 125/1/4
f 126/3/4 127/3/4 129/3/4
f 128/3/4 129/3/4 130/3/4
f 129/3/4 127/3/4 131/3/4
f 130/3/4 129/3/4 131/3/4
f 132/3/4 133/3/4 134/3/4
f 134/3/4 133/3/4 135/3/4
f 138/3/5 137/3/5 136/3/5
f 139/3/5 137/3/5 138/3/5
f 144/4/5 141/4/5 140/4/5
f 145/4/5 141/4/5 144/4/5
f 147/3/5 143/3/5 142/3/5
f 148/3/5 147/3/5 146/3/5
f 148/3/5 143/3/5 147/3/5
f 149/3/5 143/3/5 148/3/5
f 150/3/5 148/3/5 146/3/5
f 151/3/5 148/3/5 150/3/5
f 155/1/5 153/1/5 152/1/5
f 156/1/5 153/1/5 155/1/5
f 156/1/5 155/1/5 154/1/5
f 157/1/5 153/1/5 156/1/5
f 158/1/5 156/1/5 154/1/5
f 159/1/5 156/1/5 158/1/5
f 162/2/5 161/2/5 160/2/5
f 163/2/5 161/2/5 162/2/5
f 166/1/5 165/1/5 164/1/5
f 167/1/5 165/1/5 166/1/5
f 168/1/5 165/1/5 167/1/5
f 171/1/5 170/1/5 169/1/5
f 172/1/5 170/1/5 171/1/5
f 173/4/6 174/4/6 175/4/6
f 175/4/6 174/4/6 176/4/6
f 177/3/6 178/3/6 179/3/6
f 177/3/6 179/3/6 181/3/6
f 179/3/6 180/3/6 181/3/6
f 181/3/6 180/3/6 182/3/6
f 183/3/6 184/3/6 186/3/6
f 185/3/6 186/3/6 187/3/6
f 186/3/6 184/3/6 188/3/6
f 187/3/6 186/3/6 188/3/6
f 189/3/6 190/3/6 191/3/6
f 191/3/6 190/3/6 192/3/6
f 189/3/6 191/3/6 193/3/6
f 193/3/6 191/3/6 194/3/6
f 195/2/6 196/2/6 197/2/6
f 197/2/6 196/2/6 198/2/6
f 199/1/6 200/1/6 201/1/6
f 201/1/6 200/1/6 202/1/6
f 199/1/6 201/1/6 203/1/6
f 203/1/6 201/1/6 204/1/6
