# MagicaVoxel @ Ephtracy

# group
o 

# material
mtllib Gemme9.mtl
usemtl palette

# normals
vn -1 0 0
vn 1 0 0
vn 0 0 1
vn 0 0 -1
vn 0 -1 0
vn 0 1 0

# texcoords
vt 0.962891 0.5
vt 0.970703 0.5
vt 0.974609 0.5

# verts
v -0.4 0 0.1
v -0.4 0 -0.3
v -0.4 0.2 0.1
v -0.4 0.2 -0.3
v -0.3 0.2 0
v -0.3 0.2 -0.2
v -0.3 0.5 0
v -0.3 0.5 -0.2
v -0.1 0 0.3
v -0.1 0 0.1
v -0.1 0.2 0.1
v -0.1 0.2 0
v -0.1 0.3 0.3
v -0.1 0.3 0.1
v -0.1 0.3 0
v -0.1 0.7 0.3
v -0.1 0.7 0.1
v 0.1 0 0.4
v 0.1 0 0.3
v 0.1 0.1 0.4
v 0.1 0.1 0.3
v 0.2 0 0.5
v 0.2 0 0.4
v 0.2 0.1 0.4
v 0.2 0.3 0
v 0.2 0.3 -0.2
v 0.2 0.4 0.5
v 0.2 0.4 0.4
v 0.2 0.8 0
v 0.2 0.8 -0.2
v 0.3 0.3 0.2
v 0.3 0.3 0.1
v 0.3 0.6 0.2
v 0.3 0.6 0.1
v -0.1 0.3 0
v -0.1 0.3 -0.2
v -0.1 0.5 0
v -0.1 0.5 -0.2
v 0.1 0 -0.2
v 0.1 0 -0.3
v 0.1 0.2 -0.2
v 0.1 0.2 -0.3
v 0.1 0.3 0.3
v 0.1 0.3 0.1
v 0.1 0.7 0.3
v 0.1 0.7 0.1
v 0.3 0 0.5
v 0.3 0 0.4
v 0.3 0.1 0.4
v 0.3 0.4 0.5
v 0.3 0.4 0.4
v 0.4 0 0.1
v 0.4 0 -0.2
v 0.4 0.1 0.3
v 0.4 0.1 0.1
v 0.4 0.3 0.3
v 0.4 0.3 0.2
v 0.4 0.3 0.1
v 0.4 0.3 0
v 0.4 0.3 -0.2
v 0.4 0.6 0.2
v 0.4 0.6 0.1
v 0.4 0.8 0
v 0.4 0.8 -0.2
v 0.5 0 0.4
v 0.5 0 0.1
v 0.5 0.1 0.4
v 0.5 0.1 0.1
v 0.2 0 0.5
v 0.2 0.4 0.5
v 0.3 0 0.5
v 0.3 0.4 0.5
v 0.1 0 0.4
v 0.1 0.1 0.4
v 0.2 0 0.4
v 0.2 0.1 0.4
v 0.3 0 0.4
v 0.3 0.1 0.4
v 0.5 0 0.4
v 0.5 0.1 0.4
v -0.1 0 0.3
v -0.1 0.3 0.3
v -0.1 0.7 0.3
v 0.1 0 0.3
v 0.1 0.1 0.3
v 0.1 0.3 0.3
v 0.1 0.7 0.3
v 0.4 0.1 0.3
v 0.4 0.3 0.3
v 0.3 0.3 0.2
v 0.3 0.6 0.2
v 0.4 0.3 0.2
v 0.4 0.6 0.2
v -0.4 0 0.1
v -0.4 0.2 0.1
v -0.1 0 0.1
v -0.1 0.2 0.1
v -0.3 0.2 0
v -0.3 0.5 0
v -0.1 0.2 0
v -0.1 0.3 0
v -0.1 0.5 0
v 0.2 0.3 0
v 0.2 0.8 0
v 0.4 0.3 0
v 0.4 0.8 0
v 0.2 0.1 0.4
v 0.2 0.4 0.4
v 0.3 0.1 0.4
v 0.3 0.4 0.4
v -0.1 0.3 0.1
v -0.1 0.7 0.1
v 0.1 0.3 0.1
v 0.1 0.7 0.1
v 0.3 0.3 0.1
v 0.3 0.6 0.1
v 0.4 0 0.1
v 0.4 0.1 0.1
v 0.4 0.3 0.1
v 0.4 0.6 0.1
v 0.5 0 0.1
v 0.5 0.1 0.1
v -0.3 0.2 -0.2
v -0.3 0.5 -0.2
v -0.1 0.2 -0.2
v -0.1 0.3 -0.2
v -0.1 0.5 -0.2
v 0.1 0 -0.2
v 0.1 0.2 -0.2
v 0.2 0.3 -0.2
v 0.2 0.8 -0.2
v 0.4 0 -0.2
v 0.4 0.3 -0.2
v 0.4 0.8 -0.2
v -0.4 0 -0.3
v -0.4 0.2 -0.3
v 0.1 0 -0.3
v 0.1 0.2 -0.3
v 0.2 0 0.5
v 0.3 0 0.5
v 0.1 0 0.4
v 0.2 0 0.4
v 0.3 0 0.4
v 0.5 0 0.4
v -0.1 0 0.3
v 0.1 0 0.3
v 0.4 0 0.3
v -0.4 0 0.1
v -0.1 0 0.1
v 0.4 0 0.1
v 0.5 0 0.1
v 0.1 0 -0.2
v 0.4 0 -0.2
v -0.4 0 -0.3
v 0.1 0 -0.3
v 0.1 0.1 0.4
v 0.2 0.1 0.4
v 0.3 0.1 0.4
v 0.5 0.1 0.4
v 0.1 0.1 0.3
v 0.4 0.1 0.3
v 0.4 0.1 0.1
v 0.5 0.1 0.1
v -0.4 0.2 0.1
v -0.1 0.2 0.1
v -0.3 0.2 0
v -0.1 0.2 0
v -0.3 0.2 -0.2
v -0.1 0.2 -0.2
v 0.1 0.2 -0.2
v -0.4 0.2 -0.3
v 0.1 0.2 -0.3
v 0.1 0.3 0.3
v 0.4 0.3 0.3
v 0.3 0.3 0.2
v 0.4 0.3 0.2
v -0.1 0.3 0.1
v 0.1 0.3 0.1
v 0.3 0.3 0.1
v 0.4 0.3 0.1
v -0.1 0.3 0
v 0.2 0.3 0
v 0.4 0.3 0
v -0.1 0.3 -0.2
v 0.2 0.3 -0.2
v 0.2 0.4 0.5
v 0.3 0.4 0.5
v 0.2 0.4 0.4
v 0.3 0.4 0.4
v -0.3 0.5 0
v -0.1 0.5 0
v -0.3 0.5 -0.2
v -0.1 0.5 -0.2
v 0.3 0.6 0.2
v 0.4 0.6 0.2
v 0.3 0.6 0.1
v 0.4 0.6 0.1
v -0.1 0.7 0.3
v 0.1 0.7 0.3
v -0.1 0.7 0.1
v 0.1 0.7 0.1
v 0.2 0.8 0
v 0.4 0.8 0
v 0.2 0.8 -0.2
v 0.4 0.8 -0.2

# faces
f 3/2/1 2/2/1 1/2/1
f 4/2/1 2/2/1 3/2/1
f 7/1/1 6/1/1 5/1/1
f 8/1/1 6/1/1 7/1/1
f 11/2/1 10/2/1 9/2/1
f 13/2/1 11/2/1 9/2/1
f 13/2/1 12/2/1 11/2/1
f 14/2/1 12/2/1 13/2/1
f 15/2/1 12/2/1 14/2/1
f 16/1/1 14/1/1 13/1/1
f 17/1/1 14/1/1 16/1/1
f 20/3/1 19/3/1 18/3/1
f 21/3/1 19/3/1 20/3/1
f 24/1/1 23/1/1 22/1/1
f 27/1/1 24/1/1 22/1/1
f 28/1/1 24/1/1 27/1/1
f 29/1/1 26/1/1 25/1/1
f 30/1/1 26/1/1 29/1/1
f 33/1/1 32/1/1 31/1/1
f 34/1/1 32/1/1 33/1/1
f 35/1/2 36/1/2 37/1/2
f 37/1/2 36/1/2 38/1/2
f 39/2/2 40/2/2 41/2/2
f 41/2/2 40/2/2 42/2/2
f 43/1/2 44/1/2 45/1/2
f 45/1/2 44/1/2 46/1/2
f 47/1/2 48/1/2 49/1/2
f 47/1/2 49/1/2 50/1/2
f 50/1/2 49/1/2 51/1/2
f 52/2/2 53/2/2 55/2/2
f 54/2/2 55/2/2 56/2/2
f 56/2/2 55/2/2 57/2/2
f 55/2/2 53/2/2 58/2/2
f 57/2/2 55/2/2 58/2/2
f 58/2/2 53/2/2 59/2/2
f 59/2/2 53/2/2 60/2/2
f 57/1/2 58/1/2 61/1/2
f 61/1/2 58/1/2 62/1/2
f 59/1/2 60/1/2 63/1/2
f 63/1/2 60/1/2 64/1/2
f 65/3/2 66/3/2 67/3/2
f 67/3/2 66/3/2 68/3/2
f 71/1/3 70/1/3 69/1/3
f 72/1/3 70/1/3 71/1/3
f 75/3/3 74/3/3 73/3/3
f 76/3/3 74/3/3 75/3/3
f 79/3/3 78/3/3 77/3/3
f 80/3/3 78/3/3 79/3/3
f 84/2/3 82/2/3 81/2/3
f 85/2/3 82/2/3 84/2/3
f 86/1/3 83/1/3 82/1/3
f 86/2/3 82/2/3 85/2/3
f 87/1/3 83/1/3 86/1/3
f 88/2/3 86/2/3 85/2/3
f 89/2/3 86/2/3 88/2/3
f 92/1/3 91/1/3 90/1/3
f 93/1/3 91/1/3 92/1/3
f 96/2/3 95/2/3 94/2/3
f 97/2/3 95/2/3 96/2/3
f 100/1/3 99/1/3 98/1/3
f 101/1/3 99/1/3 100/1/3
f 102/1/3 99/1/3 101/1/3
f 105/1/3 104/1/3 103/1/3
f 106/1/3 104/1/3 105/1/3
f 107/1/4 108/1/4 109/1/4
f 109/1/4 108/1/4 110/1/4
f 111/1/4 112/1/4 113/1/4
f 113/1/4 112/1/4 114/1/4
f 115/1/4 116/1/4 119/1/4
f 119/1/4 116/1/4 120/1/4
f 117/3/4 118/3/4 121/3/4
f 121/3/4 118/3/4 122/3/4
f 123/1/4 124/1/4 125/1/4
f 125/1/4 124/1/4 126/1/4
f 126/1/4 124/1/4 127/1/4
f 125/2/4 126/2/4 129/2/4
f 129/2/4 126/2/4 130/2/4
f 128/2/4 129/2/4 130/2/4
f 128/2/4 130/2/4 132/2/4
f 130/1/4 131/1/4 133/1/4
f 132/2/4 130/2/4 133/2/4
f 133/1/4 131/1/4 134/1/4
f 135/2/4 136/2/4 137/2/4
f 137/2/4 136/2/4 138/2/4
f 142/1/5 140/1/5 139/1/5
f 143/1/5 140/1/5 142/1/5
f 146/3/5 142/3/5 141/3/5
f 146/3/5 144/3/5 143/3/5
f 146/3/5 143/3/5 142/3/5
f 147/3/5 144/3/5 146/3/5
f 149/2/5 146/2/5 145/2/5
f 149/2/5 147/2/5 146/2/5
f 150/3/5 144/3/5 147/3/5
f 150/2/5 147/2/5 149/2/5
f 151/3/5 144/3/5 150/3/5
f 152/2/5 149/2/5 148/2/5
f 152/2/5 150/2/5 149/2/5
f 153/2/5 150/2/5 152/2/5
f 154/2/5 152/2/5 148/2/5
f 155/2/5 152/2/5 154/2/5
f 156/3/6 157/3/6 160/3/6
f 158/3/6 159/3/6 160/3/6
f 157/3/6 158/3/6 160/3/6
f 160/3/6 159/3/6 161/3/6
f 161/3/6 159/3/6 162/3/6
f 162/3/6 159/3/6 163/3/6
f 164/2/6 165/2/6 166/2/6
f 166/2/6 165/2/6 167/2/6
f 164/2/6 166/2/6 168/2/6
f 168/2/6 169/2/6 171/2/6
f 169/2/6 170/2/6 171/2/6
f 164/2/6 168/2/6 171/2/6
f 171/2/6 170/2/6 172/2/6
f 173/2/6 174/2/6 175/2/6
f 175/2/6 174/2/6 176/2/6
f 173/2/6 175/2/6 178/2/6
f 178/2/6 175/2/6 179/2/6
f 177/2/6 178/2/6 181/2/6
f 179/2/6 180/2/6 181/2/6
f 178/2/6 179/2/6 181/2/6
f 181/2/6 180/2/6 182/2/6
f 182/2/6 180/2/6 183/2/6
f 181/2/6 182/2/6 184/2/6
f 184/2/6 182/2/6 185/2/6
f 186/1/6 187/1/6 188/1/6
f 188/1/6 187/1/6 189/1/6
f 190/1/6 191/1/6 192/1/6
f 192/1/6 191/1/6 193/1/6
f 194/1/6 195/1/6 196/1/6
f 196/1/6 195/1/6 197/1/6
f 198/1/6 199/1/6 200/1/6
f 200/1/6 199/1/6 201/1/6
f 202/1/6 203/1/6 204/1/6
f 204/1/6 203/1/6 205/1/6
