# MagicaVoxel @ Ephtracy

# group
o 

# material
mtllib Roche9.mtl
usemtl palette

# normals
vn -1 0 0
vn 1 0 0
vn 0 0 1
vn 0 0 -1
vn 0 -1 0
vn 0 1 0

# texcoords
vt 0.916016 0.5
vt 0.919922 0.5
vt 0.970703 0.5

# verts
v -0.9 0 -0.1
v -0.9 0 -0.6
v -0.9 0.2 -0.1
v -0.9 0.2 -0.6
v -0.6 0 0.5
v -0.6 0 -0.1
v -0.6 0.2 -0.1
v -0.6 0.2 -0.3
v -0.6 0.7 0.5
v -0.6 0.7 -0.3
v -0.5 0 -0.6
v -0.5 0 -0.8
v -0.5 0.2 -0.3
v -0.5 0.2 -0.6
v -0.5 0.7 -5.96046e-08
v -0.5 0.7 -0.3
v -0.5 1.8 -5.96046e-08
v -0.5 1.8 -0.8
v -0.1 0 0.8
v -0.1 0 0.5
v -0.1 0 -0.8
v -0.1 0 -0.9
v -0.1 0.7 0.5
v -0.1 0.7 0.4
v -0.1 0.7 0.2
v -0.1 0.7 -5.96046e-08
v -0.1 1 0.8
v -0.1 1 0.4
v -0.1 1.3 -0.8
v -0.1 1.3 -0.9
v -0.1 1.8 -5.96046e-08
v -0.1 1.8 -0.4
v -0.1 3 0.2
v -0.1 3 -0.4
v 0.1 0.7 0.3
v 0.1 0.7 0.2
v 0.1 2.8 0.3
v 0.1 2.8 0.2
v 0.1 0 0.4
v 0.1 0 0.3
v 0.1 0.7 0.4
v 0.1 0.7 0.3
v 0.1 1.3 -0.4
v 0.1 1.3 -0.8
v 0.1 1.8 -0.4
v 0.1 1.8 -0.8
v 0.4 1.3 -0.2
v 0.4 1.3 -0.4
v 0.4 2.8 0.2
v 0.4 2.8 -0.2
v 0.4 3 0.2
v 0.4 3 -0.4
v 0.5 0 0.8
v 0.5 0 0.4
v 0.5 0 -0.2
v 0.5 0 -0.9
v 0.5 1 0.8
v 0.5 1 0.4
v 0.5 1.3 -0.2
v 0.5 1.3 -0.9
v 0.7 0 0.3
v 0.7 0 -0.2
v 0.7 2.8 0.3
v 0.7 2.8 -0.2
v -0.1 0 0.8
v -0.1 1 0.8
v 0.5 0 0.8
v 0.5 1 0.8
v -0.6 0 0.5
v -0.6 0.7 0.5
v -0.1 0 0.5
v -0.1 0.7 0.5
v 0.1 0 0.3
v 0.1 0.7 0.3
v 0.1 2.8 0.3
v 0.7 0 0.3
v 0.7 2.8 0.3
v -0.1 0.7 0.2
v -0.1 3 0.2
v 0.1 0.7 0.2
v 0.1 2.8 0.2
v 0.4 2.8 0.2
v 0.4 3 0.2
v -0.5 0.7 -5.96046e-08
v -0.5 1.8 -5.96046e-08
v -0.1 0.7 -5.96046e-08
v -0.1 1.8 -5.96046e-08
v -0.9 0 -0.1
v -0.9 0.2 -0.1
v -0.6 0 -0.1
v -0.6 0.2 -0.1
v -0.1 0.7 0.4
v -0.1 1 0.4
v 0.1 0 0.4
v 0.1 0.7 0.4
v 0.5 0 0.4
v 0.5 1 0.4
v 0.4 1.3 -0.2
v 0.4 2.8 -0.2
v 0.5 0 -0.2
v 0.5 1.3 -0.2
v 0.7 0 -0.2
v 0.7 2.8 -0.2
v -0.6 0.2 -0.3
v -0.6 0.7 -0.3
v -0.5 0.2 -0.3
v -0.5 0.7 -0.3
v -0.1 1.8 -0.4
v -0.1 3 -0.4
v 0.1 1.3 -0.4
v 0.1 1.8 -0.4
v 0.4 1.3 -0.4
v 0.4 3 -0.4
v -0.9 0 -0.6
v -0.9 0.2 -0.6
v -0.5 0 -0.6
v -0.5 0.2 -0.6
v -0.5 0 -0.8
v -0.5 1.8 -0.8
v -0.1 0 -0.8
v -0.1 1.3 -0.8
v 0.1 1.3 -0.8
v 0.1 1.8 -0.8
v -0.1 0 -0.9
v -0.1 1.3 -0.9
v 0.5 0 -0.9
v 0.5 1.3 -0.9
v -0.1 0 0.8
v 0.5 0 0.8
v -0.6 0 0.5
v -0.1 0 0.5
v 0.1 0 0.5
v 0.1 0 0.4
v 0.5 0 0.4
v 0.1 0 0.3
v 0.7 0 0.3
v -0.1 0 0.2
v 0.4 0 0.2
v -0.9 0 -0.1
v -0.6 0 -0.1
v 0.4 0 -0.1
v 0.5 0 -0.1
v 0.5 0 -0.2
v 0.7 0 -0.2
v -0.6 0 -0.3
v -0.5 0 -0.3
v -0.1 0 -0.4
v 0.1 0 -0.4
v 0.4 0 -0.4
v -0.9 0 -0.6
v -0.5 0 -0.6
v -0.5 0 -0.8
v -0.1 0 -0.8
v 0.1 0 -0.8
v -0.1 0 -0.9
v 0.5 0 -0.9
v -0.9 0.2 -0.1
v -0.6 0.2 -0.1
v -0.6 0.2 -0.3
v -0.5 0.2 -0.3
v -0.9 0.2 -0.6
v -0.5 0.2 -0.6
v -0.6 0.7 0.5
v -0.1 0.7 0.5
v -0.1 0.7 0.4
v 0.1 0.7 0.4
v 0.1 0.7 0.3
v -0.1 0.7 0.2
v 0.1 0.7 0.2
v -0.5 0.7 -5.96046e-08
v -0.1 0.7 -5.96046e-08
v -0.6 0.7 -0.3
v -0.5 0.7 -0.3
v -0.1 1 0.8
v 0.5 1 0.8
v -0.1 1 0.4
v 0.5 1 0.4
v 0.4 1.3 -0.2
v 0.5 1.3 -0.2
v 0.1 1.3 -0.4
v 0.4 1.3 -0.4
v -0.1 1.3 -0.8
v 0.1 1.3 -0.8
v -0.1 1.3 -0.9
v 0.5 1.3 -0.9
v -0.5 1.8 -5.96046e-08
v -0.1 1.8 -5.96046e-08
v -0.1 1.8 -0.4
v 0.1 1.8 -0.4
v -0.5 1.8 -0.8
v 0.1 1.8 -0.8
v 0.1 2.8 0.3
v 0.7 2.8 0.3
v 0.1 2.8 0.2
v 0.4 2.8 0.2
v 0.4 2.8 -0.2
v 0.7 2.8 -0.2
v -0.1 3 0.2
v 0.4 3 0.2
v -0.1 3 -0.4
v 0.4 3 -0.4

# faces
f 3/1/1 2/1/1 1/1/1
f 4/1/1 2/1/1 3/1/1
f 7/3/1 6/3/1 5/3/1
f 9/3/1 7/3/1 5/3/1
f 9/3/1 8/3/1 7/3/1
f 10/3/1 8/3/1 9/3/1
f 14/3/1 12/3/1 11/3/1
f 16/3/1 14/3/1 13/3/1
f 17/3/1 16/3/1 15/3/1
f 18/3/1 12/3/1 14/3/1
f 18/3/1 16/3/1 17/3/1
f 18/3/1 14/3/1 16/3/1
f 23/1/1 20/1/1 19/1/1
f 27/1/1 23/1/1 19/1/1
f 27/1/1 24/1/1 23/1/1
f 28/1/1 24/1/1 27/1/1
f 29/1/1 22/1/1 21/1/1
f 30/1/1 22/1/1 29/1/1
f 31/2/1 26/2/1 25/2/1
f 33/2/1 31/2/1 25/2/1
f 33/2/1 32/2/1 31/2/1
f 34/2/1 32/2/1 33/2/1
f 37/3/1 36/3/1 35/3/1
f 38/3/1 36/3/1 37/3/1
f 39/3/2 40/3/2 41/3/2
f 41/3/2 40/3/2 42/3/2
f 43/3/2 44/3/2 45/3/2
f 45/3/2 44/3/2 46/3/2
f 47/2/2 48/2/2 50/2/2
f 49/2/2 50/2/2 51/2/2
f 50/2/2 48/2/2 52/2/2
f 51/2/2 50/2/2 52/2/2
f 53/1/2 54/1/2 57/1/2
f 57/1/2 54/1/2 58/1/2
f 55/1/2 56/1/2 59/1/2
f 59/1/2 56/1/2 60/1/2
f 61/3/2 62/3/2 63/3/2
f 63/3/2 62/3/2 64/3/2
f 67/1/3 66/1/3 65/1/3
f 68/1/3 66/1/3 67/1/3
f 71/3/3 70/3/3 69/3/3
f 72/3/3 70/3/3 71/3/3
f 76/3/3 74/3/3 73/3/3
f 76/3/3 75/3/3 74/3/3
f 77/3/3 75/3/3 76/3/3
f 80/2/3 79/2/3 78/2/3
f 81/2/3 79/2/3 80/2/3
f 82/2/3 79/2/3 81/2/3
f 83/2/3 79/2/3 82/2/3
f 86/3/3 85/3/3 84/3/3
f 87/3/3 85/3/3 86/3/3
f 90/1/3 89/1/3 88/1/3
f 91/1/3 89/1/3 90/1/3
f 92/1/4 93/1/4 95/1/4
f 94/1/4 95/1/4 96/1/4
f 95/1/4 93/1/4 97/1/4
f 96/1/4 95/1/4 97/1/4
f 98/3/4 99/3/4 101/3/4
f 100/3/4 101/3/4 102/3/4
f 101/3/4 99/3/4 103/3/4
f 102/3/4 101/3/4 103/3/4
f 104/3/4 105/3/4 106/3/4
f 106/3/4 105/3/4 107/3/4
f 108/2/4 109/2/4 111/2/4
f 110/2/4 111/2/4 112/2/4
f 111/2/4 109/2/4 113/2/4
f 112/2/4 111/2/4 113/2/4
f 114/1/4 115/1/4 116/1/4
f 116/1/4 115/1/4 117/1/4
f 118/3/4 119/3/4 120/3/4
f 120/3/4 119/3/4 121/3/4
f 121/3/4 119/3/4 122/3/4
f 122/3/4 119/3/4 123/3/4
f 124/1/4 125/1/4 126/1/4
f 126/1/4 125/1/4 127/1/4
f 131/1/5 129/1/5 128/1/5
f 132/1/5 129/1/5 131/1/5
f 133/3/5 131/3/5 130/3/5
f 133/1/5 129/1/5 132/1/5
f 133/3/5 132/3/5 131/3/5
f 134/1/5 129/1/5 133/1/5
f 135/3/5 133/3/5 130/3/5
f 137/3/5 135/3/5 130/3/5
f 137/3/5 136/3/5 135/3/5
f 138/3/5 136/3/5 137/3/5
f 140/3/5 137/3/5 130/3/5
f 141/3/5 136/3/5 138/3/5
f 141/2/5 138/2/5 137/2/5
f 142/3/5 136/3/5 141/3/5
f 143/1/5 142/1/5 141/1/5
f 143/3/5 136/3/5 142/3/5
f 144/3/5 136/3/5 143/3/5
f 145/1/5 140/1/5 139/1/5
f 145/3/5 137/3/5 140/3/5
f 146/3/5 137/3/5 145/3/5
f 147/2/5 141/2/5 137/2/5
f 147/3/5 137/3/5 146/3/5
f 148/2/5 141/2/5 147/2/5
f 149/1/5 143/1/5 141/1/5
f 149/2/5 141/2/5 148/2/5
f 150/1/5 146/1/5 145/1/5
f 150/1/5 145/1/5 139/1/5
f 151/3/5 148/3/5 147/3/5
f 151/1/5 146/1/5 150/1/5
f 151/3/5 147/3/5 146/3/5
f 152/3/5 148/3/5 151/3/5
f 153/3/5 148/3/5 152/3/5
f 154/1/5 149/1/5 148/1/5
f 154/3/5 148/3/5 153/3/5
f 155/1/5 154/1/5 153/1/5
f 156/1/5 143/1/5 149/1/5
f 156/1/5 154/1/5 155/1/5
f 156/1/5 149/1/5 154/1/5
f 157/1/6 158/1/6 159/1/6
f 157/1/6 159/1/6 161/1/6
f 159/1/6 160/1/6 161/1/6
f 161/1/6 160/1/6 162/1/6
f 163/3/6 164/3/6 165/3/6
f 165/3/6 166/3/6 167/3/6
f 163/3/6 165/3/6 168/3/6
f 165/3/6 167/3/6 168/3/6
f 168/3/6 167/3/6 169/3/6
f 163/3/6 168/3/6 170/3/6
f 170/3/6 168/3/6 171/3/6
f 163/3/6 170/3/6 172/3/6
f 172/3/6 170/3/6 173/3/6
f 174/1/6 175/1/6 176/1/6
f 176/1/6 175/1/6 177/1/6
f 178/1/6 179/1/6 181/1/6
f 180/1/6 181/1/6 183/1/6
f 182/1/6 183/1/6 184/1/6
f 181/1/6 179/1/6 185/1/6
f 184/1/6 183/1/6 185/1/6
f 183/1/6 181/1/6 185/1/6
f 186/3/6 187/3/6 188/3/6
f 186/3/6 188/3/6 190/3/6
f 188/3/6 189/3/6 190/3/6
f 190/3/6 189/3/6 191/3/6
f 192/3/6 193/3/6 194/3/6
f 194/3/6 193/3/6 195/3/6
f 195/3/6 193/3/6 196/3/6
f 196/3/6 193/3/6 197/3/6
f 198/2/6 199/2/6 200/2/6
f 200/2/6 199/2/6 201/2/6
