# MagicaVoxel @ Ephtracy

# group
o 

# material
mtllib Roche3.mtl
usemtl palette

# normals
vn -1 0 0
vn 1 0 0
vn 0 0 1
vn 0 0 -1
vn 0 -1 0
vn 0 1 0

# texcoords
vt 0.916016 0.5
vt 0.919922 0.5
vt 0.970703 0.5

# verts
v -0.9 0 0.9
v -0.9 0 0.7
v -0.9 0 0.5
v -0.9 0 0
v -0.9 0.1 0.9
v -0.9 0.1 0.7
v -0.9 0.5 0.5
v -0.9 0.5 0
v -0.8 0 0
v -0.8 0 -0.6
v -0.8 0 -0.7
v -0.8 0.1 -0.6
v -0.8 0.1 -0.7
v -0.8 0.5 0.1
v -0.8 0.5 0
v -0.8 0.6 -0.4
v -0.8 0.6 -0.6
v -0.8 0.7 -0.4
v -0.8 0.7 -0.5
v -0.8 0.8 -0.5
v -0.8 0.8 -0.6
v -0.8 1.7 0
v -0.8 1.7 -0.2
v -0.8 1.8 0.1
v -0.8 1.8 0
v -0.8 1.9 0.1
v -0.8 1.9 0
v -0.8 2 0.1
v -0.8 2 0
v -0.8 2 -0.2
v -0.8 2 -0.7
v -0.6 0 0.8
v -0.6 0 0.5
v -0.6 0.5 0.5
v -0.6 0.5 0.1
v -0.6 1.1 0.8
v -0.6 1.1 0.1
v -0.5 1.1 0.2
v -0.5 1.1 0.1
v -0.5 2 0.1
v -0.5 2 -0.3
v -0.5 2.3 0.2
v -0.5 2.3 -0.3
v -0.4 2 -0.3
v -0.4 2 -0.5
v -0.4 2.3 0
v -0.4 2.3 -0.3
v -0.4 2.9 0
v -0.4 2.9 -0.5
v -0.2 0 0.9
v -0.2 0 0.8
v -0.2 0.4 0.8
v -0.2 0.5 0.9
v -0.2 0.5 0.8
v 0.1 0 -0.6
v 0.1 0 -0.8
v 0.1 0.2 -0.6
v 0.1 0.2 -0.8
v 0.5 0 0.7
v 0.5 0 0.5
v 0.5 0.3 0.7
v 0.5 0.3 0.5
v -0.7 0 0.9
v -0.7 0 0.7
v -0.7 0.1 0.9
v -0.7 0.1 0.7
v -0.1 0 -0.6
v -0.1 0 -0.7
v -0.1 1.1 0.2
v -0.1 1.1 0.1
v -0.1 1.3 -0.5
v -0.1 1.3 -0.6
v -0.1 2 0.1
v -0.1 2 0
v -0.1 2 -0.5
v -0.1 2 -0.7
v -0.1 2.3 0.2
v -0.1 2.3 0
v 0 1.3 -0.4
v 0 1.3 -0.5
v 0 1.8 -0.1
v 0 1.8 -0.4
v 0 2 0
v 0 2 -0.1
v 0 2.7 -0.4
v 0 2.7 -0.5
v 0 2.9 0
v 0 2.9 -0.4
v 0 2.9 -0.5
v 0.2 1.3 0.1
v 0.2 1.3 -0.1
v 0.2 1.8 -0.1
v 0.2 2 0.1
v 0.2 2 -0.1
v 0.3 0 0.7
v 0.3 0 0.5
v 0.3 0.5 0.8
v 0.3 0.5 0.7
v 0.3 0.8 0.5
v 0.3 0.8 0.1
v 0.3 0.9 0.4
v 0.3 0.9 0.3
v 0.3 1 0.3
v 0.3 1 0.2
v 0.3 1.1 0.8
v 0.3 1.1 0.4
v 0.3 1.1 0.2
v 0.3 1.1 0.1
v 0.3 1.3 -0.1
v 0.3 1.3 -0.4
v 0.3 1.8 -0.1
v 0.3 1.8 -0.4
v 0.4 0 0.9
v 0.4 0 0.7
v 0.4 0.5 0.9
v 0.4 0.5 0.7
v 0.5 0 -0.2
v 0.5 0 -0.4
v 0.5 0.2 -0.4
v 0.5 0.2 -0.6
v 0.5 0.8 0.1
v 0.5 0.8 -0.2
v 0.5 1.3 0.1
v 0.5 1.3 -0.6
v 0.6 0 0.2
v 0.6 0 -0.2
v 0.6 0 -0.4
v 0.6 0 -0.8
v 0.6 0.2 -0.4
v 0.6 0.2 -0.8
v 0.6 0.3 0.5
v 0.6 0.3 0.2
v 0.6 0.8 0.5
v 0.6 0.8 -0.2
v 0.8 0 0.7
v 0.8 0 0.2
v 0.8 0.3 0.7
v 0.8 0.3 0.2
v -0.9 0 0.9
v -0.9 0.1 0.9
v -0.7 0 0.9
v -0.7 0.1 0.9
v -0.2 0 0.9
v -0.2 0.5 0.9
v -0.1 0.3 0.9
v -0.1 0.4 0.9
v 0 0.3 0.9
v 0 0.4 0.9
v 0.4 0 0.9
v 0.4 0.5 0.9
v -0.6 0 0.8
v -0.6 1.1 0.8
v -0.3 0.4 0.8
v -0.3 0.6 0.8
v -0.2 0 0.8
v -0.2 0.4 0.8
v -0.2 0.5 0.8
v -0.1 0.5 0.8
v -0.1 0.6 0.8
v 0.3 0.5 0.8
v 0.3 1.1 0.8
v 0.5 0 0.7
v 0.5 0.3 0.7
v 0.8 0 0.7
v 0.8 0.3 0.7
v -0.9 0 0.5
v -0.9 0.5 0.5
v -0.6 0 0.5
v -0.6 0.5 0.5
v 0.3 0 0.5
v 0.3 0.8 0.5
v 0.5 0 0.5
v 0.5 0.3 0.5
v 0.6 0.3 0.5
v 0.6 0.8 0.5
v -0.5 1.1 0.2
v -0.5 2.3 0.2
v -0.1 1.1 0.2
v -0.1 2.3 0.2
v -0.8 0.5 0.1
v -0.8 1.8 0.1
v -0.8 1.9 0.1
v -0.8 2 0.1
v -0.7 1.8 0.1
v -0.7 1.9 0.1
v -0.6 0.5 0.1
v -0.6 1.1 0.1
v -0.5 1.1 0.1
v -0.5 2 0.1
v -0.1 1.1 0.1
v -0.1 2 0.1
v 0.2 1.3 0.1
v 0.2 2 0.1
v 0.3 0.8 0.1
v 0.3 1.1 0.1
v 0.5 0.8 0.1
v 0.5 1.3 0.1
v -0.4 2.3 0
v -0.4 2.9 0
v -0.1 2 0
v -0.1 2.3 0
v 0 2 0
v 0 2.9 0
v 0.2 1.3 -0.1
v 0.2 1.8 -0.1
v 0.3 1.3 -0.1
v 0.3 1.8 -0.1
v 0.5 0 -0.4
v 0.5 0.2 -0.4
v 0.6 0 -0.4
v 0.6 0.2 -0.4
v -0.9 0 0.7
v -0.9 0.1 0.7
v -0.7 0 0.7
v -0.7 0.1 0.7
v 0.3 0 0.7
v 0.3 0.5 0.7
v 0.4 0 0.7
v 0.4 0.5 0.7
v 0.6 0 0.2
v 0.6 0.3 0.2
v 0.8 0 0.2
v 0.8 0.3 0.2
v -0.9 0 0
v -0.9 0.5 0
v -0.8 0 0
v -0.8 0.5 0
v 0 1.8 -0.1
v 0 2 -0.1
v 0.2 1.8 -0.1
v 0.2 2 -0.1
v 0.5 0 -0.2
v 0.5 0.8 -0.2
v 0.6 0 -0.2
v 0.6 0.8 -0.2
v -0.5 2 -0.3
v -0.5 2.3 -0.3
v -0.4 2 -0.3
v -0.4 2.3 -0.3
v 0 1.3 -0.4
v 0 1.8 -0.4
v 0.3 1.3 -0.4
v 0.3 1.8 -0.4
v -0.4 2 -0.5
v -0.4 2.9 -0.5
v -0.2 2.7 -0.5
v -0.2 2.8 -0.5
v -0.1 1.3 -0.5
v -0.1 2 -0.5
v -0.1 2.8 -0.5
v -0.1 2.9 -0.5
v 0 1.3 -0.5
v 0 2.7 -0.5
v 0 2.9 -0.5
v -0.1 0 -0.6
v -0.1 1.3 -0.6
v 0.1 0 -0.6
v 0.1 0.2 -0.6
v 0.1 0.8 -0.6
v 0.1 1 -0.6
v 0.2 0.7 -0.6
v 0.2 0.8 -0.6
v 0.2 0.9 -0.6
v 0.2 1 -0.6
v 0.3 0.7 -0.6
v 0.3 0.9 -0.6
v 0.3 1 -0.6
v 0.4 0.9 -0.6
v 0.4 1 -0.6
v 0.5 0.2 -0.6
v 0.5 1.3 -0.6
v -0.8 0 -0.7
v -0.8 0.1 -0.7
v -0.8 2 -0.7
v -0.6 0.1 -0.7
v -0.6 0.2 -0.7
v -0.5 0 -0.7
v -0.5 0.1 -0.7
v -0.5 0.2 -0.7
v -0.5 0.3 -0.7
v -0.4 0 -0.7
v -0.4 0.1 -0.7
v -0.4 0.3 -0.7
v -0.3 0 -0.7
v -0.3 0.1 -0.7
v -0.1 0 -0.7
v -0.1 2 -0.7
v 0.1 0 -0.8
v 0.1 0.2 -0.8
v 0.6 0 -0.8
v 0.6 0.2 -0.8
v -0.9 0 0.9
v -0.7 0 0.9
v -0.2 0 0.9
v 0.4 0 0.9
v -0.6 0 0.8
v -0.2 0 0.8
v -0.9 0 0.7
v -0.7 0 0.7
v 0.3 0 0.7
v 0.4 0 0.7
v 0.5 0 0.7
v 0.8 0 0.7
v -0.9 0 0.5
v -0.6 0 0.5
v 0.3 0 0.5
v 0.5 0 0.5
v 0.6 0 0.5
v 0.6 0 0.2
v 0.8 0 0.2
v -0.8 0 0.1
v -0.6 0 0.1
v -0.9 0 0
v -0.8 0 0
v 0.5 0 -0.2
v 0.6 0 -0.2
v 0.5 0 -0.4
v 0.6 0 -0.4
v -0.8 0 -0.6
v -0.5 0 -0.6
v -0.4 0 -0.6
v -0.3 0 -0.6
v -0.1 0 -0.6
v 0.1 0 -0.6
v 0.5 0 -0.6
v -0.8 0 -0.7
v -0.5 0 -0.7
v -0.4 0 -0.7
v -0.3 0 -0.7
v -0.1 0 -0.7
v 0.1 0 -0.8
v 0.6 0 -0.8
v -0.9 0.1 0.9
v -0.7 0.1 0.9
v -0.9 0.1 0.7
v -0.7 0.1 0.7
v 0.5 0.2 -0.4
v 0.6 0.2 -0.4
v 0.1 0.2 -0.6
v 0.5 0.2 -0.6
v 0.1 0.2 -0.8
v 0.6 0.2 -0.8
v 0.5 0.3 0.7
v 0.8 0.3 0.7
v 0.5 0.3 0.5
v 0.6 0.3 0.5
v 0.6 0.3 0.2
v 0.8 0.3 0.2
v -0.2 0.5 0.9
v 0.4 0.5 0.9
v -0.2 0.5 0.8
v -0.1 0.5 0.8
v 0.3 0.5 0.8
v 0.3 0.5 0.7
v 0.4 0.5 0.7
v -0.9 0.5 0.5
v -0.6 0.5 0.5
v -0.8 0.5 0.1
v -0.6 0.5 0.1
v -0.9 0.5 0
v -0.8 0.5 0
v 0.3 0.8 0.5
v 0.6 0.8 0.5
v 0.3 0.8 0.1
v 0.5 0.8 0.1
v 0.5 0.8 -0.2
v 0.6 0.8 -0.2
v -0.6 1.1 0.8
v 0.3 1.1 0.8
v 0.2 1.1 0.4
v 0.3 1.1 0.4
v 0.1 1.1 0.3
v 0.2 1.1 0.3
v -0.5 1.1 0.2
v -0.1 1.1 0.2
v 0.1 1.1 0.2
v 0.3 1.1 0.2
v -0.6 1.1 0.1
v -0.5 1.1 0.1
v -0.1 1.1 0.1
v 0.3 1.1 0.1
v 0.2 1.3 0.1
v 0.5 1.3 0.1
v 0.2 1.3 -0.1
v 0.3 1.3 -0.1
v 0 1.3 -0.4
v 0.3 1.3 -0.4
v -0.1 1.3 -0.5
v 0 1.3 -0.5
v -0.1 1.3 -0.6
v 0.5 1.3 -0.6
v 0 1.8 -0.1
v 0.2 1.8 -0.1
v 0.3 1.8 -0.1
v 0 1.8 -0.4
v 0.3 1.8 -0.4
v -0.8 2 0.1
v -0.5 2 0.1
v -0.1 2 0.1
v 0.2 2 0.1
v -0.8 2 0
v -0.7 2 0
v -0.1 2 0
v 0 2 0
v 0 2 -0.1
v 0.2 2 -0.1
v -0.8 2 -0.2
v -0.7 2 -0.2
v -0.5 2 -0.3
v -0.4 2 -0.3
v -0.4 2 -0.5
v -0.1 2 -0.5
v -0.8 2 -0.7
v -0.1 2 -0.7
v -0.5 2.3 0.2
v -0.1 2.3 0.2
v -0.4 2.3 0
v -0.1 2.3 0
v -0.5 2.3 -0.3
v -0.4 2.3 -0.3
v -0.4 2.9 0
v 0 2.9 0
v -0.1 2.9 -0.4
v 0 2.9 -0.4
v -0.4 2.9 -0.5
v -0.1 2.9 -0.5
v 0 2.9 -0.5

# faces
f 5/3/1 2/3/1 1/3/1
f 6/3/1 2/3/1 5/3/1
f 7/3/1 4/3/1 3/3/1
f 8/3/1 4/3/1 7/3/1
f 12/1/1 10/1/1 9/1/1
f 12/2/1 11/2/1 10/2/1
f 13/2/1 11/2/1 12/2/1
f 15/1/1 12/1/1 9/1/1
f 15/1/1 13/1/1 12/1/1
f 16/1/1 13/1/1 15/1/1
f 16/1/1 15/1/1 14/1/1
f 17/1/1 13/1/1 16/1/1
f 18/1/1 16/1/1 14/1/1
f 18/2/1 17/2/1 16/2/1
f 19/2/1 17/2/1 18/2/1
f 20/1/1 19/1/1 18/1/1
f 20/2/1 17/2/1 19/2/1
f 21/1/1 13/1/1 17/1/1
f 21/2/1 17/2/1 20/2/1
f 22/1/1 20/1/1 18/1/1
f 22/1/1 18/1/1 14/1/1
f 22/1/1 21/1/1 20/1/1
f 23/1/1 21/1/1 22/1/1
f 24/1/1 22/1/1 14/1/1
f 25/2/1 23/2/1 22/2/1
f 25/1/1 22/1/1 24/1/1
f 26/2/1 25/2/1 24/2/1
f 27/2/1 23/2/1 25/2/1
f 27/2/1 25/2/1 26/2/1
f 28/1/1 27/1/1 26/1/1
f 29/2/1 23/2/1 27/2/1
f 29/1/1 27/1/1 28/1/1
f 30/1/1 21/1/1 23/1/1
f 30/2/1 23/2/1 29/2/1
f 31/1/1 13/1/1 21/1/1
f 31/1/1 21/1/1 30/1/1
f 34/1/1 33/1/1 32/1/1
f 36/1/1 34/1/1 32/1/1
f 36/1/1 35/1/1 34/1/1
f 37/1/1 35/1/1 36/1/1
f 40/3/1 39/3/1 38/3/1
f 42/3/1 40/3/1 38/3/1
f 42/3/1 41/3/1 40/3/1
f 43/3/1 41/3/1 42/3/1
f 47/1/1 45/1/1 44/1/1
f 48/1/1 47/1/1 46/1/1
f 49/1/1 45/1/1 47/1/1
f 49/1/1 47/1/1 48/1/1
f 52/1/1 51/1/1 50/1/1
f 53/1/1 52/1/1 50/1/1
f 54/1/1 52/1/1 53/1/1
f 57/3/1 56/3/1 55/3/1
f 58/3/1 56/3/1 57/3/1
f 61/3/1 60/3/1 59/3/1
f 62/3/1 60/3/1 61/3/1
f 63/3/2 64/3/2 65/3/2
f 65/3/2 64/3/2 66/3/2
f 67/1/2 68/1/2 72/1/2
f 69/3/2 70/3/2 73/3/2
f 71/1/2 72/1/2 75/1/2
f 72/1/2 68/1/2 76/1/2
f 75/1/2 72/1/2 76/1/2
f 73/3/2 74/3/2 77/3/2
f 69/3/2 73/3/2 77/3/2
f 77/3/2 74/3/2 78/3/2
f 79/1/2 80/1/2 82/1/2
f 81/1/2 82/1/2 84/1/2
f 82/1/2 80/1/2 85/1/2
f 83/1/2 84/1/2 85/1/2
f 84/1/2 82/1/2 85/1/2
f 85/1/2 80/1/2 86/1/2
f 83/1/2 85/1/2 87/1/2
f 85/2/2 86/2/2 88/2/2
f 87/1/2 85/1/2 88/1/2
f 88/2/2 86/2/2 89/2/2
f 90/1/2 91/1/2 92/1/2
f 90/1/2 92/1/2 93/1/2
f 93/1/2 92/1/2 94/1/2
f 95/1/2 96/1/2 98/1/2
f 98/1/2 96/1/2 99/1/2
f 97/1/2 98/1/2 99/1/2
f 99/1/2 100/1/2 101/1/2
f 101/1/2 100/1/2 102/1/2
f 101/2/2 102/2/2 103/2/2
f 102/1/2 100/1/2 103/1/2
f 103/1/2 100/1/2 104/1/2
f 97/1/2 99/1/2 105/1/2
f 99/1/2 101/1/2 105/1/2
f 103/2/2 104/2/2 106/2/2
f 105/1/2 101/1/2 106/1/2
f 101/2/2 103/2/2 106/2/2
f 104/1/2 100/1/2 107/1/2
f 106/2/2 104/2/2 107/2/2
f 107/1/2 100/1/2 108/1/2
f 109/3/2 110/3/2 111/3/2
f 111/3/2 110/3/2 112/3/2
f 113/1/2 114/1/2 115/1/2
f 115/1/2 114/1/2 116/1/2
f 117/1/2 118/1/2 119/1/2
f 117/1/2 119/1/2 122/1/2
f 119/1/2 120/1/2 122/1/2
f 121/1/2 122/1/2 123/1/2
f 122/1/2 120/1/2 124/1/2
f 123/1/2 122/1/2 124/1/2
f 127/3/2 128/3/2 129/3/2
f 129/3/2 128/3/2 130/3/2
f 125/1/2 126/1/2 132/1/2
f 131/1/2 132/1/2 133/1/2
f 132/1/2 126/1/2 134/1/2
f 133/1/2 132/1/2 134/1/2
f 135/3/2 136/3/2 137/3/2
f 137/3/2 136/3/2 138/3/2
f 141/3/3 140/3/3 139/3/3
f 142/3/3 140/3/3 141/3/3
f 145/1/3 144/1/3 143/1/3
f 146/1/3 144/1/3 145/1/3
f 147/1/3 145/1/3 143/1/3
f 147/2/3 146/2/3 145/2/3
f 148/1/3 144/1/3 146/1/3
f 148/2/3 146/2/3 147/2/3
f 149/1/3 147/1/3 143/1/3
f 149/1/3 148/1/3 147/1/3
f 150/1/3 144/1/3 148/1/3
f 150/1/3 148/1/3 149/1/3
f 153/1/3 152/1/3 151/1/3
f 154/1/3 152/1/3 153/1/3
f 155/1/3 153/1/3 151/1/3
f 156/2/3 154/2/3 153/2/3
f 156/1/3 153/1/3 155/1/3
f 157/2/3 154/2/3 156/2/3
f 158/2/3 154/2/3 157/2/3
f 159/1/3 152/1/3 154/1/3
f 159/2/3 154/2/3 158/2/3
f 160/1/3 159/1/3 158/1/3
f 161/1/3 152/1/3 159/1/3
f 161/1/3 159/1/3 160/1/3
f 164/3/3 163/3/3 162/3/3
f 165/3/3 163/3/3 164/3/3
f 168/3/3 167/3/3 166/3/3
f 169/3/3 167/3/3 168/3/3
f 172/1/3 171/1/3 170/1/3
f 173/1/3 171/1/3 172/1/3
f 174/1/3 171/1/3 173/1/3
f 175/1/3 171/1/3 174/1/3
f 178/3/3 177/3/3 176/3/3
f 179/3/3 177/3/3 178/3/3
f 184/1/3 181/1/3 180/1/3
f 184/2/3 182/2/3 181/2/3
f 185/1/3 183/1/3 182/1/3
f 185/2/3 182/2/3 184/2/3
f 186/1/3 184/1/3 180/1/3
f 186/1/3 185/1/3 184/1/3
f 187/1/3 185/1/3 186/1/3
f 188/1/3 185/1/3 187/1/3
f 189/1/3 183/1/3 185/1/3
f 189/1/3 185/1/3 188/1/3
f 192/1/3 191/1/3 190/1/3
f 193/1/3 191/1/3 192/1/3
f 195/1/3 192/1/3 190/1/3
f 196/1/3 195/1/3 194/1/3
f 197/1/3 192/1/3 195/1/3
f 197/1/3 195/1/3 196/1/3
f 201/1/3 199/1/3 198/1/3
f 202/1/3 201/1/3 200/1/3
f 203/1/3 199/1/3 201/1/3
f 203/1/3 201/1/3 202/1/3
f 206/3/3 205/3/3 204/3/3
f 207/3/3 205/3/3 206/3/3
f 210/3/3 209/3/3 208/3/3
f 211/3/3 209/3/3 210/3/3
f 212/3/4 213/3/4 214/3/4
f 214/3/4 213/3/4 215/3/4
f 216/1/4 217/1/4 218/1/4
f 218/1/4 217/1/4 219/1/4
f 220/3/4 221/3/4 222/3/4
f 222/3/4 221/3/4 223/3/4
f 224/3/4 225/3/4 226/3/4
f 226/3/4 225/3/4 227/3/4
f 228/1/4 229/1/4 230/1/4
f 230/1/4 229/1/4 231/1/4
f 232/1/4 233/1/4 234/1/4
f 234/1/4 233/1/4 235/1/4
f 236/3/4 237/3/4 238/3/4
f 238/3/4 237/3/4 239/3/4
f 240/3/4 241/3/4 242/3/4
f 242/3/4 241/3/4 243/3/4
f 244/1/4 245/1/4 246/1/4
f 246/1/4 245/1/4 247/1/4
f 244/1/4 246/1/4 249/1/4
f 247/1/4 245/1/4 250/1/4
f 246/2/4 247/2/4 250/2/4
f 250/1/4 245/1/4 251/1/4
f 248/1/4 249/1/4 252/1/4
f 249/1/4 246/1/4 253/1/4
f 252/1/4 249/1/4 253/1/4
f 246/2/4 250/2/4 253/2/4
f 250/2/4 251/2/4 253/2/4
f 253/2/4 251/2/4 254/2/4
f 255/1/4 256/1/4 257/1/4
f 257/1/4 256/1/4 258/1/4
f 258/1/4 256/1/4 259/1/4
f 259/1/4 256/1/4 260/1/4
f 258/1/4 259/1/4 261/1/4
f 259/2/4 260/2/4 262/2/4
f 261/1/4 259/1/4 262/1/4
f 262/2/4 260/2/4 263/2/4
f 260/1/4 256/1/4 264/1/4
f 263/2/4 260/2/4 264/2/4
f 262/2/4 263/2/4 265/2/4
f 258/1/4 261/1/4 265/1/4
f 261/2/4 262/2/4 265/2/4
f 263/1/4 264/1/4 266/1/4
f 265/2/4 263/2/4 266/2/4
f 264/1/4 256/1/4 267/1/4
f 266/1/4 264/1/4 267/1/4
f 265/1/4 266/1/4 268/1/4
f 266/2/4 267/2/4 268/2/4
f 267/1/4 256/1/4 269/1/4
f 268/2/4 267/2/4 269/2/4
f 265/1/4 268/1/4 270/1/4
f 258/1/4 265/1/4 270/1/4
f 268/1/4 269/1/4 270/1/4
f 269/1/4 256/1/4 271/1/4
f 270/1/4 269/1/4 271/1/4
f 272/2/4 273/2/4 275/2/4
f 273/1/4 274/1/4 275/1/4
f 275/1/4 274/1/4 276/1/4
f 272/2/4 275/2/4 277/2/4
f 275/2/4 276/2/4 277/2/4
f 277/2/4 276/2/4 278/2/4
f 276/1/4 274/1/4 279/1/4
f 278/2/4 276/2/4 279/2/4
f 279/1/4 274/1/4 280/1/4
f 277/1/4 278/1/4 281/1/4
f 278/2/4 279/2/4 282/2/4
f 281/1/4 278/1/4 282/1/4
f 279/2/4 280/2/4 282/2/4
f 280/1/4 274/1/4 283/1/4
f 282/2/4 280/2/4 283/2/4
f 281/2/4 282/2/4 284/2/4
f 282/1/4 283/1/4 285/1/4
f 284/2/4 282/2/4 285/2/4
f 284/1/4 285/1/4 286/1/4
f 283/1/4 274/1/4 287/1/4
f 286/1/4 285/1/4 287/1/4
f 285/1/4 283/1/4 287/1/4
f 288/3/4 289/3/4 290/3/4
f 290/3/4 289/3/4 291/3/4
f 297/1/5 295/1/5 294/1/5
f 298/3/5 293/3/5 292/3/5
f 299/3/5 293/3/5 298/3/5
f 300/1/5 297/1/5 296/1/5
f 300/1/5 295/1/5 297/1/5
f 301/1/5 295/1/5 300/1/5
f 305/1/5 300/1/5 296/1/5
f 306/1/5 300/1/5 305/1/5
f 307/3/5 303/3/5 302/3/5
f 308/3/5 303/3/5 307/3/5
f 309/1/5 306/1/5 305/1/5
f 309/3/5 303/3/5 308/3/5
f 309/1/5 308/1/5 307/1/5
f 309/1/5 307/1/5 306/1/5
f 310/3/5 303/3/5 309/3/5
f 311/3/5 305/3/5 304/3/5
f 312/1/5 309/1/5 305/1/5
f 312/3/5 305/3/5 311/3/5
f 313/3/5 311/3/5 304/3/5
f 314/1/5 312/1/5 311/1/5
f 314/3/5 311/3/5 313/3/5
f 315/1/5 309/1/5 312/1/5
f 315/1/5 312/1/5 314/1/5
f 316/1/5 309/1/5 315/1/5
f 317/1/5 315/1/5 314/1/5
f 319/1/5 317/1/5 314/1/5
f 320/1/5 317/1/5 319/1/5
f 321/1/5 317/1/5 320/1/5
f 322/1/5 317/1/5 321/1/5
f 323/1/5 317/1/5 322/1/5
f 324/1/5 317/1/5 323/1/5
f 325/3/5 318/3/5 317/3/5
f 325/1/5 317/1/5 324/1/5
f 326/2/5 320/2/5 319/2/5
f 327/1/5 321/1/5 320/1/5
f 327/2/5 320/2/5 326/2/5
f 328/2/5 322/2/5 321/2/5
f 328/1/5 321/1/5 327/1/5
f 329/1/5 323/1/5 322/1/5
f 329/2/5 322/2/5 328/2/5
f 330/1/5 323/1/5 329/1/5
f 331/3/5 325/3/5 324/3/5
f 332/3/5 318/3/5 325/3/5
f 332/3/5 325/3/5 331/3/5
f 333/3/6 334/3/6 335/3/6
f 335/3/6 334/3/6 336/3/6
f 337/3/6 338/3/6 340/3/6
f 339/3/6 340/3/6 341/3/6
f 340/3/6 338/3/6 342/3/6
f 341/3/6 340/3/6 342/3/6
f 343/3/6 344/3/6 345/3/6
f 345/3/6 344/3/6 346/3/6
f 346/3/6 344/3/6 347/3/6
f 347/3/6 344/3/6 348/3/6
f 349/1/6 350/1/6 351/1/6
f 351/1/6 350/1/6 352/1/6
f 352/1/6 350/1/6 353/1/6
f 353/1/6 350/1/6 354/1/6
f 354/1/6 350/1/6 355/1/6
f 356/3/6 357/3/6 358/3/6
f 358/3/6 357/3/6 359/3/6
f 356/3/6 358/3/6 360/3/6
f 360/3/6 358/3/6 361/3/6
f 362/1/6 363/1/6 364/1/6
f 364/1/6 363/1/6 365/1/6
f 365/1/6 363/1/6 366/1/6
f 366/1/6 363/1/6 367/1/6
f 368/1/6 369/1/6 370/1/6
f 370/1/6 369/1/6 371/1/6
f 368/1/6 370/1/6 372/1/6
f 370/2/6 371/2/6 373/2/6
f 372/1/6 370/1/6 373/1/6
f 368/1/6 372/1/6 374/1/6
f 374/1/6 372/1/6 375/1/6
f 372/2/6 373/2/6 376/2/6
f 375/1/6 372/1/6 376/1/6
f 373/2/6 371/2/6 377/2/6
f 376/2/6 373/2/6 377/2/6
f 368/1/6 374/1/6 378/1/6
f 378/1/6 374/1/6 379/1/6
f 375/1/6 376/1/6 380/1/6
f 376/1/6 377/1/6 380/1/6
f 380/1/6 377/1/6 381/1/6
f 382/1/6 383/1/6 384/1/6
f 384/1/6 383/1/6 385/1/6
f 385/1/6 383/1/6 387/1/6
f 386/1/6 387/1/6 389/1/6
f 388/1/6 389/1/6 390/1/6
f 387/1/6 383/1/6 391/1/6
f 390/1/6 389/1/6 391/1/6
f 389/1/6 387/1/6 391/1/6
f 392/3/6 393/3/6 395/3/6
f 393/3/6 394/3/6 395/3/6
f 395/3/6 394/3/6 396/3/6
f 397/1/6 398/1/6 401/1/6
f 401/1/6 398/1/6 402/1/6
f 399/1/6 400/1/6 403/1/6
f 403/1/6 400/1/6 404/1/6
f 404/1/6 400/1/6 405/1/6
f 405/1/6 400/1/6 406/1/6
f 401/2/6 402/2/6 407/2/6
f 402/1/6 398/1/6 408/1/6
f 407/2/6 402/2/6 408/2/6
f 407/1/6 408/1/6 409/1/6
f 408/1/6 398/1/6 409/1/6
f 409/1/6 410/1/6 411/1/6
f 407/1/6 409/1/6 413/1/6
f 411/1/6 412/1/6 413/1/6
f 409/1/6 411/1/6 413/1/6
f 413/1/6 412/1/6 414/1/6
f 415/3/6 416/3/6 417/3/6
f 417/3/6 416/3/6 418/3/6
f 415/3/6 417/3/6 419/3/6
f 419/3/6 417/3/6 420/3/6
f 421/1/6 422/1/6 423/1/6
f 423/1/6 422/1/6 424/1/6
f 421/1/6 423/1/6 425/1/6
f 423/2/6 424/2/6 426/2/6
f 425/1/6 423/1/6 426/1/6
f 426/2/6 424/2/6 427/2/6
