# MagicaVoxel @ Ephtracy

# group
o 

# material
mtllib Roche1.mtl
usemtl palette

# normals
vn -1 0 0
vn 1 0 0
vn 0 0 1
vn 0 0 -1
vn 0 -1 0
vn 0 1 0

# texcoords
vt 0.916016 0.5
vt 0.970703 0.5

# verts
v -0.9 0 0.9
v -0.9 0 0.7
v -0.9 0 0.5
v -0.9 0 0
v -0.9 0.1 0.9
v -0.9 0.1 0.7
v -0.9 0.5 0.5
v -0.9 0.5 0
v -0.8 0 0
v -0.8 0 -0.7
v -0.8 0.5 0.1
v -0.8 0.5 0
v -0.8 2 0.1
v -0.8 2 -0.7
v -0.6 0 0.8
v -0.6 0 0.5
v -0.6 0.5 0.5
v -0.6 0.5 0.1
v -0.6 1.1 0.8
v -0.6 1.1 0.1
v -0.5 1.1 0.2
v -0.5 1.1 0.1
v -0.5 2 0.1
v -0.5 2 -0.3
v -0.5 2.3 0.2
v -0.5 2.3 -0.3
v -0.4 2 -0.3
v -0.4 2 -0.5
v -0.4 2.3 0
v -0.4 2.3 -0.3
v -0.4 2.9 0
v -0.4 2.9 -0.5
v -0.2 0 0.9
v -0.2 0 0.8
v -0.2 0.5 0.9
v -0.2 0.5 0.8
v 0.5 0 0.7
v 0.5 0 0.5
v 0.5 0.3 0.7
v 0.5 0.3 0.5
v -0.7 0 0.9
v -0.7 0 0.7
v -0.7 0.1 0.9
v -0.7 0.1 0.7
v -0.1 0 -0.6
v -0.1 0 -0.7
v -0.1 1.1 0.2
v -0.1 1.1 0.1
v -0.1 1.3 -0.5
v -0.1 1.3 -0.6
v -0.1 2 0.1
v -0.1 2 0
v -0.1 2 -0.5
v -0.1 2 -0.7
v -0.1 2.3 0.2
v -0.1 2.3 0
v 0 1.3 -0.4
v 0 1.3 -0.5
v 0 1.8 -0.1
v 0 1.8 -0.4
v 0 2 0
v 0 2 -0.1
v 0 2.9 0
v 0 2.9 -0.5
v 0.2 1.3 0.1
v 0.2 1.3 -0.1
v 0.2 1.8 -0.1
v 0.2 2 0.1
v 0.2 2 -0.1
v 0.3 0 0.7
v 0.3 0 0.5
v 0.3 0.5 0.8
v 0.3 0.5 0.7
v 0.3 0.8 0.5
v 0.3 0.8 0.1
v 0.3 1.1 0.8
v 0.3 1.1 0.1
v 0.3 1.3 -0.1
v 0.3 1.3 -0.4
v 0.3 1.8 -0.1
v 0.3 1.8 -0.4
v 0.4 0 0.9
v 0.4 0 0.7
v 0.4 0.5 0.9
v 0.4 0.5 0.7
v 0.5 0 -0.2
v 0.5 0 -0.6
v 0.5 0.8 0.1
v 0.5 0.8 -0.2
v 0.5 1.3 0.1
v 0.5 1.3 -0.6
v 0.6 0 0.2
v 0.6 0 -0.2
v 0.6 0.3 0.5
v 0.6 0.3 0.2
v 0.6 0.8 0.5
v 0.6 0.8 -0.2
v 0.8 0 0.7
v 0.8 0 0.2
v 0.8 0.3 0.7
v 0.8 0.3 0.2
v -0.9 0 0.9
v -0.9 0.1 0.9
v -0.7 0 0.9
v -0.7 0.1 0.9
v -0.2 0 0.9
v -0.2 0.5 0.9
v 0.4 0 0.9
v 0.4 0.5 0.9
v -0.6 0 0.8
v -0.6 1.1 0.8
v -0.2 0 0.8
v -0.2 0.5 0.8
v 0.3 0.5 0.8
v 0.3 1.1 0.8
v 0.5 0 0.7
v 0.5 0.3 0.7
v 0.8 0 0.7
v 0.8 0.3 0.7
v -0.9 0 0.5
v -0.9 0.5 0.5
v -0.6 0 0.5
v -0.6 0.5 0.5
v 0.3 0 0.5
v 0.3 0.8 0.5
v 0.5 0 0.5
v 0.5 0.3 0.5
v 0.6 0.3 0.5
v 0.6 0.8 0.5
v -0.5 1.1 0.2
v -0.5 2.3 0.2
v -0.1 1.1 0.2
v -0.1 2.3 0.2
v -0.8 0.5 0.1
v -0.8 2 0.1
v -0.6 0.5 0.1
v -0.6 1.1 0.1
v -0.5 1.1 0.1
v -0.5 2 0.1
v -0.1 1.1 0.1
v -0.1 2 0.1
v 0.2 1.3 0.1
v 0.2 2 0.1
v 0.3 0.8 0.1
v 0.3 1.1 0.1
v 0.5 0.8 0.1
v 0.5 1.3 0.1
v -0.4 2.3 0
v -0.4 2.9 0
v -0.1 2 0
v -0.1 2.3 0
v 0 2 0
v 0 2.9 0
v 0.2 1.3 -0.1
v 0.2 1.8 -0.1
v 0.3 1.3 -0.1
v 0.3 1.8 -0.1
v -0.9 0 0.7
v -0.9 0.1 0.7
v -0.7 0 0.7
v -0.7 0.1 0.7
v 0.3 0 0.7
v 0.3 0.5 0.7
v 0.4 0 0.7
v 0.4 0.5 0.7
v 0.6 0 0.2
v 0.6 0.3 0.2
v 0.8 0 0.2
v 0.8 0.3 0.2
v -0.9 0 0
v -0.9 0.5 0
v -0.8 0 0
v -0.8 0.5 0
v 0 1.8 -0.1
v 0 2 -0.1
v 0.2 1.8 -0.1
v 0.2 2 -0.1
v 0.5 0 -0.2
v 0.5 0.8 -0.2
v 0.6 0 -0.2
v 0.6 0.8 -0.2
v -0.5 2 -0.3
v -0.5 2.3 -0.3
v -0.4 2 -0.3
v -0.4 2.3 -0.3
v 0 1.3 -0.4
v 0 1.8 -0.4
v 0.3 1.3 -0.4
v 0.3 1.8 -0.4
v -0.4 2 -0.5
v -0.4 2.9 -0.5
v -0.1 1.3 -0.5
v -0.1 2 -0.5
v 0 1.3 -0.5
v 0 2.9 -0.5
v -0.1 0 -0.6
v -0.1 1.3 -0.6
v 0.5 0 -0.6
v 0.5 1.3 -0.6
v -0.8 0 -0.7
v -0.8 2 -0.7
v -0.1 0 -0.7
v -0.1 2 -0.7
v -0.9 0 0.9
v -0.7 0 0.9
v -0.2 0 0.9
v 0.4 0 0.9
v -0.6 0 0.8
v -0.2 0 0.8
v -0.9 0 0.7
v -0.7 0 0.7
v 0.3 0 0.7
v 0.4 0 0.7
v 0.5 0 0.7
v 0.8 0 0.7
v -0.9 0 0.5
v -0.6 0 0.5
v 0.3 0 0.5
v 0.5 0 0.5
v 0.6 0 0.5
v 0.6 0 0.2
v 0.8 0 0.2
v -0.8 0 0.1
v -0.6 0 0.1
v -0.9 0 0
v -0.8 0 0
v 0.5 0 -0.2
v 0.6 0 -0.2
v -0.1 0 -0.6
v 0.5 0 -0.6
v -0.8 0 -0.7
v -0.1 0 -0.7
v -0.9 0.1 0.9
v -0.7 0.1 0.9
v -0.9 0.1 0.7
v -0.7 0.1 0.7
v 0.5 0.3 0.7
v 0.8 0.3 0.7
v 0.5 0.3 0.5
v 0.6 0.3 0.5
v 0.6 0.3 0.2
v 0.8 0.3 0.2
v -0.2 0.5 0.9
v 0.4 0.5 0.9
v -0.2 0.5 0.8
v 0.3 0.5 0.8
v 0.3 0.5 0.7
v 0.4 0.5 0.7
v -0.9 0.5 0.5
v -0.6 0.5 0.5
v -0.8 0.5 0.1
v -0.6 0.5 0.1
v -0.9 0.5 0
v -0.8 0.5 0
v 0.3 0.8 0.5
v 0.6 0.8 0.5
v 0.3 0.8 0.1
v 0.5 0.8 0.1
v 0.5 0.8 -0.2
v 0.6 0.8 -0.2
v -0.6 1.1 0.8
v 0.3 1.1 0.8
v -0.5 1.1 0.2
v -0.1 1.1 0.2
v -0.6 1.1 0.1
v -0.5 1.1 0.1
v -0.1 1.1 0.1
v 0.3 1.1 0.1
v 0.2 1.3 0.1
v 0.5 1.3 0.1
v 0.2 1.3 -0.1
v 0.3 1.3 -0.1
v 0 1.3 -0.4
v 0.3 1.3 -0.4
v -0.1 1.3 -0.5
v 0 1.3 -0.5
v -0.1 1.3 -0.6
v 0.5 1.3 -0.6
v 0 1.8 -0.1
v 0.2 1.8 -0.1
v 0.3 1.8 -0.1
v 0 1.8 -0.4
v 0.3 1.8 -0.4
v -0.8 2 0.1
v -0.5 2 0.1
v -0.1 2 0.1
v 0.2 2 0.1
v -0.1 2 0
v 0 2 0
v 0 2 -0.1
v 0.2 2 -0.1
v -0.5 2 -0.3
v -0.4 2 -0.3
v -0.4 2 -0.5
v -0.1 2 -0.5
v -0.8 2 -0.7
v -0.1 2 -0.7
v -0.5 2.3 0.2
v -0.1 2.3 0.2
v -0.4 2.3 0
v -0.1 2.3 0
v -0.5 2.3 -0.3
v -0.4 2.3 -0.3
v -0.4 2.9 0
v 0 2.9 0
v -0.4 2.9 -0.5
v 0 2.9 -0.5

# faces
f 5/1/1 2/1/1 1/1/1
f 6/1/1 2/1/1 5/1/1
f 7/1/1 4/1/1 3/1/1
f 8/1/1 4/1/1 7/1/1
f 12/2/1 10/2/1 9/2/1
f 13/2/1 12/2/1 11/2/1
f 14/2/1 10/2/1 12/2/1
f 14/2/1 12/2/1 13/2/1
f 17/2/1 16/2/1 15/2/1
f 19/2/1 17/2/1 15/2/1
f 19/2/1 18/2/1 17/2/1
f 20/2/1 18/2/1 19/2/1
f 23/1/1 22/1/1 21/1/1
f 25/1/1 23/1/1 21/1/1
f 25/1/1 24/1/1 23/1/1
f 26/1/1 24/1/1 25/1/1
f 30/2/1 28/2/1 27/2/1
f 31/2/1 30/2/1 29/2/1
f 32/2/1 28/2/1 30/2/1
f 32/2/1 30/2/1 31/2/1
f 35/2/1 34/2/1 33/2/1
f 36/2/1 34/2/1 35/2/1
f 39/1/1 38/1/1 37/1/1
f 40/1/1 38/1/1 39/1/1
f 41/1/2 42/1/2 43/1/2
f 43/1/2 42/1/2 44/1/2
f 45/2/2 46/2/2 50/2/2
f 47/1/2 48/1/2 51/1/2
f 49/2/2 50/2/2 53/2/2
f 50/2/2 46/2/2 54/2/2
f 53/2/2 50/2/2 54/2/2
f 51/1/2 52/1/2 55/1/2
f 47/1/2 51/1/2 55/1/2
f 55/1/2 52/1/2 56/1/2
f 57/2/2 58/2/2 60/2/2
f 59/2/2 60/2/2 62/2/2
f 61/2/2 62/2/2 63/2/2
f 60/2/2 58/2/2 64/2/2
f 63/2/2 62/2/2 64/2/2
f 62/2/2 60/2/2 64/2/2
f 65/2/2 66/2/2 67/2/2
f 65/2/2 67/2/2 68/2/2
f 68/2/2 67/2/2 69/2/2
f 70/2/2 71/2/2 73/2/2
f 73/2/2 71/2/2 74/2/2
f 72/2/2 73/2/2 74/2/2
f 72/2/2 74/2/2 76/2/2
f 74/2/2 75/2/2 76/2/2
f 76/2/2 75/2/2 77/2/2
f 78/1/2 79/1/2 80/1/2
f 80/1/2 79/1/2 81/1/2
f 82/2/2 83/2/2 84/2/2
f 84/2/2 83/2/2 85/2/2
f 86/2/2 87/2/2 89/2/2
f 88/2/2 89/2/2 90/2/2
f 89/2/2 87/2/2 91/2/2
f 90/2/2 89/2/2 91/2/2
f 92/2/2 93/2/2 95/2/2
f 94/2/2 95/2/2 96/2/2
f 95/2/2 93/2/2 97/2/2
f 96/2/2 95/2/2 97/2/2
f 98/1/2 99/1/2 100/1/2
f 100/1/2 99/1/2 101/1/2
f 104/1/3 103/1/3 102/1/3
f 105/1/3 103/1/3 104/1/3
f 108/2/3 107/2/3 106/2/3
f 109/2/3 107/2/3 108/2/3
f 112/2/3 111/2/3 110/2/3
f 113/2/3 111/2/3 112/2/3
f 114/2/3 111/2/3 113/2/3
f 115/2/3 111/2/3 114/2/3
f 118/1/3 117/1/3 116/1/3
f 119/1/3 117/1/3 118/1/3
f 122/1/3 121/1/3 120/1/3
f 123/1/3 121/1/3 122/1/3
f 126/2/3 125/2/3 124/2/3
f 127/2/3 125/2/3 126/2/3
f 128/2/3 125/2/3 127/2/3
f 129/2/3 125/2/3 128/2/3
f 132/1/3 131/1/3 130/1/3
f 133/1/3 131/1/3 132/1/3
f 136/2/3 135/2/3 134/2/3
f 137/2/3 135/2/3 136/2/3
f 138/2/3 135/2/3 137/2/3
f 139/2/3 135/2/3 138/2/3
f 142/2/3 141/2/3 140/2/3
f 143/2/3 141/2/3 142/2/3
f 145/2/3 142/2/3 140/2/3
f 146/2/3 145/2/3 144/2/3
f 147/2/3 142/2/3 145/2/3
f 147/2/3 145/2/3 146/2/3
f 151/2/3 149/2/3 148/2/3
f 152/2/3 151/2/3 150/2/3
f 153/2/3 149/2/3 151/2/3
f 153/2/3 151/2/3 152/2/3
f 156/1/3 155/1/3 154/1/3
f 157/1/3 155/1/3 156/1/3
f 158/1/4 159/1/4 160/1/4
f 160/1/4 159/1/4 161/1/4
f 162/2/4 163/2/4 164/2/4
f 164/2/4 163/2/4 165/2/4
f 166/1/4 167/1/4 168/1/4
f 168/1/4 167/1/4 169/1/4
f 170/1/4 171/1/4 172/1/4
f 172/1/4 171/1/4 173/1/4
f 174/2/4 175/2/4 176/2/4
f 176/2/4 175/2/4 177/2/4
f 178/2/4 179/2/4 180/2/4
f 180/2/4 179/2/4 181/2/4
f 182/1/4 183/1/4 184/1/4
f 184/1/4 183/1/4 185/1/4
f 186/1/4 187/1/4 188/1/4
f 188/1/4 187/1/4 189/1/4
f 190/2/4 191/2/4 193/2/4
f 192/2/4 193/2/4 194/2/4
f 193/2/4 191/2/4 195/2/4
f 194/2/4 193/2/4 195/2/4
f 196/2/4 197/2/4 198/2/4
f 198/2/4 197/2/4 199/2/4
f 200/2/4 201/2/4 202/2/4
f 202/2/4 201/2/4 203/2/4
f 209/2/5 207/2/5 206/2/5
f 210/1/5 205/1/5 204/1/5
f 211/1/5 205/1/5 210/1/5
f 212/2/5 209/2/5 208/2/5
f 212/2/5 207/2/5 209/2/5
f 213/2/5 207/2/5 212/2/5
f 217/2/5 212/2/5 208/2/5
f 218/2/5 212/2/5 217/2/5
f 219/1/5 215/1/5 214/1/5
f 220/1/5 215/1/5 219/1/5
f 221/2/5 218/2/5 217/2/5
f 221/1/5 215/1/5 220/1/5
f 221/2/5 220/2/5 219/2/5
f 221/2/5 219/2/5 218/2/5
f 222/1/5 215/1/5 221/1/5
f 223/1/5 217/1/5 216/1/5
f 224/2/5 221/2/5 217/2/5
f 224/1/5 217/1/5 223/1/5
f 225/1/5 223/1/5 216/1/5
f 226/2/5 224/2/5 223/2/5
f 226/1/5 223/1/5 225/1/5
f 227/2/5 221/2/5 224/2/5
f 227/2/5 224/2/5 226/2/5
f 228/2/5 221/2/5 227/2/5
f 229/2/5 227/2/5 226/2/5
f 230/2/5 227/2/5 229/2/5
f 231/2/5 229/2/5 226/2/5
f 232/2/5 229/2/5 231/2/5
f 233/1/6 234/1/6 235/1/6
f 235/1/6 234/1/6 236/1/6
f 237/1/6 238/1/6 239/1/6
f 239/1/6 238/1/6 240/1/6
f 240/1/6 238/1/6 241/1/6
f 241/1/6 238/1/6 242/1/6
f 243/2/6 244/2/6 245/2/6
f 245/2/6 244/2/6 246/2/6
f 246/2/6 244/2/6 247/2/6
f 247/2/6 244/2/6 248/2/6
f 249/1/6 250/1/6 251/1/6
f 251/1/6 250/1/6 252/1/6
f 249/1/6 251/1/6 253/1/6
f 253/1/6 251/1/6 254/1/6
f 255/2/6 256/2/6 257/2/6
f 257/2/6 256/2/6 258/2/6
f 258/2/6 256/2/6 259/2/6
f 259/2/6 256/2/6 260/2/6
f 261/2/6 262/2/6 263/2/6
f 263/2/6 262/2/6 264/2/6
f 261/2/6 263/2/6 265/2/6
f 265/2/6 263/2/6 266/2/6
f 264/2/6 262/2/6 267/2/6
f 267/2/6 262/2/6 268/2/6
f 269/2/6 270/2/6 271/2/6
f 271/2/6 270/2/6 272/2/6
f 272/2/6 270/2/6 274/2/6
f 273/2/6 274/2/6 276/2/6
f 275/2/6 276/2/6 277/2/6
f 274/2/6 270/2/6 278/2/6
f 277/2/6 276/2/6 278/2/6
f 276/2/6 274/2/6 278/2/6
f 279/1/6 280/1/6 282/1/6
f 280/1/6 281/1/6 282/1/6
f 282/1/6 281/1/6 283/1/6
f 286/2/6 287/2/6 288/2/6
f 288/2/6 287/2/6 289/2/6
f 289/2/6 287/2/6 290/2/6
f 290/2/6 287/2/6 291/2/6
f 284/2/6 285/2/6 292/2/6
f 292/2/6 293/2/6 294/2/6
f 284/2/6 292/2/6 296/2/6
f 294/2/6 295/2/6 296/2/6
f 292/2/6 294/2/6 296/2/6
f 296/2/6 295/2/6 297/2/6
f 298/1/6 299/1/6 300/1/6
f 300/1/6 299/1/6 301/1/6
f 298/1/6 300/1/6 302/1/6
f 302/1/6 300/1/6 303/1/6
f 304/2/6 305/2/6 306/2/6
f 306/2/6 305/2/6 307/2/6
