# MagicaVoxel @ Ephtracy

# group
o 

# material
mtllib Roche5.mtl
usemtl palette

# normals
vn -1 0 0
vn 1 0 0
vn 0 0 1
vn 0 0 -1
vn 0 -1 0
vn 0 1 0

# texcoords
vt 0.916016 0.5
vt 0.970703 0.5
vt 0.994141 0.5

# verts
v -0.9 0 -0.6
v -0.9 0 -0.8
v -0.9 0.2 -0.6
v -0.9 0.2 -0.8
v -0.8 0 0.2
v -0.8 0 0.1
v -0.8 0.1 0.2
v -0.8 0.1 0.1
v -0.8 0.2 -0.6
v -0.8 0.2 -0.7
v -0.8 0.3 -0.6
v -0.8 0.3 -0.7
v -0.7 0 0.3
v -0.7 0 0.2
v -0.7 0 0.1
v -0.7 0 -0.1
v -0.7 0.1 0.3
v -0.7 0.1 0.2
v -0.7 0.1 0.1
v -0.7 0.1 -0.1
v -0.6 0 -0.1
v -0.6 0 -0.2
v -0.6 0.1 -0.1
v -0.6 0.1 -0.2
v -0.5 0 0.4
v -0.5 0 0.3
v -0.5 0.1 0.4
v -0.5 0.1 0.3
v -0.4 0 0.6
v -0.4 0 0.4
v -0.4 0.1 0.4
v -0.4 0.1 0.2
v -0.4 0.1 0.1
v -0.4 0.1 -0.1
v -0.4 0.3 0.2
v -0.4 0.3 0.1
v -0.4 0.4 0.6
v -0.4 0.4 0.2
v -0.4 0.4 0.1
v -0.4 0.4 -0.1
v -0.3 0 0.7
v -0.3 0 0.6
v -0.3 0 -0.1
v -0.3 0 -0.4
v -0.3 0.2 0.7
v -0.3 0.2 0.6
v -0.3 0.3 0.2
v -0.3 0.3 0.1
v -0.3 0.4 0.2
v -0.3 0.4 0.1
v -0.3 0.4 -0.1
v -0.3 1.7 0.1
v -0.3 1.7 -0.4
v -0.2 0 -0.4
v -0.2 0 -0.5
v -0.2 0 -0.7
v -0.2 0.1 -0.5
v -0.2 0.1 -0.7
v -0.2 1.3 -0.4
v -0.2 1.3 -0.5
v -0.1 0 -0.7
v -0.1 0 -0.8
v -0.1 0.1 -0.7
v -0.1 0.1 -0.8
v 0 0.1 -0.5
v 0 0.1 -0.6
v 0 0.4 0.5
v 0 0.4 0.2
v 0 0.4 0.1
v 0 0.8 0.5
v 0 0.8 0.2
v 0 1.3 -0.4
v 0 1.3 -0.5
v 0 1.3 -0.6
v 0 1.4 -0.4
v 0 1.4 -0.5
v 0 1.7 0.1
v 0 1.7 -0.2
v 0 2.2 0.2
v 0 2.2 -0.2
v 0.2 0.1 -0.5
v 0.2 0.1 -0.6
v 0.2 0.2 -0.5
v 0.2 0.2 -0.6
v 0.5 0 0.6
v 0.5 0 0.5
v 0.5 0.4 0.6
v 0.5 0.4 0.5
v -0.7 0.1 -0.6
v -0.7 0.1 -0.8
v -0.7 0.2 -0.7
v -0.7 0.2 -0.8
v -0.7 0.3 -0.6
v -0.7 0.3 -0.7
v -0.6 0 -0.6
v -0.6 0 -0.8
v -0.6 0.1 -0.6
v -0.6 0.1 -0.8
v -0.5 0 -0.1
v -0.5 0 -0.2
v -0.5 0.1 -0.1
v -0.5 0.1 -0.2
v 0 1.4 -0.2
v 0 1.4 -0.4
v 0 1.7 -0.2
v 0 1.7 -0.4
v 0.1 0.1 -0.5
v 0.1 0.1 -0.6
v 0.1 1.3 -0.2
v 0.1 1.3 -0.5
v 0.1 1.3 -0.6
v 0.1 1.4 -0.2
v 0.1 1.4 -0.5
v 0.2 0 -0.7
v 0.2 0 -0.8
v 0.2 0.1 -0.7
v 0.2 0.1 -0.8
v 0.3 0 -0.6
v 0.3 0 -0.7
v 0.3 0.1 -0.6
v 0.3 0.1 -0.7
v 0.3 0.2 0.6
v 0.3 0.2 0.5
v 0.3 0.4 0.6
v 0.3 0.4 0.5
v 0.3 0.8 0.2
v 0.3 0.8 -0.1
v 0.3 1.3 -0.1
v 0.3 1.3 -0.2
v 0.3 2.2 0.2
v 0.3 2.2 -0.2
v 0.4 0 0.7
v 0.4 0 0.5
v 0.4 0.2 0.7
v 0.4 0.2 0.5
v 0.5 0.2 -0.4
v 0.5 0.2 -0.5
v 0.5 0.8 -0.1
v 0.5 0.8 -0.4
v 0.5 1.3 -0.1
v 0.5 1.3 -0.5
v 0.6 0.2 0.1
v 0.6 0.2 -0.4
v 0.6 0.4 0.5
v 0.6 0.4 0.1
v 0.6 0.8 0.5
v 0.6 0.8 -0.4
v 0.7 0 0.6
v 0.7 0 0.2
v 0.7 0.2 0.2
v 0.7 0.2 0.1
v 0.7 0.4 0.6
v 0.7 0.4 0.1
v 0.9 0 0.2
v 0.9 0 -0.6
v 0.9 0.2 0.2
v 0.9 0.2 -0.6
v -0.3 0 0.7
v -0.3 0.2 0.7
v 0.4 0 0.7
v 0.4 0.2 0.7
v -0.4 0 0.6
v -0.4 0.4 0.6
v -0.3 0 0.6
v -0.3 0.2 0.6
v 0.3 0.2 0.6
v 0.3 0.4 0.6
v 0.5 0 0.6
v 0.5 0.4 0.6
v 0.7 0 0.6
v 0.7 0.4 0.6
v 0 0.4 0.5
v 0 0.8 0.5
v 0.3 0.2 0.5
v 0.3 0.4 0.5
v 0.4 0 0.5
v 0.4 0.2 0.5
v 0.5 0 0.5
v 0.5 0.4 0.5
v 0.6 0.4 0.5
v 0.6 0.8 0.5
v -0.5 0 0.4
v -0.5 0.1 0.4
v -0.4 0 0.4
v -0.4 0.1 0.4
v -0.7 0 0.3
v -0.7 0.1 0.3
v -0.5 0 0.3
v -0.5 0.1 0.3
v -0.8 0 0.2
v -0.8 0.1 0.2
v -0.7 0 0.2
v -0.7 0.1 0.2
v 0 0.8 0.2
v 0 2.2 0.2
v 0.3 0.8 0.2
v 0.3 2.2 0.2
v 0.7 0 0.2
v 0.7 0.2 0.2
v 0.9 0 0.2
v 0.9 0.2 0.2
v -0.4 0.3 0.1
v -0.4 0.4 0.1
v -0.3 0.3 0.1
v -0.3 0.4 0.1
v -0.3 1.7 0.1
v 0 0.4 0.1
v 0 1.7 0.1
v 0.3 0.8 -0.1
v 0.3 1.3 -0.1
v 0.5 0.8 -0.1
v 0.5 1.3 -0.1
v -0.9 0 -0.6
v -0.9 0.2 -0.6
v -0.8 0.2 -0.6
v -0.8 0.3 -0.6
v -0.7 0.1 -0.6
v -0.7 0.3 -0.6
v -0.6 0 -0.6
v -0.6 0.1 -0.6
v -0.4 0.3 0.2
v -0.4 0.4 0.2
v -0.3 0.3 0.2
v -0.3 0.4 0.2
v -0.8 0 0.1
v -0.8 0.1 0.1
v -0.7 0 0.1
v -0.7 0.1 0.1
v 0.6 0.2 0.1
v 0.6 0.4 0.1
v 0.7 0.2 0.1
v 0.7 0.4 0.1
v -0.7 0 -0.1
v -0.7 0.1 -0.1
v -0.6 0 -0.1
v -0.6 0.1 -0.1
v -0.5 0 -0.1
v -0.5 0.1 -0.1
v -0.4 0 -0.1
v -0.4 0.1 -0.1
v -0.4 0.4 -0.1
v -0.3 0 -0.1
v -0.3 0.4 -0.1
v -0.6 0 -0.2
v -0.6 0.1 -0.2
v -0.5 0 -0.2
v -0.5 0.1 -0.2
v 0 1.4 -0.2
v 0 1.7 -0.2
v 0 2.2 -0.2
v 0.1 1.3 -0.2
v 0.1 1.4 -0.2
v 0.3 1.3 -0.2
v 0.3 2.2 -0.2
v -0.3 0 -0.4
v -0.3 1.7 -0.4
v -0.2 0 -0.4
v -0.2 1.3 -0.4
v 0 1.3 -0.4
v 0 1.4 -0.4
v 0 1.7 -0.4
v 0.5 0.2 -0.4
v 0.5 0.8 -0.4
v 0.6 0.2 -0.4
v 0.6 0.8 -0.4
v -0.2 0.1 -0.5
v -0.2 1.3 -0.5
v 0 0.1 -0.5
v 0 1.3 -0.5
v 0 1.4 -0.5
v 0.1 0.1 -0.5
v 0.1 1.3 -0.5
v 0.1 1.4 -0.5
v 0.2 0.1 -0.5
v 0.2 0.2 -0.5
v 0.5 0.2 -0.5
v 0.5 1.3 -0.5
v 0 0.1 -0.6
v 0 1.3 -0.6
v 0.1 0.1 -0.6
v 0.1 1.3 -0.6
v 0.2 0.1 -0.6
v 0.2 0.2 -0.6
v 0.3 0 -0.6
v 0.3 0.1 -0.6
v 0.9 0 -0.6
v 0.9 0.2 -0.6
v -0.8 0.2 -0.7
v -0.8 0.3 -0.7
v -0.7 0.2 -0.7
v -0.7 0.3 -0.7
v -0.2 0 -0.7
v -0.2 0.1 -0.7
v -0.1 0 -0.7
v -0.1 0.1 -0.7
v 0.2 0 -0.7
v 0.2 0.1 -0.7
v 0.3 0 -0.7
v 0.3 0.1 -0.7
v -0.9 0 -0.8
v -0.9 0.2 -0.8
v -0.7 0.1 -0.8
v -0.7 0.2 -0.8
v -0.6 0 -0.8
v -0.6 0.1 -0.8
v -0.1 0 -0.8
v -0.1 0.1 -0.8
v 0.2 0 -0.8
v 0.2 0.1 -0.8
v -0.3 0 0.7
v 0.4 0 0.7
v -0.4 0 0.6
v -0.3 0 0.6
v 0.5 0 0.6
v 0.7 0 0.6
v -0.3 0 0.5
v 0.4 0 0.5
v 0.5 0 0.5
v -0.5 0 0.4
v -0.4 0 0.4
v -0.7 0 0.3
v -0.5 0 0.3
v -0.8 0 0.2
v -0.7 0 0.2
v -0.4 0 0.2
v -0.3 0 0.2
v 0.7 0 0.2
v 0.9 0 0.2
v -0.8 0 0.1
v -0.7 0 0.1
v -0.4 0 0.1
v -0.3 0 0.1
v -0.7 0 -0.1
v -0.6 0 -0.1
v -0.5 0 -0.1
v -0.4 0 -0.1
v -0.3 0 -0.1
v -0.2 0 -0.1
v 0.5 0 -0.1
v -0.6 0 -0.2
v -0.5 0 -0.2
v -0.3 0 -0.4
v -0.2 0 -0.4
v -0.2 0 -0.5
v 0.2 0 -0.5
v 0.5 0 -0.5
v -0.9 0 -0.6
v -0.6 0 -0.6
v 0.2 0 -0.6
v 0.3 0 -0.6
v 0.9 0 -0.6
v -0.2 0 -0.7
v -0.1 0 -0.7
v 0.2 0 -0.7
v 0.3 0 -0.7
v -0.9 0 -0.8
v -0.6 0 -0.8
v -0.1 0 -0.8
v 0.2 0 -0.8
v -0.5 0.1 0.4
v -0.4 0.1 0.4
v -0.7 0.1 0.3
v -0.5 0.1 0.3
v -0.8 0.1 0.2
v -0.7 0.1 0.2
v -0.4 0.1 0.2
v -0.8 0.1 0.1
v -0.7 0.1 0.1
v -0.4 0.1 0.1
v -0.7 0.1 -0.1
v -0.6 0.1 -0.1
v -0.5 0.1 -0.1
v -0.4 0.1 -0.1
v -0.6 0.1 -0.2
v -0.5 0.1 -0.2
v -0.2 0.1 -0.5
v 0 0.1 -0.5
v 0.1 0.1 -0.5
v 0.2 0.1 -0.5
v -0.7 0.1 -0.6
v -0.6 0.1 -0.6
v 0 0.1 -0.6
v 0.1 0.1 -0.6
v 0.2 0.1 -0.6
v 0.3 0.1 -0.6
v -0.2 0.1 -0.7
v -0.1 0.1 -0.7
v 0.2 0.1 -0.7
v 0.3 0.1 -0.7
v -0.7 0.1 -0.8
v -0.6 0.1 -0.8
v -0.1 0.1 -0.8
v 0.2 0.1 -0.8
v -0.3 0.2 0.7
v 0.4 0.2 0.7
v -0.3 0.2 0.6
v 0.3 0.2 0.6
v 0.3 0.2 0.5
v 0.4 0.2 0.5
v 0.7 0.2 0.2
v 0.9 0.2 0.2
v 0.6 0.2 0.1
v 0.7 0.2 0.1
v 0.5 0.2 -0.4
v 0.6 0.2 -0.4
v 0.2 0.2 -0.5
v 0.5 0.2 -0.5
v -0.9 0.2 -0.6
v -0.8 0.2 -0.6
v 0.2 0.2 -0.6
v 0.9 0.2 -0.6
v -0.8 0.2 -0.7
v -0.7 0.2 -0.7
v -0.9 0.2 -0.8
v -0.7 0.2 -0.8
v -0.4 0.3 0.2
v -0.3 0.3 0.2
v -0.4 0.3 0.1
v -0.3 0.3 0.1
v -0.8 0.3 -0.6
v -0.7 0.3 -0.6
v -0.8 0.3 -0.7
v -0.7 0.3 -0.7
v -0.4 0.4 0.6
v 0.3 0.4 0.6
v 0.5 0.4 0.6
v 0.7 0.4 0.6
v 0 0.4 0.5
v 0.3 0.4 0.5
v 0.5 0.4 0.5
v 0.6 0.4 0.5
v -0.4 0.4 0.2
v -0.3 0.4 0.2
v 0 0.4 0.2
v -0.4 0.4 0.1
v -0.3 0.4 0.1
v 0 0.4 0.1
v 0.6 0.4 0.1
v 0.7 0.4 0.1
v -0.4 0.4 -0.1
v -0.3 0.4 -0.1
v 0 0.8 0.5
v 0.6 0.8 0.5
v 0 0.8 0.2
v 0.3 0.8 0.2
v 0.3 0.8 -0.1
v 0.5 0.8 -0.1
v 0.5 0.8 -0.4
v 0.6 0.8 -0.4
v 0.3 1.3 -0.1
v 0.5 1.3 -0.1
v 0.1 1.3 -0.2
v 0.3 1.3 -0.2
v -0.2 1.3 -0.4
v 0 1.3 -0.4
v -0.2 1.3 -0.5
v 0 1.3 -0.5
v 0.1 1.3 -0.5
v 0.5 1.3 -0.5
v 0 1.3 -0.6
v 0.1 1.3 -0.6
v 0 1.4 -0.2
v 0.1 1.4 -0.2
v 0 1.4 -0.4
v 0 1.4 -0.5
v 0.1 1.4 -0.5
v -0.3 1.7 0.1
v 0 1.7 0.1
v 0 1.7 -0.2
v -0.3 1.7 -0.4
v 0 1.7 -0.4
v 0 2.2 0.2
v 0.3 2.2 0.2
v 0 2.2 -0.2
v 0.3 2.2 -0.2

# faces
f 3/2/1 2/2/1 1/2/1
f 4/2/1 2/2/1 3/2/1
f 7/3/1 6/3/1 5/3/1
f 8/3/1 6/3/1 7/3/1
f 11/2/1 10/2/1 9/2/1
f 12/2/1 10/2/1 11/2/1
f 17/3/1 14/3/1 13/3/1
f 18/3/1 14/3/1 17/3/1
f 19/3/1 16/3/1 15/3/1
f 20/3/1 16/3/1 19/3/1
f 23/3/1 22/3/1 21/3/1
f 24/3/1 22/3/1 23/3/1
f 27/3/1 26/3/1 25/3/1
f 28/3/1 26/3/1 27/3/1
f 31/1/1 30/1/1 29/1/1
f 35/1/1 32/1/1 31/1/1
f 35/3/1 33/3/1 32/3/1
f 36/1/1 34/1/1 33/1/1
f 36/3/1 33/3/1 35/3/1
f 37/1/1 31/1/1 29/1/1
f 37/1/1 35/1/1 31/1/1
f 38/1/1 35/1/1 37/1/1
f 39/1/1 34/1/1 36/1/1
f 40/1/1 34/1/1 39/1/1
f 45/2/1 42/2/1 41/2/1
f 46/2/1 42/2/1 45/2/1
f 49/3/1 48/3/1 47/3/1
f 50/3/1 48/3/1 49/3/1
f 51/1/1 44/1/1 43/1/1
f 52/1/1 51/1/1 50/1/1
f 53/1/1 44/1/1 51/1/1
f 53/1/1 51/1/1 52/1/1
f 57/2/1 55/2/1 54/2/1
f 57/3/1 56/3/1 55/3/1
f 58/3/1 56/3/1 57/3/1
f 59/2/1 57/2/1 54/2/1
f 60/2/1 57/2/1 59/2/1
f 63/3/1 62/3/1 61/3/1
f 64/3/1 62/3/1 63/3/1
f 70/1/1 68/1/1 67/1/1
f 70/1/1 69/1/1 68/1/1
f 71/1/1 69/1/1 70/1/1
f 73/3/1 66/3/1 65/3/1
f 74/3/1 66/3/1 73/3/1
f 75/3/1 73/3/1 72/3/1
f 76/3/1 73/3/1 75/3/1
f 77/1/1 69/1/1 71/1/1
f 79/1/1 77/1/1 71/1/1
f 79/1/1 78/1/1 77/1/1
f 80/1/1 78/1/1 79/1/1
f 83/1/1 82/1/1 81/1/1
f 84/1/1 82/1/1 83/1/1
f 87/1/1 86/1/1 85/1/1
f 88/1/1 86/1/1 87/1/1
f 89/2/2 90/2/2 91/2/2
f 91/2/2 90/2/2 92/2/2
f 89/2/2 91/2/2 93/2/2
f 93/2/2 91/2/2 94/2/2
f 95/2/2 96/2/2 97/2/2
f 97/2/2 96/2/2 98/2/2
f 99/3/2 100/3/2 101/3/2
f 101/3/2 100/3/2 102/3/2
f 103/1/2 104/1/2 105/1/2
f 105/1/2 104/1/2 106/1/2
f 107/3/2 108/3/2 110/3/2
f 110/3/2 108/3/2 111/3/2
f 109/3/2 110/3/2 112/3/2
f 112/3/2 110/3/2 113/3/2
f 114/3/2 115/3/2 116/3/2
f 116/3/2 115/3/2 117/3/2
f 118/3/2 119/3/2 120/3/2
f 120/3/2 119/3/2 121/3/2
f 122/1/2 123/1/2 124/1/2
f 124/1/2 123/1/2 125/1/2
f 126/1/2 127/1/2 128/1/2
f 126/1/2 128/1/2 130/1/2
f 128/1/2 129/1/2 130/1/2
f 130/1/2 129/1/2 131/1/2
f 132/2/2 133/2/2 134/2/2
f 134/2/2 133/2/2 135/2/2
f 136/2/2 137/2/2 139/2/2
f 138/2/2 139/2/2 140/2/2
f 139/2/2 137/2/2 141/2/2
f 140/2/2 139/2/2 141/2/2
f 142/1/2 143/1/2 145/1/2
f 144/1/2 145/1/2 146/1/2
f 145/1/2 143/1/2 147/1/2
f 146/1/2 145/1/2 147/1/2
f 148/1/2 149/1/2 150/1/2
f 148/1/2 150/1/2 152/1/2
f 150/1/2 151/1/2 152/1/2
f 152/1/2 151/1/2 153/1/2
f 154/1/2 155/1/2 156/1/2
f 156/1/2 155/1/2 157/1/2
f 160/2/3 159/2/3 158/2/3
f 161/2/3 159/2/3 160/2/3
f 164/1/3 163/1/3 162/1/3
f 165/1/3 163/1/3 164/1/3
f 166/1/3 163/1/3 165/1/3
f 167/1/3 163/1/3 166/1/3
f 170/1/3 169/1/3 168/1/3
f 171/1/3 169/1/3 170/1/3
f 175/1/3 173/1/3 172/1/3
f 177/1/3 175/1/3 174/1/3
f 178/1/3 177/1/3 176/1/3
f 179/1/3 173/1/3 175/1/3
f 179/1/3 177/1/3 178/1/3
f 179/1/3 175/1/3 177/1/3
f 180/1/3 173/1/3 179/1/3
f 181/1/3 173/1/3 180/1/3
f 184/3/3 183/3/3 182/3/3
f 185/3/3 183/3/3 184/3/3
f 188/3/3 187/3/3 186/3/3
f 189/3/3 187/3/3 188/3/3
f 192/3/3 191/3/3 190/3/3
f 193/3/3 191/3/3 192/3/3
f 196/1/3 195/1/3 194/1/3
f 197/1/3 195/1/3 196/1/3
f 200/1/3 199/1/3 198/1/3
f 201/1/3 199/1/3 200/1/3
f 204/1/3 203/1/3 202/1/3
f 205/1/3 203/1/3 204/1/3
f 207/1/3 206/1/3 205/1/3
f 208/1/3 206/1/3 207/1/3
f 211/2/3 210/2/3 209/2/3
f 212/2/3 210/2/3 211/2/3
f 215/2/3 214/2/3 213/2/3
f 217/2/3 215/2/3 213/2/3
f 217/2/3 216/2/3 215/2/3
f 218/2/3 216/2/3 217/2/3
f 219/2/3 217/2/3 213/2/3
f 220/2/3 217/2/3 219/2/3
f 221/1/4 222/1/4 223/1/4
f 223/1/4 222/1/4 224/1/4
f 225/3/4 226/3/4 227/3/4
f 227/3/4 226/3/4 228/3/4
f 229/1/4 230/1/4 231/1/4
f 231/1/4 230/1/4 232/1/4
f 233/3/4 234/3/4 235/3/4
f 235/3/4 234/3/4 236/3/4
f 237/3/4 238/3/4 239/3/4
f 239/3/4 238/3/4 240/3/4
f 239/1/4 240/1/4 242/1/4
f 240/1/4 241/1/4 242/1/4
f 242/1/4 241/1/4 243/1/4
f 244/3/4 245/3/4 246/3/4
f 246/3/4 245/3/4 247/3/4
f 248/1/4 249/1/4 252/1/4
f 249/1/4 250/1/4 252/1/4
f 251/1/4 252/1/4 253/1/4
f 252/1/4 250/1/4 254/1/4
f 253/1/4 252/1/4 254/1/4
f 255/1/4 256/1/4 257/1/4
f 257/1/4 256/1/4 258/1/4
f 258/1/4 256/1/4 259/1/4
f 259/1/4 256/1/4 260/1/4
f 260/1/4 256/1/4 261/1/4
f 262/1/4 263/1/4 264/1/4
f 264/1/4 263/1/4 265/1/4
f 266/2/4 267/2/4 268/2/4
f 268/2/4 267/2/4 269/2/4
f 269/3/4 270/3/4 272/3/4
f 272/3/4 270/3/4 273/3/4
f 271/2/4 272/2/4 274/2/4
f 274/2/4 272/2/4 275/2/4
f 275/2/4 272/2/4 276/2/4
f 276/2/4 272/2/4 277/2/4
f 278/3/4 279/3/4 280/3/4
f 280/3/4 279/3/4 281/3/4
f 282/1/4 283/1/4 285/1/4
f 284/1/4 285/1/4 286/1/4
f 285/1/4 283/1/4 287/1/4
f 286/1/4 285/1/4 287/1/4
f 288/2/4 289/2/4 290/2/4
f 290/2/4 289/2/4 291/2/4
f 292/3/4 293/3/4 294/3/4
f 294/3/4 293/3/4 295/3/4
f 296/3/4 297/3/4 298/3/4
f 298/3/4 297/3/4 299/3/4
f 300/2/4 301/2/4 302/2/4
f 302/2/4 301/2/4 303/2/4
f 300/2/4 302/2/4 304/2/4
f 304/2/4 302/2/4 305/2/4
f 306/3/4 307/3/4 308/3/4
f 308/3/4 307/3/4 309/3/4
f 313/2/5 311/2/5 310/2/5
f 316/2/5 311/2/5 313/2/5
f 316/1/5 313/1/5 312/1/5
f 317/2/5 311/2/5 316/2/5
f 318/1/5 315/1/5 314/1/5
f 320/1/5 317/1/5 316/1/5
f 320/1/5 318/1/5 317/1/5
f 320/1/5 316/1/5 312/1/5
f 322/3/5 320/3/5 319/3/5
f 324/3/5 322/3/5 321/3/5
f 325/1/5 318/1/5 320/1/5
f 325/3/5 320/3/5 322/3/5
f 325/3/5 322/3/5 324/3/5
f 326/1/5 318/1/5 325/1/5
f 327/1/5 315/1/5 318/1/5
f 327/1/5 318/1/5 326/1/5
f 329/3/5 326/3/5 325/3/5
f 329/3/5 324/3/5 323/3/5
f 329/3/5 325/3/5 324/3/5
f 330/3/5 326/3/5 329/3/5
f 331/3/5 326/3/5 330/3/5
f 332/1/5 328/1/5 327/1/5
f 332/3/5 326/3/5 331/3/5
f 332/1/5 327/1/5 326/1/5
f 333/3/5 331/3/5 330/3/5
f 334/3/5 331/3/5 333/3/5
f 335/3/5 331/3/5 334/3/5
f 336/1/5 332/1/5 331/1/5
f 336/3/5 331/3/5 335/3/5
f 337/1/5 328/1/5 332/1/5
f 337/1/5 332/1/5 336/1/5
f 338/1/5 328/1/5 337/1/5
f 339/1/5 328/1/5 338/1/5
f 340/3/5 335/3/5 334/3/5
f 341/3/5 335/3/5 340/3/5
f 342/1/5 338/1/5 337/1/5
f 343/2/5 339/2/5 338/2/5
f 343/1/5 338/1/5 342/1/5
f 344/2/5 339/2/5 343/2/5
f 345/2/5 339/2/5 344/2/5
f 346/1/5 328/1/5 339/1/5
f 346/2/5 339/2/5 345/2/5
f 349/3/5 345/3/5 344/3/5
f 349/1/5 346/1/5 345/1/5
f 350/1/5 346/1/5 349/1/5
f 351/1/5 328/1/5 346/1/5
f 351/1/5 346/1/5 350/1/5
f 352/3/5 350/3/5 349/3/5
f 352/3/5 349/3/5 344/3/5
f 353/3/5 350/3/5 352/3/5
f 354/3/5 350/3/5 353/3/5
f 355/3/5 350/3/5 354/3/5
f 356/2/5 348/2/5 347/2/5
f 357/2/5 348/2/5 356/2/5
f 358/3/5 354/3/5 353/3/5
f 359/3/5 354/3/5 358/3/5
f 360/3/6 361/3/6 363/3/6
f 362/3/6 363/3/6 365/3/6
f 363/3/6 361/3/6 366/3/6
f 365/3/6 363/3/6 366/3/6
f 364/3/6 365/3/6 367/3/6
f 365/3/6 366/3/6 367/3/6
f 367/3/6 366/3/6 368/3/6
f 368/3/6 366/3/6 369/3/6
f 368/3/6 369/3/6 370/3/6
f 370/3/6 369/3/6 371/3/6
f 371/3/6 369/3/6 372/3/6
f 372/3/6 369/3/6 373/3/6
f 371/3/6 372/3/6 374/3/6
f 374/3/6 372/3/6 375/3/6
f 376/3/6 377/3/6 382/3/6
f 378/3/6 379/3/6 383/3/6
f 383/3/6 379/3/6 384/3/6
f 376/3/6 382/3/6 386/3/6
f 384/3/6 385/3/6 386/3/6
f 383/3/6 384/3/6 386/3/6
f 382/3/6 383/3/6 386/3/6
f 386/3/6 385/3/6 387/3/6
f 387/3/6 385/3/6 388/3/6
f 388/3/6 385/3/6 389/3/6
f 380/2/6 381/2/6 390/2/6
f 390/2/6 381/2/6 391/2/6
f 387/3/6 388/3/6 392/3/6
f 392/3/6 388/3/6 393/3/6
f 394/2/6 395/2/6 396/2/6
f 396/2/6 395/2/6 397/2/6
f 397/2/6 395/2/6 398/2/6
f 398/2/6 395/2/6 399/2/6
f 400/1/6 401/1/6 403/1/6
f 402/1/6 403/1/6 405/1/6
f 404/1/6 405/1/6 407/1/6
f 406/1/6 407/1/6 410/1/6
f 403/1/6 401/1/6 411/1/6
f 410/1/6 407/1/6 411/1/6
f 405/1/6 403/1/6 411/1/6
f 407/1/6 405/1/6 411/1/6
f 408/2/6 409/2/6 412/2/6
f 408/2/6 412/2/6 414/2/6
f 412/2/6 413/2/6 414/2/6
f 414/2/6 413/2/6 415/2/6
f 416/3/6 417/3/6 418/3/6
f 418/3/6 417/3/6 419/3/6
f 420/2/6 421/2/6 422/2/6
f 422/2/6 421/2/6 423/2/6
f 424/1/6 425/1/6 428/1/6
f 428/1/6 425/1/6 429/1/6
f 426/1/6 427/1/6 430/1/6
f 430/1/6 427/1/6 431/1/6
f 424/1/6 428/1/6 432/1/6
f 432/1/6 428/1/6 433/1/6
f 433/1/6 428/1/6 434/1/6
f 433/3/6 434/3/6 436/3/6
f 436/3/6 434/3/6 437/3/6
f 431/1/6 427/1/6 438/1/6
f 438/1/6 427/1/6 439/1/6
f 435/1/6 436/1/6 440/1/6
f 440/1/6 436/1/6 441/1/6
f 442/1/6 443/1/6 444/1/6
f 444/1/6 443/1/6 445/1/6
f 445/1/6 443/1/6 446/1/6
f 446/1/6 443/1/6 447/1/6
f 447/1/6 443/1/6 448/1/6
f 448/1/6 443/1/6 449/1/6
f 450/2/6 451/2/6 453/2/6
f 454/2/6 455/2/6 456/2/6
f 456/2/6 455/2/6 457/2/6
f 452/2/6 453/2/6 458/2/6
f 453/2/6 451/2/6 459/2/6
f 458/2/6 453/2/6 459/2/6
f 457/3/6 458/3/6 460/3/6
f 460/3/6 458/3/6 461/3/6
f 462/3/6 463/3/6 464/3/6
f 464/3/6 463/3/6 465/3/6
f 465/3/6 463/3/6 466/3/6
f 467/1/6 468/1/6 469/1/6
f 467/1/6 469/1/6 470/1/6
f 470/1/6 469/1/6 471/1/6
f 472/1/6 473/1/6 474/1/6
f 474/1/6 473/1/6 475/1/6
