# MagicaVoxel @ Ephtracy

# group
o 

# material
mtllib Roche4.mtl
usemtl palette

# normals
vn -1 0 0
vn 1 0 0
vn 0 0 1
vn 0 0 -1
vn 0 -1 0
vn 0 1 0

# texcoords
vt 0.916016 0.5
vt 0.935547 0.5
vt 0.970703 0.5
vt 0.994141 0.5

# verts
v -0.9 0 -0.1
v -0.9 0 -0.4
v -0.9 0.3 -0.1
v -0.9 0.3 -0.4
v -0.8 0 0.1
v -0.8 0 -0.1
v -0.8 0.2 0.1
v -0.8 0.2 -0.1
v -0.6 0 0.9
v -0.6 0 0.4
v -0.6 0 -0.4
v -0.6 0 -0.7
v -0.6 0.2 0.1
v -0.6 0.2 -0.1
v -0.6 0.3 -0.1
v -0.6 0.3 -0.4
v -0.6 0.4 0.9
v -0.6 0.4 0.4
v -0.6 0.8 0.1
v -0.6 0.8 -0.7
v -0.5 0 0.2
v -0.5 0 0.1
v -0.5 0.8 0.1
v -0.5 0.8 -0.2
v -0.5 1.7 0.2
v -0.5 1.7 -0.2
v -0.4 0 0.4
v -0.4 0 0.2
v -0.4 0.4 0.7
v -0.4 0.4 0.4
v -0.4 1.7 0.2
v -0.4 1.7 -0.2
v -0.4 2.1 0.7
v -0.4 2.1 -0.2
v -0.3 0.8 -0.2
v -0.3 0.8 -0.3
v -0.3 2.1 0.3
v -0.3 2.1 -0.2
v -0.3 2.4 0.3
v -0.3 2.4 -0.3
v -0.1 0 0.8
v -0.1 0 0.7
v -0.1 0.2 0.8
v -0.1 0.2 0.7
v 0 0 -0.7
v 0 0 -0.8
v 0 0.3 -0.7
v 0 0.3 -0.8
v 0 0.8 -0.3
v 0 0.8 -0.4
v 0 1.4 -0.3
v 0 1.4 -0.4
v 0.2 0 0.5
v 0.2 0 0.4
v 0.2 0.7 0.5
v 0.2 0.7 0.4
v 0.2 2.3 0.2
v 0.2 2.3 -0.2
v 0.2 2.4 0.2
v 0.2 2.4 -0.2
v -0.2 0 0.9
v -0.2 0 0.7
v -0.2 0.4 0.9
v -0.2 0.4 0.7
v -0.2 2.3 0.2
v -0.2 2.3 -0.2
v -0.2 2.4 0.2
v -0.2 2.4 -0.2
v 0 0 0.5
v 0 0 0.4
v 0 0.2 0.7
v 0 0.2 0.5
v 0 1.7 0.4
v 0 1.7 0.3
v 0 2.1 0.7
v 0 2.1 0.3
v 0.1 0 0.8
v 0.1 0 0.5
v 0.1 0.2 0.8
v 0.1 0.2 0.5
v 0.1 0.3 -0.4
v 0.1 0.3 -0.7
v 0.1 0.8 -0.4
v 0.1 0.8 -0.7
v 0.3 1.4 -0.2
v 0.3 1.4 -0.3
v 0.3 1.7 0.3
v 0.3 1.7 0.2
v 0.3 2.1 0.2
v 0.3 2.1 -0.2
v 0.3 2.4 0.3
v 0.3 2.4 -0.3
v 0.4 0 -0.4
v 0.4 0 -0.8
v 0.4 0.3 -0.4
v 0.4 0.3 -0.8
v 0.4 1.7 0.2
v 0.4 1.7 -0.2
v 0.4 2.1 0.2
v 0.4 2.1 -0.2
v 0.5 0.7 0.4
v 0.5 0.7 0
v 0.5 1.4 0
v 0.5 1.4 -0.2
v 0.5 1.7 0.4
v 0.5 1.7 -0.2
v 0.6 0 -0.1
v 0.6 0 -0.4
v 0.6 0.7 0
v 0.6 0.7 -0.1
v 0.6 1.4 0
v 0.6 1.4 -0.4
v 0.7 0 0.5
v 0.7 0 -0.1
v 0.7 0.7 0.5
v 0.7 0.7 -0.1
v -0.6 0 0.9
v -0.6 0.4 0.9
v -0.2 0 0.9
v -0.2 0.4 0.9
v -0.1 0 0.8
v -0.1 0.2 0.8
v 0.1 0 0.8
v 0.1 0.2 0.8
v -0.4 0.4 0.7
v -0.4 2.1 0.7
v -0.2 0 0.7
v -0.2 0.4 0.7
v -0.1 0 0.7
v -0.1 0.2 0.7
v 0 0.2 0.7
v 0 2.1 0.7
v 0.2 0 0.5
v 0.2 0.7 0.5
v 0.7 0 0.5
v 0.7 0.7 0.5
v 0 0 0.4
v 0 1.7 0.4
v 0.2 0 0.4
v 0.2 0.7 0.4
v 0.5 0.7 0.4
v 0.5 1.7 0.4
v -0.3 2.1 0.3
v -0.3 2.4 0.3
v 0 1.7 0.3
v 0 2.1 0.3
v 0.3 1.7 0.3
v 0.3 2.4 0.3
v -0.5 0 0.2
v -0.5 1.7 0.2
v -0.4 0 0.2
v -0.4 1.7 0.2
v 0.3 1.7 0.2
v 0.3 2.1 0.2
v 0.4 1.7 0.2
v 0.4 2.1 0.2
v -0.8 0 0.1
v -0.8 0.2 0.1
v -0.6 0 0.1
v -0.6 0.2 0.1
v -0.6 0.8 0.1
v -0.5 0 0.1
v -0.5 0.8 0.1
v 0.5 0.7 0
v 0.5 1.4 0
v 0.6 0.7 0
v 0.6 1.4 0
v -0.9 0 -0.1
v -0.9 0.3 -0.1
v -0.8 0 -0.1
v -0.8 0.2 -0.1
v -0.6 0.2 -0.1
v -0.6 0.3 -0.1
v -0.2 2.3 -0.2
v -0.2 2.4 -0.2
v 0.2 2.3 -0.2
v 0.2 2.4 -0.2
v 0 0 0.5
v 0 0.2 0.5
v 0.1 0 0.5
v 0.1 0.2 0.5
v -0.6 0 0.4
v -0.6 0.4 0.4
v -0.4 0 0.4
v -0.4 0.4 0.4
v -0.2 2.3 0.2
v -0.2 2.4 0.2
v 0.2 2.3 0.2
v 0.2 2.4 0.2
v 0.6 0 -0.1
v 0.6 0.7 -0.1
v 0.7 0 -0.1
v 0.7 0.7 -0.1
v -0.5 0.8 -0.2
v -0.5 1.7 -0.2
v -0.4 1.7 -0.2
v -0.4 2.1 -0.2
v -0.3 0.8 -0.2
v -0.3 2.1 -0.2
v 0.3 1.4 -0.2
v 0.3 2.1 -0.2
v 0.4 1.4 -0.2
v 0.4 1.7 -0.2
v 0.4 2.1 -0.2
v 0.5 1.4 -0.2
v 0.5 1.7 -0.2
v -0.3 0.8 -0.3
v -0.3 2.4 -0.3
v 0 0.8 -0.3
v 0 1.4 -0.3
v 0.3 1.4 -0.3
v 0.3 2.4 -0.3
v -0.9 0 -0.4
v -0.9 0.3 -0.4
v -0.6 0 -0.4
v -0.6 0.3 -0.4
v 0 0.8 -0.4
v 0 1.4 -0.4
v 0.1 0.3 -0.4
v 0.1 0.8 -0.4
v 0.4 0 -0.4
v 0.4 0.3 -0.4
v 0.6 0 -0.4
v 0.6 1.4 -0.4
v -0.6 0 -0.7
v -0.6 0.8 -0.7
v 0 0 -0.7
v 0 0.3 -0.7
v 0.1 0.3 -0.7
v 0.1 0.8 -0.7
v 0 0 -0.8
v 0 0.3 -0.8
v 0.4 0 -0.8
v 0.4 0.3 -0.8
v -0.6 0 0.9
v -0.2 0 0.9
v -0.1 0 0.8
v 0.1 0 0.8
v -0.2 0 0.7
v -0.1 0 0.7
v 0 0 0.5
v 0.1 0 0.5
v 0.2 0 0.5
v 0.7 0 0.5
v -0.6 0 0.4
v -0.4 0 0.4
v -0.2 0 0.4
v 0 0 0.4
v 0.2 0 0.4
v -0.5 0 0.2
v -0.4 0 0.2
v -0.8 0 0.1
v -0.6 0 0.1
v -0.5 0 0.1
v -0.9 0 -0.1
v -0.8 0 -0.1
v -0.6 0 -0.1
v 0.2 0 -0.1
v 0.6 0 -0.1
v 0.7 0 -0.1
v -0.9 0 -0.4
v -0.6 0 -0.4
v 0.4 0 -0.4
v 0.6 0 -0.4
v -0.6 0 -0.7
v 0 0 -0.7
v 0 0 -0.8
v 0.4 0 -0.8
v -0.1 0.2 0.8
v 0.1 0.2 0.8
v -0.1 0.2 0.7
v 0 0.2 0.7
v 0 0.2 0.5
v 0.1 0.2 0.5
v -0.8 0.2 0.1
v -0.6 0.2 0.1
v -0.8 0.2 -0.1
v -0.6 0.2 -0.1
v -0.9 0.3 -0.1
v -0.6 0.3 -0.1
v -0.9 0.3 -0.4
v -0.6 0.3 -0.4
v 0.1 0.3 -0.4
v 0.4 0.3 -0.4
v 0 0.3 -0.7
v 0.1 0.3 -0.7
v 0 0.3 -0.8
v 0.4 0.3 -0.8
v -0.6 0.4 0.9
v -0.2 0.4 0.9
v -0.4 0.4 0.7
v -0.2 0.4 0.7
v -0.6 0.4 0.4
v -0.4 0.4 0.4
v 0.2 0.7 0.5
v 0.7 0.7 0.5
v 0.2 0.7 0.4
v 0.5 0.7 0.4
v 0.5 0.7 0
v 0.6 0.7 0
v 0.6 0.7 -0.1
v 0.7 0.7 -0.1
v -0.6 0.8 0.1
v -0.5 0.8 0.1
v -0.5 0.8 -0.2
v -0.3 0.8 -0.2
v -0.3 0.8 -0.3
v 0 0.8 -0.3
v 0 0.8 -0.4
v 0.1 0.8 -0.4
v -0.6 0.8 -0.7
v 0.1 0.8 -0.7
v 0.5 1.4 0
v 0.6 1.4 0
v 0.3 1.4 -0.2
v 0.4 1.4 -0.2
v 0.5 1.4 -0.2
v 0 1.4 -0.3
v 0.3 1.4 -0.3
v 0 1.4 -0.4
v 0.6 1.4 -0.4
v 0 1.7 0.4
v 0.5 1.7 0.4
v 0 1.7 0.3
v 0.3 1.7 0.3
v -0.5 1.7 0.2
v -0.4 1.7 0.2
v 0.3 1.7 0.2
v 0.4 1.7 0.2
v -0.5 1.7 -0.2
v -0.4 1.7 -0.2
v 0.4 1.7 -0.2
v 0.5 1.7 -0.2
v -0.4 2.1 0.7
v 0 2.1 0.7
v -0.3 2.1 0.3
v 0 2.1 0.3
v 0.3 2.1 0.2
v 0.4 2.1 0.2
v -0.4 2.1 -0.2
v -0.3 2.1 -0.2
v 0.3 2.1 -0.2
v 0.4 2.1 -0.2
v -0.2 2.3 0.2
v 0.2 2.3 0.2
v -0.1 2.3 0.1
v 0.1 2.3 0.1
v -0.1 2.3 -0.1
v 0.1 2.3 -0.1
v -0.2 2.3 -0.2
v 0.2 2.3 -0.2
v -0.3 2.4 0.3
v 0.3 2.4 0.3
v -0.2 2.4 0.2
v 0.2 2.4 0.2
v -0.2 2.4 -0.2
v 0.2 2.4 -0.2
v -0.3 2.4 -0.3
v 0.3 2.4 -0.3

# faces
f 3/1/1 2/1/1 1/1/1
f 4/1/1 2/1/1 3/1/1
f 7/3/1 6/3/1 5/3/1
f 8/3/1 6/3/1 7/3/1
f 15/1/1 14/1/1 13/1/1
f 16/1/1 12/1/1 11/1/1
f 17/3/1 10/3/1 9/3/1
f 18/3/1 10/3/1 17/3/1
f 19/1/1 16/1/1 15/1/1
f 19/1/1 15/1/1 13/1/1
f 20/1/1 12/1/1 16/1/1
f 20/1/1 16/1/1 19/1/1
f 23/1/1 22/1/1 21/1/1
f 25/1/1 23/1/1 21/1/1
f 25/1/1 24/1/1 23/1/1
f 26/1/1 24/1/1 25/1/1
f 30/1/1 28/1/1 27/1/1
f 31/1/1 28/1/1 30/1/1
f 31/1/1 30/1/1 29/1/1
f 33/1/1 31/1/1 29/1/1
f 33/1/1 32/1/1 31/1/1
f 34/1/1 32/1/1 33/1/1
f 38/1/1 36/1/1 35/1/1
f 39/1/1 38/1/1 37/1/1
f 40/1/1 36/1/1 38/1/1
f 40/1/1 38/1/1 39/1/1
f 43/1/1 42/1/1 41/1/1
f 44/1/1 42/1/1 43/1/1
f 47/1/1 46/1/1 45/1/1
f 48/1/1 46/1/1 47/1/1
f 51/1/1 50/1/1 49/1/1
f 52/1/1 50/1/1 51/1/1
f 55/3/1 54/3/1 53/3/1
f 56/3/1 54/3/1 55/3/1
f 59/1/1 58/1/1 57/1/1
f 60/1/1 58/1/1 59/1/1
f 61/3/2 62/3/2 63/3/2
f 63/3/2 62/3/2 64/3/2
f 65/1/2 66/1/2 67/1/2
f 67/1/2 66/1/2 68/1/2
f 69/1/2 70/1/2 72/1/2
f 72/1/2 70/1/2 73/1/2
f 71/1/2 72/1/2 73/1/2
f 71/1/2 73/1/2 75/1/2
f 73/1/2 74/1/2 75/1/2
f 75/1/2 74/1/2 76/1/2
f 77/1/2 78/1/2 79/1/2
f 79/1/2 78/1/2 80/1/2
f 81/1/2 82/1/2 83/1/2
f 83/1/2 82/1/2 84/1/2
f 87/1/2 88/1/2 89/1/2
f 85/1/2 86/1/2 90/1/2
f 87/1/2 89/1/2 91/1/2
f 89/1/2 90/1/2 91/1/2
f 90/1/2 86/1/2 92/1/2
f 91/1/2 90/1/2 92/1/2
f 93/1/2 94/1/2 95/1/2
f 95/1/2 94/1/2 96/1/2
f 97/3/2 98/3/2 99/3/2
f 99/3/2 98/3/2 100/3/2
f 101/1/2 102/1/2 103/1/2
f 101/1/2 103/1/2 105/1/2
f 103/1/2 104/1/2 105/1/2
f 105/1/2 104/1/2 106/1/2
f 107/1/2 108/1/2 110/1/2
f 109/1/2 110/1/2 111/1/2
f 110/1/2 108/1/2 112/1/2
f 111/1/2 110/1/2 112/1/2
f 113/3/2 114/3/2 115/3/2
f 115/3/2 114/3/2 116/3/2
f 119/3/3 118/3/3 117/3/3
f 120/3/3 118/3/3 119/3/3
f 123/1/3 122/1/3 121/1/3
f 124/1/3 122/1/3 123/1/3
f 128/1/3 126/1/3 125/1/3
f 129/1/3 128/1/3 127/1/3
f 130/1/3 128/1/3 129/1/3
f 131/1/3 128/1/3 130/1/3
f 132/1/3 126/1/3 128/1/3
f 132/1/3 128/1/3 131/1/3
f 135/3/3 134/3/3 133/3/3
f 136/3/3 134/3/3 135/3/3
f 139/1/3 138/1/3 137/1/3
f 140/1/3 138/1/3 139/1/3
f 141/1/3 138/1/3 140/1/3
f 142/1/3 138/1/3 141/1/3
f 146/1/3 144/1/3 143/1/3
f 147/1/3 146/1/3 145/1/3
f 148/1/3 144/1/3 146/1/3
f 148/1/3 146/1/3 147/1/3
f 151/1/3 150/1/3 149/1/3
f 152/1/3 150/1/3 151/1/3
f 155/3/3 154/3/3 153/3/3
f 156/3/3 154/3/3 155/3/3
f 159/3/3 158/3/3 157/3/3
f 160/3/3 158/3/3 159/3/3
f 162/1/3 160/1/3 159/1/3
f 162/1/3 161/1/3 160/1/3
f 163/1/3 161/1/3 162/1/3
f 166/1/3 165/1/3 164/1/3
f 167/1/3 165/1/3 166/1/3
f 170/1/3 169/1/3 168/1/3
f 171/1/3 169/1/3 170/1/3
f 172/1/3 169/1/3 171/1/3
f 173/1/3 169/1/3 172/1/3
f 176/1/3 175/1/3 174/1/3
f 177/1/3 175/1/3 176/1/3
f 178/1/4 179/1/4 180/1/4
f 180/1/4 179/1/4 181/1/4
f 182/3/4 183/3/4 184/3/4
f 184/3/4 183/3/4 185/3/4
f 186/1/4 187/1/4 188/1/4
f 188/1/4 187/1/4 189/1/4
f 190/3/4 191/3/4 192/3/4
f 192/3/4 191/3/4 193/3/4
f 194/1/4 195/1/4 196/1/4
f 194/1/4 196/1/4 198/1/4
f 196/1/4 197/1/4 198/1/4
f 198/1/4 197/1/4 199/1/4
f 200/3/4 201/3/4 202/3/4
f 202/3/4 201/3/4 203/3/4
f 203/3/4 201/3/4 204/3/4
f 202/1/4 203/1/4 205/1/4
f 205/1/4 203/1/4 206/1/4
f 207/1/4 208/1/4 209/1/4
f 209/1/4 208/1/4 210/1/4
f 210/1/4 208/1/4 211/1/4
f 211/1/4 208/1/4 212/1/4
f 213/1/4 214/1/4 215/1/4
f 215/1/4 214/1/4 216/1/4
f 217/1/4 218/1/4 220/1/4
f 219/1/4 220/1/4 222/1/4
f 221/1/4 222/1/4 223/1/4
f 220/1/4 218/1/4 224/1/4
f 223/1/4 222/1/4 224/1/4
f 222/1/4 220/1/4 224/1/4
f 225/1/4 226/1/4 227/1/4
f 227/1/4 226/1/4 228/1/4
f 228/1/4 226/1/4 229/1/4
f 229/1/4 226/1/4 230/1/4
f 231/1/4 232/1/4 233/1/4
f 233/1/4 232/1/4 234/1/4
f 239/3/5 236/3/5 235/3/5
f 240/1/5 238/1/5 237/1/5
f 241/1/5 238/1/5 240/1/5
f 241/1/5 240/1/5 239/1/5
f 242/1/5 238/1/5 241/1/5
f 245/3/5 239/3/5 235/3/5
f 246/3/5 239/3/5 245/3/5
f 247/1/5 241/1/5 239/1/5
f 247/3/5 239/3/5 246/3/5
f 248/1/5 241/1/5 247/1/5
f 249/3/5 244/3/5 243/3/5
f 251/1/5 248/1/5 247/1/5
f 251/1/5 249/1/5 248/1/5
f 251/1/5 247/1/5 246/1/5
f 254/1/5 251/1/5 250/1/5
f 256/3/5 253/3/5 252/3/5
f 257/1/5 254/1/5 253/1/5
f 257/3/5 253/3/5 256/3/5
f 258/3/5 244/3/5 249/3/5
f 258/1/5 254/1/5 257/1/5
f 258/1/5 249/1/5 251/1/5
f 258/1/5 251/1/5 254/1/5
f 259/3/5 244/3/5 258/3/5
f 260/3/5 244/3/5 259/3/5
f 261/1/5 257/1/5 256/1/5
f 261/1/5 256/1/5 255/1/5
f 261/1/5 259/1/5 258/1/5
f 261/1/5 258/1/5 257/1/5
f 262/1/5 259/1/5 261/1/5
f 263/1/5 259/1/5 262/1/5
f 264/1/5 259/1/5 263/1/5
f 265/1/5 263/1/5 262/1/5
f 266/1/5 263/1/5 265/1/5
f 267/1/5 263/1/5 266/1/5
f 268/1/5 263/1/5 267/1/5
f 269/1/6 270/1/6 271/1/6
f 271/1/6 270/1/6 272/1/6
f 272/1/6 270/1/6 273/1/6
f 273/1/6 270/1/6 274/1/6
f 275/3/6 276/3/6 277/3/6
f 277/3/6 276/3/6 278/3/6
f 279/1/6 280/1/6 281/1/6
f 281/1/6 280/1/6 282/1/6
f 283/1/6 284/1/6 286/1/6
f 285/1/6 286/1/6 287/1/6
f 286/1/6 284/1/6 288/1/6
f 287/1/6 286/1/6 288/1/6
f 289/3/6 290/3/6 291/3/6
f 291/3/6 290/3/6 292/3/6
f 289/3/6 291/3/6 293/3/6
f 293/3/6 291/3/6 294/3/6
f 295/3/6 296/3/6 297/3/6
f 297/3/6 296/3/6 298/3/6
f 298/3/6 296/3/6 299/3/6
f 299/3/6 296/3/6 300/3/6
f 300/3/6 296/3/6 301/3/6
f 301/3/6 296/3/6 302/3/6
f 303/1/6 304/1/6 305/1/6
f 305/1/6 306/1/6 307/1/6
f 307/1/6 308/1/6 309/1/6
f 303/1/6 305/1/6 311/1/6
f 309/1/6 310/1/6 311/1/6
f 307/1/6 309/1/6 311/1/6
f 305/1/6 307/1/6 311/1/6
f 311/1/6 310/1/6 312/1/6
f 313/1/6 314/1/6 317/1/6
f 315/1/6 316/1/6 319/1/6
f 316/1/6 317/1/6 319/1/6
f 318/1/6 319/1/6 320/1/6
f 317/1/6 314/1/6 321/1/6
f 320/1/6 319/1/6 321/1/6
f 319/1/6 317/1/6 321/1/6
f 322/1/6 323/1/6 324/1/6
f 324/1/6 323/1/6 325/1/6
f 325/1/6 323/1/6 328/1/6
f 328/1/6 323/1/6 329/1/6
f 326/1/6 327/1/6 330/1/6
f 330/1/6 327/1/6 331/1/6
f 329/1/6 323/1/6 332/1/6
f 332/1/6 323/1/6 333/1/6
f 334/1/6 335/1/6 336/1/6
f 336/1/6 335/1/6 337/1/6
f 334/1/6 336/1/6 340/1/6
f 340/1/6 336/1/6 341/1/6
f 338/3/6 339/3/6 342/3/6
f 342/3/6 339/3/6 343/3/6
f 344/2/6 345/2/6 346/2/6
f 346/2/6 345/2/6 347/2/6
f 344/2/6 346/2/6 348/2/6
f 346/4/6 347/4/6 348/4/6
f 347/2/6 345/2/6 349/2/6
f 348/4/6 347/4/6 349/4/6
f 344/2/6 348/2/6 350/2/6
f 348/2/6 349/2/6 350/2/6
f 349/2/6 345/2/6 351/2/6
f 350/2/6 349/2/6 351/2/6
f 352/1/6 353/1/6 354/1/6
f 354/1/6 353/1/6 355/1/6
f 352/1/6 354/1/6 356/1/6
f 355/1/6 353/1/6 357/1/6
f 352/1/6 356/1/6 358/1/6
f 356/1/6 357/1/6 358/1/6
f 357/1/6 353/1/6 359/1/6
f 358/1/6 357/1/6 359/1/6
