# MagicaVoxel @ Ephtracy

# group
o 

# material
mtllib Baobab4.mtl
usemtl palette

# normals
vn -1 0 0
vn 1 0 0
vn 0 0 1
vn 0 0 -1
vn 0 -1 0
vn 0 1 0

# texcoords
vt 0.939453 0.5
vt 0.943359 0.5
vt 0.986328 0.5
vt 0.990234 0.5

# verts
v -1 1.7 0.2
v -1 1.7 0
v -1 2 0.5
v -1 2 0.2
v -1 2 0
v -1 2 -0.5
v -1 2.2 0.5
v -1 2.2 -0.5
v -0.9 2.2 0.3
v -0.9 2.2 0.1
v -0.9 2.3 0.3
v -0.9 2.3 0.1
v -0.8 0 0
v -0.8 0 -0.4
v -0.8 0.5 0
v -0.8 0.5 -0.4
v -0.8 2.2 0.4
v -0.8 2.2 0.3
v -0.8 2.3 0.3
v -0.8 2.3 0.2
v -0.8 2.4 0.4
v -0.8 2.4 0.2
v -0.7 2 -0.5
v -0.7 2 -1
v -0.7 2.2 -0.5
v -0.7 2.2 -1
v -0.6 0 0.4
v -0.6 0 0.2
v -0.6 0 -0.4
v -0.6 0 -0.6
v -0.6 0.2 0.4
v -0.6 0.2 0.2
v -0.6 0.5 -0.1
v -0.6 0.5 -0.4
v -0.6 0.9 -0.1
v -0.6 0.9 -0.6
v -0.5 0 0.2
v -0.5 0 0
v -0.5 0.2 0.3
v -0.5 0.2 0.2
v -0.5 0.5 0
v -0.5 0.5 -0.1
v -0.5 0.9 -0.1
v -0.5 0.9 -0.4
v -0.5 1.7 0.2
v -0.5 1.7 0
v -0.5 1.8 0.3
v -0.5 1.8 0.2
v -0.5 1.8 0
v -0.5 1.8 -0.4
v -0.5 2 1
v -0.5 2 0.5
v -0.5 2.2 1
v -0.5 2.2 0.5
v -0.5 2.2 0.1
v -0.5 2.2 -0.4
v -0.5 2.3 0.1
v -0.5 2.3 -0.4
v -0.4 1.8 -0.3
v -0.4 1.8 -0.4
v -0.4 1.8 -1
v -0.4 1.9 -0.3
v -0.4 1.9 -0.9
v -0.4 2 -0.9
v -0.4 2 -1
v -0.4 2.2 -0.4
v -0.4 2.2 -0.6
v -0.4 2.3 0
v -0.4 2.3 -0.4
v -0.4 2.5 0
v -0.4 2.5 -0.6
v -0.3 0 -0.6
v -0.3 0 -0.7
v -0.3 0.2 -0.6
v -0.3 0.2 -0.7
v -0.2 0 0.5
v -0.2 0 0.3
v -0.2 1 0.5
v -0.2 1 0.3
v -0.2 1.7 1
v -0.2 1.7 0.3
v -0.2 1.8 0.9
v -0.2 1.8 0.3
v -0.2 2 1
v -0.2 2 0.9
v -0.1 0 0.7
v -0.1 0 0.5
v -0.1 0.2 0.7
v -0.1 0.2 0.5
v -0.1 1.8 0.2
v -0.1 1.8 -0.1
v -0.1 2 0.2
v -0.1 2 -0.1
v -0.1 2.2 0.9
v -0.1 2.2 0.4
v -0.1 2.3 0.9
v -0.1 2.3 0.4
v 0 0.2 0.6
v 0 0.2 0.5
v 0 0.4 0.6
v 0 0.4 0.5
v 0.1 0 -0.4
v 0.1 0 -0.5
v 0.1 1 -0.4
v 0.1 1 -0.5
v 0.3 2.2 0.1
v 0.3 2.2 0
v 0.3 2.4 0.1
v 0.3 2.4 0
v 0.5 2.2 0.2
v 0.5 2.2 0.1
v 0.5 2.3 0.2
v 0.5 2.3 0.1
v 0.9 1.8 -0.2
v 0.9 1.8 -0.3
v 0.9 2 -0.2
v 0.9 2 -0.3
v -0.8 1.9 0.2
v -0.8 1.9 0
v -0.8 2 0.2
v -0.8 2 0
v -0.7 2.2 0.2
v -0.7 2.2 0.1
v -0.7 2.3 0.2
v -0.7 2.3 0.1
v -0.6 2.2 0.4
v -0.6 2.2 0.2
v -0.6 2.4 0.4
v -0.6 2.4 0.2
v -0.4 1.8 0.2
v -0.4 1.8 0
v -0.4 1.9 0.2
v -0.4 1.9 0
v -0.3 0 0.4
v -0.3 0 0.3
v -0.3 0.2 0.4
v -0.3 0.2 0.3
v -0.3 1.8 -0.3
v -0.3 1.8 -0.4
v -0.3 1.8 -1
v -0.3 1.9 -0.3
v -0.3 1.9 -0.9
v -0.3 2 -0.9
v -0.3 2 -1
v -0.1 0.2 -0.4
v -0.1 0.2 -0.6
v -0.1 0.9 -0.4
v -0.1 0.9 -0.6
v -0.1 1.7 1
v -0.1 1.7 0.3
v -0.1 1.8 0.9
v -0.1 1.8 0.3
v -0.1 2 1
v -0.1 2 0.9
v 0 0 0.1
v 0 0 -0.2
v 0 0 -0.4
v 0 0 -0.7
v 0 0.2 -0.4
v 0 0.2 -0.7
v 0 0.3 0.1
v 0 0.3 -0.2
v 0 0.4 0.5
v 0 0.4 0.3
v 0 1 0.5
v 0 1 0.3
v 0 2.2 0.1
v 0 2.2 0
v 0 2.3 0.1
v 0 2.3 0
v 0.1 0 0.7
v 0.1 0 0.6
v 0.1 0.2 0.7
v 0.1 0.2 0.6
v 0.2 0 0.2
v 0.2 0 0.1
v 0.2 0 -0.2
v 0.2 0 -0.3
v 0.2 0.2 0.3
v 0.2 0.2 0.2
v 0.2 0.3 0.1
v 0.2 0.3 -0.2
v 0.2 0.4 0.3
v 0.2 1 -0.3
v 0.2 1 -0.4
v 0.2 1.7 0.2
v 0.2 1.7 -0.1
v 0.2 1.7 -0.2
v 0.2 1.7 -0.3
v 0.2 1.8 0.3
v 0.2 1.8 0.2
v 0.2 1.8 -0.1
v 0.2 1.8 -0.2
v 0.2 1.8 -0.3
v 0.2 1.8 -0.4
v 0.3 0 0.6
v 0.3 0 0.4
v 0.3 0 -0.3
v 0.3 0 -0.5
v 0.3 0.2 0.4
v 0.3 0.2 0.3
v 0.3 0.4 0.6
v 0.3 0.4 0.3
v 0.3 1 -0.3
v 0.3 1 -0.5
v 0.3 2 -0.6
v 0.3 2 -1
v 0.3 2.2 -0.6
v 0.3 2.2 -1
v 0.4 0 0.4
v 0.4 0 0.2
v 0.4 0.2 0.4
v 0.4 0.2 0.2
v 0.5 2.2 -0.4
v 0.5 2.2 -0.6
v 0.5 2.4 0
v 0.5 2.4 -0.4
v 0.5 2.5 0
v 0.5 2.5 -0.6
v 0.6 2 1
v 0.6 2 0.5
v 0.6 2.2 1
v 0.6 2.2 0.9
v 0.6 2.2 0.5
v 0.6 2.2 0.4
v 0.6 2.3 0.9
v 0.6 2.3 0.4
v 0.8 2.2 -0.1
v 0.8 2.2 -0.4
v 0.8 2.3 0.1
v 0.8 2.3 -0.1
v 0.8 2.4 0.1
v 0.8 2.4 -0.4
v 0.9 2.2 0.2
v 0.9 2.2 -0.1
v 0.9 2.3 0.2
v 0.9 2.3 -0.1
v 1 1.7 0.2
v 1 1.7 -0.1
v 1 1.7 -0.2
v 1 1.7 -0.3
v 1 2 0.5
v 1 2 0.2
v 1 2 -0.1
v 1 2 -0.2
v 1 2 -0.3
v 1 2 -0.6
v 1 2.2 0.5
v 1 2.2 -0.6
v -0.5 2 1
v -0.5 2.2 1
v -0.2 1.7 1
v -0.2 2 1
v -0.1 1.7 1
v -0.1 2 1
v 0.6 2 1
v 0.6 2.2 1
v -0.1 2.2 0.9
v -0.1 2.3 0.9
v 0.6 2.2 0.9
v 0.6 2.3 0.9
v -0.1 0 0.7
v -0.1 0.2 0.7
v 0.1 0 0.7
v 0.1 0.2 0.7
v 0 0.2 0.6
v 0 0.4 0.6
v 0.1 0 0.6
v 0.1 0.2 0.6
v 0.3 0 0.6
v 0.3 0.4 0.6
v -1 2 0.5
v -1 2.2 0.5
v -0.5 2 0.5
v -0.5 2.2 0.5
v -0.2 0 0.5
v -0.2 1 0.5
v -0.1 0 0.5
v -0.1 0.2 0.5
v 0 0.2 0.5
v 0 0.4 0.5
v 0 1 0.5
v 0.6 2 0.5
v 0.6 2.2 0.5
v 1 2 0.5
v 1 2.2 0.5
v -0.8 2.2 0.4
v -0.8 2.4 0.4
v -0.6 0 0.4
v -0.6 0.2 0.4
v -0.6 2.2 0.4
v -0.6 2.4 0.4
v -0.3 0 0.4
v -0.3 0.2 0.4
v 0.3 0 0.4
v 0.3 0.2 0.4
v 0.4 0 0.4
v 0.4 0.2 0.4
v -0.9 2.2 0.3
v -0.9 2.3 0.3
v -0.8 2.2 0.3
v -0.8 2.3 0.3
v -0.5 0.2 0.3
v -0.5 1.8 0.3
v -0.3 0 0.3
v -0.3 0.2 0.3
v -0.2 0 0.3
v -0.2 1 0.3
v -0.2 1.7 0.3
v -0.2 1.8 0.3
v -0.1 1.7 0.3
v -0.1 1.8 0.3
v 0 0.4 0.3
v 0 1 0.3
v 0.2 0.4 0.3
v 0.2 1.8 0.3
v -1 1.7 0.2
v -1 2 0.2
v -0.8 1.9 0.2
v -0.8 2 0.2
v -0.5 1.7 0.2
v -0.5 1.8 0.2
v -0.4 1.8 0.2
v -0.4 1.9 0.2
v -0.1 1.8 0.2
v -0.1 2 0.2
v 0.2 1.7 0.2
v 0.2 1.8 0.2
v 0.5 2.2 0.2
v 0.5 2.3 0.2
v 0.9 2.2 0.2
v 0.9 2.3 0.2
v 1 1.7 0.2
v 1 2 0.2
v -0.5 2.2 0.1
v -0.5 2.3 0.1
v 0 2.2 0.1
v 0 2.3 0.1
v 0.3 2.2 0.1
v 0.3 2.4 0.1
v 0.5 2.2 0.1
v 0.5 2.3 0.1
v 0.8 2.3 0.1
v 0.8 2.4 0.1
v -0.8 0 0
v -0.8 0.5 0
v -0.5 0 0
v -0.5 0.5 0
v -0.4 2.3 0
v -0.4 2.5 0
v 0 2.2 0
v 0 2.3 0
v 0.3 2.2 0
v 0.3 2.4 0
v 0.5 2.4 0
v 0.5 2.5 0
v -0.6 0.5 -0.1
v -0.6 0.9 -0.1
v -0.5 0.5 -0.1
v -0.5 0.9 -0.1
v 0 0 -0.2
v 0 0.3 -0.2
v 0.2 0 -0.2
v 0.2 0.3 -0.2
v 0.2 1.7 -0.2
v 0.2 1.8 -0.2
v 0.9 1.8 -0.2
v 0.9 2 -0.2
v 1 1.7 -0.2
v 1 2 -0.2
v -0.4 1.8 -0.3
v -0.4 1.9 -0.3
v -0.3 1.8 -0.3
v -0.3 1.9 -0.3
v 0.2 0 -0.3
v 0.2 1 -0.3
v 0.3 0 -0.3
v 0.3 1 -0.3
v -0.4 1.9 -0.9
v -0.4 2 -0.9
v -0.3 1.9 -0.9
v -0.3 2 -0.9
v -0.2 1.8 0.9
v -0.2 2 0.9
v -0.1 1.8 0.9
v -0.1 2 0.9
v -0.1 2.2 0.4
v -0.1 2.3 0.4
v 0.6 2.2 0.4
v 0.6 2.3 0.4
v 0.2 0.2 0.3
v 0.2 0.4 0.3
v 0.3 0.2 0.3
v 0.3 0.4 0.3
v -0.8 2.3 0.2
v -0.8 2.4 0.2
v -0.7 2.2 0.2
v -0.7 2.3 0.2
v -0.6 0 0.2
v -0.6 0.2 0.2
v -0.6 2.2 0.2
v -0.6 2.4 0.2
v -0.5 0 0.2
v -0.5 0.2 0.2
v 0.2 0 0.2
v 0.2 0.2 0.2
v 0.4 0 0.2
v 0.4 0.2 0.2
v -0.9 2.2 0.1
v -0.9 2.3 0.1
v -0.7 2.2 0.1
v -0.7 2.3 0.1
v 0 0 0.1
v 0 0.3 0.1
v 0.2 0 0.1
v 0.2 0.3 0.1
v -1 1.7 0
v -1 2 0
v -0.8 1.9 0
v -0.8 2 0
v -0.5 1.7 0
v -0.5 1.8 0
v -0.4 1.8 0
v -0.4 1.9 0
v -0.1 1.8 -0.1
v -0.1 2 -0.1
v 0.2 1.7 -0.1
v 0.2 1.8 -0.1
v 0.8 2.2 -0.1
v 0.8 2.3 -0.1
v 0.9 2.2 -0.1
v 0.9 2.3 -0.1
v 1 1.7 -0.1
v 1 2 -0.1
v 0.2 1.7 -0.3
v 0.2 1.8 -0.3
v 0.9 1.8 -0.3
v 0.9 2 -0.3
v 1 1.7 -0.3
v 1 2 -0.3
v -0.8 0 -0.4
v -0.8 0.5 -0.4
v -0.6 0 -0.4
v -0.6 0.5 -0.4
v -0.5 0.9 -0.4
v -0.5 1.8 -0.4
v -0.5 2.2 -0.4
v -0.5 2.3 -0.4
v -0.4 1.8 -0.4
v -0.4 2.2 -0.4
v -0.4 2.3 -0.4
v -0.3 1.8 -0.4
v -0.1 0.2 -0.4
v -0.1 0.9 -0.4
v 0 0 -0.4
v 0 0.2 -0.4
v 0.1 0 -0.4
v 0.1 1 -0.4
v 0.2 1 -0.4
v 0.2 1.8 -0.4
v 0.5 2.2 -0.4
v 0.5 2.4 -0.4
v 0.8 2.2 -0.4
v 0.8 2.4 -0.4
v -1 2 -0.5
v -1 2.2 -0.5
v -0.7 2 -0.5
v -0.7 2.2 -0.5
v 0.1 0 -0.5
v 0.1 1 -0.5
v 0.3 0 -0.5
v 0.3 1 -0.5
v -0.6 0 -0.6
v -0.6 0.9 -0.6
v -0.4 2.2 -0.6
v -0.4 2.5 -0.6
v -0.3 0 -0.6
v -0.3 0.2 -0.6
v -0.1 0.2 -0.6
v -0.1 0.9 -0.6
v 0.3 2 -0.6
v 0.3 2.2 -0.6
v 0.5 2.2 -0.6
v 0.5 2.5 -0.6
v 1 2 -0.6
v 1 2.2 -0.6
v -0.3 0 -0.7
v -0.3 0.2 -0.7
v 0 0 -0.7
v 0 0.2 -0.7
v -0.7 2 -1
v -0.7 2.2 -1
v -0.4 1.8 -1
v -0.4 2 -1
v -0.3 1.8 -1
v -0.3 2 -1
v 0.3 2 -1
v 0.3 2.2 -1
v -0.1 0 0.7
v 0.1 0 0.7
v 0 0 0.6
v 0.1 0 0.6
v 0.3 0 0.6
v -0.2 0 0.5
v -0.1 0 0.5
v 0 0 0.5
v -0.6 0 0.4
v -0.3 0 0.4
v 0.3 0 0.4
v 0.4 0 0.4
v -0.5 0 0.3
v -0.3 0 0.3
v -0.2 0 0.3
v 0.3 0 0.3
v -0.6 0 0.2
v -0.5 0 0.2
v 0.2 0 0.2
v 0.4 0 0.2
v 0 0 0.1
v 0.2 0 0.1
v -0.8 0 0
v -0.5 0 0
v -0.6 0 -0.1
v -0.5 0 -0.1
v 0 0 -0.2
v 0.2 0 -0.2
v 0.2 0 -0.3
v 0.3 0 -0.3
v -0.8 0 -0.4
v -0.6 0 -0.4
v -0.5 0 -0.4
v -0.1 0 -0.4
v 0 0 -0.4
v 0.1 0 -0.4
v 0.2 0 -0.4
v 0.1 0 -0.5
v 0.3 0 -0.5
v -0.6 0 -0.6
v -0.3 0 -0.6
v -0.1 0 -0.6
v -0.3 0 -0.7
v 0 0 -0.7
v 0 0.3 0.1
v 0.2 0.3 0.1
v 0 0.3 -0.2
v 0.2 0.3 -0.2
v -0.2 1.7 1
v -0.1 1.7 1
v -0.2 1.7 0.3
v -0.1 1.7 0.3
v -1 1.7 0.2
v -0.5 1.7 0.2
v 0.2 1.7 0.2
v 1 1.7 0.2
v -1 1.7 0
v -0.5 1.7 0
v 0.2 1.7 -0.1
v 1 1.7 -0.1
v 0.2 1.7 -0.2
v 1 1.7 -0.2
v 0.2 1.7 -0.3
v 1 1.7 -0.3
v -0.4 1.8 -0.4
v -0.3 1.8 -0.4
v -0.4 1.8 -1
v -0.3 1.8 -1
v -0.5 2 1
v -0.2 2 1
v -0.1 2 1
v 0.6 2 1
v -0.2 2 0.9
v -0.1 2 0.9
v -1 2 0.5
v -0.5 2 0.5
v 0.6 2 0.5
v 1 2 0.5
v -1 2 0.2
v -0.8 2 0.2
v -0.1 2 0.2
v 1 2 0.2
v -1 2 0
v -0.8 2 0
v -0.1 2 -0.1
v 1 2 -0.1
v 0.9 2 -0.2
v 1 2 -0.2
v 0.9 2 -0.3
v 1 2 -0.3
v -1 2 -0.5
v -0.7 2 -0.5
v 0.3 2 -0.6
v 1 2 -0.6
v -0.4 2 -0.9
v -0.3 2 -0.9
v -0.7 2 -1
v -0.4 2 -1
v -0.3 2 -1
v 0.3 2 -1
v -0.1 0.2 0.7
v 0.1 0.2 0.7
v 0 0.2 0.6
v 0.1 0.2 0.6
v -0.1 0.2 0.5
v 0 0.2 0.5
v -0.6 0.2 0.4
v -0.3 0.2 0.4
v 0.3 0.2 0.4
v 0.4 0.2 0.4
v -0.5 0.2 0.3
v -0.3 0.2 0.3
v 0.2 0.2 0.3
v 0.3 0.2 0.3
v -0.6 0.2 0.2
v -0.5 0.2 0.2
v 0.2 0.2 0.2
v 0.4 0.2 0.2
v -0.1 0.2 -0.4
v 0 0.2 -0.4
v -0.3 0.2 -0.6
v -0.1 0.2 -0.6
v -0.3 0.2 -0.7
v 0 0.2 -0.7
v 0 0.4 0.6
v 0.3 0.4 0.6
v 0 0.4 0.5
v 0 0.4 0.3
v 0.2 0.4 0.3
v 0.3 0.4 0.3
v -0.8 0.5 0
v -0.5 0.5 0
v -0.6 0.5 -0.1
v -0.5 0.5 -0.1
v -0.8 0.5 -0.4
v -0.6 0.5 -0.4
v -0.6 0.9 -0.1
v -0.5 0.9 -0.1
v -0.5 0.9 -0.4
v -0.1 0.9 -0.4
v -0.6 0.9 -0.6
v -0.1 0.9 -0.6
v -0.2 1 0.5
v 0 1 0.5
v -0.2 1 0.3
v 0 1 0.3
v 0.2 1 -0.3
v 0.3 1 -0.3
v 0.1 1 -0.4
v 0.2 1 -0.4
v 0.1 1 -0.5
v 0.3 1 -0.5
v -0.2 1.8 0.9
v -0.1 1.8 0.9
v -0.5 1.8 0.3
v -0.2 1.8 0.3
v -0.1 1.8 0.3
v 0.2 1.8 0.3
v -0.5 1.8 0.2
v -0.4 1.8 0.2
v -0.1 1.8 0.2
v 0.2 1.8 0.2
v -0.5 1.8 0
v -0.4 1.8 0
v -0.1 1.8 -0.1
v 0.2 1.8 -0.1
v 0.2 1.8 -0.2
v 0.9 1.8 -0.2
v -0.4 1.8 -0.3
v -0.3 1.8 -0.3
v 0.2 1.8 -0.3
v 0.9 1.8 -0.3
v -0.5 1.8 -0.4
v -0.4 1.8 -0.4
v -0.3 1.8 -0.4
v 0.2 1.8 -0.4
v -0.8 1.9 0.2
v -0.4 1.9 0.2
v -0.8 1.9 0
v -0.4 1.9 0
v -0.4 1.9 -0.3
v -0.3 1.9 -0.3
v -0.4 1.9 -0.9
v -0.3 1.9 -0.9
v -0.5 2.2 1
v 0.6 2.2 1
v -0.1 2.2 0.9
v 0.6 2.2 0.9
v -1 2.2 0.5
v -0.5 2.2 0.5
v 0.6 2.2 0.5
v 1 2.2 0.5
v -0.8 2.2 0.4
v -0.6 2.2 0.4
v -0.1 2.2 0.4
v 0.6 2.2 0.4
v -0.9 2.2 0.3
v -0.8 2.2 0.3
v -0.7 2.2 0.2
v -0.6 2.2 0.2
v 0.5 2.2 0.2
v 0.9 2.2 0.2
v -0.9 2.2 0.1
v -0.7 2.2 0.1
v -0.5 2.2 0.1
v 0 2.2 0.1
v 0.3 2.2 0.1
v 0.5 2.2 0.1
v 0 2.2 0
v 0.3 2.2 0
v 0.8 2.2 -0.1
v 0.9 2.2 -0.1
v -0.5 2.2 -0.4
v -0.4 2.2 -0.4
v 0.5 2.2 -0.4
v 0.8 2.2 -0.4
v -1 2.2 -0.5
v -0.7 2.2 -0.5
v -0.4 2.2 -0.6
v 0.3 2.2 -0.6
v 0.5 2.2 -0.6
v 1 2.2 -0.6
v -0.7 2.2 -1
v 0.3 2.2 -1
v -0.1 2.3 0.9
v 0.6 2.3 0.9
v -0.1 2.3 0.4
v 0.6 2.3 0.4
v -0.9 2.3 0.3
v -0.8 2.3 0.3
v -0.8 2.3 0.2
v -0.7 2.3 0.2
v 0.5 2.3 0.2
v 0.9 2.3 0.2
v -0.9 2.3 0.1
v -0.7 2.3 0.1
v -0.5 2.3 0.1
v 0 2.3 0.1
v 0.5 2.3 0.1
v 0.8 2.3 0.1
v -0.4 2.3 0
v 0 2.3 0
v 0.8 2.3 -0.1
v 0.9 2.3 -0.1
v -0.5 2.3 -0.4
v -0.4 2.3 -0.4
v -0.8 2.4 0.4
v -0.6 2.4 0.4
v -0.8 2.4 0.2
v -0.6 2.4 0.2
v 0.3 2.4 0.1
v 0.8 2.4 0.1
v 0.3 2.4 0
v 0.5 2.4 0
v 0.5 2.4 -0.4
v 0.8 2.4 -0.4
v -0.4 2.5 0
v 0.5 2.5 0
v -0.4 2.5 -0.6
v 0.5 2.5 -0.6

# faces
f 4/2/1 2/2/1 1/2/1
f 5/2/1 2/2/1 4/2/1
f 7/4/1 4/4/1 3/4/1
f 7/4/1 6/4/1 5/4/1
f 7/4/1 5/4/1 4/4/1
f 8/4/1 6/4/1 7/4/1
f 11/4/1 10/4/1 9/4/1
f 12/4/1 10/4/1 11/4/1
f 15/2/1 14/2/1 13/2/1
f 16/2/1 14/2/1 15/2/1
f 19/4/1 18/4/1 17/4/1
f 21/4/1 19/4/1 17/4/1
f 21/4/1 20/4/1 19/4/1
f 22/4/1 20/4/1 21/4/1
f 25/4/1 24/4/1 23/4/1
f 26/4/1 24/4/1 25/4/1
f 31/1/1 28/1/1 27/1/1
f 32/1/1 28/1/1 31/1/1
f 34/1/1 30/1/1 29/1/1
f 35/1/1 34/1/1 33/1/1
f 36/1/1 30/1/1 34/1/1
f 36/1/1 34/1/1 35/1/1
f 40/2/1 38/2/1 37/2/1
f 41/2/1 38/2/1 40/2/1
f 41/2/1 40/2/1 39/2/1
f 43/2/1 42/2/1 41/2/1
f 45/2/1 41/2/1 39/2/1
f 45/2/1 44/2/1 43/2/1
f 45/2/1 43/2/1 41/2/1
f 46/2/1 44/2/1 45/2/1
f 47/2/1 45/2/1 39/2/1
f 48/2/1 45/2/1 47/2/1
f 49/2/1 44/2/1 46/2/1
f 50/2/1 44/2/1 49/2/1
f 53/4/1 52/4/1 51/4/1
f 54/4/1 52/4/1 53/4/1
f 57/3/1 56/3/1 55/3/1
f 58/3/1 56/3/1 57/3/1
f 62/1/1 60/1/1 59/1/1
f 62/1/1 61/1/1 60/1/1
f 63/1/1 61/1/1 62/1/1
f 64/1/1 61/1/1 63/1/1
f 65/1/1 61/1/1 64/1/1
f 69/4/1 67/4/1 66/4/1
f 70/4/1 69/4/1 68/4/1
f 71/4/1 67/4/1 69/4/1
f 71/4/1 69/4/1 70/4/1
f 74/2/1 73/2/1 72/2/1
f 75/2/1 73/2/1 74/2/1
f 78/1/1 77/1/1 76/1/1
f 79/1/1 77/1/1 78/1/1
f 82/1/1 81/1/1 80/1/1
f 83/1/1 81/1/1 82/1/1
f 84/1/1 82/1/1 80/1/1
f 85/1/1 82/1/1 84/1/1
f 88/2/1 87/2/1 86/2/1
f 89/2/1 87/2/1 88/2/1
f 92/1/1 91/1/1 90/1/1
f 93/1/1 91/1/1 92/1/1
f 96/3/1 95/3/1 94/3/1
f 97/3/1 95/3/1 96/3/1
f 100/1/1 99/1/1 98/1/1
f 101/1/1 99/1/1 100/1/1
f 104/1/1 103/1/1 102/1/1
f 105/1/1 103/1/1 104/1/1
f 108/3/1 107/3/1 106/3/1
f 109/3/1 107/3/1 108/3/1
f 112/4/1 111/4/1 110/4/1
f 113/4/1 111/4/1 112/4/1
f 116/2/1 115/2/1 114/2/1
f 117/2/1 115/2/1 116/2/1
f 118/2/2 119/2/2 120/2/2
f 120/2/2 119/2/2 121/2/2
f 122/4/2 123/4/2 124/4/2
f 124/4/2 123/4/2 125/4/2
f 126/4/2 127/4/2 128/4/2
f 128/4/2 127/4/2 129/4/2
f 130/2/2 131/2/2 132/2/2
f 132/2/2 131/2/2 133/2/2
f 134/1/2 135/1/2 136/1/2
f 136/1/2 135/1/2 137/1/2
f 138/1/2 139/1/2 141/1/2
f 139/1/2 140/1/2 141/1/2
f 141/1/2 140/1/2 142/1/2
f 142/1/2 140/1/2 143/1/2
f 143/1/2 140/1/2 144/1/2
f 145/1/2 146/1/2 147/1/2
f 147/1/2 146/1/2 148/1/2
f 149/1/2 150/1/2 151/1/2
f 151/1/2 150/1/2 152/1/2
f 149/1/2 151/1/2 153/1/2
f 153/1/2 151/1/2 154/1/2
f 157/2/2 158/2/2 159/2/2
f 159/2/2 158/2/2 160/2/2
f 155/2/2 156/2/2 161/2/2
f 161/2/2 156/2/2 162/2/2
f 163/1/2 164/1/2 165/1/2
f 165/1/2 164/1/2 166/1/2
f 167/3/2 168/3/2 169/3/2
f 169/3/2 168/3/2 170/3/2
f 171/2/2 172/2/2 173/2/2
f 173/2/2 172/2/2 174/2/2
f 175/2/2 176/2/2 180/2/2
f 180/2/2 176/2/2 181/2/2
f 179/2/2 180/2/2 181/2/2
f 177/2/2 178/2/2 182/2/2
f 179/2/2 181/2/2 183/2/2
f 181/2/2 182/2/2 183/2/2
f 182/2/2 178/2/2 184/2/2
f 183/2/2 182/2/2 184/2/2
f 183/2/2 184/2/2 186/2/2
f 184/2/2 185/2/2 186/2/2
f 186/2/2 185/2/2 187/2/2
f 187/2/2 185/2/2 188/2/2
f 188/2/2 185/2/2 189/2/2
f 183/2/2 186/2/2 190/2/2
f 190/2/2 186/2/2 191/2/2
f 187/2/2 188/2/2 192/2/2
f 192/2/2 188/2/2 193/2/2
f 189/2/2 185/2/2 194/2/2
f 194/2/2 185/2/2 195/2/2
f 196/1/2 197/1/2 200/1/2
f 196/1/2 200/1/2 202/1/2
f 200/1/2 201/1/2 202/1/2
f 202/1/2 201/1/2 203/1/2
f 198/1/2 199/1/2 204/1/2
f 204/1/2 199/1/2 205/1/2
f 206/4/2 207/4/2 208/4/2
f 208/4/2 207/4/2 209/4/2
f 210/2/2 211/2/2 212/2/2
f 212/2/2 211/2/2 213/2/2
f 214/4/2 215/4/2 217/4/2
f 216/4/2 217/4/2 218/4/2
f 217/4/2 215/4/2 219/4/2
f 218/4/2 217/4/2 219/4/2
f 220/4/2 221/4/2 222/4/2
f 222/4/2 221/4/2 223/4/2
f 223/4/2 221/4/2 224/4/2
f 224/3/2 225/3/2 226/3/2
f 223/3/2 224/3/2 226/3/2
f 226/3/2 225/3/2 227/3/2
f 228/3/2 229/3/2 231/3/2
f 230/3/2 231/3/2 232/3/2
f 231/3/2 229/3/2 233/3/2
f 232/3/2 231/3/2 233/3/2
f 234/4/2 235/4/2 236/4/2
f 236/4/2 235/4/2 237/4/2
f 238/1/2 239/1/2 243/1/2
f 243/1/2 239/1/2 244/1/2
f 240/2/2 241/2/2 245/2/2
f 245/2/2 241/2/2 246/2/2
f 243/4/2 244/4/2 248/4/2
f 246/4/2 247/4/2 248/4/2
f 245/4/2 246/4/2 248/4/2
f 244/4/2 245/4/2 248/4/2
f 242/4/2 243/4/2 248/4/2
f 248/4/2 247/4/2 249/4/2
f 253/4/3 251/4/3 250/4/3
f 254/1/3 253/1/3 252/1/3
f 255/4/3 251/4/3 253/4/3
f 255/1/3 253/1/3 254/1/3
f 256/4/3 251/4/3 255/4/3
f 257/4/3 251/4/3 256/4/3
f 260/3/3 259/3/3 258/3/3
f 261/3/3 259/3/3 260/3/3
f 264/2/3 263/2/3 262/2/3
f 265/2/3 263/2/3 264/2/3
f 269/1/3 267/1/3 266/1/3
f 270/1/3 269/1/3 268/1/3
f 271/1/3 267/1/3 269/1/3
f 271/1/3 269/1/3 270/1/3
f 274/4/3 273/4/3 272/4/3
f 275/4/3 273/4/3 274/4/3
f 278/1/3 277/1/3 276/1/3
f 279/1/3 277/1/3 278/1/3
f 280/1/3 277/1/3 279/1/3
f 281/1/3 277/1/3 280/1/3
f 282/1/3 277/1/3 281/1/3
f 285/4/3 284/4/3 283/4/3
f 286/4/3 284/4/3 285/4/3
f 291/4/3 288/4/3 287/4/3
f 292/4/3 288/4/3 291/4/3
f 293/1/3 290/1/3 289/1/3
f 294/1/3 290/1/3 293/1/3
f 297/2/3 296/2/3 295/2/3
f 298/2/3 296/2/3 297/2/3
f 301/4/3 300/4/3 299/4/3
f 302/4/3 300/4/3 301/4/3
f 306/2/3 304/2/3 303/2/3
f 307/2/3 306/2/3 305/2/3
f 308/2/3 304/2/3 306/2/3
f 308/2/3 306/2/3 307/2/3
f 309/2/3 304/2/3 308/2/3
f 310/2/3 304/2/3 309/2/3
f 311/2/3 309/2/3 308/2/3
f 314/2/3 311/2/3 308/2/3
f 314/2/3 312/2/3 311/2/3
f 315/2/3 314/2/3 313/2/3
f 316/2/3 312/2/3 314/2/3
f 316/2/3 314/2/3 315/2/3
f 319/2/3 318/2/3 317/2/3
f 320/2/3 318/2/3 319/2/3
f 321/2/3 319/2/3 317/2/3
f 322/2/3 319/2/3 321/2/3
f 323/2/3 319/2/3 322/2/3
f 324/2/3 319/2/3 323/2/3
f 328/1/3 326/1/3 325/1/3
f 331/4/3 330/4/3 329/4/3
f 332/4/3 330/4/3 331/4/3
f 333/1/3 328/1/3 327/1/3
f 334/1/3 326/1/3 328/1/3
f 334/1/3 328/1/3 333/1/3
f 337/3/3 336/3/3 335/3/3
f 338/3/3 336/3/3 337/3/3
f 341/3/3 340/3/3 339/3/3
f 342/3/3 340/3/3 341/3/3
f 343/3/3 340/3/3 342/3/3
f 344/3/3 340/3/3 343/3/3
f 347/2/3 346/2/3 345/2/3
f 348/2/3 346/2/3 347/2/3
f 352/4/3 350/4/3 349/4/3
f 353/4/3 352/4/3 351/4/3
f 354/4/3 350/4/3 352/4/3
f 354/4/3 352/4/3 353/4/3
f 355/4/3 350/4/3 354/4/3
f 356/4/3 350/4/3 355/4/3
f 359/1/3 358/1/3 357/1/3
f 360/1/3 358/1/3 359/1/3
f 363/2/3 362/2/3 361/2/3
f 364/2/3 362/2/3 363/2/3
f 367/2/3 366/2/3 365/2/3
f 369/2/3 367/2/3 365/2/3
f 369/2/3 368/2/3 367/2/3
f 370/2/3 368/2/3 369/2/3
f 373/1/3 372/1/3 371/1/3
f 374/1/3 372/1/3 373/1/3
f 377/1/3 376/1/3 375/1/3
f 378/1/3 376/1/3 377/1/3
f 381/1/3 380/1/3 379/1/3
f 382/1/3 380/1/3 381/1/3
f 383/1/4 384/1/4 385/1/4
f 385/1/4 384/1/4 386/1/4
f 387/3/4 388/3/4 389/3/4
f 389/3/4 388/3/4 390/3/4
f 391/1/4 392/1/4 393/1/4
f 393/1/4 392/1/4 394/1/4
f 395/4/4 396/4/4 398/4/4
f 397/4/4 398/4/4 401/4/4
f 398/4/4 396/4/4 402/4/4
f 401/4/4 398/4/4 402/4/4
f 399/1/4 400/1/4 403/1/4
f 403/1/4 400/1/4 404/1/4
f 405/2/4 406/2/4 407/2/4
f 407/2/4 406/2/4 408/2/4
f 409/4/4 410/4/4 411/4/4
f 411/4/4 410/4/4 412/4/4
f 413/2/4 414/2/4 415/2/4
f 415/2/4 414/2/4 416/2/4
f 417/2/4 418/2/4 419/2/4
f 419/2/4 418/2/4 420/2/4
f 417/2/4 419/2/4 421/2/4
f 421/2/4 419/2/4 422/2/4
f 422/2/4 419/2/4 423/2/4
f 423/2/4 419/2/4 424/2/4
f 425/1/4 426/1/4 428/1/4
f 429/4/4 430/4/4 431/4/4
f 431/4/4 430/4/4 432/4/4
f 427/1/4 428/1/4 433/1/4
f 428/1/4 426/1/4 434/1/4
f 433/1/4 428/1/4 434/1/4
f 435/2/4 436/2/4 437/2/4
f 435/2/4 437/2/4 439/2/4
f 437/2/4 438/2/4 439/2/4
f 439/2/4 438/2/4 440/2/4
f 441/2/4 442/2/4 443/2/4
f 443/2/4 442/2/4 444/2/4
f 445/2/4 446/2/4 449/2/4
f 447/3/4 448/3/4 450/3/4
f 450/3/4 448/3/4 451/3/4
f 445/2/4 449/2/4 452/2/4
f 445/2/4 452/2/4 454/2/4
f 453/2/4 454/2/4 456/2/4
f 455/2/4 456/2/4 457/2/4
f 454/2/4 452/2/4 458/2/4
f 457/2/4 456/2/4 458/2/4
f 456/2/4 454/2/4 458/2/4
f 458/2/4 452/2/4 459/2/4
f 459/2/4 452/2/4 460/2/4
f 461/3/4 462/3/4 463/3/4
f 463/3/4 462/3/4 464/3/4
f 465/4/4 466/4/4 467/4/4
f 467/4/4 466/4/4 468/4/4
f 469/1/4 470/1/4 471/1/4
f 471/1/4 470/1/4 472/1/4
f 473/1/4 474/1/4 477/1/4
f 477/1/4 474/1/4 478/1/4
f 478/1/4 474/1/4 479/1/4
f 479/1/4 474/1/4 480/1/4
f 475/4/4 476/4/4 482/4/4
f 482/4/4 476/4/4 483/4/4
f 481/4/4 482/4/4 483/4/4
f 483/4/4 476/4/4 484/4/4
f 481/4/4 483/4/4 485/4/4
f 485/4/4 483/4/4 486/4/4
f 487/2/4 488/2/4 489/2/4
f 489/2/4 488/2/4 490/2/4
f 491/4/4 492/4/4 494/4/4
f 493/1/4 494/1/4 495/1/4
f 494/4/4 492/4/4 496/4/4
f 495/1/4 494/1/4 496/1/4
f 496/4/4 492/4/4 497/4/4
f 497/4/4 492/4/4 498/4/4
f 501/2/5 500/2/5 499/2/5
f 502/2/5 500/2/5 501/2/5
f 505/2/5 501/2/5 499/2/5
f 506/1/5 503/1/5 502/1/5
f 506/1/5 502/1/5 501/1/5
f 506/2/5 501/2/5 505/2/5
f 509/1/5 505/1/5 504/1/5
f 509/1/5 506/1/5 505/1/5
f 509/1/5 503/1/5 506/1/5
f 511/1/5 508/1/5 507/1/5
f 512/1/5 508/1/5 511/1/5
f 513/1/5 509/1/5 504/1/5
f 514/2/5 510/2/5 509/2/5
f 514/1/5 509/1/5 513/1/5
f 515/1/5 511/1/5 507/1/5
f 516/2/5 513/2/5 512/2/5
f 516/1/5 511/1/5 515/1/5
f 516/2/5 512/2/5 511/2/5
f 516/2/5 514/2/5 513/2/5
f 517/2/5 514/2/5 516/2/5
f 518/2/5 510/2/5 514/2/5
f 518/2/5 514/2/5 517/2/5
f 519/2/5 517/2/5 516/2/5
f 520/2/5 517/2/5 519/2/5
f 522/2/5 519/2/5 516/2/5
f 523/2/5 522/2/5 521/2/5
f 524/2/5 519/2/5 522/2/5
f 524/2/5 522/2/5 523/2/5
f 525/2/5 519/2/5 524/2/5
f 527/2/5 526/2/5 525/2/5
f 529/2/5 523/2/5 521/2/5
f 530/1/5 524/1/5 523/1/5
f 530/2/5 523/2/5 529/2/5
f 531/2/5 527/2/5 525/2/5
f 531/1/5 524/1/5 530/1/5
f 531/2/5 525/2/5 524/2/5
f 532/2/5 527/2/5 531/2/5
f 533/2/5 527/2/5 532/2/5
f 534/2/5 527/2/5 533/2/5
f 535/1/5 528/1/5 527/1/5
f 535/2/5 527/2/5 534/2/5
f 536/1/5 535/1/5 534/1/5
f 537/1/5 528/1/5 535/1/5
f 537/1/5 535/1/5 536/1/5
f 538/1/5 531/1/5 530/1/5
f 538/1/5 532/1/5 531/1/5
f 539/1/5 532/1/5 538/1/5
f 540/2/5 533/2/5 532/2/5
f 540/1/5 532/1/5 539/1/5
f 541/2/5 540/2/5 539/2/5
f 542/2/5 533/2/5 540/2/5
f 542/2/5 540/2/5 541/2/5
f 545/2/5 544/2/5 543/2/5
f 546/2/5 544/2/5 545/2/5
f 549/1/5 548/1/5 547/1/5
f 550/1/5 548/1/5 549/1/5
f 555/2/5 552/2/5 551/2/5
f 556/2/5 552/2/5 555/2/5
f 557/1/5 554/1/5 553/1/5
f 558/1/5 554/1/5 557/1/5
f 561/2/5 560/2/5 559/2/5
f 562/2/5 560/2/5 561/2/5
f 565/1/5 564/1/5 563/1/5
f 566/1/5 564/1/5 565/1/5
f 571/4/5 568/4/5 567/4/5
f 572/4/5 570/4/5 569/4/5
f 574/4/5 571/4/5 567/4/5
f 574/4/5 572/4/5 571/4/5
f 575/4/5 570/4/5 572/4/5
f 575/4/5 572/4/5 574/4/5
f 577/4/5 574/4/5 573/4/5
f 577/4/5 576/4/5 575/4/5
f 577/4/5 575/4/5 574/4/5
f 578/4/5 576/4/5 577/4/5
f 579/4/5 576/4/5 578/4/5
f 580/4/5 576/4/5 579/4/5
f 582/4/5 579/4/5 578/4/5
f 583/4/5 579/4/5 582/4/5
f 583/4/5 582/4/5 581/4/5
f 585/4/5 584/4/5 583/4/5
f 586/4/5 584/4/5 585/4/5
f 587/4/5 585/4/5 583/4/5
f 589/4/5 583/4/5 581/4/5
f 589/4/5 588/4/5 587/4/5
f 589/4/5 587/4/5 583/4/5
f 590/4/5 588/4/5 589/4/5
f 591/4/5 588/4/5 590/4/5
f 592/4/5 588/4/5 591/4/5
f 593/4/5 591/4/5 590/4/5
f 594/4/5 591/4/5 593/4/5
f 595/4/5 593/4/5 590/4/5
f 596/4/5 593/4/5 595/4/5
f 597/4/5 591/4/5 594/4/5
f 598/4/5 591/4/5 597/4/5
f 599/2/6 600/2/6 601/2/6
f 601/2/6 600/2/6 602/2/6
f 599/2/6 601/2/6 603/2/6
f 603/2/6 601/2/6 604/2/6
f 605/1/6 606/1/6 609/1/6
f 609/1/6 606/1/6 610/1/6
f 607/2/6 608/2/6 612/2/6
f 605/1/6 609/1/6 613/1/6
f 613/1/6 609/1/6 614/1/6
f 611/2/6 612/2/6 615/2/6
f 612/2/6 608/2/6 616/2/6
f 615/2/6 612/2/6 616/2/6
f 617/2/6 618/2/6 620/2/6
f 619/2/6 620/2/6 621/2/6
f 620/2/6 618/2/6 622/2/6
f 621/2/6 620/2/6 622/2/6
f 623/1/6 624/1/6 625/1/6
f 625/1/6 624/1/6 626/1/6
f 626/1/6 624/1/6 627/1/6
f 627/1/6 624/1/6 628/1/6
f 629/2/6 630/2/6 631/2/6
f 631/2/6 630/2/6 632/2/6
f 629/2/6 631/2/6 633/2/6
f 633/2/6 631/2/6 634/2/6
f 635/1/6 636/1/6 637/1/6
f 635/1/6 637/1/6 639/1/6
f 637/1/6 638/1/6 639/1/6
f 639/1/6 638/1/6 640/1/6
f 641/1/6 642/1/6 643/1/6
f 643/1/6 642/1/6 644/1/6
f 645/1/6 646/1/6 648/1/6
f 647/1/6 648/1/6 649/1/6
f 648/1/6 646/1/6 650/1/6
f 649/1/6 648/1/6 650/1/6
f 651/1/6 652/1/6 654/1/6
f 654/1/6 652/1/6 655/1/6
f 653/2/6 654/2/6 657/2/6
f 655/2/6 656/2/6 657/2/6
f 654/2/6 655/2/6 657/2/6
f 657/2/6 656/2/6 658/2/6
f 658/2/6 656/2/6 659/2/6
f 659/2/6 656/2/6 660/2/6
f 658/2/6 659/2/6 662/2/6
f 662/2/6 659/2/6 663/2/6
f 661/2/6 662/2/6 663/2/6
f 663/2/6 664/2/6 665/2/6
f 663/2/6 665/2/6 667/2/6
f 665/2/6 666/2/6 667/2/6
f 661/2/6 663/2/6 667/2/6
f 667/2/6 666/2/6 668/2/6
f 668/2/6 666/2/6 669/2/6
f 669/2/6 666/2/6 670/2/6
f 661/2/6 667/2/6 671/2/6
f 671/2/6 667/2/6 672/2/6
f 668/2/6 669/2/6 673/2/6
f 673/2/6 669/2/6 674/2/6
f 675/2/6 676/2/6 677/2/6
f 677/2/6 676/2/6 678/2/6
f 679/1/6 680/1/6 681/1/6
f 681/1/6 680/1/6 682/1/6
f 683/4/6 684/4/6 685/4/6
f 685/4/6 684/4/6 686/4/6
f 683/4/6 685/4/6 688/4/6
f 687/4/6 688/4/6 691/4/6
f 691/4/6 688/4/6 692/4/6
f 688/4/6 685/4/6 693/4/6
f 692/4/6 688/4/6 693/4/6
f 689/4/6 690/4/6 694/4/6
f 687/4/6 691/4/6 695/4/6
f 695/4/6 691/4/6 696/4/6
f 692/4/6 693/4/6 698/4/6
f 693/4/6 694/4/6 698/4/6
f 698/4/6 694/4/6 699/4/6
f 694/4/6 690/4/6 700/4/6
f 699/4/6 694/4/6 700/4/6
f 687/4/6 695/4/6 701/4/6
f 698/4/6 699/4/6 702/4/6
f 697/4/6 698/4/6 702/4/6
f 702/4/6 699/4/6 703/4/6
f 703/4/6 699/4/6 704/4/6
f 704/4/6 699/4/6 705/4/6
f 705/4/6 699/4/6 706/4/6
f 704/4/6 705/4/6 707/4/6
f 707/4/6 705/4/6 708/4/6
f 700/4/6 690/4/6 710/4/6
f 701/4/6 702/4/6 711/4/6
f 702/4/6 703/4/6 711/4/6
f 709/4/6 710/4/6 714/4/6
f 687/4/6 701/4/6 715/4/6
f 711/4/6 712/4/6 715/4/6
f 701/4/6 711/4/6 715/4/6
f 715/4/6 712/4/6 716/4/6
f 716/4/6 712/4/6 717/4/6
f 713/4/6 714/4/6 719/4/6
f 714/4/6 710/4/6 720/4/6
f 719/4/6 714/4/6 720/4/6
f 710/4/6 690/4/6 720/4/6
f 717/4/6 718/4/6 721/4/6
f 716/4/6 717/4/6 721/4/6
f 721/4/6 718/4/6 722/4/6
f 723/3/6 724/3/6 725/3/6
f 725/3/6 724/3/6 726/3/6
f 727/4/6 728/4/6 729/4/6
f 729/4/6 730/4/6 733/4/6
f 727/4/6 729/4/6 733/4/6
f 733/4/6 730/4/6 734/4/6
f 731/4/6 732/4/6 737/4/6
f 737/4/6 732/4/6 738/4/6
f 735/3/6 736/3/6 739/3/6
f 739/3/6 736/3/6 740/3/6
f 738/4/6 732/4/6 741/4/6
f 741/4/6 732/4/6 742/4/6
f 735/3/6 739/3/6 743/3/6
f 743/3/6 739/3/6 744/3/6
f 745/4/6 746/4/6 747/4/6
f 747/4/6 746/4/6 748/4/6
f 749/3/6 750/3/6 751/3/6
f 751/3/6 750/3/6 752/3/6
f 752/3/6 750/3/6 753/3/6
f 753/3/6 750/3/6 754/3/6
f 755/4/6 756/4/6 757/4/6
f 757/4/6 756/4/6 758/4/6
