# MagicaVoxel @ Ephtracy

# group
o 

# material
mtllib Cactus4.mtl
usemtl palette

# normals
vn -1 0 0
vn 1 0 0
vn 0 0 1
vn 0 0 -1
vn 0 -1 0
vn 0 1 0

# texcoords
vt 0.962891 0.5
vt 0.966797 0.5
vt 0.978516 0.5
vt 0.982422 0.5
vt 0.990234 0.5

# verts
v -0.7 0 0.8
v -0.7 0 0.6
v -0.7 0.2 0.8
v -0.7 0.2 0.6
v -0.1 0 0.6
v -0.1 0 0.3
v -0.1 0.3 0.6
v -0.1 0.3 0.3
v 0 0.2 0.3
v 0 0.2 0.2
v 0 0.3 0.5
v 0 0.3 0.3
v 0 0.5 0.5
v 0 0.5 0.4
v 0 0.5 0.3
v 0 0.5 0.2
v 0 0.6 0.4
v 0 0.6 0.3
v 0.1 0.5 0.5
v 0.1 0.5 0.4
v 0.1 0.5 0.3
v 0.1 0.5 0.2
v 0.1 0.6 0.5
v 0.1 0.6 0.4
v 0.1 0.6 0.3
v 0.1 0.6 0.2
v 0.3 0 -0.4
v 0.3 0 -0.7
v 0.3 0.3 -0.4
v 0.3 0.3 -0.5
v 0.3 0.3 -0.6
v 0.3 0.3 -0.7
v 0.3 0.4 -0.5
v 0.3 0.4 -0.6
v 0.4 0.3 -0.4
v 0.4 0.3 -0.5
v 0.4 0.3 -0.6
v 0.4 0.3 -0.7
v 0.4 0.4 -0.4
v 0.4 0.4 -0.5
v 0.4 0.4 -0.6
v 0.4 0.4 -0.7
v -0.5 0 0.8
v -0.5 0 0.6
v -0.5 0.2 0.8
v -0.5 0.2 0.6
v 0.2 0 0.6
v 0.2 0 0.3
v 0.2 0.2 0.5
v 0.2 0.2 0.3
v 0.2 0.3 0.6
v 0.2 0.3 0.5
v 0.2 0.5 0.5
v 0.2 0.5 0.4
v 0.2 0.5 0.3
v 0.2 0.5 0.2
v 0.2 0.6 0.5
v 0.2 0.6 0.4
v 0.2 0.6 0.3
v 0.2 0.6 0.2
v 0.3 0.2 0.5
v 0.3 0.2 0.2
v 0.3 0.5 0.5
v 0.3 0.5 0.4
v 0.3 0.5 0.3
v 0.3 0.5 0.2
v 0.3 0.6 0.4
v 0.3 0.6 0.3
v 0.5 0.3 -0.4
v 0.5 0.3 -0.5
v 0.5 0.3 -0.6
v 0.5 0.3 -0.7
v 0.5 0.4 -0.4
v 0.5 0.4 -0.5
v 0.5 0.4 -0.6
v 0.5 0.4 -0.7
v 0.6 0 -0.4
v 0.6 0 -0.7
v 0.6 0.3 -0.4
v 0.6 0.3 -0.5
v 0.6 0.3 -0.6
v 0.6 0.3 -0.7
v 0.6 0.4 -0.5
v 0.6 0.4 -0.6
v -0.7 0 0.8
v -0.7 0.2 0.8
v -0.5 0 0.8
v -0.5 0.2 0.8
v -0.1 0 0.6
v -0.1 0.3 0.6
v 0.2 0 0.6
v 0.2 0.3 0.6
v 0 0.3 0.5
v 0 0.5 0.5
v 0.1 0.5 0.5
v 0.1 0.6 0.5
v 0.2 0.2 0.5
v 0.2 0.3 0.5
v 0.2 0.5 0.5
v 0.2 0.6 0.5
v 0.3 0.2 0.5
v 0.3 0.5 0.5
v 0 0.5 0.4
v 0 0.6 0.4
v 0.1 0.5 0.4
v 0.1 0.6 0.4
v 0.2 0.5 0.4
v 0.2 0.6 0.4
v 0.3 0.5 0.4
v 0.3 0.6 0.4
v 0.3 0 -0.4
v 0.3 0.3 -0.4
v 0.4 0.3 -0.4
v 0.4 0.4 -0.4
v 0.5 0.3 -0.4
v 0.5 0.4 -0.4
v 0.6 0 -0.4
v 0.6 0.3 -0.4
v 0.3 0.3 -0.5
v 0.3 0.4 -0.5
v 0.4 0.3 -0.5
v 0.4 0.4 -0.5
v 0.5 0.3 -0.5
v 0.5 0.4 -0.5
v 0.6 0.3 -0.5
v 0.6 0.4 -0.5
v -0.7 0 0.6
v -0.7 0.2 0.6
v -0.5 0 0.6
v -0.5 0.2 0.6
v -0.1 0 0.3
v -0.1 0.3 0.3
v 0 0.2 0.3
v 0 0.3 0.3
v 0 0.5 0.3
v 0 0.6 0.3
v 0.1 0.5 0.3
v 0.1 0.6 0.3
v 0.2 0 0.3
v 0.2 0.2 0.3
v 0.2 0.5 0.3
v 0.2 0.6 0.3
v 0.3 0.5 0.3
v 0.3 0.6 0.3
v 0 0.2 0.2
v 0 0.5 0.2
v 0.1 0.5 0.2
v 0.1 0.6 0.2
v 0.2 0.5 0.2
v 0.2 0.6 0.2
v 0.3 0.2 0.2
v 0.3 0.5 0.2
v 0.3 0.3 -0.6
v 0.3 0.4 -0.6
v 0.4 0.3 -0.6
v 0.4 0.4 -0.6
v 0.5 0.3 -0.6
v 0.5 0.4 -0.6
v 0.6 0.3 -0.6
v 0.6 0.4 -0.6
v 0.3 0 -0.7
v 0.3 0.3 -0.7
v 0.4 0.3 -0.7
v 0.4 0.4 -0.7
v 0.5 0.3 -0.7
v 0.5 0.4 -0.7
v 0.6 0 -0.7
v 0.6 0.3 -0.7
v -0.7 0 0.8
v -0.5 0 0.8
v -0.7 0 0.6
v -0.5 0 0.6
v -0.1 0 0.6
v 0.2 0 0.6
v -0.1 0 0.3
v 0.2 0 0.3
v 0.3 0 -0.4
v 0.6 0 -0.4
v 0.3 0 -0.7
v 0.6 0 -0.7
v 0.2 0.2 0.5
v 0.3 0.2 0.5
v 0 0.2 0.3
v 0.2 0.2 0.3
v 0 0.2 0.2
v 0.3 0.2 0.2
v -0.7 0.2 0.8
v -0.5 0.2 0.8
v -0.7 0.2 0.6
v -0.5 0.2 0.6
v -0.1 0.3 0.6
v 0.2 0.3 0.6
v 0 0.3 0.5
v 0.2 0.3 0.5
v -0.1 0.3 0.3
v 0 0.3 0.3
v 0.3 0.3 -0.4
v 0.4 0.3 -0.4
v 0.5 0.3 -0.4
v 0.6 0.3 -0.4
v 0.3 0.3 -0.5
v 0.4 0.3 -0.5
v 0.5 0.3 -0.5
v 0.6 0.3 -0.5
v 0.3 0.3 -0.6
v 0.4 0.3 -0.6
v 0.5 0.3 -0.6
v 0.6 0.3 -0.6
v 0.3 0.3 -0.7
v 0.4 0.3 -0.7
v 0.5 0.3 -0.7
v 0.6 0.3 -0.7
v 0.4 0.4 -0.4
v 0.5 0.4 -0.4
v 0.3 0.4 -0.5
v 0.4 0.4 -0.5
v 0.5 0.4 -0.5
v 0.6 0.4 -0.5
v 0.3 0.4 -0.6
v 0.4 0.4 -0.6
v 0.5 0.4 -0.6
v 0.6 0.4 -0.6
v 0.4 0.4 -0.7
v 0.5 0.4 -0.7
v 0 0.5 0.5
v 0.1 0.5 0.5
v 0.2 0.5 0.5
v 0.3 0.5 0.5
v 0 0.5 0.4
v 0.1 0.5 0.4
v 0.2 0.5 0.4
v 0.3 0.5 0.4
v 0 0.5 0.3
v 0.1 0.5 0.3
v 0.2 0.5 0.3
v 0.3 0.5 0.3
v 0 0.5 0.2
v 0.1 0.5 0.2
v 0.2 0.5 0.2
v 0.3 0.5 0.2
v 0.1 0.6 0.5
v 0.2 0.6 0.5
v 0 0.6 0.4
v 0.1 0.6 0.4
v 0.2 0.6 0.4
v 0.3 0.6 0.4
v 0 0.6 0.3
v 0.1 0.6 0.3
v 0.2 0.6 0.3
v 0.3 0.6 0.3
v 0.1 0.6 0.2
v 0.2 0.6 0.2

# faces
f 3/4/1 2/4/1 1/4/1
f 4/4/1 2/4/1 3/4/1
f 7/5/1 6/5/1 5/5/1
f 8/5/1 6/5/1 7/5/1
f 12/3/1 10/3/1 9/3/1
f 13/3/1 12/3/1 11/3/1
f 14/3/1 12/3/1 13/3/1
f 15/3/1 10/3/1 12/3/1
f 15/3/1 12/3/1 14/3/1
f 16/3/1 10/3/1 15/3/1
f 17/1/1 15/1/1 14/1/1
f 18/1/1 15/1/1 17/1/1
f 23/1/1 20/1/1 19/1/1
f 24/1/1 20/1/1 23/1/1
f 25/1/1 22/1/1 21/1/1
f 26/1/1 22/1/1 25/1/1
f 29/4/1 28/4/1 27/4/1
f 30/4/1 28/4/1 29/4/1
f 31/4/1 28/4/1 30/4/1
f 32/4/1 28/4/1 31/4/1
f 33/1/1 31/1/1 30/1/1
f 34/1/1 31/1/1 33/1/1
f 39/1/1 36/1/1 35/1/1
f 40/1/1 36/1/1 39/1/1
f 41/1/1 38/1/1 37/1/1
f 42/1/1 38/1/1 41/1/1
f 43/4/2 44/4/2 45/4/2
f 45/4/2 44/4/2 46/4/2
f 47/5/2 48/5/2 49/5/2
f 49/5/2 48/5/2 50/5/2
f 47/5/2 49/5/2 51/5/2
f 51/5/2 49/5/2 52/5/2
f 53/1/2 54/1/2 57/1/2
f 57/1/2 54/1/2 58/1/2
f 55/1/2 56/1/2 59/1/2
f 59/1/2 56/1/2 60/1/2
f 61/3/2 62/3/2 63/3/2
f 63/3/2 62/3/2 64/3/2
f 64/3/2 62/3/2 65/3/2
f 65/3/2 62/3/2 66/3/2
f 64/1/2 65/1/2 67/1/2
f 67/1/2 65/1/2 68/1/2
f 69/1/2 70/1/2 73/1/2
f 73/1/2 70/1/2 74/1/2
f 71/1/2 72/1/2 75/1/2
f 75/1/2 72/1/2 76/1/2
f 77/4/2 78/4/2 79/4/2
f 79/4/2 78/4/2 80/4/2
f 80/4/2 78/4/2 81/4/2
f 81/4/2 78/4/2 82/4/2
f 80/1/2 81/1/2 83/1/2
f 83/1/2 81/1/2 84/1/2
f 87/4/3 86/4/3 85/4/3
f 88/4/3 86/4/3 87/4/3
f 91/5/3 90/5/3 89/5/3
f 92/5/3 90/5/3 91/5/3
f 95/3/3 94/3/3 93/3/3
f 98/3/3 95/3/3 93/3/3
f 99/1/3 96/1/3 95/1/3
f 99/3/3 95/3/3 98/3/3
f 100/1/3 96/1/3 99/1/3
f 101/3/3 98/3/3 97/3/3
f 101/3/3 99/3/3 98/3/3
f 102/3/3 99/3/3 101/3/3
f 105/1/3 104/1/3 103/1/3
f 106/1/3 104/1/3 105/1/3
f 109/1/3 108/1/3 107/1/3
f 110/1/3 108/1/3 109/1/3
f 113/4/3 112/4/3 111/4/3
f 115/4/3 113/4/3 111/4/3
f 115/1/3 114/1/3 113/1/3
f 116/1/3 114/1/3 115/1/3
f 117/4/3 115/4/3 111/4/3
f 118/4/3 115/4/3 117/4/3
f 121/1/3 120/1/3 119/1/3
f 122/1/3 120/1/3 121/1/3
f 125/1/3 124/1/3 123/1/3
f 126/1/3 124/1/3 125/1/3
f 127/4/4 128/4/4 129/4/4
f 129/4/4 128/4/4 130/4/4
f 131/5/4 132/5/4 133/5/4
f 133/5/4 132/5/4 134/5/4
f 135/1/4 136/1/4 137/1/4
f 137/1/4 136/1/4 138/1/4
f 131/5/4 133/5/4 139/5/4
f 139/5/4 133/5/4 140/5/4
f 141/1/4 142/1/4 143/1/4
f 143/1/4 142/1/4 144/1/4
f 145/3/4 146/3/4 147/3/4
f 145/3/4 147/3/4 149/3/4
f 147/1/4 148/1/4 149/1/4
f 149/1/4 148/1/4 150/1/4
f 145/3/4 149/3/4 151/3/4
f 151/3/4 149/3/4 152/3/4
f 153/1/4 154/1/4 155/1/4
f 155/1/4 154/1/4 156/1/4
f 157/1/4 158/1/4 159/1/4
f 159/1/4 158/1/4 160/1/4
f 161/4/4 162/4/4 163/4/4
f 161/4/4 163/4/4 165/4/4
f 163/1/4 164/1/4 165/1/4
f 165/1/4 164/1/4 166/1/4
f 161/4/4 165/4/4 167/4/4
f 167/4/4 165/4/4 168/4/4
f 171/4/5 170/4/5 169/4/5
f 172/4/5 170/4/5 171/4/5
f 175/5/5 174/5/5 173/5/5
f 176/5/5 174/5/5 175/5/5
f 179/4/5 178/4/5 177/4/5
f 180/4/5 178/4/5 179/4/5
f 184/3/5 182/3/5 181/3/5
f 185/3/5 184/3/5 183/3/5
f 186/3/5 182/3/5 184/3/5
f 186/3/5 184/3/5 185/3/5
f 187/4/6 188/4/6 189/4/6
f 189/4/6 188/4/6 190/4/6
f 191/5/6 192/5/6 193/5/6
f 193/5/6 192/5/6 194/5/6
f 191/5/6 193/5/6 195/5/6
f 195/5/6 193/5/6 196/5/6
f 197/4/6 198/4/6 201/4/6
f 201/4/6 198/4/6 202/4/6
f 199/4/6 200/4/6 203/4/6
f 203/4/6 200/4/6 204/4/6
f 205/4/6 206/4/6 209/4/6
f 209/4/6 206/4/6 210/4/6
f 207/4/6 208/4/6 211/4/6
f 211/4/6 208/4/6 212/4/6
f 213/1/6 214/1/6 216/1/6
f 216/1/6 214/1/6 217/1/6
f 215/1/6 216/1/6 219/1/6
f 216/2/6 217/2/6 220/2/6
f 219/1/6 216/1/6 220/1/6
f 217/1/6 218/1/6 221/1/6
f 220/2/6 217/2/6 221/2/6
f 221/1/6 218/1/6 222/1/6
f 220/1/6 221/1/6 223/1/6
f 223/1/6 221/1/6 224/1/6
f 225/3/6 226/3/6 229/3/6
f 229/3/6 226/3/6 230/3/6
f 227/3/6 228/3/6 231/3/6
f 231/3/6 228/3/6 232/3/6
f 233/3/6 234/3/6 237/3/6
f 237/3/6 234/3/6 238/3/6
f 235/3/6 236/3/6 239/3/6
f 239/3/6 236/3/6 240/3/6
f 241/1/6 242/1/6 244/1/6
f 244/1/6 242/1/6 245/1/6
f 243/1/6 244/1/6 247/1/6
f 244/2/6 245/2/6 248/2/6
f 247/1/6 244/1/6 248/1/6
f 245/1/6 246/1/6 249/1/6
f 248/2/6 245/2/6 249/2/6
f 249/1/6 246/1/6 250/1/6
f 248/1/6 249/1/6 251/1/6
f 251/1/6 249/1/6 252/1/6
