# MagicaVoxel @ Ephtracy

# group
o 

# material
mtllib Cactus3.mtl
usemtl palette

# normals
vn -1 0 0
vn 1 0 0
vn 0 0 1
vn 0 0 -1
vn 0 -1 0
vn 0 1 0

# texcoords
vt 0.931641 0.5
vt 0.962891 0.5
vt 0.966797 0.5
vt 0.978516 0.5
vt 0.982422 0.5
vt 0.986328 0.5
vt 0.990234 0.5

# verts
v -0.8 0 0.3
v -0.8 0 -2.98023e-08
v -0.8 0.3 0.3
v -0.8 0.3 -2.98023e-08
v 0.2 0.6 0.2
v 0.2 0.6 -0.1
v 0.2 0.9 0.2
v 0.2 0.9 0.1
v 0.2 0.9 -2.98023e-08
v 0.2 0.9 -0.1
v 0.2 1 0.1
v 0.2 1 -2.98023e-08
v 0.3 0.4 0.1
v 0.3 0.4 -0.4
v 0.3 0.6 0.1
v 0.3 0.6 -0.1
v 0.3 0.7 -0.1
v 0.3 0.7 -0.4
v 0.3 0.9 0.2
v 0.3 0.9 0.1
v 0.3 0.9 -2.98023e-08
v 0.3 0.9 -0.1
v 0.3 1 0.2
v 0.3 1 0.1
v 0.3 1 -2.98023e-08
v 0.3 1 -0.1
v 0.4 0 -0.2
v 0.4 0 -0.5
v 0.4 0.4 -0.2
v 0.4 0.4 -0.4
v 0.4 0.7 -0.2
v 0.4 0.7 -0.4
v 0.4 0.9 -0.2
v 0.4 0.9 -0.4
v 0.4 0.9 -0.5
v 0.4 0.9 -0.7
v 0.4 1.2 -0.4
v 0.4 1.2 -0.5
v 0.4 1.2 -0.6
v 0.4 1.2 -0.7
v 0.4 1.3 -0.5
v 0.4 1.3 -0.6
v 0.5 0.8 -0.5
v 0.5 0.8 -0.6
v 0.5 0.9 -0.3
v 0.5 0.9 -0.4
v 0.5 0.9 -0.5
v 0.5 0.9 -0.6
v 0.5 1.1 -0.3
v 0.5 1.1 -0.4
v 0.5 1.2 -0.4
v 0.5 1.2 -0.5
v 0.5 1.2 -0.6
v 0.5 1.2 -0.7
v 0.5 1.3 -0.4
v 0.5 1.3 -0.5
v 0.5 1.3 -0.6
v 0.5 1.3 -0.7
v -0.5 0 0.3
v -0.5 0 -2.98023e-08
v -0.5 0.3 0.3
v -0.5 0.3 -2.98023e-08
v 0.4 0.9 0.2
v 0.4 0.9 0.1
v 0.4 0.9 -2.98023e-08
v 0.4 0.9 -0.1
v 0.4 1 0.2
v 0.4 1 0.1
v 0.4 1 -2.98023e-08
v 0.4 1 -0.1
v 0.5 0.6 0.2
v 0.5 0.6 0.1
v 0.5 0.7 0.1
v 0.5 0.7 -0.1
v 0.5 0.9 0.2
v 0.5 0.9 0.1
v 0.5 0.9 -2.98023e-08
v 0.5 0.9 -0.1
v 0.5 1 0.1
v 0.5 1 -2.98023e-08
v 0.6 0.4 0.1
v 0.6 0.4 -0.2
v 0.6 0.7 0.1
v 0.6 0.7 -0.2
v 0.6 1.2 -0.4
v 0.6 1.2 -0.5
v 0.6 1.2 -0.6
v 0.6 1.2 -0.7
v 0.6 1.3 -0.4
v 0.6 1.3 -0.5
v 0.6 1.3 -0.6
v 0.6 1.3 -0.7
v 0.7 0 -0.2
v 0.7 0 -0.5
v 0.7 0.8 -0.3
v 0.7 0.8 -0.5
v 0.7 0.9 -0.2
v 0.7 0.9 -0.3
v 0.7 0.9 -0.6
v 0.7 0.9 -0.7
v 0.7 1.1 -0.4
v 0.7 1.1 -0.6
v 0.7 1.2 -0.4
v 0.7 1.2 -0.5
v 0.7 1.2 -0.6
v 0.7 1.2 -0.7
v 0.7 1.3 -0.5
v 0.7 1.3 -0.6
v 0.8 0.8 -0.3
v 0.8 0.8 -0.6
v 0.8 1.1 -0.3
v 0.8 1.1 -0.6
v -0.8 0 0.3
v -0.8 0.3 0.3
v -0.5 0 0.3
v -0.5 0.3 0.3
v 0.2 0.6 0.2
v 0.2 0.9 0.2
v 0.3 0.9 0.2
v 0.3 1 0.2
v 0.4 0.9 0.2
v 0.4 1 0.2
v 0.5 0.6 0.2
v 0.5 0.9 0.2
v 0.2 0.9 0.1
v 0.2 1 0.1
v 0.3 0.4 0.1
v 0.3 0.6 0.1
v 0.3 0.9 0.1
v 0.3 1 0.1
v 0.4 0.9 0.1
v 0.4 1 0.1
v 0.5 0.6 0.1
v 0.5 0.7 0.1
v 0.5 0.9 0.1
v 0.5 1 0.1
v 0.6 0.4 0.1
v 0.6 0.7 0.1
v 0.4 0 -0.2
v 0.4 0.4 -0.2
v 0.4 0.7 -0.2
v 0.4 0.9 -0.2
v 0.6 0.4 -0.2
v 0.6 0.7 -0.2
v 0.7 0 -0.2
v 0.7 0.9 -0.2
v 0.5 0.9 -0.3
v 0.5 1.1 -0.3
v 0.7 0.8 -0.3
v 0.7 0.9 -0.3
v 0.8 0.8 -0.3
v 0.8 1.1 -0.3
v 0.4 0.9 -0.4
v 0.4 1.2 -0.4
v 0.5 0.9 -0.4
v 0.5 1.1 -0.4
v 0.5 1.2 -0.4
v 0.5 1.3 -0.4
v 0.6 1.2 -0.4
v 0.6 1.3 -0.4
v 0.7 1.1 -0.4
v 0.7 1.2 -0.4
v 0.4 1.2 -0.5
v 0.4 1.3 -0.5
v 0.5 1.2 -0.5
v 0.5 1.3 -0.5
v 0.6 1.2 -0.5
v 0.6 1.3 -0.5
v 0.7 1.2 -0.5
v 0.7 1.3 -0.5
v -0.8 0 -2.98023e-08
v -0.8 0.3 -2.98023e-08
v -0.5 0 -2.98023e-08
v -0.5 0.3 -2.98023e-08
v 0.2 0.9 -2.98023e-08
v 0.2 1 -2.98023e-08
v 0.3 0.9 -2.98023e-08
v 0.3 1 -2.98023e-08
v 0.4 0.9 -2.98023e-08
v 0.4 1 -2.98023e-08
v 0.5 0.9 -2.98023e-08
v 0.5 1 -2.98023e-08
v 0.2 0.6 -0.1
v 0.2 0.9 -0.1
v 0.3 0.6 -0.1
v 0.3 0.7 -0.1
v 0.3 0.9 -0.1
v 0.3 1 -0.1
v 0.4 0.9 -0.1
v 0.4 1 -0.1
v 0.5 0.7 -0.1
v 0.5 0.9 -0.1
v 0.3 0.4 -0.4
v 0.3 0.7 -0.4
v 0.4 0.4 -0.4
v 0.4 0.7 -0.4
v 0.4 0 -0.5
v 0.4 0.9 -0.5
v 0.5 0.8 -0.5
v 0.5 0.9 -0.5
v 0.7 0 -0.5
v 0.7 0.8 -0.5
v 0.4 1.2 -0.6
v 0.4 1.3 -0.6
v 0.5 0.8 -0.6
v 0.5 0.9 -0.6
v 0.5 1.2 -0.6
v 0.5 1.3 -0.6
v 0.6 1.2 -0.6
v 0.6 1.3 -0.6
v 0.7 0.9 -0.6
v 0.7 1.1 -0.6
v 0.7 1.2 -0.6
v 0.7 1.3 -0.6
v 0.8 0.8 -0.6
v 0.8 1.1 -0.6
v 0.4 0.9 -0.7
v 0.4 1.2 -0.7
v 0.5 1.2 -0.7
v 0.5 1.3 -0.7
v 0.6 1.2 -0.7
v 0.6 1.3 -0.7
v 0.7 0.9 -0.7
v 0.7 1.2 -0.7
v -0.8 0 0.3
v -0.5 0 0.3
v -0.8 0 -2.98023e-08
v -0.5 0 -2.98023e-08
v 0.4 0 -0.2
v 0.7 0 -0.2
v 0.4 0 -0.5
v 0.7 0 -0.5
v 0.3 0.4 0.1
v 0.6 0.4 0.1
v 0.4 0.4 -0.2
v 0.6 0.4 -0.2
v 0.3 0.4 -0.4
v 0.4 0.4 -0.4
v 0.2 0.6 0.2
v 0.5 0.6 0.2
v 0.3 0.6 0.1
v 0.5 0.6 0.1
v 0.2 0.6 -0.1
v 0.3 0.6 -0.1
v 0.7 0.8 -0.3
v 0.8 0.8 -0.3
v 0.5 0.8 -0.5
v 0.7 0.8 -0.5
v 0.5 0.8 -0.6
v 0.8 0.8 -0.6
v 0.4 0.9 -0.5
v 0.5 0.9 -0.5
v 0.5 0.9 -0.6
v 0.7 0.9 -0.6
v 0.4 0.9 -0.7
v 0.7 0.9 -0.7
v -0.8 0.3 0.3
v -0.5 0.3 0.3
v -0.8 0.3 -2.98023e-08
v -0.5 0.3 -2.98023e-08
v 0.5 0.7 0.1
v 0.6 0.7 0.1
v 0.3 0.7 -0.1
v 0.5 0.7 -0.1
v 0.4 0.7 -0.2
v 0.6 0.7 -0.2
v 0.3 0.7 -0.4
v 0.4 0.7 -0.4
v 0.2 0.9 0.2
v 0.3 0.9 0.2
v 0.4 0.9 0.2
v 0.5 0.9 0.2
v 0.2 0.9 0.1
v 0.3 0.9 0.1
v 0.4 0.9 0.1
v 0.5 0.9 0.1
v 0.2 0.9 -2.98023e-08
v 0.3 0.9 -2.98023e-08
v 0.4 0.9 -2.98023e-08
v 0.5 0.9 -2.98023e-08
v 0.2 0.9 -0.1
v 0.3 0.9 -0.1
v 0.4 0.9 -0.1
v 0.5 0.9 -0.1
v 0.4 0.9 -0.2
v 0.7 0.9 -0.2
v 0.5 0.9 -0.3
v 0.7 0.9 -0.3
v 0.4 0.9 -0.4
v 0.5 0.9 -0.4
v 0.3 1 0.2
v 0.4 1 0.2
v 0.2 1 0.1
v 0.3 1 0.1
v 0.4 1 0.1
v 0.5 1 0.1
v 0.2 1 -2.98023e-08
v 0.3 1 -2.98023e-08
v 0.4 1 -2.98023e-08
v 0.5 1 -2.98023e-08
v 0.3 1 -0.1
v 0.4 1 -0.1
v 0.5 1.1 -0.3
v 0.8 1.1 -0.3
v 0.5 1.1 -0.4
v 0.7 1.1 -0.4
v 0.7 1.1 -0.6
v 0.8 1.1 -0.6
v 0.4 1.2 -0.4
v 0.5 1.2 -0.4
v 0.6 1.2 -0.4
v 0.7 1.2 -0.4
v 0.4 1.2 -0.5
v 0.5 1.2 -0.5
v 0.6 1.2 -0.5
v 0.7 1.2 -0.5
v 0.4 1.2 -0.6
v 0.5 1.2 -0.6
v 0.6 1.2 -0.6
v 0.7 1.2 -0.6
v 0.4 1.2 -0.7
v 0.5 1.2 -0.7
v 0.6 1.2 -0.7
v 0.7 1.2 -0.7
v 0.5 1.3 -0.4
v 0.6 1.3 -0.4
v 0.4 1.3 -0.5
v 0.5 1.3 -0.5
v 0.6 1.3 -0.5
v 0.7 1.3 -0.5
v 0.4 1.3 -0.6
v 0.5 1.3 -0.6
v 0.6 1.3 -0.6
v 0.7 1.3 -0.6
v 0.5 1.3 -0.7
v 0.6 1.3 -0.7

# faces
f 3/7/1 2/7/1 1/7/1
f 4/7/1 2/7/1 3/7/1
f 7/4/1 6/4/1 5/4/1
f 8/4/1 6/4/1 7/4/1
f 9/4/1 6/4/1 8/4/1
f 10/4/1 6/4/1 9/4/1
f 11/2/1 9/2/1 8/2/1
f 12/2/1 9/2/1 11/2/1
f 15/6/1 14/6/1 13/6/1
f 16/6/1 14/6/1 15/6/1
f 17/6/1 14/6/1 16/6/1
f 18/6/1 14/6/1 17/6/1
f 23/2/1 20/2/1 19/2/1
f 24/2/1 20/2/1 23/2/1
f 25/2/1 22/2/1 21/2/1
f 26/2/1 22/2/1 25/2/1
f 29/5/1 28/5/1 27/5/1
f 30/5/1 28/5/1 29/5/1
f 32/5/1 28/5/1 30/5/1
f 33/5/1 32/5/1 31/5/1
f 34/5/1 28/5/1 32/5/1
f 34/5/1 32/5/1 33/5/1
f 35/5/1 28/5/1 34/5/1
f 37/6/1 36/6/1 35/6/1
f 37/6/1 35/6/1 34/6/1
f 38/6/1 36/6/1 37/6/1
f 39/6/1 36/6/1 38/6/1
f 40/6/1 36/6/1 39/6/1
f 41/1/1 39/1/1 38/1/1
f 42/1/1 39/1/1 41/1/1
f 47/4/1 44/4/1 43/4/1
f 48/4/1 44/4/1 47/4/1
f 49/4/1 46/4/1 45/4/1
f 50/4/1 46/4/1 49/4/1
f 55/1/1 52/1/1 51/1/1
f 56/1/1 52/1/1 55/1/1
f 57/1/1 54/1/1 53/1/1
f 58/1/1 54/1/1 57/1/1
f 59/7/2 60/7/2 61/7/2
f 61/7/2 60/7/2 62/7/2
f 63/2/2 64/2/2 67/2/2
f 67/2/2 64/2/2 68/2/2
f 65/2/2 66/2/2 69/2/2
f 69/2/2 66/2/2 70/2/2
f 71/4/2 72/4/2 73/4/2
f 71/4/2 73/4/2 75/4/2
f 73/4/2 74/4/2 75/4/2
f 75/4/2 74/4/2 76/4/2
f 76/4/2 74/4/2 77/4/2
f 77/4/2 74/4/2 78/4/2
f 76/2/2 77/2/2 79/2/2
f 79/2/2 77/2/2 80/2/2
f 81/6/2 82/6/2 83/6/2
f 83/6/2 82/6/2 84/6/2
f 85/1/2 86/1/2 89/1/2
f 89/1/2 86/1/2 90/1/2
f 87/1/2 88/1/2 91/1/2
f 91/1/2 88/1/2 92/1/2
f 93/5/2 94/5/2 95/5/2
f 95/5/2 94/5/2 96/5/2
f 93/5/2 95/5/2 97/5/2
f 97/5/2 95/5/2 98/5/2
f 99/6/2 100/6/2 102/6/2
f 101/6/2 102/6/2 103/6/2
f 103/6/2 102/6/2 104/6/2
f 102/6/2 100/6/2 105/6/2
f 104/6/2 102/6/2 105/6/2
f 105/6/2 100/6/2 106/6/2
f 104/1/2 105/1/2 107/1/2
f 107/1/2 105/1/2 108/1/2
f 109/4/2 110/4/2 111/4/2
f 111/4/2 110/4/2 112/4/2
f 115/7/3 114/7/3 113/7/3
f 116/7/3 114/7/3 115/7/3
f 119/4/3 118/4/3 117/4/3
f 121/4/3 119/4/3 117/4/3
f 121/2/3 120/2/3 119/2/3
f 122/2/3 120/2/3 121/2/3
f 123/4/3 121/4/3 117/4/3
f 124/4/3 121/4/3 123/4/3
f 129/2/3 126/2/3 125/2/3
f 130/2/3 126/2/3 129/2/3
f 133/6/3 128/6/3 127/6/3
f 135/2/3 132/2/3 131/2/3
f 136/2/3 132/2/3 135/2/3
f 137/6/3 134/6/3 133/6/3
f 137/6/3 133/6/3 127/6/3
f 138/6/3 134/6/3 137/6/3
f 143/5/3 140/5/3 139/5/3
f 144/5/3 142/5/3 141/5/3
f 145/5/3 143/5/3 139/5/3
f 145/5/3 144/5/3 143/5/3
f 146/5/3 142/5/3 144/5/3
f 146/5/3 144/5/3 145/5/3
f 150/4/3 148/4/3 147/4/3
f 151/4/3 150/4/3 149/4/3
f 152/4/3 148/4/3 150/4/3
f 152/4/3 150/4/3 151/4/3
f 155/6/3 154/6/3 153/6/3
f 156/6/3 154/6/3 155/6/3
f 157/6/3 154/6/3 156/6/3
f 159/1/3 158/1/3 157/1/3
f 159/6/3 157/6/3 156/6/3
f 160/1/3 158/1/3 159/1/3
f 161/6/3 159/6/3 156/6/3
f 162/6/3 159/6/3 161/6/3
f 165/1/3 164/1/3 163/1/3
f 166/1/3 164/1/3 165/1/3
f 169/1/3 168/1/3 167/1/3
f 170/1/3 168/1/3 169/1/3
f 171/7/4 172/7/4 173/7/4
f 173/7/4 172/7/4 174/7/4
f 175/2/4 176/2/4 177/2/4
f 177/2/4 176/2/4 178/2/4
f 179/2/4 180/2/4 181/2/4
f 181/2/4 180/2/4 182/2/4
f 183/4/4 184/4/4 185/4/4
f 185/4/4 184/4/4 186/4/4
f 186/4/4 184/4/4 187/4/4
f 187/2/4 188/2/4 189/2/4
f 186/4/4 187/4/4 189/4/4
f 189/2/4 188/2/4 190/2/4
f 186/4/4 189/4/4 191/4/4
f 191/4/4 189/4/4 192/4/4
f 193/6/4 194/6/4 195/6/4
f 195/6/4 194/6/4 196/6/4
f 197/5/4 198/5/4 199/5/4
f 199/5/4 198/5/4 200/5/4
f 197/5/4 199/5/4 201/5/4
f 201/5/4 199/5/4 202/5/4
f 203/1/4 204/1/4 207/1/4
f 207/1/4 204/1/4 208/1/4
f 205/4/4 206/4/4 211/4/4
f 209/1/4 210/1/4 213/1/4
f 213/1/4 210/1/4 214/1/4
f 211/4/4 212/4/4 215/4/4
f 205/4/4 211/4/4 215/4/4
f 215/4/4 212/4/4 216/4/4
f 217/6/4 218/6/4 219/6/4
f 217/6/4 219/6/4 221/6/4
f 219/1/4 220/1/4 221/1/4
f 221/1/4 220/1/4 222/1/4
f 217/6/4 221/6/4 223/6/4
f 223/6/4 221/6/4 224/6/4
f 227/7/5 226/7/5 225/7/5
f 228/7/5 226/7/5 227/7/5
f 231/5/5 230/5/5 229/5/5
f 232/5/5 230/5/5 231/5/5
f 235/6/5 234/6/5 233/6/5
f 236/6/5 234/6/5 235/6/5
f 237/6/5 235/6/5 233/6/5
f 238/6/5 235/6/5 237/6/5
f 241/4/5 240/4/5 239/4/5
f 242/4/5 240/4/5 241/4/5
f 243/4/5 241/4/5 239/4/5
f 244/4/5 241/4/5 243/4/5
f 248/4/5 246/4/5 245/4/5
f 249/4/5 248/4/5 247/4/5
f 250/4/5 246/4/5 248/4/5
f 250/4/5 248/4/5 249/4/5
f 253/6/5 252/6/5 251/6/5
f 255/6/5 253/6/5 251/6/5
f 255/6/5 254/6/5 253/6/5
f 256/6/5 254/6/5 255/6/5
f 257/7/6 258/7/6 259/7/6
f 259/7/6 258/7/6 260/7/6
f 261/6/6 262/6/6 264/6/6
f 263/6/6 264/6/6 265/6/6
f 264/6/6 262/6/6 266/6/6
f 265/6/6 264/6/6 266/6/6
f 263/6/6 265/6/6 267/6/6
f 267/6/6 265/6/6 268/6/6
f 269/4/6 270/4/6 273/4/6
f 273/4/6 270/4/6 274/4/6
f 271/4/6 272/4/6 275/4/6
f 275/4/6 272/4/6 276/4/6
f 277/4/6 278/4/6 281/4/6
f 281/4/6 278/4/6 282/4/6
f 279/4/6 280/4/6 283/4/6
f 283/4/6 280/4/6 284/4/6
f 285/5/6 286/5/6 287/5/6
f 287/5/6 286/5/6 288/5/6
f 285/5/6 287/5/6 289/5/6
f 289/5/6 287/5/6 290/5/6
f 291/2/6 292/2/6 294/2/6
f 294/2/6 292/2/6 295/2/6
f 293/2/6 294/2/6 297/2/6
f 294/3/6 295/3/6 298/3/6
f 297/2/6 294/2/6 298/2/6
f 295/2/6 296/2/6 299/2/6
f 298/3/6 295/3/6 299/3/6
f 299/2/6 296/2/6 300/2/6
f 298/2/6 299/2/6 301/2/6
f 301/2/6 299/2/6 302/2/6
f 303/4/6 304/4/6 305/4/6
f 305/4/6 304/4/6 306/4/6
f 306/4/6 304/4/6 307/4/6
f 307/4/6 304/4/6 308/4/6
f 309/6/6 310/6/6 313/6/6
f 313/6/6 310/6/6 314/6/6
f 311/6/6 312/6/6 315/6/6
f 315/6/6 312/6/6 316/6/6
f 317/6/6 318/6/6 321/6/6
f 321/6/6 318/6/6 322/6/6
f 319/6/6 320/6/6 323/6/6
f 323/6/6 320/6/6 324/6/6
f 325/1/6 326/1/6 328/1/6
f 328/1/6 326/1/6 329/1/6
f 327/1/6 328/1/6 331/1/6
f 328/3/6 329/3/6 332/3/6
f 331/1/6 328/1/6 332/1/6
f 329/1/6 330/1/6 333/1/6
f 332/3/6 329/3/6 333/3/6
f 333/1/6 330/1/6 334/1/6
f 332/1/6 333/1/6 335/1/6
f 335/1/6 333/1/6 336/1/6
