# MagicaVoxel @ Ephtracy

# group
o 

# material
mtllib Cactus6.mtl
usemtl palette

# normals
vn -1 0 0
vn 1 0 0
vn 0 0 1
vn 0 0 -1
vn 0 -1 0
vn 0 1 0

# texcoords
vt 0.962891 0.5
vt 0.966797 0.5
vt 0.978516 0.5
vt 0.986328 0.5
vt 0.990234 0.5

# verts
v -0.3 1.1 0
v -0.3 1.1 -0.4
v -0.3 1.4 0
v -0.3 1.4 -0.4
v -0.2 0 0.2
v -0.2 0 -0.1
v -0.2 1.1 0
v -0.2 1.1 -0.1
v -0.2 1.2 -0.4
v -0.2 1.2 -0.5
v -0.2 1.4 0
v -0.2 1.4 -0.1
v -0.2 1.4 -0.2
v -0.2 1.4 -0.4
v -0.2 1.6 0.2
v -0.2 1.6 0.1
v -0.2 1.6 0
v -0.2 1.6 -0.1
v -0.2 1.7 0.1
v -0.2 1.7 0
v -0.2 2 -0.2
v -0.2 2 -0.5
v -0.1 1.6 0.2
v -0.1 1.6 0.1
v -0.1 1.6 0
v -0.1 1.6 -0.1
v -0.1 1.7 0.2
v -0.1 1.7 0.1
v -0.1 1.7 0
v -0.1 1.7 -0.1
v 2.98023e-08 0.6 0.3
v 2.98023e-08 0.6 0.2
v 2.98023e-08 0.8 0.3
v 2.98023e-08 0.8 0.2
v 0.2 0.7 0.4
v 0.2 0.7 0.3
v 0.2 0.8 0.6
v 0.2 0.8 0.4
v 0.2 0.8 0.3
v 0.2 0.8 0.1
v 0.2 0.9 0.4
v 0.2 0.9 0.3
v 0.2 0.9 0.1
v 0.2 1.4 0.6
v 0.2 1.4 0.3
v 2.98023e-08 1.1 -0.1
v 2.98023e-08 1.1 -0.4
v 2.98023e-08 1.2 -0.2
v 2.98023e-08 1.2 -0.4
v 2.98023e-08 1.4 -0.1
v 2.98023e-08 1.4 -0.2
v 2.98023e-08 1.6 0.2
v 2.98023e-08 1.6 0.1
v 2.98023e-08 1.6 0
v 2.98023e-08 1.6 -0.1
v 2.98023e-08 1.7 0.2
v 2.98023e-08 1.7 0.1
v 2.98023e-08 1.7 0
v 2.98023e-08 1.7 -0.1
v 0.1 0 0.2
v 0.1 0 -0.1
v 0.1 0.6 0.2
v 0.1 0.6 0
v 0.1 0.8 0.2
v 0.1 0.8 0
v 0.1 1.2 -0.2
v 0.1 1.2 -0.5
v 0.1 1.6 0.2
v 0.1 1.6 0.1
v 0.1 1.6 0
v 0.1 1.6 -0.1
v 0.1 1.7 0.1
v 0.1 1.7 0
v 0.1 2 -0.2
v 0.1 2 -0.5
v 0.3 0.6 0.3
v 0.3 0.6 0
v 0.3 0.7 0.3
v 0.3 0.7 0.1
v 0.3 0.8 0.1
v 0.3 0.8 0
v 0.4 0.7 0.4
v 0.4 0.7 0.1
v 0.4 0.8 0.4
v 0.4 0.8 0.3
v 0.4 0.9 0.3
v 0.4 0.9 0.1
v 0.5 0.8 0.6
v 0.5 0.8 0.3
v 0.5 1.4 0.6
v 0.5 1.4 0.3
v 0.2 0.8 0.6
v 0.2 1.4 0.6
v 0.5 0.8 0.6
v 0.5 1.4 0.6
v 0.2 0.7 0.4
v 0.2 0.8 0.4
v 0.4 0.7 0.4
v 0.4 0.8 0.4
v 2.98023e-08 0.6 0.3
v 2.98023e-08 0.8 0.3
v 0.2 0.7 0.3
v 0.2 0.8 0.3
v 0.3 0.6 0.3
v 0.3 0.7 0.3
v -0.2 0 0.2
v -0.2 1.6 0.2
v -0.1 1.6 0.2
v -0.1 1.7 0.2
v 2.98023e-08 0.6 0.2
v 2.98023e-08 0.8 0.2
v 2.98023e-08 1.6 0.2
v 2.98023e-08 1.7 0.2
v 0.1 0 0.2
v 0.1 0.6 0.2
v 0.1 0.8 0.2
v 0.1 1.6 0.2
v -0.2 1.6 0.1
v -0.2 1.7 0.1
v -0.1 1.6 0.1
v -0.1 1.7 0.1
v 2.98023e-08 1.6 0.1
v 2.98023e-08 1.7 0.1
v 0.1 1.6 0.1
v 0.1 1.7 0.1
v -0.3 1.1 0
v -0.3 1.4 0
v -0.2 1.1 0
v -0.2 1.4 0
v -0.2 1.4 -0.2
v -0.2 2 -0.2
v 2.98023e-08 1.2 -0.2
v 2.98023e-08 1.4 -0.2
v 0.1 1.2 -0.2
v 0.1 2 -0.2
v 0.2 0.9 0.3
v 0.2 1.4 0.3
v 0.4 0.8 0.3
v 0.4 0.9 0.3
v 0.5 0.8 0.3
v 0.5 1.4 0.3
v 0.2 0.8 0.1
v 0.2 0.9 0.1
v 0.3 0.7 0.1
v 0.3 0.8 0.1
v 0.4 0.7 0.1
v 0.4 0.9 0.1
v -0.2 1.6 0
v -0.2 1.7 0
v -0.1 1.6 0
v -0.1 1.7 0
v 2.98023e-08 1.6 0
v 2.98023e-08 1.7 0
v 0.1 0.6 0
v 0.1 0.8 0
v 0.1 1.6 0
v 0.1 1.7 0
v 0.3 0.6 0
v 0.3 0.8 0
v -0.2 0 -0.1
v -0.2 1.1 -0.1
v -0.2 1.4 -0.1
v -0.2 1.6 -0.1
v -0.1 1.6 -0.1
v -0.1 1.7 -0.1
v 2.98023e-08 1.1 -0.1
v 2.98023e-08 1.4 -0.1
v 2.98023e-08 1.6 -0.1
v 2.98023e-08 1.7 -0.1
v 0.1 0 -0.1
v 0.1 1.6 -0.1
v -0.3 1.1 -0.4
v -0.3 1.4 -0.4
v -0.2 1.2 -0.4
v -0.2 1.4 -0.4
v 2.98023e-08 1.1 -0.4
v 2.98023e-08 1.2 -0.4
v -0.2 1.2 -0.5
v -0.2 2 -0.5
v 0.1 1.2 -0.5
v 0.1 2 -0.5
v -0.2 0 0.2
v 0.1 0 0.2
v -0.2 0 -0.1
v 0.1 0 -0.1
v 2.98023e-08 0.6 0.3
v 0.3 0.6 0.3
v 2.98023e-08 0.6 0.2
v 0.1 0.6 0.2
v 0.1 0.6 0
v 0.3 0.6 0
v 0.2 0.7 0.4
v 0.4 0.7 0.4
v 0.2 0.7 0.3
v 0.3 0.7 0.3
v 0.3 0.7 0.1
v 0.4 0.7 0.1
v 0.2 0.8 0.6
v 0.5 0.8 0.6
v 0.2 0.8 0.4
v 0.4 0.8 0.4
v 0.4 0.8 0.3
v 0.5 0.8 0.3
v -0.3 1.1 0
v -0.2 1.1 0
v -0.2 1.1 -0.1
v 2.98023e-08 1.1 -0.1
v -0.3 1.1 -0.4
v 2.98023e-08 1.1 -0.4
v 2.98023e-08 1.2 -0.2
v 0.1 1.2 -0.2
v -0.2 1.2 -0.4
v 2.98023e-08 1.2 -0.4
v -0.2 1.2 -0.5
v 0.1 1.2 -0.5
v 2.98023e-08 0.8 0.3
v 0.2 0.8 0.3
v 2.98023e-08 0.8 0.2
v 0.1 0.8 0.2
v 0.2 0.8 0.1
v 0.3 0.8 0.1
v 0.1 0.8 0
v 0.3 0.8 0
v 0.2 0.9 0.3
v 0.4 0.9 0.3
v 0.2 0.9 0.1
v 0.4 0.9 0.1
v 0.2 1.4 0.6
v 0.5 1.4 0.6
v 0.2 1.4 0.3
v 0.5 1.4 0.3
v -0.3 1.4 0
v -0.2 1.4 0
v -0.2 1.4 -0.1
v 2.98023e-08 1.4 -0.1
v -0.2 1.4 -0.2
v 2.98023e-08 1.4 -0.2
v -0.3 1.4 -0.4
v -0.2 1.4 -0.4
v -0.2 1.6 0.2
v -0.1 1.6 0.2
v 2.98023e-08 1.6 0.2
v 0.1 1.6 0.2
v -0.2 1.6 0.1
v -0.1 1.6 0.1
v 2.98023e-08 1.6 0.1
v 0.1 1.6 0.1
v -0.2 1.6 0
v -0.1 1.6 0
v 2.98023e-08 1.6 0
v 0.1 1.6 0
v -0.2 1.6 -0.1
v -0.1 1.6 -0.1
v 2.98023e-08 1.6 -0.1
v 0.1 1.6 -0.1
v -0.1 1.7 0.2
v 2.98023e-08 1.7 0.2
v -0.2 1.7 0.1
v -0.1 1.7 0.1
v 2.98023e-08 1.7 0.1
v 0.1 1.7 0.1
v -0.2 1.7 0
v -0.1 1.7 0
v 2.98023e-08 1.7 0
v 0.1 1.7 0
v -0.1 1.7 -0.1
v 2.98023e-08 1.7 -0.1
v -0.2 2 -0.2
v 0.1 2 -0.2
v -0.2 2 -0.5
v 0.1 2 -0.5

# faces
f 3/4/1 2/4/1 1/4/1
f 4/4/1 2/4/1 3/4/1
f 7/4/1 6/4/1 5/4/1
f 8/4/1 6/4/1 7/4/1
f 11/4/1 7/4/1 5/4/1
f 14/3/1 10/3/1 9/3/1
f 15/4/1 12/4/1 11/4/1
f 15/4/1 11/4/1 5/4/1
f 16/4/1 12/4/1 15/4/1
f 17/4/1 12/4/1 16/4/1
f 18/4/1 12/4/1 17/4/1
f 19/1/1 17/1/1 16/1/1
f 20/1/1 17/1/1 19/1/1
f 21/3/1 14/3/1 13/3/1
f 22/3/1 10/3/1 14/3/1
f 22/3/1 14/3/1 21/3/1
f 27/1/1 24/1/1 23/1/1
f 28/1/1 24/1/1 27/1/1
f 29/1/1 26/1/1 25/1/1
f 30/1/1 26/1/1 29/1/1
f 33/5/1 32/5/1 31/5/1
f 34/5/1 32/5/1 33/5/1
f 38/3/1 36/3/1 35/3/1
f 39/3/1 36/3/1 38/3/1
f 41/4/1 38/4/1 37/4/1
f 41/3/1 40/3/1 39/3/1
f 41/3/1 39/3/1 38/3/1
f 42/3/1 40/3/1 41/3/1
f 43/3/1 40/3/1 42/3/1
f 44/4/1 41/4/1 37/4/1
f 44/4/1 42/4/1 41/4/1
f 45/4/1 42/4/1 44/4/1
f 46/4/2 47/4/2 48/4/2
f 48/4/2 47/4/2 49/4/2
f 46/4/2 48/4/2 50/4/2
f 50/4/2 48/4/2 51/4/2
f 52/1/2 53/1/2 56/1/2
f 56/1/2 53/1/2 57/1/2
f 54/1/2 55/1/2 58/1/2
f 58/1/2 55/1/2 59/1/2
f 60/4/2 61/4/2 62/4/2
f 62/4/2 61/4/2 63/4/2
f 63/4/2 61/4/2 65/4/2
f 64/4/2 65/4/2 68/4/2
f 68/4/2 65/4/2 69/4/2
f 65/4/2 61/4/2 70/4/2
f 69/4/2 65/4/2 70/4/2
f 70/4/2 61/4/2 71/4/2
f 69/1/2 70/1/2 72/1/2
f 72/1/2 70/1/2 73/1/2
f 66/3/2 67/3/2 74/3/2
f 74/3/2 67/3/2 75/3/2
f 76/5/2 77/5/2 78/5/2
f 78/5/2 77/5/2 79/5/2
f 79/5/2 77/5/2 80/5/2
f 80/5/2 77/5/2 81/5/2
f 82/3/2 83/3/2 84/3/2
f 84/3/2 83/3/2 85/3/2
f 85/3/2 83/3/2 86/3/2
f 86/3/2 83/3/2 87/3/2
f 88/4/2 89/4/2 90/4/2
f 90/4/2 89/4/2 91/4/2
f 94/4/3 93/4/3 92/4/3
f 95/4/3 93/4/3 94/4/3
f 98/3/3 97/3/3 96/3/3
f 99/3/3 97/3/3 98/3/3
f 102/5/3 101/5/3 100/5/3
f 103/5/3 101/5/3 102/5/3
f 104/5/3 102/5/3 100/5/3
f 105/5/3 102/5/3 104/5/3
f 108/4/3 107/4/3 106/4/3
f 110/4/3 108/4/3 106/4/3
f 111/4/3 108/4/3 110/4/3
f 112/1/3 109/1/3 108/1/3
f 112/4/3 108/4/3 111/4/3
f 113/1/3 109/1/3 112/1/3
f 114/4/3 110/4/3 106/4/3
f 115/4/3 110/4/3 114/4/3
f 116/4/3 112/4/3 111/4/3
f 117/4/3 112/4/3 116/4/3
f 120/1/3 119/1/3 118/1/3
f 121/1/3 119/1/3 120/1/3
f 124/1/3 123/1/3 122/1/3
f 125/1/3 123/1/3 124/1/3
f 128/4/3 127/4/3 126/4/3
f 129/4/3 127/4/3 128/4/3
f 133/3/3 131/3/3 130/3/3
f 134/3/3 133/3/3 132/3/3
f 135/3/3 131/3/3 133/3/3
f 135/3/3 133/3/3 134/3/3
f 136/4/4 137/4/4 139/4/4
f 138/4/4 139/4/4 140/4/4
f 139/4/4 137/4/4 141/4/4
f 140/4/4 139/4/4 141/4/4
f 142/3/4 143/3/4 145/3/4
f 144/3/4 145/3/4 146/3/4
f 145/3/4 143/3/4 147/3/4
f 146/3/4 145/3/4 147/3/4
f 148/1/4 149/1/4 150/1/4
f 150/1/4 149/1/4 151/1/4
f 152/1/4 153/1/4 156/1/4
f 156/1/4 153/1/4 157/1/4
f 154/5/4 155/5/4 158/5/4
f 158/5/4 155/5/4 159/5/4
f 162/4/4 163/4/4 164/4/4
f 160/4/4 161/4/4 166/4/4
f 162/4/4 164/4/4 167/4/4
f 164/1/4 165/1/4 168/1/4
f 167/4/4 164/4/4 168/4/4
f 168/1/4 165/1/4 169/1/4
f 166/4/4 167/4/4 170/4/4
f 160/4/4 166/4/4 170/4/4
f 167/4/4 168/4/4 170/4/4
f 170/4/4 168/4/4 171/4/4
f 172/4/4 173/4/4 174/4/4
f 174/4/4 173/4/4 175/4/4
f 172/4/4 174/4/4 176/4/4
f 176/4/4 174/4/4 177/4/4
f 178/3/4 179/3/4 180/3/4
f 180/3/4 179/3/4 181/3/4
f 184/4/5 183/4/5 182/4/5
f 185/4/5 183/4/5 184/4/5
f 188/5/5 187/5/5 186/5/5
f 189/5/5 187/5/5 188/5/5
f 190/5/5 187/5/5 189/5/5
f 191/5/5 187/5/5 190/5/5
f 194/3/5 193/3/5 192/3/5
f 195/3/5 193/3/5 194/3/5
f 196/3/5 193/3/5 195/3/5
f 197/3/5 193/3/5 196/3/5
f 200/4/5 199/4/5 198/4/5
f 201/4/5 199/4/5 200/4/5
f 202/4/5 199/4/5 201/4/5
f 203/4/5 199/4/5 202/4/5
f 206/4/5 205/4/5 204/4/5
f 208/4/5 206/4/5 204/4/5
f 208/4/5 207/4/5 206/4/5
f 209/4/5 207/4/5 208/4/5
f 213/3/5 211/3/5 210/3/5
f 214/3/5 213/3/5 212/3/5
f 215/3/5 211/3/5 213/3/5
f 215/3/5 213/3/5 214/3/5
f 216/5/6 217/5/6 218/5/6
f 218/5/6 217/5/6 219/5/6
f 219/5/6 217/5/6 220/5/6
f 219/5/6 220/5/6 222/5/6
f 220/5/6 221/5/6 222/5/6
f 222/5/6 221/5/6 223/5/6
f 224/3/6 225/3/6 226/3/6
f 226/3/6 225/3/6 227/3/6
f 228/4/6 229/4/6 230/4/6
f 230/4/6 229/4/6 231/4/6
f 232/4/6 233/4/6 234/4/6
f 232/4/6 234/4/6 236/4/6
f 234/4/6 235/4/6 236/4/6
f 236/4/6 235/4/6 237/4/6
f 232/4/6 236/4/6 238/4/6
f 238/4/6 236/4/6 239/4/6
f 240/4/6 241/4/6 244/4/6
f 244/4/6 241/4/6 245/4/6
f 242/4/6 243/4/6 246/4/6
f 246/4/6 243/4/6 247/4/6
f 248/4/6 249/4/6 252/4/6
f 252/4/6 249/4/6 253/4/6
f 250/4/6 251/4/6 254/4/6
f 254/4/6 251/4/6 255/4/6
f 256/1/6 257/1/6 259/1/6
f 259/1/6 257/1/6 260/1/6
f 258/1/6 259/1/6 262/1/6
f 259/2/6 260/2/6 263/2/6
f 262/1/6 259/1/6 263/1/6
f 260/1/6 261/1/6 264/1/6
f 263/2/6 260/2/6 264/2/6
f 264/1/6 261/1/6 265/1/6
f 263/1/6 264/1/6 266/1/6
f 266/1/6 264/1/6 267/1/6
f 268/3/6 269/3/6 270/3/6
f 270/3/6 269/3/6 271/3/6
