# MagicaVoxel @ Ephtracy

# group
o 

# material
mtllib Cactus2.mtl
usemtl palette

# normals
vn -1 0 0
vn 1 0 0
vn 0 0 1
vn 0 0 -1
vn 0 -1 0
vn 0 1 0

# texcoords
vt 0.962891 0.5
vt 0.966797 0.5
vt 0.986328 0.5

# verts
v -0.7 0 -0.5
v -0.7 0 -0.7
v -0.7 0.2 -0.5
v -0.7 0.2 -0.7
v 0.3 0 0.3
v 0.3 0 -2.98023e-08
v 0.3 0.3 0.3
v 0.3 0.3 0.2
v 0.3 0.3 0.1
v 0.3 0.3 -2.98023e-08
v 0.3 0.4 0.2
v 0.3 0.4 0.1
v 0.4 0.3 0.3
v 0.4 0.3 0.2
v 0.4 0.3 0.1
v 0.4 0.3 -2.98023e-08
v 0.4 0.4 0.3
v 0.4 0.4 0.2
v 0.4 0.4 0.1
v 0.4 0.4 -2.98023e-08
v -0.5 0 -0.5
v -0.5 0 -0.7
v -0.5 0.2 -0.5
v -0.5 0.2 -0.7
v 0.5 0.3 0.3
v 0.5 0.3 0.2
v 0.5 0.3 0.1
v 0.5 0.3 -2.98023e-08
v 0.5 0.4 0.3
v 0.5 0.4 0.2
v 0.5 0.4 0.1
v 0.5 0.4 -2.98023e-08
v 0.6 0 0.3
v 0.6 0 -2.98023e-08
v 0.6 0.3 0.3
v 0.6 0.3 0.2
v 0.6 0.3 0.1
v 0.6 0.3 -2.98023e-08
v 0.6 0.4 0.2
v 0.6 0.4 0.1
v 0.3 0 0.3
v 0.3 0.3 0.3
v 0.4 0.3 0.3
v 0.4 0.4 0.3
v 0.5 0.3 0.3
v 0.5 0.4 0.3
v 0.6 0 0.3
v 0.6 0.3 0.3
v 0.3 0.3 0.2
v 0.3 0.4 0.2
v 0.4 0.3 0.2
v 0.4 0.4 0.2
v 0.5 0.3 0.2
v 0.5 0.4 0.2
v 0.6 0.3 0.2
v 0.6 0.4 0.2
v -0.7 0 -0.5
v -0.7 0.2 -0.5
v -0.5 0 -0.5
v -0.5 0.2 -0.5
v 0.3 0.3 0.1
v 0.3 0.4 0.1
v 0.4 0.3 0.1
v 0.4 0.4 0.1
v 0.5 0.3 0.1
v 0.5 0.4 0.1
v 0.6 0.3 0.1
v 0.6 0.4 0.1
v 0.3 0 -2.98023e-08
v 0.3 0.3 -2.98023e-08
v 0.4 0.3 -2.98023e-08
v 0.4 0.4 -2.98023e-08
v 0.5 0.3 -2.98023e-08
v 0.5 0.4 -2.98023e-08
v 0.6 0 -2.98023e-08
v 0.6 0.3 -2.98023e-08
v -0.7 0 -0.7
v -0.7 0.2 -0.7
v -0.5 0 -0.7
v -0.5 0.2 -0.7
v 0.3 0 0.3
v 0.6 0 0.3
v 0.3 0 -2.98023e-08
v 0.6 0 -2.98023e-08
v -0.7 0 -0.5
v -0.5 0 -0.5
v -0.7 0 -0.7
v -0.5 0 -0.7
v -0.7 0.2 -0.5
v -0.5 0.2 -0.5
v -0.7 0.2 -0.7
v -0.5 0.2 -0.7
v 0.3 0.3 0.3
v 0.4 0.3 0.3
v 0.5 0.3 0.3
v 0.6 0.3 0.3
v 0.3 0.3 0.2
v 0.4 0.3 0.2
v 0.5 0.3 0.2
v 0.6 0.3 0.2
v 0.3 0.3 0.1
v 0.4 0.3 0.1
v 0.5 0.3 0.1
v 0.6 0.3 0.1
v 0.3 0.3 -2.98023e-08
v 0.4 0.3 -2.98023e-08
v 0.5 0.3 -2.98023e-08
v 0.6 0.3 -2.98023e-08
v 0.4 0.4 0.3
v 0.5 0.4 0.3
v 0.3 0.4 0.2
v 0.4 0.4 0.2
v 0.5 0.4 0.2
v 0.6 0.4 0.2
v 0.3 0.4 0.1
v 0.4 0.4 0.1
v 0.5 0.4 0.1
v 0.6 0.4 0.1
v 0.4 0.4 -2.98023e-08
v 0.5 0.4 -2.98023e-08

# faces
f 3/3/1 2/3/1 1/3/1
f 4/3/1 2/3/1 3/3/1
f 7/3/1 6/3/1 5/3/1
f 8/3/1 6/3/1 7/3/1
f 9/3/1 6/3/1 8/3/1
f 10/3/1 6/3/1 9/3/1
f 11/1/1 9/1/1 8/1/1
f 12/1/1 9/1/1 11/1/1
f 17/1/1 14/1/1 13/1/1
f 18/1/1 14/1/1 17/1/1
f 19/1/1 16/1/1 15/1/1
f 20/1/1 16/1/1 19/1/1
f 21/3/2 22/3/2 23/3/2
f 23/3/2 22/3/2 24/3/2
f 25/1/2 26/1/2 29/1/2
f 29/1/2 26/1/2 30/1/2
f 27/1/2 28/1/2 31/1/2
f 31/1/2 28/1/2 32/1/2
f 33/3/2 34/3/2 35/3/2
f 35/3/2 34/3/2 36/3/2
f 36/3/2 34/3/2 37/3/2
f 37/3/2 34/3/2 38/3/2
f 36/1/2 37/1/2 39/1/2
f 39/1/2 37/1/2 40/1/2
f 43/3/3 42/3/3 41/3/3
f 45/3/3 43/3/3 41/3/3
f 45/1/3 44/1/3 43/1/3
f 46/1/3 44/1/3 45/1/3
f 47/3/3 45/3/3 41/3/3
f 48/3/3 45/3/3 47/3/3
f 51/1/3 50/1/3 49/1/3
f 52/1/3 50/1/3 51/1/3
f 55/1/3 54/1/3 53/1/3
f 56/1/3 54/1/3 55/1/3
f 59/3/3 58/3/3 57/3/3
f 60/3/3 58/3/3 59/3/3
f 61/1/4 62/1/4 63/1/4
f 63/1/4 62/1/4 64/1/4
f 65/1/4 66/1/4 67/1/4
f 67/1/4 66/1/4 68/1/4
f 69/3/4 70/3/4 71/3/4
f 69/3/4 71/3/4 73/3/4
f 71/1/4 72/1/4 73/1/4
f 73/1/4 72/1/4 74/1/4
f 69/3/4 73/3/4 75/3/4
f 75/3/4 73/3/4 76/3/4
f 77/3/4 78/3/4 79/3/4
f 79/3/4 78/3/4 80/3/4
f 83/3/5 82/3/5 81/3/5
f 84/3/5 82/3/5 83/3/5
f 87/3/5 86/3/5 85/3/5
f 88/3/5 86/3/5 87/3/5
f 89/3/6 90/3/6 91/3/6
f 91/3/6 90/3/6 92/3/6
f 93/3/6 94/3/6 97/3/6
f 97/3/6 94/3/6 98/3/6
f 95/3/6 96/3/6 99/3/6
f 99/3/6 96/3/6 100/3/6
f 101/3/6 102/3/6 105/3/6
f 105/3/6 102/3/6 106/3/6
f 103/3/6 104/3/6 107/3/6
f 107/3/6 104/3/6 108/3/6
f 109/1/6 110/1/6 112/1/6
f 112/1/6 110/1/6 113/1/6
f 111/1/6 112/1/6 115/1/6
f 112/2/6 113/2/6 116/2/6
f 115/1/6 112/1/6 116/1/6
f 113/1/6 114/1/6 117/1/6
f 116/2/6 113/2/6 117/2/6
f 117/1/6 114/1/6 118/1/6
f 116/1/6 117/1/6 119/1/6
f 119/1/6 117/1/6 120/1/6
