# MagicaVoxel @ Ephtracy

# group
o 

# material
mtllib Cactus9.mtl
usemtl palette

# normals
vn -1 0 0
vn 1 0 0
vn 0 0 1
vn 0 0 -1
vn 0 -1 0
vn 0 1 0

# texcoords
vt 0.962891 0.5
vt 0.966797 0.5
vt 0.986328 0.5
vt 0.990234 0.5

# verts
v -0.5 0 0.4
v -0.5 0 -0.4
v -0.5 0.8 0.4
v -0.5 0.8 -0.4
v -0.4 0.8 0.1
v -0.4 0.8 -0.1
v -0.4 0.9 0.2
v -0.4 0.9 0.1
v -0.4 0.9 0
v -0.4 0.9 -0.1
v -0.4 1 0.2
v -0.4 1 0
v -0.3 0.9 -0.1
v -0.3 0.9 -0.3
v -0.3 1 -0.1
v -0.3 1 -0.3
v -0.2 0.8 0.3
v -0.2 0.8 0.1
v -0.2 0.8 -0.1
v -0.2 0.8 -0.3
v -0.2 0.9 0.3
v -0.2 0.9 0.2
v -0.2 0.9 0.1
v -0.2 0.9 -0.1
v -0.2 0.9 -0.3
v -0.1 0.9 0.3
v -0.1 0.9 0.1
v -0.1 1 0.3
v -0.1 1 0.1
v 0 0.9 0
v 0 0.9 -0.1
v 0 0.9 -0.2
v 0 1 0
v 0 1 -0.2
v 0.3 0 -0.4
v 0.3 0 -0.5
v 0.3 0.2 -0.4
v 0.3 0.2 -0.5
v 0.4 0.2 -0.2
v 0.4 0.2 -0.3
v 0.4 0.2 -0.4
v 0.4 0.2 -0.5
v 0.4 0.3 -0.2
v 0.4 0.3 -0.3
v 0.4 0.3 -0.4
v 0.4 0.3 -0.5
v 0.6 0 0.7
v 0.6 0 0.5
v 0.6 0.2 0.7
v 0.6 0.2 0.5
v -0.2 0.9 0.2
v -0.2 0.9 0.1
v -0.2 0.9 0
v -0.2 1 0.2
v -0.2 1 0
v -0.1 0.9 -0.1
v -0.1 0.9 -0.3
v -0.1 1 -0.1
v -0.1 1 -0.3
v 0 0.8 0.3
v 0 0.8 0.1
v 0 0.8 -0.1
v 0 0.8 -0.3
v 0 0.9 0.3
v 0 0.9 0.1
v 0 0.9 -0.1
v 0 0.9 -0.2
v 0 0.9 -0.3
v 0.1 0.9 0.3
v 0.1 0.9 0.1
v 0.1 1 0.3
v 0.1 1 0.1
v 0.2 0.8 0.1
v 0.2 0.8 -0.1
v 0.2 0.9 0.1
v 0.2 0.9 0
v 0.2 0.9 -0.1
v 0.2 0.9 -0.2
v 0.2 1 0
v 0.2 1 -0.2
v 0.3 0 0.4
v 0.3 0 -0.2
v 0.3 0.2 -0.2
v 0.3 0.2 -0.3
v 0.3 0.3 -0.3
v 0.3 0.3 -0.4
v 0.3 0.8 0.4
v 0.3 0.8 -0.4
v 0.5 0.2 -0.2
v 0.5 0.2 -0.3
v 0.5 0.2 -0.4
v 0.5 0.2 -0.5
v 0.5 0.3 -0.2
v 0.5 0.3 -0.3
v 0.5 0.3 -0.4
v 0.5 0.3 -0.5
v 0.6 0 -0.2
v 0.6 0 -0.5
v 0.6 0.2 -0.2
v 0.6 0.2 -0.3
v 0.6 0.2 -0.4
v 0.6 0.2 -0.5
v 0.6 0.3 -0.3
v 0.6 0.3 -0.4
v 0.8 0 0.7
v 0.8 0 0.5
v 0.8 0.2 0.7
v 0.8 0.2 0.5
v 0.6 0 0.7
v 0.6 0.2 0.7
v 0.8 0 0.7
v 0.8 0.2 0.7
v -0.5 0 0.4
v -0.5 0.8 0.4
v 0.3 0 0.4
v 0.3 0.8 0.4
v -0.2 0.8 0.3
v -0.2 0.9 0.3
v -0.1 0.9 0.3
v -0.1 1 0.3
v 0 0.8 0.3
v 0 0.9 0.3
v 0.1 0.9 0.3
v 0.1 1 0.3
v -0.4 0.9 0.2
v -0.4 1 0.2
v -0.2 0.9 0.2
v -0.2 1 0.2
v -0.4 0.8 0.1
v -0.4 0.9 0.1
v -0.2 0.8 0.1
v -0.2 0.9 0.1
v 0 0.8 0.1
v 0 0.9 0.1
v 0.1 0.9 0.1
v 0.2 0.8 0.1
v 0.2 0.9 0.1
v 0 0.9 0
v 0 1 0
v 0.2 0.9 0
v 0.2 1 0
v -0.3 0.9 -0.1
v -0.3 1 -0.1
v -0.2 0.9 -0.1
v -0.1 0.9 -0.1
v -0.1 1 -0.1
v 0.3 0 -0.2
v 0.3 0.2 -0.2
v 0.4 0.2 -0.2
v 0.4 0.3 -0.2
v 0.5 0.2 -0.2
v 0.5 0.3 -0.2
v 0.6 0 -0.2
v 0.6 0.2 -0.2
v 0.3 0.2 -0.3
v 0.3 0.3 -0.3
v 0.4 0.2 -0.3
v 0.4 0.3 -0.3
v 0.5 0.2 -0.3
v 0.5 0.3 -0.3
v 0.6 0.2 -0.3
v 0.6 0.3 -0.3
v 0.6 0 0.5
v 0.6 0.2 0.5
v 0.8 0 0.5
v 0.8 0.2 0.5
v -0.1 0.9 0.1
v -0.1 1 0.1
v 0 0.9 0.1
v 0.1 0.9 0.1
v 0.1 1 0.1
v -0.4 0.9 0
v -0.4 1 0
v -0.2 0.9 0
v -0.2 1 0
v -0.4 0.8 -0.1
v -0.4 0.9 -0.1
v -0.3 0.9 -0.1
v -0.2 0.8 -0.1
v -0.2 0.9 -0.1
v 0 0.8 -0.1
v 0 0.9 -0.1
v 0.2 0.8 -0.1
v 0.2 0.9 -0.1
v 0 0.9 -0.2
v 0 1 -0.2
v 0.2 0.9 -0.2
v 0.2 1 -0.2
v -0.3 0.9 -0.3
v -0.3 1 -0.3
v -0.2 0.8 -0.3
v -0.2 0.9 -0.3
v -0.1 0.9 -0.3
v -0.1 1 -0.3
v 0 0.8 -0.3
v 0 0.9 -0.3
v -0.5 0 -0.4
v -0.5 0.8 -0.4
v 0.3 0 -0.4
v 0.3 0.2 -0.4
v 0.3 0.3 -0.4
v 0.3 0.8 -0.4
v 0.4 0.2 -0.4
v 0.4 0.3 -0.4
v 0.5 0.2 -0.4
v 0.5 0.3 -0.4
v 0.6 0.2 -0.4
v 0.6 0.3 -0.4
v 0.3 0 -0.5
v 0.3 0.2 -0.5
v 0.4 0.2 -0.5
v 0.4 0.3 -0.5
v 0.5 0.2 -0.5
v 0.5 0.3 -0.5
v 0.6 0 -0.5
v 0.6 0.2 -0.5
v 0.6 0 0.7
v 0.8 0 0.7
v 0.6 0 0.5
v 0.8 0 0.5
v -0.5 0 0.4
v 0.3 0 0.4
v 0.3 0 -0.2
v 0.6 0 -0.2
v -0.5 0 -0.4
v 0.3 0 -0.4
v 0.3 0 -0.5
v 0.6 0 -0.5
v 0 0.9 0.3
v 0.1 0.9 0.3
v -0.4 0.9 0.2
v -0.2 0.9 0.2
v -0.4 0.9 0.1
v -0.2 0.9 0.1
v 0 0.9 0.1
v 0.1 0.9 0.1
v -0.3 0.9 -0.1
v -0.2 0.9 -0.1
v 0 0.9 -0.1
v 0.2 0.9 -0.1
v 0 0.9 -0.2
v 0.2 0.9 -0.2
v -0.3 0.9 -0.3
v -0.2 0.9 -0.3
v 0.6 0.2 0.7
v 0.8 0.2 0.7
v 0.6 0.2 0.5
v 0.8 0.2 0.5
v 0.3 0.2 -0.2
v 0.4 0.2 -0.2
v 0.5 0.2 -0.2
v 0.6 0.2 -0.2
v 0.3 0.2 -0.3
v 0.4 0.2 -0.3
v 0.5 0.2 -0.3
v 0.6 0.2 -0.3
v 0.3 0.2 -0.4
v 0.4 0.2 -0.4
v 0.5 0.2 -0.4
v 0.6 0.2 -0.4
v 0.3 0.2 -0.5
v 0.4 0.2 -0.5
v 0.5 0.2 -0.5
v 0.6 0.2 -0.5
v 0.4 0.3 -0.2
v 0.5 0.3 -0.2
v 0.3 0.3 -0.3
v 0.4 0.3 -0.3
v 0.5 0.3 -0.3
v 0.6 0.3 -0.3
v 0.3 0.3 -0.4
v 0.4 0.3 -0.4
v 0.5 0.3 -0.4
v 0.6 0.3 -0.4
v 0.4 0.3 -0.5
v 0.5 0.3 -0.5
v -0.5 0.8 0.4
v 0.3 0.8 0.4
v -0.2 0.8 0.3
v 0 0.8 0.3
v -0.4 0.8 0.1
v -0.2 0.8 0.1
v 0 0.8 0.1
v 0.2 0.8 0.1
v -0.4 0.8 -0.1
v -0.2 0.8 -0.1
v 0 0.8 -0.1
v 0.2 0.8 -0.1
v -0.2 0.8 -0.3
v 0 0.8 -0.3
v -0.5 0.8 -0.4
v 0.3 0.8 -0.4
v -0.2 0.9 0.3
v -0.1 0.9 0.3
v -0.2 0.9 0.2
v -0.2 0.9 0.1
v -0.1 0.9 0.1
v 0 0.9 0.1
v 0.1 0.9 0.1
v 0.2 0.9 0.1
v -0.4 0.9 0
v -0.2 0.9 0
v 0 0.9 0
v 0.2 0.9 0
v -0.4 0.9 -0.1
v -0.3 0.9 -0.1
v -0.2 0.9 -0.1
v -0.1 0.9 -0.1
v 0 0.9 -0.1
v 0 0.9 -0.2
v -0.1 0.9 -0.3
v 0 0.9 -0.3
v -0.1 1 0.3
v 0.1 1 0.3
v -0.4 1 0.2
v -0.2 1 0.2
v -0.1 1 0.1
v 0.1 1 0.1
v -0.4 1 0
v -0.2 1 0
v 0 1 0
v 0.2 1 0
v -0.3 1 -0.1
v -0.1 1 -0.1
v 0 1 -0.2
v 0.2 1 -0.2
v -0.3 1 -0.3
v -0.1 1 -0.3

# faces
f 3/3/1 2/3/1 1/3/1
f 4/3/1 2/3/1 3/3/1
f 8/1/1 6/1/1 5/1/1
f 9/1/1 6/1/1 8/1/1
f 10/1/1 6/1/1 9/1/1
f 11/1/1 8/1/1 7/1/1
f 11/1/1 9/1/1 8/1/1
f 12/1/1 9/1/1 11/1/1
f 15/1/1 14/1/1 13/1/1
f 16/1/1 14/1/1 15/1/1
f 21/1/1 18/1/1 17/1/1
f 22/1/1 18/1/1 21/1/1
f 23/1/1 18/1/1 22/1/1
f 24/1/1 20/1/1 19/1/1
f 25/1/1 20/1/1 24/1/1
f 28/1/1 27/1/1 26/1/1
f 29/1/1 27/1/1 28/1/1
f 33/1/1 31/1/1 30/1/1
f 33/1/1 32/1/1 31/1/1
f 34/1/1 32/1/1 33/1/1
f 37/4/1 36/4/1 35/4/1
f 38/4/1 36/4/1 37/4/1
f 43/1/1 40/1/1 39/1/1
f 44/1/1 40/1/1 43/1/1
f 45/1/1 42/1/1 41/1/1
f 46/1/1 42/1/1 45/1/1
f 49/4/1 48/4/1 47/4/1
f 50/4/1 48/4/1 49/4/1
f 51/1/2 52/1/2 54/1/2
f 52/1/2 53/1/2 54/1/2
f 54/1/2 53/1/2 55/1/2
f 56/1/2 57/1/2 58/1/2
f 58/1/2 57/1/2 59/1/2
f 60/1/2 61/1/2 64/1/2
f 64/1/2 61/1/2 65/1/2
f 62/1/2 63/1/2 66/1/2
f 66/1/2 63/1/2 67/1/2
f 67/1/2 63/1/2 68/1/2
f 69/1/2 70/1/2 71/1/2
f 71/1/2 70/1/2 72/1/2
f 73/1/2 74/1/2 75/1/2
f 75/1/2 74/1/2 76/1/2
f 76/1/2 74/1/2 77/1/2
f 77/1/2 78/1/2 79/1/2
f 76/1/2 77/1/2 79/1/2
f 79/1/2 78/1/2 80/1/2
f 81/3/2 82/3/2 83/3/2
f 83/3/2 84/3/2 85/3/2
f 81/3/2 83/3/2 87/3/2
f 85/3/2 86/3/2 87/3/2
f 83/3/2 85/3/2 87/3/2
f 87/3/2 86/3/2 88/3/2
f 89/1/2 90/1/2 93/1/2
f 93/1/2 90/1/2 94/1/2
f 91/1/2 92/1/2 95/1/2
f 95/1/2 92/1/2 96/1/2
f 97/4/2 98/4/2 99/4/2
f 99/4/2 98/4/2 100/4/2
f 100/4/2 98/4/2 101/4/2
f 101/4/2 98/4/2 102/4/2
f 100/1/2 101/1/2 103/1/2
f 103/1/2 101/1/2 104/1/2
f 105/4/2 106/4/2 107/4/2
f 107/4/2 106/4/2 108/4/2
f 111/4/3 110/4/3 109/4/3
f 112/4/3 110/4/3 111/4/3
f 115/3/3 114/3/3 113/3/3
f 116/3/3 114/3/3 115/3/3
f 119/1/3 118/1/3 117/1/3
f 121/1/3 119/1/3 117/1/3
f 121/1/3 120/1/3 119/1/3
f 122/1/3 120/1/3 121/1/3
f 123/1/3 120/1/3 122/1/3
f 124/1/3 120/1/3 123/1/3
f 127/1/3 126/1/3 125/1/3
f 128/1/3 126/1/3 127/1/3
f 131/1/3 130/1/3 129/1/3
f 132/1/3 130/1/3 131/1/3
f 135/1/3 134/1/3 133/1/3
f 136/1/3 135/1/3 133/1/3
f 137/1/3 135/1/3 136/1/3
f 140/1/3 139/1/3 138/1/3
f 141/1/3 139/1/3 140/1/3
f 144/1/3 143/1/3 142/1/3
f 145/1/3 143/1/3 144/1/3
f 146/1/3 143/1/3 145/1/3
f 149/4/3 148/4/3 147/4/3
f 151/4/3 149/4/3 147/4/3
f 151/1/3 150/1/3 149/1/3
f 152/1/3 150/1/3 151/1/3
f 153/4/3 151/4/3 147/4/3
f 154/4/3 151/4/3 153/4/3
f 157/1/3 156/1/3 155/1/3
f 158/1/3 156/1/3 157/1/3
f 161/1/3 160/1/3 159/1/3
f 162/1/3 160/1/3 161/1/3
f 163/4/4 164/4/4 165/4/4
f 165/4/4 164/4/4 166/4/4
f 167/1/4 168/1/4 169/1/4
f 169/1/4 168/1/4 170/1/4
f 170/1/4 168/1/4 171/1/4
f 172/1/4 173/1/4 174/1/4
f 174/1/4 173/1/4 175/1/4
f 176/1/4 177/1/4 178/1/4
f 176/1/4 178/1/4 179/1/4
f 179/1/4 178/1/4 180/1/4
f 181/1/4 182/1/4 183/1/4
f 183/1/4 182/1/4 184/1/4
f 185/1/4 186/1/4 187/1/4
f 187/1/4 186/1/4 188/1/4
f 189/1/4 190/1/4 192/1/4
f 192/1/4 190/1/4 193/1/4
f 191/1/4 192/1/4 193/1/4
f 193/1/4 190/1/4 194/1/4
f 191/1/4 193/1/4 195/1/4
f 195/1/4 193/1/4 196/1/4
f 197/3/4 198/3/4 199/3/4
f 199/3/4 198/3/4 200/3/4
f 200/3/4 198/3/4 201/3/4
f 201/3/4 198/3/4 202/3/4
f 200/1/4 201/1/4 203/1/4
f 203/1/4 201/1/4 204/1/4
f 205/1/4 206/1/4 207/1/4
f 207/1/4 206/1/4 208/1/4
f 209/4/4 210/4/4 211/4/4
f 209/4/4 211/4/4 213/4/4
f 211/1/4 212/1/4 213/1/4
f 213/1/4 212/1/4 214/1/4
f 209/4/4 213/4/4 215/4/4
f 215/4/4 213/4/4 216/4/4
f 219/4/5 218/4/5 217/4/5
f 220/4/5 218/4/5 219/4/5
f 223/3/5 222/3/5 221/3/5
f 225/3/5 223/3/5 221/3/5
f 226/4/5 224/4/5 223/4/5
f 226/3/5 223/3/5 225/3/5
f 227/4/5 224/4/5 226/4/5
f 228/4/5 224/4/5 227/4/5
f 233/1/5 232/1/5 231/1/5
f 234/1/5 232/1/5 233/1/5
f 235/1/5 230/1/5 229/1/5
f 236/1/5 230/1/5 235/1/5
f 241/1/5 240/1/5 239/1/5
f 242/1/5 240/1/5 241/1/5
f 243/1/5 238/1/5 237/1/5
f 244/1/5 238/1/5 243/1/5
f 245/4/6 246/4/6 247/4/6
f 247/4/6 246/4/6 248/4/6
f 249/4/6 250/4/6 253/4/6
f 253/4/6 250/4/6 254/4/6
f 251/4/6 252/4/6 255/4/6
f 255/4/6 252/4/6 256/4/6
f 257/4/6 258/4/6 261/4/6
f 261/4/6 258/4/6 262/4/6
f 259/4/6 260/4/6 263/4/6
f 263/4/6 260/4/6 264/4/6
f 265/1/6 266/1/6 268/1/6
f 268/1/6 266/1/6 269/1/6
f 267/1/6 268/1/6 271/1/6
f 268/2/6 269/2/6 272/2/6
f 271/1/6 268/1/6 272/1/6
f 269/1/6 270/1/6 273/1/6
f 272/2/6 269/2/6 273/2/6
f 273/1/6 270/1/6 274/1/6
f 272/1/6 273/1/6 275/1/6
f 275/1/6 273/1/6 276/1/6
f 277/3/6 278/3/6 279/3/6
f 279/3/6 278/3/6 280/3/6
f 277/3/6 279/3/6 281/3/6
f 281/3/6 279/3/6 282/3/6
f 280/3/6 278/3/6 283/3/6
f 283/3/6 278/3/6 284/3/6
f 277/3/6 281/3/6 285/3/6
f 284/3/6 278/3/6 288/3/6
f 285/3/6 286/3/6 289/3/6
f 287/3/6 288/3/6 290/3/6
f 285/3/6 289/3/6 291/3/6
f 289/3/6 290/3/6 291/3/6
f 277/3/6 285/3/6 291/3/6
f 290/3/6 288/3/6 292/3/6
f 291/3/6 290/3/6 292/3/6
f 288/3/6 278/3/6 292/3/6
f 293/1/6 294/1/6 295/1/6
f 295/1/6 294/1/6 296/1/6
f 296/1/6 294/1/6 297/1/6
f 296/2/6 297/2/6 302/2/6
f 297/2/6 298/2/6 302/2/6
f 299/1/6 300/1/6 303/1/6
f 298/1/6 299/1/6 303/1/6
f 302/2/6 298/2/6 303/2/6
f 303/1/6 300/1/6 304/1/6
f 301/1/6 302/1/6 305/1/6
f 305/1/6 302/1/6 306/1/6
f 302/2/6 303/2/6 307/2/6
f 306/1/6 302/1/6 307/1/6
f 307/2/6 303/2/6 308/2/6
f 308/2/6 303/2/6 309/2/6
f 308/1/6 309/1/6 310/1/6
f 308/1/6 310/1/6 311/1/6
f 311/1/6 310/1/6 312/1/6
f 313/1/6 314/1/6 317/1/6
f 317/1/6 314/1/6 318/1/6
f 315/1/6 316/1/6 319/1/6
f 319/1/6 316/1/6 320/1/6
f 321/1/6 322/1/6 325/1/6
f 325/1/6 322/1/6 326/1/6
f 323/1/6 324/1/6 327/1/6
f 327/1/6 324/1/6 328/1/6
