# MagicaVoxel @ Ephtracy

# group
o 

# material
mtllib Cactus8.mtl
usemtl palette

# normals
vn -1 0 0
vn 1 0 0
vn 0 0 1
vn 0 0 -1
vn 0 -1 0
vn 0 1 0

# texcoords
vt 0.931641 0.5
vt 0.962891 0.5
vt 0.966797 0.5
vt 0.978516 0.5
vt 0.986328 0.5
vt 0.990234 0.5

# verts
v -0.3 0.4 0
v -0.3 0.4 -0.1
v -0.3 0.8 0
v -0.3 0.8 -0.1
v -0.3 1 0.4
v -0.3 1 0.1
v -0.3 1.1 0.4
v -0.3 1.1 0.1
v -0.3 1.1 0
v -0.3 1.1 -0.1
v -0.3 1.3 0
v -0.3 1.3 -0.1
v -0.2 0.7 0.2
v -0.2 0.7 0
v -0.2 0.7 -0.1
v -0.2 0.7 -0.2
v -0.2 0.8 0
v -0.2 0.8 -0.1
v -0.2 1 0.2
v -0.2 1 0.1
v -0.2 1.1 0.2
v -0.2 1.1 0.1
v -0.2 1.1 0
v -0.2 1.1 -0.1
v -0.2 1.2 0.5
v -0.2 1.2 0.4
v -0.2 1.2 0.2
v -0.2 1.2 0
v -0.2 1.2 -0.1
v -0.2 1.2 -0.2
v -0.2 1.3 0.5
v -0.2 1.3 0.4
v -0.1 0 0.1
v -0.1 0 -0.3
v -0.1 0.4 0
v -0.1 0.4 -0.1
v -0.1 0.6 0.1
v -0.1 0.6 0
v -0.1 0.6 -0.1
v -0.1 0.6 -0.3
v -0.1 0.7 -0.3
v -0.1 0.7 -0.4
v -0.1 1 0.5
v -0.1 1 0.4
v -0.1 1 -0.3
v -0.1 1 -0.4
v -0.1 1.1 0.4
v -0.1 1.1 0.3
v -0.1 1.1 -0.3
v -0.1 1.1 -0.4
v -0.1 1.2 0.6
v -0.1 1.2 0.5
v -0.1 1.2 0.4
v -0.1 1.2 0.3
v -0.1 1.3 0.6
v -0.1 1.3 0.5
v -0.1 1.3 0.4
v -0.1 1.3 0.3
v 2.98023e-08 0.4 0.2
v 2.98023e-08 0.4 0.1
v 2.98023e-08 0.4 -0.3
v 2.98023e-08 0.4 -0.5
v 2.98023e-08 0.5 0.2
v 2.98023e-08 0.5 0.1
v 2.98023e-08 0.6 -0.2
v 2.98023e-08 0.6 -0.3
v 2.98023e-08 0.7 -0.3
v 2.98023e-08 0.7 -0.4
v 2.98023e-08 0.8 -0.2
v 2.98023e-08 0.8 -0.3
v 2.98023e-08 0.8 -0.4
v 2.98023e-08 0.8 -0.5
v 2.98023e-08 1 -0.2
v 2.98023e-08 1 -0.3
v 2.98023e-08 1 -0.4
v 2.98023e-08 1 -0.5
v 2.98023e-08 1.1 -0.2
v 2.98023e-08 1.1 -0.3
v 2.98023e-08 1.1 -0.4
v 2.98023e-08 1.1 -0.5
v -0.1 0.7 0.2
v -0.1 0.7 0
v -0.1 0.7 -0.1
v -0.1 0.7 -0.2
v -0.1 0.8 0
v -0.1 0.8 -0.1
v -0.1 1 0.2
v -0.1 1 0.1
v -0.1 1.1 0.2
v -0.1 1.1 0.1
v -0.1 1.1 0
v -0.1 1.1 -0.1
v -0.1 1.2 0.2
v -0.1 1.2 0
v -0.1 1.2 -0.1
v -0.1 1.2 -0.2
v 2.98023e-08 0.6 0
v 2.98023e-08 0.6 -0.1
v 2.98023e-08 0.8 0
v 2.98023e-08 0.8 -0.1
v 2.98023e-08 1 0.5
v 2.98023e-08 1 0.4
v 2.98023e-08 1.1 0.4
v 2.98023e-08 1.1 0.3
v 2.98023e-08 1.1 0
v 2.98023e-08 1.1 -0.1
v 2.98023e-08 1.2 0.6
v 2.98023e-08 1.2 0.5
v 2.98023e-08 1.2 0.4
v 2.98023e-08 1.2 0.3
v 2.98023e-08 1.3 0.6
v 2.98023e-08 1.3 0.5
v 2.98023e-08 1.3 0.4
v 2.98023e-08 1.3 0.3
v 2.98023e-08 1.3 0
v 2.98023e-08 1.3 -0.1
v 0.1 0 0.1
v 0.1 0 -0.3
v 0.1 0.4 0.1
v 0.1 0.4 0
v 0.1 0.4 -0.3
v 0.1 0.4 -0.5
v 0.1 0.5 0.1
v 0.1 0.5 0
v 0.1 0.6 0.1
v 0.1 0.6 -0.2
v 0.1 0.6 -0.3
v 0.1 0.7 -0.3
v 0.1 0.7 -0.4
v 0.1 0.8 -0.2
v 0.1 0.8 -0.3
v 0.1 0.8 -0.4
v 0.1 0.8 -0.5
v 0.1 1 0.4
v 0.1 1 0.1
v 0.1 1 -0.2
v 0.1 1 -0.3
v 0.1 1 -0.4
v 0.1 1 -0.5
v 0.1 1.1 0.4
v 0.1 1.1 0.1
v 0.1 1.1 -0.2
v 0.1 1.1 -0.3
v 0.1 1.1 -0.4
v 0.1 1.1 -0.5
v 0.1 1.2 0.5
v 0.1 1.2 0.4
v 0.1 1.3 0.5
v 0.1 1.3 0.4
v 0.2 0.4 0.2
v 0.2 0.4 0
v 0.2 0.5 0.2
v 0.2 0.5 0
v 0.2 0.7 -0.3
v 0.2 0.7 -0.4
v 0.2 1 -0.3
v 0.2 1 -0.4
v 0.2 1.1 -0.3
v 0.2 1.1 -0.4
v -0.1 1.2 0.6
v -0.1 1.3 0.6
v 2.98023e-08 1.2 0.6
v 2.98023e-08 1.3 0.6
v -0.2 1.2 0.5
v -0.2 1.3 0.5
v -0.1 1 0.5
v -0.1 1.2 0.5
v -0.1 1.3 0.5
v 2.98023e-08 1 0.5
v 2.98023e-08 1.2 0.5
v 2.98023e-08 1.3 0.5
v 0.1 1.2 0.5
v 0.1 1.3 0.5
v -0.3 1 0.4
v -0.3 1.1 0.4
v -0.1 1 0.4
v -0.1 1.1 0.4
v 2.98023e-08 1 0.4
v 2.98023e-08 1.1 0.4
v 0.1 1 0.4
v 0.1 1.1 0.4
v -0.2 0.7 0.2
v -0.2 1 0.2
v -0.2 1.1 0.2
v -0.2 1.2 0.2
v -0.1 0.7 0.2
v -0.1 1 0.2
v -0.1 1.1 0.2
v -0.1 1.2 0.2
v 2.98023e-08 0.4 0.2
v 2.98023e-08 0.5 0.2
v 0.2 0.4 0.2
v 0.2 0.5 0.2
v -0.1 0 0.1
v -0.1 0.6 0.1
v 2.98023e-08 0.4 0.1
v 2.98023e-08 0.5 0.1
v 0.1 0 0.1
v 0.1 0.4 0.1
v 0.1 0.5 0.1
v 0.1 0.6 0.1
v -0.3 0.4 0
v -0.3 0.8 0
v -0.3 1.1 0
v -0.3 1.3 0
v -0.2 0.7 0
v -0.2 0.8 0
v -0.2 1.1 0
v -0.2 1.2 0
v -0.1 0.4 0
v -0.1 0.6 0
v -0.1 0.7 0
v -0.1 0.8 0
v -0.1 1.1 0
v -0.1 1.2 0
v 2.98023e-08 0.6 0
v 2.98023e-08 0.8 0
v 2.98023e-08 1.1 0
v 2.98023e-08 1.3 0
v 2.98023e-08 0.6 -0.2
v 2.98023e-08 0.8 -0.2
v 2.98023e-08 1 -0.2
v 2.98023e-08 1.1 -0.2
v 0.1 0.6 -0.2
v 0.1 0.8 -0.2
v 0.1 1 -0.2
v 0.1 1.1 -0.2
v -0.1 0.7 -0.3
v -0.1 1 -0.3
v -0.1 1.1 -0.3
v 2.98023e-08 0.7 -0.3
v 2.98023e-08 0.8 -0.3
v 2.98023e-08 1 -0.3
v 2.98023e-08 1.1 -0.3
v 0.1 0.7 -0.3
v 0.1 0.8 -0.3
v 0.1 1 -0.3
v 0.1 1.1 -0.3
v 0.2 0.7 -0.3
v 0.2 1 -0.3
v 0.2 1.1 -0.3
v -0.2 1.2 0.4
v -0.2 1.3 0.4
v -0.1 1.2 0.4
v -0.1 1.3 0.4
v 2.98023e-08 1.2 0.4
v 2.98023e-08 1.3 0.4
v 0.1 1.2 0.4
v 0.1 1.3 0.4
v -0.1 1.1 0.3
v -0.1 1.2 0.3
v -0.1 1.3 0.3
v 2.98023e-08 1.1 0.3
v 2.98023e-08 1.2 0.3
v 2.98023e-08 1.3 0.3
v -0.3 1 0.1
v -0.3 1.1 0.1
v -0.2 1 0.1
v -0.2 1.1 0.1
v -0.1 1 0.1
v -0.1 1.1 0.1
v 0.1 1 0.1
v 0.1 1.1 0.1
v 0.1 0.4 0
v 0.1 0.5 0
v 0.2 0.4 0
v 0.2 0.5 0
v -0.3 0.4 -0.1
v -0.3 0.8 -0.1
v -0.3 1.1 -0.1
v -0.3 1.3 -0.1
v -0.2 0.7 -0.1
v -0.2 0.8 -0.1
v -0.2 1.1 -0.1
v -0.2 1.2 -0.1
v -0.1 0.4 -0.1
v -0.1 0.6 -0.1
v -0.1 0.7 -0.1
v -0.1 0.8 -0.1
v -0.1 1.1 -0.1
v -0.1 1.2 -0.1
v 2.98023e-08 0.6 -0.1
v 2.98023e-08 0.8 -0.1
v 2.98023e-08 1.1 -0.1
v 2.98023e-08 1.3 -0.1
v -0.2 0.7 -0.2
v -0.2 1.2 -0.2
v -0.1 0.7 -0.2
v -0.1 1.2 -0.2
v -0.1 0 -0.3
v -0.1 0.6 -0.3
v 2.98023e-08 0.4 -0.3
v 2.98023e-08 0.6 -0.3
v 0.1 0 -0.3
v 0.1 0.4 -0.3
v -0.1 0.7 -0.4
v -0.1 1 -0.4
v -0.1 1.1 -0.4
v 2.98023e-08 0.7 -0.4
v 2.98023e-08 0.8 -0.4
v 2.98023e-08 1 -0.4
v 2.98023e-08 1.1 -0.4
v 0.1 0.7 -0.4
v 0.1 0.8 -0.4
v 0.1 1 -0.4
v 0.1 1.1 -0.4
v 0.2 0.7 -0.4
v 0.2 1 -0.4
v 0.2 1.1 -0.4
v 2.98023e-08 0.4 -0.5
v 2.98023e-08 0.8 -0.5
v 2.98023e-08 1 -0.5
v 2.98023e-08 1.1 -0.5
v 0.1 0.4 -0.5
v 0.1 0.8 -0.5
v 0.1 1 -0.5
v 0.1 1.1 -0.5
v -0.1 0 0.1
v 0.1 0 0.1
v -0.1 0 -0.3
v 0.1 0 -0.3
v 2.98023e-08 0.4 0.2
v 0.2 0.4 0.2
v 2.98023e-08 0.4 0.1
v 0.1 0.4 0.1
v -0.3 0.4 0
v -0.1 0.4 0
v 0.1 0.4 0
v 0.2 0.4 0
v -0.3 0.4 -0.1
v -0.1 0.4 -0.1
v 2.98023e-08 0.4 -0.3
v 0.1 0.4 -0.3
v 2.98023e-08 0.4 -0.5
v 0.1 0.4 -0.5
v -0.2 0.7 0.2
v -0.1 0.7 0.2
v -0.2 0.7 0
v -0.1 0.7 0
v -0.2 0.7 -0.1
v -0.1 0.7 -0.1
v -0.2 0.7 -0.2
v -0.1 0.7 -0.2
v -0.1 0.7 -0.3
v 2.98023e-08 0.7 -0.3
v 0.1 0.7 -0.3
v 0.2 0.7 -0.3
v -0.1 0.7 -0.4
v 2.98023e-08 0.7 -0.4
v 0.1 0.7 -0.4
v 0.2 0.7 -0.4
v -0.1 1 0.5
v 2.98023e-08 1 0.5
v -0.3 1 0.4
v -0.1 1 0.4
v 2.98023e-08 1 0.4
v 0.1 1 0.4
v -0.2 1 0.2
v -0.1 1 0.2
v -0.3 1 0.1
v -0.2 1 0.1
v -0.1 1 0.1
v 0.1 1 0.1
v 2.98023e-08 1 -0.2
v 0.1 1 -0.2
v 2.98023e-08 1 -0.3
v 0.1 1 -0.3
v 2.98023e-08 1 -0.4
v 0.1 1 -0.4
v 2.98023e-08 1 -0.5
v 0.1 1 -0.5
v -0.3 1.1 0
v -0.2 1.1 0
v -0.1 1.1 0
v 2.98023e-08 1.1 0
v -0.3 1.1 -0.1
v -0.2 1.1 -0.1
v -0.1 1.1 -0.1
v 2.98023e-08 1.1 -0.1
v -0.1 1.2 0.6
v 2.98023e-08 1.2 0.6
v -0.2 1.2 0.5
v -0.1 1.2 0.5
v 2.98023e-08 1.2 0.5
v 0.1 1.2 0.5
v -0.2 1.2 0.4
v -0.1 1.2 0.4
v 2.98023e-08 1.2 0.4
v 0.1 1.2 0.4
v 2.98023e-08 0.5 0.2
v 0.2 0.5 0.2
v 2.98023e-08 0.5 0.1
v 0.1 0.5 0.1
v 0.1 0.5 0
v 0.2 0.5 0
v -0.1 0.6 0.1
v 0.1 0.6 0.1
v -0.1 0.6 0
v 2.98023e-08 0.6 0
v -0.1 0.6 -0.1
v 2.98023e-08 0.6 -0.1
v 2.98023e-08 0.6 -0.2
v 0.1 0.6 -0.2
v -0.1 0.6 -0.3
v 2.98023e-08 0.6 -0.3
v -0.3 0.8 0
v -0.2 0.8 0
v -0.1 0.8 0
v 2.98023e-08 0.8 0
v -0.3 0.8 -0.1
v -0.2 0.8 -0.1
v -0.1 0.8 -0.1
v 2.98023e-08 0.8 -0.1
v 2.98023e-08 0.8 -0.2
v 0.1 0.8 -0.2
v 2.98023e-08 0.8 -0.3
v 0.1 0.8 -0.3
v 2.98023e-08 0.8 -0.4
v 0.1 0.8 -0.4
v 2.98023e-08 0.8 -0.5
v 0.1 0.8 -0.5
v -0.3 1.1 0.4
v -0.1 1.1 0.4
v 2.98023e-08 1.1 0.4
v 0.1 1.1 0.4
v -0.1 1.1 0.3
v 2.98023e-08 1.1 0.3
v -0.2 1.1 0.2
v -0.1 1.1 0.2
v -0.3 1.1 0.1
v -0.2 1.1 0.1
v -0.1 1.1 0.1
v 0.1 1.1 0.1
v 2.98023e-08 1.1 -0.2
v 0.1 1.1 -0.2
v -0.1 1.1 -0.3
v 2.98023e-08 1.1 -0.3
v 0.1 1.1 -0.3
v 0.2 1.1 -0.3
v -0.1 1.1 -0.4
v 2.98023e-08 1.1 -0.4
v 0.1 1.1 -0.4
v 0.2 1.1 -0.4
v 2.98023e-08 1.1 -0.5
v 0.1 1.1 -0.5
v -0.2 1.2 0.2
v -0.1 1.2 0.2
v -0.2 1.2 0
v -0.1 1.2 0
v -0.2 1.2 -0.1
v -0.1 1.2 -0.1
v -0.2 1.2 -0.2
v -0.1 1.2 -0.2
v -0.1 1.3 0.6
v 2.98023e-08 1.3 0.6
v -0.2 1.3 0.5
v -0.1 1.3 0.5
v 2.98023e-08 1.3 0.5
v 0.1 1.3 0.5
v -0.2 1.3 0.4
v -0.1 1.3 0.4
v 2.98023e-08 1.3 0.4
v 0.1 1.3 0.4
v -0.1 1.3 0.3
v 2.98023e-08 1.3 0.3
v -0.3 1.3 0
v 2.98023e-08 1.3 0
v -0.3 1.3 -0.1
v 2.98023e-08 1.3 -0.1

# faces
f 3/4/1 2/4/1 1/4/1
f 4/4/1 2/4/1 3/4/1
f 7/6/1 6/6/1 5/6/1
f 8/6/1 6/6/1 7/6/1
f 11/4/1 10/4/1 9/4/1
f 12/4/1 10/4/1 11/4/1
f 17/5/1 14/5/1 13/5/1
f 18/5/1 16/5/1 15/5/1
f 19/5/1 17/5/1 13/5/1
f 19/5/1 18/5/1 17/5/1
f 20/5/1 18/5/1 19/5/1
f 22/5/1 18/5/1 20/5/1
f 23/5/1 18/5/1 22/5/1
f 24/5/1 16/5/1 18/5/1
f 24/5/1 18/5/1 23/5/1
f 27/5/1 23/5/1 22/5/1
f 27/5/1 22/5/1 21/5/1
f 28/5/1 23/5/1 27/5/1
f 29/5/1 16/5/1 24/5/1
f 30/5/1 16/5/1 29/5/1
f 31/2/1 26/2/1 25/2/1
f 32/2/1 26/2/1 31/2/1
f 35/5/1 34/5/1 33/5/1
f 36/5/1 34/5/1 35/5/1
f 37/5/1 35/5/1 33/5/1
f 38/5/1 35/5/1 37/5/1
f 39/5/1 34/5/1 36/5/1
f 40/5/1 34/5/1 39/5/1
f 45/5/1 42/5/1 41/5/1
f 46/5/1 42/5/1 45/5/1
f 47/4/1 44/4/1 43/4/1
f 49/1/1 46/1/1 45/1/1
f 50/1/1 46/1/1 49/1/1
f 52/4/1 48/4/1 47/4/1
f 52/4/1 47/4/1 43/4/1
f 53/4/1 48/4/1 52/4/1
f 54/4/1 48/4/1 53/4/1
f 55/2/1 52/2/1 51/2/1
f 56/2/1 52/2/1 55/2/1
f 57/2/1 54/2/1 53/2/1
f 58/2/1 54/2/1 57/2/1
f 63/5/1 60/5/1 59/5/1
f 64/5/1 60/5/1 63/5/1
f 66/6/1 62/6/1 61/6/1
f 67/6/1 62/6/1 66/6/1
f 67/6/1 66/6/1 65/6/1
f 68/6/1 62/6/1 67/6/1
f 69/6/1 67/6/1 65/6/1
f 70/6/1 67/6/1 69/6/1
f 71/6/1 62/6/1 68/6/1
f 72/6/1 62/6/1 71/6/1
f 77/1/1 74/1/1 73/1/1
f 78/1/1 74/1/1 77/1/1
f 79/1/1 76/1/1 75/1/1
f 80/1/1 76/1/1 79/1/1
f 81/5/2 82/5/2 85/5/2
f 83/5/2 84/5/2 86/5/2
f 81/5/2 85/5/2 87/5/2
f 85/5/2 86/5/2 87/5/2
f 87/5/2 86/5/2 88/5/2
f 88/5/2 86/5/2 90/5/2
f 90/5/2 86/5/2 91/5/2
f 86/5/2 84/5/2 92/5/2
f 91/5/2 86/5/2 92/5/2
f 90/5/2 91/5/2 93/5/2
f 89/5/2 90/5/2 93/5/2
f 93/5/2 91/5/2 94/5/2
f 92/5/2 84/5/2 95/5/2
f 95/5/2 84/5/2 96/5/2
f 97/4/2 98/4/2 99/4/2
f 99/4/2 98/4/2 100/4/2
f 101/4/2 102/4/2 103/4/2
f 101/4/2 103/4/2 108/4/2
f 103/4/2 104/4/2 108/4/2
f 108/4/2 104/4/2 109/4/2
f 109/4/2 104/4/2 110/4/2
f 107/2/2 108/2/2 111/2/2
f 111/2/2 108/2/2 112/2/2
f 109/2/2 110/2/2 113/2/2
f 113/2/2 110/2/2 114/2/2
f 105/4/2 106/4/2 115/4/2
f 115/4/2 106/4/2 116/4/2
f 117/5/2 118/5/2 119/5/2
f 119/5/2 118/5/2 120/5/2
f 120/5/2 118/5/2 121/5/2
f 120/5/2 121/5/2 124/5/2
f 123/5/2 124/5/2 125/5/2
f 124/5/2 121/5/2 126/5/2
f 125/5/2 124/5/2 126/5/2
f 121/6/2 122/6/2 127/6/2
f 126/5/2 121/5/2 127/5/2
f 127/6/2 122/6/2 128/6/2
f 126/6/2 127/6/2 128/6/2
f 128/6/2 122/6/2 129/6/2
f 126/6/2 128/6/2 130/6/2
f 130/6/2 128/6/2 131/6/2
f 129/6/2 122/6/2 132/6/2
f 132/6/2 122/6/2 133/6/2
f 134/6/2 135/6/2 140/6/2
f 140/6/2 135/6/2 141/6/2
f 136/1/2 137/1/2 142/1/2
f 142/1/2 137/1/2 143/1/2
f 138/1/2 139/1/2 144/1/2
f 144/1/2 139/1/2 145/1/2
f 146/2/2 147/2/2 148/2/2
f 148/2/2 147/2/2 149/2/2
f 150/5/2 151/5/2 152/5/2
f 152/5/2 151/5/2 153/5/2
f 154/5/2 155/5/2 156/5/2
f 156/5/2 155/5/2 157/5/2
f 156/1/2 157/1/2 158/1/2
f 158/1/2 157/1/2 159/1/2
f 162/2/3 161/2/3 160/2/3
f 163/2/3 161/2/3 162/2/3
f 167/2/3 165/2/3 164/2/3
f 168/2/3 165/2/3 167/2/3
f 169/4/3 167/4/3 166/4/3
f 170/4/3 167/4/3 169/4/3
f 172/2/3 171/2/3 170/2/3
f 173/2/3 171/2/3 172/2/3
f 176/6/3 175/6/3 174/6/3
f 177/6/3 175/6/3 176/6/3
f 180/6/3 179/6/3 178/6/3
f 181/6/3 179/6/3 180/6/3
f 186/5/3 183/5/3 182/5/3
f 187/5/3 183/5/3 186/5/3
f 188/5/3 185/5/3 184/5/3
f 189/5/3 185/5/3 188/5/3
f 192/5/3 191/5/3 190/5/3
f 193/5/3 191/5/3 192/5/3
f 196/5/3 195/5/3 194/5/3
f 197/5/3 195/5/3 196/5/3
f 198/5/3 196/5/3 194/5/3
f 199/5/3 196/5/3 198/5/3
f 200/5/3 195/5/3 197/5/3
f 201/5/3 195/5/3 200/5/3
f 206/4/3 203/4/3 202/4/3
f 207/4/3 203/4/3 206/4/3
f 208/4/3 205/4/3 204/4/3
f 209/4/3 205/4/3 208/4/3
f 210/4/3 206/4/3 202/4/3
f 211/4/3 206/4/3 210/4/3
f 212/4/3 206/4/3 211/4/3
f 215/4/3 205/4/3 209/4/3
f 216/4/3 213/4/3 212/4/3
f 216/4/3 212/4/3 211/4/3
f 217/4/3 213/4/3 216/4/3
f 218/4/3 215/4/3 214/4/3
f 219/4/3 205/4/3 215/4/3
f 219/4/3 215/4/3 218/4/3
f 224/6/3 221/6/3 220/6/3
f 225/6/3 221/6/3 224/6/3
f 226/1/3 223/1/3 222/1/3
f 227/1/3 223/1/3 226/1/3
f 231/5/3 229/5/3 228/5/3
f 232/5/3 229/5/3 231/5/3
f 233/1/3 230/1/3 229/1/3
f 233/5/3 229/5/3 232/5/3
f 234/1/3 230/1/3 233/1/3
f 236/5/3 233/5/3 232/5/3
f 237/5/3 233/5/3 236/5/3
f 239/5/3 236/5/3 235/5/3
f 239/5/3 237/5/3 236/5/3
f 240/1/3 238/1/3 237/1/3
f 240/5/3 237/5/3 239/5/3
f 241/1/3 238/1/3 240/1/3
f 242/2/4 243/2/4 244/2/4
f 244/2/4 243/2/4 245/2/4
f 246/2/4 247/2/4 248/2/4
f 248/2/4 247/2/4 249/2/4
f 250/4/4 251/4/4 253/4/4
f 251/2/4 252/2/4 254/2/4
f 253/4/4 251/4/4 254/4/4
f 254/2/4 252/2/4 255/2/4
f 256/6/4 257/6/4 258/6/4
f 258/6/4 257/6/4 259/6/4
f 260/6/4 261/6/4 262/6/4
f 262/6/4 261/6/4 263/6/4
f 264/5/4 265/5/4 266/5/4
f 266/5/4 265/5/4 267/5/4
f 268/4/4 269/4/4 272/4/4
f 272/4/4 269/4/4 273/4/4
f 270/4/4 271/4/4 274/4/4
f 274/4/4 271/4/4 275/4/4
f 268/4/4 272/4/4 276/4/4
f 276/4/4 272/4/4 277/4/4
f 277/4/4 272/4/4 278/4/4
f 275/4/4 271/4/4 281/4/4
f 278/4/4 279/4/4 282/4/4
f 277/4/4 278/4/4 282/4/4
f 282/4/4 279/4/4 283/4/4
f 280/4/4 281/4/4 284/4/4
f 281/4/4 271/4/4 285/4/4
f 284/4/4 281/4/4 285/4/4
f 286/5/4 287/5/4 288/5/4
f 288/5/4 287/5/4 289/5/4
f 290/5/4 291/5/4 292/5/4
f 292/5/4 291/5/4 293/5/4
f 290/5/4 292/5/4 294/5/4
f 294/5/4 292/5/4 295/5/4
f 296/5/4 297/5/4 299/5/4
f 299/5/4 297/5/4 300/5/4
f 297/1/4 298/1/4 301/1/4
f 300/5/4 297/5/4 301/5/4
f 301/1/4 298/1/4 302/1/4
f 300/5/4 301/5/4 304/5/4
f 304/5/4 301/5/4 305/5/4
f 303/5/4 304/5/4 307/5/4
f 304/5/4 305/5/4 307/5/4
f 305/1/4 306/1/4 308/1/4
f 307/5/4 305/5/4 308/5/4
f 308/1/4 306/1/4 309/1/4
f 310/6/4 311/6/4 314/6/4
f 314/6/4 311/6/4 315/6/4
f 312/1/4 313/1/4 316/1/4
f 316/1/4 313/1/4 317/1/4
f 320/5/5 319/5/5 318/5/5
f 321/5/5 319/5/5 320/5/5
f 324/5/5 323/5/5 322/5/5
f 325/5/5 323/5/5 324/5/5
f 328/5/5 323/5/5 325/5/5
f 329/5/5 323/5/5 328/5/5
f 330/4/5 327/4/5 326/4/5
f 331/4/5 327/4/5 330/4/5
f 334/6/5 333/6/5 332/6/5
f 335/6/5 333/6/5 334/6/5
f 338/5/5 337/5/5 336/5/5
f 339/5/5 337/5/5 338/5/5
f 342/5/5 341/5/5 340/5/5
f 343/5/5 341/5/5 342/5/5
f 348/5/5 345/5/5 344/5/5
f 349/5/5 345/5/5 348/5/5
f 350/5/5 347/5/5 346/5/5
f 351/5/5 347/5/5 350/5/5
f 355/4/5 353/4/5 352/4/5
f 356/4/5 353/4/5 355/4/5
f 358/6/5 355/6/5 354/6/5
f 358/6/5 357/6/5 356/6/5
f 358/6/5 356/6/5 355/6/5
f 359/6/5 357/6/5 358/6/5
f 360/6/5 358/6/5 354/6/5
f 361/6/5 358/6/5 360/6/5
f 362/6/5 357/6/5 359/6/5
f 363/6/5 357/6/5 362/6/5
f 366/1/5 365/1/5 364/1/5
f 367/1/5 365/1/5 366/1/5
f 370/1/5 369/1/5 368/1/5
f 371/1/5 369/1/5 370/1/5
f 376/4/5 373/4/5 372/4/5
f 377/4/5 373/4/5 376/4/5
f 378/4/5 375/4/5 374/4/5
f 379/4/5 375/4/5 378/4/5
f 383/2/5 381/2/5 380/2/5
f 384/2/5 381/2/5 383/2/5
f 386/2/5 383/2/5 382/2/5
f 387/2/5 383/2/5 386/2/5
f 388/2/5 385/2/5 384/2/5
f 389/2/5 385/2/5 388/2/5
f 390/5/6 391/5/6 392/5/6
f 392/5/6 391/5/6 393/5/6
f 393/5/6 391/5/6 394/5/6
f 394/5/6 391/5/6 395/5/6
f 396/5/6 397/5/6 398/5/6
f 398/5/6 397/5/6 399/5/6
f 399/5/6 397/5/6 401/5/6
f 401/5/6 397/5/6 402/5/6
f 400/5/6 401/5/6 402/5/6
f 402/5/6 397/5/6 403/5/6
f 400/5/6 402/5/6 404/5/6
f 404/5/6 402/5/6 405/5/6
f 406/4/6 407/4/6 410/4/6
f 410/4/6 407/4/6 411/4/6
f 408/4/6 409/4/6 412/4/6
f 412/4/6 409/4/6 413/4/6
f 414/6/6 415/6/6 416/6/6
f 416/6/6 415/6/6 417/6/6
f 418/6/6 419/6/6 420/6/6
f 420/6/6 419/6/6 421/6/6
f 422/6/6 423/6/6 426/6/6
f 424/6/6 425/6/6 427/6/6
f 422/6/6 426/6/6 428/6/6
f 426/6/6 427/6/6 428/6/6
f 428/6/6 427/6/6 429/6/6
f 422/6/6 428/6/6 430/6/6
f 430/6/6 428/6/6 431/6/6
f 429/6/6 427/6/6 432/6/6
f 427/6/6 425/6/6 433/6/6
f 432/6/6 427/6/6 433/6/6
f 434/1/6 435/1/6 437/1/6
f 437/1/6 435/1/6 438/1/6
f 436/1/6 437/1/6 440/1/6
f 437/3/6 438/3/6 441/3/6
f 440/1/6 437/1/6 441/1/6
f 438/1/6 439/1/6 442/1/6
f 441/3/6 438/3/6 442/3/6
f 442/1/6 439/1/6 443/1/6
f 441/1/6 442/1/6 444/1/6
f 444/1/6 442/1/6 445/1/6
f 446/5/6 447/5/6 448/5/6
f 448/5/6 447/5/6 449/5/6
f 450/5/6 451/5/6 452/5/6
f 452/5/6 451/5/6 453/5/6
f 454/2/6 455/2/6 457/2/6
f 457/2/6 455/2/6 458/2/6
f 456/2/6 457/2/6 460/2/6
f 457/3/6 458/3/6 461/3/6
f 460/2/6 457/2/6 461/2/6
f 458/2/6 459/2/6 462/2/6
f 461/3/6 458/3/6 462/3/6
f 462/2/6 459/2/6 463/2/6
f 461/2/6 462/2/6 464/2/6
f 464/2/6 462/2/6 465/2/6
f 466/4/6 467/4/6 468/4/6
f 468/4/6 467/4/6 469/4/6
