# MagicaVoxel @ Ephtracy

# group
o 

# material
mtllib DragonTree3.mtl
usemtl palette

# normals
vn -1 0 0
vn 1 0 0
vn 0 0 1
vn 0 0 -1
vn 0 -1 0
vn 0 1 0

# texcoords
vt 0.943359 0.5
vt 0.947266 0.5
vt 0.990234 0.5

# verts
v -0.8 2 0.8
v -0.8 2 -0.8
v -0.8 2.2 0.8
v -0.8 2.2 0.3
v -0.8 2.2 -5.96046e-08
v -0.8 2.2 -0.8
v -0.8 2.3 0.3
v -0.8 2.3 -5.96046e-08
v -0.6 1.9 0.1
v -0.6 1.9 -5.96046e-08
v -0.6 2 0.1
v -0.6 2 -5.96046e-08
v -0.6 2.2 0.6
v -0.6 2.2 0.3
v -0.6 2.2 -5.96046e-08
v -0.6 2.2 -0.6
v -0.6 2.3 0.3
v -0.6 2.3 -5.96046e-08
v -0.6 2.4 0.6
v -0.6 2.4 -0.6
v -0.5 1.9 -0.3
v -0.5 1.9 -0.4
v -0.5 2 -0.3
v -0.5 2 -0.4
v -0.4 1.9 0.5
v -0.4 1.9 0.4
v -0.4 1.9 -5.96046e-08
v -0.4 1.9 -0.1
v -0.4 2 0.5
v -0.4 2 0.4
v -0.4 2 -5.96046e-08
v -0.4 2 -0.1
v -0.4 2.2 -0.6
v -0.4 2.2 -0.8
v -0.4 2.3 -0.6
v -0.4 2.3 -0.8
v -0.4 2.4 0.4
v -0.4 2.4 -0.4
v -0.4 2.6 0.4
v -0.4 2.6 -0.4
v -0.3 2.6 0.3
v -0.3 2.6 -0.1
v -0.3 2.7 0.3
v -0.3 2.7 -0.1
v -0.2 0 0.1
v -0.2 0 -0.2
v -0.2 0.8 0.1
v -0.2 0.8 -0.2
v -0.2 2.6 -0.1
v -0.2 2.6 -0.2
v -0.2 2.7 0.2
v -0.2 2.7 -0.1
v -0.2 2.8 0.2
v -0.2 2.8 -0.2
v -0.1 0 0.2
v -0.1 0 0.1
v -0.1 0 -0.2
v -0.1 0 -0.5
v -0.1 0.3 -0.2
v -0.1 0.3 -0.5
v -0.1 0.8 0.1
v -0.1 0.8 -0.1
v -0.1 1.9 0.6
v -0.1 1.9 0.5
v -0.1 1.9 0.4
v -0.1 1.9 0.2
v -0.1 1.9 0.1
v -0.1 1.9 -5.96046e-08
v -0.1 1.9 -0.1
v -0.1 1.9 -0.3
v -0.1 1.9 -0.4
v -0.1 1.9 -0.6
v -0.1 2 0.6
v -0.1 2 0.5
v -0.1 2 0.4
v -0.1 2 0.1
v -0.1 2 -5.96046e-08
v -0.1 2 -0.3
v -0.1 2 -0.4
v -0.1 2 -0.6
v -0.1 2.3 -0.6
v -0.1 2.3 -0.7
v -0.1 2.4 -0.5
v -0.1 2.4 -0.6
v -0.1 2.5 -0.5
v -0.1 2.5 -0.7
v 5.96046e-08 0 0.3
v 5.96046e-08 0 0.2
v 5.96046e-08 0.3 -0.2
v 5.96046e-08 0.3 -0.4
v 5.96046e-08 0.5 0.3
v 5.96046e-08 0.5 0.2
v 5.96046e-08 0.6 -0.2
v 5.96046e-08 0.6 -0.4
v 5.96046e-08 2.4 0.5
v 5.96046e-08 2.4 0.4
v 5.96046e-08 2.5 0.5
v 5.96046e-08 2.5 0.4
v 0.1 1.9 0.7
v 0.1 1.9 0.4
v 0.1 1.9 0.3
v 0.1 2 0.7
v 0.1 2 0.4
v 0.1 2 0.3
v 0.3 1.9 0.4
v 0.3 1.9 0.3
v 0.3 1.9 -0.1
v 0.3 1.9 -0.4
v 0.3 2 0.4
v 0.3 2 0.3
v 0.3 2 -0.1
v 0.3 2 -0.4
v 0.3 2.6 0.1
v 0.3 2.6 -0.1
v 0.3 2.7 0.1
v 0.3 2.7 -0.1
v 0.6 1.9 -0.4
v 0.6 1.9 -0.7
v 0.6 2 -0.4
v 0.6 2 -0.7
v -0.3 1.9 -5.96046e-08
v -0.3 1.9 -0.1
v -0.3 2 -5.96046e-08
v -0.3 2 -0.1
v -0.1 2.2 -0.7
v -0.1 2.2 -0.8
v -0.1 2.3 -0.7
v -0.1 2.3 -0.8
v -0.1 2.6 0.3
v -0.1 2.6 0.2
v -0.1 2.7 0.3
v -0.1 2.7 0.2
v 5.96046e-08 1.9 0.6
v 5.96046e-08 1.9 0.3
v 5.96046e-08 1.9 -0.1
v 5.96046e-08 1.9 -0.5
v 5.96046e-08 2 0.6
v 5.96046e-08 2 0.3
v 5.96046e-08 2 -0.1
v 5.96046e-08 2 -0.5
v 0.1 0.6 -0.1
v 0.1 0.6 -0.2
v 0.1 0.8 -0.1
v 0.1 0.8 -0.2
v 0.1 2.2 -0.6
v 0.1 2.2 -0.7
v 0.1 2.4 -0.5
v 0.1 2.4 -0.6
v 0.1 2.5 -0.5
v 0.1 2.5 -0.7
v 0.2 0 0.3
v 0.2 0 0.1
v 0.2 0 -0.4
v 0.2 0 -0.5
v 0.2 0.3 -0.4
v 0.2 0.3 -0.5
v 0.2 0.5 0.3
v 0.2 0.5 0.2
v 0.2 1 0.1
v 0.2 1 -0.1
v 0.2 1.9 0.4
v 0.2 1.9 0.3
v 0.2 1.9 0.2
v 0.2 1.9 -5.96046e-08
v 0.2 1.9 -0.1
v 0.2 1.9 -0.5
v 0.2 1.9 -0.6
v 0.2 2 0.4
v 0.2 2 0.3
v 0.2 2 0.2
v 0.2 2 -5.96046e-08
v 0.2 2 -0.5
v 0.2 2 -0.6
v 0.2 2.6 0.2
v 0.2 2.6 -0.2
v 0.2 2.8 0.2
v 0.2 2.8 -0.2
v 0.3 0.6 0.1
v 0.3 0.6 -0.1
v 0.3 1 0.1
v 0.3 1 -0.1
v 0.3 2.4 0.5
v 0.3 2.4 0.4
v 0.3 2.5 0.5
v 0.3 2.5 0.4
v 0.4 0 0.1
v 0.4 0 -0.4
v 0.4 0.6 0.1
v 0.4 0.6 -0.4
v 0.4 1.9 0.7
v 0.4 1.9 0.5
v 0.4 1.9 -5.96046e-08
v 0.4 1.9 -0.2
v 0.4 1.9 -0.3
v 0.4 1.9 -0.4
v 0.4 2 0.7
v 0.4 2 0.5
v 0.4 2 -5.96046e-08
v 0.4 2 -0.2
v 0.4 2 -0.3
v 0.4 2 -0.4
v 0.4 2.4 0.4
v 0.4 2.4 0.1
v 0.4 2.4 -0.1
v 0.4 2.4 -0.4
v 0.4 2.6 0.4
v 0.4 2.6 0.1
v 0.4 2.6 -0.1
v 0.4 2.6 -0.4
v 0.5 1.9 0.5
v 0.5 1.9 0.2
v 0.5 1.9 -0.2
v 0.5 1.9 -0.3
v 0.5 2 0.5
v 0.5 2 0.2
v 0.5 2 -0.2
v 0.5 2 -0.3
v 0.5 2.4 0.1
v 0.5 2.4 -0.1
v 0.5 2.7 0.1
v 0.5 2.7 -0.1
v 0.6 2.2 0.6
v 0.6 2.2 -0.6
v 0.6 2.4 0.6
v 0.6 2.4 -0.6
v 0.8 2 0.8
v 0.8 2 -0.4
v 0.8 2 -0.7
v 0.8 2 -0.8
v 0.8 2.1 -0.4
v 0.8 2.1 -0.7
v 0.8 2.2 0.8
v 0.8 2.2 -0.8
v 0.9 1.9 -0.4
v 0.9 1.9 -0.7
v 0.9 2.1 -0.4
v 0.9 2.1 -0.7
v -0.8 2 0.8
v -0.8 2.2 0.8
v 0.8 2 0.8
v 0.8 2.2 0.8
v 0.1 1.9 0.7
v 0.1 2 0.7
v 0.4 1.9 0.7
v 0.4 2 0.7
v -0.6 2.2 0.6
v -0.6 2.4 0.6
v -0.1 1.9 0.6
v -0.1 2 0.6
v 5.96046e-08 1.9 0.6
v 5.96046e-08 2 0.6
v 0.6 2.2 0.6
v 0.6 2.4 0.6
v -0.4 1.9 0.5
v -0.4 2 0.5
v -0.1 1.9 0.5
v -0.1 2 0.5
v 5.96046e-08 2.4 0.5
v 5.96046e-08 2.5 0.5
v 0.3 2.4 0.5
v 0.3 2.5 0.5
v 0.4 1.9 0.5
v 0.4 2 0.5
v 0.5 1.9 0.5
v 0.5 2 0.5
v -0.4 2.4 0.4
v -0.4 2.6 0.4
v 5.96046e-08 2.4 0.4
v 5.96046e-08 2.5 0.4
v 0.3 2.4 0.4
v 0.3 2.5 0.4
v 0.4 2.4 0.4
v 0.4 2.6 0.4
v -0.8 2.2 0.3
v -0.8 2.3 0.3
v -0.6 2.2 0.3
v -0.6 2.3 0.3
v -0.3 2.6 0.3
v -0.3 2.7 0.3
v -0.1 2.6 0.3
v -0.1 2.7 0.3
v 5.96046e-08 0 0.3
v 5.96046e-08 0.5 0.3
v 5.96046e-08 1.9 0.3
v 5.96046e-08 2 0.3
v 0.1 1.9 0.3
v 0.1 2 0.3
v 0.2 0 0.3
v 0.2 0.5 0.3
v 0.2 1.9 0.3
v 0.2 2 0.3
v 0.3 1.9 0.3
v 0.3 2 0.3
v -0.2 2.7 0.2
v -0.2 2.8 0.2
v -0.1 0 0.2
v -0.1 1.9 0.2
v -0.1 2.6 0.2
v -0.1 2.7 0.2
v 5.96046e-08 0 0.2
v 5.96046e-08 0.5 0.2
v 0.2 0.5 0.2
v 0.2 1.9 0.2
v 0.2 2.6 0.2
v 0.2 2.8 0.2
v -0.6 1.9 0.1
v -0.6 2 0.1
v -0.2 0 0.1
v -0.2 0.8 0.1
v -0.1 0 0.1
v -0.1 0.8 0.1
v -0.1 1.9 0.1
v -0.1 2 0.1
v 0.2 0 0.1
v 0.2 1 0.1
v 0.3 0.6 0.1
v 0.3 1 0.1
v 0.3 2.6 0.1
v 0.3 2.7 0.1
v 0.4 0 0.1
v 0.4 0.6 0.1
v 0.4 2.4 0.1
v 0.4 2.6 0.1
v 0.5 2.4 0.1
v 0.5 2.7 0.1
v 0.2 1.9 -5.96046e-08
v 0.2 2 -5.96046e-08
v 0.4 1.9 -5.96046e-08
v 0.4 2 -5.96046e-08
v 0.4 1.9 -0.2
v 0.4 2 -0.2
v 0.5 1.9 -0.2
v 0.5 2 -0.2
v -0.5 1.9 -0.3
v -0.5 2 -0.3
v -0.1 1.9 -0.3
v -0.1 2 -0.3
v 0.6 1.9 -0.4
v 0.6 2 -0.4
v 0.8 2 -0.4
v 0.8 2.1 -0.4
v 0.9 1.9 -0.4
v 0.9 2.1 -0.4
v -0.1 2.4 -0.5
v -0.1 2.5 -0.5
v 5.96046e-08 1.9 -0.5
v 5.96046e-08 2 -0.5
v 0.1 2.4 -0.5
v 0.1 2.5 -0.5
v 0.2 1.9 -0.5
v 0.2 2 -0.5
v -0.4 1.9 0.4
v -0.4 2 0.4
v -0.1 1.9 0.4
v -0.1 2 0.4
v 0.2 1.9 0.4
v 0.2 2 0.4
v 0.3 1.9 0.4
v 0.3 2 0.4
v 0.2 1.9 0.2
v 0.2 2 0.2
v 0.3 1.9 0.2
v 0.3 2 0.2
v 0.5 1.9 0.2
v 0.5 2 0.2
v -0.8 2.2 -5.96046e-08
v -0.8 2.3 -5.96046e-08
v -0.6 1.9 -5.96046e-08
v -0.6 2 -5.96046e-08
v -0.6 2.2 -5.96046e-08
v -0.6 2.3 -5.96046e-08
v -0.4 1.9 -5.96046e-08
v -0.4 2 -5.96046e-08
v -0.3 1.9 -5.96046e-08
v -0.3 2 -5.96046e-08
v -0.1 1.9 -5.96046e-08
v -0.1 2 -5.96046e-08
v -0.4 1.9 -0.1
v -0.4 2 -0.1
v -0.3 1.9 -0.1
v -0.3 2 -0.1
v -0.3 2.6 -0.1
v -0.3 2.7 -0.1
v -0.2 2.6 -0.1
v -0.2 2.7 -0.1
v -0.1 0.8 -0.1
v -0.1 1.9 -0.1
v 5.96046e-08 1.9 -0.1
v 5.96046e-08 2 -0.1
v 0.1 0.6 -0.1
v 0.1 0.8 -0.1
v 0.2 1 -0.1
v 0.2 1.9 -0.1
v 0.3 0.6 -0.1
v 0.3 1 -0.1
v 0.3 1.9 -0.1
v 0.3 2 -0.1
v 0.3 2.6 -0.1
v 0.3 2.7 -0.1
v 0.4 2.4 -0.1
v 0.4 2.6 -0.1
v 0.5 2.4 -0.1
v 0.5 2.7 -0.1
v -0.2 0 -0.2
v -0.2 0.8 -0.2
v -0.2 2.6 -0.2
v -0.2 2.8 -0.2
v -0.1 0 -0.2
v -0.1 0.3 -0.2
v 5.96046e-08 0.3 -0.2
v 5.96046e-08 0.6 -0.2
v 0.1 0.6 -0.2
v 0.1 0.8 -0.2
v 0.2 2.6 -0.2
v 0.2 2.8 -0.2
v 0.4 1.9 -0.3
v 0.4 2 -0.3
v 0.5 1.9 -0.3
v 0.5 2 -0.3
v -0.5 1.9 -0.4
v -0.5 2 -0.4
v -0.4 2.4 -0.4
v -0.4 2.6 -0.4
v -0.1 1.9 -0.4
v -0.1 2 -0.4
v 5.96046e-08 0.3 -0.4
v 5.96046e-08 0.6 -0.4
v 0.2 0 -0.4
v 0.2 0.3 -0.4
v 0.3 1.9 -0.4
v 0.3 2 -0.4
v 0.4 0 -0.4
v 0.4 0.6 -0.4
v 0.4 1.9 -0.4
v 0.4 2 -0.4
v 0.4 2.4 -0.4
v 0.4 2.6 -0.4
v -0.1 0 -0.5
v -0.1 0.3 -0.5
v 0.2 0 -0.5
v 0.2 0.3 -0.5
v -0.6 2.2 -0.6
v -0.6 2.4 -0.6
v -0.4 2.2 -0.6
v -0.4 2.3 -0.6
v -0.1 1.9 -0.6
v -0.1 2 -0.6
v -0.1 2.3 -0.6
v -0.1 2.4 -0.6
v 0.1 2.2 -0.6
v 0.1 2.4 -0.6
v 0.2 1.9 -0.6
v 0.2 2 -0.6
v 0.6 2.2 -0.6
v 0.6 2.4 -0.6
v -0.1 2.2 -0.7
v -0.1 2.3 -0.7
v -0.1 2.5 -0.7
v 0.1 2.2 -0.7
v 0.1 2.5 -0.7
v 0.6 1.9 -0.7
v 0.6 2 -0.7
v 0.8 2 -0.7
v 0.8 2.1 -0.7
v 0.9 1.9 -0.7
v 0.9 2.1 -0.7
v -0.8 2 -0.8
v -0.8 2.2 -0.8
v -0.4 2.2 -0.8
v -0.4 2.3 -0.8
v -0.1 2.2 -0.8
v -0.1 2.3 -0.8
v 0.8 2 -0.8
v 0.8 2.2 -0.8
v 5.96046e-08 0 0.3
v 0.2 0 0.3
v -0.1 0 0.2
v 5.96046e-08 0 0.2
v -0.2 0 0.1
v -0.1 0 0.1
v 0.2 0 0.1
v 0.4 0 0.1
v -0.2 0 -0.2
v -0.1 0 -0.2
v 0.2 0 -0.4
v 0.4 0 -0.4
v -0.1 0 -0.5
v 0.2 0 -0.5
v 0.1 1.9 0.7
v 0.4 1.9 0.7
v -0.1 1.9 0.6
v 5.96046e-08 1.9 0.6
v -0.4 1.9 0.5
v -0.1 1.9 0.5
v 0.4 1.9 0.5
v 0.5 1.9 0.5
v -0.4 1.9 0.4
v -0.1 1.9 0.4
v 0.1 1.9 0.4
v 0.2 1.9 0.4
v 0.3 1.9 0.4
v 5.96046e-08 1.9 0.3
v 0.1 1.9 0.3
v 0.2 1.9 0.3
v 0.3 1.9 0.3
v -0.1 1.9 0.2
v 0.2 1.9 0.2
v 0.3 1.9 0.2
v 0.5 1.9 0.2
v -0.6 1.9 0.1
v -0.1 1.9 0.1
v -0.6 1.9 -5.96046e-08
v -0.4 1.9 -5.96046e-08
v -0.3 1.9 -5.96046e-08
v -0.1 1.9 -5.96046e-08
v 0.2 1.9 -5.96046e-08
v 0.4 1.9 -5.96046e-08
v -0.4 1.9 -0.1
v -0.3 1.9 -0.1
v -0.1 1.9 -0.1
v 5.96046e-08 1.9 -0.1
v 0.2 1.9 -0.1
v 0.3 1.9 -0.1
v 0.4 1.9 -0.2
v 0.5 1.9 -0.2
v -0.5 1.9 -0.3
v -0.1 1.9 -0.3
v 0.4 1.9 -0.3
v 0.5 1.9 -0.3
v -0.5 1.9 -0.4
v -0.1 1.9 -0.4
v 0.3 1.9 -0.4
v 0.4 1.9 -0.4
v 0.6 1.9 -0.4
v 0.9 1.9 -0.4
v 5.96046e-08 1.9 -0.5
v 0.2 1.9 -0.5
v -0.1 1.9 -0.6
v 0.2 1.9 -0.6
v 0.6 1.9 -0.7
v 0.9 1.9 -0.7
v -0.8 2 0.8
v 0.8 2 0.8
v 0.1 2 0.7
v 0.4 2 0.7
v -0.1 2 0.6
v 5.96046e-08 2 0.6
v -0.4 2 0.5
v -0.1 2 0.5
v 0.4 2 0.5
v 0.5 2 0.5
v -0.4 2 0.4
v -0.1 2 0.4
v 0.1 2 0.4
v 0.2 2 0.4
v 0.3 2 0.4
v 5.96046e-08 2 0.3
v 0.1 2 0.3
v 0.2 2 0.3
v 0.3 2 0.3
v 0.2 2 0.2
v 0.3 2 0.2
v 0.5 2 0.2
v -0.6 2 0.1
v -0.1 2 0.1
v -0.6 2 -5.96046e-08
v -0.4 2 -5.96046e-08
v -0.3 2 -5.96046e-08
v -0.1 2 -5.96046e-08
v 0.2 2 -5.96046e-08
v 0.4 2 -5.96046e-08
v -0.4 2 -0.1
v -0.3 2 -0.1
v 5.96046e-08 2 -0.1
v 0.3 2 -0.1
v 0.4 2 -0.2
v 0.5 2 -0.2
v -0.5 2 -0.3
v -0.1 2 -0.3
v 0.4 2 -0.3
v 0.5 2 -0.3
v -0.5 2 -0.4
v -0.1 2 -0.4
v 0.3 2 -0.4
v 0.4 2 -0.4
v 0.6 2 -0.4
v 0.8 2 -0.4
v 5.96046e-08 2 -0.5
v 0.2 2 -0.5
v -0.1 2 -0.6
v 0.2 2 -0.6
v 0.6 2 -0.7
v 0.8 2 -0.7
v -0.8 2 -0.8
v 0.8 2 -0.8
v -0.1 0.3 -0.2
v 5.96046e-08 0.3 -0.2
v 5.96046e-08 0.3 -0.4
v 0.2 0.3 -0.4
v -0.1 0.3 -0.5
v 0.2 0.3 -0.5
v 5.96046e-08 0.5 0.3
v 0.2 0.5 0.3
v 5.96046e-08 0.5 0.2
v 0.2 0.5 0.2
v 0.3 0.6 0.1
v 0.4 0.6 0.1
v 0.1 0.6 -0.1
v 0.3 0.6 -0.1
v 5.96046e-08 0.6 -0.2
v 0.1 0.6 -0.2
v 5.96046e-08 0.6 -0.4
v 0.4 0.6 -0.4
v -0.2 0.8 0.1
v -0.1 0.8 0.1
v -0.1 0.8 -0.1
v 0.1 0.8 -0.1
v -0.2 0.8 -0.2
v 0.1 0.8 -0.2
v 0.2 1 0.1
v 0.3 1 0.1
v 0.2 1 -0.1
v 0.3 1 -0.1
v 0.8 2.1 -0.4
v 0.9 2.1 -0.4
v 0.8 2.1 -0.7
v 0.9 2.1 -0.7
v -0.8 2.2 0.8
v 0.8 2.2 0.8
v -0.6 2.2 0.6
v 0.6 2.2 0.6
v -0.8 2.2 0.3
v -0.6 2.2 0.3
v -0.8 2.2 -5.96046e-08
v -0.6 2.2 -5.96046e-08
v -0.6 2.2 -0.6
v -0.4 2.2 -0.6
v 0.1 2.2 -0.6
v 0.6 2.2 -0.6
v -0.1 2.2 -0.7
v 0.1 2.2 -0.7
v -0.8 2.2 -0.8
v -0.4 2.2 -0.8
v -0.1 2.2 -0.8
v 0.8 2.2 -0.8
v -0.8 2.3 0.3
v -0.6 2.3 0.3
v -0.8 2.3 -5.96046e-08
v -0.6 2.3 -5.96046e-08
v -0.4 2.3 -0.6
v -0.1 2.3 -0.6
v -0.1 2.3 -0.7
v -0.4 2.3 -0.8
v -0.1 2.3 -0.8
v -0.6 2.4 0.6
v 0.6 2.4 0.6
v 5.96046e-08 2.4 0.5
v 0.3 2.4 0.5
v -0.4 2.4 0.4
v 5.96046e-08 2.4 0.4
v 0.3 2.4 0.4
v 0.4 2.4 0.4
v 0.4 2.4 0.1
v 0.5 2.4 0.1
v 0.4 2.4 -0.1
v 0.5 2.4 -0.1
v -0.4 2.4 -0.4
v 0.4 2.4 -0.4
v -0.1 2.4 -0.5
v 0.1 2.4 -0.5
v -0.6 2.4 -0.6
v -0.1 2.4 -0.6
v 0.1 2.4 -0.6
v 0.6 2.4 -0.6
v 5.96046e-08 2.5 0.5
v 0.3 2.5 0.5
v 5.96046e-08 2.5 0.4
v 0.3 2.5 0.4
v -0.1 2.5 -0.5
v 0.1 2.5 -0.5
v -0.1 2.5 -0.7
v 0.1 2.5 -0.7
v -0.4 2.6 0.4
v 0.4 2.6 0.4
v -0.3 2.6 0.3
v -0.1 2.6 0.3
v -0.1 2.6 0.2
v 0.2 2.6 0.2
v 0.3 2.6 0.1
v 0.4 2.6 0.1
v -0.3 2.6 -0.1
v -0.2 2.6 -0.1
v 0.3 2.6 -0.1
v 0.4 2.6 -0.1
v -0.2 2.6 -0.2
v 0.2 2.6 -0.2
v -0.4 2.6 -0.4
v 0.4 2.6 -0.4
v -0.3 2.7 0.3
v -0.1 2.7 0.3
v -0.2 2.7 0.2
v -0.1 2.7 0.2
v 0.3 2.7 0.1
v 0.5 2.7 0.1
v -0.3 2.7 -0.1
v -0.2 2.7 -0.1
v 0.3 2.7 -0.1
v 0.5 2.7 -0.1
v -0.2 2.8 0.2
v 0.2 2.8 0.2
v -0.2 2.8 -0.2
v 0.2 2.8 -0.2

# faces
f 3/2/1 2/2/1 1/2/1
f 4/2/1 2/2/1 3/2/1
f 5/2/1 2/2/1 4/2/1
f 6/2/1 2/2/1 5/2/1
f 7/3/1 5/3/1 4/3/1
f 8/3/1 5/3/1 7/3/1
f 11/1/1 10/1/1 9/1/1
f 12/1/1 10/1/1 11/1/1
f 17/2/1 14/2/1 13/2/1
f 18/2/1 16/2/1 15/2/1
f 19/2/1 17/2/1 13/2/1
f 19/2/1 18/2/1 17/2/1
f 20/2/1 16/2/1 18/2/1
f 20/2/1 18/2/1 19/2/1
f 23/1/1 22/1/1 21/1/1
f 24/1/1 22/1/1 23/1/1
f 29/1/1 26/1/1 25/1/1
f 30/1/1 26/1/1 29/1/1
f 31/1/1 28/1/1 27/1/1
f 32/1/1 28/1/1 31/1/1
f 35/3/1 34/3/1 33/3/1
f 36/3/1 34/3/1 35/3/1
f 39/2/1 38/2/1 37/2/1
f 40/2/1 38/2/1 39/2/1
f 43/3/1 42/3/1 41/3/1
f 44/3/1 42/3/1 43/3/1
f 47/1/1 46/1/1 45/1/1
f 48/1/1 46/1/1 47/1/1
f 52/2/1 50/2/1 49/2/1
f 53/2/1 52/2/1 51/2/1
f 54/2/1 50/2/1 52/2/1
f 54/2/1 52/2/1 53/2/1
f 59/1/1 58/1/1 57/1/1
f 60/1/1 58/1/1 59/1/1
f 61/1/1 56/1/1 55/1/1
f 66/1/1 61/1/1 55/1/1
f 66/1/1 62/1/1 61/1/1
f 67/1/1 62/1/1 66/1/1
f 68/1/1 62/1/1 67/1/1
f 69/1/1 62/1/1 68/1/1
f 73/1/1 64/1/1 63/1/1
f 74/1/1 64/1/1 73/1/1
f 75/1/1 66/1/1 65/1/1
f 75/1/1 67/1/1 66/1/1
f 76/1/1 67/1/1 75/1/1
f 77/1/1 70/1/1 69/1/1
f 77/1/1 69/1/1 68/1/1
f 78/1/1 70/1/1 77/1/1
f 79/1/1 72/1/1 71/1/1
f 80/1/1 72/1/1 79/1/1
f 84/3/1 82/3/1 81/3/1
f 85/3/1 84/3/1 83/3/1
f 86/3/1 82/3/1 84/3/1
f 86/3/1 84/3/1 85/3/1
f 91/1/1 88/1/1 87/1/1
f 92/1/1 88/1/1 91/1/1
f 93/1/1 90/1/1 89/1/1
f 94/1/1 90/1/1 93/1/1
f 97/3/1 96/3/1 95/3/1
f 98/3/1 96/3/1 97/3/1
f 102/3/1 100/3/1 99/3/1
f 103/1/1 101/1/1 100/1/1
f 103/3/1 100/3/1 102/3/1
f 104/1/1 101/1/1 103/1/1
f 109/3/1 106/3/1 105/3/1
f 110/3/1 106/3/1 109/3/1
f 111/1/1 108/1/1 107/1/1
f 112/1/1 108/1/1 111/1/1
f 115/3/1 114/3/1 113/3/1
f 116/3/1 114/3/1 115/3/1
f 119/3/1 118/3/1 117/3/1
f 120/3/1 118/3/1 119/3/1
f 121/1/2 122/1/2 123/1/2
f 123/1/2 122/1/2 124/1/2
f 125/3/2 126/3/2 127/3/2
f 127/3/2 126/3/2 128/3/2
f 129/3/2 130/3/2 131/3/2
f 131/3/2 130/3/2 132/3/2
f 133/1/2 134/1/2 137/1/2
f 137/1/2 134/1/2 138/1/2
f 135/1/2 136/1/2 139/1/2
f 139/1/2 136/1/2 140/1/2
f 141/1/2 142/1/2 143/1/2
f 143/1/2 142/1/2 144/1/2
f 145/3/2 146/3/2 148/3/2
f 147/3/2 148/3/2 149/3/2
f 148/3/2 146/3/2 150/3/2
f 149/3/2 148/3/2 150/3/2
f 153/1/2 154/1/2 155/1/2
f 155/1/2 154/1/2 156/1/2
f 151/1/2 152/1/2 157/1/2
f 157/1/2 152/1/2 158/1/2
f 158/1/2 152/1/2 159/1/2
f 158/1/2 159/1/2 163/1/2
f 159/1/2 160/1/2 163/1/2
f 163/1/2 160/1/2 164/1/2
f 164/1/2 160/1/2 165/1/2
f 161/1/2 162/1/2 168/1/2
f 168/1/2 162/1/2 169/1/2
f 163/1/2 164/1/2 170/1/2
f 170/1/2 164/1/2 171/1/2
f 166/1/2 167/1/2 172/1/2
f 172/1/2 167/1/2 173/1/2
f 174/2/2 175/2/2 176/2/2
f 176/2/2 175/2/2 177/2/2
f 178/1/2 179/1/2 180/1/2
f 180/1/2 179/1/2 181/1/2
f 182/3/2 183/3/2 184/3/2
f 184/3/2 183/3/2 185/3/2
f 186/1/2 187/1/2 188/1/2
f 188/1/2 187/1/2 189/1/2
f 190/3/2 191/3/2 196/3/2
f 196/3/2 191/3/2 197/3/2
f 192/1/2 193/1/2 198/1/2
f 198/1/2 193/1/2 199/1/2
f 194/1/2 195/1/2 200/1/2
f 200/1/2 195/1/2 201/1/2
f 202/2/2 203/2/2 206/2/2
f 206/2/2 203/2/2 207/2/2
f 204/2/2 205/2/2 208/2/2
f 208/2/2 205/2/2 209/2/2
f 210/3/2 211/3/2 214/3/2
f 214/3/2 211/3/2 215/3/2
f 212/1/2 213/1/2 216/1/2
f 216/1/2 213/1/2 217/1/2
f 218/3/2 219/3/2 220/3/2
f 220/3/2 219/3/2 221/3/2
f 222/2/2 223/2/2 224/2/2
f 224/2/2 223/2/2 225/2/2
f 226/2/2 227/2/2 230/2/2
f 228/2/2 229/2/2 231/2/2
f 226/2/2 230/2/2 232/2/2
f 230/2/2 231/2/2 232/2/2
f 231/2/2 229/2/2 233/2/2
f 232/2/2 231/2/2 233/2/2
f 234/3/2 235/3/2 236/3/2
f 236/3/2 235/3/2 237/3/2
f 240/2/3 239/2/3 238/2/3
f 241/2/3 239/2/3 240/2/3
f 244/3/3 243/3/3 242/3/3
f 245/3/3 243/3/3 244/3/3
f 250/1/3 249/1/3 248/1/3
f 251/1/3 249/1/3 250/1/3
f 252/2/3 247/2/3 246/2/3
f 253/2/3 247/2/3 252/2/3
f 256/1/3 255/1/3 254/1/3
f 257/1/3 255/1/3 256/1/3
f 260/3/3 259/3/3 258/3/3
f 261/3/3 259/3/3 260/3/3
f 264/3/3 263/3/3 262/3/3
f 265/3/3 263/3/3 264/3/3
f 268/2/3 267/2/3 266/2/3
f 269/2/3 267/2/3 268/2/3
f 271/2/3 267/2/3 269/2/3
f 272/2/3 271/2/3 270/2/3
f 273/2/3 267/2/3 271/2/3
f 273/2/3 271/2/3 272/2/3
f 276/3/3 275/3/3 274/3/3
f 277/3/3 275/3/3 276/3/3
f 280/3/3 279/3/3 278/3/3
f 281/3/3 279/3/3 280/3/3
f 286/1/3 285/1/3 284/1/3
f 287/1/3 285/1/3 286/1/3
f 288/1/3 283/1/3 282/1/3
f 289/1/3 283/1/3 288/1/3
f 292/1/3 291/1/3 290/1/3
f 293/1/3 291/1/3 292/1/3
f 299/2/3 295/2/3 294/2/3
f 300/1/3 297/1/3 296/1/3
f 301/1/3 297/1/3 300/1/3
f 302/1/3 297/1/3 301/1/3
f 303/1/3 297/1/3 302/1/3
f 304/2/3 299/2/3 298/2/3
f 305/2/3 295/2/3 299/2/3
f 305/2/3 299/2/3 304/2/3
f 310/1/3 309/1/3 308/1/3
f 311/1/3 309/1/3 310/1/3
f 312/1/3 307/1/3 306/1/3
f 313/1/3 307/1/3 312/1/3
f 316/1/3 315/1/3 314/1/3
f 317/1/3 315/1/3 316/1/3
f 320/1/3 316/1/3 314/1/3
f 321/1/3 316/1/3 320/1/3
f 323/3/3 319/3/3 318/3/3
f 324/3/3 323/3/3 322/3/3
f 325/3/3 319/3/3 323/3/3
f 325/3/3 323/3/3 324/3/3
f 328/1/3 327/1/3 326/1/3
f 329/1/3 327/1/3 328/1/3
f 332/1/3 331/1/3 330/1/3
f 333/1/3 331/1/3 332/1/3
f 336/1/3 335/1/3 334/1/3
f 337/1/3 335/1/3 336/1/3
f 340/3/3 339/3/3 338/3/3
f 342/3/3 340/3/3 338/3/3
f 342/3/3 341/3/3 340/3/3
f 343/3/3 341/3/3 342/3/3
f 348/3/3 345/3/3 344/3/3
f 349/3/3 345/3/3 348/3/3
f 350/1/3 347/1/3 346/1/3
f 351/1/3 347/1/3 350/1/3
f 352/1/4 353/1/4 354/1/4
f 354/1/4 353/1/4 355/1/4
f 356/3/4 357/3/4 358/3/4
f 358/3/4 357/3/4 359/3/4
f 360/1/4 361/1/4 362/1/4
f 362/1/4 361/1/4 363/1/4
f 362/3/4 363/3/4 364/3/4
f 364/3/4 363/3/4 365/3/4
f 366/3/4 367/3/4 370/3/4
f 370/3/4 367/3/4 371/3/4
f 368/1/4 369/1/4 372/1/4
f 372/1/4 369/1/4 373/1/4
f 374/1/4 375/1/4 376/1/4
f 376/1/4 375/1/4 377/1/4
f 378/1/4 379/1/4 380/1/4
f 380/1/4 379/1/4 381/1/4
f 382/3/4 383/3/4 384/3/4
f 384/3/4 383/3/4 385/3/4
f 386/1/4 387/1/4 388/1/4
f 386/1/4 388/1/4 391/1/4
f 388/1/4 389/1/4 391/1/4
f 391/1/4 389/1/4 392/1/4
f 390/1/4 391/1/4 392/1/4
f 392/1/4 389/1/4 393/1/4
f 390/1/4 392/1/4 394/1/4
f 394/1/4 392/1/4 395/1/4
f 393/1/4 389/1/4 396/1/4
f 396/1/4 389/1/4 397/1/4
f 398/3/4 399/3/4 401/3/4
f 400/3/4 401/3/4 402/3/4
f 401/3/4 399/3/4 403/3/4
f 402/3/4 401/3/4 403/3/4
f 404/1/4 405/1/4 408/1/4
f 408/1/4 405/1/4 409/1/4
f 409/1/4 405/1/4 410/1/4
f 410/1/4 405/1/4 411/1/4
f 411/1/4 405/1/4 412/1/4
f 412/1/4 405/1/4 413/1/4
f 406/2/4 407/2/4 414/2/4
f 414/2/4 407/2/4 415/2/4
f 416/1/4 417/1/4 418/1/4
f 418/1/4 417/1/4 419/1/4
f 420/1/4 421/1/4 424/1/4
f 424/1/4 421/1/4 425/1/4
f 426/1/4 427/1/4 429/1/4
f 428/1/4 429/1/4 432/1/4
f 429/1/4 427/1/4 433/1/4
f 432/1/4 429/1/4 433/1/4
f 430/1/4 431/1/4 434/1/4
f 434/1/4 431/1/4 435/1/4
f 422/2/4 423/2/4 436/2/4
f 436/2/4 423/2/4 437/2/4
f 438/1/4 439/1/4 440/1/4
f 440/1/4 439/1/4 441/1/4
f 442/2/4 443/2/4 444/2/4
f 444/2/4 443/2/4 445/2/4
f 445/2/4 443/2/4 448/2/4
f 448/2/4 443/2/4 449/2/4
f 446/1/4 447/1/4 452/1/4
f 452/1/4 447/1/4 453/1/4
f 450/2/4 451/2/4 454/2/4
f 454/2/4 451/2/4 455/2/4
f 456/3/4 457/3/4 459/3/4
f 457/3/4 458/3/4 459/3/4
f 459/3/4 458/3/4 460/3/4
f 461/3/4 462/3/4 463/3/4
f 461/3/4 463/3/4 465/3/4
f 463/3/4 464/3/4 465/3/4
f 465/3/4 464/3/4 466/3/4
f 467/2/4 468/2/4 469/2/4
f 467/2/4 469/2/4 471/2/4
f 469/3/4 470/3/4 471/3/4
f 471/3/4 470/3/4 472/3/4
f 467/2/4 471/2/4 473/2/4
f 473/2/4 471/2/4 474/2/4
f 478/1/5 476/1/5 475/1/5
f 480/1/5 478/1/5 477/1/5
f 481/1/5 476/1/5 478/1/5
f 481/1/5 478/1/5 480/1/5
f 483/1/5 480/1/5 479/1/5
f 483/1/5 482/1/5 481/1/5
f 483/1/5 481/1/5 480/1/5
f 484/1/5 482/1/5 483/1/5
f 485/1/5 482/1/5 484/1/5
f 486/1/5 482/1/5 485/1/5
f 487/1/5 485/1/5 484/1/5
f 488/1/5 485/1/5 487/1/5
f 494/1/5 492/1/5 491/1/5
f 495/3/5 490/3/5 489/3/5
f 497/1/5 494/1/5 493/1/5
f 498/1/5 492/1/5 494/1/5
f 498/1/5 494/1/5 497/1/5
f 499/3/5 496/3/5 495/3/5
f 499/3/5 495/3/5 489/3/5
f 500/3/5 496/3/5 499/3/5
f 501/3/5 496/3/5 500/3/5
f 502/1/5 492/1/5 498/1/5
f 503/1/5 500/1/5 499/1/5
f 504/1/5 500/1/5 503/1/5
f 505/3/5 496/3/5 501/3/5
f 506/1/5 504/1/5 503/1/5
f 506/1/5 505/1/5 504/1/5
f 506/1/5 502/1/5 498/1/5
f 506/1/5 503/1/5 502/1/5
f 507/1/5 505/1/5 506/1/5
f 508/3/5 496/3/5 505/3/5
f 508/1/5 505/1/5 507/1/5
f 509/3/5 496/3/5 508/3/5
f 512/1/5 511/1/5 510/1/5
f 513/1/5 511/1/5 512/1/5
f 514/1/5 511/1/5 513/1/5
f 515/1/5 511/1/5 514/1/5
f 518/1/5 514/1/5 513/1/5
f 519/1/5 514/1/5 518/1/5
f 522/1/5 517/1/5 516/1/5
f 523/1/5 517/1/5 522/1/5
f 524/1/5 517/1/5 523/1/5
f 527/1/5 521/1/5 520/1/5
f 528/1/5 525/1/5 524/1/5
f 528/1/5 524/1/5 523/1/5
f 529/1/5 525/1/5 528/1/5
f 530/1/5 527/1/5 526/1/5
f 531/1/5 521/1/5 527/1/5
f 531/1/5 527/1/5 530/1/5
f 532/1/5 528/1/5 523/1/5
f 533/1/5 528/1/5 532/1/5
f 536/1/5 521/1/5 531/1/5
f 538/1/5 536/1/5 531/1/5
f 538/1/5 537/1/5 536/1/5
f 539/1/5 537/1/5 538/1/5
f 540/3/5 535/3/5 534/3/5
f 541/3/5 535/3/5 540/3/5
f 544/2/5 543/2/5 542/2/5
f 545/2/5 543/2/5 544/2/5
f 546/2/5 544/2/5 542/2/5
f 547/2/5 544/2/5 546/2/5
f 548/2/5 546/2/5 542/2/5
f 549/2/5 546/2/5 548/2/5
f 550/2/5 543/2/5 545/2/5
f 551/2/5 543/2/5 550/2/5
f 552/2/5 548/2/5 542/2/5
f 554/2/5 544/2/5 547/2/5
f 557/2/5 554/2/5 547/2/5
f 558/2/5 554/2/5 557/2/5
f 559/2/5 556/2/5 555/2/5
f 560/2/5 556/2/5 559/2/5
f 563/2/5 543/2/5 551/2/5
f 564/2/5 553/2/5 552/2/5
f 564/2/5 552/2/5 542/2/5
f 565/2/5 553/2/5 564/2/5
f 566/2/5 564/2/5 542/2/5
f 570/2/5 562/2/5 561/2/5
f 570/2/5 563/2/5 562/2/5
f 571/2/5 563/2/5 570/2/5
f 572/2/5 567/2/5 566/2/5
f 573/2/5 569/2/5 568/2/5
f 576/2/5 563/2/5 571/2/5
f 577/2/5 543/2/5 563/2/5
f 577/2/5 563/2/5 576/2/5
f 578/2/5 572/2/5 566/2/5
f 578/2/5 573/2/5 572/2/5
f 579/2/5 569/2/5 573/2/5
f 579/2/5 573/2/5 578/2/5
f 581/2/5 543/2/5 577/2/5
f 582/2/5 578/2/5 566/2/5
f 584/2/5 575/2/5 574/2/5
f 585/2/5 581/2/5 580/2/5
f 586/2/5 543/2/5 581/2/5
f 586/2/5 581/2/5 585/2/5
f 587/2/5 543/2/5 586/2/5
f 588/2/5 584/2/5 574/2/5
f 588/2/5 585/2/5 584/2/5
f 588/2/5 586/2/5 585/2/5
f 589/2/5 586/2/5 588/2/5
f 590/2/5 583/2/5 582/2/5
f 591/2/5 586/2/5 589/2/5
f 592/2/5 586/2/5 591/2/5
f 592/2/5 591/2/5 590/2/5
f 594/2/5 590/2/5 582/2/5
f 594/2/5 593/2/5 592/2/5
f 594/2/5 592/2/5 590/2/5
f 594/2/5 566/2/5 542/2/5
f 594/2/5 582/2/5 566/2/5
f 595/2/5 593/2/5 594/2/5
f 596/1/6 597/1/6 598/1/6
f 596/1/6 598/1/6 600/1/6
f 598/1/6 599/1/6 600/1/6
f 600/1/6 599/1/6 601/1/6
f 602/1/6 603/1/6 604/1/6
f 604/1/6 603/1/6 605/1/6
f 606/1/6 607/1/6 609/1/6
f 608/1/6 609/1/6 611/1/6
f 610/1/6 611/1/6 612/1/6
f 609/1/6 607/1/6 613/1/6
f 612/1/6 611/1/6 613/1/6
f 611/1/6 609/1/6 613/1/6
f 614/1/6 615/1/6 616/1/6
f 614/1/6 616/1/6 618/1/6
f 616/1/6 617/1/6 618/1/6
f 618/1/6 617/1/6 619/1/6
f 620/1/6 621/1/6 622/1/6
f 622/1/6 621/1/6 623/1/6
f 624/3/6 625/3/6 626/3/6
f 626/3/6 625/3/6 627/3/6
f 628/2/6 629/2/6 630/2/6
f 630/2/6 629/2/6 631/2/6
f 628/2/6 630/2/6 632/2/6
f 632/2/6 630/2/6 633/2/6
f 634/2/6 635/2/6 636/2/6
f 631/2/6 629/2/6 639/2/6
f 638/2/6 639/2/6 641/2/6
f 636/2/6 637/2/6 642/2/6
f 634/2/6 636/2/6 642/2/6
f 642/2/6 637/2/6 643/2/6
f 640/2/6 641/2/6 644/2/6
f 641/2/6 639/2/6 645/2/6
f 644/2/6 641/2/6 645/2/6
f 639/2/6 629/2/6 645/2/6
f 646/3/6 647/3/6 648/3/6
f 648/3/6 647/3/6 649/3/6
f 650/3/6 651/3/6 652/3/6
f 650/3/6 652/3/6 653/3/6
f 653/3/6 652/3/6 654/3/6
f 655/2/6 656/2/6 657/2/6
f 657/2/6 656/2/6 658/2/6
f 655/2/6 657/2/6 659/2/6
f 659/2/6 657/2/6 660/2/6
f 658/2/6 656/2/6 661/2/6
f 661/2/6 656/2/6 662/2/6
f 662/2/6 656/2/6 663/2/6
f 663/2/6 656/2/6 664/2/6
f 664/2/6 656/2/6 666/2/6
f 655/2/6 659/2/6 667/2/6
f 665/2/6 666/2/6 668/2/6
f 667/2/6 668/2/6 669/2/6
f 669/2/6 668/2/6 670/2/6
f 655/2/6 667/2/6 671/2/6
f 667/2/6 669/2/6 671/2/6
f 671/2/6 669/2/6 672/2/6
f 670/2/6 668/2/6 673/2/6
f 666/2/6 656/2/6 674/2/6
f 673/2/6 668/2/6 674/2/6
f 668/2/6 666/2/6 674/2/6
f 675/3/6 676/3/6 677/3/6
f 677/3/6 676/3/6 678/3/6
f 679/3/6 680/3/6 681/3/6
f 681/3/6 680/3/6 682/3/6
f 683/2/6 684/2/6 685/2/6
f 685/2/6 684/2/6 686/2/6
f 686/2/6 684/2/6 687/2/6
f 687/2/6 684/2/6 688/2/6
f 688/2/6 684/2/6 689/2/6
f 689/2/6 684/2/6 690/2/6
f 683/2/6 685/2/6 691/2/6
f 688/2/6 689/2/6 693/2/6
f 691/2/6 692/2/6 695/2/6
f 693/2/6 694/2/6 696/2/6
f 688/2/6 693/2/6 696/2/6
f 691/2/6 695/2/6 697/2/6
f 695/2/6 696/2/6 697/2/6
f 683/2/6 691/2/6 697/2/6
f 696/2/6 694/2/6 698/2/6
f 697/2/6 696/2/6 698/2/6
f 699/3/6 700/3/6 701/3/6
f 701/3/6 700/3/6 702/3/6
f 699/3/6 701/3/6 705/3/6
f 705/3/6 701/3/6 706/3/6
f 703/3/6 704/3/6 707/3/6
f 707/3/6 704/3/6 708/3/6
f 709/2/6 710/2/6 711/2/6
f 711/2/6 710/2/6 712/2/6
