# MagicaVoxel @ Ephtracy

# group
o 

# material
mtllib Palmier3.mtl
usemtl palette

# normals
vn -1 0 0
vn 1 0 0
vn 0 0 1
vn 0 0 -1
vn 0 -1 0
vn 0 1 0

# texcoords
vt 0.896484 0.5
vt 0.939453 0.5
vt 0.986328 0.5
vt 0.990234 0.5

# verts
v -1 1.2 0.2
v -1 1.2 -0.2
v -1 1.3 0.1
v -1 1.3 0
v -1 1.4 0.1
v -1 1.4 0
v -1 1.6 0.2
v -1 1.6 -0.2
v -0.8 0.8 0.2
v -0.8 0.8 -0.2
v -0.8 1 0.2
v -0.8 1 -0.2
v -0.6 1.3 0.2
v -0.6 1.3 -0.2
v -0.6 1.5 0.2
v -0.6 1.5 -0.1
v -0.6 1.6 -0.1
v -0.6 1.6 -0.2
v -0.5 0.9 0.2
v -0.5 0.9 0.1
v -0.5 1 0.2
v -0.5 1 0.1
v -0.4 1 0.2
v -0.4 1 -0.2
v -0.4 1.2 0.2
v -0.4 1.2 -0.2
v -0.2 0.8 0.8
v -0.2 0.8 0.7
v -0.2 0.9 0.7
v -0.2 0.9 0.5
v -0.2 0.9 -0.3
v -0.2 0.9 -0.8
v -0.2 1 0.8
v -0.2 1 0.5
v -0.2 1 -0.4
v -0.2 1 -0.8
v -0.2 1.1 0.3
v -0.2 1.1 0.2
v -0.2 1.1 -0.2
v -0.2 1.1 -0.3
v -0.2 1.2 1
v -0.2 1.2 0.9
v -0.2 1.2 0.3
v -0.2 1.2 0.2
v -0.2 1.2 -0.2
v -0.2 1.2 -0.4
v -0.2 1.2 -0.9
v -0.2 1.2 -1
v -0.2 1.3 0.6
v -0.2 1.3 0.2
v -0.2 1.3 -0.2
v -0.2 1.3 -0.3
v -0.2 1.3 -0.5
v -0.2 1.3 -0.6
v -0.2 1.4 0.5
v -0.2 1.4 0.2
v -0.2 1.4 -0.2
v -0.2 1.4 -0.3
v -0.2 1.5 0.9
v -0.2 1.5 0.6
v -0.2 1.5 0.2
v -0.2 1.5 -0.2
v -0.2 1.5 -0.6
v -0.2 1.5 -0.9
v -0.2 1.6 1
v -0.2 1.6 0.5
v -0.2 1.6 -0.5
v -0.2 1.6 -1
v -0.1 0 0.1
v -0.1 0 -0.1
v -0.1 0.2 0.1
v -0.1 0.2 -0.1
v -0.1 0.3 0.1
v -0.1 0.3 -0.1
v -0.1 0.7 0.1
v -0.1 0.7 0
v -0.1 0.8 0.1
v -0.1 0.8 0
v -0.1 0.8 -0.7
v -0.1 0.8 -0.8
v -0.1 0.9 0.5
v -0.1 0.9 0.3
v -0.1 0.9 -0.7
v -0.1 0.9 -0.8
v -0.1 1 0.5
v -0.1 1 0.4
v -0.1 1.1 0.3
v -0.1 1.1 0.1
v -0.1 1.1 -0.1
v -0.1 1.2 0.4
v -0.1 1.2 0.3
v -0.1 1.3 -0.3
v -0.1 1.3 -0.5
v -0.1 1.4 -0.3
v -0.1 1.4 -0.5
v 0 0 -0.1
v 0 0 -0.2
v 0 0.2 0.1
v 0 0.2 0
v 0 0.2 -0.1
v 0 0.3 0.1
v 0 0.3 0
v 0 0.3 -0.1
v 0 0.4 -0.1
v 0 0.4 -0.2
v 0.3 0.9 0.2
v 0.3 0.9 -0.2
v 0.3 1.1 0.2
v 0.3 1.1 -0.2
v 0.5 1.4 0.2
v 0.5 1.4 -0.2
v 0.5 1.6 0.2
v 0.5 1.6 -0.2
v 0.7 0.8 0.2
v 0.7 0.8 -0.2
v 0.7 0.9 0.2
v 0.7 0.9 -0.2
v 0.9 1.2 0.1
v 0.9 1.2 -0.1
v 0.9 1.4 -0.1
v 0.9 1.4 -0.2
v 0.9 1.5 0.1
v 0.9 1.5 -0.2
v -0.9 1.2 0.2
v -0.9 1.2 -0.2
v -0.9 1.3 0.1
v -0.9 1.3 0
v -0.9 1.4 0.1
v -0.9 1.4 0
v -0.9 1.5 0.2
v -0.9 1.5 -0.1
v -0.9 1.6 -0.1
v -0.9 1.6 -0.2
v -0.7 0.8 0.2
v -0.7 0.8 -0.2
v -0.7 0.9 0.1
v -0.7 0.9 -0.2
v -0.7 1 0.2
v -0.7 1 0.1
v -0.5 1.4 0.2
v -0.5 1.4 -0.2
v -0.5 1.6 0.2
v -0.5 1.6 -0.2
v -0.3 0.9 0.2
v -0.3 0.9 -0.2
v -0.3 1.1 0.2
v -0.3 1.1 -0.2
v 0 0.7 0.1
v 0 0.7 0
v 0 0.8 0.1
v 0 0.8 0
v 0.1 0 0.1
v 0.1 0 0
v 0.1 0.4 0
v 0.1 0.4 -0.1
v 0.1 0.7 0.1
v 0.1 0.7 0
v 0.1 0.8 0.1
v 0.1 0.8 0
v 0.1 0.9 -0.5
v 0.1 0.9 -0.7
v 0.1 1 -0.5
v 0.1 1 -0.7
v 0.1 1.1 0.1
v 0.1 1.1 -0.1
v 0.1 1.2 1
v 0.1 1.2 0.9
v 0.1 1.4 1
v 0.1 1.4 0.9
v 0.1 1.5 -0.7
v 0.1 1.5 -0.8
v 0.1 1.6 -0.7
v 0.1 1.6 -0.8
v 0.2 0 0
v 0.2 0 -0.2
v 0.2 0.4 0
v 0.2 0.4 -0.2
v 0.2 0.8 0.8
v 0.2 0.8 0.7
v 0.2 0.8 -0.7
v 0.2 0.8 -0.8
v 0.2 0.9 0.7
v 0.2 0.9 0.3
v 0.2 0.9 -0.3
v 0.2 0.9 -0.5
v 0.2 1 0.8
v 0.2 1 0.4
v 0.2 1 -0.4
v 0.2 1 -0.5
v 0.2 1 -0.7
v 0.2 1 -0.8
v 0.2 1.1 0.3
v 0.2 1.1 0.2
v 0.2 1.1 -0.2
v 0.2 1.1 -0.3
v 0.2 1.2 0.4
v 0.2 1.2 0.2
v 0.2 1.2 -0.2
v 0.2 1.2 -0.4
v 0.2 1.2 -0.9
v 0.2 1.2 -1
v 0.2 1.3 0.6
v 0.2 1.3 0.2
v 0.2 1.3 -0.2
v 0.2 1.3 -0.6
v 0.2 1.4 1
v 0.2 1.4 0.9
v 0.2 1.4 0.5
v 0.2 1.4 0.2
v 0.2 1.4 -0.2
v 0.2 1.4 -0.5
v 0.2 1.5 0.9
v 0.2 1.5 0.6
v 0.2 1.5 0.2
v 0.2 1.5 -0.2
v 0.2 1.5 -0.6
v 0.2 1.5 -0.7
v 0.2 1.5 -0.8
v 0.2 1.5 -0.9
v 0.2 1.6 1
v 0.2 1.6 0.5
v 0.2 1.6 -0.5
v 0.2 1.6 -0.7
v 0.2 1.6 -0.8
v 0.2 1.6 -1
v 0.4 1 0.2
v 0.4 1 -0.2
v 0.4 1.2 0.2
v 0.4 1.2 -0.2
v 0.6 1.3 0.2
v 0.6 1.3 -0.2
v 0.6 1.5 0.2
v 0.6 1.5 -0.2
v 0.8 0.8 0.2
v 0.8 0.8 -0.2
v 0.8 1 0.2
v 0.8 1 -0.2
v 1 1.2 0.1
v 1 1.2 -0.1
v 1 1.4 -0.1
v 1 1.4 -0.2
v 1 1.5 0.2
v 1 1.5 0.1
v 1 1.6 0.2
v 1 1.6 -0.2
v -0.2 1.2 1
v -0.2 1.6 1
v 0.1 1.2 1
v 0.1 1.4 1
v 0.2 1.4 1
v 0.2 1.6 1
v -0.2 0.8 0.8
v -0.2 1 0.8
v 0.2 0.8 0.8
v 0.2 1 0.8
v -0.2 1.3 0.6
v -0.2 1.5 0.6
v 0.2 1.3 0.6
v 0.2 1.5 0.6
v -0.1 1 0.4
v -0.1 1.2 0.4
v 0.2 1 0.4
v 0.2 1.2 0.4
v -0.2 1.1 0.3
v -0.2 1.2 0.3
v -0.1 1.1 0.3
v -0.1 1.2 0.3
v -1 1.2 0.2
v -1 1.6 0.2
v -0.9 1.2 0.2
v -0.9 1.5 0.2
v -0.8 0.8 0.2
v -0.8 1 0.2
v -0.7 0.8 0.2
v -0.7 1 0.2
v -0.6 1.3 0.2
v -0.6 1.5 0.2
v -0.5 0.9 0.2
v -0.5 1 0.2
v -0.5 1.4 0.2
v -0.5 1.6 0.2
v -0.4 1 0.2
v -0.4 1.2 0.2
v -0.3 0.9 0.2
v -0.3 1.1 0.2
v -0.2 1.1 0.2
v -0.2 1.2 0.2
v -0.2 1.3 0.2
v -0.2 1.4 0.2
v -0.2 1.5 0.2
v 0.2 1.1 0.2
v 0.2 1.2 0.2
v 0.2 1.3 0.2
v 0.2 1.4 0.2
v 0.2 1.5 0.2
v 0.3 0.9 0.2
v 0.3 1.1 0.2
v 0.4 1 0.2
v 0.4 1.2 0.2
v 0.5 1.4 0.2
v 0.5 1.6 0.2
v 0.6 1.3 0.2
v 0.6 1.5 0.2
v 0.7 0.8 0.2
v 0.7 0.9 0.2
v 0.8 0.8 0.2
v 0.8 1 0.2
v 1 1.5 0.2
v 1 1.6 0.2
v -0.7 0.9 0.1
v -0.7 1 0.1
v -0.5 0.9 0.1
v -0.5 1 0.1
v -0.1 0 0.1
v -0.1 0.2 0.1
v -0.1 0.3 0.1
v -0.1 0.7 0.1
v -0.1 0.8 0.1
v -0.1 1.1 0.1
v 0 0.2 0.1
v 0 0.3 0.1
v 0 0.7 0.1
v 0 0.8 0.1
v 0.1 0 0.1
v 0.1 0.7 0.1
v 0.1 0.8 0.1
v 0.1 1.1 0.1
v 0.9 1.2 0.1
v 0.9 1.5 0.1
v 1 1.2 0.1
v 1 1.5 0.1
v -1 1.3 0
v -1 1.4 0
v -0.9 1.3 0
v -0.9 1.4 0
v 0 0.7 0
v 0 0.8 0
v 0.1 0 0
v 0.1 0.4 0
v 0.1 0.7 0
v 0.1 0.8 0
v 0.2 0 0
v 0.2 0.4 0
v -0.2 0.9 -0.3
v -0.2 1.1 -0.3
v 0.2 0.9 -0.3
v 0.2 1.1 -0.3
v -0.2 1.3 -0.5
v -0.2 1.6 -0.5
v -0.1 1.3 -0.5
v -0.1 1.4 -0.5
v 0.2 1.4 -0.5
v 0.2 1.6 -0.5
v -0.1 0.8 -0.7
v -0.1 0.9 -0.7
v 0.1 0.9 -0.7
v 0.1 1 -0.7
v 0.2 0.8 -0.7
v 0.2 1 -0.7
v 0.1 1.5 -0.8
v 0.1 1.6 -0.8
v 0.2 1.5 -0.8
v 0.2 1.6 -0.8
v -0.2 1.2 -0.9
v -0.2 1.5 -0.9
v 0.2 1.2 -0.9
v 0.2 1.5 -0.9
v -0.2 1.2 0.9
v -0.2 1.5 0.9
v 0.1 1.2 0.9
v 0.1 1.4 0.9
v 0.2 1.4 0.9
v 0.2 1.5 0.9
v -0.2 0.8 0.7
v -0.2 0.9 0.7
v 0.2 0.8 0.7
v 0.2 0.9 0.7
v -0.2 0.9 0.5
v -0.2 1 0.5
v -0.2 1.4 0.5
v -0.2 1.6 0.5
v -0.1 0.9 0.5
v -0.1 1 0.5
v 0.2 1.4 0.5
v 0.2 1.6 0.5
v -0.1 0.9 0.3
v -0.1 1.1 0.3
v 0.2 0.9 0.3
v 0.2 1.1 0.3
v -1 1.3 0.1
v -1 1.4 0.1
v -0.9 1.3 0.1
v -0.9 1.4 0.1
v -0.9 1.5 -0.1
v -0.9 1.6 -0.1
v -0.6 1.5 -0.1
v -0.6 1.6 -0.1
v -0.1 0 -0.1
v -0.1 0.2 -0.1
v -0.1 0.3 -0.1
v -0.1 1.1 -0.1
v 0 0 -0.1
v 0 0.2 -0.1
v 0 0.3 -0.1
v 0 0.4 -0.1
v 0.1 0.4 -0.1
v 0.1 1.1 -0.1
v 0.9 1.2 -0.1
v 0.9 1.4 -0.1
v 1 1.2 -0.1
v 1 1.4 -0.1
v -1 1.2 -0.2
v -1 1.6 -0.2
v -0.9 1.2 -0.2
v -0.9 1.6 -0.2
v -0.8 0.8 -0.2
v -0.8 1 -0.2
v -0.7 0.8 -0.2
v -0.7 0.9 -0.2
v -0.6 1.3 -0.2
v -0.6 1.6 -0.2
v -0.5 1.4 -0.2
v -0.5 1.6 -0.2
v -0.4 1 -0.2
v -0.4 1.2 -0.2
v -0.3 0.9 -0.2
v -0.3 1.1 -0.2
v -0.2 1.1 -0.2
v -0.2 1.2 -0.2
v -0.2 1.3 -0.2
v -0.2 1.4 -0.2
v -0.2 1.5 -0.2
v 0 0 -0.2
v 0 0.4 -0.2
v 0.2 0 -0.2
v 0.2 0.4 -0.2
v 0.2 1.1 -0.2
v 0.2 1.2 -0.2
v 0.2 1.3 -0.2
v 0.2 1.4 -0.2
v 0.2 1.5 -0.2
v 0.3 0.9 -0.2
v 0.3 1.1 -0.2
v 0.4 1 -0.2
v 0.4 1.2 -0.2
v 0.5 1.4 -0.2
v 0.5 1.6 -0.2
v 0.6 1.3 -0.2
v 0.6 1.5 -0.2
v 0.7 0.8 -0.2
v 0.7 0.9 -0.2
v 0.8 0.8 -0.2
v 0.8 1 -0.2
v 0.9 1.4 -0.2
v 0.9 1.5 -0.2
v 1 1.4 -0.2
v 1 1.6 -0.2
v -0.2 1.3 -0.3
v -0.2 1.4 -0.3
v -0.1 1.3 -0.3
v -0.1 1.4 -0.3
v -0.2 1 -0.4
v -0.2 1.2 -0.4
v 0.2 1 -0.4
v 0.2 1.2 -0.4
v 0.1 0.9 -0.5
v 0.1 1 -0.5
v 0.2 0.9 -0.5
v 0.2 1 -0.5
v -0.2 1.3 -0.6
v -0.2 1.5 -0.6
v 0.2 1.3 -0.6
v 0.2 1.5 -0.6
v 0.1 1.5 -0.7
v 0.1 1.6 -0.7
v 0.2 1.5 -0.7
v 0.2 1.6 -0.7
v -0.2 0.9 -0.8
v -0.2 1 -0.8
v -0.1 0.8 -0.8
v -0.1 0.9 -0.8
v 0.2 0.8 -0.8
v 0.2 1 -0.8
v -0.2 1.2 -1
v -0.2 1.6 -1
v 0.2 1.2 -1
v 0.2 1.6 -1
v -0.1 0 0.1
v 0.1 0 0.1
v 0.1 0 0
v 0.2 0 0
v -0.1 0 -0.1
v 0 0 -0.1
v 0.1 0 -0.1
v 0 0 -0.2
v 0.2 0 -0.2
v -0.1 0.3 0.1
v 0 0.3 0.1
v 0 0.3 0
v -0.1 0.3 -0.1
v 0 0.3 -0.1
v -0.2 0.8 0.8
v 0.2 0.8 0.8
v -0.2 0.8 0.7
v 0.2 0.8 0.7
v -0.8 0.8 0.2
v -0.7 0.8 0.2
v 0.7 0.8 0.2
v 0.8 0.8 0.2
v 0 0.8 0.1
v 0.1 0.8 0.1
v 0 0.8 0
v 0.1 0.8 0
v -0.8 0.8 -0.2
v -0.7 0.8 -0.2
v 0.7 0.8 -0.2
v 0.8 0.8 -0.2
v -0.1 0.8 -0.7
v 0.2 0.8 -0.7
v -0.1 0.8 -0.8
v 0.2 0.8 -0.8
v -0.2 0.9 0.7
v 0.2 0.9 0.7
v -0.2 0.9 0.5
v -0.1 0.9 0.5
v -0.1 0.9 0.3
v 0.2 0.9 0.3
v -0.5 0.9 0.2
v -0.3 0.9 0.2
v 0.3 0.9 0.2
v 0.7 0.9 0.2
v -0.7 0.9 0.1
v -0.5 0.9 0.1
v -0.7 0.9 -0.2
v -0.3 0.9 -0.2
v 0.3 0.9 -0.2
v 0.7 0.9 -0.2
v -0.2 0.9 -0.3
v 0.2 0.9 -0.3
v 0.1 0.9 -0.5
v 0.2 0.9 -0.5
v -0.1 0.9 -0.7
v 0.1 0.9 -0.7
v -0.2 0.9 -0.8
v -0.1 0.9 -0.8
v -0.2 1.1 0.3
v -0.1 1.1 0.3
v 0.2 1.1 0.3
v -0.3 1.1 0.2
v -0.2 1.1 0.2
v 0.2 1.1 0.2
v 0.3 1.1 0.2
v -0.1 1.1 0.1
v 0.1 1.1 0.1
v -0.1 1.1 -0.1
v 0.1 1.1 -0.1
v -0.3 1.1 -0.2
v -0.2 1.1 -0.2
v 0.2 1.1 -0.2
v 0.3 1.1 -0.2
v -0.2 1.1 -0.3
v 0.2 1.1 -0.3
v -0.2 1.2 1
v 0.1 1.2 1
v -0.2 1.2 0.9
v 0.1 1.2 0.9
v -1 1.2 0.2
v -0.9 1.2 0.2
v 0.9 1.2 0.1
v 1 1.2 0.1
v 0.9 1.2 -0.1
v 1 1.2 -0.1
v -1 1.2 -0.2
v -0.9 1.2 -0.2
v -0.2 1.2 -0.9
v 0.2 1.2 -0.9
v -0.2 1.2 -1
v 0.2 1.2 -1
v -0.2 1.3 0.6
v 0.2 1.3 0.6
v -0.6 1.3 0.2
v -0.2 1.3 0.2
v 0.2 1.3 0.2
v 0.6 1.3 0.2
v -0.6 1.3 -0.2
v -0.2 1.3 -0.2
v 0.2 1.3 -0.2
v 0.6 1.3 -0.2
v -0.2 1.3 -0.3
v -0.1 1.3 -0.3
v -0.2 1.3 -0.5
v -0.1 1.3 -0.5
v -0.2 1.3 -0.6
v 0.2 1.3 -0.6
v 0.1 1.4 1
v 0.2 1.4 1
v 0.1 1.4 0.9
v 0.2 1.4 0.9
v -1 1.4 0.1
v -0.9 1.4 0.1
v -1 1.4 0
v -0.9 1.4 0
v 0.9 1.4 -0.1
v 1 1.4 -0.1
v 0.9 1.4 -0.2
v 1 1.4 -0.2
v -0.2 1.5 0.9
v 0.2 1.5 0.9
v -0.2 1.5 0.6
v 0.2 1.5 0.6
v -0.9 1.5 0.2
v -0.6 1.5 0.2
v 0.6 1.5 0.2
v 1 1.5 0.2
v 0.9 1.5 0.1
v 1 1.5 0.1
v -0.9 1.5 -0.1
v -0.6 1.5 -0.1
v 0.6 1.5 -0.2
v 0.9 1.5 -0.2
v -0.2 1.5 -0.6
v 0.2 1.5 -0.6
v 0.1 1.5 -0.7
v 0.2 1.5 -0.7
v 0.1 1.5 -0.8
v 0.2 1.5 -0.8
v -0.2 1.5 -0.9
v 0.2 1.5 -0.9
v -0.1 0.2 0.1
v 0 0.2 0.1
v 0 0.2 0
v -0.1 0.2 -0.1
v 0 0.2 -0.1
v 0.1 0.4 0
v 0.2 0.4 0
v 0 0.4 -0.1
v 0.1 0.4 -0.1
v 0 0.4 -0.2
v 0.2 0.4 -0.2
v 0 0.7 0.1
v 0.1 0.7 0.1
v 0 0.7 0
v 0.1 0.7 0
v -0.2 1 0.8
v 0.2 1 0.8
v -0.2 1 0.5
v -0.1 1 0.5
v -0.1 1 0.4
v 0.2 1 0.4
v -0.8 1 0.2
v -0.7 1 0.2
v -0.5 1 0.2
v -0.4 1 0.2
v 0.4 1 0.2
v 0.8 1 0.2
v -0.7 1 0.1
v -0.5 1 0.1
v -0.8 1 -0.2
v -0.4 1 -0.2
v 0.4 1 -0.2
v 0.8 1 -0.2
v -0.2 1 -0.4
v 0.2 1 -0.4
v 0.1 1 -0.5
v 0.2 1 -0.5
v 0.1 1 -0.7
v 0.2 1 -0.7
v -0.2 1 -0.8
v 0.2 1 -0.8
v -0.1 1.2 0.4
v 0.2 1.2 0.4
v -0.2 1.2 0.3
v -0.1 1.2 0.3
v -0.4 1.2 0.2
v -0.2 1.2 0.2
v 0.2 1.2 0.2
v 0.4 1.2 0.2
v -0.4 1.2 -0.2
v -0.2 1.2 -0.2
v 0.2 1.2 -0.2
v 0.4 1.2 -0.2
v -0.2 1.2 -0.4
v 0.2 1.2 -0.4
v -1 1.3 0.1
v -0.9 1.3 0.1
v -1 1.3 0
v -0.9 1.3 0
v -0.2 1.4 0.5
v 0.2 1.4 0.5
v -0.5 1.4 0.2
v -0.2 1.4 0.2
v 0.2 1.4 0.2
v 0.5 1.4 0.2
v -0.5 1.4 -0.2
v -0.2 1.4 -0.2
v 0.2 1.4 -0.2
v 0.5 1.4 -0.2
v -0.2 1.4 -0.3
v -0.1 1.4 -0.3
v -0.1 1.4 -0.5
v 0.2 1.4 -0.5
v -0.2 1.5 0.2
v 0.2 1.5 0.2
v -0.2 1.5 -0.2
v 0.2 1.5 -0.2
v -0.2 1.6 1
v 0.2 1.6 1
v -0.2 1.6 0.5
v 0.2 1.6 0.5
v -1 1.6 0.2
v -0.5 1.6 0.2
v 0.5 1.6 0.2
v 1 1.6 0.2
v -0.9 1.6 -0.1
v -0.6 1.6 -0.1
v -1 1.6 -0.2
v -0.9 1.6 -0.2
v -0.6 1.6 -0.2
v -0.5 1.6 -0.2
v 0.5 1.6 -0.2
v 1 1.6 -0.2
v -0.2 1.6 -0.5
v 0.2 1.6 -0.5
v 0.1 1.6 -0.7
v 0.2 1.6 -0.7
v 0.1 1.6 -0.8
v 0.2 1.6 -0.8
v -0.2 1.6 -1
v 0.2 1.6 -1

# faces
f 3/3/1 2/3/1 1/3/1
f 4/3/1 2/3/1 3/3/1
f 5/3/1 3/3/1 1/3/1
f 6/3/1 2/3/1 4/3/1
f 7/3/1 5/3/1 1/3/1
f 7/3/1 6/3/1 5/3/1
f 8/3/1 2/3/1 6/3/1
f 8/3/1 6/3/1 7/3/1
f 11/4/1 10/4/1 9/4/1
f 12/4/1 10/4/1 11/4/1
f 15/3/1 14/3/1 13/3/1
f 16/3/1 14/3/1 15/3/1
f 17/3/1 14/3/1 16/3/1
f 18/3/1 14/3/1 17/3/1
f 21/4/1 20/4/1 19/4/1
f 22/4/1 20/4/1 21/4/1
f 25/4/1 24/4/1 23/4/1
f 26/4/1 24/4/1 25/4/1
f 29/4/1 28/4/1 27/4/1
f 33/4/1 29/4/1 27/4/1
f 33/4/1 30/4/1 29/4/1
f 34/4/1 30/4/1 33/4/1
f 35/3/1 32/3/1 31/3/1
f 36/3/1 32/3/1 35/3/1
f 40/3/1 35/3/1 31/3/1
f 43/4/1 38/4/1 37/4/1
f 44/4/1 38/4/1 43/4/1
f 45/3/1 40/3/1 39/3/1
f 46/3/1 35/3/1 40/3/1
f 46/3/1 40/3/1 45/3/1
f 50/4/1 45/4/1 44/4/1
f 51/4/1 45/4/1 50/4/1
f 55/4/1 50/4/1 49/4/1
f 56/4/1 50/4/1 55/4/1
f 57/4/1 52/4/1 51/4/1
f 58/4/1 52/4/1 57/4/1
f 59/4/1 42/4/1 41/4/1
f 60/4/1 55/4/1 49/4/1
f 61/4/1 57/4/1 56/4/1
f 62/4/1 57/4/1 61/4/1
f 63/4/1 54/4/1 53/4/1
f 64/4/1 48/4/1 47/4/1
f 65/4/1 60/4/1 59/4/1
f 65/4/1 59/4/1 41/4/1
f 66/4/1 55/4/1 60/4/1
f 66/4/1 60/4/1 65/4/1
f 67/4/1 63/4/1 53/4/1
f 67/4/1 64/4/1 63/4/1
f 68/4/1 48/4/1 64/4/1
f 68/4/1 64/4/1 67/4/1
f 71/2/1 70/2/1 69/2/1
f 72/2/1 70/2/1 71/2/1
f 75/2/1 74/2/1 73/2/1
f 76/2/1 74/2/1 75/2/1
f 77/1/1 76/1/1 75/1/1
f 78/2/1 74/2/1 76/2/1
f 78/1/1 76/1/1 77/1/1
f 83/3/1 80/3/1 79/3/1
f 84/3/1 80/3/1 83/3/1
f 85/4/1 82/4/1 81/4/1
f 86/4/1 82/4/1 85/4/1
f 87/4/1 82/4/1 86/4/1
f 88/2/1 78/2/1 77/2/1
f 89/2/1 74/2/1 78/2/1
f 89/2/1 78/2/1 88/2/1
f 90/4/1 87/4/1 86/4/1
f 91/4/1 87/4/1 90/4/1
f 94/4/1 93/4/1 92/4/1
f 95/4/1 93/4/1 94/4/1
f 100/1/1 97/1/1 96/1/1
f 101/2/1 99/2/1 98/2/1
f 102/1/1 100/1/1 99/1/1
f 102/2/1 99/2/1 101/2/1
f 103/1/1 97/1/1 100/1/1
f 103/1/1 100/1/1 102/1/1
f 104/1/1 97/1/1 103/1/1
f 105/1/1 97/1/1 104/1/1
f 108/3/1 107/3/1 106/3/1
f 109/3/1 107/3/1 108/3/1
f 112/4/1 111/4/1 110/4/1
f 113/4/1 111/4/1 112/4/1
f 116/3/1 115/3/1 114/3/1
f 117/3/1 115/3/1 116/3/1
f 120/4/1 119/4/1 118/4/1
f 122/4/1 120/4/1 118/4/1
f 122/4/1 121/4/1 120/4/1
f 123/4/1 121/4/1 122/4/1
f 124/3/2 125/3/2 126/3/2
f 126/3/2 125/3/2 127/3/2
f 124/3/2 126/3/2 128/3/2
f 127/3/2 125/3/2 129/3/2
f 124/3/2 128/3/2 130/3/2
f 128/3/2 129/3/2 130/3/2
f 129/3/2 125/3/2 131/3/2
f 130/3/2 129/3/2 131/3/2
f 131/3/2 125/3/2 132/3/2
f 132/3/2 125/3/2 133/3/2
f 134/4/2 135/4/2 136/4/2
f 136/4/2 135/4/2 137/4/2
f 134/4/2 136/4/2 138/4/2
f 138/4/2 136/4/2 139/4/2
f 140/3/2 141/3/2 142/3/2
f 142/3/2 141/3/2 143/3/2
f 144/4/2 145/4/2 146/4/2
f 146/4/2 145/4/2 147/4/2
f 148/1/2 149/1/2 150/1/2
f 150/1/2 149/1/2 151/1/2
f 152/2/2 153/2/2 154/2/2
f 152/2/2 154/2/2 156/2/2
f 154/2/2 155/2/2 156/2/2
f 156/2/2 155/2/2 157/2/2
f 157/2/2 155/2/2 159/2/2
f 160/3/2 161/3/2 162/3/2
f 162/3/2 161/3/2 163/3/2
f 158/2/2 159/2/2 164/2/2
f 159/2/2 155/2/2 165/2/2
f 164/2/2 159/2/2 165/2/2
f 166/4/2 167/4/2 168/4/2
f 168/4/2 167/4/2 169/4/2
f 170/4/2 171/4/2 172/4/2
f 172/4/2 171/4/2 173/4/2
f 174/1/2 175/1/2 176/1/2
f 176/1/2 175/1/2 177/1/2
f 178/4/2 179/4/2 182/4/2
f 178/4/2 182/4/2 186/4/2
f 182/4/2 183/4/2 186/4/2
f 186/4/2 183/4/2 187/4/2
f 184/3/2 185/3/2 188/3/2
f 188/3/2 185/3/2 189/3/2
f 180/3/2 181/3/2 190/3/2
f 190/3/2 181/3/2 191/3/2
f 187/4/2 183/4/2 192/4/2
f 184/3/2 188/3/2 195/3/2
f 192/4/2 193/4/2 196/4/2
f 187/4/2 192/4/2 196/4/2
f 196/4/2 193/4/2 197/4/2
f 194/3/2 195/3/2 198/3/2
f 195/3/2 188/3/2 199/3/2
f 198/3/2 195/3/2 199/3/2
f 197/4/2 198/4/2 203/4/2
f 203/4/2 198/4/2 204/4/2
f 202/4/2 203/4/2 208/4/2
f 208/4/2 203/4/2 209/4/2
f 204/4/2 205/4/2 210/4/2
f 210/4/2 205/4/2 211/4/2
f 206/4/2 207/4/2 212/4/2
f 202/4/2 208/4/2 213/4/2
f 209/4/2 210/4/2 214/4/2
f 214/4/2 210/4/2 215/4/2
f 211/4/2 205/4/2 216/4/2
f 200/4/2 201/4/2 219/4/2
f 212/4/2 213/4/2 220/4/2
f 206/4/2 212/4/2 220/4/2
f 213/4/2 208/4/2 221/4/2
f 220/4/2 213/4/2 221/4/2
f 216/4/2 217/4/2 222/4/2
f 211/4/2 216/4/2 222/4/2
f 222/4/2 217/4/2 223/4/2
f 218/4/2 219/4/2 224/4/2
f 219/4/2 201/4/2 225/4/2
f 224/4/2 219/4/2 225/4/2
f 226/3/2 227/3/2 228/3/2
f 228/3/2 227/3/2 229/3/2
f 230/4/2 231/4/2 232/4/2
f 232/4/2 231/4/2 233/4/2
f 234/3/2 235/3/2 236/3/2
f 236/3/2 235/3/2 237/3/2
f 238/4/2 239/4/2 240/4/2
f 238/4/2 240/4/2 243/4/2
f 240/4/2 241/4/2 243/4/2
f 242/4/2 243/4/2 244/4/2
f 243/4/2 241/4/2 245/4/2
f 244/4/2 243/4/2 245/4/2
f 248/4/3 247/4/3 246/4/3
f 249/4/3 247/4/3 248/4/3
f 250/4/3 247/4/3 249/4/3
f 251/4/3 247/4/3 250/4/3
f 254/4/3 253/4/3 252/4/3
f 255/4/3 253/4/3 254/4/3
f 258/4/3 257/4/3 256/4/3
f 259/4/3 257/4/3 258/4/3
f 262/4/3 261/4/3 260/4/3
f 263/4/3 261/4/3 262/4/3
f 266/4/3 265/4/3 264/4/3
f 267/4/3 265/4/3 266/4/3
f 270/3/3 269/3/3 268/3/3
f 271/3/3 269/3/3 270/3/3
f 274/4/3 273/4/3 272/4/3
f 275/4/3 273/4/3 274/4/3
f 277/3/3 269/3/3 271/3/3
f 280/3/3 277/3/3 276/3/3
f 281/3/3 269/3/3 277/3/3
f 281/3/3 277/3/3 280/3/3
f 282/4/3 279/4/3 278/4/3
f 284/4/3 282/4/3 278/4/3
f 284/4/3 283/4/3 282/4/3
f 285/4/3 283/4/3 284/4/3
f 286/4/3 283/4/3 285/4/3
f 287/4/3 283/4/3 286/4/3
f 288/3/3 280/3/3 276/3/3
f 289/3/3 280/3/3 288/3/3
f 292/4/3 288/4/3 287/4/3
f 293/4/3 288/4/3 292/4/3
f 294/4/3 290/4/3 289/4/3
f 295/4/3 290/4/3 294/4/3
f 297/3/3 292/3/3 291/3/3
f 298/3/3 297/3/3 296/3/3
f 299/3/3 292/3/3 297/3/3
f 299/3/3 297/3/3 298/3/3
f 300/4/3 294/4/3 293/4/3
f 302/4/3 300/4/3 293/4/3
f 302/4/3 301/4/3 300/4/3
f 303/4/3 301/4/3 302/4/3
f 305/3/3 298/3/3 296/3/3
f 306/3/3 305/3/3 304/3/3
f 307/3/3 298/3/3 305/3/3
f 307/3/3 305/3/3 306/3/3
f 308/4/3 301/4/3 303/4/3
f 309/4/3 301/4/3 308/4/3
f 312/4/3 311/4/3 310/4/3
f 313/4/3 311/4/3 312/4/3
f 320/2/3 315/2/3 314/2/3
f 321/2/3 317/2/3 316/2/3
f 322/1/3 318/1/3 317/1/3
f 322/2/3 317/2/3 321/2/3
f 323/2/3 319/2/3 318/2/3
f 323/1/3 318/1/3 322/1/3
f 324/2/3 321/2/3 320/2/3
f 324/2/3 322/2/3 321/2/3
f 324/2/3 320/2/3 314/2/3
f 325/2/3 322/2/3 324/2/3
f 326/2/3 319/2/3 323/2/3
f 327/2/3 319/2/3 326/2/3
f 330/4/3 329/4/3 328/4/3
f 331/4/3 329/4/3 330/4/3
f 334/3/3 333/3/3 332/3/3
f 335/3/3 333/3/3 334/3/3
f 340/2/3 337/2/3 336/2/3
f 341/2/3 337/2/3 340/2/3
f 342/1/3 339/1/3 338/1/3
f 343/1/3 339/1/3 342/1/3
f 346/3/3 345/3/3 344/3/3
f 347/3/3 345/3/3 346/3/3
f 350/4/3 349/4/3 348/4/3
f 351/4/3 349/4/3 350/4/3
f 352/4/3 349/4/3 351/4/3
f 353/4/3 349/4/3 352/4/3
f 356/3/3 355/3/3 354/3/3
f 358/3/3 356/3/3 354/3/3
f 358/3/3 357/3/3 356/3/3
f 359/3/3 357/3/3 358/3/3
f 362/4/3 361/4/3 360/4/3
f 363/4/3 361/4/3 362/4/3
f 366/4/3 365/4/3 364/4/3
f 367/4/3 365/4/3 366/4/3
f 368/4/4 369/4/4 370/4/4
f 370/4/4 369/4/4 371/4/4
f 371/4/4 369/4/4 372/4/4
f 372/4/4 369/4/4 373/4/4
f 374/4/4 375/4/4 376/4/4
f 376/4/4 375/4/4 377/4/4
f 378/4/4 379/4/4 382/4/4
f 382/4/4 379/4/4 383/4/4
f 380/4/4 381/4/4 384/4/4
f 384/4/4 381/4/4 385/4/4
f 386/4/4 387/4/4 388/4/4
f 388/4/4 387/4/4 389/4/4
f 390/3/4 391/3/4 392/3/4
f 392/3/4 391/3/4 393/3/4
f 394/3/4 395/3/4 396/3/4
f 396/3/4 395/3/4 397/3/4
f 398/2/4 399/2/4 402/2/4
f 402/2/4 399/2/4 403/2/4
f 400/2/4 401/2/4 404/2/4
f 404/2/4 401/2/4 405/2/4
f 405/2/4 401/2/4 406/2/4
f 406/2/4 401/2/4 407/2/4
f 408/4/4 409/4/4 410/4/4
f 410/4/4 409/4/4 411/4/4
f 412/3/4 413/3/4 414/3/4
f 414/3/4 413/3/4 415/3/4
f 416/4/4 417/4/4 418/4/4
f 418/4/4 417/4/4 419/4/4
f 420/3/4 421/3/4 422/3/4
f 422/3/4 421/3/4 423/3/4
f 419/4/4 417/4/4 424/4/4
f 419/4/4 424/4/4 426/4/4
f 424/4/4 425/4/4 426/4/4
f 426/4/4 425/4/4 427/4/4
f 427/4/4 425/4/4 428/4/4
f 428/4/4 425/4/4 429/4/4
f 420/3/4 422/3/4 430/3/4
f 430/3/4 422/3/4 431/3/4
f 433/1/4 434/1/4 435/1/4
f 435/1/4 434/1/4 436/1/4
f 429/4/4 430/4/4 438/4/4
f 438/4/4 430/4/4 439/4/4
f 431/4/4 432/4/4 440/4/4
f 440/4/4 432/4/4 441/4/4
f 437/3/4 438/3/4 443/3/4
f 442/3/4 443/3/4 444/3/4
f 443/3/4 438/3/4 445/3/4
f 444/3/4 443/3/4 445/3/4
f 439/4/4 440/4/4 446/4/4
f 439/4/4 446/4/4 448/4/4
f 446/4/4 447/4/4 448/4/4
f 448/4/4 447/4/4 449/4/4
f 442/3/4 444/3/4 451/3/4
f 450/3/4 451/3/4 452/3/4
f 451/3/4 444/3/4 453/3/4
f 452/3/4 451/3/4 453/3/4
f 449/4/4 447/4/4 455/4/4
f 454/4/4 455/4/4 456/4/4
f 455/4/4 447/4/4 457/4/4
f 456/4/4 455/4/4 457/4/4
f 458/4/4 459/4/4 460/4/4
f 460/4/4 459/4/4 461/4/4
f 462/3/4 463/3/4 464/3/4
f 464/3/4 463/3/4 465/3/4
f 466/3/4 467/3/4 468/3/4
f 468/3/4 467/3/4 469/3/4
f 470/4/4 471/4/4 472/4/4
f 472/4/4 471/4/4 473/4/4
f 474/4/4 475/4/4 476/4/4
f 476/4/4 475/4/4 477/4/4
f 478/3/4 479/3/4 481/3/4
f 480/3/4 481/3/4 482/3/4
f 481/3/4 479/3/4 483/3/4
f 482/3/4 481/3/4 483/3/4
f 484/4/4 485/4/4 486/4/4
f 486/4/4 485/4/4 487/4/4
f 490/2/5 489/2/5 488/2/5
f 492/2/5 490/2/5 488/2/5
f 493/2/5 490/2/5 492/2/5
f 494/1/5 491/1/5 490/1/5
f 494/2/5 490/2/5 493/2/5
f 495/1/5 494/1/5 493/1/5
f 496/1/5 491/1/5 494/1/5
f 496/1/5 494/1/5 495/1/5
f 499/2/5 498/2/5 497/2/5
f 500/2/5 499/2/5 497/2/5
f 501/2/5 499/2/5 500/2/5
f 504/4/5 503/4/5 502/4/5
f 505/4/5 503/4/5 504/4/5
f 512/2/5 511/2/5 510/2/5
f 513/2/5 511/2/5 512/2/5
f 514/4/5 507/4/5 506/4/5
f 515/4/5 507/4/5 514/4/5
f 516/3/5 509/3/5 508/3/5
f 517/3/5 509/3/5 516/3/5
f 520/3/5 519/3/5 518/3/5
f 521/3/5 519/3/5 520/3/5
f 524/4/5 523/4/5 522/4/5
f 525/4/5 523/4/5 524/4/5
f 526/4/5 523/4/5 525/4/5
f 527/4/5 523/4/5 526/4/5
f 533/4/5 529/4/5 528/4/5
f 534/4/5 533/4/5 532/4/5
f 535/4/5 529/4/5 533/4/5
f 535/4/5 533/4/5 534/4/5
f 536/3/5 531/3/5 530/3/5
f 537/3/5 531/3/5 536/3/5
f 540/3/5 539/3/5 538/3/5
f 541/3/5 539/3/5 540/3/5
f 542/3/5 540/3/5 538/3/5
f 543/3/5 540/3/5 542/3/5
f 544/3/5 542/3/5 538/3/5
f 545/3/5 542/3/5 544/3/5
f 550/4/5 547/4/5 546/4/5
f 550/4/5 548/4/5 547/4/5
f 551/4/5 548/4/5 550/4/5
f 553/4/5 550/4/5 549/4/5
f 553/4/5 551/4/5 550/4/5
f 554/4/5 551/4/5 553/4/5
f 555/4/5 553/4/5 549/4/5
f 556/4/5 551/4/5 554/4/5
f 557/4/5 555/4/5 549/4/5
f 557/4/5 556/4/5 555/4/5
f 558/4/5 556/4/5 557/4/5
f 559/3/5 552/3/5 551/3/5
f 559/4/5 556/4/5 558/4/5
f 559/4/5 551/4/5 556/4/5
f 560/3/5 552/3/5 559/3/5
f 561/3/5 559/3/5 558/3/5
f 562/3/5 559/3/5 561/3/5
f 565/4/5 564/4/5 563/4/5
f 566/4/5 564/4/5 565/4/5
f 571/4/5 570/4/5 569/4/5
f 572/4/5 570/4/5 571/4/5
f 573/3/5 568/3/5 567/3/5
f 574/3/5 568/3/5 573/3/5
f 577/4/5 576/4/5 575/4/5
f 578/4/5 576/4/5 577/4/5
f 582/4/5 580/4/5 579/4/5
f 583/4/5 580/4/5 582/4/5
f 585/3/5 582/3/5 581/3/5
f 586/3/5 582/3/5 585/3/5
f 587/4/5 584/4/5 583/4/5
f 588/4/5 584/4/5 587/4/5
f 589/4/5 587/4/5 586/4/5
f 590/4/5 587/4/5 589/4/5
f 592/4/5 587/4/5 590/4/5
f 593/4/5 592/4/5 591/4/5
f 594/4/5 587/4/5 592/4/5
f 594/4/5 592/4/5 593/4/5
f 597/4/5 596/4/5 595/4/5
f 598/4/5 596/4/5 597/4/5
f 601/3/5 600/3/5 599/3/5
f 602/3/5 600/3/5 601/3/5
f 605/4/5 604/4/5 603/4/5
f 606/4/5 604/4/5 605/4/5
f 609/4/5 608/4/5 607/4/5
f 610/4/5 608/4/5 609/4/5
f 615/4/5 614/4/5 613/4/5
f 616/4/5 614/4/5 615/4/5
f 617/3/5 612/3/5 611/3/5
f 618/3/5 612/3/5 617/3/5
f 619/4/5 615/4/5 613/4/5
f 620/4/5 615/4/5 619/4/5
f 623/4/5 622/4/5 621/4/5
f 624/4/5 622/4/5 623/4/5
f 625/4/5 623/4/5 621/4/5
f 627/4/5 625/4/5 621/4/5
f 627/4/5 626/4/5 625/4/5
f 628/4/5 626/4/5 627/4/5
f 629/2/6 630/2/6 631/2/6
f 629/2/6 631/2/6 632/2/6
f 632/2/6 631/2/6 633/2/6
f 634/1/6 635/1/6 637/1/6
f 636/1/6 637/1/6 638/1/6
f 637/1/6 635/1/6 639/1/6
f 638/1/6 637/1/6 639/1/6
f 640/2/6 641/2/6 642/2/6
f 642/2/6 641/2/6 643/2/6
f 644/4/6 645/4/6 646/4/6
f 646/4/6 645/4/6 647/4/6
f 647/4/6 645/4/6 648/4/6
f 648/4/6 645/4/6 649/4/6
f 650/4/6 651/4/6 656/4/6
f 652/4/6 653/4/6 657/4/6
f 650/4/6 656/4/6 658/4/6
f 656/4/6 657/4/6 658/4/6
f 657/4/6 653/4/6 659/4/6
f 658/4/6 657/4/6 659/4/6
f 654/3/6 655/3/6 660/3/6
f 660/3/6 655/3/6 661/3/6
f 662/3/6 663/3/6 664/3/6
f 664/3/6 663/3/6 665/3/6
f 662/3/6 664/3/6 666/3/6
f 662/3/6 666/3/6 668/3/6
f 666/3/6 667/3/6 668/3/6
f 668/3/6 667/3/6 669/3/6
f 670/4/6 671/4/6 673/4/6
f 672/4/6 673/4/6 675/4/6
f 673/4/6 671/4/6 676/4/6
f 675/4/6 673/4/6 676/4/6
f 674/4/6 675/4/6 678/4/6
f 678/4/6 675/4/6 679/4/6
f 676/3/6 677/3/6 680/3/6
f 680/3/6 677/3/6 681/3/6
f 679/3/6 680/3/6 682/3/6
f 682/3/6 680/3/6 683/3/6
f 684/3/6 685/3/6 686/3/6
f 686/3/6 685/3/6 687/3/6
f 688/4/6 689/4/6 691/4/6
f 691/4/6 689/4/6 692/4/6
f 690/3/6 691/3/6 694/3/6
f 694/3/6 691/3/6 695/3/6
f 692/4/6 693/4/6 696/4/6
f 696/4/6 693/4/6 697/4/6
f 695/4/6 696/4/6 698/4/6
f 698/4/6 696/4/6 699/4/6
f 699/4/6 696/4/6 700/4/6
f 700/4/6 696/4/6 701/4/6
f 702/4/6 703/4/6 704/4/6
f 704/4/6 703/4/6 705/4/6
f 706/4/6 707/4/6 708/4/6
f 708/4/6 707/4/6 709/4/6
f 710/3/6 711/3/6 714/3/6
f 714/3/6 711/3/6 715/3/6
f 710/3/6 714/3/6 716/3/6
f 716/3/6 714/3/6 717/3/6
f 715/3/6 711/3/6 718/3/6
f 718/3/6 711/3/6 719/3/6
f 712/4/6 713/4/6 720/4/6
f 720/4/6 713/4/6 721/4/6
f 722/4/6 723/4/6 724/4/6
f 724/4/6 723/4/6 725/4/6
f 722/4/6 724/4/6 726/4/6
f 722/4/6 726/4/6 728/4/6
f 726/4/6 727/4/6 728/4/6
f 728/4/6 727/4/6 729/4/6
