# MagicaVoxel @ Ephtracy

# group
o 

# material
mtllib Palmier2.mtl
usemtl palette

# normals
vn -1 0 0
vn 1 0 0
vn 0 0 1
vn 0 0 -1
vn 0 -1 0
vn 0 1 0

# texcoords
vt 0.896484 0.5
vt 0.927734 0.5
vt 0.986328 0.5
vt 0.990234 0.5

# verts
v -0.8 0.9 0.2
v -0.8 0.9 -0.2
v -0.8 1.2 -0.1
v -0.8 1.2 -0.2
v -0.8 1.3 -0.1
v -0.8 1.3 -0.2
v -0.8 1.5 0.2
v -0.8 1.5 -0.2
v -0.5 1.4 0.2
v -0.5 1.4 0.1
v -0.5 1.5 0.2
v -0.5 1.5 0.1
v -0.4 1.5 0.2
v -0.4 1.5 -0.2
v -0.4 1.7 0.2
v -0.4 1.7 -0.2
v -0.2 0 -0.1
v -0.2 0 -0.3
v -0.2 0.7 -0.1
v -0.2 0.7 -0.3
v -0.1 0.5 0
v -0.1 0.5 -0.1
v -0.1 0.7 -0.1
v -0.1 0.7 -0.2
v -0.1 0.9 0.9
v -0.1 0.9 0.8
v -0.1 1.1 -0.8
v -0.1 1.1 -0.9
v -0.1 1.2 0
v -0.1 1.2 -0.2
v -0.1 1.4 0.6
v -0.1 1.4 0.4
v -0.1 1.4 -0.4
v -0.1 1.4 -0.5
v -0.1 1.4 -0.7
v -0.1 1.4 -0.8
v -0.1 1.5 0.9
v -0.1 1.5 0.8
v -0.1 1.5 0.6
v -0.1 1.5 0.5
v -0.1 1.5 -0.7
v -0.1 1.5 -0.9
v -0.1 1.6 0.4
v -0.1 1.6 0.2
v -0.1 1.6 -0.2
v -0.1 1.6 -0.4
v -0.1 1.7 0.5
v -0.1 1.7 0.2
v -0.1 1.7 -0.2
v -0.1 1.7 -0.5
v -0.1 1.8 0.2
v -0.1 1.8 -0.2
v 5.96046e-08 0.9 0.1
v 5.96046e-08 0.9 0
v 5.96046e-08 0.9 -0.8
v 5.96046e-08 0.9 -0.9
v 5.96046e-08 1.1 -0.8
v 5.96046e-08 1.1 -0.9
v 5.96046e-08 1.2 0
v 5.96046e-08 1.2 -0.1
v 5.96046e-08 1.4 0.8
v 5.96046e-08 1.4 0.6
v 5.96046e-08 1.4 -0.5
v 5.96046e-08 1.4 -0.7
v 5.96046e-08 1.5 0.8
v 5.96046e-08 1.5 0.6
v 5.96046e-08 1.5 -0.5
v 5.96046e-08 1.5 -0.7
v 5.96046e-08 1.6 0.1
v 5.96046e-08 1.6 -0.1
v 0.5 1.4 0.2
v 0.5 1.4 -0.2
v 0.5 1.6 0.2
v 0.5 1.6 -0.2
v 0.9 0.9 0.2
v 0.9 0.9 -0.2
v 0.9 1 0.2
v 0.9 1 0.1
v 0.9 1.2 0.2
v 0.9 1.2 0.1
v 0.9 1.4 0.1
v 0.9 1.4 -0.2
v 0.9 1.5 0.2
v 0.9 1.5 0.1
v -0.7 0.9 0.2
v -0.7 0.9 -0.2
v -0.7 1.2 -0.1
v -0.7 1.2 -0.2
v -0.7 1.3 -0.1
v -0.7 1.3 -0.2
v -0.7 1.4 0.1
v -0.7 1.4 -0.2
v -0.7 1.5 0.2
v -0.7 1.5 0.1
v -0.3 1.4 0.2
v -0.3 1.4 -0.2
v -0.3 1.6 0.2
v -0.3 1.6 -0.2
v 5.96046e-08 0 -0.1
v 5.96046e-08 0 -0.3
v 5.96046e-08 0.5 -0.1
v 5.96046e-08 0.5 -0.2
v 5.96046e-08 0.7 -0.2
v 5.96046e-08 0.7 -0.3
v 0.1 0.5 0
v 0.1 0.5 -0.2
v 0.1 0.9 0
v 0.1 0.9 -0.1
v 0.1 1.2 -0.1
v 0.1 1.2 -0.2
v 0.2 0.9 0.9
v 0.2 0.9 0.8
v 0.2 0.9 0.1
v 0.2 0.9 -0.1
v 0.2 0.9 -0.8
v 0.2 0.9 -0.9
v 0.2 1.1 0.9
v 0.2 1.1 0.8
v 0.2 1.1 -0.8
v 0.2 1.1 -0.9
v 0.2 1.6 0.4
v 0.2 1.6 0.3
v 0.2 1.6 0.1
v 0.2 1.6 -0.1
v 0.2 1.6 -0.2
v 0.2 1.6 -0.4
v 0.2 1.7 0.4
v 0.2 1.7 0.3
v 0.2 1.7 -0.2
v 0.2 1.7 -0.4
v 0.3 1.1 0.9
v 0.3 1.1 0.8
v 0.3 1.1 -0.8
v 0.3 1.1 -0.9
v 0.3 1.4 0.8
v 0.3 1.4 0.4
v 0.3 1.4 -0.4
v 0.3 1.4 -0.8
v 0.3 1.5 0.9
v 0.3 1.5 0.5
v 0.3 1.5 -0.5
v 0.3 1.5 -0.9
v 0.3 1.6 0.3
v 0.3 1.6 0.2
v 0.3 1.7 0.5
v 0.3 1.7 0.4
v 0.3 1.7 0.3
v 0.3 1.7 0.2
v 0.3 1.7 -0.2
v 0.3 1.7 -0.4
v 0.3 1.7 -0.5
v 0.3 1.8 0.2
v 0.3 1.8 -0.2
v 0.6 1.5 0.2
v 0.6 1.5 -0.2
v 0.6 1.7 0.2
v 0.6 1.7 -0.2
v 0.7 1.4 0.2
v 0.7 1.4 0.1
v 0.7 1.5 0.2
v 0.7 1.5 0.1
v 1 0.9 0.2
v 1 0.9 -0.2
v 1 1 0.2
v 1 1 0.1
v 1 1.2 0.2
v 1 1.2 0.1
v 1 1.5 0.2
v 1 1.5 -0.2
v -0.1 0.9 0.9
v -0.1 1.5 0.9
v 0.2 0.9 0.9
v 0.2 1.1 0.9
v 0.3 1.1 0.9
v 0.3 1.5 0.9
v -0.1 1.4 0.6
v -0.1 1.5 0.6
v 5.96046e-08 1.4 0.6
v 5.96046e-08 1.5 0.6
v -0.1 1.5 0.5
v -0.1 1.7 0.5
v 0.3 1.5 0.5
v 0.3 1.7 0.5
v 0.2 1.6 0.3
v 0.2 1.7 0.3
v 0.3 1.6 0.3
v 0.3 1.7 0.3
v -0.8 0.9 0.2
v -0.8 1.5 0.2
v -0.7 0.9 0.2
v -0.7 1.5 0.2
v -0.5 1.4 0.2
v -0.5 1.5 0.2
v -0.4 1.5 0.2
v -0.4 1.7 0.2
v -0.3 1.4 0.2
v -0.3 1.6 0.2
v -0.1 1.6 0.2
v -0.1 1.7 0.2
v -0.1 1.8 0.2
v 0.3 1.6 0.2
v 0.3 1.7 0.2
v 0.3 1.8 0.2
v 0.5 1.4 0.2
v 0.5 1.6 0.2
v 0.6 1.5 0.2
v 0.6 1.7 0.2
v 0.7 1.4 0.2
v 0.7 1.5 0.2
v 0.9 0.9 0.2
v 0.9 1 0.2
v 0.9 1.2 0.2
v 0.9 1.5 0.2
v 1 0.9 0.2
v 1 1 0.2
v 1 1.2 0.2
v 1 1.5 0.2
v -0.7 1.4 0.1
v -0.7 1.5 0.1
v -0.5 1.4 0.1
v -0.5 1.5 0.1
v 5.96046e-08 0.9 0.1
v 5.96046e-08 1.6 0.1
v 0.2 0.9 0.1
v 0.2 1.6 0.1
v 0.7 1.4 0.1
v 0.7 1.5 0.1
v 0.9 1 0.1
v 0.9 1.2 0.1
v 0.9 1.4 0.1
v 0.9 1.5 0.1
v 1 1 0.1
v 1 1.2 0.1
v -0.1 0.5 0
v -0.1 1.2 0
v 5.96046e-08 0.9 0
v 5.96046e-08 1.2 0
v 0.1 0.5 0
v 0.1 0.9 0
v -0.2 0 -0.1
v -0.2 0.7 -0.1
v -0.1 0.5 -0.1
v -0.1 0.7 -0.1
v 5.96046e-08 0 -0.1
v 5.96046e-08 0.5 -0.1
v -0.1 1.4 -0.4
v -0.1 1.6 -0.4
v 0.2 1.6 -0.4
v 0.2 1.7 -0.4
v 0.3 1.4 -0.4
v 0.3 1.7 -0.4
v -0.1 1.4 -0.7
v -0.1 1.5 -0.7
v 5.96046e-08 1.4 -0.7
v 5.96046e-08 1.5 -0.7
v -0.1 1.1 -0.8
v -0.1 1.4 -0.8
v 5.96046e-08 0.9 -0.8
v 5.96046e-08 1.1 -0.8
v 0.2 0.9 -0.8
v 0.2 1.1 -0.8
v 0.3 1.1 -0.8
v 0.3 1.4 -0.8
v -0.1 0.9 0.8
v -0.1 1.5 0.8
v 5.96046e-08 1.4 0.8
v 5.96046e-08 1.5 0.8
v 0.2 0.9 0.8
v 0.2 1.1 0.8
v 0.3 1.1 0.8
v 0.3 1.4 0.8
v -0.1 1.4 0.4
v -0.1 1.6 0.4
v 0.2 1.6 0.4
v 0.2 1.7 0.4
v 0.3 1.4 0.4
v 0.3 1.7 0.4
v -0.8 1.2 -0.1
v -0.8 1.3 -0.1
v -0.7 1.2 -0.1
v -0.7 1.3 -0.1
v 5.96046e-08 1.2 -0.1
v 5.96046e-08 1.6 -0.1
v 0.1 0.9 -0.1
v 0.1 1.2 -0.1
v 0.2 0.9 -0.1
v 0.2 1.6 -0.1
v -0.8 0.9 -0.2
v -0.8 1.2 -0.2
v -0.8 1.3 -0.2
v -0.8 1.5 -0.2
v -0.7 0.9 -0.2
v -0.7 1.2 -0.2
v -0.7 1.3 -0.2
v -0.7 1.4 -0.2
v -0.4 1.5 -0.2
v -0.4 1.7 -0.2
v -0.3 1.4 -0.2
v -0.3 1.6 -0.2
v -0.1 0.7 -0.2
v -0.1 1.2 -0.2
v -0.1 1.6 -0.2
v -0.1 1.7 -0.2
v -0.1 1.8 -0.2
v 5.96046e-08 0.5 -0.2
v 5.96046e-08 0.7 -0.2
v 0.1 0.5 -0.2
v 0.1 1.2 -0.2
v 0.2 1.6 -0.2
v 0.2 1.7 -0.2
v 0.3 1.7 -0.2
v 0.3 1.8 -0.2
v 0.5 1.4 -0.2
v 0.5 1.6 -0.2
v 0.6 1.5 -0.2
v 0.6 1.7 -0.2
v 0.9 0.9 -0.2
v 0.9 1.4 -0.2
v 1 0.9 -0.2
v 1 1.5 -0.2
v -0.2 0 -0.3
v -0.2 0.7 -0.3
v 5.96046e-08 0 -0.3
v 5.96046e-08 0.7 -0.3
v -0.1 1.4 -0.5
v -0.1 1.7 -0.5
v 5.96046e-08 1.4 -0.5
v 5.96046e-08 1.5 -0.5
v 0.3 1.5 -0.5
v 0.3 1.7 -0.5
v -0.1 1.1 -0.9
v -0.1 1.5 -0.9
v 5.96046e-08 0.9 -0.9
v 5.96046e-08 1.1 -0.9
v 0.2 0.9 -0.9
v 0.2 1.1 -0.9
v 0.3 1.1 -0.9
v 0.3 1.5 -0.9
v -0.2 0 -0.1
v 5.96046e-08 0 -0.1
v -0.2 0 -0.3
v 5.96046e-08 0 -0.3
v -0.1 0.5 0
v 0.1 0.5 0
v -0.1 0.5 -0.1
v 5.96046e-08 0.5 -0.1
v 5.96046e-08 0.5 -0.2
v 0.1 0.5 -0.2
v -0.1 0.9 0.9
v 0.2 0.9 0.9
v -0.1 0.9 0.8
v 0.2 0.9 0.8
v -0.8 0.9 0.2
v -0.7 0.9 0.2
v 0.9 0.9 0.2
v 1 0.9 0.2
v 5.96046e-08 0.9 0.1
v 0.2 0.9 0.1
v 5.96046e-08 0.9 0
v 0.1 0.9 0
v 0.1 0.9 -0.1
v 0.2 0.9 -0.1
v -0.8 0.9 -0.2
v -0.7 0.9 -0.2
v 0.9 0.9 -0.2
v 1 0.9 -0.2
v 5.96046e-08 0.9 -0.8
v 0.2 0.9 -0.8
v 5.96046e-08 0.9 -0.9
v 0.2 0.9 -0.9
v 0.2 1.1 0.9
v 0.3 1.1 0.9
v 0.2 1.1 0.8
v 0.3 1.1 0.8
v -0.1 1.1 -0.8
v 5.96046e-08 1.1 -0.8
v 0.2 1.1 -0.8
v 0.3 1.1 -0.8
v -0.1 1.1 -0.9
v 5.96046e-08 1.1 -0.9
v 0.2 1.1 -0.9
v 0.3 1.1 -0.9
v 0.9 1.2 0.2
v 1 1.2 0.2
v 0.9 1.2 0.1
v 1 1.2 0.1
v -0.8 1.3 -0.1
v -0.7 1.3 -0.1
v -0.8 1.3 -0.2
v -0.7 1.3 -0.2
v 5.96046e-08 1.4 0.8
v 0.3 1.4 0.8
v -0.1 1.4 0.6
v 5.96046e-08 1.4 0.6
v -0.1 1.4 0.4
v 0.3 1.4 0.4
v -0.5 1.4 0.2
v -0.3 1.4 0.2
v 0.5 1.4 0.2
v 0.7 1.4 0.2
v -0.7 1.4 0.1
v -0.5 1.4 0.1
v 0.7 1.4 0.1
v 0.9 1.4 0.1
v -0.7 1.4 -0.2
v -0.3 1.4 -0.2
v 0.5 1.4 -0.2
v 0.9 1.4 -0.2
v -0.1 1.4 -0.4
v 0.3 1.4 -0.4
v -0.1 1.4 -0.5
v 5.96046e-08 1.4 -0.5
v -0.1 1.4 -0.7
v 5.96046e-08 1.4 -0.7
v -0.1 1.4 -0.8
v 0.3 1.4 -0.8
v -0.1 1.6 0.4
v 0.2 1.6 0.4
v 0.2 1.6 0.3
v 0.3 1.6 0.3
v -0.3 1.6 0.2
v -0.1 1.6 0.2
v 0.3 1.6 0.2
v 0.5 1.6 0.2
v 5.96046e-08 1.6 0.1
v 0.2 1.6 0.1
v 5.96046e-08 1.6 -0.1
v 0.2 1.6 -0.1
v -0.3 1.6 -0.2
v -0.1 1.6 -0.2
v 5.96046e-08 1.6 -0.2
v 0.2 1.6 -0.2
v 0.5 1.6 -0.2
v -0.1 1.6 -0.4
v 0.2 1.6 -0.4
v -0.2 0.7 -0.1
v -0.1 0.7 -0.1
v -0.1 0.7 -0.2
v 5.96046e-08 0.7 -0.2
v -0.2 0.7 -0.3
v 5.96046e-08 0.7 -0.3
v 0.9 1 0.2
v 1 1 0.2
v 0.9 1 0.1
v 1 1 0.1
v -0.1 1.2 0
v 5.96046e-08 1.2 0
v -0.8 1.2 -0.1
v -0.7 1.2 -0.1
v 5.96046e-08 1.2 -0.1
v 0.1 1.2 -0.1
v -0.8 1.2 -0.2
v -0.7 1.2 -0.2
v -0.1 1.2 -0.2
v 0.1 1.2 -0.2
v -0.1 1.5 0.9
v 0.3 1.5 0.9
v -0.1 1.5 0.8
v 5.96046e-08 1.5 0.8
v -0.1 1.5 0.6
v 5.96046e-08 1.5 0.6
v -0.1 1.5 0.5
v 0.3 1.5 0.5
v -0.8 1.5 0.2
v -0.7 1.5 0.2
v -0.5 1.5 0.2
v -0.4 1.5 0.2
v 0.6 1.5 0.2
v 0.7 1.5 0.2
v 0.9 1.5 0.2
v 1 1.5 0.2
v -0.7 1.5 0.1
v -0.5 1.5 0.1
v 0.7 1.5 0.1
v 0.9 1.5 0.1
v -0.8 1.5 -0.2
v -0.4 1.5 -0.2
v 0.6 1.5 -0.2
v 1 1.5 -0.2
v 5.96046e-08 1.5 -0.5
v 0.3 1.5 -0.5
v -0.1 1.5 -0.7
v 5.96046e-08 1.5 -0.7
v -0.1 1.5 -0.9
v 0.3 1.5 -0.9
v -0.1 1.7 0.5
v 0.3 1.7 0.5
v 0.2 1.7 0.4
v 0.3 1.7 0.4
v 0.2 1.7 0.3
v 0.3 1.7 0.3
v -0.4 1.7 0.2
v -0.1 1.7 0.2
v 0.3 1.7 0.2
v 0.6 1.7 0.2
v -0.4 1.7 -0.2
v -0.1 1.7 -0.2
v 0.2 1.7 -0.2
v 0.3 1.7 -0.2
v 0.6 1.7 -0.2
v 0.2 1.7 -0.4
v 0.3 1.7 -0.4
v -0.1 1.7 -0.5
v 0.3 1.7 -0.5
v -0.1 1.8 0.2
v 0.3 1.8 0.2
v -0.1 1.8 -0.2
v 0.3 1.8 -0.2

# faces
f 3/4/1 2/4/1 1/4/1
f 4/4/1 2/4/1 3/4/1
f 5/4/1 3/4/1 1/4/1
f 7/4/1 5/4/1 1/4/1
f 7/4/1 6/4/1 5/4/1
f 8/4/1 6/4/1 7/4/1
f 11/4/1 10/4/1 9/4/1
f 12/4/1 10/4/1 11/4/1
f 15/4/1 14/4/1 13/4/1
f 16/4/1 14/4/1 15/4/1
f 19/1/1 18/1/1 17/1/1
f 20/1/1 18/1/1 19/1/1
f 23/1/1 22/1/1 21/1/1
f 29/1/1 23/1/1 21/1/1
f 29/1/1 24/1/1 23/1/1
f 30/1/1 24/1/1 29/1/1
f 36/3/1 28/3/1 27/3/1
f 37/4/1 26/4/1 25/4/1
f 38/4/1 26/4/1 37/4/1
f 39/4/1 32/4/1 31/4/1
f 40/4/1 32/4/1 39/4/1
f 41/3/1 36/3/1 35/3/1
f 42/3/1 28/3/1 36/3/1
f 42/3/1 36/3/1 41/3/1
f 43/4/1 32/4/1 40/4/1
f 46/3/1 34/3/1 33/3/1
f 47/4/1 44/4/1 43/4/1
f 47/4/1 43/4/1 40/4/1
f 48/4/1 44/4/1 47/4/1
f 49/3/1 46/3/1 45/3/1
f 50/3/1 34/3/1 46/3/1
f 50/3/1 46/3/1 49/3/1
f 51/4/1 49/4/1 48/4/1
f 52/4/1 49/4/1 51/4/1
f 57/3/1 56/3/1 55/3/1
f 58/3/1 56/3/1 57/3/1
f 59/2/1 54/2/1 53/2/1
f 65/4/1 62/4/1 61/4/1
f 66/4/1 62/4/1 65/4/1
f 67/3/1 64/3/1 63/3/1
f 68/3/1 64/3/1 67/3/1
f 69/2/1 59/2/1 53/2/1
f 69/2/1 60/2/1 59/2/1
f 70/2/1 60/2/1 69/2/1
f 73/4/1 72/4/1 71/4/1
f 74/4/1 72/4/1 73/4/1
f 77/4/1 76/4/1 75/4/1
f 78/4/1 76/4/1 77/4/1
f 80/4/1 76/4/1 78/4/1
f 81/4/1 76/4/1 80/4/1
f 81/4/1 80/4/1 79/4/1
f 82/4/1 76/4/1 81/4/1
f 83/4/1 81/4/1 79/4/1
f 84/4/1 81/4/1 83/4/1
f 85/4/2 86/4/2 87/4/2
f 87/4/2 86/4/2 88/4/2
f 85/4/2 87/4/2 89/4/2
f 85/4/2 89/4/2 91/4/2
f 89/4/2 90/4/2 91/4/2
f 91/4/2 90/4/2 92/4/2
f 85/4/2 91/4/2 93/4/2
f 93/4/2 91/4/2 94/4/2
f 95/4/2 96/4/2 97/4/2
f 97/4/2 96/4/2 98/4/2
f 99/1/2 100/1/2 101/1/2
f 101/1/2 100/1/2 102/1/2
f 102/1/2 100/1/2 103/1/2
f 103/1/2 100/1/2 104/1/2
f 105/1/2 106/1/2 107/1/2
f 107/1/2 106/1/2 108/1/2
f 108/1/2 106/1/2 109/1/2
f 109/1/2 106/1/2 110/1/2
f 111/4/2 112/4/2 117/4/2
f 117/4/2 112/4/2 118/4/2
f 115/3/2 116/3/2 119/3/2
f 119/3/2 116/3/2 120/3/2
f 113/2/2 114/2/2 123/2/2
f 123/2/2 114/2/2 124/2/2
f 121/4/2 122/4/2 127/4/2
f 127/4/2 122/4/2 128/4/2
f 125/3/2 126/3/2 129/3/2
f 129/3/2 126/3/2 130/3/2
f 131/4/2 132/4/2 135/4/2
f 133/3/2 134/3/2 138/3/2
f 135/4/2 136/4/2 139/4/2
f 131/4/2 135/4/2 139/4/2
f 139/4/2 136/4/2 140/4/2
f 137/3/2 138/3/2 141/3/2
f 138/3/2 134/3/2 142/3/2
f 141/3/2 138/3/2 142/3/2
f 140/4/2 136/4/2 145/4/2
f 145/4/2 136/4/2 146/4/2
f 143/4/2 144/4/2 147/4/2
f 147/4/2 144/4/2 148/4/2
f 137/3/2 141/3/2 150/3/2
f 150/3/2 141/3/2 151/3/2
f 148/4/2 149/4/2 152/4/2
f 152/4/2 149/4/2 153/4/2
f 154/4/2 155/4/2 156/4/2
f 156/4/2 155/4/2 157/4/2
f 158/4/2 159/4/2 160/4/2
f 160/4/2 159/4/2 161/4/2
f 162/4/2 163/4/2 164/4/2
f 164/4/2 163/4/2 165/4/2
f 165/4/2 163/4/2 167/4/2
f 166/4/2 167/4/2 168/4/2
f 167/4/2 163/4/2 169/4/2
f 168/4/2 167/4/2 169/4/2
f 172/4/3 171/4/3 170/4/3
f 173/4/3 171/4/3 172/4/3
f 174/4/3 171/4/3 173/4/3
f 175/4/3 171/4/3 174/4/3
f 178/4/3 177/4/3 176/4/3
f 179/4/3 177/4/3 178/4/3
f 182/4/3 181/4/3 180/4/3
f 183/4/3 181/4/3 182/4/3
f 186/4/3 185/4/3 184/4/3
f 187/4/3 185/4/3 186/4/3
f 190/4/3 189/4/3 188/4/3
f 191/4/3 189/4/3 190/4/3
f 194/4/3 193/4/3 192/4/3
f 196/4/3 194/4/3 192/4/3
f 196/4/3 195/4/3 194/4/3
f 197/4/3 195/4/3 196/4/3
f 198/4/3 195/4/3 197/4/3
f 199/4/3 195/4/3 198/4/3
f 202/4/3 200/4/3 199/4/3
f 203/4/3 200/4/3 202/4/3
f 205/4/3 202/4/3 201/4/3
f 206/4/3 205/4/3 204/4/3
f 207/4/3 202/4/3 205/4/3
f 207/4/3 205/4/3 206/4/3
f 208/4/3 206/4/3 204/4/3
f 209/4/3 206/4/3 208/4/3
f 214/4/3 211/4/3 210/4/3
f 215/4/3 211/4/3 214/4/3
f 216/4/3 213/4/3 212/4/3
f 217/4/3 213/4/3 216/4/3
f 220/4/3 219/4/3 218/4/3
f 221/4/3 219/4/3 220/4/3
f 224/2/3 223/2/3 222/2/3
f 225/2/3 223/2/3 224/2/3
f 230/4/3 227/4/3 226/4/3
f 231/4/3 227/4/3 230/4/3
f 232/4/3 229/4/3 228/4/3
f 233/4/3 229/4/3 232/4/3
f 236/1/3 235/1/3 234/1/3
f 237/1/3 235/1/3 236/1/3
f 238/1/3 236/1/3 234/1/3
f 239/1/3 236/1/3 238/1/3
f 242/1/3 241/1/3 240/1/3
f 243/1/3 241/1/3 242/1/3
f 244/1/3 242/1/3 240/1/3
f 245/1/3 242/1/3 244/1/3
f 248/3/3 247/3/3 246/3/3
f 250/3/3 248/3/3 246/3/3
f 250/3/3 249/3/3 248/3/3
f 251/3/3 249/3/3 250/3/3
f 254/3/3 253/3/3 252/3/3
f 255/3/3 253/3/3 254/3/3
f 259/3/3 257/3/3 256/3/3
f 260/3/3 259/3/3 258/3/3
f 261/3/3 257/3/3 259/3/3
f 261/3/3 259/3/3 260/3/3
f 262/3/3 257/3/3 261/3/3
f 263/3/3 257/3/3 262/3/3
f 264/4/4 265/4/4 266/4/4
f 266/4/4 265/4/4 267/4/4
f 264/4/4 266/4/4 268/4/4
f 268/4/4 266/4/4 269/4/4
f 269/4/4 266/4/4 270/4/4
f 270/4/4 266/4/4 271/4/4
f 272/4/4 273/4/4 274/4/4
f 272/4/4 274/4/4 276/4/4
f 274/4/4 275/4/4 276/4/4
f 276/4/4 275/4/4 277/4/4
f 278/4/4 279/4/4 280/4/4
f 280/4/4 279/4/4 281/4/4
f 282/2/4 283/2/4 285/2/4
f 284/2/4 285/2/4 286/2/4
f 285/2/4 283/2/4 287/2/4
f 286/2/4 285/2/4 287/2/4
f 288/4/4 289/4/4 292/4/4
f 292/4/4 289/4/4 293/4/4
f 290/4/4 291/4/4 294/4/4
f 294/4/4 291/4/4 295/4/4
f 295/4/4 291/4/4 296/4/4
f 295/4/4 296/4/4 298/4/4
f 296/4/4 297/4/4 298/4/4
f 298/4/4 297/4/4 299/4/4
f 299/4/4 297/4/4 302/4/4
f 302/4/4 297/4/4 303/4/4
f 300/1/4 301/1/4 306/1/4
f 305/1/4 306/1/4 307/1/4
f 306/1/4 301/1/4 308/1/4
f 307/1/4 306/1/4 308/1/4
f 303/4/4 304/4/4 310/4/4
f 310/4/4 304/4/4 311/4/4
f 309/4/4 310/4/4 311/4/4
f 311/4/4 304/4/4 312/4/4
f 309/4/4 311/4/4 314/4/4
f 313/4/4 314/4/4 315/4/4
f 314/4/4 311/4/4 316/4/4
f 315/4/4 314/4/4 316/4/4
f 313/4/4 315/4/4 318/4/4
f 317/4/4 318/4/4 319/4/4
f 318/4/4 315/4/4 320/4/4
f 319/4/4 318/4/4 320/4/4
f 321/1/4 322/1/4 323/1/4
f 323/1/4 322/1/4 324/1/4
f 325/3/4 326/3/4 327/3/4
f 327/3/4 326/3/4 328/3/4
f 328/3/4 326/3/4 329/3/4
f 329/3/4 326/3/4 330/3/4
f 331/3/4 332/3/4 334/3/4
f 333/3/4 334/3/4 335/3/4
f 334/3/4 332/3/4 336/3/4
f 335/3/4 334/3/4 336/3/4
f 336/3/4 332/3/4 337/3/4
f 337/3/4 332/3/4 338/3/4
f 341/1/5 340/1/5 339/1/5
f 342/1/5 340/1/5 341/1/5
f 345/1/5 344/1/5 343/1/5
f 346/1/5 344/1/5 345/1/5
f 347/1/5 344/1/5 346/1/5
f 348/1/5 344/1/5 347/1/5
f 351/4/5 350/4/5 349/4/5
f 352/4/5 350/4/5 351/4/5
f 359/2/5 358/2/5 357/2/5
f 360/2/5 358/2/5 359/2/5
f 361/2/5 358/2/5 360/2/5
f 362/2/5 358/2/5 361/2/5
f 363/4/5 354/4/5 353/4/5
f 364/4/5 354/4/5 363/4/5
f 365/4/5 356/4/5 355/4/5
f 366/4/5 356/4/5 365/4/5
f 369/3/5 368/3/5 367/3/5
f 370/3/5 368/3/5 369/3/5
f 373/4/5 372/4/5 371/4/5
f 374/4/5 372/4/5 373/4/5
f 379/3/5 376/3/5 375/3/5
f 380/3/5 376/3/5 379/3/5
f 381/3/5 378/3/5 377/3/5
f 382/3/5 378/3/5 381/3/5
f 385/4/5 384/4/5 383/4/5
f 386/4/5 384/4/5 385/4/5
f 389/4/5 388/4/5 387/4/5
f 390/4/5 388/4/5 389/4/5
f 394/4/5 392/4/5 391/4/5
f 395/4/5 394/4/5 393/4/5
f 396/4/5 392/4/5 394/4/5
f 396/4/5 394/4/5 395/4/5
f 402/4/5 398/4/5 397/4/5
f 403/4/5 400/4/5 399/4/5
f 405/4/5 402/4/5 401/4/5
f 406/4/5 398/4/5 402/4/5
f 406/4/5 402/4/5 405/4/5
f 407/4/5 404/4/5 403/4/5
f 407/4/5 403/4/5 399/4/5
f 408/4/5 404/4/5 407/4/5
f 411/3/5 410/3/5 409/3/5
f 412/3/5 410/3/5 411/3/5
f 414/3/5 410/3/5 412/3/5
f 415/3/5 414/3/5 413/3/5
f 416/3/5 410/3/5 414/3/5
f 416/3/5 414/3/5 415/3/5
f 419/4/5 418/4/5 417/4/5
f 422/4/5 419/4/5 417/4/5
f 422/4/5 420/4/5 419/4/5
f 423/4/5 420/4/5 422/4/5
f 425/4/5 422/4/5 421/4/5
f 425/4/5 424/4/5 423/4/5
f 425/4/5 423/4/5 422/4/5
f 426/4/5 424/4/5 425/4/5
f 427/4/5 425/4/5 421/4/5
f 428/4/5 424/4/5 426/4/5
f 429/4/5 427/4/5 421/4/5
f 430/4/5 427/4/5 429/4/5
f 431/3/5 428/3/5 427/3/5
f 431/4/5 427/4/5 430/4/5
f 432/4/5 424/4/5 428/4/5
f 432/3/5 428/3/5 431/3/5
f 433/4/5 424/4/5 432/4/5
f 434/3/5 431/3/5 430/3/5
f 434/3/5 432/3/5 431/3/5
f 435/3/5 432/3/5 434/3/5
f 436/1/6 437/1/6 438/1/6
f 436/1/6 438/1/6 440/1/6
f 438/1/6 439/1/6 440/1/6
f 440/1/6 439/1/6 441/1/6
f 442/4/6 443/4/6 444/4/6
f 444/4/6 443/4/6 445/4/6
f 446/1/6 447/1/6 450/1/6
f 448/4/6 449/4/6 452/4/6
f 452/4/6 449/4/6 453/4/6
f 450/1/6 451/1/6 454/1/6
f 446/1/6 450/1/6 454/1/6
f 454/1/6 451/1/6 455/1/6
f 456/4/6 457/4/6 458/4/6
f 458/4/6 457/4/6 459/4/6
f 459/4/6 457/4/6 461/4/6
f 460/4/6 461/4/6 462/4/6
f 461/4/6 457/4/6 463/4/6
f 462/4/6 461/4/6 463/4/6
f 464/4/6 465/4/6 472/4/6
f 466/4/6 467/4/6 473/4/6
f 468/4/6 469/4/6 474/4/6
f 470/4/6 471/4/6 475/4/6
f 464/4/6 472/4/6 476/4/6
f 472/4/6 473/4/6 476/4/6
f 473/4/6 467/4/6 477/4/6
f 476/4/6 473/4/6 477/4/6
f 474/4/6 475/4/6 478/4/6
f 468/4/6 474/4/6 478/4/6
f 475/4/6 471/4/6 479/4/6
f 478/4/6 475/4/6 479/4/6
f 480/3/6 481/3/6 483/3/6
f 482/3/6 483/3/6 484/3/6
f 483/3/6 481/3/6 485/3/6
f 484/3/6 483/3/6 485/3/6
f 486/4/6 487/4/6 488/4/6
f 488/4/6 487/4/6 489/4/6
f 486/4/6 488/4/6 490/4/6
f 486/4/6 490/4/6 493/4/6
f 490/4/6 491/4/6 493/4/6
f 493/4/6 491/4/6 494/4/6
f 492/4/6 493/4/6 496/4/6
f 496/4/6 493/4/6 497/4/6
f 494/4/6 495/4/6 499/4/6
f 499/4/6 495/4/6 500/4/6
f 497/3/6 498/3/6 501/3/6
f 497/3/6 501/3/6 503/3/6
f 501/3/6 502/3/6 503/3/6
f 503/3/6 502/3/6 504/3/6
f 505/4/6 506/4/6 507/4/6
f 507/4/6 506/4/6 508/4/6
