# MagicaVoxel @ Ephtracy

# group
o 

# material
mtllib Coffre2.mtl
usemtl palette

# normals
vn -1 0 0
vn 1 0 0
vn 0 0 1
vn 0 0 -1
vn 0 -1 0
vn 0 1 0

# texcoords
vt 0.923828 0.5
vt 0.939453 0.5
vt 0.943359 0.5
vt 0.970703 0.5

# verts
v -0.8 0 0.5
v -0.8 0 -0.5
v -0.8 0.1 0.5
v -0.8 0.1 0.2
v -0.8 0.3 0.5
v -0.8 0.3 0.2
v -0.8 0.6 0.5
v -0.8 0.6 -0.5
v -0.8 0.7 0.8
v -0.8 0.7 0.7
v -0.8 0.7 0.5
v -0.8 0.7 -0.5
v -0.8 0.8 0.7
v -0.8 0.8 0.5
v -0.8 1.5 0.8
v -0.8 1.5 0.5
v -0.8 1.7 0.8
v -0.8 1.7 0.5
v -0.1 1.7 0.6
v -0.1 1.7 0.5
v -0.1 1.7 0.3
v -0.1 1.8 0.6
v -0.1 1.8 0.3
v 0.7 0.2 0.4
v 0.7 0.2 -0.4
v 0.7 0.3 0.4
v 0.7 0.3 -0.4
v 0.7 0.4 0.4
v 0.7 0.6 0.4
v 0.7 0.6 -0.4
v 0.7 0.7 0.4
v 0.7 0.7 -0.4
v 0.7 0.8 0.7
v 0.7 0.8 0.5
v 0.7 0.9 0.7
v 0.7 0.9 0.5
v 0.7 1.1 0.7
v 0.7 1.1 0.5
v 0.7 1.6 0.7
v 0.7 1.6 0.5
v -0.7 0.2 0.4
v -0.7 0.2 0.2
v -0.7 0.2 -0.4
v -0.7 0.3 0.4
v -0.7 0.3 0.2
v -0.7 0.6 0.4
v -0.7 0.6 -0.4
v -0.7 0.7 0.4
v -0.7 0.7 -0.4
v -0.7 0.8 0.7
v -0.7 0.8 0.5
v -0.7 1.5 0.7
v -0.7 1.5 0.5
v -0.7 1.6 0.7
v -0.7 1.6 0.5
v 0.1 1.7 0.6
v 0.1 1.7 0.5
v 0.1 1.7 0.3
v 0.1 1.8 0.6
v 0.1 1.8 0.3
v 0.8 0 0.5
v 0.8 0 -0.5
v 0.8 0.1 0.4
v 0.8 0.1 -0.4
v 0.8 0.3 0.4
v 0.8 0.3 -0.4
v 0.8 0.4 0.5
v 0.8 0.4 0.4
v 0.8 0.6 0.5
v 0.8 0.6 0.4
v 0.8 0.6 -0.5
v 0.8 0.7 0.8
v 0.8 0.7 0.5
v 0.8 0.7 -0.5
v 0.8 0.9 0.8
v 0.8 0.9 0.5
v 0.8 1.1 0.8
v 0.8 1.1 0.5
v 0.8 1.7 0.8
v 0.8 1.7 0.5
v -0.8 0.7 0.8
v -0.8 1.5 0.8
v -0.8 1.7 0.8
v -0.5 0.7 0.8
v -0.5 0.9 0.8
v -0.2 1.4 0.8
v -0.2 1.5 0.8
v -0.1 0.7 0.8
v -0.1 0.9 0.8
v 5.96046e-08 0.9 0.8
v 5.96046e-08 1.1 0.8
v 0.2 1.6 0.8
v 0.2 1.7 0.8
v 0.6 1.4 0.8
v 0.6 1.6 0.8
v 0.8 0.7 0.8
v 0.8 0.9 0.8
v 0.8 1.1 0.8
v 0.8 1.7 0.8
v -0.1 1.7 0.6
v -0.1 1.8 0.6
v 0.1 1.7 0.6
v 0.1 1.8 0.6
v -0.8 0 0.5
v -0.8 0.1 0.5
v -0.8 0.3 0.5
v -0.8 0.6 0.5
v -0.8 0.7 0.5
v -0.6 0.1 0.5
v -0.6 0.3 0.5
v -0.4 0.7 0.5
v -0.3 0.4 0.5
v -0.3 0.6 0.5
v 0.8 0 0.5
v 0.8 0.4 0.5
v 0.8 0.6 0.5
v 0.8 0.7 0.5
v -0.7 0.2 -0.4
v -0.7 0.6 -0.4
v -0.7 0.7 -0.4
v 0.7 0.2 -0.4
v 0.7 0.3 -0.4
v 0.7 0.6 -0.4
v 0.7 0.7 -0.4
v -0.7 0.8 0.7
v -0.7 1.5 0.7
v -0.7 1.6 0.7
v -0.5 0.8 0.7
v -0.5 0.9 0.7
v -0.4 0.8 0.7
v -0.2 1.4 0.7
v -0.2 1.5 0.7
v -0.1 0.8 0.7
v -0.1 0.9 0.7
v 5.96046e-08 0.9 0.7
v 5.96046e-08 1.1 0.7
v 0.2 1.6 0.7
v 0.6 1.4 0.7
v 0.6 1.6 0.7
v 0.7 0.8 0.7
v 0.7 0.9 0.7
v 0.7 1.1 0.7
v 0.7 1.6 0.7
v -0.8 0.7 0.5
v -0.8 0.8 0.5
v -0.8 1.5 0.5
v -0.8 1.7 0.5
v -0.7 0.8 0.5
v -0.7 1.5 0.5
v -0.7 1.6 0.5
v -0.4 0.7 0.5
v -0.4 0.8 0.5
v -0.1 1.7 0.5
v 0.1 1.7 0.5
v 0.2 1.6 0.5
v 0.2 1.7 0.5
v 0.7 0.8 0.5
v 0.7 0.9 0.5
v 0.7 1.1 0.5
v 0.7 1.6 0.5
v 0.8 0.7 0.5
v 0.8 0.9 0.5
v 0.8 1.1 0.5
v 0.8 1.7 0.5
v -0.7 0.2 0.4
v -0.7 0.3 0.4
v -0.7 0.6 0.4
v -0.7 0.7 0.4
v -0.6 0.2 0.4
v -0.6 0.3 0.4
v -0.3 0.4 0.4
v -0.3 0.6 0.4
v 0.7 0.2 0.4
v 0.7 0.3 0.4
v 0.7 0.4 0.4
v 0.7 0.6 0.4
v 0.7 0.7 0.4
v -0.1 1.7 0.3
v -0.1 1.8 0.3
v 0.1 1.7 0.3
v 0.1 1.8 0.3
v -0.8 0 -0.5
v -0.8 0.6 -0.5
v -0.8 0.7 -0.5
v 0.1 0.1 -0.5
v 0.1 0.2 -0.5
v 0.5 0.1 -0.5
v 0.5 0.2 -0.5
v 0.8 0 -0.5
v 0.8 0.6 -0.5
v 0.8 0.7 -0.5
v -0.8 0 0.5
v 0.8 0 0.5
v -0.8 0 -0.5
v 0.8 0 -0.5
v -0.8 0.7 0.8
v -0.5 0.7 0.8
v -0.1 0.7 0.8
v 0.8 0.7 0.8
v -0.8 0.7 0.7
v -0.5 0.7 0.7
v -0.4 0.7 0.7
v -0.1 0.7 0.7
v -0.8 0.7 0.5
v -0.4 0.7 0.5
v 0.8 0.7 0.5
v -0.7 1.6 0.7
v 0.2 1.6 0.7
v 0.6 1.6 0.7
v 0.7 1.6 0.7
v -0.7 1.6 0.5
v 0.2 1.6 0.5
v 0.7 1.6 0.5
v -0.1 1.7 0.5
v 0.1 1.7 0.5
v -0.1 1.7 0.3
v 0.1 1.7 0.3
v -0.7 0.2 0.4
v -0.6 0.2 0.4
v 0.7 0.2 0.4
v -0.7 0.2 0.2
v -0.7 0.2 -0.4
v 0.7 0.2 -0.4
v -0.8 0.7 0.5
v -0.4 0.7 0.5
v 0.8 0.7 0.5
v -0.7 0.7 0.4
v 0.7 0.7 0.4
v -0.7 0.7 -0.4
v 0.7 0.7 -0.4
v -0.8 0.7 -0.5
v 0.8 0.7 -0.5
v -0.7 0.8 0.7
v -0.5 0.8 0.7
v -0.4 0.8 0.7
v -0.1 0.8 0.7
v 0.7 0.8 0.7
v -0.7 0.8 0.5
v -0.4 0.8 0.5
v 0.7 0.8 0.5
v -0.8 1.7 0.8
v 0.2 1.7 0.8
v 0.8 1.7 0.8
v -0.1 1.7 0.6
v 0.1 1.7 0.6
v -0.8 1.7 0.5
v -0.1 1.7 0.5
v 0.1 1.7 0.5
v 0.2 1.7 0.5
v 0.8 1.7 0.5
v -0.1 1.8 0.6
v 0.1 1.8 0.6
v -0.1 1.8 0.3
v 0.1 1.8 0.3

# faces
f 3/3/1 2/3/1 1/3/1
f 4/3/1 2/3/1 3/3/1
f 5/2/1 4/2/1 3/2/1
f 6/3/1 2/3/1 4/3/1
f 6/2/1 4/2/1 5/2/1
f 7/3/1 6/3/1 5/3/1
f 8/3/1 2/3/1 6/3/1
f 8/3/1 6/3/1 7/3/1
f 11/4/1 8/4/1 7/4/1
f 12/4/1 8/4/1 11/4/1
f 13/3/1 10/3/1 9/3/1
f 13/2/1 11/2/1 10/2/1
f 14/2/1 11/2/1 13/2/1
f 15/3/1 13/3/1 9/3/1
f 15/3/1 14/3/1 13/3/1
f 16/3/1 14/3/1 15/3/1
f 17/2/1 16/2/1 15/2/1
f 18/2/1 16/2/1 17/2/1
f 22/4/1 20/4/1 19/4/1
f 22/4/1 21/4/1 20/4/1
f 23/4/1 21/4/1 22/4/1
f 26/2/1 25/2/1 24/2/1
f 27/2/1 25/2/1 26/2/1
f 28/3/1 27/3/1 26/3/1
f 29/3/1 27/3/1 28/3/1
f 30/3/1 27/3/1 29/3/1
f 31/4/1 30/4/1 29/4/1
f 32/4/1 30/4/1 31/4/1
f 35/3/1 34/3/1 33/3/1
f 36/3/1 34/3/1 35/3/1
f 37/2/1 36/2/1 35/2/1
f 38/2/1 36/2/1 37/2/1
f 39/3/1 38/3/1 37/3/1
f 40/3/1 38/3/1 39/3/1
f 41/2/2 42/2/2 44/2/2
f 42/3/2 43/3/2 45/3/2
f 44/2/2 42/2/2 45/2/2
f 44/3/2 45/3/2 46/3/2
f 45/3/2 43/3/2 47/3/2
f 46/3/2 45/3/2 47/3/2
f 46/4/2 47/4/2 48/4/2
f 48/4/2 47/4/2 49/4/2
f 50/3/2 51/3/2 52/3/2
f 52/3/2 51/3/2 53/3/2
f 52/2/2 53/2/2 54/2/2
f 54/2/2 53/2/2 55/2/2
f 56/4/2 57/4/2 59/4/2
f 57/4/2 58/4/2 59/4/2
f 59/4/2 58/4/2 60/4/2
f 61/3/2 62/3/2 63/3/2
f 63/3/2 62/3/2 64/3/2
f 61/3/2 63/3/2 65/3/2
f 63/2/2 64/2/2 65/2/2
f 64/3/2 62/3/2 66/3/2
f 65/2/2 64/2/2 66/2/2
f 61/3/2 65/3/2 67/3/2
f 65/3/2 66/3/2 67/3/2
f 67/3/2 66/3/2 68/3/2
f 67/2/2 68/2/2 69/2/2
f 68/3/2 66/3/2 70/3/2
f 69/2/2 68/2/2 70/2/2
f 66/3/2 62/3/2 71/3/2
f 70/3/2 66/3/2 71/3/2
f 69/4/2 70/4/2 73/4/2
f 70/4/2 71/4/2 73/4/2
f 73/4/2 71/4/2 74/4/2
f 72/3/2 73/3/2 75/3/2
f 75/3/2 73/3/2 76/3/2
f 75/2/2 76/2/2 77/2/2
f 77/2/2 76/2/2 78/2/2
f 77/3/2 78/3/2 79/3/2
f 79/3/2 78/3/2 80/3/2
f 84/3/3 82/3/3 81/3/3
f 85/3/3 82/3/3 84/3/3
f 86/3/3 82/3/3 85/3/3
f 87/2/3 83/2/3 82/2/3
f 87/3/3 82/3/3 86/3/3
f 88/2/3 85/2/3 84/2/3
f 89/3/3 86/3/3 85/3/3
f 89/2/3 85/2/3 88/2/3
f 90/3/3 89/3/3 88/3/3
f 90/3/3 86/3/3 89/3/3
f 91/3/3 86/3/3 90/3/3
f 92/2/3 83/2/3 87/2/3
f 92/2/3 87/2/3 86/2/3
f 93/2/3 83/2/3 92/2/3
f 94/3/3 86/3/3 91/3/3
f 94/2/3 92/2/3 86/2/3
f 95/3/3 93/3/3 92/3/3
f 95/2/3 92/2/3 94/2/3
f 96/3/3 90/3/3 88/3/3
f 97/2/3 91/2/3 90/2/3
f 97/3/3 90/3/3 96/3/3
f 98/3/3 94/3/3 91/3/3
f 98/2/3 91/2/3 97/2/3
f 98/3/3 95/3/3 94/3/3
f 99/3/3 93/3/3 95/3/3
f 99/3/3 95/3/3 98/3/3
f 102/4/3 101/4/3 100/4/3
f 103/4/3 101/4/3 102/4/3
f 109/3/3 105/3/3 104/3/3
f 109/2/3 106/2/3 105/2/3
f 110/3/3 107/3/3 106/3/3
f 110/2/3 106/2/3 109/2/3
f 111/4/3 108/4/3 107/4/3
f 112/3/3 107/3/3 110/3/3
f 112/3/3 110/3/3 109/3/3
f 113/4/3 111/4/3 107/4/3
f 113/3/3 107/3/3 112/3/3
f 114/3/3 109/3/3 104/3/3
f 114/3/3 112/3/3 109/3/3
f 115/2/3 113/2/3 112/2/3
f 115/3/3 112/3/3 114/3/3
f 116/4/3 111/4/3 113/4/3
f 116/2/3 113/2/3 115/2/3
f 117/4/3 111/4/3 116/4/3
f 121/3/3 119/3/3 118/3/3
f 122/3/3 119/3/3 121/3/3
f 123/4/3 120/4/3 119/4/3
f 123/3/3 119/3/3 122/3/3
f 124/4/3 120/4/3 123/4/3
f 125/3/4 126/3/4 128/3/4
f 128/3/4 126/3/4 129/3/4
f 128/2/4 129/2/4 130/2/4
f 129/3/4 126/3/4 131/3/4
f 126/2/4 127/2/4 132/2/4
f 131/3/4 126/3/4 132/3/4
f 130/2/4 129/2/4 133/2/4
f 129/3/4 131/3/4 134/3/4
f 133/2/4 129/2/4 134/2/4
f 133/3/4 134/3/4 135/3/4
f 134/3/4 131/3/4 135/3/4
f 135/3/4 131/3/4 136/3/4
f 132/2/4 127/2/4 137/2/4
f 131/2/4 132/2/4 137/2/4
f 136/3/4 131/3/4 138/3/4
f 131/2/4 137/2/4 138/2/4
f 138/2/4 137/2/4 139/2/4
f 133/3/4 135/3/4 140/3/4
f 135/2/4 136/2/4 141/2/4
f 140/3/4 135/3/4 141/3/4
f 136/3/4 138/3/4 142/3/4
f 141/2/4 136/2/4 142/2/4
f 138/3/4 139/3/4 142/3/4
f 142/3/4 139/3/4 143/3/4
f 144/2/4 145/2/4 148/2/4
f 145/3/4 146/3/4 148/3/4
f 146/2/4 147/2/4 149/2/4
f 148/3/4 146/3/4 149/3/4
f 149/2/4 147/2/4 150/2/4
f 144/2/4 148/2/4 151/2/4
f 151/2/4 148/2/4 152/2/4
f 150/2/4 147/2/4 153/2/4
f 150/2/4 153/2/4 154/2/4
f 150/2/4 154/2/4 155/2/4
f 155/2/4 154/2/4 156/2/4
f 151/3/4 152/3/4 157/3/4
f 155/3/4 156/3/4 160/3/4
f 151/3/4 157/3/4 161/3/4
f 157/3/4 158/3/4 161/3/4
f 158/2/4 159/2/4 162/2/4
f 161/3/4 158/3/4 162/3/4
f 159/3/4 160/3/4 163/3/4
f 162/2/4 159/2/4 163/2/4
f 160/3/4 156/3/4 164/3/4
f 163/3/4 160/3/4 164/3/4
f 165/2/4 166/2/4 169/2/4
f 166/3/4 167/3/4 170/3/4
f 169/2/4 166/2/4 170/2/4
f 169/3/4 170/3/4 171/3/4
f 170/3/4 167/3/4 171/3/4
f 167/4/4 168/4/4 172/4/4
f 171/3/4 167/3/4 172/3/4
f 169/3/4 171/3/4 173/3/4
f 173/3/4 171/3/4 174/3/4
f 171/2/4 172/2/4 175/2/4
f 174/3/4 171/3/4 175/3/4
f 172/4/4 168/4/4 176/4/4
f 175/2/4 172/2/4 176/2/4
f 176/4/4 168/4/4 177/4/4
f 178/4/4 179/4/4 180/4/4
f 180/4/4 179/4/4 181/4/4
f 182/3/4 183/3/4 185/3/4
f 185/3/4 183/3/4 186/3/4
f 182/3/4 185/3/4 187/3/4
f 185/2/4 186/2/4 187/2/4
f 186/3/4 183/3/4 188/3/4
f 187/2/4 186/2/4 188/2/4
f 182/3/4 187/3/4 189/3/4
f 187/3/4 188/3/4 189/3/4
f 183/4/4 184/4/4 190/4/4
f 189/3/4 188/3/4 190/3/4
f 188/3/4 183/3/4 190/3/4
f 190/4/4 184/4/4 191/4/4
f 194/3/5 193/3/5 192/3/5
f 195/3/5 193/3/5 194/3/5
f 200/3/5 197/3/5 196/3/5
f 201/2/5 198/2/5 197/2/5
f 201/3/5 197/3/5 200/3/5
f 202/2/5 198/2/5 201/2/5
f 203/3/5 199/3/5 198/3/5
f 203/2/5 198/2/5 202/2/5
f 204/2/5 202/2/5 201/2/5
f 204/2/5 201/2/5 200/2/5
f 205/3/5 203/3/5 202/3/5
f 205/2/5 202/2/5 204/2/5
f 206/3/5 199/3/5 203/3/5
f 206/3/5 203/3/5 205/3/5
f 211/2/5 208/2/5 207/2/5
f 212/3/5 210/3/5 209/3/5
f 212/2/5 208/2/5 211/2/5
f 212/3/5 209/3/5 208/3/5
f 213/3/5 210/3/5 212/3/5
f 216/4/5 215/4/5 214/4/5
f 217/4/5 215/4/5 216/4/5
f 218/1/6 219/1/6 221/1/6
f 219/1/6 220/1/6 221/1/6
f 221/1/6 220/1/6 222/1/6
f 222/1/6 220/1/6 223/1/6
f 224/4/6 225/4/6 227/4/6
f 225/4/6 226/4/6 227/4/6
f 227/4/6 226/4/6 228/4/6
f 224/4/6 227/4/6 229/4/6
f 228/4/6 226/4/6 230/4/6
f 224/4/6 229/4/6 231/4/6
f 229/4/6 230/4/6 231/4/6
f 230/4/6 226/4/6 232/4/6
f 231/4/6 230/4/6 232/4/6
f 233/2/6 234/2/6 238/2/6
f 234/2/6 235/2/6 238/2/6
f 236/3/6 237/3/6 239/3/6
f 238/2/6 235/2/6 239/2/6
f 235/3/6 236/3/6 239/3/6
f 239/3/6 237/3/6 240/3/6
f 241/2/6 242/2/6 244/2/6
f 244/2/6 242/2/6 245/2/6
f 241/2/6 244/2/6 246/2/6
f 246/2/6 244/2/6 247/2/6
f 245/2/6 242/2/6 248/2/6
f 242/3/6 243/3/6 249/3/6
f 248/2/6 242/2/6 249/2/6
f 249/3/6 243/3/6 250/3/6
f 251/4/6 252/4/6 253/4/6
f 253/4/6 252/4/6 254/4/6
