# MagicaVoxel @ Ephtracy

# group
o 

# material
mtllib Poutre1.mtl
usemtl palette

# normals
vn -1 0 0
vn 1 0 0
vn 0 0 1
vn 0 0 -1
vn 0 -1 0
vn 0 1 0

# texcoords
vt 0.896484 0.5
vt 0.927734 0.5
vt 0.939453 0.5
vt 0.943359 0.5
vt 0.970703 0.5

# verts
v -0.2 0 1
v -0.2 0 0.6
v -0.2 0.8 0.7
v -0.2 0.8 0.6
v -0.2 0.9 0.6
v -0.2 0.9 0.5
v -0.2 1 0.5
v -0.2 1 0.4
v -0.2 1.1 0.4
v -0.2 1.1 0.3
v -0.2 1.2 0.3
v -0.2 1.2 0.2
v -0.2 1.3 0.6
v -0.2 1.3 0.5
v -0.2 1.3 0.2
v -0.2 1.3 0.1
v -0.2 1.4 0.7
v -0.2 1.4 0.6
v -0.2 1.4 0.5
v -0.2 1.4 0.4
v -0.2 1.4 0.1
v -0.2 1.4 0
v -0.2 1.5 0.6
v -0.2 1.5 0.5
v -0.2 1.5 0.4
v -0.2 1.5 0
v -0.2 1.5 -1
v -0.2 1.9 0.6
v -0.2 1.9 0.5
v -0.2 1.9 -1
v -0.2 2 1
v -0.2 2 0.6
v 0.2 0 1
v 0.2 0 0.6
v 0.2 0.8 0.7
v 0.2 0.8 0.6
v 0.2 0.9 0.6
v 0.2 0.9 0.5
v 0.2 1 0.5
v 0.2 1 0.4
v 0.2 1.1 0.4
v 0.2 1.1 0.3
v 0.2 1.2 0.3
v 0.2 1.2 0.2
v 0.2 1.3 0.6
v 0.2 1.3 0.5
v 0.2 1.3 0.2
v 0.2 1.3 0.1
v 0.2 1.4 0.7
v 0.2 1.4 0.6
v 0.2 1.4 0.5
v 0.2 1.4 0.4
v 0.2 1.4 0.1
v 0.2 1.4 0
v 0.2 1.5 0.6
v 0.2 1.5 0.5
v 0.2 1.5 0.4
v 0.2 1.5 0
v 0.2 1.5 -1
v 0.2 1.9 0.6
v 0.2 1.9 0.5
v 0.2 1.9 -1
v 0.2 2 1
v 0.2 2 0.6
v -0.2 0 1
v -0.2 2 1
v 0.2 0 1
v 0.2 2 1
v -0.2 1.3 0.5
v -0.2 1.4 0.5
v 0.2 1.3 0.5
v 0.2 1.4 0.5
v -0.2 1.4 0.4
v -0.2 1.5 0.4
v 0.2 1.4 0.4
v 0.2 1.5 0.4
v -0.2 0 0.6
v -0.2 0.8 0.6
v -0.2 0.9 0.6
v -0.2 1.3 0.6
v -0.2 1.4 0.6
v -0.2 1.5 0.6
v -0.2 1.9 0.6
v -0.2 2 0.6
v 0.2 0 0.6
v 0.2 0.8 0.6
v 0.2 0.9 0.6
v 0.2 1.3 0.6
v 0.2 1.4 0.6
v 0.2 1.5 0.6
v 0.2 1.9 0.6
v 0.2 2 0.6
v -0.2 0.9 0.5
v -0.2 1 0.5
v 0.2 0.9 0.5
v 0.2 1 0.5
v -0.2 1 0.4
v -0.2 1.1 0.4
v 0.2 1 0.4
v 0.2 1.1 0.4
v -0.2 1.1 0.3
v -0.2 1.2 0.3
v 0.2 1.1 0.3
v 0.2 1.2 0.3
v -0.2 1.2 0.2
v -0.2 1.3 0.2
v 0.2 1.2 0.2
v 0.2 1.3 0.2
v -0.2 1.3 0.1
v -0.2 1.4 0.1
v 0.2 1.3 0.1
v 0.2 1.4 0.1
v -0.2 1.4 0
v -0.2 1.5 0
v 0.2 1.4 0
v 0.2 1.5 0
v -0.2 1.5 -1
v -0.2 1.9 -1
v -0.1 1.6 -1
v -0.1 1.8 -1
v 0.1 1.6 -1
v 0.1 1.8 -1
v 0.2 1.5 -1
v 0.2 1.9 -1
v -0.2 0 1
v 0.2 0 1
v -0.1 0 0.9
v 0.1 0 0.9
v -0.1 0 0.7
v 0.1 0 0.7
v -0.2 0 0.6
v 0.2 0 0.6
v -0.2 0.9 0.6
v 0.2 0.9 0.6
v -0.2 0.9 0.5
v 0.2 0.9 0.5
v -0.2 1 0.5
v 0.2 1 0.5
v -0.2 1 0.4
v 0.2 1 0.4
v -0.2 1.1 0.4
v 0.2 1.1 0.4
v -0.2 1.1 0.3
v 0.2 1.1 0.3
v -0.2 1.2 0.3
v 0.2 1.2 0.3
v -0.2 1.2 0.2
v 0.2 1.2 0.2
v -0.2 1.3 0.2
v 0.2 1.3 0.2
v -0.2 1.3 0.1
v 0.2 1.3 0.1
v -0.2 1.4 0.1
v 0.2 1.4 0.1
v -0.2 1.4 0
v 0.2 1.4 0
v -0.2 1.5 0.6
v 0.2 1.5 0.6
v -0.2 1.5 0.5
v 0.2 1.5 0.5
v -0.2 1.5 0.4
v 0.2 1.5 0.4
v -0.2 1.5 0
v 0.2 1.5 0
v -0.2 1.5 -1
v 0.2 1.5 -1
v -0.2 1.3 0.6
v 0.2 1.3 0.6
v -0.2 1.3 0.5
v 0.2 1.3 0.5
v -0.2 1.4 0.5
v 0.2 1.4 0.5
v -0.2 1.4 0.4
v 0.2 1.4 0.4
v -0.2 1.9 0.6
v 0.2 1.9 0.6
v -0.2 1.9 0.5
v 0.2 1.9 0.5
v -0.2 1.9 -1
v 0.2 1.9 -1
v -0.2 2 1
v 0.2 2 1
v -0.1 2 0.9
v 0.1 2 0.9
v -0.1 2 0.7
v 0.1 2 0.7
v -0.2 2 0.6
v 0.2 2 0.6

# faces
f 3/4/1 2/4/1 1/4/1
f 4/4/1 2/4/1 3/4/1
f 5/5/1 4/5/1 3/5/1
f 7/3/1 6/3/1 5/3/1
f 9/3/1 8/3/1 7/3/1
f 11/3/1 10/3/1 9/3/1
f 13/5/1 5/5/1 3/5/1
f 13/3/1 12/3/1 11/3/1
f 13/3/1 11/3/1 9/3/1
f 13/3/1 9/3/1 7/3/1
f 13/3/1 7/3/1 5/3/1
f 14/3/1 12/3/1 13/3/1
f 15/3/1 12/3/1 14/3/1
f 17/4/1 3/4/1 1/4/1
f 17/5/1 13/5/1 3/5/1
f 18/5/1 13/5/1 17/5/1
f 19/3/1 16/3/1 15/3/1
f 19/3/1 15/3/1 14/3/1
f 20/3/1 16/3/1 19/3/1
f 21/3/1 16/3/1 20/3/1
f 23/4/1 18/4/1 17/4/1
f 25/3/1 22/3/1 21/3/1
f 25/3/1 21/3/1 20/3/1
f 26/3/1 22/3/1 25/3/1
f 28/5/1 24/5/1 23/5/1
f 28/4/1 23/4/1 17/4/1
f 29/4/1 27/4/1 26/4/1
f 29/5/1 24/5/1 28/5/1
f 29/4/1 26/4/1 25/4/1
f 29/4/1 25/4/1 24/4/1
f 30/4/1 27/4/1 29/4/1
f 31/4/1 28/4/1 17/4/1
f 31/4/1 17/4/1 1/4/1
f 32/4/1 28/4/1 31/4/1
f 33/4/2 34/4/2 35/4/2
f 35/4/2 34/4/2 36/4/2
f 35/5/2 36/5/2 37/5/2
f 37/3/2 38/3/2 39/3/2
f 39/3/2 40/3/2 41/3/2
f 41/3/2 42/3/2 43/3/2
f 35/5/2 37/5/2 45/5/2
f 43/3/2 44/3/2 45/3/2
f 41/3/2 43/3/2 45/3/2
f 39/3/2 41/3/2 45/3/2
f 37/3/2 39/3/2 45/3/2
f 45/3/2 44/3/2 46/3/2
f 46/3/2 44/3/2 47/3/2
f 33/4/2 35/4/2 49/4/2
f 35/5/2 45/5/2 49/5/2
f 49/5/2 45/5/2 50/5/2
f 47/3/2 48/3/2 51/3/2
f 46/3/2 47/3/2 51/3/2
f 51/3/2 48/3/2 52/3/2
f 52/3/2 48/3/2 53/3/2
f 49/4/2 50/4/2 55/4/2
f 53/3/2 54/3/2 57/3/2
f 52/3/2 53/3/2 57/3/2
f 57/3/2 54/3/2 58/3/2
f 55/5/2 56/5/2 60/5/2
f 49/4/2 55/4/2 60/4/2
f 58/4/2 59/4/2 61/4/2
f 60/5/2 56/5/2 61/5/2
f 57/4/2 58/4/2 61/4/2
f 56/4/2 57/4/2 61/4/2
f 61/4/2 59/4/2 62/4/2
f 49/4/2 60/4/2 63/4/2
f 33/4/2 49/4/2 63/4/2
f 63/4/2 60/4/2 64/4/2
f 67/4/3 66/4/3 65/4/3
f 68/4/3 66/4/3 67/4/3
f 71/3/3 70/3/3 69/3/3
f 72/3/3 70/3/3 71/3/3
f 75/3/3 74/3/3 73/3/3
f 76/3/3 74/3/3 75/3/3
f 77/4/4 78/4/4 85/4/4
f 78/5/4 79/5/4 86/5/4
f 85/4/4 78/4/4 86/4/4
f 86/5/4 79/5/4 87/5/4
f 80/5/4 81/5/4 88/5/4
f 81/4/4 82/4/4 89/4/4
f 88/5/4 81/5/4 89/5/4
f 89/4/4 82/4/4 90/4/4
f 83/4/4 84/4/4 91/4/4
f 91/4/4 84/4/4 92/4/4
f 93/3/4 94/3/4 95/3/4
f 95/3/4 94/3/4 96/3/4
f 97/3/4 98/3/4 99/3/4
f 99/3/4 98/3/4 100/3/4
f 101/3/4 102/3/4 103/3/4
f 103/3/4 102/3/4 104/3/4
f 105/3/4 106/3/4 107/3/4
f 107/3/4 106/3/4 108/3/4
f 109/3/4 110/3/4 111/3/4
f 111/3/4 110/3/4 112/3/4
f 113/3/4 114/3/4 115/3/4
f 115/3/4 114/3/4 116/3/4
f 117/4/4 118/4/4 119/4/4
f 119/4/4 118/4/4 120/4/4
f 117/4/4 119/4/4 121/4/4
f 119/2/4 120/2/4 121/2/4
f 120/4/4 118/4/4 122/4/4
f 121/2/4 120/2/4 122/2/4
f 117/4/4 121/4/4 123/4/4
f 121/4/4 122/4/4 123/4/4
f 122/4/4 118/4/4 124/4/4
f 123/4/4 122/4/4 124/4/4
f 127/4/5 126/4/5 125/4/5
f 128/4/5 126/4/5 127/4/5
f 129/4/5 127/4/5 125/4/5
f 129/1/5 128/1/5 127/1/5
f 130/4/5 126/4/5 128/4/5
f 130/1/5 128/1/5 129/1/5
f 131/4/5 129/4/5 125/4/5
f 131/4/5 130/4/5 129/4/5
f 132/4/5 126/4/5 130/4/5
f 132/4/5 130/4/5 131/4/5
f 135/3/5 134/3/5 133/3/5
f 136/3/5 134/3/5 135/3/5
f 139/3/5 138/3/5 137/3/5
f 140/3/5 138/3/5 139/3/5
f 143/3/5 142/3/5 141/3/5
f 144/3/5 142/3/5 143/3/5
f 147/3/5 146/3/5 145/3/5
f 148/3/5 146/3/5 147/3/5
f 151/3/5 150/3/5 149/3/5
f 152/3/5 150/3/5 151/3/5
f 155/3/5 154/3/5 153/3/5
f 156/3/5 154/3/5 155/3/5
f 159/5/5 158/5/5 157/5/5
f 160/5/5 158/5/5 159/5/5
f 161/4/5 160/4/5 159/4/5
f 162/4/5 160/4/5 161/4/5
f 165/4/5 164/4/5 163/4/5
f 166/4/5 164/4/5 165/4/5
f 167/3/6 168/3/6 169/3/6
f 169/3/6 168/3/6 170/3/6
f 171/3/6 172/3/6 173/3/6
f 173/3/6 172/3/6 174/3/6
f 175/5/6 176/5/6 177/5/6
f 177/5/6 176/5/6 178/5/6
f 177/4/6 178/4/6 179/4/6
f 179/4/6 178/4/6 180/4/6
f 181/4/6 182/4/6 183/4/6
f 183/4/6 182/4/6 184/4/6
f 181/4/6 183/4/6 185/4/6
f 183/1/6 184/1/6 185/1/6
f 184/4/6 182/4/6 186/4/6
f 185/1/6 184/1/6 186/1/6
f 181/4/6 185/4/6 187/4/6
f 185/4/6 186/4/6 187/4/6
f 186/4/6 182/4/6 188/4/6
f 187/4/6 186/4/6 188/4/6
