# MagicaVoxel @ Ephtracy

# group
o 

# material
mtllib Poutre2.mtl
usemtl palette

# normals
vn -1 0 0
vn 1 0 0
vn 0 0 1
vn 0 0 -1
vn 0 -1 0
vn 0 1 0

# texcoords
vt 0.927734 0.5
vt 0.939453 0.5
vt 0.943359 0.5

# verts
v -0.2 1.5 1
v -0.2 1.5 -1
v -0.2 1.9 1
v -0.2 1.9 -1
v 0.2 1.5 1
v 0.2 1.5 -1
v 0.2 1.9 1
v 0.2 1.9 -1
v -0.2 1.5 1
v -0.2 1.9 1
v -0.1 1.6 1
v -0.1 1.8 1
v 0.1 1.6 1
v 0.1 1.8 1
v 0.2 1.5 1
v 0.2 1.9 1
v -0.2 1.5 -1
v -0.2 1.9 -1
v -0.1 1.6 -1
v -0.1 1.8 -1
v 0.1 1.6 -1
v 0.1 1.8 -1
v 0.2 1.5 -1
v 0.2 1.9 -1
v -0.2 1.5 1
v 0.2 1.5 1
v -0.2 1.5 -1
v 0.2 1.5 -1
v -0.2 1.9 1
v 0.2 1.9 1
v -0.2 1.9 -1
v 0.2 1.9 -1

# faces
f 3/3/1 2/3/1 1/3/1
f 4/3/1 2/3/1 3/3/1
f 5/3/2 6/3/2 7/3/2
f 7/3/2 6/3/2 8/3/2
f 11/3/3 10/3/3 9/3/3
f 12/3/3 10/3/3 11/3/3
f 13/3/3 11/3/3 9/3/3
f 13/1/3 12/1/3 11/1/3
f 14/3/3 10/3/3 12/3/3
f 14/1/3 12/1/3 13/1/3
f 15/3/3 13/3/3 9/3/3
f 15/3/3 14/3/3 13/3/3
f 16/3/3 10/3/3 14/3/3
f 16/3/3 14/3/3 15/3/3
f 17/3/4 18/3/4 19/3/4
f 19/3/4 18/3/4 20/3/4
f 17/3/4 19/3/4 21/3/4
f 19/1/4 20/1/4 21/1/4
f 20/3/4 18/3/4 22/3/4
f 21/1/4 20/1/4 22/1/4
f 17/3/4 21/3/4 23/3/4
f 21/3/4 22/3/4 23/3/4
f 22/3/4 18/3/4 24/3/4
f 23/3/4 22/3/4 24/3/4
f 27/3/5 26/3/5 25/3/5
f 28/3/5 26/3/5 27/3/5
f 29/3/6 30/3/6 31/3/6
f 31/3/6 30/3/6 32/3/6
