# MagicaVoxel @ Ephtracy

# group
o 

# material
mtllib Rail1.mtl
usemtl palette

# normals
vn -1 0 0
vn 1 0 0
vn 0 0 1
vn 0 0 -1
vn 0 -1 0
vn 0 1 0

# texcoords
vt 0.939453 0.5
vt 0.970703 0.5

# verts
v -0.8 0 0.5
v -0.8 0 -1
v -0.8 0.2 0.5
v -0.8 0.2 -1
v -0.7 0.2 0.4
v -0.7 0.2 0.2
v -0.7 0.3 0.4
v -0.7 0.3 0.2
v 0.6 0 0.5
v 0.6 0 0.1
v 0.6 0 -0.1
v 0.6 0 -0.3
v 0.6 0 -0.5
v 0.6 0 -0.7
v 0.6 0 -0.9
v 0.6 0 -1
v 0.6 0.1 0.4
v 0.6 0.1 0.2
v 0.6 0.1 0.1
v 0.6 0.1 -0.1
v 0.6 0.1 -0.3
v 0.6 0.1 -0.5
v 0.6 0.1 -0.7
v 0.6 0.1 -0.9
v 0.6 0.2 0.5
v 0.6 0.2 0.4
v 0.6 0.2 0.2
v 0.6 0.2 -1
v -0.6 0 0.5
v -0.6 0 0.1
v -0.6 0 -0.1
v -0.6 0 -0.3
v -0.6 0 -0.5
v -0.6 0 -0.7
v -0.6 0 -0.9
v -0.6 0 -1
v -0.6 0.1 0.4
v -0.6 0.1 0.2
v -0.6 0.1 0.1
v -0.6 0.1 -0.1
v -0.6 0.1 -0.3
v -0.6 0.1 -0.5
v -0.6 0.1 -0.7
v -0.6 0.1 -0.9
v -0.6 0.2 0.5
v -0.6 0.2 0.4
v -0.6 0.2 0.2
v -0.6 0.2 -1
v 0.7 0.2 0.4
v 0.7 0.2 0.2
v 0.7 0.3 0.4
v 0.7 0.3 0.2
v 0.8 0 0.5
v 0.8 0 -1
v 0.8 0.2 0.5
v 0.8 0.2 -1
v -0.8 0 0.5
v -0.8 0.2 0.5
v -0.6 0 0.5
v -0.6 0.2 0.5
v 0.6 0 0.5
v 0.6 0.2 0.5
v 0.8 0 0.5
v 0.8 0.2 0.5
v -0.7 0.2 0.4
v -0.7 0.3 0.4
v -0.6 0.1 0.4
v -0.6 0.2 0.4
v 0.6 0.1 0.4
v 0.6 0.2 0.4
v 0.7 0.2 0.4
v 0.7 0.3 0.4
v -0.6 0 0.1
v -0.6 0.1 0.1
v 0.6 0 0.1
v 0.6 0.1 0.1
v -0.6 0 -0.3
v -0.6 0.1 -0.3
v 0.6 0 -0.3
v 0.6 0.1 -0.3
v -0.6 0 -0.7
v -0.6 0.1 -0.7
v 0.6 0 -0.7
v 0.6 0.1 -0.7
v -0.7 0.2 0.2
v -0.7 0.3 0.2
v -0.6 0.1 0.2
v -0.6 0.2 0.2
v 0.6 0.1 0.2
v 0.6 0.2 0.2
v 0.7 0.2 0.2
v 0.7 0.3 0.2
v -0.6 0 -0.1
v -0.6 0.1 -0.1
v 0.6 0 -0.1
v 0.6 0.1 -0.1
v -0.6 0 -0.5
v -0.6 0.1 -0.5
v 0.6 0 -0.5
v 0.6 0.1 -0.5
v -0.6 0 -0.9
v -0.6 0.1 -0.9
v 0.6 0 -0.9
v 0.6 0.1 -0.9
v -0.8 0 -1
v -0.8 0.2 -1
v -0.6 0 -1
v -0.6 0.2 -1
v 0.6 0 -1
v 0.6 0.2 -1
v 0.8 0 -1
v 0.8 0.2 -1
v -0.8 0 0.5
v -0.6 0 0.5
v 0.6 0 0.5
v 0.8 0 0.5
v -0.6 0 0.1
v 0.6 0 0.1
v -0.6 0 -0.1
v 0.6 0 -0.1
v -0.6 0 -0.3
v 0.6 0 -0.3
v -0.6 0 -0.5
v 0.6 0 -0.5
v -0.6 0 -0.7
v 0.6 0 -0.7
v -0.6 0 -0.9
v 0.6 0 -0.9
v -0.8 0 -1
v -0.6 0 -1
v 0.6 0 -1
v 0.8 0 -1
v -0.6 0.1 0.4
v 0.6 0.1 0.4
v -0.6 0.1 0.2
v 0.6 0.1 0.2
v -0.6 0.1 0.1
v 0.6 0.1 0.1
v -0.6 0.1 -0.1
v 0.6 0.1 -0.1
v -0.6 0.1 -0.3
v 0.6 0.1 -0.3
v -0.6 0.1 -0.5
v 0.6 0.1 -0.5
v -0.6 0.1 -0.7
v 0.6 0.1 -0.7
v -0.6 0.1 -0.9
v 0.6 0.1 -0.9
v -0.8 0.2 0.5
v -0.6 0.2 0.5
v 0.6 0.2 0.5
v 0.8 0.2 0.5
v -0.7 0.2 0.4
v -0.6 0.2 0.4
v 0.6 0.2 0.4
v 0.7 0.2 0.4
v -0.7 0.2 0.2
v -0.6 0.2 0.2
v 0.6 0.2 0.2
v 0.7 0.2 0.2
v -0.8 0.2 -1
v -0.6 0.2 -1
v 0.6 0.2 -1
v 0.8 0.2 -1
v -0.7 0.3 0.4
v 0.7 0.3 0.4
v -0.7 0.3 0.2
v 0.7 0.3 0.2

# faces
f 3/2/1 2/2/1 1/2/1
f 4/2/1 2/2/1 3/2/1
f 7/2/1 6/2/1 5/2/1
f 8/2/1 6/2/1 7/2/1
f 17/2/1 10/2/1 9/2/1
f 18/2/1 10/2/1 17/2/1
f 19/2/1 10/2/1 18/2/1
f 20/2/1 12/2/1 11/2/1
f 21/2/1 12/2/1 20/2/1
f 22/2/1 14/2/1 13/2/1
f 23/2/1 14/2/1 22/2/1
f 24/2/1 16/2/1 15/2/1
f 25/2/1 17/2/1 9/2/1
f 26/2/1 17/2/1 25/2/1
f 27/2/1 23/2/1 22/2/1
f 27/2/1 19/2/1 18/2/1
f 27/2/1 21/2/1 20/2/1
f 27/2/1 24/2/1 23/2/1
f 27/2/1 22/2/1 21/2/1
f 27/2/1 20/2/1 19/2/1
f 28/2/1 16/2/1 24/2/1
f 28/2/1 24/2/1 27/2/1
f 29/2/2 30/2/2 37/2/2
f 37/2/2 30/2/2 38/2/2
f 38/2/2 30/2/2 39/2/2
f 31/2/2 32/2/2 40/2/2
f 40/2/2 32/2/2 41/2/2
f 33/2/2 34/2/2 42/2/2
f 42/2/2 34/2/2 43/2/2
f 35/2/2 36/2/2 44/2/2
f 29/2/2 37/2/2 45/2/2
f 45/2/2 37/2/2 46/2/2
f 42/2/2 43/2/2 47/2/2
f 38/2/2 39/2/2 47/2/2
f 40/2/2 41/2/2 47/2/2
f 43/2/2 44/2/2 47/2/2
f 41/2/2 42/2/2 47/2/2
f 39/2/2 40/2/2 47/2/2
f 44/2/2 36/2/2 48/2/2
f 47/2/2 44/2/2 48/2/2
f 49/2/2 50/2/2 51/2/2
f 51/2/2 50/2/2 52/2/2
f 53/2/2 54/2/2 55/2/2
f 55/2/2 54/2/2 56/2/2
f 59/2/3 58/2/3 57/2/3
f 60/2/3 58/2/3 59/2/3
f 63/2/3 62/2/3 61/2/3
f 64/2/3 62/2/3 63/2/3
f 68/2/3 66/2/3 65/2/3
f 69/2/3 68/2/3 67/2/3
f 70/2/3 66/2/3 68/2/3
f 70/2/3 68/2/3 69/2/3
f 71/2/3 66/2/3 70/2/3
f 72/2/3 66/2/3 71/2/3
f 75/1/3 74/1/3 73/1/3
f 76/1/3 74/1/3 75/1/3
f 79/1/3 78/1/3 77/1/3
f 80/1/3 78/1/3 79/1/3
f 83/1/3 82/1/3 81/1/3
f 84/1/3 82/1/3 83/1/3
f 85/2/4 86/2/4 88/2/4
f 87/2/4 88/2/4 89/2/4
f 88/2/4 86/2/4 90/2/4
f 89/2/4 88/2/4 90/2/4
f 90/2/4 86/2/4 91/2/4
f 91/2/4 86/2/4 92/2/4
f 93/1/4 94/1/4 95/1/4
f 95/1/4 94/1/4 96/1/4
f 97/1/4 98/1/4 99/1/4
f 99/1/4 98/1/4 100/1/4
f 101/1/4 102/1/4 103/1/4
f 103/1/4 102/1/4 104/1/4
f 105/2/4 106/2/4 107/2/4
f 107/2/4 106/2/4 108/2/4
f 109/2/4 110/2/4 111/2/4
f 111/2/4 110/2/4 112/2/4
f 117/2/5 114/2/5 113/2/5
f 118/2/5 116/2/5 115/2/5
f 119/2/5 117/2/5 113/2/5
f 119/1/5 118/1/5 117/1/5
f 120/2/5 116/2/5 118/2/5
f 120/1/5 118/1/5 119/1/5
f 121/2/5 119/2/5 113/2/5
f 122/2/5 116/2/5 120/2/5
f 123/2/5 121/2/5 113/2/5
f 123/1/5 122/1/5 121/1/5
f 124/2/5 116/2/5 122/2/5
f 124/1/5 122/1/5 123/1/5
f 125/2/5 123/2/5 113/2/5
f 126/2/5 116/2/5 124/2/5
f 127/2/5 125/2/5 113/2/5
f 127/1/5 126/1/5 125/1/5
f 128/2/5 116/2/5 126/2/5
f 128/1/5 126/1/5 127/1/5
f 129/2/5 127/2/5 113/2/5
f 130/2/5 127/2/5 129/2/5
f 131/2/5 116/2/5 128/2/5
f 132/2/5 116/2/5 131/2/5
f 135/2/5 134/2/5 133/2/5
f 136/2/5 134/2/5 135/2/5
f 137/1/6 138/1/6 139/1/6
f 139/1/6 138/1/6 140/1/6
f 141/1/6 142/1/6 143/1/6
f 143/1/6 142/1/6 144/1/6
f 145/1/6 146/1/6 147/1/6
f 147/1/6 146/1/6 148/1/6
f 149/2/6 150/2/6 153/2/6
f 153/2/6 150/2/6 154/2/6
f 151/2/6 152/2/6 155/2/6
f 155/2/6 152/2/6 156/2/6
f 149/2/6 153/2/6 157/2/6
f 156/2/6 152/2/6 160/2/6
f 157/2/6 158/2/6 161/2/6
f 149/2/6 157/2/6 161/2/6
f 161/2/6 158/2/6 162/2/6
f 159/2/6 160/2/6 163/2/6
f 160/2/6 152/2/6 164/2/6
f 163/2/6 160/2/6 164/2/6
f 165/2/6 166/2/6 167/2/6
f 167/2/6 166/2/6 168/2/6
