# MagicaVoxel @ Ephtracy

# group
o 

# material
mtllib Rail14.mtl
usemtl palette

# normals
vn -1 0 0
vn 1 0 0
vn 0 0 1
vn 0 0 -1
vn 0 -1 0
vn 0 1 0

# texcoords
vt 0.939453 0.5
vt 0.970703 0.5

# verts
v -1 0 0.8
v -1 0 0.6
v -1 0 -0.6
v -1 0 -0.8
v -1 0.2 0.8
v -1 0.2 0.6
v -1 0.2 -0.6
v -1 0.2 -0.8
v -0.9 0 0.6
v -0.9 0 -0.6
v -0.9 0.1 0.6
v -0.9 0.1 -0.6
v -0.8 0 1
v -0.8 0 0.8
v -0.8 0.2 1
v -0.8 0.2 0.8
v -0.4 0 -0.4
v -0.4 0 -0.6
v -0.4 0.1 -0.4
v -0.4 0.1 -0.6
v -0.3 0 0.7
v -0.3 0 0.6
v -0.3 0.1 0.8
v -0.3 0.1 0.7
v -0.3 0.2 0.8
v -0.3 0.2 0.6
v -0.1 0 0.6
v -0.1 0 -0.3
v -0.1 0 -0.4
v -0.1 0.1 0.6
v -0.1 0.1 -0.3
v -0.1 0.1 -0.4
v 0.2 0 0.1
v 0.2 0 -0.3
v 0.2 0.1 0.1
v 0.2 0.1 -0.3
v 0.4 0 0.6
v 0.4 0 0.1
v 0.4 0.1 0.6
v 0.4 0.1 0.1
v 0.5 0 0.7
v 0.5 0 0.6
v 0.5 0.1 0.8
v 0.5 0.1 0.7
v 0.5 0.1 0.6
v 0.5 0.2 0.8
v 0.5 0.2 0.6
v 0.6 0 1
v 0.6 0 0.9
v 0.6 0.1 0.9
v 0.6 0.1 0.8
v 0.6 0.2 1
v 0.6 0.2 0.8
v 0.7 0 0.6
v 0.7 0 -0.6
v 0.7 0.1 0.6
v 0.7 0.1 -0.6
v -0.7 0 0.6
v -0.7 0 -0.6
v -0.7 0.1 0.6
v -0.7 0.1 -0.6
v -0.6 0 1
v -0.6 0 0.9
v -0.6 0.1 0.9
v -0.6 0.1 0.8
v -0.6 0.2 1
v -0.6 0.2 0.8
v -0.5 0 0.7
v -0.5 0 0.6
v -0.5 0.1 0.8
v -0.5 0.1 0.7
v -0.5 0.2 0.8
v -0.5 0.2 0.6
v -0.1 0 -0.5
v -0.1 0 -0.6
v -0.1 0.1 -0.5
v -0.1 0.1 -0.6
v 0.1 0 0.6
v 0.1 0 -0.3
v 0.1 0.1 0.6
v 0.1 0.1 -0.3
v 0.2 0 -0.3
v 0.2 0 -0.5
v 0.2 0.1 -0.3
v 0.2 0.1 -0.5
v 0.3 0 0.7
v 0.3 0 0.6
v 0.3 0.1 0.8
v 0.3 0.1 0.7
v 0.3 0.2 0.8
v 0.3 0.2 0.6
v 0.4 0 0.1
v 0.4 0 -0.3
v 0.4 0.1 0.1
v 0.4 0.1 -0.3
v 0.6 0 0.6
v 0.6 0 0.1
v 0.6 0.1 0.6
v 0.6 0.1 0.1
v 0.8 0 1
v 0.8 0 0.8
v 0.8 0.2 1
v 0.8 0.2 0.8
v 0.9 0 0.6
v 0.9 0 -0.6
v 0.9 0.1 0.6
v 0.9 0.1 -0.6
v 1 0 0.8
v 1 0 0.6
v 1 0 -0.6
v 1 0 -0.8
v 1 0.2 0.8
v 1 0.2 0.6
v 1 0.2 -0.6
v 1 0.2 -0.8
v -0.8 0 1
v -0.8 0.2 1
v -0.6 0 1
v -0.6 0.2 1
v 0.6 0 1
v 0.6 0.2 1
v 0.8 0 1
v 0.8 0.2 1
v -0.6 0 0.9
v -0.6 0.1 0.9
v 0.6 0 0.9
v 0.6 0.1 0.9
v -1 0 0.8
v -1 0.2 0.8
v -0.8 0 0.8
v -0.8 0.2 0.8
v -0.6 0.1 0.8
v -0.6 0.2 0.8
v -0.5 0.1 0.8
v -0.5 0.2 0.8
v -0.3 0.1 0.8
v -0.3 0.2 0.8
v 0.3 0.1 0.8
v 0.3 0.2 0.8
v 0.5 0.1 0.8
v 0.5 0.2 0.8
v 0.6 0.1 0.8
v 0.6 0.2 0.8
v 0.8 0 0.8
v 0.8 0.2 0.8
v 1 0 0.8
v 1 0.2 0.8
v 0.4 0 0.6
v 0.4 0.1 0.6
v 0.5 0 0.6
v 0.5 0.1 0.6
v 0.2 0 0.1
v 0.2 0.1 0.1
v 0.4 0 0.1
v 0.4 0.1 0.1
v 0.1 0 -0.3
v 0.1 0.1 -0.3
v 0.2 0 -0.3
v 0.2 0.1 -0.3
v -0.4 0 -0.4
v -0.4 0.1 -0.4
v -0.1 0 -0.4
v -0.1 0.1 -0.4
v -1 0 -0.6
v -1 0.2 -0.6
v -0.9 0 -0.6
v -0.9 0.1 -0.6
v -0.7 0 -0.6
v -0.7 0.1 -0.6
v -0.4 0 -0.6
v -0.4 0.1 -0.6
v -0.1 0 -0.6
v -0.1 0.1 -0.6
v 0.7 0 -0.6
v 0.7 0.1 -0.6
v 0.9 0 -0.6
v 0.9 0.1 -0.6
v 1 0 -0.6
v 1 0.2 -0.6
v -0.5 0 0.7
v -0.5 0.1 0.7
v -0.3 0 0.7
v -0.3 0.1 0.7
v 0.3 0 0.7
v 0.3 0.1 0.7
v 0.5 0 0.7
v 0.5 0.1 0.7
v -1 0 0.6
v -1 0.2 0.6
v -0.9 0 0.6
v -0.9 0.1 0.6
v -0.7 0 0.6
v -0.7 0.1 0.6
v -0.5 0 0.6
v -0.5 0.2 0.6
v -0.3 0 0.6
v -0.3 0.2 0.6
v -0.1 0 0.6
v -0.1 0.1 0.6
v 0.1 0 0.6
v 0.1 0.1 0.6
v 0.3 0 0.6
v 0.3 0.2 0.6
v 0.5 0.1 0.6
v 0.5 0.2 0.6
v 0.6 0 0.6
v 0.6 0.1 0.6
v 0.7 0 0.6
v 0.7 0.1 0.6
v 0.9 0 0.6
v 0.9 0.1 0.6
v 1 0 0.6
v 1 0.2 0.6
v 0.4 0 0.1
v 0.4 0.1 0.1
v 0.6 0 0.1
v 0.6 0.1 0.1
v 0.2 0 -0.3
v 0.2 0.1 -0.3
v 0.4 0 -0.3
v 0.4 0.1 -0.3
v -0.1 0 -0.5
v -0.1 0.1 -0.5
v 0.2 0 -0.5
v 0.2 0.1 -0.5
v -1 0 -0.8
v -1 0.2 -0.8
v 1 0 -0.8
v 1 0.2 -0.8
v -0.8 0 1
v -0.6 0 1
v 0.6 0 1
v 0.8 0 1
v -0.6 0 0.9
v 0.6 0 0.9
v -1 0 0.8
v -0.8 0 0.8
v -0.6 0 0.8
v -0.5 0 0.8
v -0.3 0 0.8
v 0.3 0 0.8
v 0.5 0 0.8
v 0.6 0 0.8
v 0.8 0 0.8
v 1 0 0.8
v -0.5 0 0.7
v -0.3 0 0.7
v 0.3 0 0.7
v 0.5 0 0.7
v -1 0 0.6
v -0.9 0 0.6
v -0.7 0 0.6
v -0.5 0 0.6
v -0.3 0 0.6
v -0.1 0 0.6
v 0.1 0 0.6
v 0.3 0 0.6
v 0.4 0 0.6
v 0.5 0 0.6
v 0.6 0 0.6
v 0.7 0 0.6
v 0.9 0 0.6
v 1 0 0.6
v 0.2 0 0.1
v 0.4 0 0.1
v 0.6 0 0.1
v -0.1 0 -0.3
v 0.1 0 -0.3
v 0.2 0 -0.3
v 0.4 0 -0.3
v -0.4 0 -0.4
v -0.1 0 -0.4
v -0.1 0 -0.5
v 0.2 0 -0.5
v -1 0 -0.6
v -0.9 0 -0.6
v -0.7 0 -0.6
v -0.4 0 -0.6
v -0.1 0 -0.6
v 0.7 0 -0.6
v 0.9 0 -0.6
v 1 0 -0.6
v -1 0 -0.8
v 1 0 -0.8
v -0.6 0.1 0.9
v 0.6 0.1 0.9
v -0.6 0.1 0.8
v -0.5 0.1 0.8
v -0.3 0.1 0.8
v 0.3 0.1 0.8
v 0.5 0.1 0.8
v 0.6 0.1 0.8
v -0.5 0.1 0.7
v -0.3 0.1 0.7
v 0.3 0.1 0.7
v 0.5 0.1 0.7
v -0.9 0.1 0.6
v -0.7 0.1 0.6
v -0.1 0.1 0.6
v 0.1 0.1 0.6
v 0.4 0.1 0.6
v 0.5 0.1 0.6
v 0.6 0.1 0.6
v 0.7 0.1 0.6
v 0.9 0.1 0.6
v 0.2 0.1 0.1
v 0.4 0.1 0.1
v 0.6 0.1 0.1
v -0.1 0.1 -0.3
v 0.1 0.1 -0.3
v 0.2 0.1 -0.3
v 0.4 0.1 -0.3
v -0.4 0.1 -0.4
v -0.1 0.1 -0.4
v -0.1 0.1 -0.5
v 0.2 0.1 -0.5
v -0.9 0.1 -0.6
v -0.7 0.1 -0.6
v -0.4 0.1 -0.6
v -0.1 0.1 -0.6
v 0.7 0.1 -0.6
v 0.9 0.1 -0.6
v -0.8 0.2 1
v -0.6 0.2 1
v 0.6 0.2 1
v 0.8 0.2 1
v -1 0.2 0.8
v -0.8 0.2 0.8
v -0.6 0.2 0.8
v -0.5 0.2 0.8
v -0.3 0.2 0.8
v 0.3 0.2 0.8
v 0.5 0.2 0.8
v 0.6 0.2 0.8
v 0.8 0.2 0.8
v 1 0.2 0.8
v -1 0.2 0.6
v -0.5 0.2 0.6
v -0.3 0.2 0.6
v 0.3 0.2 0.6
v 0.5 0.2 0.6
v 1 0.2 0.6
v -1 0.2 -0.6
v 1 0.2 -0.6
v -1 0.2 -0.8
v 1 0.2 -0.8

# faces
f 5/2/1 2/2/1 1/2/1
f 6/2/1 2/2/1 5/2/1
f 7/2/1 4/2/1 3/2/1
f 8/2/1 4/2/1 7/2/1
f 11/1/1 10/1/1 9/1/1
f 12/1/1 10/1/1 11/1/1
f 15/2/1 14/2/1 13/2/1
f 16/2/1 14/2/1 15/2/1
f 19/2/1 18/2/1 17/2/1
f 20/2/1 18/2/1 19/2/1
f 24/2/1 22/2/1 21/2/1
f 25/2/1 24/2/1 23/2/1
f 26/2/1 22/2/1 24/2/1
f 26/2/1 24/2/1 25/2/1
f 30/1/1 28/1/1 27/1/1
f 31/2/1 29/2/1 28/2/1
f 31/1/1 28/1/1 30/1/1
f 32/2/1 29/2/1 31/2/1
f 35/2/1 34/2/1 33/2/1
f 36/2/1 34/2/1 35/2/1
f 39/2/1 38/2/1 37/2/1
f 40/2/1 38/2/1 39/2/1
f 44/2/1 42/2/1 41/2/1
f 45/2/1 42/2/1 44/2/1
f 46/2/1 44/2/1 43/2/1
f 46/2/1 45/2/1 44/2/1
f 47/2/1 45/2/1 46/2/1
f 50/2/1 49/2/1 48/2/1
f 52/2/1 50/2/1 48/2/1
f 52/2/1 51/2/1 50/2/1
f 53/2/1 51/2/1 52/2/1
f 56/1/1 55/1/1 54/1/1
f 57/1/1 55/1/1 56/1/1
f 58/1/2 59/1/2 60/1/2
f 60/1/2 59/1/2 61/1/2
f 62/2/2 63/2/2 64/2/2
f 62/2/2 64/2/2 66/2/2
f 64/2/2 65/2/2 66/2/2
f 66/2/2 65/2/2 67/2/2
f 68/2/2 69/2/2 71/2/2
f 70/2/2 71/2/2 72/2/2
f 71/2/2 69/2/2 73/2/2
f 72/2/2 71/2/2 73/2/2
f 74/2/2 75/2/2 76/2/2
f 76/2/2 75/2/2 77/2/2
f 78/1/2 79/1/2 80/1/2
f 80/1/2 79/1/2 81/1/2
f 82/2/2 83/2/2 84/2/2
f 84/2/2 83/2/2 85/2/2
f 86/2/2 87/2/2 89/2/2
f 88/2/2 89/2/2 90/2/2
f 89/2/2 87/2/2 91/2/2
f 90/2/2 89/2/2 91/2/2
f 92/2/2 93/2/2 94/2/2
f 94/2/2 93/2/2 95/2/2
f 96/2/2 97/2/2 98/2/2
f 98/2/2 97/2/2 99/2/2
f 100/2/2 101/2/2 102/2/2
f 102/2/2 101/2/2 103/2/2
f 104/1/2 105/1/2 106/1/2
f 106/1/2 105/1/2 107/1/2
f 108/2/2 109/2/2 112/2/2
f 112/2/2 109/2/2 113/2/2
f 110/2/2 111/2/2 114/2/2
f 114/2/2 111/2/2 115/2/2
f 118/2/3 117/2/3 116/2/3
f 119/2/3 117/2/3 118/2/3
f 122/2/3 121/2/3 120/2/3
f 123/2/3 121/2/3 122/2/3
f 126/1/3 125/1/3 124/1/3
f 127/1/3 125/1/3 126/1/3
f 130/2/3 129/2/3 128/2/3
f 131/2/3 129/2/3 130/2/3
f 134/2/3 133/2/3 132/2/3
f 135/2/3 133/2/3 134/2/3
f 138/2/3 137/2/3 136/2/3
f 139/2/3 137/2/3 138/2/3
f 142/2/3 141/2/3 140/2/3
f 143/2/3 141/2/3 142/2/3
f 146/2/3 145/2/3 144/2/3
f 147/2/3 145/2/3 146/2/3
f 150/2/3 149/2/3 148/2/3
f 151/2/3 149/2/3 150/2/3
f 154/2/3 153/2/3 152/2/3
f 155/2/3 153/2/3 154/2/3
f 158/2/3 157/2/3 156/2/3
f 159/2/3 157/2/3 158/2/3
f 162/2/3 161/2/3 160/2/3
f 163/2/3 161/2/3 162/2/3
f 166/2/3 165/2/3 164/2/3
f 167/2/3 165/2/3 166/2/3
f 169/2/3 165/2/3 167/2/3
f 170/2/3 169/2/3 168/2/3
f 171/2/3 165/2/3 169/2/3
f 171/2/3 169/2/3 170/2/3
f 173/2/3 165/2/3 171/2/3
f 174/2/3 173/2/3 172/2/3
f 175/2/3 165/2/3 173/2/3
f 175/2/3 173/2/3 174/2/3
f 177/2/3 165/2/3 175/2/3
f 178/2/3 177/2/3 176/2/3
f 179/2/3 165/2/3 177/2/3
f 179/2/3 177/2/3 178/2/3
f 180/1/4 181/1/4 182/1/4
f 182/1/4 181/1/4 183/1/4
f 184/1/4 185/1/4 186/1/4
f 186/1/4 185/1/4 187/1/4
f 188/2/4 189/2/4 190/2/4
f 190/2/4 189/2/4 191/2/4
f 191/2/4 189/2/4 193/2/4
f 192/2/4 193/2/4 194/2/4
f 193/2/4 189/2/4 195/2/4
f 194/2/4 193/2/4 195/2/4
f 196/2/4 197/2/4 198/2/4
f 198/2/4 197/2/4 199/2/4
f 199/2/4 197/2/4 201/2/4
f 200/2/4 201/2/4 202/2/4
f 201/2/4 197/2/4 203/2/4
f 202/2/4 201/2/4 203/2/4
f 204/2/4 205/2/4 207/2/4
f 206/2/4 207/2/4 208/2/4
f 207/2/4 205/2/4 209/2/4
f 208/2/4 207/2/4 209/2/4
f 209/2/4 205/2/4 211/2/4
f 210/2/4 211/2/4 212/2/4
f 211/2/4 205/2/4 213/2/4
f 212/2/4 211/2/4 213/2/4
f 214/2/4 215/2/4 216/2/4
f 216/2/4 215/2/4 217/2/4
f 218/2/4 219/2/4 220/2/4
f 220/2/4 219/2/4 221/2/4
f 222/2/4 223/2/4 224/2/4
f 224/2/4 223/2/4 225/2/4
f 226/2/4 227/2/4 228/2/4
f 228/2/4 227/2/4 229/2/4
f 234/2/5 231/2/5 230/2/5
f 235/2/5 233/2/5 232/2/5
f 237/2/5 234/2/5 230/2/5
f 238/1/5 235/1/5 234/1/5
f 238/2/5 234/2/5 237/2/5
f 239/1/5 235/1/5 238/1/5
f 240/1/5 235/1/5 239/1/5
f 241/1/5 235/1/5 240/1/5
f 242/1/5 235/1/5 241/1/5
f 243/2/5 233/2/5 235/2/5
f 243/1/5 235/1/5 242/1/5
f 244/2/5 233/2/5 243/2/5
f 246/2/5 237/2/5 236/2/5
f 246/2/5 238/2/5 237/2/5
f 246/2/5 239/2/5 238/2/5
f 246/1/5 240/1/5 239/1/5
f 247/2/5 241/2/5 240/2/5
f 247/1/5 240/1/5 246/1/5
f 248/1/5 242/1/5 241/1/5
f 248/2/5 241/2/5 247/2/5
f 249/2/5 245/2/5 244/2/5
f 249/1/5 242/1/5 248/1/5
f 249/2/5 244/2/5 243/2/5
f 249/2/5 243/2/5 242/2/5
f 250/2/5 246/2/5 236/2/5
f 251/2/5 246/2/5 250/2/5
f 252/2/5 246/2/5 251/2/5
f 253/2/5 246/2/5 252/2/5
f 254/2/5 248/2/5 247/2/5
f 255/2/5 248/2/5 254/2/5
f 256/2/5 248/2/5 255/2/5
f 257/2/5 248/2/5 256/2/5
f 259/2/5 245/2/5 249/2/5
f 260/2/5 245/2/5 259/2/5
f 261/2/5 245/2/5 260/2/5
f 262/2/5 245/2/5 261/2/5
f 263/2/5 245/2/5 262/2/5
f 265/2/5 260/2/5 259/2/5
f 265/2/5 259/2/5 258/2/5
f 266/2/5 260/2/5 265/2/5
f 267/1/5 256/1/5 255/1/5
f 268/1/5 256/1/5 267/1/5
f 269/2/5 265/2/5 264/2/5
f 270/2/5 265/2/5 269/2/5
f 272/2/5 268/2/5 267/2/5
f 272/2/5 269/2/5 268/2/5
f 273/2/5 269/2/5 272/2/5
f 273/2/5 272/2/5 271/2/5
f 274/2/5 269/2/5 273/2/5
f 276/1/5 252/1/5 251/1/5
f 277/1/5 252/1/5 276/1/5
f 278/2/5 273/2/5 271/2/5
f 279/2/5 273/2/5 278/2/5
f 280/1/5 262/1/5 261/1/5
f 281/1/5 262/1/5 280/1/5
f 283/2/5 279/2/5 278/2/5
f 283/2/5 282/2/5 281/2/5
f 283/2/5 281/2/5 280/2/5
f 283/2/5 280/2/5 279/2/5
f 283/2/5 278/2/5 277/2/5
f 283/2/5 276/2/5 275/2/5
f 283/2/5 277/2/5 276/2/5
f 284/2/5 282/2/5 283/2/5
f 285/1/6 286/1/6 287/1/6
f 287/1/6 286/1/6 288/1/6
f 288/1/6 286/1/6 289/1/6
f 289/1/6 286/1/6 290/1/6
f 290/1/6 286/1/6 291/1/6
f 291/1/6 286/1/6 292/1/6
f 288/1/6 289/1/6 293/1/6
f 293/1/6 289/1/6 294/1/6
f 290/1/6 291/1/6 295/1/6
f 295/1/6 291/1/6 296/1/6
f 302/2/6 303/2/6 307/2/6
f 301/2/6 302/2/6 307/2/6
f 307/2/6 303/2/6 308/2/6
f 299/1/6 300/1/6 309/1/6
f 309/1/6 300/1/6 310/1/6
f 306/2/6 307/2/6 311/2/6
f 311/2/6 307/2/6 312/2/6
f 309/2/6 310/2/6 314/2/6
f 310/2/6 311/2/6 314/2/6
f 314/2/6 311/2/6 315/2/6
f 313/2/6 314/2/6 315/2/6
f 315/2/6 311/2/6 316/2/6
f 297/1/6 298/1/6 317/1/6
f 317/1/6 298/1/6 318/1/6
f 313/2/6 315/2/6 319/2/6
f 319/2/6 315/2/6 320/2/6
f 304/1/6 305/1/6 321/1/6
f 321/1/6 305/1/6 322/1/6
f 323/2/6 324/2/6 328/2/6
f 328/2/6 324/2/6 329/2/6
f 325/2/6 326/2/6 334/2/6
f 334/2/6 326/2/6 335/2/6
f 327/2/6 328/2/6 337/2/6
f 328/2/6 329/2/6 337/2/6
f 329/2/6 330/2/6 337/2/6
f 337/2/6 330/2/6 338/2/6
f 331/2/6 332/2/6 339/2/6
f 339/2/6 332/2/6 340/2/6
f 335/2/6 336/2/6 341/2/6
f 334/2/6 335/2/6 341/2/6
f 333/2/6 334/2/6 341/2/6
f 341/2/6 336/2/6 342/2/6
f 343/2/6 344/2/6 345/2/6
f 345/2/6 344/2/6 346/2/6
