# MagicaVoxel @ Ephtracy

# group
o 

# material
mtllib Rail12.mtl
usemtl palette

# normals
vn -1 0 0
vn 1 0 0
vn 0 0 1
vn 0 0 -1
vn 0 -1 0
vn 0 1 0

# texcoords
vt 0.939453 0.5
vt 0.970703 0.5

# verts
v -0.8 0 1
v -0.8 0 -0.8
v -0.8 0.2 1
v -0.8 0.2 -0.8
v -0.5 0 -0.3
v -0.5 0 -0.4
v -0.5 0.1 -0.3
v -0.5 0.1 -0.4
v -0.4 0 -0.2
v -0.4 0 -0.3
v -0.4 0.1 -0.2
v -0.4 0.1 -0.3
v -0.3 0 -0.1
v -0.3 0 -0.2
v -0.3 0.1 -0.1
v -0.3 0.1 -0.2
v -0.2 0 0
v -0.2 0 -0.1
v -0.2 0.1 0
v -0.2 0.1 -0.1
v -0.1 0 0.1
v -0.1 0 0
v -0.1 0.1 0.1
v -0.1 0.1 0
v 5.96046e-08 0 0.2
v 5.96046e-08 0 0.1
v 5.96046e-08 0.1 0.2
v 5.96046e-08 0.1 0.1
v 0.1 0 0.3
v 0.1 0 0.2
v 0.1 0.1 0.3
v 0.1 0.1 0.2
v 0.2 0 0.4
v 0.2 0 0.3
v 0.2 0.1 0.4
v 0.2 0.1 0.3
v 0.3 0 0.5
v 0.3 0 0.4
v 0.3 0.1 0.5
v 0.3 0.1 0.4
v 0.4 0 0.6
v 0.4 0 0.5
v 0.4 0.1 0.6
v 0.4 0.1 0.5
v 0.6 0 1
v 0.6 0 0.9
v 0.6 0 0.7
v 0.6 0 0.6
v 0.6 0.1 0.9
v 0.6 0.1 0.7
v 0.6 0.1 0.6
v 0.6 0.2 1
v 0.6 0.2 0.6
v 0.7 0 0.6
v 0.7 0 -0.6
v 0.7 0.1 0.6
v 0.7 0.1 -0.6
v -0.6 0 1
v -0.6 0 0.9
v -0.6 0 0.7
v -0.6 0 -0.4
v -0.6 0.1 0.9
v -0.6 0.1 0.7
v -0.6 0.1 -0.4
v -0.6 0.1 -0.6
v -0.6 0.2 1
v -0.6 0.2 -0.6
v -0.4 0 -0.5
v -0.4 0 -0.6
v -0.4 0.1 -0.5
v -0.4 0.1 -0.6
v -0.3 0 -0.4
v -0.3 0 -0.5
v -0.3 0.1 -0.4
v -0.3 0.1 -0.5
v -0.2 0 -0.3
v -0.2 0 -0.4
v -0.2 0.1 -0.3
v -0.2 0.1 -0.4
v -0.1 0 -0.2
v -0.1 0 -0.3
v -0.1 0.1 -0.2
v -0.1 0.1 -0.3
v 5.96046e-08 0 -0.1
v 5.96046e-08 0 -0.2
v 5.96046e-08 0.1 -0.1
v 5.96046e-08 0.1 -0.2
v 0.1 0 0
v 0.1 0 -0.1
v 0.1 0.1 0
v 0.1 0.1 -0.1
v 0.2 0 0.1
v 0.2 0 0
v 0.2 0.1 0.1
v 0.2 0.1 0
v 0.3 0 0.2
v 0.3 0 0.1
v 0.3 0.1 0.2
v 0.3 0.1 0.1
v 0.4 0 0.3
v 0.4 0 0.2
v 0.4 0.1 0.3
v 0.4 0.1 0.2
v 0.5 0 0.4
v 0.5 0 0.3
v 0.5 0.1 0.4
v 0.5 0.1 0.3
v 0.6 0 0.6
v 0.6 0 0.4
v 0.6 0.1 0.6
v 0.6 0.1 0.4
v 0.8 0 1
v 0.8 0 0.8
v 0.8 0.2 1
v 0.8 0.2 0.8
v 0.9 0 0.6
v 0.9 0 -0.6
v 0.9 0.1 0.6
v 0.9 0.1 -0.6
v 1 0 0.8
v 1 0 0.6
v 1 0 -0.6
v 1 0 -0.8
v 1 0.2 0.8
v 1 0.2 0.6
v 1 0.2 -0.6
v 1 0.2 -0.8
v -0.8 0 1
v -0.8 0.2 1
v -0.6 0 1
v -0.6 0.2 1
v 0.6 0 1
v 0.6 0.2 1
v 0.8 0 1
v 0.8 0.2 1
v -0.6 0 0.9
v -0.6 0.1 0.9
v 0.6 0 0.9
v 0.6 0.1 0.9
v 0.8 0 0.8
v 0.8 0.2 0.8
v 1 0 0.8
v 1 0.2 0.8
v 0.4 0 0.6
v 0.4 0.1 0.6
v 0.6 0 0.6
v 0.6 0.1 0.6
v 0.3 0 0.5
v 0.3 0.1 0.5
v 0.4 0 0.5
v 0.4 0.1 0.5
v 0.2 0 0.4
v 0.2 0.1 0.4
v 0.3 0 0.4
v 0.3 0.1 0.4
v 0.1 0 0.3
v 0.1 0.1 0.3
v 0.2 0 0.3
v 0.2 0.1 0.3
v 5.96046e-08 0 0.2
v 5.96046e-08 0.1 0.2
v 0.1 0 0.2
v 0.1 0.1 0.2
v -0.1 0 0.1
v -0.1 0.1 0.1
v 5.96046e-08 0 0.1
v 5.96046e-08 0.1 0.1
v -0.2 0 0
v -0.2 0.1 0
v -0.1 0 0
v -0.1 0.1 0
v -0.3 0 -0.1
v -0.3 0.1 -0.1
v -0.2 0 -0.1
v -0.2 0.1 -0.1
v -0.4 0 -0.2
v -0.4 0.1 -0.2
v -0.3 0 -0.2
v -0.3 0.1 -0.2
v -0.5 0 -0.3
v -0.5 0.1 -0.3
v -0.4 0 -0.3
v -0.4 0.1 -0.3
v -0.6 0 -0.4
v -0.6 0.1 -0.4
v -0.5 0 -0.4
v -0.5 0.1 -0.4
v -0.6 0.1 -0.6
v -0.6 0.2 -0.6
v -0.4 0 -0.6
v -0.4 0.1 -0.6
v 0.7 0 -0.6
v 0.7 0.1 -0.6
v 0.9 0 -0.6
v 0.9 0.1 -0.6
v 1 0 -0.6
v 1 0.2 -0.6
v -0.6 0 0.7
v -0.6 0.1 0.7
v 0.6 0 0.7
v 0.6 0.1 0.7
v 0.6 0 0.6
v 0.6 0.1 0.6
v 0.6 0.2 0.6
v 0.7 0 0.6
v 0.7 0.1 0.6
v 0.9 0 0.6
v 0.9 0.1 0.6
v 1 0 0.6
v 1 0.2 0.6
v 0.5 0 0.4
v 0.5 0.1 0.4
v 0.6 0 0.4
v 0.6 0.1 0.4
v 0.4 0 0.3
v 0.4 0.1 0.3
v 0.5 0 0.3
v 0.5 0.1 0.3
v 0.3 0 0.2
v 0.3 0.1 0.2
v 0.4 0 0.2
v 0.4 0.1 0.2
v 0.2 0 0.1
v 0.2 0.1 0.1
v 0.3 0 0.1
v 0.3 0.1 0.1
v 0.1 0 0
v 0.1 0.1 0
v 0.2 0 0
v 0.2 0.1 0
v 5.96046e-08 0 -0.1
v 5.96046e-08 0.1 -0.1
v 0.1 0 -0.1
v 0.1 0.1 -0.1
v -0.1 0 -0.2
v -0.1 0.1 -0.2
v 5.96046e-08 0 -0.2
v 5.96046e-08 0.1 -0.2
v -0.2 0 -0.3
v -0.2 0.1 -0.3
v -0.1 0 -0.3
v -0.1 0.1 -0.3
v -0.3 0 -0.4
v -0.3 0.1 -0.4
v -0.2 0 -0.4
v -0.2 0.1 -0.4
v -0.4 0 -0.5
v -0.4 0.1 -0.5
v -0.3 0 -0.5
v -0.3 0.1 -0.5
v -0.8 0 -0.8
v -0.8 0.2 -0.8
v 1 0 -0.8
v 1 0.2 -0.8
v -0.8 0 1
v -0.6 0 1
v 0.6 0 1
v 0.8 0 1
v -0.6 0 0.9
v 0.6 0 0.9
v 0.8 0 0.8
v 1 0 0.8
v -0.6 0 0.7
v 0.6 0 0.7
v 0.4 0 0.6
v 0.6 0 0.6
v 0.7 0 0.6
v 0.9 0 0.6
v 1 0 0.6
v 0.3 0 0.5
v 0.4 0 0.5
v 0.2 0 0.4
v 0.3 0 0.4
v 0.5 0 0.4
v 0.6 0 0.4
v 0.1 0 0.3
v 0.2 0 0.3
v 0.4 0 0.3
v 0.5 0 0.3
v 5.96046e-08 0 0.2
v 0.1 0 0.2
v 0.3 0 0.2
v 0.4 0 0.2
v -0.1 0 0.1
v 5.96046e-08 0 0.1
v 0.2 0 0.1
v 0.3 0 0.1
v -0.2 0 0
v -0.1 0 0
v 0.1 0 0
v 0.2 0 0
v -0.3 0 -0.1
v -0.2 0 -0.1
v 5.96046e-08 0 -0.1
v 0.1 0 -0.1
v -0.4 0 -0.2
v -0.3 0 -0.2
v -0.1 0 -0.2
v 5.96046e-08 0 -0.2
v -0.5 0 -0.3
v -0.4 0 -0.3
v -0.2 0 -0.3
v -0.1 0 -0.3
v -0.6 0 -0.4
v -0.5 0 -0.4
v -0.3 0 -0.4
v -0.2 0 -0.4
v -0.4 0 -0.5
v -0.3 0 -0.5
v -0.6 0 -0.6
v -0.4 0 -0.6
v 0.7 0 -0.6
v 0.9 0 -0.6
v 1 0 -0.6
v -0.8 0 -0.8
v 1 0 -0.8
v -0.6 0.1 0.9
v 0.6 0.1 0.9
v -0.6 0.1 0.7
v 0.6 0.1 0.7
v 0.4 0.1 0.6
v 0.6 0.1 0.6
v 0.7 0.1 0.6
v 0.9 0.1 0.6
v 0.3 0.1 0.5
v 0.4 0.1 0.5
v 0.2 0.1 0.4
v 0.3 0.1 0.4
v 0.5 0.1 0.4
v 0.6 0.1 0.4
v 0.1 0.1 0.3
v 0.2 0.1 0.3
v 0.4 0.1 0.3
v 0.5 0.1 0.3
v 5.96046e-08 0.1 0.2
v 0.1 0.1 0.2
v 0.3 0.1 0.2
v 0.4 0.1 0.2
v -0.1 0.1 0.1
v 5.96046e-08 0.1 0.1
v 0.2 0.1 0.1
v 0.3 0.1 0.1
v -0.2 0.1 0
v -0.1 0.1 0
v 0.1 0.1 0
v 0.2 0.1 0
v -0.3 0.1 -0.1
v -0.2 0.1 -0.1
v 5.96046e-08 0.1 -0.1
v 0.1 0.1 -0.1
v -0.4 0.1 -0.2
v -0.3 0.1 -0.2
v -0.1 0.1 -0.2
v 5.96046e-08 0.1 -0.2
v -0.5 0.1 -0.3
v -0.4 0.1 -0.3
v -0.2 0.1 -0.3
v -0.1 0.1 -0.3
v -0.6 0.1 -0.4
v -0.5 0.1 -0.4
v -0.3 0.1 -0.4
v -0.2 0.1 -0.4
v -0.4 0.1 -0.5
v -0.3 0.1 -0.5
v -0.6 0.1 -0.6
v -0.4 0.1 -0.6
v 0.7 0.1 -0.6
v 0.9 0.1 -0.6
v -0.8 0.2 1
v -0.6 0.2 1
v 0.6 0.2 1
v 0.8 0.2 1
v 0.8 0.2 0.8
v 1 0.2 0.8
v 0.6 0.2 0.6
v 1 0.2 0.6
v -0.6 0.2 -0.6
v 1 0.2 -0.6
v -0.8 0.2 -0.8
v 1 0.2 -0.8

# faces
f 3/2/1 2/2/1 1/2/1
f 4/2/1 2/2/1 3/2/1
f 7/1/1 6/1/1 5/1/1
f 8/1/1 6/1/1 7/1/1
f 11/1/1 10/1/1 9/1/1
f 12/1/1 10/1/1 11/1/1
f 15/1/1 14/1/1 13/1/1
f 16/1/1 14/1/1 15/1/1
f 19/1/1 18/1/1 17/1/1
f 20/1/1 18/1/1 19/1/1
f 23/1/1 22/1/1 21/1/1
f 24/1/1 22/1/1 23/1/1
f 27/1/1 26/1/1 25/1/1
f 28/1/1 26/1/1 27/1/1
f 31/1/1 30/1/1 29/1/1
f 32/1/1 30/1/1 31/1/1
f 35/1/1 34/1/1 33/1/1
f 36/1/1 34/1/1 35/1/1
f 39/1/1 38/1/1 37/1/1
f 40/1/1 38/1/1 39/1/1
f 43/1/1 42/1/1 41/1/1
f 44/1/1 42/1/1 43/1/1
f 49/2/1 46/2/1 45/2/1
f 50/2/1 48/2/1 47/2/1
f 51/2/1 48/2/1 50/2/1
f 52/2/1 49/2/1 45/2/1
f 52/2/1 50/2/1 49/2/1
f 52/2/1 51/2/1 50/2/1
f 53/2/1 51/2/1 52/2/1
f 56/1/1 55/1/1 54/1/1
f 57/1/1 55/1/1 56/1/1
f 58/2/2 59/2/2 62/2/2
f 60/2/2 61/2/2 63/2/2
f 63/2/2 61/2/2 64/2/2
f 58/2/2 62/2/2 66/2/2
f 64/2/2 65/2/2 66/2/2
f 63/2/2 64/2/2 66/2/2
f 62/2/2 63/2/2 66/2/2
f 66/2/2 65/2/2 67/2/2
f 68/1/2 69/1/2 70/1/2
f 70/1/2 69/1/2 71/1/2
f 72/1/2 73/1/2 74/1/2
f 74/1/2 73/1/2 75/1/2
f 76/1/2 77/1/2 78/1/2
f 78/1/2 77/1/2 79/1/2
f 80/1/2 81/1/2 82/1/2
f 82/1/2 81/1/2 83/1/2
f 84/1/2 85/1/2 86/1/2
f 86/1/2 85/1/2 87/1/2
f 88/1/2 89/1/2 90/1/2
f 90/1/2 89/1/2 91/1/2
f 92/1/2 93/1/2 94/1/2
f 94/1/2 93/1/2 95/1/2
f 96/1/2 97/1/2 98/1/2
f 98/1/2 97/1/2 99/1/2
f 100/1/2 101/1/2 102/1/2
f 102/1/2 101/1/2 103/1/2
f 104/1/2 105/1/2 106/1/2
f 106/1/2 105/1/2 107/1/2
f 108/1/2 109/1/2 110/1/2
f 110/1/2 109/1/2 111/1/2
f 112/2/2 113/2/2 114/2/2
f 114/2/2 113/2/2 115/2/2
f 116/1/2 117/1/2 118/1/2
f 118/1/2 117/1/2 119/1/2
f 120/2/2 121/2/2 124/2/2
f 124/2/2 121/2/2 125/2/2
f 122/2/2 123/2/2 126/2/2
f 126/2/2 123/2/2 127/2/2
f 130/2/3 129/2/3 128/2/3
f 131/2/3 129/2/3 130/2/3
f 134/2/3 133/2/3 132/2/3
f 135/2/3 133/2/3 134/2/3
f 138/1/3 137/1/3 136/1/3
f 139/1/3 137/1/3 138/1/3
f 142/2/3 141/2/3 140/2/3
f 143/2/3 141/2/3 142/2/3
f 146/1/3 145/1/3 144/1/3
f 147/1/3 145/1/3 146/1/3
f 150/1/3 149/1/3 148/1/3
f 151/1/3 149/1/3 150/1/3
f 154/1/3 153/1/3 152/1/3
f 155/1/3 153/1/3 154/1/3
f 158/1/3 157/1/3 156/1/3
f 159/1/3 157/1/3 158/1/3
f 162/1/3 161/1/3 160/1/3
f 163/1/3 161/1/3 162/1/3
f 166/1/3 165/1/3 164/1/3
f 167/1/3 165/1/3 166/1/3
f 170/1/3 169/1/3 168/1/3
f 171/1/3 169/1/3 170/1/3
f 174/1/3 173/1/3 172/1/3
f 175/1/3 173/1/3 174/1/3
f 178/1/3 177/1/3 176/1/3
f 179/1/3 177/1/3 178/1/3
f 182/1/3 181/1/3 180/1/3
f 183/1/3 181/1/3 182/1/3
f 186/1/3 185/1/3 184/1/3
f 187/1/3 185/1/3 186/1/3
f 191/2/3 189/2/3 188/2/3
f 192/2/3 191/2/3 190/2/3
f 193/2/3 189/2/3 191/2/3
f 193/2/3 191/2/3 192/2/3
f 195/2/3 189/2/3 193/2/3
f 196/2/3 195/2/3 194/2/3
f 197/2/3 189/2/3 195/2/3
f 197/2/3 195/2/3 196/2/3
f 198/1/4 199/1/4 200/1/4
f 200/1/4 199/1/4 201/1/4
f 202/2/4 203/2/4 205/2/4
f 203/2/4 204/2/4 205/2/4
f 205/2/4 204/2/4 206/2/4
f 206/2/4 204/2/4 208/2/4
f 207/2/4 208/2/4 209/2/4
f 208/2/4 204/2/4 210/2/4
f 209/2/4 208/2/4 210/2/4
f 211/1/4 212/1/4 213/1/4
f 213/1/4 212/1/4 214/1/4
f 215/1/4 216/1/4 217/1/4
f 217/1/4 216/1/4 218/1/4
f 219/1/4 220/1/4 221/1/4
f 221/1/4 220/1/4 222/1/4
f 223/1/4 224/1/4 225/1/4
f 225/1/4 224/1/4 226/1/4
f 227/1/4 228/1/4 229/1/4
f 229/1/4 228/1/4 230/1/4
f 231/1/4 232/1/4 233/1/4
f 233/1/4 232/1/4 234/1/4
f 235/1/4 236/1/4 237/1/4
f 237/1/4 236/1/4 238/1/4
f 239/1/4 240/1/4 241/1/4
f 241/1/4 240/1/4 242/1/4
f 243/1/4 244/1/4 245/1/4
f 245/1/4 244/1/4 246/1/4
f 247/1/4 248/1/4 249/1/4
f 249/1/4 248/1/4 250/1/4
f 251/2/4 252/2/4 253/2/4
f 253/2/4 252/2/4 254/2/4
f 259/2/5 256/2/5 255/2/5
f 260/2/5 258/2/5 257/2/5
f 261/2/5 258/2/5 260/2/5
f 263/2/5 259/2/5 255/2/5
f 263/1/5 260/1/5 259/1/5
f 264/2/5 262/2/5 261/2/5
f 264/1/5 260/1/5 263/1/5
f 264/2/5 261/2/5 260/2/5
f 266/2/5 262/2/5 264/2/5
f 267/2/5 262/2/5 266/2/5
f 268/2/5 262/2/5 267/2/5
f 269/2/5 262/2/5 268/2/5
f 271/1/5 266/1/5 265/1/5
f 273/1/5 271/1/5 270/1/5
f 274/1/5 266/1/5 271/1/5
f 274/1/5 271/1/5 273/1/5
f 275/1/5 266/1/5 274/1/5
f 277/1/5 273/1/5 272/1/5
f 277/1/5 274/1/5 273/1/5
f 278/1/5 274/1/5 277/1/5
f 279/1/5 274/1/5 278/1/5
f 281/1/5 277/1/5 276/1/5
f 281/1/5 278/1/5 277/1/5
f 282/1/5 278/1/5 281/1/5
f 283/1/5 278/1/5 282/1/5
f 285/1/5 281/1/5 280/1/5
f 285/1/5 282/1/5 281/1/5
f 286/1/5 282/1/5 285/1/5
f 287/1/5 282/1/5 286/1/5
f 289/1/5 285/1/5 284/1/5
f 289/1/5 286/1/5 285/1/5
f 290/1/5 286/1/5 289/1/5
f 291/1/5 286/1/5 290/1/5
f 293/1/5 289/1/5 288/1/5
f 293/1/5 290/1/5 289/1/5
f 294/1/5 290/1/5 293/1/5
f 295/1/5 290/1/5 294/1/5
f 297/1/5 293/1/5 292/1/5
f 297/1/5 294/1/5 293/1/5
f 298/1/5 294/1/5 297/1/5
f 299/1/5 294/1/5 298/1/5
f 301/1/5 297/1/5 296/1/5
f 301/1/5 298/1/5 297/1/5
f 302/1/5 298/1/5 301/1/5
f 303/1/5 298/1/5 302/1/5
f 304/2/5 263/2/5 255/2/5
f 305/1/5 301/1/5 300/1/5
f 305/1/5 302/1/5 301/1/5
f 306/1/5 302/1/5 305/1/5
f 307/1/5 302/1/5 306/1/5
f 308/1/5 305/1/5 304/1/5
f 308/1/5 306/1/5 305/1/5
f 309/1/5 306/1/5 308/1/5
f 310/2/5 304/2/5 255/2/5
f 310/1/5 308/1/5 304/1/5
f 311/1/5 308/1/5 310/1/5
f 312/1/5 268/1/5 267/1/5
f 313/1/5 268/1/5 312/1/5
f 315/2/5 311/2/5 310/2/5
f 315/2/5 314/2/5 313/2/5
f 315/2/5 313/2/5 312/2/5
f 315/2/5 312/2/5 311/2/5
f 315/2/5 310/2/5 255/2/5
f 316/2/5 314/2/5 315/2/5
f 317/1/6 318/1/6 319/1/6
f 319/1/6 318/1/6 320/1/6
f 321/1/6 322/1/6 326/1/6
f 325/1/6 326/1/6 328/1/6
f 326/1/6 322/1/6 329/1/6
f 328/1/6 326/1/6 329/1/6
f 329/1/6 322/1/6 330/1/6
f 327/1/6 328/1/6 332/1/6
f 328/1/6 329/1/6 332/1/6
f 332/1/6 329/1/6 333/1/6
f 333/1/6 329/1/6 334/1/6
f 331/1/6 332/1/6 336/1/6
f 332/1/6 333/1/6 336/1/6
f 336/1/6 333/1/6 337/1/6
f 337/1/6 333/1/6 338/1/6
f 335/1/6 336/1/6 340/1/6
f 336/1/6 337/1/6 340/1/6
f 340/1/6 337/1/6 341/1/6
f 341/1/6 337/1/6 342/1/6
f 339/1/6 340/1/6 344/1/6
f 340/1/6 341/1/6 344/1/6
f 344/1/6 341/1/6 345/1/6
f 345/1/6 341/1/6 346/1/6
f 343/1/6 344/1/6 348/1/6
f 344/1/6 345/1/6 348/1/6
f 348/1/6 345/1/6 349/1/6
f 349/1/6 345/1/6 350/1/6
f 347/1/6 348/1/6 352/1/6
f 348/1/6 349/1/6 352/1/6
f 352/1/6 349/1/6 353/1/6
f 353/1/6 349/1/6 354/1/6
f 351/1/6 352/1/6 356/1/6
f 352/1/6 353/1/6 356/1/6
f 356/1/6 353/1/6 357/1/6
f 357/1/6 353/1/6 358/1/6
f 355/1/6 356/1/6 360/1/6
f 356/1/6 357/1/6 360/1/6
f 360/1/6 357/1/6 361/1/6
f 361/1/6 357/1/6 362/1/6
f 359/1/6 360/1/6 363/1/6
f 360/1/6 361/1/6 363/1/6
f 363/1/6 361/1/6 364/1/6
f 359/1/6 363/1/6 365/1/6
f 365/1/6 363/1/6 366/1/6
f 323/1/6 324/1/6 367/1/6
f 367/1/6 324/1/6 368/1/6
f 371/2/6 372/2/6 373/2/6
f 371/2/6 373/2/6 375/2/6
f 373/2/6 374/2/6 375/2/6
f 375/2/6 374/2/6 376/2/6
f 369/2/6 370/2/6 377/2/6
f 369/2/6 377/2/6 379/2/6
f 377/2/6 378/2/6 379/2/6
f 379/2/6 378/2/6 380/2/6
