# MagicaVoxel @ Ephtracy

# group
o 

# material
mtllib Rope1.mtl
usemtl palette

# normals
vn -1 0 0
vn 1 0 0
vn 0 0 1
vn 0 0 -1
vn 0 -1 0
vn 0 1 0

# texcoords
vt 0.939453 0.5
vt 0.943359 0.5
vt 0.958984 0.5
vt 0.970703 0.5

# verts
v -0.3 0 0.3
v -0.3 0 -0.2
v -0.3 1.2 0.3
v -0.3 1.2 -0.2
v -0.2 0.1 -0.8
v -0.2 0.1 -0.9
v -0.2 0.2 -0.8
v -0.2 0.2 -0.9
v -0.2 0.3 -0.8
v -0.2 0.3 -0.9
v -0.2 0.4 -0.7
v -0.2 0.4 -0.8
v -0.2 0.4 -0.9
v -0.2 0.5 -0.7
v -0.2 0.5 -0.8
v -0.2 0.6 -0.7
v -0.2 0.6 -0.8
v -0.2 0.7 -0.6
v -0.2 0.7 -0.7
v -0.2 0.7 -0.8
v -0.2 0.8 1
v -0.2 0.8 0.3
v -0.2 0.8 -0.2
v -0.2 0.8 -0.6
v -0.2 0.8 -0.7
v -0.2 1 1
v -0.2 1 0.3
v -0.2 1 -0.2
v -0.2 1 -0.7
v -0.1 0 -0.8
v -0.1 0 -0.9
v -0.1 0.1 -0.8
v -0.1 0.1 -0.9
v -0.1 0.2 -0.8
v -0.1 0.2 -0.9
v -0.1 0.3 -0.7
v -0.1 0.3 -0.8
v -0.1 0.3 -0.9
v -0.1 0.3 -1
v -0.1 0.4 -0.7
v -0.1 0.4 -0.8
v -0.1 0.4 -0.9
v -0.1 0.4 -1
v -0.1 0.5 -0.7
v -0.1 0.5 -0.8
v -0.1 0.6 -0.6
v -0.1 0.6 -0.7
v -0.1 0.6 -0.8
v -0.1 0.6 -0.9
v -0.1 0.7 -0.6
v -0.1 0.7 -0.7
v -0.1 0.7 -0.8
v -0.1 0.7 -0.9
v 0.1 0.1 -0.8
v 0.1 0.1 -0.9
v 0.1 0.2 -0.8
v 0.1 0.2 -0.9
v 0.1 0.3 -0.8
v 0.1 0.3 -0.9
v 0.1 0.4 -0.7
v 0.1 0.4 -0.8
v 0.1 0.4 -0.9
v 0.1 0.5 -0.7
v 0.1 0.5 -0.8
v 0.1 0.6 -0.7
v 0.1 0.6 -0.8
v 0.1 0.7 -0.6
v 0.1 0.7 -0.7
v 0.1 0.7 -0.8
v 0.1 0.8 -0.6
v 0.1 0.8 -0.7
v -0.1 0.1 -0.8
v -0.1 0.1 -0.9
v -0.1 0.2 -0.8
v -0.1 0.2 -0.9
v -0.1 0.3 -0.8
v -0.1 0.3 -0.9
v -0.1 0.4 -0.7
v -0.1 0.4 -0.8
v -0.1 0.4 -0.9
v -0.1 0.5 -0.7
v -0.1 0.5 -0.8
v -0.1 0.6 -0.7
v -0.1 0.6 -0.8
v -0.1 0.7 -0.6
v -0.1 0.7 -0.7
v -0.1 0.7 -0.8
v -0.1 0.8 -0.6
v -0.1 0.8 -0.7
v 0.1 0 -0.8
v 0.1 0 -0.9
v 0.1 0.1 -0.8
v 0.1 0.1 -0.9
v 0.1 0.2 -0.8
v 0.1 0.2 -0.9
v 0.1 0.3 -0.7
v 0.1 0.3 -0.8
v 0.1 0.3 -0.9
v 0.1 0.3 -1
v 0.1 0.4 -0.7
v 0.1 0.4 -0.8
v 0.1 0.4 -0.9
v 0.1 0.4 -1
v 0.1 0.5 -0.7
v 0.1 0.5 -0.8
v 0.1 0.6 -0.6
v 0.1 0.6 -0.7
v 0.1 0.6 -0.8
v 0.1 0.6 -0.9
v 0.1 0.7 -0.6
v 0.1 0.7 -0.7
v 0.1 0.7 -0.8
v 0.1 0.7 -0.9
v 0.2 0.1 -0.8
v 0.2 0.1 -0.9
v 0.2 0.2 -0.8
v 0.2 0.2 -0.9
v 0.2 0.3 -0.8
v 0.2 0.3 -0.9
v 0.2 0.4 -0.7
v 0.2 0.4 -0.8
v 0.2 0.4 -0.9
v 0.2 0.5 -0.7
v 0.2 0.5 -0.8
v 0.2 0.6 -0.7
v 0.2 0.6 -0.8
v 0.2 0.7 -0.6
v 0.2 0.7 -0.7
v 0.2 0.7 -0.8
v 0.2 0.8 1
v 0.2 0.8 0.3
v 0.2 0.8 -0.2
v 0.2 0.8 -0.6
v 0.2 0.8 -0.7
v 0.2 1 1
v 0.2 1 0.3
v 0.2 1 -0.2
v 0.2 1 -0.7
v 0.3 0 0.3
v 0.3 0 -0.2
v 0.3 1.2 0.3
v 0.3 1.2 -0.2
v -0.2 0.8 1
v -0.2 1 1
v 0.2 0.8 1
v 0.2 1 1
v -0.3 0 0.3
v -0.3 1.2 0.3
v -0.2 0.8 0.3
v -0.2 1 0.3
v 0.2 0.8 0.3
v 0.2 1 0.3
v 0.3 0 0.3
v 0.3 1.2 0.3
v -0.2 0.7 -0.6
v -0.2 0.8 -0.6
v -0.1 0.6 -0.6
v -0.1 0.7 -0.6
v -0.1 0.8 -0.6
v 0.1 0.6 -0.6
v 0.1 0.7 -0.6
v 0.1 0.8 -0.6
v 0.2 0.7 -0.6
v 0.2 0.8 -0.6
v -0.2 0.4 -0.7
v -0.2 0.5 -0.7
v -0.2 0.6 -0.7
v -0.2 0.7 -0.7
v -0.1 0.3 -0.7
v -0.1 0.4 -0.7
v -0.1 0.5 -0.7
v -0.1 0.6 -0.7
v -0.1 0.7 -0.7
v 0.1 0.3 -0.7
v 0.1 0.4 -0.7
v 0.1 0.5 -0.7
v 0.1 0.6 -0.7
v 0.1 0.7 -0.7
v 0.2 0.4 -0.7
v 0.2 0.5 -0.7
v 0.2 0.6 -0.7
v 0.2 0.7 -0.7
v -0.2 0.1 -0.8
v -0.2 0.2 -0.8
v -0.2 0.3 -0.8
v -0.2 0.4 -0.8
v -0.1 0 -0.8
v -0.1 0.1 -0.8
v -0.1 0.2 -0.8
v -0.1 0.3 -0.8
v -0.1 0.4 -0.8
v -0.1 0.6 -0.8
v -0.1 0.7 -0.8
v 0.1 0 -0.8
v 0.1 0.1 -0.8
v 0.1 0.2 -0.8
v 0.1 0.3 -0.8
v 0.1 0.4 -0.8
v 0.1 0.6 -0.8
v 0.1 0.7 -0.8
v 0.2 0.1 -0.8
v 0.2 0.2 -0.8
v 0.2 0.3 -0.8
v 0.2 0.4 -0.8
v -0.1 0.3 -0.9
v -0.1 0.4 -0.9
v 0.1 0.3 -0.9
v 0.1 0.4 -0.9
v -0.3 0 -0.2
v -0.3 1.2 -0.2
v -0.2 0.8 -0.2
v -0.2 1 -0.2
v 0.2 0.8 -0.2
v 0.2 1 -0.2
v 0.3 0 -0.2
v 0.3 1.2 -0.2
v -0.2 0.7 -0.7
v -0.2 0.8 -0.7
v -0.2 1 -0.7
v -0.1 0.6 -0.7
v -0.1 0.7 -0.7
v -0.1 0.8 -0.7
v 0.1 0.6 -0.7
v 0.1 0.7 -0.7
v 0.1 0.8 -0.7
v 0.2 0.7 -0.7
v 0.2 0.8 -0.7
v 0.2 1 -0.7
v -0.2 0.4 -0.8
v -0.2 0.5 -0.8
v -0.2 0.6 -0.8
v -0.2 0.7 -0.8
v -0.1 0.3 -0.8
v -0.1 0.4 -0.8
v -0.1 0.5 -0.8
v -0.1 0.6 -0.8
v -0.1 0.7 -0.8
v 0.1 0.3 -0.8
v 0.1 0.4 -0.8
v 0.1 0.5 -0.8
v 0.1 0.6 -0.8
v 0.1 0.7 -0.8
v 0.2 0.4 -0.8
v 0.2 0.5 -0.8
v 0.2 0.6 -0.8
v 0.2 0.7 -0.8
v -0.2 0.1 -0.9
v -0.2 0.2 -0.9
v -0.2 0.3 -0.9
v -0.2 0.4 -0.9
v -0.1 0 -0.9
v -0.1 0.1 -0.9
v -0.1 0.2 -0.9
v -0.1 0.3 -0.9
v -0.1 0.4 -0.9
v -0.1 0.6 -0.9
v -0.1 0.7 -0.9
v 0.1 0 -0.9
v 0.1 0.1 -0.9
v 0.1 0.2 -0.9
v 0.1 0.3 -0.9
v 0.1 0.4 -0.9
v 0.1 0.6 -0.9
v 0.1 0.7 -0.9
v 0.2 0.1 -0.9
v 0.2 0.2 -0.9
v 0.2 0.3 -0.9
v 0.2 0.4 -0.9
v -0.1 0.3 -1
v -0.1 0.4 -1
v 0.1 0.3 -1
v 0.1 0.4 -1
v -0.3 0 0.3
v 0.3 0 0.3
v -0.3 0 -0.2
v 0.3 0 -0.2
v -0.1 0 -0.8
v 0.1 0 -0.8
v -0.1 0 -0.9
v 0.1 0 -0.9
v -0.2 0.1 -0.8
v -0.1 0.1 -0.8
v 0.1 0.1 -0.8
v 0.2 0.1 -0.8
v -0.2 0.1 -0.9
v -0.1 0.1 -0.9
v 0.1 0.1 -0.9
v 0.2 0.1 -0.9
v -0.1 0.2 -0.8
v 0.1 0.2 -0.8
v -0.1 0.2 -0.9
v 0.1 0.2 -0.9
v -0.1 0.3 -0.7
v 0.1 0.3 -0.7
v -0.2 0.3 -0.8
v -0.1 0.3 -0.8
v 0.1 0.3 -0.8
v 0.2 0.3 -0.8
v -0.2 0.3 -0.9
v -0.1 0.3 -0.9
v 0.1 0.3 -0.9
v 0.2 0.3 -0.9
v -0.1 0.3 -1
v 0.1 0.3 -1
v -0.2 0.4 -0.7
v -0.1 0.4 -0.7
v 0.1 0.4 -0.7
v 0.2 0.4 -0.7
v -0.2 0.4 -0.8
v -0.1 0.4 -0.8
v 0.1 0.4 -0.8
v 0.2 0.4 -0.8
v -0.1 0.5 -0.7
v 0.1 0.5 -0.7
v -0.1 0.5 -0.8
v 0.1 0.5 -0.8
v -0.1 0.6 -0.6
v 0.1 0.6 -0.6
v -0.2 0.6 -0.7
v -0.1 0.6 -0.7
v 0.1 0.6 -0.7
v 0.2 0.6 -0.7
v -0.2 0.6 -0.8
v -0.1 0.6 -0.8
v 0.1 0.6 -0.8
v 0.2 0.6 -0.8
v -0.1 0.6 -0.9
v 0.1 0.6 -0.9
v -0.2 0.7 -0.6
v -0.1 0.7 -0.6
v 0.1 0.7 -0.6
v 0.2 0.7 -0.6
v -0.2 0.7 -0.7
v -0.1 0.7 -0.7
v 0.1 0.7 -0.7
v 0.2 0.7 -0.7
v -0.2 0.8 1
v 0.2 0.8 1
v -0.2 0.8 0.3
v 0.2 0.8 0.3
v -0.2 0.8 -0.2
v 0.2 0.8 -0.2
v -0.2 0.8 -0.6
v -0.1 0.8 -0.6
v 0.1 0.8 -0.6
v 0.2 0.8 -0.6
v -0.1 0.8 -0.7
v 0.1 0.8 -0.7
v -0.1 0.1 -0.8
v 0.1 0.1 -0.8
v -0.1 0.1 -0.9
v 0.1 0.1 -0.9
v -0.2 0.2 -0.8
v -0.1 0.2 -0.8
v 0.1 0.2 -0.8
v 0.2 0.2 -0.8
v -0.2 0.2 -0.9
v -0.1 0.2 -0.9
v 0.1 0.2 -0.9
v 0.2 0.2 -0.9
v -0.1 0.3 -0.8
v 0.1 0.3 -0.8
v -0.1 0.3 -0.9
v 0.1 0.3 -0.9
v -0.1 0.4 -0.7
v 0.1 0.4 -0.7
v -0.2 0.4 -0.8
v -0.1 0.4 -0.8
v 0.1 0.4 -0.8
v 0.2 0.4 -0.8
v -0.2 0.4 -0.9
v -0.1 0.4 -0.9
v 0.1 0.4 -0.9
v 0.2 0.4 -0.9
v -0.1 0.4 -1
v 0.1 0.4 -1
v -0.2 0.5 -0.7
v -0.1 0.5 -0.7
v 0.1 0.5 -0.7
v 0.2 0.5 -0.7
v -0.2 0.5 -0.8
v -0.1 0.5 -0.8
v 0.1 0.5 -0.8
v 0.2 0.5 -0.8
v -0.1 0.6 -0.7
v 0.1 0.6 -0.7
v -0.1 0.6 -0.8
v 0.1 0.6 -0.8
v -0.1 0.7 -0.6
v 0.1 0.7 -0.6
v -0.2 0.7 -0.7
v -0.1 0.7 -0.7
v 0.1 0.7 -0.7
v 0.2 0.7 -0.7
v -0.2 0.7 -0.8
v -0.1 0.7 -0.8
v 0.1 0.7 -0.8
v 0.2 0.7 -0.8
v -0.1 0.7 -0.9
v 0.1 0.7 -0.9
v -0.2 1 1
v 0.2 1 1
v -0.2 1 0.3
v 0.2 1 0.3
v -0.2 1 -0.2
v 0.2 1 -0.2
v -0.2 1 -0.7
v 0.2 1 -0.7
v -0.3 1.2 0.3
v 0.3 1.2 0.3
v -0.2 1.2 0.2
v 0.2 1.2 0.2
v -0.2 1.2 -0.1
v 0.2 1.2 -0.1
v -0.3 1.2 -0.2
v 0.3 1.2 -0.2

# faces
f 3/2/1 2/2/1 1/2/1
f 4/2/1 2/2/1 3/2/1
f 7/4/1 6/4/1 5/4/1
f 8/4/1 6/4/1 7/4/1
f 12/4/1 10/4/1 9/4/1
f 13/4/1 10/4/1 12/4/1
f 14/4/1 12/4/1 11/4/1
f 15/4/1 12/4/1 14/4/1
f 19/4/1 17/4/1 16/4/1
f 20/4/1 17/4/1 19/4/1
f 24/4/1 19/4/1 18/4/1
f 25/4/1 19/4/1 24/4/1
f 26/3/1 22/3/1 21/3/1
f 27/3/1 22/3/1 26/3/1
f 28/3/1 24/3/1 23/3/1
f 28/3/1 25/3/1 24/3/1
f 29/3/1 25/3/1 28/3/1
f 32/4/1 31/4/1 30/4/1
f 33/4/1 31/4/1 32/4/1
f 37/4/1 35/4/1 34/4/1
f 38/4/1 35/4/1 37/4/1
f 40/4/1 37/4/1 36/4/1
f 41/4/1 37/4/1 40/4/1
f 42/4/1 39/4/1 38/4/1
f 43/4/1 39/4/1 42/4/1
f 47/4/1 45/4/1 44/4/1
f 48/4/1 45/4/1 47/4/1
f 50/4/1 47/4/1 46/4/1
f 51/4/1 47/4/1 50/4/1
f 52/4/1 49/4/1 48/4/1
f 53/4/1 49/4/1 52/4/1
f 56/4/1 55/4/1 54/4/1
f 57/4/1 55/4/1 56/4/1
f 61/4/1 59/4/1 58/4/1
f 62/4/1 59/4/1 61/4/1
f 63/4/1 61/4/1 60/4/1
f 64/4/1 61/4/1 63/4/1
f 68/4/1 66/4/1 65/4/1
f 69/4/1 66/4/1 68/4/1
f 70/4/1 68/4/1 67/4/1
f 71/4/1 68/4/1 70/4/1
f 72/4/2 73/4/2 74/4/2
f 74/4/2 73/4/2 75/4/2
f 76/4/2 77/4/2 79/4/2
f 79/4/2 77/4/2 80/4/2
f 78/4/2 79/4/2 81/4/2
f 81/4/2 79/4/2 82/4/2
f 83/4/2 84/4/2 86/4/2
f 86/4/2 84/4/2 87/4/2
f 85/4/2 86/4/2 88/4/2
f 88/4/2 86/4/2 89/4/2
f 90/4/2 91/4/2 92/4/2
f 92/4/2 91/4/2 93/4/2
f 94/4/2 95/4/2 97/4/2
f 97/4/2 95/4/2 98/4/2
f 96/4/2 97/4/2 100/4/2
f 100/4/2 97/4/2 101/4/2
f 98/4/2 99/4/2 102/4/2
f 102/4/2 99/4/2 103/4/2
f 104/4/2 105/4/2 107/4/2
f 107/4/2 105/4/2 108/4/2
f 106/4/2 107/4/2 110/4/2
f 110/4/2 107/4/2 111/4/2
f 108/4/2 109/4/2 112/4/2
f 112/4/2 109/4/2 113/4/2
f 114/4/2 115/4/2 116/4/2
f 116/4/2 115/4/2 117/4/2
f 118/4/2 119/4/2 121/4/2
f 121/4/2 119/4/2 122/4/2
f 120/4/2 121/4/2 123/4/2
f 123/4/2 121/4/2 124/4/2
f 125/4/2 126/4/2 128/4/2
f 128/4/2 126/4/2 129/4/2
f 127/4/2 128/4/2 133/4/2
f 133/4/2 128/4/2 134/4/2
f 130/3/2 131/3/2 135/3/2
f 135/3/2 131/3/2 136/3/2
f 132/3/2 133/3/2 137/3/2
f 133/3/2 134/3/2 137/3/2
f 137/3/2 134/3/2 138/3/2
f 139/2/2 140/2/2 141/2/2
f 141/2/2 140/2/2 142/2/2
f 145/3/3 144/3/3 143/3/3
f 146/3/3 144/3/3 145/3/3
f 149/2/3 148/2/3 147/2/3
f 150/2/3 148/2/3 149/2/3
f 151/2/3 149/2/3 147/2/3
f 152/2/3 148/2/3 150/2/3
f 153/2/3 151/2/3 147/2/3
f 153/2/3 152/2/3 151/2/3
f 154/2/3 148/2/3 152/2/3
f 154/2/3 152/2/3 153/2/3
f 158/4/3 156/4/3 155/4/3
f 159/4/3 156/4/3 158/4/3
f 160/4/3 158/4/3 157/4/3
f 161/4/3 158/4/3 160/4/3
f 163/4/3 162/4/3 161/4/3
f 164/4/3 162/4/3 163/4/3
f 170/4/3 166/4/3 165/4/3
f 171/4/3 166/4/3 170/4/3
f 172/4/3 168/4/3 167/4/3
f 173/4/3 168/4/3 172/4/3
f 174/4/3 170/4/3 169/4/3
f 175/4/3 170/4/3 174/4/3
f 176/4/3 172/4/3 171/4/3
f 177/4/3 172/4/3 176/4/3
f 179/4/3 176/4/3 175/4/3
f 180/4/3 176/4/3 179/4/3
f 181/4/3 178/4/3 177/4/3
f 182/4/3 178/4/3 181/4/3
f 188/4/3 184/4/3 183/4/3
f 189/4/3 184/4/3 188/4/3
f 190/4/3 186/4/3 185/4/3
f 191/4/3 186/4/3 190/4/3
f 194/4/3 188/4/3 187/4/3
f 195/4/3 188/4/3 194/4/3
f 196/4/3 190/4/3 189/4/3
f 197/4/3 190/4/3 196/4/3
f 199/4/3 193/4/3 192/4/3
f 200/4/3 193/4/3 199/4/3
f 201/4/3 196/4/3 195/4/3
f 202/4/3 196/4/3 201/4/3
f 203/4/3 198/4/3 197/4/3
f 204/4/3 198/4/3 203/4/3
f 207/4/3 206/4/3 205/4/3
f 208/4/3 206/4/3 207/4/3
f 209/2/4 210/2/4 211/2/4
f 211/2/4 210/2/4 212/2/4
f 209/2/4 211/2/4 213/2/4
f 212/2/4 210/2/4 214/2/4
f 209/2/4 213/2/4 215/2/4
f 213/2/4 214/2/4 215/2/4
f 214/2/4 210/2/4 216/2/4
f 215/2/4 214/2/4 216/2/4
f 217/4/4 218/4/4 221/4/4
f 218/3/4 219/3/4 222/3/4
f 221/4/4 218/4/4 222/4/4
f 220/4/4 221/4/4 223/4/4
f 223/4/4 221/4/4 224/4/4
f 222/3/4 219/3/4 225/3/4
f 224/4/4 225/4/4 226/4/4
f 225/3/4 219/3/4 227/3/4
f 226/4/4 225/4/4 227/4/4
f 227/3/4 219/3/4 228/3/4
f 229/4/4 230/4/4 234/4/4
f 234/4/4 230/4/4 235/4/4
f 231/4/4 232/4/4 236/4/4
f 236/4/4 232/4/4 237/4/4
f 233/4/4 234/4/4 238/4/4
f 238/4/4 234/4/4 239/4/4
f 235/4/4 236/4/4 240/4/4
f 240/4/4 236/4/4 241/4/4
f 239/4/4 240/4/4 243/4/4
f 243/4/4 240/4/4 244/4/4
f 241/4/4 242/4/4 245/4/4
f 245/4/4 242/4/4 246/4/4
f 247/4/4 248/4/4 252/4/4
f 252/4/4 248/4/4 253/4/4
f 249/4/4 250/4/4 254/4/4
f 254/4/4 250/4/4 255/4/4
f 251/4/4 252/4/4 258/4/4
f 258/4/4 252/4/4 259/4/4
f 253/4/4 254/4/4 260/4/4
f 260/4/4 254/4/4 261/4/4
f 256/4/4 257/4/4 263/4/4
f 263/4/4 257/4/4 264/4/4
f 259/4/4 260/4/4 265/4/4
f 265/4/4 260/4/4 266/4/4
f 261/4/4 262/4/4 267/4/4
f 267/4/4 262/4/4 268/4/4
f 269/4/4 270/4/4 271/4/4
f 271/4/4 270/4/4 272/4/4
f 275/2/5 274/2/5 273/2/5
f 276/2/5 274/2/5 275/2/5
f 279/4/5 278/4/5 277/4/5
f 280/4/5 278/4/5 279/4/5
f 285/4/5 282/4/5 281/4/5
f 286/4/5 282/4/5 285/4/5
f 287/4/5 284/4/5 283/4/5
f 288/4/5 284/4/5 287/4/5
f 291/4/5 290/4/5 289/4/5
f 292/4/5 290/4/5 291/4/5
f 296/4/5 294/4/5 293/4/5
f 297/4/5 294/4/5 296/4/5
f 299/4/5 296/4/5 295/4/5
f 300/4/5 296/4/5 299/4/5
f 301/4/5 298/4/5 297/4/5
f 302/4/5 298/4/5 301/4/5
f 303/4/5 301/4/5 300/4/5
f 304/4/5 301/4/5 303/4/5
f 309/4/5 306/4/5 305/4/5
f 310/4/5 306/4/5 309/4/5
f 311/4/5 308/4/5 307/4/5
f 312/4/5 308/4/5 311/4/5
f 315/4/5 314/4/5 313/4/5
f 316/4/5 314/4/5 315/4/5
f 320/4/5 318/4/5 317/4/5
f 321/4/5 318/4/5 320/4/5
f 323/4/5 320/4/5 319/4/5
f 324/4/5 320/4/5 323/4/5
f 325/4/5 322/4/5 321/4/5
f 326/4/5 322/4/5 325/4/5
f 327/4/5 325/4/5 324/4/5
f 328/4/5 325/4/5 327/4/5
f 333/4/5 330/4/5 329/4/5
f 334/4/5 330/4/5 333/4/5
f 335/4/5 332/4/5 331/4/5
f 336/4/5 332/4/5 335/4/5
f 339/3/5 338/3/5 337/3/5
f 340/3/5 338/3/5 339/3/5
f 343/3/5 342/3/5 341/3/5
f 344/3/5 342/3/5 343/3/5
f 345/3/5 342/3/5 344/3/5
f 346/3/5 342/3/5 345/3/5
f 347/3/5 345/3/5 344/3/5
f 348/3/5 345/3/5 347/3/5
f 349/4/6 350/4/6 351/4/6
f 351/4/6 350/4/6 352/4/6
f 353/4/6 354/4/6 357/4/6
f 357/4/6 354/4/6 358/4/6
f 355/4/6 356/4/6 359/4/6
f 359/4/6 356/4/6 360/4/6
f 361/4/6 362/4/6 363/4/6
f 363/4/6 362/4/6 364/4/6
f 365/4/6 366/4/6 368/4/6
f 368/4/6 366/4/6 369/4/6
f 367/4/6 368/4/6 371/4/6
f 371/4/6 368/4/6 372/4/6
f 369/4/6 370/4/6 373/4/6
f 373/4/6 370/4/6 374/4/6
f 372/4/6 373/4/6 375/4/6
f 375/4/6 373/4/6 376/4/6
f 377/4/6 378/4/6 381/4/6
f 381/4/6 378/4/6 382/4/6
f 379/4/6 380/4/6 383/4/6
f 383/4/6 380/4/6 384/4/6
f 385/4/6 386/4/6 387/4/6
f 387/4/6 386/4/6 388/4/6
f 389/4/6 390/4/6 392/4/6
f 392/4/6 390/4/6 393/4/6
f 391/4/6 392/4/6 395/4/6
f 395/4/6 392/4/6 396/4/6
f 393/4/6 394/4/6 397/4/6
f 397/4/6 394/4/6 398/4/6
f 396/4/6 397/4/6 399/4/6
f 399/4/6 397/4/6 400/4/6
f 401/3/6 402/3/6 403/3/6
f 403/3/6 402/3/6 404/3/6
f 405/3/6 406/3/6 407/3/6
f 407/3/6 406/3/6 408/3/6
f 409/2/6 410/2/6 411/2/6
f 411/2/6 410/2/6 412/2/6
f 409/2/6 411/2/6 413/2/6
f 411/1/6 412/1/6 413/1/6
f 412/2/6 410/2/6 414/2/6
f 413/1/6 412/1/6 414/1/6
f 409/2/6 413/2/6 415/2/6
f 413/2/6 414/2/6 415/2/6
f 414/2/6 410/2/6 416/2/6
f 415/2/6 414/2/6 416/2/6
