# MagicaVoxel @ Ephtracy

# group
o 

# material
mtllib Rope2.mtl
usemtl palette

# normals
vn -1 0 0
vn 1 0 0
vn 0 0 1
vn 0 0 -1
vn 0 -1 0
vn 0 1 0

# texcoords
vt 0.896484 0.5
vt 0.927734 0.5
vt 0.958984 0.5

# verts
v -0.2 0.8 0.2
v -0.2 0.8 -1
v -0.2 1 0.2
v -0.2 1 -1
v -0.1 0 0.1
v -0.1 0 -0.1
v -0.1 0.3 0.1
v -0.1 0.3 -0.1
v -0.1 0.6 0.1
v -0.1 0.6 -0.1
v -0.1 0.8 0.1
v -0.1 0.8 -0.1
v 0.1 0 0.1
v 0.1 0 -0.1
v 0.1 0.3 0.1
v 0.1 0.3 -0.1
v 0.1 0.6 0.1
v 0.1 0.6 -0.1
v 0.1 0.8 0.1
v 0.1 0.8 -0.1
v 0.2 0.8 0.2
v 0.2 0.8 -1
v 0.2 1 0.2
v 0.2 1 -1
v -0.2 0.8 0.2
v -0.2 1 0.2
v 0.2 0.8 0.2
v 0.2 1 0.2
v -0.1 0 0.1
v -0.1 0.3 0.1
v -0.1 0.6 0.1
v -0.1 0.8 0.1
v 0.1 0 0.1
v 0.1 0.3 0.1
v 0.1 0.6 0.1
v 0.1 0.8 0.1
v -0.1 0 -0.1
v -0.1 0.3 -0.1
v -0.1 0.6 -0.1
v -0.1 0.8 -0.1
v 0.1 0 -0.1
v 0.1 0.3 -0.1
v 0.1 0.6 -0.1
v 0.1 0.8 -0.1
v -0.2 0.8 -1
v -0.2 1 -1
v 0.2 0.8 -1
v 0.2 1 -1
v -0.1 0 0.1
v 0.1 0 0.1
v -0.1 0 -0.1
v 0.1 0 -0.1
v -0.2 0.8 0.2
v 0.2 0.8 0.2
v -0.1 0.8 0.1
v 0.1 0.8 0.1
v -0.1 0.8 -0.1
v 0.1 0.8 -0.1
v -0.2 0.8 -1
v 0.2 0.8 -1
v -0.2 1 0.2
v 0.2 1 0.2
v -0.2 1 -1
v 0.2 1 -1

# faces
f 3/3/1 2/3/1 1/3/1
f 4/3/1 2/3/1 3/3/1
f 7/1/1 6/1/1 5/1/1
f 8/1/1 6/1/1 7/1/1
f 9/2/1 8/2/1 7/2/1
f 10/2/1 8/2/1 9/2/1
f 11/1/1 10/1/1 9/1/1
f 12/1/1 10/1/1 11/1/1
f 13/1/2 14/1/2 15/1/2
f 15/1/2 14/1/2 16/1/2
f 15/2/2 16/2/2 17/2/2
f 17/2/2 16/2/2 18/2/2
f 17/1/2 18/1/2 19/1/2
f 19/1/2 18/1/2 20/1/2
f 21/3/2 22/3/2 23/3/2
f 23/3/2 22/3/2 24/3/2
f 27/3/3 26/3/3 25/3/3
f 28/3/3 26/3/3 27/3/3
f 33/1/3 30/1/3 29/1/3
f 34/2/3 31/2/3 30/2/3
f 34/1/3 30/1/3 33/1/3
f 35/1/3 32/1/3 31/1/3
f 35/2/3 31/2/3 34/2/3
f 36/1/3 32/1/3 35/1/3
f 37/1/4 38/1/4 41/1/4
f 38/2/4 39/2/4 42/2/4
f 41/1/4 38/1/4 42/1/4
f 39/1/4 40/1/4 43/1/4
f 42/2/4 39/2/4 43/2/4
f 43/1/4 40/1/4 44/1/4
f 45/3/4 46/3/4 47/3/4
f 47/3/4 46/3/4 48/3/4
f 51/1/5 50/1/5 49/1/5
f 52/1/5 50/1/5 51/1/5
f 55/3/5 54/3/5 53/3/5
f 56/3/5 54/3/5 55/3/5
f 57/3/5 55/3/5 53/3/5
f 58/3/5 54/3/5 56/3/5
f 59/3/5 57/3/5 53/3/5
f 59/3/5 58/3/5 57/3/5
f 60/3/5 54/3/5 58/3/5
f 60/3/5 58/3/5 59/3/5
f 61/3/6 62/3/6 63/3/6
f 63/3/6 62/3/6 64/3/6
