# MagicaVoxel @ Ephtracy

# group
o 

# material
mtllib Rope4.mtl
usemtl palette

# normals
vn -1 0 0
vn 1 0 0
vn 0 0 1
vn 0 0 -1
vn 0 -1 0
vn 0 1 0

# texcoords
vt 0.896484 0.5
vt 0.919922 0.5
vt 0.927734 0.5

# verts
v -0.2 0.4 0.2
v -0.2 0.4 -0.2
v -0.2 0.8 0.2
v -0.2 0.8 -0.2
v -0.1 0.8 0.1
v -0.1 0.8 -0.1
v -0.1 1.2 0.1
v -0.1 1.2 -0.1
v -0.1 1.6 0.1
v -0.1 1.6 -0.1
v -0.1 2 0.1
v -0.1 2 -0.1
v 0.1 0.8 0.1
v 0.1 0.8 -0.1
v 0.1 1.2 0.1
v 0.1 1.2 -0.1
v 0.1 1.6 0.1
v 0.1 1.6 -0.1
v 0.1 2 0.1
v 0.1 2 -0.1
v 0.2 0.4 0.2
v 0.2 0.4 -0.2
v 0.2 0.8 0.2
v 0.2 0.8 -0.2
v -0.2 0.4 0.2
v -0.2 0.8 0.2
v 0.2 0.4 0.2
v 0.2 0.8 0.2
v -0.1 0.8 0.1
v -0.1 1.2 0.1
v -0.1 1.6 0.1
v -0.1 2 0.1
v 0.1 0.8 0.1
v 0.1 1.2 0.1
v 0.1 1.6 0.1
v 0.1 2 0.1
v -0.1 0.8 -0.1
v -0.1 1.2 -0.1
v -0.1 1.6 -0.1
v -0.1 2 -0.1
v 0.1 0.8 -0.1
v 0.1 1.2 -0.1
v 0.1 1.6 -0.1
v 0.1 2 -0.1
v -0.2 0.4 -0.2
v -0.2 0.8 -0.2
v 0.2 0.4 -0.2
v 0.2 0.8 -0.2
v -0.2 0.4 0.2
v 0.2 0.4 0.2
v -0.2 0.4 -0.2
v 0.2 0.4 -0.2
v -0.2 0.8 0.2
v 0.2 0.8 0.2
v -0.1 0.8 0.1
v 0.1 0.8 0.1
v -0.1 0.8 -0.1
v 0.1 0.8 -0.1
v -0.2 0.8 -0.2
v 0.2 0.8 -0.2
v -0.1 2 0.1
v 0.1 2 0.1
v -0.1 2 -0.1
v 0.1 2 -0.1

# faces
f 3/2/1 2/2/1 1/2/1
f 4/2/1 2/2/1 3/2/1
f 7/1/1 6/1/1 5/1/1
f 8/1/1 6/1/1 7/1/1
f 9/3/1 8/3/1 7/3/1
f 10/3/1 8/3/1 9/3/1
f 11/1/1 10/1/1 9/1/1
f 12/1/1 10/1/1 11/1/1
f 13/1/2 14/1/2 15/1/2
f 15/1/2 14/1/2 16/1/2
f 15/3/2 16/3/2 17/3/2
f 17/3/2 16/3/2 18/3/2
f 17/1/2 18/1/2 19/1/2
f 19/1/2 18/1/2 20/1/2
f 21/2/2 22/2/2 23/2/2
f 23/2/2 22/2/2 24/2/2
f 27/2/3 26/2/3 25/2/3
f 28/2/3 26/2/3 27/2/3
f 33/1/3 30/1/3 29/1/3
f 34/3/3 31/3/3 30/3/3
f 34/1/3 30/1/3 33/1/3
f 35/1/3 32/1/3 31/1/3
f 35/3/3 31/3/3 34/3/3
f 36/1/3 32/1/3 35/1/3
f 37/1/4 38/1/4 41/1/4
f 38/3/4 39/3/4 42/3/4
f 41/1/4 38/1/4 42/1/4
f 39/1/4 40/1/4 43/1/4
f 42/3/4 39/3/4 43/3/4
f 43/1/4 40/1/4 44/1/4
f 45/2/4 46/2/4 47/2/4
f 47/2/4 46/2/4 48/2/4
f 51/2/5 50/2/5 49/2/5
f 52/2/5 50/2/5 51/2/5
f 53/2/6 54/2/6 55/2/6
f 55/2/6 54/2/6 56/2/6
f 53/2/6 55/2/6 57/2/6
f 56/2/6 54/2/6 58/2/6
f 53/2/6 57/2/6 59/2/6
f 57/2/6 58/2/6 59/2/6
f 58/2/6 54/2/6 60/2/6
f 59/2/6 58/2/6 60/2/6
f 61/1/6 62/1/6 63/1/6
f 63/1/6 62/1/6 64/1/6
