# MagicaVoxel @ Ephtracy

# group
o 

# material
mtllib Tnt1.mtl
usemtl palette

# normals
vn -1 0 0
vn 1 0 0
vn 0 0 1
vn 0 0 -1
vn 0 -1 0
vn 0 1 0

# texcoords
vt 0.970703 0.5
vt 0.994141 0.5

# verts
v -0.8 0 0.4
v -0.8 0 -0.4
v -0.8 0.8 0.4
v -0.8 0.8 -0.4
v -0.6 0 0.5
v -0.6 0 0.4
v -0.6 0 -0.4
v -0.6 0 -0.5
v -0.6 0.8 0.4
v -0.6 0.8 -0.4
v -0.6 0.9 0.5
v -0.6 0.9 -0.5
v -0.1 0 0.5
v -0.1 0 0.4
v -0.1 0 -0.4
v -0.1 0 -0.5
v -0.1 0.8 0.4
v -0.1 0.8 -0.4
v -0.1 0.9 0.5
v -0.1 0.9 -0.5
v 0.4 0 0.5
v 0.4 0 0.4
v 0.4 0 -0.4
v 0.4 0 -0.5
v 0.4 0.8 0.4
v 0.4 0.8 -0.4
v 0.4 0.9 0.5
v 0.4 0.9 -0.5
v -0.4 0 0.5
v -0.4 0 0.4
v -0.4 0 -0.4
v -0.4 0 -0.5
v -0.4 0.8 0.4
v -0.4 0.8 -0.4
v -0.4 0.9 0.5
v -0.4 0.9 -0.5
v 0.1 0 0.5
v 0.1 0 0.4
v 0.1 0 -0.4
v 0.1 0 -0.5
v 0.1 0.8 0.4
v 0.1 0.8 -0.4
v 0.1 0.9 0.5
v 0.1 0.9 -0.5
v 0.6 0 0.5
v 0.6 0 0.4
v 0.6 0 -0.4
v 0.6 0 -0.5
v 0.6 0.8 0.4
v 0.6 0.8 -0.4
v 0.6 0.9 0.5
v 0.6 0.9 -0.5
v 0.8 0 0.4
v 0.8 0 -0.4
v 0.8 0.8 0.4
v 0.8 0.8 -0.4
v -0.6 0 0.5
v -0.6 0.9 0.5
v -0.4 0 0.5
v -0.4 0.9 0.5
v -0.1 0 0.5
v -0.1 0.9 0.5
v 0.1 0 0.5
v 0.1 0.9 0.5
v 0.4 0 0.5
v 0.4 0.9 0.5
v 0.6 0 0.5
v 0.6 0.9 0.5
v -0.8 0 0.4
v -0.8 0.8 0.4
v -0.6 0 0.4
v -0.6 0.8 0.4
v -0.4 0 0.4
v -0.4 0.8 0.4
v -0.1 0 0.4
v -0.1 0.8 0.4
v 0.1 0 0.4
v 0.1 0.8 0.4
v 0.4 0 0.4
v 0.4 0.8 0.4
v 0.6 0 0.4
v 0.6 0.8 0.4
v 0.8 0 0.4
v 0.8 0.8 0.4
v -0.8 0 -0.4
v -0.8 0.8 -0.4
v -0.6 0 -0.4
v -0.6 0.8 -0.4
v -0.4 0 -0.4
v -0.4 0.8 -0.4
v -0.1 0 -0.4
v -0.1 0.8 -0.4
v 0.1 0 -0.4
v 0.1 0.8 -0.4
v 0.4 0 -0.4
v 0.4 0.8 -0.4
v 0.6 0 -0.4
v 0.6 0.8 -0.4
v 0.8 0 -0.4
v 0.8 0.8 -0.4
v -0.6 0 -0.5
v -0.6 0.9 -0.5
v -0.4 0 -0.5
v -0.4 0.9 -0.5
v -0.1 0 -0.5
v -0.1 0.9 -0.5
v 0.1 0 -0.5
v 0.1 0.9 -0.5
v 0.4 0 -0.5
v 0.4 0.9 -0.5
v 0.6 0 -0.5
v 0.6 0.9 -0.5
v -0.6 0 0.5
v -0.4 0 0.5
v -0.1 0 0.5
v 0.1 0 0.5
v 0.4 0 0.5
v 0.6 0 0.5
v -0.8 0 0.4
v -0.6 0 0.4
v -0.4 0 0.4
v -0.1 0 0.4
v 0.1 0 0.4
v 0.4 0 0.4
v 0.6 0 0.4
v 0.8 0 0.4
v -0.8 0 -0.4
v -0.6 0 -0.4
v -0.4 0 -0.4
v -0.1 0 -0.4
v 0.1 0 -0.4
v 0.4 0 -0.4
v 0.6 0 -0.4
v 0.8 0 -0.4
v -0.6 0 -0.5
v -0.4 0 -0.5
v -0.1 0 -0.5
v 0.1 0 -0.5
v 0.4 0 -0.5
v 0.6 0 -0.5
v -0.8 0.8 0.4
v -0.6 0.8 0.4
v -0.4 0.8 0.4
v -0.1 0.8 0.4
v 0.1 0.8 0.4
v 0.4 0.8 0.4
v 0.6 0.8 0.4
v 0.8 0.8 0.4
v -0.8 0.8 -0.4
v -0.6 0.8 -0.4
v -0.4 0.8 -0.4
v -0.1 0.8 -0.4
v 0.1 0.8 -0.4
v 0.4 0.8 -0.4
v 0.6 0.8 -0.4
v 0.8 0.8 -0.4
v -0.6 0.9 0.5
v -0.4 0.9 0.5
v -0.1 0.9 0.5
v 0.1 0.9 0.5
v 0.4 0.9 0.5
v 0.6 0.9 0.5
v -0.6 0.9 -0.5
v -0.4 0.9 -0.5
v -0.1 0.9 -0.5
v 0.1 0.9 -0.5
v 0.4 0.9 -0.5
v 0.6 0.9 -0.5

# faces
f 3/2/1 2/2/1 1/2/1
f 4/2/1 2/2/1 3/2/1
f 9/1/1 6/1/1 5/1/1
f 10/1/1 8/1/1 7/1/1
f 11/1/1 9/1/1 5/1/1
f 11/1/1 10/1/1 9/1/1
f 12/1/1 8/1/1 10/1/1
f 12/1/1 10/1/1 11/1/1
f 17/1/1 14/1/1 13/1/1
f 18/1/1 16/1/1 15/1/1
f 19/1/1 17/1/1 13/1/1
f 19/1/1 18/1/1 17/1/1
f 20/1/1 16/1/1 18/1/1
f 20/1/1 18/1/1 19/1/1
f 25/1/1 22/1/1 21/1/1
f 26/1/1 24/1/1 23/1/1
f 27/1/1 25/1/1 21/1/1
f 27/1/1 26/1/1 25/1/1
f 28/1/1 24/1/1 26/1/1
f 28/1/1 26/1/1 27/1/1
f 29/1/2 30/1/2 33/1/2
f 31/1/2 32/1/2 34/1/2
f 29/1/2 33/1/2 35/1/2
f 33/1/2 34/1/2 35/1/2
f 34/1/2 32/1/2 36/1/2
f 35/1/2 34/1/2 36/1/2
f 37/1/2 38/1/2 41/1/2
f 39/1/2 40/1/2 42/1/2
f 37/1/2 41/1/2 43/1/2
f 41/1/2 42/1/2 43/1/2
f 42/1/2 40/1/2 44/1/2
f 43/1/2 42/1/2 44/1/2
f 45/1/2 46/1/2 49/1/2
f 47/1/2 48/1/2 50/1/2
f 45/1/2 49/1/2 51/1/2
f 49/1/2 50/1/2 51/1/2
f 50/1/2 48/1/2 52/1/2
f 51/1/2 50/1/2 52/1/2
f 53/2/2 54/2/2 55/2/2
f 55/2/2 54/2/2 56/2/2
f 59/1/3 58/1/3 57/1/3
f 60/1/3 58/1/3 59/1/3
f 63/1/3 62/1/3 61/1/3
f 64/1/3 62/1/3 63/1/3
f 67/1/3 66/1/3 65/1/3
f 68/1/3 66/1/3 67/1/3
f 71/2/3 70/2/3 69/2/3
f 72/2/3 70/2/3 71/2/3
f 75/2/3 74/2/3 73/2/3
f 76/2/3 74/2/3 75/2/3
f 79/2/3 78/2/3 77/2/3
f 80/2/3 78/2/3 79/2/3
f 83/2/3 82/2/3 81/2/3
f 84/2/3 82/2/3 83/2/3
f 85/2/4 86/2/4 87/2/4
f 87/2/4 86/2/4 88/2/4
f 89/2/4 90/2/4 91/2/4
f 91/2/4 90/2/4 92/2/4
f 93/2/4 94/2/4 95/2/4
f 95/2/4 94/2/4 96/2/4
f 97/2/4 98/2/4 99/2/4
f 99/2/4 98/2/4 100/2/4
f 101/1/4 102/1/4 103/1/4
f 103/1/4 102/1/4 104/1/4
f 105/1/4 106/1/4 107/1/4
f 107/1/4 106/1/4 108/1/4
f 109/1/4 110/1/4 111/1/4
f 111/1/4 110/1/4 112/1/4
f 120/1/5 114/1/5 113/1/5
f 121/1/5 114/1/5 120/1/5
f 122/1/5 116/1/5 115/1/5
f 123/1/5 116/1/5 122/1/5
f 124/1/5 118/1/5 117/1/5
f 125/1/5 118/1/5 124/1/5
f 127/2/5 123/2/5 122/2/5
f 127/2/5 126/2/5 125/2/5
f 127/2/5 125/2/5 124/2/5
f 127/2/5 124/2/5 123/2/5
f 127/2/5 121/2/5 120/2/5
f 127/2/5 122/2/5 121/2/5
f 127/2/5 120/2/5 119/2/5
f 128/2/5 126/2/5 127/2/5
f 129/2/5 126/2/5 128/2/5
f 130/2/5 126/2/5 129/2/5
f 131/2/5 126/2/5 130/2/5
f 132/2/5 126/2/5 131/2/5
f 133/2/5 126/2/5 132/2/5
f 134/2/5 126/2/5 133/2/5
f 135/1/5 129/1/5 128/1/5
f 136/1/5 129/1/5 135/1/5
f 137/1/5 131/1/5 130/1/5
f 138/1/5 131/1/5 137/1/5
f 139/1/5 133/1/5 132/1/5
f 140/1/5 133/1/5 139/1/5
f 141/2/6 142/2/6 149/2/6
f 149/2/6 142/2/6 150/2/6
f 143/2/6 144/2/6 151/2/6
f 151/2/6 144/2/6 152/2/6
f 145/2/6 146/2/6 153/2/6
f 153/2/6 146/2/6 154/2/6
f 147/2/6 148/2/6 155/2/6
f 155/2/6 148/2/6 156/2/6
f 157/1/6 158/1/6 163/1/6
f 163/1/6 158/1/6 164/1/6
f 159/1/6 160/1/6 165/1/6
f 165/1/6 160/1/6 166/1/6
f 161/1/6 162/1/6 167/1/6
f 167/1/6 162/1/6 168/1/6
