# MagicaVoxel @ Ephtracy

# group
o 

# material
mtllib Tnt3.mtl
usemtl palette

# normals
vn -1 0 0
vn 1 0 0
vn 0 0 1
vn 0 0 -1
vn 0 -1 0
vn 0 1 0

# texcoords
vt 0.896484 0.5
vt 0.939453 0.5
vt 0.943359 0.5
vt 0.958984 0.5
vt 0.970703 0.5
vt 0.994141 0.5

# verts
v -0.5 0.7 0.1
v -0.5 0.7 -0.1
v -0.5 0.9 0.1
v -0.5 0.9 -0.1
v -0.3 0 0.2
v -0.3 0 -0.2
v -0.3 0.1 0.2
v -0.3 0.1 -0.2
v -0.3 0.4 0.2
v -0.3 0.4 -0.2
v -0.3 0.5 0.2
v -0.3 0.5 -0.2
v -0.2 0 0.4
v -0.2 0 0.3
v -0.2 0.1 0.4
v -0.2 0.1 0.3
v -0.1 0 0.8
v -0.1 0 0.7
v -0.1 0 0.5
v -0.1 0 0.4
v -0.1 0 0.3
v -0.1 0 0.2
v -0.1 0.1 0.8
v -0.1 0.1 0.7
v -0.1 0.1 0.5
v -0.1 0.1 0.4
v -0.1 0.1 0.3
v -0.1 0.1 0.2
v -0.1 0.5 0.1
v -0.1 0.5 -0.1
v -0.1 0.7 0.1
v -0.1 0.7 -0.1
v 0 0 0.7
v 0 0 0.6
v 0 0.1 0.7
v 0 0.1 0.6
v -0.1 0 0.4
v -0.1 0 0.3
v -0.1 0.1 0.4
v -0.1 0.1 0.3
v 0 0 0.8
v 0 0 0.7
v 0 0 0.5
v 0 0 0.4
v 0 0 0.3
v 0 0 0.2
v 0 0.1 0.8
v 0 0.1 0.7
v 0 0.1 0.5
v 0 0.1 0.4
v 0 0.1 0.3
v 0 0.1 0.2
v 0.1 0 0.7
v 0.1 0 0.6
v 0.1 0.1 0.7
v 0.1 0.1 0.6
v 0.1 0.5 0.1
v 0.1 0.5 -0.1
v 0.1 0.7 0.1
v 0.1 0.7 -0.1
v 0.3 0 0.2
v 0.3 0 -0.2
v 0.3 0.1 0.2
v 0.3 0.1 -0.2
v 0.3 0.4 0.2
v 0.3 0.4 -0.2
v 0.3 0.5 0.2
v 0.3 0.5 -0.2
v 0.5 0.7 0.1
v 0.5 0.7 -0.1
v 0.5 0.9 0.1
v 0.5 0.9 -0.1
v -0.1 0 0.8
v -0.1 0.1 0.8
v 0 0 0.8
v 0 0.1 0.8
v 0 0 0.7
v 0 0.1 0.7
v 0.1 0 0.7
v 0.1 0.1 0.7
v -0.1 0 0.5
v -0.1 0.1 0.5
v 0 0 0.5
v 0 0.1 0.5
v -0.2 0 0.4
v -0.2 0.1 0.4
v -0.1 0 0.4
v -0.1 0.1 0.4
v -0.1 0 0.3
v -0.1 0.1 0.3
v 0 0 0.3
v 0 0.1 0.3
v -0.3 0 0.2
v -0.3 0.1 0.2
v -0.3 0.4 0.2
v -0.3 0.5 0.2
v -0.1 0 0.2
v -0.1 0.1 0.2
v 0 0 0.2
v 0 0.1 0.2
v 0.3 0 0.2
v 0.3 0.1 0.2
v 0.3 0.4 0.2
v 0.3 0.5 0.2
v -0.5 0.7 0.1
v -0.5 0.9 0.1
v -0.4 0.7 0.1
v -0.4 0.9 0.1
v -0.1 0.5 0.1
v -0.1 0.7 0.1
v 0.1 0.5 0.1
v 0.1 0.7 0.1
v 0.4 0.7 0.1
v 0.4 0.9 0.1
v 0.5 0.7 0.1
v 0.5 0.9 0.1
v -0.1 0 0.7
v -0.1 0.1 0.7
v 0 0 0.7
v 0 0.1 0.7
v 0 0 0.6
v 0 0.1 0.6
v 0.1 0 0.6
v 0.1 0.1 0.6
v -0.1 0 0.4
v -0.1 0.1 0.4
v 0 0 0.4
v 0 0.1 0.4
v -0.2 0 0.3
v -0.2 0.1 0.3
v -0.1 0 0.3
v -0.1 0.1 0.3
v -0.5 0.7 -0.1
v -0.5 0.9 -0.1
v -0.4 0.7 -0.1
v -0.4 0.9 -0.1
v -0.1 0.5 -0.1
v -0.1 0.7 -0.1
v 0.1 0.5 -0.1
v 0.1 0.7 -0.1
v 0.4 0.7 -0.1
v 0.4 0.9 -0.1
v 0.5 0.7 -0.1
v 0.5 0.9 -0.1
v -0.3 0 -0.2
v -0.3 0.1 -0.2
v -0.3 0.4 -0.2
v -0.3 0.5 -0.2
v 0.3 0 -0.2
v 0.3 0.1 -0.2
v 0.3 0.4 -0.2
v 0.3 0.5 -0.2
v -0.1 0 0.8
v 0 0 0.8
v -0.1 0 0.7
v 0 0 0.7
v 0.1 0 0.7
v 0 0 0.6
v 0.1 0 0.6
v -0.1 0 0.5
v 0 0 0.5
v -0.2 0 0.4
v -0.1 0 0.4
v 0 0 0.4
v -0.2 0 0.3
v -0.1 0 0.3
v 0 0 0.3
v -0.3 0 0.2
v -0.1 0 0.2
v 0 0 0.2
v 0.3 0 0.2
v -0.3 0 -0.2
v 0.3 0 -0.2
v -0.5 0.7 0.1
v -0.4 0.7 0.1
v -0.1 0.7 0.1
v 0.1 0.7 0.1
v 0.4 0.7 0.1
v 0.5 0.7 0.1
v -0.5 0.7 -0.1
v -0.4 0.7 -0.1
v -0.1 0.7 -0.1
v 0.1 0.7 -0.1
v 0.4 0.7 -0.1
v 0.5 0.7 -0.1
v -0.1 0.1 0.8
v 0 0.1 0.8
v -0.1 0.1 0.7
v 0 0.1 0.7
v 0.1 0.1 0.7
v 0 0.1 0.6
v 0.1 0.1 0.6
v -0.1 0.1 0.5
v 0 0.1 0.5
v -0.2 0.1 0.4
v -0.1 0.1 0.4
v 0 0.1 0.4
v -0.2 0.1 0.3
v -0.1 0.1 0.3
v 0 0.1 0.3
v -0.1 0.1 0.2
v 0 0.1 0.2
v -0.3 0.5 0.2
v 0.3 0.5 0.2
v -0.1 0.5 0.1
v 0.1 0.5 0.1
v -0.1 0.5 -0.1
v 0.1 0.5 -0.1
v -0.3 0.5 -0.2
v 0.3 0.5 -0.2
v -0.5 0.9 0.1
v -0.4 0.9 0.1
v 0.4 0.9 0.1
v 0.5 0.9 0.1
v -0.5 0.9 -0.1
v -0.4 0.9 -0.1
v 0.4 0.9 -0.1
v 0.5 0.9 -0.1

# faces
f 3/3/1 2/3/1 1/3/1
f 4/3/1 2/3/1 3/3/1
f 7/5/1 6/5/1 5/5/1
f 8/5/1 6/5/1 7/5/1
f 9/6/1 8/6/1 7/6/1
f 10/6/1 8/6/1 9/6/1
f 11/5/1 10/5/1 9/5/1
f 12/5/1 10/5/1 11/5/1
f 15/1/1 14/1/1 13/1/1
f 16/1/1 14/1/1 15/1/1
f 23/1/1 18/1/1 17/1/1
f 24/1/1 18/1/1 23/1/1
f 25/1/1 20/1/1 19/1/1
f 26/1/1 20/1/1 25/1/1
f 27/1/1 22/1/1 21/1/1
f 28/1/1 22/1/1 27/1/1
f 31/4/1 30/4/1 29/4/1
f 32/4/1 30/4/1 31/4/1
f 35/1/1 34/1/1 33/1/1
f 36/1/1 34/1/1 35/1/1
f 37/1/2 38/1/2 39/1/2
f 39/1/2 38/1/2 40/1/2
f 41/1/2 42/1/2 47/1/2
f 47/1/2 42/1/2 48/1/2
f 43/1/2 44/1/2 49/1/2
f 49/1/2 44/1/2 50/1/2
f 45/1/2 46/1/2 51/1/2
f 51/1/2 46/1/2 52/1/2
f 53/1/2 54/1/2 55/1/2
f 55/1/2 54/1/2 56/1/2
f 57/4/2 58/4/2 59/4/2
f 59/4/2 58/4/2 60/4/2
f 61/5/2 62/5/2 63/5/2
f 63/5/2 62/5/2 64/5/2
f 63/6/2 64/6/2 65/6/2
f 65/6/2 64/6/2 66/6/2
f 65/5/2 66/5/2 67/5/2
f 67/5/2 66/5/2 68/5/2
f 69/3/2 70/3/2 71/3/2
f 71/3/2 70/3/2 72/3/2
f 75/1/3 74/1/3 73/1/3
f 76/1/3 74/1/3 75/1/3
f 79/1/3 78/1/3 77/1/3
f 80/1/3 78/1/3 79/1/3
f 83/1/3 82/1/3 81/1/3
f 84/1/3 82/1/3 83/1/3
f 87/1/3 86/1/3 85/1/3
f 88/1/3 86/1/3 87/1/3
f 91/1/3 90/1/3 89/1/3
f 92/1/3 90/1/3 91/1/3
f 97/5/3 94/5/3 93/5/3
f 98/6/3 95/6/3 94/6/3
f 98/5/3 94/5/3 97/5/3
f 100/6/3 95/6/3 98/6/3
f 101/5/3 100/5/3 99/5/3
f 102/6/3 95/6/3 100/6/3
f 102/5/3 100/5/3 101/5/3
f 103/5/3 96/5/3 95/5/3
f 103/6/3 95/6/3 102/6/3
f 104/5/3 96/5/3 103/5/3
f 107/3/3 106/3/3 105/3/3
f 108/3/3 106/3/3 107/3/3
f 110/2/3 108/2/3 107/2/3
f 111/4/3 110/4/3 109/4/3
f 112/2/3 108/2/3 110/2/3
f 112/4/3 110/4/3 111/4/3
f 113/2/3 108/2/3 112/2/3
f 114/2/3 108/2/3 113/2/3
f 115/3/3 114/3/3 113/3/3
f 116/3/3 114/3/3 115/3/3
f 117/1/4 118/1/4 119/1/4
f 119/1/4 118/1/4 120/1/4
f 121/1/4 122/1/4 123/1/4
f 123/1/4 122/1/4 124/1/4
f 125/1/4 126/1/4 127/1/4
f 127/1/4 126/1/4 128/1/4
f 129/1/4 130/1/4 131/1/4
f 131/1/4 130/1/4 132/1/4
f 133/3/4 134/3/4 135/3/4
f 135/3/4 134/3/4 136/3/4
f 135/2/4 136/2/4 138/2/4
f 137/4/4 138/4/4 139/4/4
f 138/2/4 136/2/4 140/2/4
f 139/4/4 138/4/4 140/4/4
f 140/2/4 136/2/4 141/2/4
f 141/2/4 136/2/4 142/2/4
f 141/3/4 142/3/4 143/3/4
f 143/3/4 142/3/4 144/3/4
f 145/5/4 146/5/4 149/5/4
f 146/6/4 147/6/4 150/6/4
f 149/5/4 146/5/4 150/5/4
f 147/5/4 148/5/4 151/5/4
f 150/6/4 147/6/4 151/6/4
f 151/5/4 148/5/4 152/5/4
f 155/1/5 154/1/5 153/1/5
f 156/1/5 154/1/5 155/1/5
f 158/1/5 157/1/5 156/1/5
f 159/1/5 157/1/5 158/1/5
f 163/1/5 161/1/5 160/1/5
f 164/1/5 161/1/5 163/1/5
f 165/1/5 163/1/5 162/1/5
f 166/1/5 163/1/5 165/1/5
f 169/1/5 167/1/5 166/1/5
f 170/1/5 167/1/5 169/1/5
f 172/5/5 170/5/5 169/5/5
f 172/5/5 171/5/5 170/5/5
f 172/5/5 169/5/5 168/5/5
f 173/5/5 171/5/5 172/5/5
f 180/3/5 175/3/5 174/3/5
f 181/2/5 176/2/5 175/2/5
f 181/3/5 175/3/5 180/3/5
f 182/2/5 176/2/5 181/2/5
f 183/2/5 178/2/5 177/2/5
f 184/3/5 179/3/5 178/3/5
f 184/2/5 178/2/5 183/2/5
f 185/3/5 179/3/5 184/3/5
f 186/1/6 187/1/6 188/1/6
f 188/1/6 187/1/6 189/1/6
f 189/1/6 190/1/6 191/1/6
f 191/1/6 190/1/6 192/1/6
f 193/1/6 194/1/6 196/1/6
f 196/1/6 194/1/6 197/1/6
f 195/1/6 196/1/6 198/1/6
f 198/1/6 196/1/6 199/1/6
f 199/1/6 200/1/6 201/1/6
f 201/1/6 200/1/6 202/1/6
f 203/5/6 204/5/6 205/5/6
f 205/5/6 204/5/6 206/5/6
f 203/5/6 205/5/6 207/5/6
f 206/5/6 204/5/6 208/5/6
f 203/5/6 207/5/6 209/5/6
f 207/5/6 208/5/6 209/5/6
f 208/5/6 204/5/6 210/5/6
f 209/5/6 208/5/6 210/5/6
f 211/3/6 212/3/6 215/3/6
f 212/2/6 213/2/6 216/2/6
f 215/3/6 212/3/6 216/3/6
f 213/3/6 214/3/6 217/3/6
f 216/2/6 213/2/6 217/2/6
f 217/3/6 214/3/6 218/3/6
