# MagicaVoxel @ Ephtracy

# group
o 

# material
mtllib Tnt6.mtl
usemtl palette

# normals
vn -1 0 0
vn 1 0 0
vn 0 0 1
vn 0 0 -1
vn 0 -1 0
vn 0 1 0

# texcoords
vt 0.943359 0.5
vt 0.970703 0.5

# verts
v -0.7 0.1 0.7
v -0.7 0.1 -0.7
v -0.7 0.3 0.7
v -0.7 0.3 -0.7
v -0.7 0.5 0.7
v -0.7 0.5 -0.7
v -0.7 0.7 0.7
v -0.7 0.7 -0.7
v -0.7 0.9 0.7
v -0.7 0.9 -0.7
v -0.7 1.1 0.7
v -0.7 1.1 -0.7
v -0.6 0 0.6
v -0.6 0 -0.6
v -0.6 0.1 0.6
v -0.6 0.1 -0.6
v -0.6 0.3 0.6
v -0.6 0.3 -0.6
v -0.6 0.5 0.6
v -0.6 0.5 -0.6
v -0.6 0.7 0.6
v -0.6 0.7 -0.6
v -0.6 0.9 0.6
v -0.6 0.9 -0.6
v -0.6 1.1 0.6
v -0.6 1.1 -0.6
v -0.6 1.3 0.6
v -0.6 1.3 -0.6
v 0.2 1.3 0.1
v 0.2 1.3 -0.1
v 0.2 1.5 0.1
v 0.2 1.5 -0.1
v 0.3 1.3 0.1
v 0.3 1.3 -0.1
v 0.3 1.4 0.1
v 0.3 1.4 -0.1
v 0.4 1.4 0.1
v 0.4 1.4 -0.1
v 0.4 1.5 0.1
v 0.4 1.5 -0.1
v 0.6 0 0.6
v 0.6 0 -0.6
v 0.6 0.1 0.6
v 0.6 0.1 -0.6
v 0.6 0.3 0.6
v 0.6 0.3 -0.6
v 0.6 0.5 0.6
v 0.6 0.5 -0.6
v 0.6 0.7 0.6
v 0.6 0.7 -0.6
v 0.6 0.9 0.6
v 0.6 0.9 -0.6
v 0.6 1.1 0.6
v 0.6 1.1 -0.6
v 0.6 1.3 0.6
v 0.6 1.3 -0.6
v 0.7 0.1 0.7
v 0.7 0.1 -0.7
v 0.7 0.3 0.7
v 0.7 0.3 -0.7
v 0.7 0.5 0.7
v 0.7 0.5 -0.7
v 0.7 0.7 0.7
v 0.7 0.7 -0.7
v 0.7 0.9 0.7
v 0.7 0.9 -0.7
v 0.7 1.1 0.7
v 0.7 1.1 -0.7
v -0.7 0.1 0.7
v -0.7 0.3 0.7
v -0.7 0.5 0.7
v -0.7 0.7 0.7
v -0.7 0.9 0.7
v -0.7 1.1 0.7
v 0.7 0.1 0.7
v 0.7 0.3 0.7
v 0.7 0.5 0.7
v 0.7 0.7 0.7
v 0.7 0.9 0.7
v 0.7 1.1 0.7
v -0.6 0 0.6
v -0.6 0.1 0.6
v -0.6 0.3 0.6
v -0.6 0.5 0.6
v -0.6 0.7 0.6
v -0.6 0.9 0.6
v -0.6 1.1 0.6
v -0.6 1.3 0.6
v 0.6 0 0.6
v 0.6 0.1 0.6
v 0.6 0.3 0.6
v 0.6 0.5 0.6
v 0.6 0.7 0.6
v 0.6 0.9 0.6
v 0.6 1.1 0.6
v 0.6 1.3 0.6
v 0.2 1.3 0.1
v 0.2 1.5 0.1
v 0.3 1.3 0.1
v 0.3 1.4 0.1
v 0.4 1.4 0.1
v 0.4 1.5 0.1
v 0.2 1.3 -0.1
v 0.2 1.5 -0.1
v 0.3 1.3 -0.1
v 0.3 1.4 -0.1
v 0.4 1.4 -0.1
v 0.4 1.5 -0.1
v -0.6 0 -0.6
v -0.6 0.1 -0.6
v -0.6 0.3 -0.6
v -0.6 0.5 -0.6
v -0.6 0.7 -0.6
v -0.6 0.9 -0.6
v -0.6 1.1 -0.6
v -0.6 1.3 -0.6
v 0.6 0 -0.6
v 0.6 0.1 -0.6
v 0.6 0.3 -0.6
v 0.6 0.5 -0.6
v 0.6 0.7 -0.6
v 0.6 0.9 -0.6
v 0.6 1.1 -0.6
v 0.6 1.3 -0.6
v -0.7 0.1 -0.7
v -0.7 0.3 -0.7
v -0.7 0.5 -0.7
v -0.7 0.7 -0.7
v -0.7 0.9 -0.7
v -0.7 1.1 -0.7
v 0.7 0.1 -0.7
v 0.7 0.3 -0.7
v 0.7 0.5 -0.7
v 0.7 0.7 -0.7
v 0.7 0.9 -0.7
v 0.7 1.1 -0.7
v -0.6 0 0.6
v 0.6 0 0.6
v -0.6 0 -0.6
v 0.6 0 -0.6
v -0.7 0.1 0.7
v 0.7 0.1 0.7
v -0.6 0.1 0.6
v 0.6 0.1 0.6
v -0.6 0.1 -0.6
v 0.6 0.1 -0.6
v -0.7 0.1 -0.7
v 0.7 0.1 -0.7
v -0.7 0.5 0.7
v 0.7 0.5 0.7
v -0.6 0.5 0.6
v 0.6 0.5 0.6
v -0.6 0.5 -0.6
v 0.6 0.5 -0.6
v -0.7 0.5 -0.7
v 0.7 0.5 -0.7
v -0.7 0.9 0.7
v 0.7 0.9 0.7
v -0.6 0.9 0.6
v 0.6 0.9 0.6
v -0.6 0.9 -0.6
v 0.6 0.9 -0.6
v -0.7 0.9 -0.7
v 0.7 0.9 -0.7
v 0.3 1.4 0.1
v 0.4 1.4 0.1
v 0.3 1.4 -0.1
v 0.4 1.4 -0.1
v -0.7 0.3 0.7
v 0.7 0.3 0.7
v -0.6 0.3 0.6
v 0.6 0.3 0.6
v -0.6 0.3 -0.6
v 0.6 0.3 -0.6
v -0.7 0.3 -0.7
v 0.7 0.3 -0.7
v -0.7 0.7 0.7
v 0.7 0.7 0.7
v -0.6 0.7 0.6
v 0.6 0.7 0.6
v -0.6 0.7 -0.6
v 0.6 0.7 -0.6
v -0.7 0.7 -0.7
v 0.7 0.7 -0.7
v -0.7 1.1 0.7
v 0.7 1.1 0.7
v -0.6 1.1 0.6
v 0.6 1.1 0.6
v -0.6 1.1 -0.6
v 0.6 1.1 -0.6
v -0.7 1.1 -0.7
v 0.7 1.1 -0.7
v -0.6 1.3 0.6
v 0.6 1.3 0.6
v 0.2 1.3 0.1
v 0.3 1.3 0.1
v 0.2 1.3 -0.1
v 0.3 1.3 -0.1
v -0.6 1.3 -0.6
v 0.6 1.3 -0.6
v 0.2 1.5 0.1
v 0.4 1.5 0.1
v 0.2 1.5 -0.1
v 0.4 1.5 -0.1

# faces
f 3/2/1 2/2/1 1/2/1
f 4/2/1 2/2/1 3/2/1
f 7/2/1 6/2/1 5/2/1
f 8/2/1 6/2/1 7/2/1
f 11/2/1 10/2/1 9/2/1
f 12/2/1 10/2/1 11/2/1
f 15/1/1 14/1/1 13/1/1
f 16/1/1 14/1/1 15/1/1
f 19/1/1 18/1/1 17/1/1
f 20/1/1 18/1/1 19/1/1
f 23/1/1 22/1/1 21/1/1
f 24/1/1 22/1/1 23/1/1
f 27/1/1 26/1/1 25/1/1
f 28/1/1 26/1/1 27/1/1
f 31/2/1 30/2/1 29/2/1
f 32/2/1 30/2/1 31/2/1
f 33/2/2 34/2/2 35/2/2
f 35/2/2 34/2/2 36/2/2
f 37/2/2 38/2/2 39/2/2
f 39/2/2 38/2/2 40/2/2
f 41/1/2 42/1/2 43/1/2
f 43/1/2 42/1/2 44/1/2
f 45/1/2 46/1/2 47/1/2
f 47/1/2 46/1/2 48/1/2
f 49/1/2 50/1/2 51/1/2
f 51/1/2 50/1/2 52/1/2
f 53/1/2 54/1/2 55/1/2
f 55/1/2 54/1/2 56/1/2
f 57/2/2 58/2/2 59/2/2
f 59/2/2 58/2/2 60/2/2
f 61/2/2 62/2/2 63/2/2
f 63/2/2 62/2/2 64/2/2
f 65/2/2 66/2/2 67/2/2
f 67/2/2 66/2/2 68/2/2
f 75/2/3 70/2/3 69/2/3
f 76/2/3 70/2/3 75/2/3
f 77/2/3 72/2/3 71/2/3
f 78/2/3 72/2/3 77/2/3
f 79/2/3 74/2/3 73/2/3
f 80/2/3 74/2/3 79/2/3
f 89/1/3 82/1/3 81/1/3
f 90/1/3 82/1/3 89/1/3
f 91/1/3 84/1/3 83/1/3
f 92/1/3 84/1/3 91/1/3
f 93/1/3 86/1/3 85/1/3
f 94/1/3 86/1/3 93/1/3
f 95/1/3 88/1/3 87/1/3
f 96/1/3 88/1/3 95/1/3
f 99/2/3 98/2/3 97/2/3
f 100/2/3 98/2/3 99/2/3
f 101/2/3 98/2/3 100/2/3
f 102/2/3 98/2/3 101/2/3
f 103/2/4 104/2/4 105/2/4
f 105/2/4 104/2/4 106/2/4
f 106/2/4 104/2/4 107/2/4
f 107/2/4 104/2/4 108/2/4
f 109/1/4 110/1/4 117/1/4
f 117/1/4 110/1/4 118/1/4
f 111/1/4 112/1/4 119/1/4
f 119/1/4 112/1/4 120/1/4
f 113/1/4 114/1/4 121/1/4
f 121/1/4 114/1/4 122/1/4
f 115/1/4 116/1/4 123/1/4
f 123/1/4 116/1/4 124/1/4
f 125/2/4 126/2/4 131/2/4
f 131/2/4 126/2/4 132/2/4
f 127/2/4 128/2/4 133/2/4
f 133/2/4 128/2/4 134/2/4
f 129/2/4 130/2/4 135/2/4
f 135/2/4 130/2/4 136/2/4
f 139/1/5 138/1/5 137/1/5
f 140/1/5 138/1/5 139/1/5
f 143/2/5 142/2/5 141/2/5
f 144/2/5 142/2/5 143/2/5
f 145/2/5 143/2/5 141/2/5
f 146/2/5 142/2/5 144/2/5
f 147/2/5 145/2/5 141/2/5
f 147/2/5 146/2/5 145/2/5
f 148/2/5 142/2/5 146/2/5
f 148/2/5 146/2/5 147/2/5
f 151/2/5 150/2/5 149/2/5
f 152/2/5 150/2/5 151/2/5
f 153/2/5 151/2/5 149/2/5
f 154/2/5 150/2/5 152/2/5
f 155/2/5 153/2/5 149/2/5
f 155/2/5 154/2/5 153/2/5
f 156/2/5 150/2/5 154/2/5
f 156/2/5 154/2/5 155/2/5
f 159/2/5 158/2/5 157/2/5
f 160/2/5 158/2/5 159/2/5
f 161/2/5 159/2/5 157/2/5
f 162/2/5 158/2/5 160/2/5
f 163/2/5 161/2/5 157/2/5
f 163/2/5 162/2/5 161/2/5
f 164/2/5 158/2/5 162/2/5
f 164/2/5 162/2/5 163/2/5
f 167/2/5 166/2/5 165/2/5
f 168/2/5 166/2/5 167/2/5
f 169/2/6 170/2/6 171/2/6
f 171/2/6 170/2/6 172/2/6
f 169/2/6 171/2/6 173/2/6
f 172/2/6 170/2/6 174/2/6
f 169/2/6 173/2/6 175/2/6
f 173/2/6 174/2/6 175/2/6
f 174/2/6 170/2/6 176/2/6
f 175/2/6 174/2/6 176/2/6
f 177/2/6 178/2/6 179/2/6
f 179/2/6 178/2/6 180/2/6
f 177/2/6 179/2/6 181/2/6
f 180/2/6 178/2/6 182/2/6
f 177/2/6 181/2/6 183/2/6
f 181/2/6 182/2/6 183/2/6
f 182/2/6 178/2/6 184/2/6
f 183/2/6 182/2/6 184/2/6
f 185/2/6 186/2/6 187/2/6
f 187/2/6 186/2/6 188/2/6
f 185/2/6 187/2/6 189/2/6
f 188/2/6 186/2/6 190/2/6
f 185/2/6 189/2/6 191/2/6
f 189/2/6 190/2/6 191/2/6
f 190/2/6 186/2/6 192/2/6
f 191/2/6 190/2/6 192/2/6
f 193/1/6 194/1/6 195/1/6
f 195/1/6 194/1/6 196/1/6
f 193/1/6 195/1/6 197/1/6
f 196/1/6 194/1/6 198/1/6
f 193/1/6 197/1/6 199/1/6
f 197/1/6 198/1/6 199/1/6
f 198/1/6 194/1/6 200/1/6
f 199/1/6 198/1/6 200/1/6
f 201/2/6 202/2/6 203/2/6
f 203/2/6 202/2/6 204/2/6
