# MagicaVoxel @ Ephtracy

# group
o 

# material
mtllib WagonRoue1.mtl
usemtl palette

# normals
vn -1 0 0
vn 1 0 0
vn 0 0 1
vn 0 0 -1
vn 0 -1 0
vn 0 1 0

# texcoords
vt 0.916016 0.5
vt 0.923828 0.5

# verts
v -0.8 0.1 0.8
v -0.8 0.1 0.7
v -0.8 0.1 -0.7
v -0.8 0.1 -0.8
v -0.8 0.4 0.8
v -0.8 0.4 0.7
v -0.8 0.4 -0.7
v -0.8 0.4 -0.8
v -0.7 0 0.8
v -0.7 0 0.7
v -0.7 0 -0.7
v -0.7 0 -0.8
v -0.7 0.1 0.8
v -0.7 0.1 0.7
v -0.7 0.1 -0.7
v -0.7 0.1 -0.8
v -0.7 0.4 0.8
v -0.7 0.4 0.7
v -0.7 0.4 -0.7
v -0.7 0.4 -0.8
v -0.7 0.5 0.8
v -0.7 0.5 0.7
v -0.7 0.5 -0.7
v -0.7 0.5 -0.8
v 0.3 0.1 0.8
v 0.3 0.1 0.7
v 0.3 0.1 -0.7
v 0.3 0.1 -0.8
v 0.3 0.4 0.8
v 0.3 0.4 0.7
v 0.3 0.4 -0.7
v 0.3 0.4 -0.8
v 0.4 0 0.8
v 0.4 0 0.7
v 0.4 0 -0.7
v 0.4 0 -0.8
v 0.4 0.1 0.8
v 0.4 0.1 0.7
v 0.4 0.1 -0.7
v 0.4 0.1 -0.8
v 0.4 0.4 0.8
v 0.4 0.4 0.7
v 0.4 0.4 -0.7
v 0.4 0.4 -0.8
v 0.4 0.5 0.8
v 0.4 0.5 0.7
v 0.4 0.5 -0.7
v 0.4 0.5 -0.8
v -0.4 0 0.8
v -0.4 0 0.7
v -0.4 0 -0.7
v -0.4 0 -0.8
v -0.4 0.1 0.8
v -0.4 0.1 0.7
v -0.4 0.1 -0.7
v -0.4 0.1 -0.8
v -0.4 0.4 0.8
v -0.4 0.4 0.7
v -0.4 0.4 -0.7
v -0.4 0.4 -0.8
v -0.4 0.5 0.8
v -0.4 0.5 0.7
v -0.4 0.5 -0.7
v -0.4 0.5 -0.8
v -0.3 0.1 0.8
v -0.3 0.1 0.7
v -0.3 0.1 -0.7
v -0.3 0.1 -0.8
v -0.3 0.4 0.8
v -0.3 0.4 0.7
v -0.3 0.4 -0.7
v -0.3 0.4 -0.8
v 0.7 0 0.8
v 0.7 0 0.7
v 0.7 0 -0.7
v 0.7 0 -0.8
v 0.7 0.1 0.8
v 0.7 0.1 0.7
v 0.7 0.1 -0.7
v 0.7 0.1 -0.8
v 0.7 0.4 0.8
v 0.7 0.4 0.7
v 0.7 0.4 -0.7
v 0.7 0.4 -0.8
v 0.7 0.5 0.8
v 0.7 0.5 0.7
v 0.7 0.5 -0.7
v 0.7 0.5 -0.8
v 0.8 0.1 0.8
v 0.8 0.1 0.7
v 0.8 0.1 -0.7
v 0.8 0.1 -0.8
v 0.8 0.4 0.8
v 0.8 0.4 0.7
v 0.8 0.4 -0.7
v 0.8 0.4 -0.8
v -0.8 0.1 0.8
v -0.8 0.4 0.8
v -0.7 0 0.8
v -0.7 0.1 0.8
v -0.7 0.4 0.8
v -0.7 0.5 0.8
v -0.6 0.2 0.8
v -0.6 0.3 0.8
v -0.5 0.2 0.8
v -0.5 0.3 0.8
v -0.4 0 0.8
v -0.4 0.1 0.8
v -0.4 0.4 0.8
v -0.4 0.5 0.8
v -0.3 0.1 0.8
v -0.3 0.4 0.8
v 0.3 0.1 0.8
v 0.3 0.4 0.8
v 0.4 0 0.8
v 0.4 0.1 0.8
v 0.4 0.4 0.8
v 0.4 0.5 0.8
v 0.5 0.2 0.8
v 0.5 0.3 0.8
v 0.6 0.2 0.8
v 0.6 0.3 0.8
v 0.7 0 0.8
v 0.7 0.1 0.8
v 0.7 0.4 0.8
v 0.7 0.5 0.8
v 0.8 0.1 0.8
v 0.8 0.4 0.8
v -0.8 0.1 -0.7
v -0.8 0.4 -0.7
v -0.7 0 -0.7
v -0.7 0.1 -0.7
v -0.7 0.4 -0.7
v -0.7 0.5 -0.7
v -0.6 0.2 -0.7
v -0.6 0.3 -0.7
v -0.5 0.2 -0.7
v -0.5 0.3 -0.7
v -0.4 0 -0.7
v -0.4 0.1 -0.7
v -0.4 0.4 -0.7
v -0.4 0.5 -0.7
v -0.3 0.1 -0.7
v -0.3 0.4 -0.7
v 0.3 0.1 -0.7
v 0.3 0.4 -0.7
v 0.4 0 -0.7
v 0.4 0.1 -0.7
v 0.4 0.4 -0.7
v 0.4 0.5 -0.7
v 0.5 0.2 -0.7
v 0.5 0.3 -0.7
v 0.6 0.2 -0.7
v 0.6 0.3 -0.7
v 0.7 0 -0.7
v 0.7 0.1 -0.7
v 0.7 0.4 -0.7
v 0.7 0.5 -0.7
v 0.8 0.1 -0.7
v 0.8 0.4 -0.7
v -0.8 0.1 0.7
v -0.8 0.4 0.7
v -0.7 0 0.7
v -0.7 0.1 0.7
v -0.7 0.4 0.7
v -0.7 0.5 0.7
v -0.6 0.2 0.7
v -0.6 0.3 0.7
v -0.5 0.2 0.7
v -0.5 0.3 0.7
v -0.4 0 0.7
v -0.4 0.1 0.7
v -0.4 0.4 0.7
v -0.4 0.5 0.7
v -0.3 0.1 0.7
v -0.3 0.4 0.7
v 0.3 0.1 0.7
v 0.3 0.4 0.7
v 0.4 0 0.7
v 0.4 0.1 0.7
v 0.4 0.4 0.7
v 0.4 0.5 0.7
v 0.5 0.2 0.7
v 0.5 0.3 0.7
v 0.6 0.2 0.7
v 0.6 0.3 0.7
v 0.7 0 0.7
v 0.7 0.1 0.7
v 0.7 0.4 0.7
v 0.7 0.5 0.7
v 0.8 0.1 0.7
v 0.8 0.4 0.7
v -0.8 0.1 -0.8
v -0.8 0.4 -0.8
v -0.7 0 -0.8
v -0.7 0.1 -0.8
v -0.7 0.4 -0.8
v -0.7 0.5 -0.8
v -0.6 0.2 -0.8
v -0.6 0.3 -0.8
v -0.5 0.2 -0.8
v -0.5 0.3 -0.8
v -0.4 0 -0.8
v -0.4 0.1 -0.8
v -0.4 0.4 -0.8
v -0.4 0.5 -0.8
v -0.3 0.1 -0.8
v -0.3 0.4 -0.8
v 0.3 0.1 -0.8
v 0.3 0.4 -0.8
v 0.4 0 -0.8
v 0.4 0.1 -0.8
v 0.4 0.4 -0.8
v 0.4 0.5 -0.8
v 0.5 0.2 -0.8
v 0.5 0.3 -0.8
v 0.6 0.2 -0.8
v 0.6 0.3 -0.8
v 0.7 0 -0.8
v 0.7 0.1 -0.8
v 0.7 0.4 -0.8
v 0.7 0.5 -0.8
v 0.8 0.1 -0.8
v 0.8 0.4 -0.8
v -0.7 0 0.8
v -0.4 0 0.8
v 0.4 0 0.8
v 0.7 0 0.8
v -0.7 0 0.7
v -0.4 0 0.7
v 0.4 0 0.7
v 0.7 0 0.7
v -0.7 0 -0.7
v -0.4 0 -0.7
v 0.4 0 -0.7
v 0.7 0 -0.7
v -0.7 0 -0.8
v -0.4 0 -0.8
v 0.4 0 -0.8
v 0.7 0 -0.8
v -0.8 0.1 0.8
v -0.7 0.1 0.8
v -0.4 0.1 0.8
v -0.3 0.1 0.8
v 0.3 0.1 0.8
v 0.4 0.1 0.8
v 0.7 0.1 0.8
v 0.8 0.1 0.8
v -0.8 0.1 0.7
v -0.7 0.1 0.7
v -0.4 0.1 0.7
v -0.3 0.1 0.7
v 0.3 0.1 0.7
v 0.4 0.1 0.7
v 0.7 0.1 0.7
v 0.8 0.1 0.7
v -0.8 0.1 -0.7
v -0.7 0.1 -0.7
v -0.4 0.1 -0.7
v -0.3 0.1 -0.7
v 0.3 0.1 -0.7
v 0.4 0.1 -0.7
v 0.7 0.1 -0.7
v 0.8 0.1 -0.7
v -0.8 0.1 -0.8
v -0.7 0.1 -0.8
v -0.4 0.1 -0.8
v -0.3 0.1 -0.8
v 0.3 0.1 -0.8
v 0.4 0.1 -0.8
v 0.7 0.1 -0.8
v 0.8 0.1 -0.8
v -0.8 0.4 0.8
v -0.7 0.4 0.8
v -0.4 0.4 0.8
v -0.3 0.4 0.8
v 0.3 0.4 0.8
v 0.4 0.4 0.8
v 0.7 0.4 0.8
v 0.8 0.4 0.8
v -0.8 0.4 0.7
v -0.7 0.4 0.7
v -0.4 0.4 0.7
v -0.3 0.4 0.7
v 0.3 0.4 0.7
v 0.4 0.4 0.7
v 0.7 0.4 0.7
v 0.8 0.4 0.7
v -0.8 0.4 -0.7
v -0.7 0.4 -0.7
v -0.4 0.4 -0.7
v -0.3 0.4 -0.7
v 0.3 0.4 -0.7
v 0.4 0.4 -0.7
v 0.7 0.4 -0.7
v 0.8 0.4 -0.7
v -0.8 0.4 -0.8
v -0.7 0.4 -0.8
v -0.4 0.4 -0.8
v -0.3 0.4 -0.8
v 0.3 0.4 -0.8
v 0.4 0.4 -0.8
v 0.7 0.4 -0.8
v 0.8 0.4 -0.8
v -0.7 0.5 0.8
v -0.4 0.5 0.8
v 0.4 0.5 0.8
v 0.7 0.5 0.8
v -0.7 0.5 0.7
v -0.4 0.5 0.7
v 0.4 0.5 0.7
v 0.7 0.5 0.7
v -0.7 0.5 -0.7
v -0.4 0.5 -0.7
v 0.4 0.5 -0.7
v 0.7 0.5 -0.7
v -0.7 0.5 -0.8
v -0.4 0.5 -0.8
v 0.4 0.5 -0.8
v 0.7 0.5 -0.8

# faces
f 5/1/1 2/1/1 1/1/1
f 6/1/1 2/1/1 5/1/1
f 7/1/1 4/1/1 3/1/1
f 8/1/1 4/1/1 7/1/1
f 13/1/1 10/1/1 9/1/1
f 14/1/1 10/1/1 13/1/1
f 15/1/1 12/1/1 11/1/1
f 16/1/1 12/1/1 15/1/1
f 21/1/1 18/1/1 17/1/1
f 22/1/1 18/1/1 21/1/1
f 23/1/1 20/1/1 19/1/1
f 24/1/1 20/1/1 23/1/1
f 29/1/1 26/1/1 25/1/1
f 30/1/1 26/1/1 29/1/1
f 31/1/1 28/1/1 27/1/1
f 32/1/1 28/1/1 31/1/1
f 37/1/1 34/1/1 33/1/1
f 38/1/1 34/1/1 37/1/1
f 39/1/1 36/1/1 35/1/1
f 40/1/1 36/1/1 39/1/1
f 45/1/1 42/1/1 41/1/1
f 46/1/1 42/1/1 45/1/1
f 47/1/1 44/1/1 43/1/1
f 48/1/1 44/1/1 47/1/1
f 49/1/2 50/1/2 53/1/2
f 53/1/2 50/1/2 54/1/2
f 51/1/2 52/1/2 55/1/2
f 55/1/2 52/1/2 56/1/2
f 57/1/2 58/1/2 61/1/2
f 61/1/2 58/1/2 62/1/2
f 59/1/2 60/1/2 63/1/2
f 63/1/2 60/1/2 64/1/2
f 65/1/2 66/1/2 69/1/2
f 69/1/2 66/1/2 70/1/2
f 67/1/2 68/1/2 71/1/2
f 71/1/2 68/1/2 72/1/2
f 73/1/2 74/1/2 77/1/2
f 77/1/2 74/1/2 78/1/2
f 75/1/2 76/1/2 79/1/2
f 79/1/2 76/1/2 80/1/2
f 81/1/2 82/1/2 85/1/2
f 85/1/2 82/1/2 86/1/2
f 83/1/2 84/1/2 87/1/2
f 87/1/2 84/1/2 88/1/2
f 89/1/2 90/1/2 93/1/2
f 93/1/2 90/1/2 94/1/2
f 91/1/2 92/1/2 95/1/2
f 95/1/2 92/1/2 96/1/2
f 100/1/3 98/1/3 97/1/3
f 101/1/3 98/1/3 100/1/3
f 103/2/3 101/2/3 100/2/3
f 104/2/3 101/2/3 103/2/3
f 105/2/3 103/2/3 100/2/3
f 105/1/3 104/1/3 103/1/3
f 106/2/3 101/2/3 104/2/3
f 106/1/3 104/1/3 105/1/3
f 107/1/3 100/1/3 99/1/3
f 108/2/3 105/2/3 100/2/3
f 108/1/3 100/1/3 107/1/3
f 108/2/3 106/2/3 105/2/3
f 109/2/3 101/2/3 106/2/3
f 109/2/3 106/2/3 108/2/3
f 109/1/3 102/1/3 101/1/3
f 110/1/3 102/1/3 109/1/3
f 111/1/3 109/1/3 108/1/3
f 112/1/3 109/1/3 111/1/3
f 116/1/3 114/1/3 113/1/3
f 117/1/3 114/1/3 116/1/3
f 119/2/3 117/2/3 116/2/3
f 120/2/3 117/2/3 119/2/3
f 121/2/3 119/2/3 116/2/3
f 121/1/3 120/1/3 119/1/3
f 122/2/3 117/2/3 120/2/3
f 122/1/3 120/1/3 121/1/3
f 123/1/3 116/1/3 115/1/3
f 124/2/3 121/2/3 116/2/3
f 124/1/3 116/1/3 123/1/3
f 124/2/3 122/2/3 121/2/3
f 125/1/3 118/1/3 117/1/3
f 125/2/3 122/2/3 124/2/3
f 125/2/3 117/2/3 122/2/3
f 126/1/3 118/1/3 125/1/3
f 127/1/3 125/1/3 124/1/3
f 128/1/3 125/1/3 127/1/3
f 132/1/3 130/1/3 129/1/3
f 133/1/3 130/1/3 132/1/3
f 135/2/3 133/2/3 132/2/3
f 136/2/3 133/2/3 135/2/3
f 137/2/3 135/2/3 132/2/3
f 137/1/3 136/1/3 135/1/3
f 138/2/3 133/2/3 136/2/3
f 138/1/3 136/1/3 137/1/3
f 139/1/3 132/1/3 131/1/3
f 140/2/3 137/2/3 132/2/3
f 140/1/3 132/1/3 139/1/3
f 140/2/3 138/2/3 137/2/3
f 141/2/3 133/2/3 138/2/3
f 141/2/3 138/2/3 140/2/3
f 141/1/3 134/1/3 133/1/3
f 142/1/3 134/1/3 141/1/3
f 143/1/3 141/1/3 140/1/3
f 144/1/3 141/1/3 143/1/3
f 148/1/3 146/1/3 145/1/3
f 149/1/3 146/1/3 148/1/3
f 151/2/3 149/2/3 148/2/3
f 152/2/3 149/2/3 151/2/3
f 153/2/3 151/2/3 148/2/3
f 153/1/3 152/1/3 151/1/3
f 154/2/3 149/2/3 152/2/3
f 154/1/3 152/1/3 153/1/3
f 155/1/3 148/1/3 147/1/3
f 156/2/3 153/2/3 148/2/3
f 156/1/3 148/1/3 155/1/3
f 156/2/3 154/2/3 153/2/3
f 157/1/3 150/1/3 149/1/3
f 157/2/3 154/2/3 156/2/3
f 157/2/3 149/2/3 154/2/3
f 158/1/3 150/1/3 157/1/3
f 159/1/3 157/1/3 156/1/3
f 160/1/3 157/1/3 159/1/3
f 161/1/4 162/1/4 164/1/4
f 164/1/4 162/1/4 165/1/4
f 164/2/4 165/2/4 167/2/4
f 167/2/4 165/2/4 168/2/4
f 164/2/4 167/2/4 169/2/4
f 167/1/4 168/1/4 169/1/4
f 168/2/4 165/2/4 170/2/4
f 169/1/4 168/1/4 170/1/4
f 163/1/4 164/1/4 171/1/4
f 164/2/4 169/2/4 172/2/4
f 171/1/4 164/1/4 172/1/4
f 169/2/4 170/2/4 172/2/4
f 170/2/4 165/2/4 173/2/4
f 172/2/4 170/2/4 173/2/4
f 165/1/4 166/1/4 173/1/4
f 173/1/4 166/1/4 174/1/4
f 172/1/4 173/1/4 175/1/4
f 175/1/4 173/1/4 176/1/4
f 177/1/4 178/1/4 180/1/4
f 180/1/4 178/1/4 181/1/4
f 180/2/4 181/2/4 183/2/4
f 183/2/4 181/2/4 184/2/4
f 180/2/4 183/2/4 185/2/4
f 183/1/4 184/1/4 185/1/4
f 184/2/4 181/2/4 186/2/4
f 185/1/4 184/1/4 186/1/4
f 179/1/4 180/1/4 187/1/4
f 180/2/4 185/2/4 188/2/4
f 187/1/4 180/1/4 188/1/4
f 185/2/4 186/2/4 188/2/4
f 181/1/4 182/1/4 189/1/4
f 188/2/4 186/2/4 189/2/4
f 186/2/4 181/2/4 189/2/4
f 189/1/4 182/1/4 190/1/4
f 188/1/4 189/1/4 191/1/4
f 191/1/4 189/1/4 192/1/4
f 193/1/4 194/1/4 196/1/4
f 196/1/4 194/1/4 197/1/4
f 196/2/4 197/2/4 199/2/4
f 199/2/4 197/2/4 200/2/4
f 196/2/4 199/2/4 201/2/4
f 199/1/4 200/1/4 201/1/4
f 200/2/4 197/2/4 202/2/4
f 201/1/4 200/1/4 202/1/4
f 195/1/4 196/1/4 203/1/4
f 196/2/4 201/2/4 204/2/4
f 203/1/4 196/1/4 204/1/4
f 201/2/4 202/2/4 204/2/4
f 202/2/4 197/2/4 205/2/4
f 204/2/4 202/2/4 205/2/4
f 197/1/4 198/1/4 205/1/4
f 205/1/4 198/1/4 206/1/4
f 204/1/4 205/1/4 207/1/4
f 207/1/4 205/1/4 208/1/4
f 209/1/4 210/1/4 212/1/4
f 212/1/4 210/1/4 213/1/4
f 212/2/4 213/2/4 215/2/4
f 215/2/4 213/2/4 216/2/4
f 212/2/4 215/2/4 217/2/4
f 215/1/4 216/1/4 217/1/4
f 216/2/4 213/2/4 218/2/4
f 217/1/4 216/1/4 218/1/4
f 211/1/4 212/1/4 219/1/4
f 212/2/4 217/2/4 220/2/4
f 219/1/4 212/1/4 220/1/4
f 217/2/4 218/2/4 220/2/4
f 213/1/4 214/1/4 221/1/4
f 220/2/4 218/2/4 221/2/4
f 218/2/4 213/2/4 221/2/4
f 221/1/4 214/1/4 222/1/4
f 220/1/4 221/1/4 223/1/4
f 223/1/4 221/1/4 224/1/4
f 229/1/5 226/1/5 225/1/5
f 230/1/5 226/1/5 229/1/5
f 231/1/5 228/1/5 227/1/5
f 232/1/5 228/1/5 231/1/5
f 237/1/5 234/1/5 233/1/5
f 238/1/5 234/1/5 237/1/5
f 239/1/5 236/1/5 235/1/5
f 240/1/5 236/1/5 239/1/5
f 249/1/5 242/1/5 241/1/5
f 250/1/5 242/1/5 249/1/5
f 251/1/5 244/1/5 243/1/5
f 252/1/5 244/1/5 251/1/5
f 253/1/5 246/1/5 245/1/5
f 254/1/5 246/1/5 253/1/5
f 255/1/5 248/1/5 247/1/5
f 256/1/5 248/1/5 255/1/5
f 265/1/5 258/1/5 257/1/5
f 266/1/5 258/1/5 265/1/5
f 267/1/5 260/1/5 259/1/5
f 268/1/5 260/1/5 267/1/5
f 269/1/5 262/1/5 261/1/5
f 270/1/5 262/1/5 269/1/5
f 271/1/5 264/1/5 263/1/5
f 272/1/5 264/1/5 271/1/5
f 273/1/6 274/1/6 281/1/6
f 281/1/6 274/1/6 282/1/6
f 275/1/6 276/1/6 283/1/6
f 283/1/6 276/1/6 284/1/6
f 277/1/6 278/1/6 285/1/6
f 285/1/6 278/1/6 286/1/6
f 279/1/6 280/1/6 287/1/6
f 287/1/6 280/1/6 288/1/6
f 289/1/6 290/1/6 297/1/6
f 297/1/6 290/1/6 298/1/6
f 291/1/6 292/1/6 299/1/6
f 299/1/6 292/1/6 300/1/6
f 293/1/6 294/1/6 301/1/6
f 301/1/6 294/1/6 302/1/6
f 295/1/6 296/1/6 303/1/6
f 303/1/6 296/1/6 304/1/6
f 305/1/6 306/1/6 309/1/6
f 309/1/6 306/1/6 310/1/6
f 307/1/6 308/1/6 311/1/6
f 311/1/6 308/1/6 312/1/6
f 313/1/6 314/1/6 317/1/6
f 317/1/6 314/1/6 318/1/6
f 315/1/6 316/1/6 319/1/6
f 319/1/6 316/1/6 320/1/6
