# MagicaVoxel @ Ephtracy

# group
o 

# material
mtllib Mousse1.mtl
usemtl palette

# normals
vn -1 0 0
vn 1 0 0
vn 0 0 1
vn 0 0 -1
vn 0 -1 0
vn 0 1 0

# texcoords
vt 0.986328 0.5
vt 0.990234 0.5

# verts
v -0.7 0 0.1
v -0.7 0 -0.4
v -0.7 0.1 0.1
v -0.7 0.1 -0.4
v -0.6 0 0.2
v -0.6 0 0.1
v -0.6 0.1 0.1
v -0.6 0.1 0
v -0.6 0.2 0.2
v -0.6 0.2 0
v -0.4 0 0.7
v -0.4 0 0.5
v -0.4 0 0
v -0.4 0 -0.1
v -0.4 0.1 0.7
v -0.4 0.1 0.5
v -0.4 0.1 0
v -0.4 0.1 -0.1
v -0.3 0 0.5
v -0.3 0 0.2
v -0.3 0.1 0.5
v -0.3 0.1 0.2
v -0.2 0 0.2
v -0.2 0 0.1
v -0.2 0 -0.3
v -0.2 0 -0.5
v -0.2 0.1 0.3
v -0.2 0.1 0.2
v -0.2 0.1 0.1
v -0.2 0.1 -0.3
v -0.2 0.1 -0.5
v -0.2 0.2 0.3
v -0.2 0.2 0.1
v 0 0 -0.2
v 0 0 -0.3
v 0 0.1 -0.3
v 0 0.1 -0.4
v 0 0.2 -0.2
v 0 0.2 -0.4
v 0.2 0 0.1
v 0.2 0 -0.2
v 0.2 0.1 0.1
v 0.2 0.1 -0.2
v 0.4 0 0.6
v 0.4 0 0.5
v 0.4 0 -0.2
v 0.4 0 -0.7
v 0.4 0.1 0.5
v 0.4 0.1 0.4
v 0.4 0.1 -0.1
v 0.4 0.1 -0.2
v 0.4 0.1 -0.3
v 0.4 0.1 -0.7
v 0.4 0.2 0.6
v 0.4 0.2 0.4
v 0.4 0.2 -0.1
v 0.4 0.2 -0.3
v -0.5 0 0
v -0.5 0 -0.1
v -0.5 0 -0.3
v -0.5 0 -0.4
v -0.5 0.1 0
v -0.5 0.1 -0.1
v -0.5 0.1 -0.3
v -0.5 0.1 -0.4
v -0.3 0 0.2
v -0.3 0 0.1
v -0.3 0 -0.1
v -0.3 0 -0.3
v -0.3 0.1 0.2
v -0.3 0.1 0.1
v -0.3 0.1 0
v -0.3 0.1 -0.1
v -0.3 0.1 -0.3
v -0.3 0.2 0.2
v -0.3 0.2 0
v -0.2 0 0.1
v -0.2 0 -0.1
v -0.2 0.1 0.1
v -0.2 0.1 -0.1
v -0.1 0 0.7
v -0.1 0 0.5
v -0.1 0.1 0.7
v -0.1 0.1 0.5
v 0.1 0 -0.4
v 0.1 0 -0.5
v 0.1 0.1 -0.4
v 0.1 0.1 -0.5
v 0.2 0 0.2
v 0.2 0 0.1
v 0.2 0 -0.2
v 0.2 0 -0.4
v 0.2 0.1 0.3
v 0.2 0.1 0.2
v 0.2 0.1 0.1
v 0.2 0.1 -0.2
v 0.2 0.2 0.3
v 0.2 0.2 0.1
v 0.2 0.2 -0.2
v 0.2 0.2 -0.4
v 0.4 0 0.1
v 0.4 0 -0.1
v 0.4 0.1 0.1
v 0.4 0.1 -0.1
v 0.5 0 0.4
v 0.5 0 0.2
v 0.5 0.1 0.4
v 0.5 0.1 0.2
v 0.6 0 -0.1
v 0.6 0 -0.2
v 0.6 0.1 -0.2
v 0.6 0.1 -0.3
v 0.6 0.2 -0.1
v 0.6 0.2 -0.3
v 0.7 0 0.6
v 0.7 0 0.4
v 0.7 0 -0.2
v 0.7 0 -0.7
v 0.7 0.1 -0.2
v 0.7 0.1 -0.7
v 0.7 0.2 0.6
v 0.7 0.2 0.4
v -0.4 0 0.7
v -0.4 0.1 0.7
v -0.1 0 0.7
v -0.1 0.1 0.7
v 0.4 0 0.6
v 0.4 0.2 0.6
v 0.7 0 0.6
v 0.7 0.2 0.6
v -0.1 0 0.5
v -0.1 0.1 0.5
v 0.4 0 0.5
v 0.4 0.1 0.5
v -0.2 0.1 0.3
v -0.2 0.2 0.3
v 0.2 0.1 0.3
v 0.2 0.2 0.3
v -0.6 0 0.2
v -0.6 0.2 0.2
v -0.3 0 0.2
v -0.3 0.1 0.2
v -0.3 0.2 0.2
v -0.7 0 0.1
v -0.7 0.1 0.1
v -0.6 0 0.1
v -0.6 0.1 0.1
v -0.3 0 0.1
v -0.3 0.1 0.1
v -0.2 0 0.1
v -0.2 0.1 0.1
v 0.2 0 0.1
v 0.2 0.1 0.1
v 0.4 0 0.1
v 0.4 0.1 0.1
v -0.5 0 -0.1
v -0.5 0.1 -0.1
v -0.4 0 -0.1
v -0.4 0.1 -0.1
v 0.4 0 -0.1
v 0.4 0.1 -0.1
v 0.4 0.2 -0.1
v 0.6 0 -0.1
v 0.6 0.2 -0.1
v 0 0 -0.2
v 0 0.2 -0.2
v 0.2 0 -0.2
v 0.2 0.1 -0.2
v 0.2 0.2 -0.2
v 0.6 0 -0.2
v 0.6 0.1 -0.2
v 0.7 0 -0.2
v 0.7 0.1 -0.2
v -0.2 0 -0.3
v -0.2 0.1 -0.3
v 0 0 -0.3
v 0 0.1 -0.3
v -0.4 0 0.5
v -0.4 0.1 0.5
v -0.3 0 0.5
v -0.3 0.1 0.5
v 0.4 0.1 0.4
v 0.4 0.2 0.4
v 0.5 0 0.4
v 0.5 0.1 0.4
v 0.7 0 0.4
v 0.7 0.2 0.4
v -0.3 0 0.2
v -0.3 0.1 0.2
v -0.2 0 0.2
v -0.2 0.1 0.2
v 0.2 0 0.2
v 0.2 0.1 0.2
v 0.5 0 0.2
v 0.5 0.1 0.2
v -0.2 0 0.1
v -0.2 0.1 0.1
v -0.2 0.2 0.1
v 0.2 0 0.1
v 0.2 0.1 0.1
v 0.2 0.2 0.1
v -0.6 0.1 0
v -0.6 0.2 0
v -0.5 0 0
v -0.5 0.1 0
v -0.4 0 0
v -0.4 0.1 0
v -0.3 0.1 0
v -0.3 0.2 0
v -0.3 0 -0.1
v -0.3 0.1 -0.1
v -0.2 0 -0.1
v -0.2 0.1 -0.1
v 0.2 0 -0.2
v 0.2 0.1 -0.2
v 0.4 0 -0.2
v 0.4 0.1 -0.2
v -0.5 0 -0.3
v -0.5 0.1 -0.3
v -0.3 0 -0.3
v -0.3 0.1 -0.3
v 0.4 0.1 -0.3
v 0.4 0.2 -0.3
v 0.6 0.1 -0.3
v 0.6 0.2 -0.3
v -0.7 0 -0.4
v -0.7 0.1 -0.4
v -0.5 0 -0.4
v -0.5 0.1 -0.4
v 0 0.1 -0.4
v 0 0.2 -0.4
v 0.1 0 -0.4
v 0.1 0.1 -0.4
v 0.2 0 -0.4
v 0.2 0.2 -0.4
v -0.2 0 -0.5
v -0.2 0.1 -0.5
v 0.1 0 -0.5
v 0.1 0.1 -0.5
v 0.4 0 -0.7
v 0.4 0.1 -0.7
v 0.7 0 -0.7
v 0.7 0.1 -0.7
v -0.4 0 0.7
v -0.1 0 0.7
v 0.4 0 0.6
v 0.7 0 0.6
v -0.4 0 0.5
v -0.3 0 0.5
v -0.1 0 0.5
v 0.4 0 0.5
v 0.5 0 0.5
v 0.5 0 0.4
v 0.7 0 0.4
v -0.6 0 0.2
v -0.3 0 0.2
v -0.2 0 0.2
v 0.2 0 0.2
v 0.5 0 0.2
v -0.7 0 0.1
v -0.6 0 0.1
v -0.5 0 0.1
v -0.4 0 0.1
v -0.3 0 0.1
v -0.2 0 0.1
v 0.2 0 0.1
v 0.4 0 0.1
v -0.5 0 0
v -0.4 0 0
v -0.5 0 -0.1
v -0.4 0 -0.1
v -0.3 0 -0.1
v -0.2 0 -0.1
v 0.4 0 -0.1
v 0.6 0 -0.1
v 0 0 -0.2
v 0.2 0 -0.2
v 0.4 0 -0.2
v 0.6 0 -0.2
v 0.7 0 -0.2
v -0.5 0 -0.3
v -0.3 0 -0.3
v -0.2 0 -0.3
v 0 0 -0.3
v 0.1 0 -0.3
v -0.7 0 -0.4
v -0.5 0 -0.4
v 0.1 0 -0.4
v 0.2 0 -0.4
v -0.2 0 -0.5
v 0.1 0 -0.5
v 0.4 0 -0.7
v 0.7 0 -0.7
v -0.4 0.1 0.7
v -0.1 0.1 0.7
v -0.4 0.1 0.5
v -0.3 0.1 0.5
v -0.1 0.1 0.5
v 0.4 0.1 0.5
v 0.4 0.1 0.4
v 0.5 0.1 0.4
v -0.2 0.1 0.3
v 0.2 0.1 0.3
v -0.3 0.1 0.2
v -0.2 0.1 0.2
v 0.2 0.1 0.2
v 0.5 0.1 0.2
v -0.7 0.1 0.1
v -0.6 0.1 0.1
v -0.3 0.1 0.1
v -0.2 0.1 0.1
v 0.2 0.1 0.1
v 0.4 0.1 0.1
v -0.6 0.1 0
v -0.5 0.1 0
v -0.4 0.1 0
v -0.3 0.1 0
v -0.5 0.1 -0.1
v -0.4 0.1 -0.1
v -0.3 0.1 -0.1
v -0.2 0.1 -0.1
v 0.4 0.1 -0.1
v 0.2 0.1 -0.2
v 0.4 0.1 -0.2
v 0.6 0.1 -0.2
v 0.7 0.1 -0.2
v -0.5 0.1 -0.3
v -0.3 0.1 -0.3
v -0.2 0.1 -0.3
v 0 0.1 -0.3
v 0.4 0.1 -0.3
v 0.6 0.1 -0.3
v -0.7 0.1 -0.4
v -0.5 0.1 -0.4
v 0 0.1 -0.4
v 0.1 0.1 -0.4
v -0.2 0.1 -0.5
v 0.1 0.1 -0.5
v 0.4 0.1 -0.7
v 0.7 0.1 -0.7
v 0.4 0.2 0.6
v 0.7 0.2 0.6
v 0.4 0.2 0.4
v 0.7 0.2 0.4
v -0.2 0.2 0.3
v 0.2 0.2 0.3
v -0.6 0.2 0.2
v -0.3 0.2 0.2
v -0.2 0.2 0.1
v 0.2 0.2 0.1
v -0.6 0.2 0
v -0.3 0.2 0
v 0.4 0.2 -0.1
v 0.6 0.2 -0.1
v 0 0.2 -0.2
v 0.2 0.2 -0.2
v 0.4 0.2 -0.3
v 0.6 0.2 -0.3
v 0 0.2 -0.4
v 0.2 0.2 -0.4

# faces
f 3/1/1 2/1/1 1/1/1
f 4/1/1 2/1/1 3/1/1
f 7/2/1 6/2/1 5/2/1
f 9/2/1 7/2/1 5/2/1
f 9/2/1 8/2/1 7/2/1
f 10/2/1 8/2/1 9/2/1
f 15/2/1 12/2/1 11/2/1
f 16/2/1 12/2/1 15/2/1
f 17/1/1 14/1/1 13/1/1
f 18/1/1 14/1/1 17/1/1
f 21/1/1 20/1/1 19/1/1
f 22/1/1 20/1/1 21/1/1
f 28/2/1 24/2/1 23/2/1
f 29/2/1 24/2/1 28/2/1
f 30/1/1 26/1/1 25/1/1
f 31/1/1 26/1/1 30/1/1
f 32/2/1 29/2/1 28/2/1
f 32/2/1 28/2/1 27/2/1
f 33/2/1 29/2/1 32/2/1
f 36/2/1 35/2/1 34/2/1
f 38/2/1 36/2/1 34/2/1
f 38/2/1 37/2/1 36/2/1
f 39/2/1 37/2/1 38/2/1
f 42/2/1 41/2/1 40/2/1
f 43/2/1 41/2/1 42/2/1
f 48/2/1 45/2/1 44/2/1
f 51/1/1 47/1/1 46/1/1
f 52/1/1 47/1/1 51/1/1
f 53/1/1 47/1/1 52/1/1
f 54/2/1 49/2/1 48/2/1
f 54/2/1 48/2/1 44/2/1
f 55/2/1 49/2/1 54/2/1
f 56/2/1 52/2/1 51/2/1
f 56/2/1 51/2/1 50/2/1
f 57/2/1 52/2/1 56/2/1
f 58/1/2 59/1/2 62/1/2
f 62/1/2 59/1/2 63/1/2
f 60/1/2 61/1/2 64/1/2
f 64/1/2 61/1/2 65/1/2
f 66/2/2 67/2/2 70/2/2
f 70/2/2 67/2/2 71/2/2
f 68/2/2 69/2/2 73/2/2
f 73/2/2 69/2/2 74/2/2
f 71/2/2 72/2/2 75/2/2
f 70/2/2 71/2/2 75/2/2
f 75/2/2 72/2/2 76/2/2
f 77/1/2 78/1/2 79/1/2
f 79/1/2 78/1/2 80/1/2
f 81/2/2 82/2/2 83/2/2
f 83/2/2 82/2/2 84/2/2
f 85/1/2 86/1/2 87/1/2
f 87/1/2 86/1/2 88/1/2
f 89/2/2 90/2/2 94/2/2
f 94/2/2 90/2/2 95/2/2
f 91/2/2 92/2/2 96/2/2
f 94/2/2 95/2/2 97/2/2
f 93/2/2 94/2/2 97/2/2
f 97/2/2 95/2/2 98/2/2
f 96/2/2 92/2/2 99/2/2
f 99/2/2 92/2/2 100/2/2
f 101/2/2 102/2/2 103/2/2
f 103/2/2 102/2/2 104/2/2
f 105/1/2 106/1/2 107/1/2
f 107/1/2 106/1/2 108/1/2
f 109/2/2 110/2/2 111/2/2
f 109/2/2 111/2/2 113/2/2
f 111/2/2 112/2/2 113/2/2
f 113/2/2 112/2/2 114/2/2
f 117/1/2 118/1/2 119/1/2
f 119/1/2 118/1/2 120/1/2
f 115/2/2 116/2/2 121/2/2
f 121/2/2 116/2/2 122/2/2
f 125/2/3 124/2/3 123/2/3
f 126/2/3 124/2/3 125/2/3
f 129/2/3 128/2/3 127/2/3
f 130/2/3 128/2/3 129/2/3
f 133/1/3 132/1/3 131/1/3
f 134/1/3 132/1/3 133/1/3
f 137/2/3 136/2/3 135/2/3
f 138/2/3 136/2/3 137/2/3
f 141/2/3 140/2/3 139/2/3
f 142/2/3 140/2/3 141/2/3
f 143/2/3 140/2/3 142/2/3
f 146/1/3 145/1/3 144/1/3
f 147/1/3 145/1/3 146/1/3
f 150/1/3 149/1/3 148/1/3
f 151/1/3 149/1/3 150/1/3
f 154/2/3 153/2/3 152/2/3
f 155/2/3 153/2/3 154/2/3
f 158/2/3 157/2/3 156/2/3
f 159/2/3 157/2/3 158/2/3
f 163/2/3 161/2/3 160/2/3
f 163/2/3 162/2/3 161/2/3
f 164/2/3 162/2/3 163/2/3
f 167/2/3 166/2/3 165/2/3
f 168/2/3 166/2/3 167/2/3
f 169/2/3 166/2/3 168/2/3
f 172/1/3 171/1/3 170/1/3
f 173/1/3 171/1/3 172/1/3
f 176/1/3 175/1/3 174/1/3
f 177/1/3 175/1/3 176/1/3
f 178/2/4 179/2/4 180/2/4
f 180/2/4 179/2/4 181/2/4
f 182/2/4 183/2/4 185/2/4
f 184/2/4 185/2/4 186/2/4
f 185/2/4 183/2/4 187/2/4
f 186/2/4 185/2/4 187/2/4
f 188/1/4 189/1/4 190/1/4
f 190/1/4 189/1/4 191/1/4
f 192/1/4 193/1/4 194/1/4
f 194/1/4 193/1/4 195/1/4
f 196/2/4 197/2/4 199/2/4
f 197/2/4 198/2/4 199/2/4
f 199/2/4 198/2/4 200/2/4
f 200/2/4 198/2/4 201/2/4
f 202/2/4 203/2/4 205/2/4
f 204/2/4 205/2/4 206/2/4
f 205/2/4 203/2/4 207/2/4
f 206/2/4 205/2/4 207/2/4
f 207/2/4 203/2/4 208/2/4
f 208/2/4 203/2/4 209/2/4
f 210/1/4 211/1/4 212/1/4
f 212/1/4 211/1/4 213/1/4
f 214/2/4 215/2/4 216/2/4
f 216/2/4 215/2/4 217/2/4
f 218/2/4 219/2/4 220/2/4
f 220/2/4 219/2/4 221/2/4
f 222/2/4 223/2/4 224/2/4
f 224/2/4 223/2/4 225/2/4
f 226/1/4 227/1/4 228/1/4
f 228/1/4 227/1/4 229/1/4
f 230/2/4 231/2/4 233/2/4
f 232/2/4 233/2/4 234/2/4
f 233/2/4 231/2/4 235/2/4
f 234/2/4 233/2/4 235/2/4
f 236/1/4 237/1/4 238/1/4
f 238/1/4 237/1/4 239/1/4
f 240/1/4 241/1/4 242/1/4
f 242/1/4 241/1/4 243/1/4
f 248/2/5 245/2/5 244/2/5
f 249/2/5 245/2/5 248/2/5
f 250/2/5 245/2/5 249/2/5
f 251/2/5 247/2/5 246/2/5
f 252/2/5 247/2/5 251/2/5
f 253/1/5 250/1/5 249/1/5
f 253/2/5 247/2/5 252/2/5
f 253/1/5 252/1/5 251/1/5
f 253/1/5 251/1/5 250/1/5
f 254/2/5 247/2/5 253/2/5
f 256/1/5 253/1/5 249/1/5
f 257/1/5 253/1/5 256/1/5
f 258/1/5 253/1/5 257/1/5
f 259/1/5 253/1/5 258/1/5
f 261/2/5 256/2/5 255/2/5
f 262/2/5 256/2/5 261/2/5
f 263/2/5 256/2/5 262/2/5
f 264/2/5 256/2/5 263/2/5
f 265/2/5 258/2/5 257/2/5
f 266/2/5 258/2/5 265/2/5
f 268/1/5 261/1/5 260/1/5
f 268/1/5 262/1/5 261/1/5
f 268/2/5 263/2/5 262/2/5
f 269/1/5 264/1/5 263/1/5
f 269/2/5 263/2/5 268/2/5
f 269/1/5 265/1/5 264/1/5
f 270/1/5 268/1/5 260/1/5
f 271/1/5 265/1/5 269/1/5
f 272/1/5 265/1/5 271/1/5
f 273/1/5 265/1/5 272/1/5
f 274/2/5 267/2/5 266/2/5
f 277/2/5 274/2/5 266/2/5
f 277/2/5 275/2/5 274/2/5
f 278/2/5 275/2/5 277/2/5
f 279/2/5 275/2/5 278/2/5
f 281/1/5 270/1/5 260/1/5
f 281/2/5 272/2/5 271/2/5
f 281/2/5 271/2/5 270/2/5
f 282/2/5 272/2/5 281/2/5
f 284/2/5 277/2/5 276/2/5
f 285/2/5 277/2/5 284/2/5
f 286/1/5 281/1/5 260/1/5
f 287/1/5 281/1/5 286/1/5
f 288/2/5 277/2/5 285/2/5
f 288/1/5 285/1/5 284/1/5
f 288/1/5 284/1/5 283/1/5
f 289/2/5 277/2/5 288/2/5
f 290/1/5 288/1/5 283/1/5
f 291/1/5 288/1/5 290/1/5
f 292/1/5 280/1/5 279/1/5
f 292/1/5 279/1/5 278/1/5
f 293/1/5 280/1/5 292/1/5
f 294/2/6 295/2/6 296/2/6
f 296/2/6 295/2/6 297/2/6
f 297/2/6 295/2/6 298/2/6
f 298/1/6 299/1/6 300/1/6
f 297/1/6 298/1/6 300/1/6
f 297/1/6 300/1/6 302/1/6
f 300/1/6 301/1/6 302/1/6
f 302/1/6 301/1/6 303/1/6
f 297/1/6 302/1/6 304/1/6
f 304/1/6 302/1/6 305/1/6
f 303/1/6 301/1/6 306/1/6
f 306/1/6 301/1/6 307/1/6
f 308/1/6 309/1/6 314/1/6
f 310/1/6 311/1/6 317/1/6
f 314/1/6 315/1/6 318/1/6
f 316/1/6 317/1/6 319/1/6
f 317/1/6 311/1/6 320/1/6
f 319/1/6 317/1/6 320/1/6
f 320/1/6 311/1/6 321/1/6
f 312/2/6 313/2/6 322/2/6
f 312/2/6 322/2/6 323/2/6
f 323/2/6 322/2/6 324/2/6
f 314/1/6 318/1/6 327/1/6
f 319/2/6 320/2/6 327/2/6
f 318/2/6 319/2/6 327/2/6
f 327/2/6 320/2/6 328/2/6
f 325/1/6 326/1/6 332/1/6
f 308/1/6 314/1/6 333/1/6
f 314/1/6 327/1/6 333/1/6
f 333/1/6 327/1/6 334/1/6
f 329/1/6 330/1/6 335/1/6
f 335/1/6 336/1/6 337/1/6
f 329/1/6 335/1/6 337/1/6
f 337/1/6 336/1/6 338/1/6
f 331/1/6 332/1/6 339/1/6
f 332/1/6 326/1/6 340/1/6
f 339/1/6 332/1/6 340/1/6
f 341/2/6 342/2/6 343/2/6
f 343/2/6 342/2/6 344/2/6
f 345/2/6 346/2/6 349/2/6
f 349/2/6 346/2/6 350/2/6
f 347/2/6 348/2/6 351/2/6
f 351/2/6 348/2/6 352/2/6
f 353/2/6 354/2/6 357/2/6
f 357/2/6 354/2/6 358/2/6
f 355/2/6 356/2/6 359/2/6
f 359/2/6 356/2/6 360/2/6
