# MagicaVoxel @ Ephtracy

# group
o 

# material
mtllib Champignon3.mtl
usemtl palette

# normals
vn -1 0 0
vn 1 0 0
vn 0 0 1
vn 0 0 -1
vn 0 -1 0
vn 0 1 0

# texcoords
vt 0.896484 0.5
vt 0.927734 0.5

# verts
v -0.9 1.2 -0.2
v -0.9 1.2 -1
v -0.9 1.5 -0.2
v -0.9 1.5 -1
v -0.8 1.1 -0.3
v -0.8 1.1 -1
v -0.8 1.2 -0.3
v -0.8 1.2 -1
v -0.5 1 -0.6
v -0.5 1 -1
v -0.5 1.1 -0.6
v -0.5 1.1 -1
v -0.4 0.9 -0.7
v -0.4 0.9 -1
v -0.4 1 -0.7
v -0.4 1 -1
v -0.4 2.1 -0.5
v -0.4 2.1 -1
v -0.4 2.3 -0.5
v -0.4 2.3 -1
v -0.3 2 -0.6
v -0.3 2 -1
v -0.3 2.1 -0.6
v -0.3 2.1 -1
v -0.2 1.1 -0.5
v -0.2 1.1 -0.6
v -0.2 1.2 -0.5
v -0.2 1.2 -0.6
v 0 1.9 -0.6
v 0 1.9 -1
v 0 2 -0.6
v 0 2 -1
v 0.1 1.8 -0.7
v 0.1 1.8 -1
v 0.1 1.9 -0.7
v 0.1 1.9 -1
v -0.3 1.1 -0.3
v -0.3 1.1 -0.6
v -0.3 1.2 -0.3
v -0.3 1.2 -0.6
v -0.2 1.2 -0.2
v -0.2 1.2 -0.4
v -0.2 1.4 -0.4
v -0.2 1.4 -1
v -0.2 1.5 -0.2
v -0.2 1.5 -1
v 0.2 0.9 -0.7
v 0.2 0.9 -1
v 0.2 1 -0.7
v 0.2 1 -1
v 0.3 1 -0.6
v 0.3 1 -1
v 0.3 1.1 -0.6
v 0.3 1.1 -1
v 0.3 2.1 -0.5
v 0.3 2.1 -0.6
v 0.3 2.2 -0.6
v 0.3 2.2 -1
v 0.3 2.3 -0.5
v 0.3 2.3 -1
v 0.8 1.1 -0.5
v 0.8 1.1 -1
v 0.8 1.2 -0.5
v 0.8 1.2 -1
v 0.8 1.8 -0.7
v 0.8 1.8 -1
v 0.8 1.9 -0.7
v 0.8 1.9 -1
v 0.9 1.2 -0.4
v 0.9 1.2 -1
v 0.9 1.4 -0.4
v 0.9 1.4 -1
v 0.9 1.9 -0.6
v 0.9 1.9 -1
v 0.9 2.2 -0.6
v 0.9 2.2 -1
v -0.9 1.2 -0.2
v -0.9 1.5 -0.2
v -0.2 1.2 -0.2
v -0.2 1.5 -0.2
v -0.8 1.1 -0.3
v -0.8 1.2 -0.3
v -0.3 1.1 -0.3
v -0.3 1.2 -0.3
v -0.2 1.2 -0.4
v -0.2 1.4 -0.4
v 0.9 1.2 -0.4
v 0.9 1.4 -0.4
v -0.4 2.1 -0.5
v -0.4 2.3 -0.5
v -0.2 1.1 -0.5
v -0.2 1.2 -0.5
v 0.3 2.1 -0.5
v 0.3 2.3 -0.5
v 0.8 1.1 -0.5
v 0.8 1.2 -0.5
v -0.5 1 -0.6
v -0.5 1.1 -0.6
v -0.3 1.1 -0.6
v -0.3 1.2 -0.6
v -0.3 2 -0.6
v -0.3 2.1 -0.6
v -0.2 1.1 -0.6
v -0.2 1.2 -0.6
v 0 1.9 -0.6
v 0 2 -0.6
v 0 2.1 -0.6
v 0.3 1 -0.6
v 0.3 1.1 -0.6
v 0.3 2.1 -0.6
v 0.3 2.2 -0.6
v 0.9 1.9 -0.6
v 0.9 2.2 -0.6
v -0.4 0.9 -0.7
v -0.4 1 -0.7
v 0.1 1.8 -0.7
v 0.1 1.9 -0.7
v 0.2 0.9 -0.7
v 0.2 1 -0.7
v 0.8 1.8 -0.7
v 0.8 1.9 -0.7
v -0.9 1.2 -1
v -0.9 1.5 -1
v -0.8 1.1 -1
v -0.8 1.2 -1
v -0.5 1 -1
v -0.5 1.1 -1
v -0.5 1.2 -1
v -0.4 0.9 -1
v -0.4 1 -1
v -0.4 1.1 -1
v -0.4 2.1 -1
v -0.4 2.3 -1
v -0.3 2 -1
v -0.3 2.1 -1
v -0.2 1.4 -1
v -0.2 1.5 -1
v 0 1.9 -1
v 0 2 -1
v 0 2.1 -1
v 0.1 1.8 -1
v 0.1 1.9 -1
v 0.2 0.9 -1
v 0.2 1 -1
v 0.2 1.1 -1
v 0.3 1 -1
v 0.3 1.1 -1
v 0.3 1.2 -1
v 0.3 2.2 -1
v 0.3 2.3 -1
v 0.8 1.1 -1
v 0.8 1.2 -1
v 0.8 1.8 -1
v 0.8 1.9 -1
v 0.9 1.2 -1
v 0.9 1.4 -1
v 0.9 1.9 -1
v 0.9 2.2 -1
v -0.4 0.9 -0.7
v 0.2 0.9 -0.7
v -0.4 0.9 -1
v 0.2 0.9 -1
v -0.5 1 -0.6
v 0.3 1 -0.6
v -0.4 1 -0.7
v 0.2 1 -0.7
v -0.5 1 -1
v -0.4 1 -1
v 0.2 1 -1
v 0.3 1 -1
v -0.8 1.1 -0.3
v -0.3 1.1 -0.3
v -0.2 1.1 -0.5
v 0.8 1.1 -0.5
v -0.5 1.1 -0.6
v -0.3 1.1 -0.6
v -0.2 1.1 -0.6
v 0.3 1.1 -0.6
v -0.8 1.1 -1
v -0.5 1.1 -1
v 0.3 1.1 -1
v 0.8 1.1 -1
v -0.9 1.2 -0.2
v -0.2 1.2 -0.2
v -0.8 1.2 -0.3
v -0.3 1.2 -0.3
v -0.2 1.2 -0.4
v 0.9 1.2 -0.4
v -0.2 1.2 -0.5
v 0.8 1.2 -0.5
v -0.3 1.2 -0.6
v -0.2 1.2 -0.6
v -0.9 1.2 -1
v -0.8 1.2 -1
v 0.8 1.2 -1
v 0.9 1.2 -1
v 0.1 1.8 -0.7
v 0.8 1.8 -0.7
v 0.1 1.8 -1
v 0.8 1.8 -1
v 0 1.9 -0.6
v 0.9 1.9 -0.6
v 0.1 1.9 -0.7
v 0.8 1.9 -0.7
v 0 1.9 -1
v 0.1 1.9 -1
v 0.8 1.9 -1
v 0.9 1.9 -1
v -0.3 2 -0.6
v 0 2 -0.6
v -0.3 2 -1
v 0 2 -1
v -0.4 2.1 -0.5
v 0.3 2.1 -0.5
v -0.3 2.1 -0.6
v 0 2.1 -0.6
v 0.3 2.1 -0.6
v -0.4 2.1 -1
v -0.3 2.1 -1
v -0.2 1.4 -0.4
v 0.9 1.4 -0.4
v -0.2 1.4 -1
v 0.9 1.4 -1
v -0.9 1.5 -0.2
v -0.2 1.5 -0.2
v -0.9 1.5 -1
v -0.2 1.5 -1
v 0.3 2.2 -0.6
v 0.9 2.2 -0.6
v 0.3 2.2 -1
v 0.9 2.2 -1
v -0.4 2.3 -0.5
v 0.3 2.3 -0.5
v -0.4 2.3 -1
v 0.3 2.3 -1

# faces
f 3/1/1 2/1/1 1/1/1
f 4/1/1 2/1/1 3/1/1
f 7/2/1 6/2/1 5/2/1
f 8/2/1 6/2/1 7/2/1
f 11/1/1 10/1/1 9/1/1
f 12/1/1 10/1/1 11/1/1
f 15/2/1 14/2/1 13/2/1
f 16/2/1 14/2/1 15/2/1
f 19/1/1 18/1/1 17/1/1
f 20/1/1 18/1/1 19/1/1
f 23/2/1 22/2/1 21/2/1
f 24/2/1 22/2/1 23/2/1
f 27/2/1 26/2/1 25/2/1
f 28/2/1 26/2/1 27/2/1
f 31/1/1 30/1/1 29/1/1
f 32/1/1 30/1/1 31/1/1
f 35/2/1 34/2/1 33/2/1
f 36/2/1 34/2/1 35/2/1
f 37/2/2 38/2/2 39/2/2
f 39/2/2 38/2/2 40/2/2
f 41/1/2 42/1/2 43/1/2
f 41/1/2 43/1/2 45/1/2
f 43/1/2 44/1/2 45/1/2
f 45/1/2 44/1/2 46/1/2
f 47/2/2 48/2/2 49/2/2
f 49/2/2 48/2/2 50/2/2
f 51/1/2 52/1/2 53/1/2
f 53/1/2 52/1/2 54/1/2
f 55/1/2 56/1/2 57/1/2
f 55/1/2 57/1/2 59/1/2
f 57/1/2 58/1/2 59/1/2
f 59/1/2 58/1/2 60/1/2
f 61/2/2 62/2/2 63/2/2
f 63/2/2 62/2/2 64/2/2
f 65/2/2 66/2/2 67/2/2
f 67/2/2 66/2/2 68/2/2
f 69/1/2 70/1/2 71/1/2
f 71/1/2 70/1/2 72/1/2
f 73/1/2 74/1/2 75/1/2
f 75/1/2 74/1/2 76/1/2
f 79/1/3 78/1/3 77/1/3
f 80/1/3 78/1/3 79/1/3
f 83/2/3 82/2/3 81/2/3
f 84/2/3 82/2/3 83/2/3
f 87/1/3 86/1/3 85/1/3
f 88/1/3 86/1/3 87/1/3
f 93/1/3 90/1/3 89/1/3
f 94/1/3 90/1/3 93/1/3
f 95/2/3 92/2/3 91/2/3
f 96/2/3 92/2/3 95/2/3
f 99/1/3 98/1/3 97/1/3
f 103/1/3 99/1/3 97/1/3
f 103/1/3 100/1/3 99/1/3
f 104/1/3 100/1/3 103/1/3
f 106/2/3 102/2/3 101/2/3
f 107/2/3 102/2/3 106/2/3
f 108/1/3 103/1/3 97/1/3
f 109/1/3 103/1/3 108/1/3
f 110/1/3 106/1/3 105/1/3
f 110/1/3 107/1/3 106/1/3
f 112/1/3 110/1/3 105/1/3
f 112/1/3 111/1/3 110/1/3
f 113/1/3 111/1/3 112/1/3
f 118/2/3 115/2/3 114/2/3
f 119/2/3 115/2/3 118/2/3
f 120/2/3 117/2/3 116/2/3
f 121/2/3 117/2/3 120/2/3
f 122/1/4 123/1/4 125/1/4
f 124/2/4 125/2/4 127/2/4
f 125/1/4 123/1/4 128/1/4
f 127/2/4 125/2/4 128/2/4
f 126/1/4 127/1/4 130/1/4
f 127/1/4 128/1/4 130/1/4
f 130/1/4 128/1/4 131/1/4
f 132/1/4 133/1/4 135/1/4
f 128/1/4 123/1/4 136/1/4
f 131/1/4 128/1/4 136/1/4
f 136/1/4 123/1/4 137/1/4
f 134/2/4 135/2/4 139/2/4
f 135/1/4 133/1/4 140/1/4
f 139/2/4 135/2/4 140/2/4
f 138/1/4 139/1/4 142/1/4
f 139/1/4 140/1/4 142/1/4
f 129/2/4 130/2/4 143/2/4
f 130/2/4 131/2/4 143/2/4
f 143/2/4 131/2/4 144/2/4
f 131/1/4 136/1/4 145/1/4
f 144/2/4 131/2/4 145/2/4
f 144/1/4 145/1/4 146/1/4
f 145/1/4 136/1/4 147/1/4
f 146/1/4 145/1/4 147/1/4
f 147/1/4 136/1/4 148/1/4
f 142/1/4 140/1/4 149/1/4
f 140/1/4 133/1/4 149/1/4
f 149/1/4 133/1/4 150/1/4
f 147/2/4 148/2/4 151/2/4
f 148/1/4 136/1/4 152/1/4
f 151/2/4 148/2/4 152/2/4
f 141/2/4 142/2/4 153/2/4
f 142/1/4 149/1/4 154/1/4
f 153/2/4 142/2/4 154/2/4
f 152/1/4 136/1/4 155/1/4
f 155/1/4 136/1/4 156/1/4
f 154/1/4 149/1/4 157/1/4
f 157/1/4 149/1/4 158/1/4
f 161/2/5 160/2/5 159/2/5
f 162/2/5 160/2/5 161/2/5
f 165/1/5 164/1/5 163/1/5
f 166/1/5 164/1/5 165/1/5
f 167/1/5 165/1/5 163/1/5
f 168/1/5 165/1/5 167/1/5
f 169/1/5 164/1/5 166/1/5
f 170/1/5 164/1/5 169/1/5
f 175/2/5 172/2/5 171/2/5
f 176/2/5 172/2/5 175/2/5
f 177/2/5 174/2/5 173/2/5
f 178/2/5 174/2/5 177/2/5
f 179/2/5 175/2/5 171/2/5
f 180/2/5 175/2/5 179/2/5
f 181/2/5 174/2/5 178/2/5
f 182/2/5 174/2/5 181/2/5
f 185/1/5 184/1/5 183/1/5
f 186/1/5 184/1/5 185/1/5
f 187/1/5 184/1/5 186/1/5
f 189/1/5 187/1/5 186/1/5
f 189/1/5 188/1/5 187/1/5
f 190/1/5 188/1/5 189/1/5
f 191/1/5 189/1/5 186/1/5
f 192/1/5 189/1/5 191/1/5
f 193/1/5 185/1/5 183/1/5
f 194/1/5 185/1/5 193/1/5
f 195/1/5 188/1/5 190/1/5
f 196/1/5 188/1/5 195/1/5
f 199/2/5 198/2/5 197/2/5
f 200/2/5 198/2/5 199/2/5
f 203/1/5 202/1/5 201/1/5
f 204/1/5 202/1/5 203/1/5
f 205/1/5 203/1/5 201/1/5
f 206/1/5 203/1/5 205/1/5
f 207/1/5 202/1/5 204/1/5
f 208/1/5 202/1/5 207/1/5
f 211/2/5 210/2/5 209/2/5
f 212/2/5 210/2/5 211/2/5
f 215/1/5 214/1/5 213/1/5
f 216/1/5 214/1/5 215/1/5
f 217/1/5 214/1/5 216/1/5
f 218/1/5 215/1/5 213/1/5
f 219/1/5 215/1/5 218/1/5
f 220/1/6 221/1/6 222/1/6
f 222/1/6 221/1/6 223/1/6
f 224/1/6 225/1/6 226/1/6
f 226/1/6 225/1/6 227/1/6
f 228/1/6 229/1/6 230/1/6
f 230/1/6 229/1/6 231/1/6
f 232/1/6 233/1/6 234/1/6
f 234/1/6 233/1/6 235/1/6
