# MagicaVoxel @ Ephtracy

# group
o 

# material
mtllib Champignon2.mtl
usemtl palette

# normals
vn -1 0 0
vn 1 0 0
vn 0 0 1
vn 0 0 -1
vn 0 -1 0
vn 0 1 0

# texcoords
vt 0.876953 0.5
vt 0.927734 0.5
vt 0.974609 0.5
vt 0.994141 0.5

# verts
v -1 1.5 1
v -1 1.5 -1
v -1 1.7 1
v -1 1.7 -1
v -0.9 1.7 0.5
v -0.9 1.7 0.2
v -0.9 1.7 -0.5
v -0.9 1.7 -0.7
v -0.9 1.8 0.5
v -0.9 1.8 0.2
v -0.9 1.8 -0.5
v -0.9 1.8 -0.7
v -0.8 1.4 0.8
v -0.8 1.4 -0.8
v -0.8 1.5 0.8
v -0.8 1.5 -0.8
v -0.8 1.7 0.8
v -0.8 1.7 0.7
v -0.8 1.8 0.8
v -0.8 1.8 0.7
v -0.8 2 0
v -0.8 2 -0.3
v -0.8 2.3 0
v -0.8 2.3 -0.3
v -0.7 1.7 0.7
v -0.7 1.7 0.5
v -0.7 1.7 0.2
v -0.7 1.7 -0.5
v -0.7 1.8 0.7
v -0.7 1.8 0.5
v -0.7 1.8 0.2
v -0.7 1.8 -0.5
v -0.7 1.8 -0.7
v -0.7 2 0
v -0.7 2 -0.3
v -0.7 2.2 0.7
v -0.7 2.2 0
v -0.7 2.2 -0.3
v -0.7 2.2 -0.7
v -0.4 0 0.1
v -0.4 0 -0.4
v -0.4 0.3 0.1
v -0.4 0.3 -0.4
v -0.4 2 0.8
v -0.4 2 0.7
v -0.4 2.2 0.7
v -0.4 2.2 0.6
v -0.4 2.3 0.8
v -0.4 2.3 0.6
v -0.3 0 0.3
v -0.3 0 0.1
v -0.3 0.3 0.1
v -0.3 0.3 -0.3
v -0.3 0.9 0
v -0.3 0.9 -0.3
v -0.3 1.3 0.3
v -0.3 1.3 0
v -0.2 0.9 0
v -0.2 0.9 -0.2
v -0.2 1.3 0.2
v -0.2 1.3 0
v -0.2 1.4 0.2
v -0.2 1.4 -0.2
v -0.1 2.2 -0.1
v -0.1 2.2 -0.4
v -0.1 2.3 -0.1
v -0.1 2.3 -0.4
v 0 0 0.4
v 0 0 0.3
v 0 0.7 0.4
v 0 0.7 0.3
v 0 0.9 -0.2
v 0 0.9 -0.3
v 0 1.1 -0.2
v 0 1.1 -0.3
v 0.2 1.7 -0.7
v 0.2 1.7 -0.9
v 0.2 1.8 -0.7
v 0.2 1.8 -0.9
v 0.3 2.2 0.5
v 0.3 2.2 0.2
v 0.3 2.3 0.5
v 0.3 2.3 0.2
v 0.4 1.7 0.9
v 0.4 1.7 0.7
v 0.4 1.8 0.9
v 0.4 1.8 0.7
v -0.7 1.7 0.8
v -0.7 1.7 0.7
v -0.7 1.8 0.8
v -0.7 1.8 0.7
v -0.6 2.2 0
v -0.6 2.2 -0.3
v -0.6 2.3 0
v -0.6 2.3 -0.3
v -0.1 2 0.8
v -0.1 2 0.7
v -0.1 2.2 0.7
v -0.1 2.2 0.6
v -0.1 2.3 0.8
v -0.1 2.3 0.6
v 0 0.9 0.3
v 0 0.9 0.2
v 0 1.3 0.3
v 0 1.3 0.2
v 0.1 0 -0.3
v 0.1 0 -0.4
v 0.1 0.3 -0.3
v 0.1 0.3 -0.4
v 0.2 0.9 0.2
v 0.2 0.9 0
v 0.2 1.1 0
v 0.2 1.1 -0.2
v 0.2 1.4 0.2
v 0.2 1.4 -0.2
v 0.2 2.2 -0.1
v 0.2 2.2 -0.4
v 0.2 2.3 -0.1
v 0.2 2.3 -0.4
v 0.3 0 0
v 0.3 0 -0.3
v 0.3 0.7 0.3
v 0.3 0.7 0
v 0.3 0.9 0.3
v 0.3 0.9 0
v 0.3 1.1 0
v 0.3 1.1 -0.3
v 0.4 0 0.4
v 0.4 0 0
v 0.4 0.7 0.4
v 0.4 0.7 0
v 0.5 1.7 -0.7
v 0.5 1.7 -0.9
v 0.5 1.8 -0.7
v 0.5 1.8 -0.9
v 0.6 2.2 0.5
v 0.6 2.2 0.2
v 0.6 2.3 0.5
v 0.6 2.3 0.2
v 0.7 1.7 0.9
v 0.7 1.7 0.7
v 0.7 1.7 -0.1
v 0.7 1.7 -0.5
v 0.7 1.7 -0.7
v 0.7 1.8 0.9
v 0.7 1.8 0.7
v 0.7 2 -0.1
v 0.7 2 -0.5
v 0.7 2.2 0.7
v 0.7 2.2 -0.7
v 0.8 1.4 0.8
v 0.8 1.4 -0.8
v 0.8 1.5 0.8
v 0.8 1.5 -0.8
v 0.8 1.7 -0.1
v 0.8 1.7 -0.5
v 0.8 2 -0.1
v 0.8 2 -0.5
v 1 1.5 1
v 1 1.5 -1
v 1 1.7 1
v 1 1.7 -1
v -1 1.5 1
v -1 1.7 1
v 1 1.5 1
v 1 1.7 1
v 0.4 1.7 0.9
v 0.4 1.8 0.9
v 0.7 1.7 0.9
v 0.7 1.8 0.9
v -0.8 1.4 0.8
v -0.8 1.5 0.8
v -0.8 1.7 0.8
v -0.8 1.8 0.8
v -0.7 1.7 0.8
v -0.7 1.8 0.8
v -0.4 2 0.8
v -0.4 2.3 0.8
v -0.1 2 0.8
v -0.1 2.3 0.8
v 0.8 1.4 0.8
v 0.8 1.5 0.8
v -0.7 1.7 0.7
v -0.7 1.8 0.7
v -0.7 2.2 0.7
v -0.4 2 0.7
v -0.4 2.2 0.7
v -0.1 2 0.7
v -0.1 2.2 0.7
v 0.4 1.7 0.7
v 0.4 1.8 0.7
v 0.7 1.8 0.7
v 0.7 2.2 0.7
v -0.9 1.7 0.5
v -0.9 1.8 0.5
v -0.7 1.7 0.5
v -0.7 1.8 0.5
v 0.3 2.2 0.5
v 0.3 2.3 0.5
v 0.6 2.2 0.5
v 0.6 2.3 0.5
v 0 0 0.4
v 0 0.7 0.4
v 0.4 0 0.4
v 0.4 0.7 0.4
v -0.3 0 0.3
v -0.3 1.3 0.3
v 0 0 0.3
v 0 0.7 0.3
v 0 0.9 0.3
v 0 1.3 0.3
v 0.3 0.7 0.3
v 0.3 0.9 0.3
v -0.2 1.3 0.2
v -0.2 1.4 0.2
v 0 0.9 0.2
v 0 1.3 0.2
v 0.2 0.9 0.2
v 0.2 1.4 0.2
v -0.4 0 0.1
v -0.4 0.3 0.1
v -0.3 0 0.1
v -0.3 0.3 0.1
v -0.8 2 0
v -0.8 2.3 0
v -0.7 2 0
v -0.7 2.2 0
v -0.6 2.2 0
v -0.6 2.3 0
v 0.2 0.9 0
v 0.2 1.1 0
v 0.3 0.9 0
v 0.3 1.1 0
v -0.1 2.2 -0.1
v -0.1 2.3 -0.1
v 0.2 2.2 -0.1
v 0.2 2.3 -0.1
v 0.7 1.7 -0.1
v 0.7 2 -0.1
v 0.8 1.7 -0.1
v 0.8 2 -0.1
v -0.9 1.7 -0.5
v -0.9 1.8 -0.5
v -0.7 1.7 -0.5
v -0.7 1.8 -0.5
v -0.8 1.7 0.7
v -0.8 1.8 0.7
v -0.7 1.7 0.7
v -0.7 1.8 0.7
v -0.4 2.2 0.6
v -0.4 2.3 0.6
v -0.1 2.2 0.6
v -0.1 2.3 0.6
v -0.9 1.7 0.2
v -0.9 1.8 0.2
v -0.7 1.7 0.2
v -0.7 1.8 0.2
v 0.3 2.2 0.2
v 0.3 2.3 0.2
v 0.6 2.2 0.2
v 0.6 2.3 0.2
v -0.3 0.9 0
v -0.3 1.3 0
v -0.2 0.9 0
v -0.2 1.3 0
v 0.3 0 0
v 0.3 0.7 0
v 0.4 0 0
v 0.4 0.7 0
v -0.2 0.9 -0.2
v -0.2 1.4 -0.2
v 0 0.9 -0.2
v 0 1.1 -0.2
v 0.2 1.1 -0.2
v 0.2 1.4 -0.2
v -0.8 2 -0.3
v -0.8 2.3 -0.3
v -0.7 2 -0.3
v -0.7 2.2 -0.3
v -0.6 2.2 -0.3
v -0.6 2.3 -0.3
v -0.3 0.3 -0.3
v -0.3 0.9 -0.3
v 0 0.9 -0.3
v 0 1.1 -0.3
v 0.1 0 -0.3
v 0.1 0.3 -0.3
v 0.3 0 -0.3
v 0.3 1.1 -0.3
v -0.4 0 -0.4
v -0.4 0.3 -0.4
v -0.1 2.2 -0.4
v -0.1 2.3 -0.4
v 0.1 0 -0.4
v 0.1 0.3 -0.4
v 0.2 2.2 -0.4
v 0.2 2.3 -0.4
v 0.7 1.7 -0.5
v 0.7 2 -0.5
v 0.8 1.7 -0.5
v 0.8 2 -0.5
v -0.9 1.7 -0.7
v -0.9 1.8 -0.7
v -0.7 1.7 -0.7
v -0.7 1.8 -0.7
v -0.7 2.2 -0.7
v 0.2 1.7 -0.7
v 0.2 1.8 -0.7
v 0.5 1.7 -0.7
v 0.5 1.8 -0.7
v 0.7 1.7 -0.7
v 0.7 2.2 -0.7
v -0.8 1.4 -0.8
v -0.8 1.5 -0.8
v 0.8 1.4 -0.8
v 0.8 1.5 -0.8
v 0.2 1.7 -0.9
v 0.2 1.8 -0.9
v 0.5 1.7 -0.9
v 0.5 1.8 -0.9
v -1 1.5 -1
v -1 1.7 -1
v 1 1.5 -1
v 1 1.7 -1
v 0 0 0.4
v 0.4 0 0.4
v -0.3 0 0.3
v 0 0 0.3
v -0.4 0 0.1
v -0.3 0 0.1
v 0.3 0 0
v 0.4 0 0
v 0.1 0 -0.3
v 0.3 0 -0.3
v -0.4 0 -0.4
v 0.1 0 -0.4
v -0.8 1.4 0.8
v 0.8 1.4 0.8
v -0.2 1.4 0.2
v 0.2 1.4 0.2
v -0.2 1.4 -0.2
v 0.2 1.4 -0.2
v -0.8 1.4 -0.8
v 0.8 1.4 -0.8
v -1 1.5 1
v 1 1.5 1
v -0.8 1.5 0.8
v 0.8 1.5 0.8
v -0.8 1.5 -0.8
v 0.8 1.5 -0.8
v -1 1.5 -1
v 1 1.5 -1
v -0.4 2 0.8
v -0.1 2 0.8
v -0.4 2 0.7
v -0.1 2 0.7
v -0.8 2 0
v -0.7 2 0
v -0.8 2 -0.3
v -0.7 2 -0.3
v -0.4 0.3 0.1
v -0.3 0.3 0.1
v -0.3 0.3 -0.3
v 0.1 0.3 -0.3
v -0.4 0.3 -0.4
v 0.1 0.3 -0.4
v 0 0.7 0.4
v 0.4 0.7 0.4
v 0 0.7 0.3
v 0.3 0.7 0.3
v 0.3 0.7 0
v 0.4 0.7 0
v 0 0.9 0.3
v 0.3 0.9 0.3
v 0 0.9 0.2
v 0.2 0.9 0.2
v -0.3 0.9 0
v -0.2 0.9 0
v 0.2 0.9 0
v 0.3 0.9 0
v -0.2 0.9 -0.2
v 0 0.9 -0.2
v -0.3 0.9 -0.3
v 0 0.9 -0.3
v 0.2 1.1 0
v 0.3 1.1 0
v 0 1.1 -0.2
v 0.2 1.1 -0.2
v 0 1.1 -0.3
v 0.3 1.1 -0.3
v -0.3 1.3 0.3
v 0 1.3 0.3
v -0.2 1.3 0.2
v 0 1.3 0.2
v -0.3 1.3 0
v -0.2 1.3 0
v -1 1.7 1
v 1 1.7 1
v 0.4 1.7 0.9
v 0.7 1.7 0.9
v -0.8 1.7 0.8
v -0.7 1.7 0.8
v -0.8 1.7 0.7
v -0.7 1.7 0.7
v 0.4 1.7 0.7
v 0.7 1.7 0.7
v -0.9 1.7 0.5
v -0.7 1.7 0.5
v -0.9 1.7 0.2
v -0.7 1.7 0.2
v 0.7 1.7 -0.1
v 0.8 1.7 -0.1
v -0.9 1.7 -0.5
v -0.7 1.7 -0.5
v 0.7 1.7 -0.5
v 0.8 1.7 -0.5
v -0.9 1.7 -0.7
v -0.7 1.7 -0.7
v 0.2 1.7 -0.7
v 0.5 1.7 -0.7
v 0.7 1.7 -0.7
v 0.2 1.7 -0.9
v 0.5 1.7 -0.9
v -1 1.7 -1
v 1 1.7 -1
v 0.4 1.8 0.9
v 0.7 1.8 0.9
v -0.8 1.8 0.8
v -0.7 1.8 0.8
v -0.8 1.8 0.7
v -0.7 1.8 0.7
v 0.4 1.8 0.7
v 0.7 1.8 0.7
v -0.9 1.8 0.5
v -0.7 1.8 0.5
v -0.9 1.8 0.2
v -0.7 1.8 0.2
v -0.9 1.8 -0.5
v -0.7 1.8 -0.5
v -0.9 1.8 -0.7
v -0.7 1.8 -0.7
v 0.2 1.8 -0.7
v 0.5 1.8 -0.7
v 0.2 1.8 -0.9
v 0.5 1.8 -0.9
v 0.7 2 -0.1
v 0.8 2 -0.1
v 0.7 2 -0.5
v 0.8 2 -0.5
v -0.7 2.2 0.7
v -0.4 2.2 0.7
v -0.1 2.2 0.7
v 0.7 2.2 0.7
v -0.4 2.2 0.6
v -0.1 2.2 0.6
v 0.3 2.2 0.5
v 0.6 2.2 0.5
v 0.3 2.2 0.2
v 0.6 2.2 0.2
v -0.7 2.2 0
v -0.6 2.2 0
v -0.1 2.2 -0.1
v 0.2 2.2 -0.1
v -0.7 2.2 -0.3
v -0.6 2.2 -0.3
v -0.1 2.2 -0.4
v 0.2 2.2 -0.4
v -0.7 2.2 -0.7
v 0.7 2.2 -0.7
v -0.4 2.3 0.8
v -0.1 2.3 0.8
v -0.4 2.3 0.6
v -0.1 2.3 0.6
v 0.3 2.3 0.5
v 0.6 2.3 0.5
v 0.3 2.3 0.2
v 0.6 2.3 0.2
v -0.8 2.3 0
v -0.6 2.3 0
v -0.1 2.3 -0.1
v 0.2 2.3 -0.1
v -0.8 2.3 -0.3
v -0.6 2.3 -0.3
v -0.1 2.3 -0.4
v 0.2 2.3 -0.4

# faces
f 3/4/1 2/4/1 1/4/1
f 4/4/1 2/4/1 3/4/1
f 9/3/1 6/3/1 5/3/1
f 10/3/1 6/3/1 9/3/1
f 11/3/1 8/3/1 7/3/1
f 12/3/1 8/3/1 11/3/1
f 15/2/1 14/2/1 13/2/1
f 16/2/1 14/2/1 15/2/1
f 19/3/1 18/3/1 17/3/1
f 20/3/1 18/3/1 19/3/1
f 23/3/1 22/3/1 21/3/1
f 24/3/1 22/3/1 23/3/1
f 29/4/1 26/4/1 25/4/1
f 30/4/1 26/4/1 29/4/1
f 31/4/1 28/4/1 27/4/1
f 32/4/1 28/4/1 31/4/1
f 34/4/1 30/4/1 29/4/1
f 34/4/1 33/4/1 32/4/1
f 34/4/1 32/4/1 31/4/1
f 34/4/1 31/4/1 30/4/1
f 35/4/1 33/4/1 34/4/1
f 36/4/1 34/4/1 29/4/1
f 37/4/1 34/4/1 36/4/1
f 38/4/1 33/4/1 35/4/1
f 39/4/1 33/4/1 38/4/1
f 42/1/1 41/1/1 40/1/1
f 43/1/1 41/1/1 42/1/1
f 46/3/1 45/3/1 44/3/1
f 48/3/1 46/3/1 44/3/1
f 48/3/1 47/3/1 46/3/1
f 49/3/1 47/3/1 48/3/1
f 52/1/1 51/1/1 50/1/1
f 54/1/1 53/1/1 52/1/1
f 55/1/1 53/1/1 54/1/1
f 56/1/1 52/1/1 50/1/1
f 56/1/1 54/1/1 52/1/1
f 57/1/1 54/1/1 56/1/1
f 61/1/1 59/1/1 58/1/1
f 62/1/1 61/1/1 60/1/1
f 63/1/1 59/1/1 61/1/1
f 63/1/1 61/1/1 62/1/1
f 66/3/1 65/3/1 64/3/1
f 67/3/1 65/3/1 66/3/1
f 70/1/1 69/1/1 68/1/1
f 71/1/1 69/1/1 70/1/1
f 74/1/1 73/1/1 72/1/1
f 75/1/1 73/1/1 74/1/1
f 78/3/1 77/3/1 76/3/1
f 79/3/1 77/3/1 78/3/1
f 82/3/1 81/3/1 80/3/1
f 83/3/1 81/3/1 82/3/1
f 86/3/1 85/3/1 84/3/1
f 87/3/1 85/3/1 86/3/1
f 88/3/2 89/3/2 90/3/2
f 90/3/2 89/3/2 91/3/2
f 92/3/2 93/3/2 94/3/2
f 94/3/2 93/3/2 95/3/2
f 96/3/2 97/3/2 98/3/2
f 96/3/2 98/3/2 100/3/2
f 98/3/2 99/3/2 100/3/2
f 100/3/2 99/3/2 101/3/2
f 102/1/2 103/1/2 104/1/2
f 104/1/2 103/1/2 105/1/2
f 106/1/2 107/1/2 108/1/2
f 108/1/2 107/1/2 109/1/2
f 110/1/2 111/1/2 112/1/2
f 110/1/2 112/1/2 114/1/2
f 112/1/2 113/1/2 114/1/2
f 114/1/2 113/1/2 115/1/2
f 116/3/2 117/3/2 118/3/2
f 118/3/2 117/3/2 119/3/2
f 120/1/2 121/1/2 123/1/2
f 122/1/2 123/1/2 124/1/2
f 123/1/2 121/1/2 125/1/2
f 124/1/2 123/1/2 125/1/2
f 125/1/2 121/1/2 126/1/2
f 126/1/2 121/1/2 127/1/2
f 128/1/2 129/1/2 130/1/2
f 130/1/2 129/1/2 131/1/2
f 132/3/2 133/3/2 134/3/2
f 134/3/2 133/3/2 135/3/2
f 136/3/2 137/3/2 138/3/2
f 138/3/2 137/3/2 139/3/2
f 140/3/2 141/3/2 145/3/2
f 141/4/2 142/4/2 146/4/2
f 145/3/2 141/3/2 146/3/2
f 146/4/2 142/4/2 147/4/2
f 143/4/2 144/4/2 148/4/2
f 146/4/2 147/4/2 149/4/2
f 147/4/2 148/4/2 149/4/2
f 148/4/2 144/4/2 150/4/2
f 149/4/2 148/4/2 150/4/2
f 151/2/2 152/2/2 153/2/2
f 153/2/2 152/2/2 154/2/2
f 155/3/2 156/3/2 157/3/2
f 157/3/2 156/3/2 158/3/2
f 159/4/2 160/4/2 161/4/2
f 161/4/2 160/4/2 162/4/2
f 165/4/3 164/4/3 163/4/3
f 166/4/3 164/4/3 165/4/3
f 169/3/3 168/3/3 167/3/3
f 170/3/3 168/3/3 169/3/3
f 175/3/3 174/3/3 173/3/3
f 176/3/3 174/3/3 175/3/3
f 179/3/3 178/3/3 177/3/3
f 180/3/3 178/3/3 179/3/3
f 181/2/3 172/2/3 171/2/3
f 182/2/3 172/2/3 181/2/3
f 186/4/3 184/4/3 183/4/3
f 186/4/3 185/4/3 184/4/3
f 187/4/3 185/4/3 186/4/3
f 188/4/3 186/4/3 183/4/3
f 190/4/3 188/4/3 183/4/3
f 190/4/3 189/4/3 188/4/3
f 191/4/3 189/4/3 190/4/3
f 192/4/3 189/4/3 191/4/3
f 193/4/3 189/4/3 192/4/3
f 196/3/3 195/3/3 194/3/3
f 197/3/3 195/3/3 196/3/3
f 200/3/3 199/3/3 198/3/3
f 201/3/3 199/3/3 200/3/3
f 204/1/3 203/1/3 202/1/3
f 205/1/3 203/1/3 204/1/3
f 208/1/3 207/1/3 206/1/3
f 209/1/3 207/1/3 208/1/3
f 210/1/3 207/1/3 209/1/3
f 211/1/3 207/1/3 210/1/3
f 212/1/3 210/1/3 209/1/3
f 213/1/3 210/1/3 212/1/3
f 217/1/3 215/1/3 214/1/3
f 218/1/3 217/1/3 216/1/3
f 219/1/3 215/1/3 217/1/3
f 219/1/3 217/1/3 218/1/3
f 222/1/3 221/1/3 220/1/3
f 223/1/3 221/1/3 222/1/3
f 226/3/3 225/3/3 224/3/3
f 227/3/3 225/3/3 226/3/3
f 228/3/3 225/3/3 227/3/3
f 229/3/3 225/3/3 228/3/3
f 232/1/3 231/1/3 230/1/3
f 233/1/3 231/1/3 232/1/3
f 236/3/3 235/3/3 234/3/3
f 237/3/3 235/3/3 236/3/3
f 240/3/3 239/3/3 238/3/3
f 241/3/3 239/3/3 240/3/3
f 244/3/3 243/3/3 242/3/3
f 245/3/3 243/3/3 244/3/3
f 246/3/4 247/3/4 248/3/4
f 248/3/4 247/3/4 249/3/4
f 250/3/4 251/3/4 252/3/4
f 252/3/4 251/3/4 253/3/4
f 254/3/4 255/3/4 256/3/4
f 256/3/4 255/3/4 257/3/4
f 258/3/4 259/3/4 260/3/4
f 260/3/4 259/3/4 261/3/4
f 262/1/4 263/1/4 264/1/4
f 264/1/4 263/1/4 265/1/4
f 266/1/4 267/1/4 268/1/4
f 268/1/4 267/1/4 269/1/4
f 270/1/4 271/1/4 272/1/4
f 272/1/4 271/1/4 273/1/4
f 273/1/4 271/1/4 274/1/4
f 274/1/4 271/1/4 275/1/4
f 276/3/4 277/3/4 278/3/4
f 278/3/4 277/3/4 279/3/4
f 279/3/4 277/3/4 280/3/4
f 280/3/4 277/3/4 281/3/4
f 282/1/4 283/1/4 284/1/4
f 282/1/4 284/1/4 287/1/4
f 284/1/4 285/1/4 287/1/4
f 286/1/4 287/1/4 288/1/4
f 287/1/4 285/1/4 289/1/4
f 288/1/4 287/1/4 289/1/4
f 290/1/4 291/1/4 294/1/4
f 294/1/4 291/1/4 295/1/4
f 292/3/4 293/3/4 296/3/4
f 296/3/4 293/3/4 297/3/4
f 298/3/4 299/3/4 300/3/4
f 300/3/4 299/3/4 301/3/4
f 302/3/4 303/3/4 304/3/4
f 304/3/4 303/3/4 305/3/4
f 304/4/4 305/4/4 307/4/4
f 305/4/4 306/4/4 307/4/4
f 307/4/4 306/4/4 308/4/4
f 308/4/4 306/4/4 310/4/4
f 309/4/4 310/4/4 311/4/4
f 310/4/4 306/4/4 312/4/4
f 311/4/4 310/4/4 312/4/4
f 313/2/4 314/2/4 315/2/4
f 315/2/4 314/2/4 316/2/4
f 317/3/4 318/3/4 319/3/4
f 319/3/4 318/3/4 320/3/4
f 321/4/4 322/4/4 323/4/4
f 323/4/4 322/4/4 324/4/4
f 328/1/5 326/1/5 325/1/5
f 330/1/5 328/1/5 327/1/5
f 331/1/5 326/1/5 328/1/5
f 331/1/5 330/1/5 329/1/5
f 331/1/5 328/1/5 330/1/5
f 332/1/5 326/1/5 331/1/5
f 333/1/5 331/1/5 329/1/5
f 334/1/5 331/1/5 333/1/5
f 335/1/5 333/1/5 329/1/5
f 336/1/5 333/1/5 335/1/5
f 339/2/5 338/2/5 337/2/5
f 340/2/5 338/2/5 339/2/5
f 341/2/5 339/2/5 337/2/5
f 342/2/5 338/2/5 340/2/5
f 343/2/5 341/2/5 337/2/5
f 343/2/5 342/2/5 341/2/5
f 344/2/5 338/2/5 342/2/5
f 344/2/5 342/2/5 343/2/5
f 347/4/5 346/4/5 345/4/5
f 348/4/5 346/4/5 347/4/5
f 349/4/5 347/4/5 345/4/5
f 350/4/5 346/4/5 348/4/5
f 351/4/5 349/4/5 345/4/5
f 351/4/5 350/4/5 349/4/5
f 352/4/5 346/4/5 350/4/5
f 352/4/5 350/4/5 351/4/5
f 355/3/5 354/3/5 353/3/5
f 356/3/5 354/3/5 355/3/5
f 359/3/5 358/3/5 357/3/5
f 360/3/5 358/3/5 359/3/5
f 361/1/6 362/1/6 363/1/6
f 361/1/6 363/1/6 365/1/6
f 363/1/6 364/1/6 365/1/6
f 365/1/6 364/1/6 366/1/6
f 367/1/6 368/1/6 369/1/6
f 369/1/6 368/1/6 370/1/6
f 370/1/6 368/1/6 371/1/6
f 371/1/6 368/1/6 372/1/6
f 373/1/6 374/1/6 375/1/6
f 375/1/6 374/1/6 376/1/6
f 376/1/6 374/1/6 379/1/6
f 379/1/6 374/1/6 380/1/6
f 377/1/6 378/1/6 381/1/6
f 377/1/6 381/1/6 383/1/6
f 381/1/6 382/1/6 383/1/6
f 383/1/6 382/1/6 384/1/6
f 385/1/6 386/1/6 388/1/6
f 387/1/6 388/1/6 389/1/6
f 388/1/6 386/1/6 390/1/6
f 389/1/6 388/1/6 390/1/6
f 391/1/6 392/1/6 393/1/6
f 393/1/6 392/1/6 394/1/6
f 391/1/6 393/1/6 395/1/6
f 395/1/6 393/1/6 396/1/6
f 397/4/6 398/4/6 399/4/6
f 399/4/6 398/4/6 400/4/6
f 397/4/6 399/4/6 401/4/6
f 401/4/6 399/4/6 402/4/6
f 397/4/6 401/4/6 403/4/6
f 402/4/6 399/4/6 404/4/6
f 404/4/6 399/4/6 405/4/6
f 400/4/6 398/4/6 406/4/6
f 397/4/6 403/4/6 407/4/6
f 403/4/6 404/4/6 407/4/6
f 407/4/6 404/4/6 408/4/6
f 397/4/6 407/4/6 409/4/6
f 406/4/6 398/4/6 411/4/6
f 411/4/6 398/4/6 412/4/6
f 409/4/6 410/4/6 413/4/6
f 397/4/6 409/4/6 413/4/6
f 413/4/6 410/4/6 414/4/6
f 412/4/6 398/4/6 416/4/6
f 397/4/6 413/4/6 417/4/6
f 415/4/6 416/4/6 421/4/6
f 418/4/6 419/4/6 422/4/6
f 417/4/6 418/4/6 422/4/6
f 420/4/6 421/4/6 423/4/6
f 417/4/6 422/4/6 424/4/6
f 422/4/6 423/4/6 424/4/6
f 397/4/6 417/4/6 424/4/6
f 423/4/6 421/4/6 425/4/6
f 424/4/6 423/4/6 425/4/6
f 416/4/6 398/4/6 425/4/6
f 421/4/6 416/4/6 425/4/6
f 428/3/6 429/3/6 430/3/6
f 430/3/6 429/3/6 431/3/6
f 426/3/6 427/3/6 432/3/6
f 432/3/6 427/3/6 433/3/6
f 434/3/6 435/3/6 436/3/6
f 436/3/6 435/3/6 437/3/6
f 438/3/6 439/3/6 440/3/6
f 440/3/6 439/3/6 441/3/6
f 442/3/6 443/3/6 444/3/6
f 444/3/6 443/3/6 445/3/6
f 446/3/6 447/3/6 448/3/6
f 448/3/6 447/3/6 449/3/6
f 450/4/6 451/4/6 454/4/6
f 452/4/6 453/4/6 455/4/6
f 455/4/6 453/4/6 456/4/6
f 454/4/6 455/4/6 456/4/6
f 456/4/6 453/4/6 457/4/6
f 454/4/6 456/4/6 458/4/6
f 457/4/6 453/4/6 459/4/6
f 450/4/6 454/4/6 460/4/6
f 458/4/6 459/4/6 460/4/6
f 454/4/6 458/4/6 460/4/6
f 460/4/6 459/4/6 461/4/6
f 461/4/6 459/4/6 462/4/6
f 462/4/6 459/4/6 463/4/6
f 461/4/6 462/4/6 465/4/6
f 465/4/6 462/4/6 466/4/6
f 464/4/6 465/4/6 466/4/6
f 463/4/6 459/4/6 467/4/6
f 464/4/6 466/4/6 468/4/6
f 466/4/6 467/4/6 468/4/6
f 459/4/6 453/4/6 469/4/6
f 468/4/6 467/4/6 469/4/6
f 467/4/6 459/4/6 469/4/6
f 470/3/6 471/3/6 472/3/6
f 472/3/6 471/3/6 473/3/6
f 474/3/6 475/3/6 476/3/6
f 476/3/6 475/3/6 477/3/6
f 478/3/6 479/3/6 482/3/6
f 482/3/6 479/3/6 483/3/6
f 480/3/6 481/3/6 484/3/6
f 484/3/6 481/3/6 485/3/6
