# MagicaVoxel @ Ephtracy

# group
o 

# material
mtllib Mangrove2.mtl
usemtl palette

# normals
vn -1 0 0
vn 1 0 0
vn 0 0 1
vn 0 0 -1
vn 0 -1 0
vn 0 1 0

# texcoords
vt 0.943359 0.5
vt 0.978516 0.5
vt 0.986328 0.5

# verts
v -0.7 0 0.3
v -0.7 0 0.2
v -0.7 0.7 0.2
v -0.7 0.7 0
v -0.7 0.8 0.3
v -0.7 0.8 0
v -0.5 0 -0.2
v -0.5 0 -0.3
v -0.5 0.9 0
v -0.5 0.9 -0.2
v -0.5 1 0
v -0.5 1 -0.3
v -0.3 0 -0.3
v -0.3 0 -0.4
v -0.3 0.8 -0.3
v -0.3 0.8 -0.4
v -0.2 1.4 0.2
v -0.2 1.4 -0.1
v -0.2 1.6 0
v -0.2 1.6 -0.1
v -0.2 1.6 -0.3
v -0.2 1.7 0.2
v -0.2 1.7 0
v -0.2 2.3 0
v -0.2 2.3 -0.3
v -0.1 0 0.6
v -0.1 0 0.5
v -0.1 0 -0.9
v -0.1 0 -1
v -0.1 0.7 0
v -0.1 0.7 -0.3
v -0.1 0.7 -0.4
v -0.1 0.7 -0.9
v -0.1 0.8 0.5
v -0.1 0.8 0.1
v -0.1 0.8 0
v -0.1 0.8 -0.1
v -0.1 0.8 -0.3
v -0.1 0.8 -0.4
v -0.1 0.8 -1
v -0.1 0.9 0.6
v -0.1 0.9 0.1
v -0.1 0.9 0
v -0.1 0.9 -0.1
v -0.1 1 0
v -0.1 1 -0.1
v -0.1 1.4 0.1
v -0.1 1.4 -0.1
v -0.1 2 0.3
v -0.1 2 0
v -0.1 2.3 0
v -0.1 2.5 0.3
v -0.1 2.5 0
v 0 1.3 -0.1
v 0 1.3 -0.2
v 0 1.5 -0.1
v 0 1.6 -0.1
v 0 1.6 -0.2
v 0 1.7 0.1
v 0 1.7 0
v 0 2 0.1
v 0 2 0
v 0 2.3 0
v 0 2.3 -0.2
v 0 2.5 0.2
v 0 2.5 0
v 0 2.6 0.2
v 0 2.6 -0.2
v 0.1 0 0.4
v 0.1 0 0.3
v 0.1 0.8 0.4
v 0.1 0.8 0.3
v 0.3 0 -0.2
v 0.3 0 -0.3
v 0.3 0 -0.7
v 0.3 0 -0.8
v 0.3 0.7 -0.7
v 0.3 0.7 -0.8
v 0.3 0.8 -0.2
v 0.3 0.8 -0.3
v 0.4 0.7 -0.1
v 0.4 0.7 -0.2
v 0.4 0.8 -0.1
v 0.4 0.8 -0.2
v 0.6 0 0
v 0.6 0 -0.1
v 0.6 0.7 0
v 0.6 0.7 -0.1
v -0.6 0 0.3
v -0.6 0 0.2
v -0.6 0.7 0.2
v -0.6 0.7 0.1
v -0.6 0.8 0.3
v -0.6 0.8 0.1
v -0.4 0 -0.2
v -0.4 0 -0.3
v -0.4 0.9 -0.1
v -0.4 0.9 -0.2
v -0.4 1 -0.1
v -0.4 1 -0.3
v -0.2 0 -0.3
v -0.2 0 -0.4
v -0.2 0.7 -0.3
v -0.2 0.7 -0.4
v 0 0 0.6
v 0 0 0.5
v 0 0 -0.9
v 0 0 -1
v 0 0.7 -0.1
v 0 0.7 -0.7
v 0 0.7 -0.8
v 0 0.7 -0.9
v 0 0.8 0.5
v 0 0.8 0.4
v 0 0.8 0.3
v 0 0.8 0.1
v 0 0.8 -0.1
v 0 0.8 -0.7
v 0 0.8 -0.8
v 0 0.8 -1
v 0 0.9 0.6
v 0 0.9 0.4
v 0 0.9 0.3
v 0 0.9 0.1
v 0.1 0.7 0.1
v 0.1 0.7 0
v 0.1 0.8 0
v 0.1 0.8 -0.1
v 0.1 1.3 0
v 0.1 1.3 -0.1
v 0.1 1.4 0.2
v 0.1 1.4 0.1
v 0.1 1.5 0.1
v 0.1 1.5 0
v 0.1 1.6 -0.1
v 0.1 1.6 -0.2
v 0.1 1.6 -0.3
v 0.1 1.7 0.2
v 0.1 1.7 0.1
v 0.1 1.7 -0.1
v 0.1 1.7 -0.2
v 0.1 2 -0.1
v 0.1 2 -0.2
v 0.1 2.2 -0.1
v 0.1 2.2 -0.2
v 0.1 2.3 -0.2
v 0.1 2.3 -0.3
v 0.2 0 0.4
v 0.2 0 0.3
v 0.2 0.9 0.4
v 0.2 0.9 0.3
v 0.2 1.3 0
v 0.2 1.3 -0.2
v 0.2 1.5 0.1
v 0.2 1.5 0
v 0.2 1.6 -0.1
v 0.2 1.6 -0.2
v 0.2 1.7 0
v 0.2 1.7 -0.1
v 0.2 2 0.3
v 0.2 2 0.1
v 0.2 2 0
v 0.2 2 -0.1
v 0.2 2.2 0.2
v 0.2 2.2 0.1
v 0.2 2.2 -0.1
v 0.2 2.5 0.3
v 0.2 2.5 0.2
v 0.3 1.7 0
v 0.3 1.7 -0.2
v 0.3 2 0
v 0.3 2 -0.2
v 0.3 2.2 0.2
v 0.3 2.2 -0.2
v 0.3 2.6 0.2
v 0.3 2.6 -0.2
v 0.4 0 -0.2
v 0.4 0 -0.3
v 0.4 0 -0.7
v 0.4 0 -0.8
v 0.4 0.7 -0.2
v 0.4 0.7 -0.3
v 0.4 0.8 -0.7
v 0.4 0.8 -0.8
v 0.5 0.7 -0.1
v 0.5 0.7 -0.3
v 0.5 0.8 -0.1
v 0.5 0.8 -0.3
v 0.7 0 0
v 0.7 0 -0.1
v 0.7 0.8 0
v 0.7 0.8 -0.1
v -0.1 0 0.6
v -0.1 0.9 0.6
v 0 0 0.6
v 0 0.9 0.6
v 0 0.8 0.4
v 0 0.9 0.4
v 0.1 0 0.4
v 0.1 0.8 0.4
v 0.2 0 0.4
v 0.2 0.9 0.4
v -0.7 0 0.3
v -0.7 0.8 0.3
v -0.6 0 0.3
v -0.6 0.8 0.3
v -0.1 2 0.3
v -0.1 2.5 0.3
v 0.2 2 0.3
v 0.2 2.5 0.3
v -0.2 1.4 0.2
v -0.2 1.7 0.2
v 0 2.5 0.2
v 0 2.6 0.2
v 0.1 1.4 0.2
v 0.1 1.7 0.2
v 0.2 2.2 0.2
v 0.2 2.5 0.2
v 0.3 2.2 0.2
v 0.3 2.6 0.2
v -0.6 0.7 0.1
v -0.6 0.8 0.1
v -0.1 0.8 0.1
v -0.1 0.9 0.1
v -0.1 1.4 0.1
v 0 0.8 0.1
v 0 0.9 0.1
v 0 1.7 0.1
v 0 2 0.1
v 0.1 0.7 0.1
v 0.1 1.4 0.1
v 0.1 1.5 0.1
v 0.1 1.7 0.1
v 0.2 1.5 0.1
v 0.2 2 0.1
v -0.5 0.9 0
v -0.5 1 0
v -0.2 1.7 0
v -0.2 2.3 0
v -0.1 0.9 0
v -0.1 1 0
v -0.1 2 0
v -0.1 2.3 0
v 0 1.7 0
v 0 2 0
v 0.1 0.7 0
v 0.1 0.8 0
v 0.1 1.3 0
v 0.1 1.5 0
v 0.2 1.3 0
v 0.2 1.5 0
v 0.2 1.7 0
v 0.2 2 0
v 0.3 1.7 0
v 0.3 2 0
v 0.6 0 0
v 0.6 0.7 0
v 0.7 0 0
v 0.7 0.8 0
v -0.5 0 -0.2
v -0.5 0.9 -0.2
v -0.4 0 -0.2
v -0.4 0.9 -0.2
v 0.3 0 -0.2
v 0.3 0.8 -0.2
v 0.4 0 -0.2
v 0.4 0.7 -0.2
v 0.4 0.8 -0.2
v -0.3 0 -0.3
v -0.3 0.8 -0.3
v -0.2 0 -0.3
v -0.2 0.7 -0.3
v -0.1 0.7 -0.3
v -0.1 0.8 -0.3
v 0 0.7 -0.7
v 0 0.8 -0.7
v 0.3 0 -0.7
v 0.3 0.7 -0.7
v 0.4 0 -0.7
v 0.4 0.8 -0.7
v -0.1 0 -0.9
v -0.1 0.7 -0.9
v 0 0 -0.9
v 0 0.7 -0.9
v -0.1 0 0.5
v -0.1 0.8 0.5
v 0 0 0.5
v 0 0.8 0.5
v 0 0.8 0.3
v 0 0.9 0.3
v 0.1 0 0.3
v 0.1 0.8 0.3
v 0.2 0 0.3
v 0.2 0.9 0.3
v -0.7 0 0.2
v -0.7 0.7 0.2
v -0.6 0 0.2
v -0.6 0.7 0.2
v -0.7 0.7 0
v -0.7 0.8 0
v -0.1 0.7 0
v -0.1 0.8 0
v -0.1 2.3 0
v -0.1 2.5 0
v 0 2.3 0
v 0 2.5 0
v -0.4 0.9 -0.1
v -0.4 1 -0.1
v -0.2 1.4 -0.1
v -0.2 1.6 -0.1
v -0.1 0.8 -0.1
v -0.1 0.9 -0.1
v -0.1 1 -0.1
v -0.1 1.4 -0.1
v -0.1 1.5 -0.1
v -0.1 1.6 -0.1
v 0 0.7 -0.1
v 0 0.8 -0.1
v 0 1.3 -0.1
v 0 1.5 -0.1
v 0 1.6 -0.1
v 0.1 0.8 -0.1
v 0.1 1.3 -0.1
v 0.1 1.6 -0.1
v 0.1 1.7 -0.1
v 0.1 2 -0.1
v 0.1 2.2 -0.1
v 0.2 1.6 -0.1
v 0.2 1.7 -0.1
v 0.2 2 -0.1
v 0.2 2.2 -0.1
v 0.4 0.7 -0.1
v 0.4 0.8 -0.1
v 0.5 0.7 -0.1
v 0.5 0.8 -0.1
v 0.6 0 -0.1
v 0.6 0.7 -0.1
v 0.7 0 -0.1
v 0.7 0.8 -0.1
v 0 1.3 -0.2
v 0 1.6 -0.2
v 0 2.3 -0.2
v 0 2.6 -0.2
v 0.1 1.6 -0.2
v 0.1 1.7 -0.2
v 0.1 2 -0.2
v 0.1 2.2 -0.2
v 0.1 2.3 -0.2
v 0.2 1.3 -0.2
v 0.2 1.6 -0.2
v 0.3 1.7 -0.2
v 0.3 2 -0.2
v 0.3 2.2 -0.2
v 0.3 2.6 -0.2
v -0.5 0 -0.3
v -0.5 1 -0.3
v -0.4 0 -0.3
v -0.4 1 -0.3
v -0.2 1.6 -0.3
v -0.2 2.3 -0.3
v 0.1 1.6 -0.3
v 0.1 2.3 -0.3
v 0.3 0 -0.3
v 0.3 0.8 -0.3
v 0.4 0 -0.3
v 0.4 0.7 -0.3
v 0.5 0.7 -0.3
v 0.5 0.8 -0.3
v -0.3 0 -0.4
v -0.3 0.8 -0.4
v -0.2 0 -0.4
v -0.2 0.7 -0.4
v -0.1 0.7 -0.4
v -0.1 0.8 -0.4
v 0 0.7 -0.8
v 0 0.8 -0.8
v 0.3 0 -0.8
v 0.3 0.7 -0.8
v 0.4 0 -0.8
v 0.4 0.8 -0.8
v -0.1 0 -1
v -0.1 0.8 -1
v 0 0 -1
v 0 0.8 -1
v -0.1 0 0.6
v 0 0 0.6
v -0.1 0 0.5
v 0 0 0.5
v 0.1 0 0.4
v 0.2 0 0.4
v -0.7 0 0.3
v -0.6 0 0.3
v 0.1 0 0.3
v 0.2 0 0.3
v -0.7 0 0.2
v -0.6 0 0.2
v 0.6 0 0
v 0.7 0 0
v 0.6 0 -0.1
v 0.7 0 -0.1
v -0.5 0 -0.2
v -0.4 0 -0.2
v 0.3 0 -0.2
v 0.4 0 -0.2
v -0.5 0 -0.3
v -0.4 0 -0.3
v -0.3 0 -0.3
v -0.2 0 -0.3
v 0.3 0 -0.3
v 0.4 0 -0.3
v -0.3 0 -0.4
v -0.2 0 -0.4
v 0.3 0 -0.7
v 0.4 0 -0.7
v 0.3 0 -0.8
v 0.4 0 -0.8
v -0.1 0 -0.9
v 0 0 -0.9
v -0.1 0 -1
v 0 0 -1
v -0.7 0.7 0.2
v -0.6 0.7 0.2
v -0.6 0.7 0.1
v 0.1 0.7 0.1
v -0.7 0.7 0
v -0.1 0.7 0
v 0.1 0.7 0
v 0.6 0.7 0
v 0 0.7 -0.1
v 0.4 0.7 -0.1
v 0.5 0.7 -0.1
v 0.6 0.7 -0.1
v 0.4 0.7 -0.2
v -0.2 0.7 -0.3
v -0.1 0.7 -0.3
v 0.4 0.7 -0.3
v 0.5 0.7 -0.3
v -0.2 0.7 -0.4
v -0.1 0.7 -0.4
v 0 0.7 -0.7
v 0.3 0.7 -0.7
v 0 0.7 -0.8
v 0.3 0.7 -0.8
v -0.1 0.7 -0.9
v 0 0.7 -0.9
v -0.1 0.8 0.5
v 0 0.8 0.5
v 0 0.8 0.4
v 0.1 0.8 0.4
v 0 0.8 0.3
v 0.1 0.8 0.3
v -0.1 0.8 0.1
v 0 0.8 0.1
v -0.5 0.9 0
v -0.1 0.9 0
v -0.4 0.9 -0.1
v -0.1 0.9 -0.1
v -0.5 0.9 -0.2
v -0.4 0.9 -0.2
v 0.1 1.3 0
v 0.2 1.3 0
v 0 1.3 -0.1
v 0.1 1.3 -0.1
v 0 1.3 -0.2
v 0.2 1.3 -0.2
v -0.2 1.4 0.2
v 0.1 1.4 0.2
v -0.1 1.4 0.1
v 0.1 1.4 0.1
v -0.2 1.4 -0.1
v -0.1 1.4 -0.1
v 0.1 1.5 0.1
v 0.2 1.5 0.1
v 0.1 1.5 0
v 0.2 1.5 0
v -0.2 1.6 -0.1
v -0.1 1.6 -0.1
v 0 1.6 -0.1
v 0 1.6 -0.2
v 0.1 1.6 -0.2
v -0.2 1.6 -0.3
v 0.1 1.6 -0.3
v 0.2 1.7 0
v 0.3 1.7 0
v 0.1 1.7 -0.1
v 0.2 1.7 -0.1
v 0.1 1.7 -0.2
v 0.3 1.7 -0.2
v -0.1 2 0.3
v 0.2 2 0.3
v 0 2 0.1
v 0.2 2 0.1
v -0.1 2 0
v 0 2 0
v 0.2 2.2 0.2
v 0.3 2.2 0.2
v 0.2 2.2 0.1
v 0.1 2.2 -0.1
v 0.2 2.2 -0.1
v 0.1 2.2 -0.2
v 0.3 2.2 -0.2
v -0.7 0.8 0.3
v -0.6 0.8 0.3
v -0.6 0.8 0.1
v -0.1 0.8 0.1
v -0.7 0.8 0
v -0.1 0.8 0
v 0.1 0.8 0
v 0.7 0.8 0
v -0.1 0.8 -0.1
v 0 0.8 -0.1
v 0.1 0.8 -0.1
v 0.4 0.8 -0.1
v 0.5 0.8 -0.1
v 0.7 0.8 -0.1
v 0.3 0.8 -0.2
v 0.4 0.8 -0.2
v -0.3 0.8 -0.3
v -0.1 0.8 -0.3
v 0.3 0.8 -0.3
v 0.5 0.8 -0.3
v -0.3 0.8 -0.4
v -0.1 0.8 -0.4
v 0 0.8 -0.7
v 0.4 0.8 -0.7
v 0 0.8 -0.8
v 0.4 0.8 -0.8
v -0.1 0.8 -1
v 0 0.8 -1
v -0.1 0.9 0.6
v 0 0.9 0.6
v 0 0.9 0.4
v 0.2 0.9 0.4
v 0 0.9 0.3
v 0.2 0.9 0.3
v -0.1 0.9 0.1
v 0 0.9 0.1
v -0.5 1 0
v -0.1 1 0
v -0.4 1 -0.1
v -0.1 1 -0.1
v -0.5 1 -0.3
v -0.4 1 -0.3
v 0.1 1.6 -0.1
v 0.2 1.6 -0.1
v 0.1 1.6 -0.2
v 0.2 1.6 -0.2
v -0.2 1.7 0.2
v 0.1 1.7 0.2
v 0 1.7 0.1
v 0.1 1.7 0.1
v -0.2 1.7 0
v 0 1.7 0
v 0.2 2 0
v 0.3 2 0
v 0.1 2 -0.1
v 0.2 2 -0.1
v 0.1 2 -0.2
v 0.3 2 -0.2
v -0.2 2.3 0
v -0.1 2.3 0
v 0 2.3 0
v 0 2.3 -0.2
v 0.1 2.3 -0.2
v -0.2 2.3 -0.3
v 0.1 2.3 -0.3
v -0.1 2.5 0.3
v 0.2 2.5 0.3
v 0 2.5 0.2
v 0.2 2.5 0.2
v -0.1 2.5 0
v 0 2.5 0
v 0 2.6 0.2
v 0.3 2.6 0.2
v 0 2.6 -0.2
v 0.3 2.6 -0.2

# faces
f 3/1/1 2/1/1 1/1/1
f 5/1/1 3/1/1 1/1/1
f 5/1/1 4/1/1 3/1/1
f 6/1/1 4/1/1 5/1/1
f 10/1/1 8/1/1 7/1/1
f 11/1/1 10/1/1 9/1/1
f 12/1/1 8/1/1 10/1/1
f 12/1/1 10/1/1 11/1/1
f 15/1/1 14/1/1 13/1/1
f 16/1/1 14/1/1 15/1/1
f 19/3/1 18/3/1 17/3/1
f 20/3/1 18/3/1 19/3/1
f 22/3/1 19/3/1 17/3/1
f 23/2/1 21/2/1 20/2/1
f 23/3/1 19/3/1 22/3/1
f 23/2/1 20/2/1 19/2/1
f 24/2/1 21/2/1 23/2/1
f 25/2/1 21/2/1 24/2/1
f 33/1/1 29/1/1 28/1/1
f 34/1/1 27/1/1 26/1/1
f 36/1/1 31/1/1 30/1/1
f 37/1/1 31/1/1 36/1/1
f 38/1/1 31/1/1 37/1/1
f 39/1/1 33/1/1 32/1/1
f 40/1/1 29/1/1 33/1/1
f 40/1/1 33/1/1 39/1/1
f 41/1/1 35/1/1 34/1/1
f 41/1/1 37/1/1 36/1/1
f 41/1/1 36/1/1 35/1/1
f 41/1/1 34/1/1 26/1/1
f 42/1/1 37/1/1 41/1/1
f 43/1/1 37/1/1 42/1/1
f 44/1/1 37/1/1 43/1/1
f 45/1/1 43/1/1 42/1/1
f 47/1/1 45/1/1 42/1/1
f 47/1/1 46/1/1 45/1/1
f 48/1/1 46/1/1 47/1/1
f 51/3/1 50/3/1 49/3/1
f 52/3/1 51/3/1 49/3/1
f 53/3/1 51/3/1 52/3/1
f 56/2/1 55/2/1 54/2/1
f 57/2/1 55/2/1 56/2/1
f 58/2/1 55/2/1 57/2/1
f 61/2/1 60/2/1 59/2/1
f 62/2/1 60/2/1 61/2/1
f 66/2/1 64/2/1 63/2/1
f 67/2/1 66/2/1 65/2/1
f 68/2/1 64/2/1 66/2/1
f 68/2/1 66/2/1 67/2/1
f 71/1/1 70/1/1 69/1/1
f 72/1/1 70/1/1 71/1/1
f 77/1/1 76/1/1 75/1/1
f 78/1/1 76/1/1 77/1/1
f 79/1/1 74/1/1 73/1/1
f 80/1/1 74/1/1 79/1/1
f 83/1/1 82/1/1 81/1/1
f 84/1/1 82/1/1 83/1/1
f 87/1/1 86/1/1 85/1/1
f 88/1/1 86/1/1 87/1/1
f 89/1/2 90/1/2 91/1/2
f 89/1/2 91/1/2 93/1/2
f 91/1/2 92/1/2 93/1/2
f 93/1/2 92/1/2 94/1/2
f 95/1/2 96/1/2 98/1/2
f 97/1/2 98/1/2 99/1/2
f 98/1/2 96/1/2 100/1/2
f 99/1/2 98/1/2 100/1/2
f 101/1/2 102/1/2 103/1/2
f 103/1/2 102/1/2 104/1/2
f 107/1/2 108/1/2 112/1/2
f 105/1/2 106/1/2 113/1/2
f 109/1/2 110/1/2 117/1/2
f 117/1/2 110/1/2 118/1/2
f 111/1/2 112/1/2 119/1/2
f 112/1/2 108/1/2 120/1/2
f 119/1/2 112/1/2 120/1/2
f 105/1/2 113/1/2 121/1/2
f 113/1/2 114/1/2 121/1/2
f 121/1/2 114/1/2 122/1/2
f 115/1/2 116/1/2 123/1/2
f 123/1/2 116/1/2 124/1/2
f 125/1/2 126/1/2 127/1/2
f 125/1/2 127/1/2 129/1/2
f 127/1/2 128/1/2 129/1/2
f 129/1/2 128/1/2 130/1/2
f 125/1/2 129/1/2 132/1/2
f 132/1/2 129/1/2 133/1/2
f 131/3/2 132/3/2 133/3/2
f 133/1/2 129/1/2 134/1/2
f 131/3/2 133/3/2 138/3/2
f 138/3/2 133/3/2 139/3/2
f 136/2/2 137/2/2 140/2/2
f 135/2/2 136/2/2 140/2/2
f 140/2/2 137/2/2 141/2/2
f 141/2/2 137/2/2 143/2/2
f 142/2/2 143/2/2 144/2/2
f 143/2/2 137/2/2 145/2/2
f 144/2/2 143/2/2 145/2/2
f 145/2/2 137/2/2 146/2/2
f 146/2/2 137/2/2 147/2/2
f 148/1/2 149/1/2 150/1/2
f 150/1/2 149/1/2 151/1/2
f 152/2/2 153/2/2 155/2/2
f 155/2/2 153/2/2 156/2/2
f 154/2/2 155/2/2 156/2/2
f 156/2/2 153/2/2 157/2/2
f 154/2/2 156/2/2 158/2/2
f 158/2/2 156/2/2 159/2/2
f 154/2/2 158/2/2 161/2/2
f 161/2/2 158/2/2 162/2/2
f 160/3/2 161/3/2 164/3/2
f 162/2/2 163/2/2 165/2/2
f 164/3/2 161/3/2 165/3/2
f 161/2/2 162/2/2 165/2/2
f 165/2/2 163/2/2 166/2/2
f 160/3/2 164/3/2 167/3/2
f 167/3/2 164/3/2 168/3/2
f 169/3/2 170/3/2 171/3/2
f 171/3/2 170/3/2 172/3/2
f 173/2/2 174/2/2 175/2/2
f 175/2/2 174/2/2 176/2/2
f 177/1/2 178/1/2 181/1/2
f 181/1/2 178/1/2 182/1/2
f 179/1/2 180/1/2 183/1/2
f 183/1/2 180/1/2 184/1/2
f 185/1/2 186/1/2 187/1/2
f 187/1/2 186/1/2 188/1/2
f 189/1/2 190/1/2 191/1/2
f 191/1/2 190/1/2 192/1/2
f 195/1/3 194/1/3 193/1/3
f 196/1/3 194/1/3 195/1/3
f 200/1/3 198/1/3 197/1/3
f 201/1/3 200/1/3 199/1/3
f 202/1/3 198/1/3 200/1/3
f 202/1/3 200/1/3 201/1/3
f 205/1/3 204/1/3 203/1/3
f 206/1/3 204/1/3 205/1/3
f 209/3/3 208/3/3 207/3/3
f 210/3/3 208/3/3 209/3/3
f 215/3/3 212/3/3 211/3/3
f 216/3/3 212/3/3 215/3/3
f 218/2/3 214/2/3 213/2/3
f 219/2/3 218/2/3 217/2/3
f 220/2/3 214/2/3 218/2/3
f 220/2/3 218/2/3 219/2/3
f 223/1/3 222/1/3 221/1/3
f 226/1/3 223/1/3 221/1/3
f 227/1/3 225/1/3 224/1/3
f 230/1/3 226/1/3 221/1/3
f 230/1/3 227/1/3 226/1/3
f 231/1/3 225/1/3 227/1/3
f 231/1/3 227/1/3 230/1/3
f 233/2/3 229/2/3 228/2/3
f 234/2/3 233/2/3 232/2/3
f 235/2/3 229/2/3 233/2/3
f 235/2/3 233/2/3 234/2/3
f 240/1/3 237/1/3 236/1/3
f 241/1/3 237/1/3 240/1/3
f 242/2/3 239/2/3 238/2/3
f 243/2/3 239/2/3 242/2/3
f 244/2/3 242/2/3 238/2/3
f 245/2/3 242/2/3 244/2/3
f 250/2/3 249/2/3 248/2/3
f 251/2/3 249/2/3 250/2/3
f 254/3/3 253/3/3 252/3/3
f 255/3/3 253/3/3 254/3/3
f 257/1/3 247/1/3 246/1/3
f 258/1/3 257/1/3 256/1/3
f 259/1/3 247/1/3 257/1/3
f 259/1/3 257/1/3 258/1/3
f 262/1/3 261/1/3 260/1/3
f 263/1/3 261/1/3 262/1/3
f 266/1/3 265/1/3 264/1/3
f 267/1/3 265/1/3 266/1/3
f 268/1/3 265/1/3 267/1/3
f 271/1/3 270/1/3 269/1/3
f 272/1/3 270/1/3 271/1/3
f 273/1/3 270/1/3 272/1/3
f 274/1/3 270/1/3 273/1/3
f 278/1/3 276/1/3 275/1/3
f 279/1/3 278/1/3 277/1/3
f 280/1/3 276/1/3 278/1/3
f 280/1/3 278/1/3 279/1/3
f 283/1/3 282/1/3 281/1/3
f 284/1/3 282/1/3 283/1/3
f 285/1/4 286/1/4 287/1/4
f 287/1/4 286/1/4 288/1/4
f 289/1/4 290/1/4 292/1/4
f 291/1/4 292/1/4 293/1/4
f 292/1/4 290/1/4 294/1/4
f 293/1/4 292/1/4 294/1/4
f 295/1/4 296/1/4 297/1/4
f 297/1/4 296/1/4 298/1/4
f 299/1/4 300/1/4 301/1/4
f 301/1/4 300/1/4 302/1/4
f 303/3/4 304/3/4 305/3/4
f 305/3/4 304/3/4 306/3/4
f 307/1/4 308/1/4 312/1/4
f 312/1/4 308/1/4 313/1/4
f 309/3/4 310/3/4 314/3/4
f 314/3/4 310/3/4 315/3/4
f 315/3/4 310/3/4 316/3/4
f 312/1/4 313/1/4 318/1/4
f 311/1/4 312/1/4 318/1/4
f 313/1/4 314/1/4 318/1/4
f 314/1/4 315/1/4 318/1/4
f 318/1/4 315/1/4 319/1/4
f 315/2/4 316/2/4 320/2/4
f 319/1/4 315/1/4 320/1/4
f 320/2/4 316/2/4 321/2/4
f 318/1/4 319/1/4 322/1/4
f 317/1/4 318/1/4 322/1/4
f 322/1/4 319/1/4 323/1/4
f 324/2/4 325/2/4 328/2/4
f 328/2/4 325/2/4 329/2/4
f 326/2/4 327/2/4 330/2/4
f 330/2/4 327/2/4 331/2/4
f 317/1/4 322/1/4 332/1/4
f 332/1/4 322/1/4 333/1/4
f 334/1/4 335/1/4 337/1/4
f 336/1/4 337/1/4 338/1/4
f 337/1/4 335/1/4 339/1/4
f 338/1/4 337/1/4 339/1/4
f 340/2/4 341/2/4 344/2/4
f 342/2/4 343/2/4 348/2/4
f 340/2/4 344/2/4 349/2/4
f 349/2/4 344/2/4 350/2/4
f 345/3/4 346/3/4 351/3/4
f 351/3/4 346/3/4 352/3/4
f 347/2/4 348/2/4 353/2/4
f 348/2/4 343/2/4 354/2/4
f 353/2/4 348/2/4 354/2/4
f 355/1/4 356/1/4 357/1/4
f 357/1/4 356/1/4 358/1/4
f 359/2/4 360/2/4 361/2/4
f 361/2/4 360/2/4 362/2/4
f 363/1/4 364/1/4 365/1/4
f 365/1/4 364/1/4 366/1/4
f 366/1/4 364/1/4 367/1/4
f 367/1/4 364/1/4 368/1/4
f 369/1/4 370/1/4 371/1/4
f 371/1/4 370/1/4 372/1/4
f 372/1/4 370/1/4 373/1/4
f 373/1/4 370/1/4 374/1/4
f 375/1/4 376/1/4 378/1/4
f 377/1/4 378/1/4 379/1/4
f 378/1/4 376/1/4 380/1/4
f 379/1/4 378/1/4 380/1/4
f 381/1/4 382/1/4 383/1/4
f 383/1/4 382/1/4 384/1/4
f 387/1/5 386/1/5 385/1/5
f 388/1/5 386/1/5 387/1/5
f 393/1/5 390/1/5 389/1/5
f 394/1/5 390/1/5 393/1/5
f 395/1/5 392/1/5 391/1/5
f 396/1/5 392/1/5 395/1/5
f 399/1/5 398/1/5 397/1/5
f 400/1/5 398/1/5 399/1/5
f 405/1/5 402/1/5 401/1/5
f 406/1/5 402/1/5 405/1/5
f 409/1/5 404/1/5 403/1/5
f 410/1/5 404/1/5 409/1/5
f 411/1/5 408/1/5 407/1/5
f 412/1/5 408/1/5 411/1/5
f 415/1/5 414/1/5 413/1/5
f 416/1/5 414/1/5 415/1/5
f 419/1/5 418/1/5 417/1/5
f 420/1/5 418/1/5 419/1/5
f 423/1/5 422/1/5 421/1/5
f 425/1/5 423/1/5 421/1/5
f 425/1/5 424/1/5 423/1/5
f 426/1/5 424/1/5 425/1/5
f 427/1/5 424/1/5 426/1/5
f 429/1/5 428/1/5 427/1/5
f 429/1/5 427/1/5 426/1/5
f 430/1/5 428/1/5 429/1/5
f 431/1/5 428/1/5 430/1/5
f 432/1/5 428/1/5 431/1/5
f 433/1/5 431/1/5 430/1/5
f 435/1/5 429/1/5 426/1/5
f 436/1/5 431/1/5 433/1/5
f 437/1/5 431/1/5 436/1/5
f 438/1/5 435/1/5 434/1/5
f 439/1/5 429/1/5 435/1/5
f 439/1/5 435/1/5 438/1/5
f 440/1/5 429/1/5 439/1/5
f 442/1/5 440/1/5 439/1/5
f 442/1/5 441/1/5 440/1/5
f 443/1/5 441/1/5 442/1/5
f 444/1/5 442/1/5 439/1/5
f 445/1/5 442/1/5 444/1/5
f 448/1/5 447/1/5 446/1/5
f 450/1/5 448/1/5 446/1/5
f 450/1/5 449/1/5 448/1/5
f 451/1/5 449/1/5 450/1/5
f 452/1/5 450/1/5 446/1/5
f 453/1/5 450/1/5 452/1/5
f 456/1/5 455/1/5 454/1/5
f 457/1/5 455/1/5 456/1/5
f 458/1/5 456/1/5 454/1/5
f 459/1/5 456/1/5 458/1/5
f 463/2/5 461/2/5 460/2/5
f 464/2/5 463/2/5 462/2/5
f 465/2/5 461/2/5 463/2/5
f 465/2/5 463/2/5 464/2/5
f 468/3/5 467/3/5 466/3/5
f 469/3/5 467/3/5 468/3/5
f 470/3/5 468/3/5 466/3/5
f 471/3/5 468/3/5 470/3/5
f 474/2/5 473/2/5 472/2/5
f 475/2/5 473/2/5 474/2/5
f 479/2/5 477/2/5 476/2/5
f 479/2/5 478/2/5 477/2/5
f 481/2/5 479/2/5 476/2/5
f 481/2/5 480/2/5 479/2/5
f 482/2/5 480/2/5 481/2/5
f 486/3/5 484/3/5 483/3/5
f 487/3/5 486/3/5 485/3/5
f 488/3/5 484/3/5 486/3/5
f 488/3/5 486/3/5 487/3/5
f 491/3/5 490/3/5 489/3/5
f 492/3/5 490/3/5 491/3/5
f 493/3/5 491/3/5 489/3/5
f 494/3/5 491/3/5 493/3/5
f 497/2/5 496/2/5 495/2/5
f 499/2/5 496/2/5 497/2/5
f 500/2/5 499/2/5 498/2/5
f 501/2/5 496/2/5 499/2/5
f 501/2/5 499/2/5 500/2/5
f 502/1/6 503/1/6 504/1/6
f 502/1/6 504/1/6 506/1/6
f 504/1/6 505/1/6 506/1/6
f 506/1/6 505/1/6 507/1/6
f 508/1/6 509/1/6 512/1/6
f 512/1/6 509/1/6 513/1/6
f 513/1/6 509/1/6 514/1/6
f 514/1/6 509/1/6 515/1/6
f 513/1/6 514/1/6 517/1/6
f 510/1/6 511/1/6 519/1/6
f 516/1/6 517/1/6 520/1/6
f 517/1/6 514/1/6 521/1/6
f 520/1/6 517/1/6 521/1/6
f 518/1/6 519/1/6 522/1/6
f 519/1/6 511/1/6 523/1/6
f 522/1/6 519/1/6 523/1/6
f 523/1/6 511/1/6 524/1/6
f 523/1/6 524/1/6 526/1/6
f 524/1/6 525/1/6 526/1/6
f 526/1/6 525/1/6 527/1/6
f 523/1/6 526/1/6 528/1/6
f 528/1/6 526/1/6 529/1/6
f 530/1/6 531/1/6 532/1/6
f 530/1/6 532/1/6 534/1/6
f 532/1/6 533/1/6 534/1/6
f 534/1/6 533/1/6 535/1/6
f 530/1/6 534/1/6 536/1/6
f 536/1/6 534/1/6 537/1/6
f 538/1/6 539/1/6 540/1/6
f 540/1/6 539/1/6 541/1/6
f 538/1/6 540/1/6 542/1/6
f 542/1/6 540/1/6 543/1/6
f 544/2/6 545/2/6 546/2/6
f 546/2/6 545/2/6 547/2/6
f 548/3/6 549/3/6 550/3/6
f 550/3/6 549/3/6 551/3/6
f 548/3/6 550/3/6 552/3/6
f 552/3/6 550/3/6 553/3/6
f 554/3/6 555/3/6 557/3/6
f 556/3/6 557/3/6 558/3/6
f 557/3/6 555/3/6 559/3/6
f 558/3/6 557/3/6 559/3/6
f 560/2/6 561/2/6 563/2/6
f 561/2/6 562/2/6 563/2/6
f 560/2/6 563/2/6 565/2/6
f 563/2/6 564/2/6 565/2/6
f 565/2/6 564/2/6 566/2/6
f 567/3/6 568/3/6 569/3/6
f 569/3/6 568/3/6 570/3/6
f 567/3/6 569/3/6 571/3/6
f 571/3/6 569/3/6 572/3/6
f 573/2/6 574/2/6 575/2/6
f 575/2/6 574/2/6 576/2/6
