# MagicaVoxel @ Ephtracy

# group
o 

# material
mtllib Mangrove3.mtl
usemtl palette

# normals
vn -1 0 0
vn 1 0 0
vn 0 0 1
vn 0 0 -1
vn 0 -1 0
vn 0 1 0

# texcoords
vt 0.943359 0.5
vt 0.978516 0.5
vt 0.986328 0.5

# verts
v -1 0 -5.96046e-08
v -1 0 -0.1
v -1 1 -5.96046e-08
v -1 1 -0.1
v -0.7 0 0.4
v -0.7 0 0.3
v -0.7 1 0.4
v -0.7 1 0.3
v -0.5 0 -0.3
v -0.5 0 -0.4
v -0.5 0.8 -0.4
v -0.5 0.8 -0.6
v -0.5 0.9 0.3
v -0.5 0.9 -5.96046e-08
v -0.5 0.9 -0.3
v -0.5 0.9 -0.6
v -0.5 1 0.3
v -0.5 1 -5.96046e-08
v -0.4 2.1 0.3
v -0.4 2.1 -0.2
v -0.4 2.5 0.3
v -0.4 2.5 -0.2
v -0.3 0 0.8
v -0.3 0 0.7
v -0.3 0.9 0.8
v -0.3 0.9 0.7
v -0.3 1.6 0.3
v -0.3 1.6 0.1
v -0.3 1.8 -0.1
v -0.3 1.8 -0.3
v -0.3 1.9 0.3
v -0.3 1.9 0.1
v -0.3 2.1 -0.1
v -0.3 2.1 -0.2
v -0.3 2.3 -0.2
v -0.3 2.3 -0.3
v -0.3 2.5 0.1
v -0.3 2.5 -0.1
v -0.3 2.7 0.1
v -0.3 2.7 -0.1
v -0.2 1.4 0.2
v -0.2 1.4 0.1
v -0.2 1.4 -0.2
v -0.2 1.6 0.2
v -0.2 1.6 0.1
v -0.2 1.8 -0.1
v -0.2 1.8 -0.2
v -0.2 1.9 0.2
v -0.2 1.9 0.1
v -0.2 2.1 0.2
v -0.2 2.1 -0.1
v -0.2 2.5 0.2
v -0.2 2.5 0.1
v -0.2 2.5 -0.1
v -0.2 2.5 -0.2
v -0.2 2.6 0.2
v -0.2 2.6 0.1
v -0.2 2.6 -0.1
v -0.2 2.6 -0.2
v -0.1 0 -0.7
v -0.1 0 -0.8
v -0.1 0.8 0.7
v -0.1 0.8 -0.5
v -0.1 0.8 -0.6
v -0.1 0.8 -0.7
v -0.1 0.9 0.7
v -0.1 0.9 0.1
v -0.1 0.9 -5.96046e-08
v -0.1 0.9 -0.1
v -0.1 0.9 -0.5
v -0.1 0.9 -0.6
v -0.1 0.9 -0.8
v -0.1 1 -5.96046e-08
v -0.1 1 -0.1
v -0.1 1.4 0.1
v -0.1 1.4 -0.1
v -0.1 1.5 -0.2
v -0.1 1.5 -0.3
v -0.1 1.8 -0.2
v -0.1 1.8 -0.3
v 0 0 0.6
v 0 0 0.5
v 0 0.8 0.6
v 0 0.8 0.5
v 0 0.9 0.6
v 0 0.9 0.5
v 0 1 0.5
v 0 1 0.1
v 0 1.1 0.6
v 0 1.1 0.1
v 0 2.4 -0.2
v 0 2.4 -0.3
v 0 2.6 -5.96046e-08
v 0 2.6 -0.2
v 0 2.7 -5.96046e-08
v 0 2.7 -0.3
v 0.1 2 0.3
v 0.1 2 0.2
v 0.1 2.2 0.3
v 0.1 2.2 0.2
v 0.2 0 0.4
v 0.2 0 0.3
v 0.2 1 0.4
v 0.2 1 0.3
v 0.3 0 -0.2
v 0.3 0 -0.3
v 0.3 0.9 -0.1
v 0.3 0.9 -0.2
v 0.3 1 -0.1
v 0.3 1 -0.3
v 0.6 0 0.3
v 0.6 0 0.2
v 0.6 0 -0.3
v 0.6 0 -0.4
v 0.6 0.8 0.2
v 0.6 0.8 0.1
v 0.6 0.8 -5.96046e-08
v 0.6 0.8 -0.3
v 0.6 0.9 0.3
v 0.6 0.9 0.1
v 0.6 0.9 -5.96046e-08
v 0.6 0.9 -0.4
v -0.9 0 -5.96046e-08
v -0.9 0 -0.1
v -0.9 0.9 -5.96046e-08
v -0.9 0.9 -0.1
v -0.6 0 0.4
v -0.6 0 0.3
v -0.6 0.9 0.4
v -0.6 0.9 0.3
v -0.4 0 -0.3
v -0.4 0 -0.4
v -0.4 0.8 -0.4
v -0.4 0.8 -0.5
v -0.4 0.9 0.4
v -0.4 0.9 -5.96046e-08
v -0.4 0.9 -0.3
v -0.4 0.9 -0.5
v -0.4 1 0.4
v -0.4 1 -5.96046e-08
v -0.2 0 0.8
v -0.2 0 0.7
v -0.2 0.8 0.8
v -0.2 0.8 0.7
v -0.1 2.1 0.3
v -0.1 2.1 0.2
v -0.1 2.5 0.3
v -0.1 2.5 0.2
v -0.1 2.6 0.1
v -0.1 2.6 -0.1
v -0.1 2.7 0.1
v -0.1 2.7 -0.1
v 0 0 -0.7
v 0 0 -0.8
v 0 0.8 0.8
v 0 0.8 0.6
v 0 0.8 0.5
v 0 0.8 0.1
v 0 0.8 -0.1
v 0 0.8 -0.7
v 0 0.9 0.8
v 0 0.9 0.6
v 0 0.9 0.5
v 0 0.9 0.1
v 0 0.9 -0.1
v 0 0.9 -0.8
v 0 1.6 0.3
v 0 1.6 0.2
v 0 1.9 0.3
v 0 1.9 0.2
v 0.1 0 0.6
v 0.1 0 0.5
v 0.1 0.8 -5.96046e-08
v 0.1 0.8 -0.1
v 0.1 0.9 0.1
v 0.1 0.9 -5.96046e-08
v 0.1 0.9 -0.1
v 0.1 1 0.5
v 0.1 1 0.4
v 0.1 1 0.3
v 0.1 1 0.1
v 0.1 1 -5.96046e-08
v 0.1 1 -0.1
v 0.1 1.1 0.6
v 0.1 1.1 0.4
v 0.1 1.1 0.3
v 0.1 1.1 0.1
v 0.1 1.4 0.1
v 0.1 1.4 -0.1
v 0.1 1.8 -0.2
v 0.1 1.8 -0.3
v 0.1 2.3 -0.2
v 0.1 2.3 -0.3
v 0.2 1.4 0.2
v 0.2 1.4 -0.2
v 0.2 1.5 -5.96046e-08
v 0.2 1.5 -0.2
v 0.2 1.8 -5.96046e-08
v 0.2 1.8 -0.2
v 0.2 2 0.2
v 0.2 2 -0.1
v 0.2 2.2 0.2
v 0.2 2.2 -0.1
v 0.2 2.4 -5.96046e-08
v 0.2 2.4 -0.2
v 0.2 2.6 0.2
v 0.2 2.6 -5.96046e-08
v 0.3 0 0.4
v 0.3 0 0.3
v 0.3 1.1 0.4
v 0.3 1.1 0.3
v 0.3 1.5 -5.96046e-08
v 0.3 1.5 -0.3
v 0.3 1.8 -5.96046e-08
v 0.3 1.8 -0.3
v 0.3 2 0.3
v 0.3 2 -0.1
v 0.3 2.2 0.3
v 0.3 2.2 -0.1
v 0.3 2.4 -5.96046e-08
v 0.3 2.4 -0.3
v 0.3 2.7 -5.96046e-08
v 0.3 2.7 -0.3
v 0.4 0 -0.2
v 0.4 0 -0.3
v 0.4 0.9 -5.96046e-08
v 0.4 0.9 -0.2
v 0.4 1 -5.96046e-08
v 0.4 1 -0.3
v 0.7 0 0.3
v 0.7 0 0.2
v 0.7 0 -0.3
v 0.7 0 -0.4
v 0.7 0.8 0.2
v 0.7 0.8 -0.3
v 0.7 0.9 0.3
v 0.7 0.9 -0.4
v -0.3 0 0.8
v -0.3 0.9 0.8
v -0.2 0 0.8
v -0.2 0.8 0.8
v 0 0.8 0.8
v 0 0.9 0.8
v 0 0 0.6
v 0 0.8 0.6
v 0 0.9 0.6
v 0 1.1 0.6
v 0.1 0 0.6
v 0.1 1.1 0.6
v -0.7 0 0.4
v -0.7 1 0.4
v -0.6 0 0.4
v -0.6 0.9 0.4
v -0.4 0.9 0.4
v -0.4 1 0.4
v 0.1 1 0.4
v 0.1 1.1 0.4
v 0.2 0 0.4
v 0.2 1 0.4
v 0.3 0 0.4
v 0.3 1.1 0.4
v -0.4 2.1 0.3
v -0.4 2.5 0.3
v -0.3 1.6 0.3
v -0.3 1.9 0.3
v -0.1 2.1 0.3
v -0.1 2.5 0.3
v 0 1.6 0.3
v 0 1.9 0.3
v 0.1 2 0.3
v 0.1 2.2 0.3
v 0.3 2 0.3
v 0.3 2.2 0.3
v 0.6 0 0.3
v 0.6 0.9 0.3
v 0.7 0 0.3
v 0.7 0.9 0.3
v -0.2 1.4 0.2
v -0.2 1.6 0.2
v -0.2 1.9 0.2
v -0.2 2.1 0.2
v -0.2 2.5 0.2
v -0.2 2.6 0.2
v -0.1 2.1 0.2
v -0.1 2.5 0.2
v 0 1.4 0.2
v 0 1.6 0.2
v 0 1.9 0.2
v 0.1 2 0.2
v 0.1 2.2 0.2
v 0.2 1.4 0.2
v 0.2 2 0.2
v 0.2 2.2 0.2
v 0.2 2.6 0.2
v -0.3 2.5 0.1
v -0.3 2.7 0.1
v -0.2 2.5 0.1
v -0.2 2.6 0.1
v -0.1 0.9 0.1
v -0.1 1.4 0.1
v -0.1 2.6 0.1
v -0.1 2.7 0.1
v 0 0.8 0.1
v 0 0.9 0.1
v 0 1 0.1
v 0 1.1 0.1
v 0 1.4 0.1
v 0.1 0.9 0.1
v 0.1 1 0.1
v 0.1 1.1 0.1
v 0.1 1.4 0.1
v 0.6 0.8 0.1
v 0.6 0.9 0.1
v -1 0 -5.96046e-08
v -1 1 -5.96046e-08
v -0.9 0 -5.96046e-08
v -0.9 0.9 -5.96046e-08
v -0.5 0.9 -5.96046e-08
v -0.5 1 -5.96046e-08
v -0.4 0.9 -5.96046e-08
v -0.4 1 -5.96046e-08
v -0.1 0.9 -5.96046e-08
v -0.1 1 -5.96046e-08
v 0 2.6 -5.96046e-08
v 0 2.7 -5.96046e-08
v 0.1 0.9 -5.96046e-08
v 0.1 1 -5.96046e-08
v 0.2 1.5 -5.96046e-08
v 0.2 1.8 -5.96046e-08
v 0.2 2.4 -5.96046e-08
v 0.2 2.6 -5.96046e-08
v 0.3 1.5 -5.96046e-08
v 0.3 1.8 -5.96046e-08
v 0.3 2.4 -5.96046e-08
v 0.3 2.7 -5.96046e-08
v 0.4 0.9 -5.96046e-08
v 0.4 1 -5.96046e-08
v -0.3 1.8 -0.1
v -0.3 2.1 -0.1
v -0.2 1.8 -0.1
v -0.2 2.1 -0.1
v 0.3 0 -0.2
v 0.3 0.9 -0.2
v 0.4 0 -0.2
v 0.4 0.9 -0.2
v -0.5 0 -0.3
v -0.5 0.9 -0.3
v -0.4 0 -0.3
v -0.4 0.9 -0.3
v 0.6 0 -0.3
v 0.6 0.8 -0.3
v 0.7 0 -0.3
v 0.7 0.8 -0.3
v -0.4 0.8 -0.5
v -0.4 0.9 -0.5
v -0.1 0.8 -0.5
v -0.1 0.9 -0.5
v -0.1 0 -0.7
v -0.1 0.8 -0.7
v 0 0 -0.7
v 0 0.8 -0.7
v -0.3 0 0.7
v -0.3 0.9 0.7
v -0.2 0 0.7
v -0.2 0.8 0.7
v -0.1 0.8 0.7
v -0.1 0.9 0.7
v 0 0 0.5
v 0 0.8 0.5
v 0 0.9 0.5
v 0 1 0.5
v 0.1 0 0.5
v 0.1 1 0.5
v -0.7 0 0.3
v -0.7 1 0.3
v -0.6 0 0.3
v -0.6 0.9 0.3
v -0.5 0.9 0.3
v -0.5 1 0.3
v 0.1 1 0.3
v 0.1 1.1 0.3
v 0.2 0 0.3
v 0.2 1 0.3
v 0.3 0 0.3
v 0.3 1.1 0.3
v 0.6 0 0.2
v 0.6 0.8 0.2
v 0.7 0 0.2
v 0.7 0.8 0.2
v -0.3 1.6 0.1
v -0.3 1.9 0.1
v -0.2 1.6 0.1
v -0.2 1.9 0.1
v 0.1 0.8 -5.96046e-08
v 0.1 0.9 -5.96046e-08
v 0.4 0.9 -5.96046e-08
v 0.6 0.8 -5.96046e-08
v 0.6 0.9 -5.96046e-08
v -1 0 -0.1
v -1 1 -0.1
v -0.9 0 -0.1
v -0.9 0.9 -0.1
v -0.3 2.5 -0.1
v -0.3 2.7 -0.1
v -0.2 2.5 -0.1
v -0.2 2.6 -0.1
v -0.1 0.9 -0.1
v -0.1 1 -0.1
v -0.1 1.4 -0.1
v -0.1 2.6 -0.1
v -0.1 2.7 -0.1
v 0 0.8 -0.1
v 0 0.9 -0.1
v 0.1 0.8 -0.1
v 0.1 0.9 -0.1
v 0.1 1 -0.1
v 0.1 1.4 -0.1
v 0.2 2 -0.1
v 0.2 2.2 -0.1
v 0.3 0.9 -0.1
v 0.3 1 -0.1
v 0.3 2 -0.1
v 0.3 2.2 -0.1
v -0.4 2.1 -0.2
v -0.4 2.5 -0.2
v -0.3 2.1 -0.2
v -0.3 2.3 -0.2
v -0.2 1.4 -0.2
v -0.2 1.8 -0.2
v -0.2 2.5 -0.2
v -0.2 2.6 -0.2
v -0.1 1.5 -0.2
v -0.1 1.8 -0.2
v 0 2.4 -0.2
v 0 2.6 -0.2
v 0.1 1.8 -0.2
v 0.1 2.3 -0.2
v 0.2 1.4 -0.2
v 0.2 1.5 -0.2
v 0.2 1.8 -0.2
v 0.2 2.4 -0.2
v -0.3 1.8 -0.3
v -0.3 2.3 -0.3
v -0.1 1.5 -0.3
v -0.1 1.8 -0.3
v 0 2.4 -0.3
v 0 2.7 -0.3
v 0.1 1.8 -0.3
v 0.1 2.3 -0.3
v 0.3 0 -0.3
v 0.3 1 -0.3
v 0.3 1.5 -0.3
v 0.3 1.8 -0.3
v 0.3 2.4 -0.3
v 0.3 2.7 -0.3
v 0.4 0 -0.3
v 0.4 1 -0.3
v -0.5 0 -0.4
v -0.5 0.8 -0.4
v -0.4 0 -0.4
v -0.4 0.8 -0.4
v 0.6 0 -0.4
v 0.6 0.9 -0.4
v 0.7 0 -0.4
v 0.7 0.9 -0.4
v -0.5 0.8 -0.6
v -0.5 0.9 -0.6
v -0.1 0.8 -0.6
v -0.1 0.9 -0.6
v -0.1 0 -0.8
v -0.1 0.9 -0.8
v 0 0 -0.8
v 0 0.9 -0.8
v -0.3 0 0.8
v -0.2 0 0.8
v -0.3 0 0.7
v -0.2 0 0.7
v 0 0 0.6
v 0.1 0 0.6
v 0 0 0.5
v 0.1 0 0.5
v -0.7 0 0.4
v -0.6 0 0.4
v 0.2 0 0.4
v 0.3 0 0.4
v -0.7 0 0.3
v -0.6 0 0.3
v 0.2 0 0.3
v 0.3 0 0.3
v 0.6 0 0.3
v 0.7 0 0.3
v 0.6 0 0.2
v 0.7 0 0.2
v -1 0 -5.96046e-08
v -0.9 0 -5.96046e-08
v -1 0 -0.1
v -0.9 0 -0.1
v 0.3 0 -0.2
v 0.4 0 -0.2
v -0.5 0 -0.3
v -0.4 0 -0.3
v 0.3 0 -0.3
v 0.4 0 -0.3
v 0.6 0 -0.3
v 0.7 0 -0.3
v -0.5 0 -0.4
v -0.4 0 -0.4
v 0.6 0 -0.4
v 0.7 0 -0.4
v -0.1 0 -0.7
v 0 0 -0.7
v -0.1 0 -0.8
v 0 0 -0.8
v -0.2 0.8 0.8
v 0 0.8 0.8
v -0.2 0.8 0.7
v -0.1 0.8 0.7
v 0 0.8 0.6
v 0 0.8 0.5
v 0.6 0.8 0.2
v 0.7 0.8 0.2
v 0 0.8 0.1
v 0.6 0.8 0.1
v 0.1 0.8 -5.96046e-08
v 0.6 0.8 -5.96046e-08
v 0 0.8 -0.1
v 0.1 0.8 -0.1
v 0.6 0.8 -0.3
v 0.7 0.8 -0.3
v -0.5 0.8 -0.4
v -0.4 0.8 -0.4
v -0.4 0.8 -0.5
v -0.1 0.8 -0.5
v -0.5 0.8 -0.6
v -0.1 0.8 -0.6
v -0.1 0.8 -0.7
v 0 0.8 -0.7
v -0.6 0.9 0.4
v -0.4 0.9 0.4
v -0.6 0.9 0.3
v -0.5 0.9 0.3
v -0.9 0.9 -5.96046e-08
v -0.5 0.9 -5.96046e-08
v -0.4 0.9 -5.96046e-08
v -0.1 0.9 -5.96046e-08
v 0.1 0.9 -5.96046e-08
v 0.4 0.9 -5.96046e-08
v -0.9 0.9 -0.1
v -0.1 0.9 -0.1
v 0.1 0.9 -0.1
v 0.3 0.9 -0.1
v 0.3 0.9 -0.2
v 0.4 0.9 -0.2
v 0 1 0.5
v 0.1 1 0.5
v 0.1 1 0.4
v 0.2 1 0.4
v 0.1 1 0.3
v 0.2 1 0.3
v 0 1 0.1
v 0.1 1 0.1
v -0.2 1.4 0.2
v 0 1.4 0.2
v 0.2 1.4 0.2
v -0.2 1.4 0.1
v -0.1 1.4 0.1
v 0 1.4 0.1
v 0.1 1.4 0.1
v -0.1 1.4 -0.1
v 0.1 1.4 -0.1
v -0.2 1.4 -0.2
v 0.2 1.4 -0.2
v 0.2 1.5 -5.96046e-08
v 0.3 1.5 -5.96046e-08
v -0.1 1.5 -0.2
v 0.2 1.5 -0.2
v -0.1 1.5 -0.3
v 0.3 1.5 -0.3
v -0.3 1.6 0.3
v 0 1.6 0.3
v -0.2 1.6 0.2
v 0 1.6 0.2
v -0.3 1.6 0.1
v -0.2 1.6 0.1
v -0.3 1.8 -0.1
v -0.2 1.8 -0.1
v -0.2 1.8 -0.2
v -0.1 1.8 -0.2
v -0.3 1.8 -0.3
v -0.1 1.8 -0.3
v 0.1 2 0.3
v 0.3 2 0.3
v 0.1 2 0.2
v 0.2 2 0.2
v 0.2 2 -0.1
v 0.3 2 -0.1
v -0.4 2.1 0.3
v -0.1 2.1 0.3
v -0.2 2.1 0.2
v -0.1 2.1 0.2
v -0.3 2.1 -0.1
v -0.2 2.1 -0.1
v -0.4 2.1 -0.2
v -0.3 2.1 -0.2
v 0.2 2.4 -5.96046e-08
v 0.3 2.4 -5.96046e-08
v 0 2.4 -0.2
v 0.2 2.4 -0.2
v 0 2.4 -0.3
v 0.3 2.4 -0.3
v -0.3 0.9 0.8
v 0 0.9 0.8
v -0.3 0.9 0.7
v -0.1 0.9 0.7
v 0 0.9 0.6
v 0 0.9 0.5
v 0.6 0.9 0.3
v 0.7 0.9 0.3
v -0.1 0.9 0.1
v 0 0.9 0.1
v 0.1 0.9 0.1
v 0.6 0.9 0.1
v 0.1 0.9 -5.96046e-08
v 0.4 0.9 -5.96046e-08
v 0.6 0.9 -5.96046e-08
v -0.1 0.9 -0.1
v 0 0.9 -0.1
v -0.5 0.9 -0.3
v -0.4 0.9 -0.3
v 0.6 0.9 -0.4
v 0.7 0.9 -0.4
v -0.4 0.9 -0.5
v -0.1 0.9 -0.5
v -0.5 0.9 -0.6
v -0.1 0.9 -0.6
v -0.1 0.9 -0.8
v 0 0.9 -0.8
v -0.7 1 0.4
v -0.4 1 0.4
v -0.7 1 0.3
v -0.5 1 0.3
v -1 1 -5.96046e-08
v -0.5 1 -5.96046e-08
v -0.4 1 -5.96046e-08
v -0.1 1 -5.96046e-08
v 0.1 1 -5.96046e-08
v 0.4 1 -5.96046e-08
v -1 1 -0.1
v -0.1 1 -0.1
v 0.1 1 -0.1
v 0.3 1 -0.1
v 0.3 1 -0.3
v 0.4 1 -0.3
v 0 1.1 0.6
v 0.1 1.1 0.6
v 0.1 1.1 0.4
v 0.3 1.1 0.4
v 0.1 1.1 0.3
v 0.3 1.1 0.3
v 0 1.1 0.1
v 0.1 1.1 0.1
v 0.2 1.8 -5.96046e-08
v 0.3 1.8 -5.96046e-08
v 0.1 1.8 -0.2
v 0.2 1.8 -0.2
v 0.1 1.8 -0.3
v 0.3 1.8 -0.3
v -0.3 1.9 0.3
v 0 1.9 0.3
v -0.2 1.9 0.2
v 0 1.9 0.2
v -0.3 1.9 0.1
v -0.2 1.9 0.1
v 0.1 2.2 0.3
v 0.3 2.2 0.3
v 0.1 2.2 0.2
v 0.2 2.2 0.2
v 0.2 2.2 -0.1
v 0.3 2.2 -0.1
v -0.3 2.3 -0.2
v 0.1 2.3 -0.2
v -0.3 2.3 -0.3
v 0.1 2.3 -0.3
v -0.4 2.5 0.3
v -0.1 2.5 0.3
v -0.2 2.5 0.2
v -0.1 2.5 0.2
v -0.3 2.5 0.1
v -0.2 2.5 0.1
v -0.3 2.5 -0.1
v -0.2 2.5 -0.1
v -0.4 2.5 -0.2
v -0.2 2.5 -0.2
v -0.2 2.6 0.2
v 0.2 2.6 0.2
v -0.2 2.6 0.1
v -0.1 2.6 0.1
v 0 2.6 -5.96046e-08
v 0.2 2.6 -5.96046e-08
v -0.2 2.6 -0.1
v -0.1 2.6 -0.1
v -0.2 2.6 -0.2
v 0 2.6 -0.2
v -0.3 2.7 0.1
v -0.1 2.7 0.1
v 0 2.7 -5.96046e-08
v 0.3 2.7 -5.96046e-08
v -0.3 2.7 -0.1
v -0.1 2.7 -0.1
v 0 2.7 -0.3
v 0.3 2.7 -0.3

# faces
f 3/1/1 2/1/1 1/1/1
f 4/1/1 2/1/1 3/1/1
f 7/1/1 6/1/1 5/1/1
f 8/1/1 6/1/1 7/1/1
f 11/1/1 10/1/1 9/1/1
f 15/1/1 11/1/1 9/1/1
f 15/1/1 12/1/1 11/1/1
f 16/1/1 12/1/1 15/1/1
f 17/1/1 14/1/1 13/1/1
f 18/1/1 14/1/1 17/1/1
f 21/2/1 20/2/1 19/2/1
f 22/2/1 20/2/1 21/2/1
f 25/1/1 24/1/1 23/1/1
f 26/1/1 24/1/1 25/1/1
f 31/2/1 28/2/1 27/2/1
f 32/2/1 28/2/1 31/2/1
f 33/3/1 30/3/1 29/3/1
f 34/3/1 30/3/1 33/3/1
f 35/3/1 30/3/1 34/3/1
f 36/3/1 30/3/1 35/3/1
f 39/3/1 38/3/1 37/3/1
f 40/3/1 38/3/1 39/3/1
f 44/3/1 42/3/1 41/3/1
f 45/2/1 43/2/1 42/2/1
f 45/3/1 42/3/1 44/3/1
f 46/2/1 43/2/1 45/2/1
f 47/2/1 43/2/1 46/2/1
f 49/2/1 46/2/1 45/2/1
f 50/2/1 49/2/1 48/2/1
f 51/2/1 46/2/1 49/2/1
f 51/2/1 49/2/1 50/2/1
f 56/2/1 53/2/1 52/2/1
f 57/2/1 53/2/1 56/2/1
f 58/2/1 55/2/1 54/2/1
f 59/2/1 55/2/1 58/2/1
f 65/1/1 61/1/1 60/1/1
f 66/1/1 63/1/1 62/1/1
f 67/1/1 63/1/1 66/1/1
f 68/1/1 63/1/1 67/1/1
f 69/1/1 63/1/1 68/1/1
f 70/1/1 63/1/1 69/1/1
f 71/1/1 65/1/1 64/1/1
f 72/1/1 61/1/1 65/1/1
f 72/1/1 65/1/1 71/1/1
f 73/1/1 68/1/1 67/1/1
f 75/1/1 73/1/1 67/1/1
f 75/1/1 74/1/1 73/1/1
f 76/1/1 74/1/1 75/1/1
f 79/2/1 78/2/1 77/2/1
f 80/2/1 78/2/1 79/2/1
f 83/1/1 82/1/1 81/1/1
f 84/1/1 82/1/1 83/1/1
f 87/1/1 86/1/1 85/1/1
f 89/1/1 87/1/1 85/1/1
f 89/1/1 88/1/1 87/1/1
f 90/1/1 88/1/1 89/1/1
f 94/2/1 92/2/1 91/2/1
f 95/2/1 94/2/1 93/2/1
f 96/2/1 92/2/1 94/2/1
f 96/2/1 94/2/1 95/2/1
f 99/2/1 98/2/1 97/2/1
f 100/2/1 98/2/1 99/2/1
f 103/1/1 102/1/1 101/1/1
f 104/1/1 102/1/1 103/1/1
f 108/1/1 106/1/1 105/1/1
f 109/1/1 108/1/1 107/1/1
f 110/1/1 106/1/1 108/1/1
f 110/1/1 108/1/1 109/1/1
f 115/1/1 112/1/1 111/1/1
f 118/1/1 114/1/1 113/1/1
f 119/1/1 116/1/1 115/1/1
f 119/1/1 115/1/1 111/1/1
f 120/1/1 116/1/1 119/1/1
f 121/1/1 118/1/1 117/1/1
f 122/1/1 114/1/1 118/1/1
f 122/1/1 118/1/1 121/1/1
f 123/1/2 124/1/2 125/1/2
f 125/1/2 124/1/2 126/1/2
f 127/1/2 128/1/2 129/1/2
f 129/1/2 128/1/2 130/1/2
f 131/1/2 132/1/2 133/1/2
f 131/1/2 133/1/2 137/1/2
f 133/1/2 134/1/2 137/1/2
f 137/1/2 134/1/2 138/1/2
f 135/1/2 136/1/2 139/1/2
f 139/1/2 136/1/2 140/1/2
f 141/1/2 142/1/2 143/1/2
f 143/1/2 142/1/2 144/1/2
f 145/2/2 146/2/2 147/2/2
f 147/2/2 146/2/2 148/2/2
f 149/3/2 150/3/2 151/3/2
f 151/3/2 150/3/2 152/3/2
f 153/1/2 154/1/2 160/1/2
f 155/1/2 156/1/2 161/1/2
f 161/1/2 156/1/2 162/1/2
f 157/1/2 158/1/2 163/1/2
f 163/1/2 158/1/2 164/1/2
f 159/1/2 160/1/2 165/1/2
f 160/1/2 154/1/2 166/1/2
f 165/1/2 160/1/2 166/1/2
f 167/2/2 168/2/2 169/2/2
f 169/2/2 168/2/2 170/2/2
f 173/1/2 174/1/2 176/1/2
f 176/1/2 174/1/2 177/1/2
f 171/1/2 172/1/2 178/1/2
f 175/1/2 176/1/2 181/1/2
f 181/1/2 176/1/2 182/1/2
f 178/1/2 179/1/2 184/1/2
f 171/1/2 178/1/2 184/1/2
f 184/1/2 179/1/2 185/1/2
f 182/1/2 183/1/2 186/1/2
f 181/1/2 182/1/2 186/1/2
f 180/1/2 181/1/2 186/1/2
f 186/1/2 183/1/2 187/1/2
f 187/1/2 183/1/2 188/1/2
f 188/1/2 183/1/2 189/1/2
f 190/3/2 191/3/2 192/3/2
f 192/3/2 191/3/2 193/3/2
f 194/2/2 195/2/2 196/2/2
f 196/2/2 195/2/2 197/2/2
f 194/2/2 196/2/2 198/2/2
f 194/2/2 198/2/2 200/2/2
f 198/2/2 199/2/2 200/2/2
f 200/2/2 199/2/2 201/2/2
f 201/2/2 199/2/2 203/2/2
f 202/2/2 203/2/2 204/2/2
f 203/2/2 199/2/2 205/2/2
f 204/2/2 203/2/2 205/2/2
f 202/2/2 204/2/2 206/2/2
f 206/2/2 204/2/2 207/2/2
f 208/1/2 209/1/2 210/1/2
f 210/1/2 209/1/2 211/1/2
f 212/2/2 213/2/2 214/2/2
f 214/2/2 213/2/2 215/2/2
f 216/2/2 217/2/2 218/2/2
f 218/2/2 217/2/2 219/2/2
f 220/2/2 221/2/2 222/2/2
f 222/2/2 221/2/2 223/2/2
f 224/1/2 225/1/2 227/1/2
f 226/1/2 227/1/2 228/1/2
f 227/1/2 225/1/2 229/1/2
f 228/1/2 227/1/2 229/1/2
f 230/1/2 231/1/2 234/1/2
f 232/1/2 233/1/2 235/1/2
f 230/1/2 234/1/2 236/1/2
f 234/1/2 235/1/2 236/1/2
f 235/1/2 233/1/2 237/1/2
f 236/1/2 235/1/2 237/1/2
f 240/1/3 239/1/3 238/1/3
f 241/1/3 239/1/3 240/1/3
f 242/1/3 239/1/3 241/1/3
f 243/1/3 239/1/3 242/1/3
f 248/1/3 245/1/3 244/1/3
f 248/1/3 247/1/3 246/1/3
f 248/1/3 246/1/3 245/1/3
f 249/1/3 247/1/3 248/1/3
f 252/1/3 251/1/3 250/1/3
f 253/1/3 251/1/3 252/1/3
f 254/1/3 251/1/3 253/1/3
f 255/1/3 251/1/3 254/1/3
f 259/1/3 257/1/3 256/1/3
f 260/1/3 259/1/3 258/1/3
f 261/1/3 257/1/3 259/1/3
f 261/1/3 259/1/3 260/1/3
f 266/2/3 263/2/3 262/2/3
f 267/2/3 263/2/3 266/2/3
f 268/2/3 265/2/3 264/2/3
f 269/2/3 265/2/3 268/2/3
f 272/2/3 271/2/3 270/2/3
f 273/2/3 271/2/3 272/2/3
f 276/1/3 275/1/3 274/1/3
f 277/1/3 275/1/3 276/1/3
f 284/2/3 281/2/3 280/2/3
f 285/2/3 283/2/3 282/2/3
f 286/3/3 279/3/3 278/3/3
f 287/3/3 279/3/3 286/3/3
f 288/2/3 285/2/3 284/2/3
f 288/2/3 284/2/3 280/2/3
f 289/2/3 287/2/3 286/2/3
f 289/2/3 288/2/3 287/2/3
f 289/2/3 285/2/3 288/2/3
f 290/2/3 285/2/3 289/2/3
f 291/2/3 289/2/3 286/2/3
f 292/2/3 289/2/3 291/2/3
f 293/2/3 285/2/3 290/2/3
f 294/2/3 283/2/3 285/2/3
f 294/2/3 285/2/3 293/2/3
f 297/3/3 296/3/3 295/3/3
f 298/3/3 296/3/3 297/3/3
f 301/3/3 296/3/3 298/3/3
f 302/3/3 296/3/3 301/3/3
f 304/1/3 300/1/3 299/1/3
f 305/1/3 300/1/3 304/1/3
f 306/1/3 300/1/3 305/1/3
f 307/1/3 300/1/3 306/1/3
f 308/1/3 304/1/3 303/1/3
f 308/1/3 305/1/3 304/1/3
f 309/1/3 305/1/3 308/1/3
f 310/1/3 307/1/3 306/1/3
f 311/1/3 307/1/3 310/1/3
f 312/1/3 308/1/3 303/1/3
f 313/1/3 308/1/3 312/1/3
f 316/1/3 315/1/3 314/1/3
f 317/1/3 315/1/3 316/1/3
f 318/1/3 315/1/3 317/1/3
f 319/1/3 315/1/3 318/1/3
f 322/1/3 321/1/3 320/1/3
f 323/1/3 321/1/3 322/1/3
f 331/2/3 325/2/3 324/2/3
f 332/2/3 329/2/3 328/2/3
f 333/2/3 329/2/3 332/2/3
f 334/2/3 331/2/3 330/2/3
f 335/2/3 325/2/3 331/2/3
f 335/2/3 331/2/3 334/2/3
f 336/1/3 327/1/3 326/1/3
f 337/1/3 327/1/3 336/1/3
f 340/3/3 339/3/3 338/3/3
f 341/3/3 339/3/3 340/3/3
f 344/1/3 343/1/3 342/1/3
f 345/1/3 343/1/3 344/1/3
f 348/1/3 347/1/3 346/1/3
f 349/1/3 347/1/3 348/1/3
f 352/1/3 351/1/3 350/1/3
f 353/1/3 351/1/3 352/1/3
f 356/1/3 355/1/3 354/1/3
f 357/1/3 355/1/3 356/1/3
f 360/1/3 359/1/3 358/1/3
f 361/1/3 359/1/3 360/1/3
f 362/1/4 363/1/4 364/1/4
f 364/1/4 363/1/4 365/1/4
f 365/1/4 363/1/4 366/1/4
f 366/1/4 363/1/4 367/1/4
f 368/1/4 369/1/4 372/1/4
f 370/1/4 371/1/4 372/1/4
f 369/1/4 370/1/4 372/1/4
f 372/1/4 371/1/4 373/1/4
f 374/1/4 375/1/4 376/1/4
f 376/1/4 375/1/4 377/1/4
f 377/1/4 375/1/4 378/1/4
f 378/1/4 375/1/4 379/1/4
f 380/1/4 381/1/4 383/1/4
f 382/1/4 383/1/4 384/1/4
f 383/1/4 381/1/4 385/1/4
f 384/1/4 383/1/4 385/1/4
f 386/1/4 387/1/4 388/1/4
f 388/1/4 387/1/4 389/1/4
f 390/2/4 391/2/4 392/2/4
f 392/2/4 391/2/4 393/2/4
f 394/1/4 395/1/4 396/1/4
f 394/1/4 396/1/4 397/1/4
f 397/1/4 396/1/4 398/1/4
f 399/1/4 400/1/4 401/1/4
f 401/1/4 400/1/4 402/1/4
f 403/3/4 404/3/4 405/3/4
f 405/3/4 404/3/4 406/3/4
f 402/1/4 400/1/4 407/1/4
f 407/1/4 400/1/4 408/1/4
f 406/3/4 404/3/4 410/3/4
f 410/3/4 404/3/4 411/3/4
f 408/1/4 409/1/4 413/1/4
f 407/1/4 408/1/4 413/1/4
f 412/1/4 413/1/4 414/1/4
f 413/1/4 409/1/4 415/1/4
f 414/1/4 413/1/4 415/1/4
f 415/1/4 409/1/4 416/1/4
f 416/1/4 409/1/4 417/1/4
f 415/1/4 416/1/4 420/1/4
f 420/1/4 416/1/4 421/1/4
f 418/2/4 419/2/4 422/2/4
f 422/2/4 419/2/4 423/2/4
f 424/2/4 425/2/4 426/2/4
f 426/2/4 425/2/4 427/2/4
f 427/2/4 425/2/4 430/2/4
f 428/2/4 429/2/4 432/2/4
f 432/2/4 429/2/4 433/2/4
f 430/2/4 431/2/4 434/2/4
f 427/2/4 430/2/4 434/2/4
f 434/2/4 431/2/4 435/2/4
f 427/2/4 434/2/4 437/2/4
f 428/2/4 432/2/4 438/2/4
f 438/2/4 432/2/4 439/2/4
f 436/2/4 437/2/4 440/2/4
f 437/2/4 434/2/4 441/2/4
f 440/2/4 437/2/4 441/2/4
f 442/3/4 443/3/4 445/3/4
f 445/3/4 443/3/4 448/3/4
f 444/2/4 445/2/4 448/2/4
f 448/3/4 443/3/4 449/3/4
f 444/2/4 448/2/4 452/2/4
f 452/2/4 448/2/4 453/2/4
f 446/2/4 447/2/4 454/2/4
f 454/2/4 447/2/4 455/2/4
f 450/1/4 451/1/4 456/1/4
f 456/1/4 451/1/4 457/1/4
f 458/1/4 459/1/4 460/1/4
f 460/1/4 459/1/4 461/1/4
f 462/1/4 463/1/4 464/1/4
f 464/1/4 463/1/4 465/1/4
f 466/1/4 467/1/4 468/1/4
f 468/1/4 467/1/4 469/1/4
f 470/1/4 471/1/4 472/1/4
f 472/1/4 471/1/4 473/1/4
f 476/1/5 475/1/5 474/1/5
f 477/1/5 475/1/5 476/1/5
f 480/1/5 479/1/5 478/1/5
f 481/1/5 479/1/5 480/1/5
f 486/1/5 483/1/5 482/1/5
f 487/1/5 483/1/5 486/1/5
f 488/1/5 485/1/5 484/1/5
f 489/1/5 485/1/5 488/1/5
f 492/1/5 491/1/5 490/1/5
f 493/1/5 491/1/5 492/1/5
f 496/1/5 495/1/5 494/1/5
f 497/1/5 495/1/5 496/1/5
f 502/1/5 499/1/5 498/1/5
f 503/1/5 499/1/5 502/1/5
f 506/1/5 501/1/5 500/1/5
f 507/1/5 501/1/5 506/1/5
f 508/1/5 505/1/5 504/1/5
f 509/1/5 505/1/5 508/1/5
f 512/1/5 511/1/5 510/1/5
f 513/1/5 511/1/5 512/1/5
f 516/1/5 515/1/5 514/1/5
f 517/1/5 515/1/5 516/1/5
f 518/1/5 515/1/5 517/1/5
f 519/1/5 518/1/5 517/1/5
f 522/1/5 519/1/5 517/1/5
f 523/1/5 521/1/5 520/1/5
f 524/1/5 523/1/5 522/1/5
f 525/1/5 521/1/5 523/1/5
f 525/1/5 523/1/5 524/1/5
f 526/1/5 522/1/5 517/1/5
f 526/1/5 524/1/5 522/1/5
f 527/1/5 524/1/5 526/1/5
f 528/1/5 521/1/5 525/1/5
f 529/1/5 521/1/5 528/1/5
f 532/1/5 531/1/5 530/1/5
f 533/1/5 526/1/5 517/1/5
f 534/1/5 532/1/5 530/1/5
f 534/1/5 533/1/5 532/1/5
f 535/1/5 526/1/5 533/1/5
f 535/1/5 533/1/5 534/1/5
f 536/1/5 526/1/5 535/1/5
f 537/1/5 526/1/5 536/1/5
f 540/1/5 539/1/5 538/1/5
f 541/1/5 539/1/5 540/1/5
f 543/1/5 539/1/5 541/1/5
f 544/1/5 539/1/5 543/1/5
f 548/1/5 543/1/5 542/1/5
f 548/1/5 544/1/5 543/1/5
f 548/1/5 545/1/5 544/1/5
f 549/1/5 545/1/5 548/1/5
f 550/1/5 547/1/5 546/1/5
f 551/1/5 547/1/5 550/1/5
f 552/1/5 547/1/5 551/1/5
f 553/1/5 547/1/5 552/1/5
f 556/1/5 555/1/5 554/1/5
f 558/1/5 556/1/5 554/1/5
f 558/1/5 557/1/5 556/1/5
f 559/1/5 557/1/5 558/1/5
f 560/1/5 558/1/5 554/1/5
f 561/1/5 558/1/5 560/1/5
f 565/3/5 563/3/5 562/3/5
f 566/3/5 563/3/5 565/3/5
f 567/2/5 564/2/5 563/2/5
f 567/3/5 563/3/5 566/3/5
f 568/2/5 564/2/5 567/2/5
f 569/2/5 566/2/5 565/2/5
f 570/2/5 564/2/5 568/2/5
f 571/2/5 569/2/5 565/2/5
f 571/2/5 570/2/5 569/2/5
f 572/2/5 564/2/5 570/2/5
f 572/2/5 570/2/5 571/2/5
f 576/2/5 574/2/5 573/2/5
f 577/2/5 576/2/5 575/2/5
f 578/2/5 574/2/5 576/2/5
f 578/2/5 576/2/5 577/2/5
f 581/2/5 580/2/5 579/2/5
f 582/2/5 580/2/5 581/2/5
f 583/2/5 581/2/5 579/2/5
f 584/2/5 581/2/5 583/2/5
f 587/3/5 586/3/5 585/3/5
f 589/3/5 587/3/5 585/3/5
f 589/3/5 588/3/5 587/3/5
f 590/3/5 588/3/5 589/3/5
f 593/2/5 592/2/5 591/2/5
f 594/2/5 592/2/5 593/2/5
f 595/2/5 592/2/5 594/2/5
f 596/2/5 592/2/5 595/2/5
f 599/2/5 598/2/5 597/2/5
f 600/2/5 598/2/5 599/2/5
f 601/2/5 599/2/5 597/2/5
f 602/2/5 599/2/5 601/2/5
f 603/2/5 601/2/5 597/2/5
f 604/2/5 601/2/5 603/2/5
f 608/2/5 606/2/5 605/2/5
f 609/2/5 608/2/5 607/2/5
f 610/2/5 606/2/5 608/2/5
f 610/2/5 608/2/5 609/2/5
f 611/1/6 612/1/6 613/1/6
f 613/1/6 612/1/6 614/1/6
f 614/1/6 612/1/6 615/1/6
f 614/1/6 615/1/6 616/1/6
f 614/1/6 616/1/6 619/1/6
f 619/1/6 616/1/6 620/1/6
f 617/1/6 618/1/6 622/1/6
f 621/1/6 622/1/6 623/1/6
f 623/1/6 622/1/6 624/1/6
f 622/1/6 618/1/6 625/1/6
f 624/1/6 622/1/6 625/1/6
f 625/1/6 618/1/6 630/1/6
f 630/1/6 618/1/6 631/1/6
f 628/1/6 629/1/6 632/1/6
f 626/1/6 627/1/6 633/1/6
f 628/1/6 632/1/6 634/1/6
f 632/1/6 633/1/6 634/1/6
f 633/1/6 627/1/6 635/1/6
f 634/1/6 633/1/6 635/1/6
f 635/1/6 627/1/6 636/1/6
f 636/1/6 627/1/6 637/1/6
f 638/1/6 639/1/6 640/1/6
f 640/1/6 639/1/6 641/1/6
f 641/1/6 639/1/6 643/1/6
f 643/1/6 639/1/6 644/1/6
f 642/1/6 643/1/6 648/1/6
f 643/1/6 644/1/6 648/1/6
f 644/1/6 645/1/6 648/1/6
f 648/1/6 645/1/6 649/1/6
f 646/1/6 647/1/6 650/1/6
f 650/1/6 647/1/6 651/1/6
f 651/1/6 647/1/6 652/1/6
f 652/1/6 647/1/6 653/1/6
f 654/1/6 655/1/6 656/1/6
f 654/1/6 656/1/6 658/1/6
f 656/1/6 657/1/6 658/1/6
f 658/1/6 657/1/6 659/1/6
f 654/1/6 658/1/6 660/1/6
f 660/1/6 658/1/6 661/1/6
f 662/2/6 663/2/6 665/2/6
f 664/2/6 665/2/6 666/2/6
f 665/2/6 663/2/6 667/2/6
f 666/2/6 665/2/6 667/2/6
f 668/2/6 669/2/6 670/2/6
f 670/2/6 669/2/6 671/2/6
f 668/2/6 670/2/6 672/2/6
f 672/2/6 670/2/6 673/2/6
f 674/2/6 675/2/6 676/2/6
f 676/2/6 675/2/6 677/2/6
f 677/2/6 675/2/6 678/2/6
f 678/2/6 675/2/6 679/2/6
f 680/3/6 681/3/6 682/3/6
f 682/3/6 681/3/6 683/3/6
f 684/2/6 685/2/6 686/2/6
f 686/2/6 685/2/6 687/2/6
f 684/2/6 686/2/6 688/2/6
f 688/2/6 686/2/6 689/2/6
f 684/2/6 688/2/6 690/2/6
f 684/2/6 690/2/6 692/2/6
f 690/2/6 691/2/6 692/2/6
f 692/2/6 691/2/6 693/2/6
f 694/2/6 695/2/6 696/2/6
f 696/2/6 695/2/6 697/2/6
f 697/2/6 695/2/6 698/2/6
f 698/2/6 695/2/6 699/2/6
f 697/2/6 698/2/6 701/2/6
f 700/2/6 701/2/6 702/2/6
f 701/2/6 698/2/6 703/2/6
f 702/2/6 701/2/6 703/2/6
f 704/3/6 705/3/6 708/3/6
f 708/3/6 705/3/6 709/3/6
f 706/2/6 707/2/6 710/2/6
f 710/2/6 707/2/6 711/2/6
