# MagicaVoxel @ Ephtracy

# group
o 

# material
mtllib PlanteCarnivore2.mtl
usemtl palette

# normals
vn -1 0 0
vn 1 0 0
vn 0 0 1
vn 0 0 -1
vn 0 -1 0
vn 0 1 0

# texcoords
vt 0.978516 0.5
vt 0.982422 0.5
vt 0.986328 0.5
vt 0.990234 0.5

# verts
v -0.7 0.1 -0.6
v -0.7 0.1 -0.7
v -0.7 0.2 -0.6
v -0.7 0.2 -0.7
v -0.7 0.3 -0.6
v -0.7 0.3 -0.7
v -0.7 0.4 -0.6
v -0.7 0.4 -0.7
v -0.6 0.1 0.7
v -0.6 0.1 0.2
v -0.6 0.1 -0.5
v -0.6 0.1 -0.6
v -0.6 0.1 -0.7
v -0.6 0.1 -0.8
v -0.6 0.2 0.7
v -0.6 0.2 0.6
v -0.6 0.2 0.5
v -0.6 0.2 0.4
v -0.6 0.2 0.3
v -0.6 0.2 0.2
v -0.6 0.2 -0.6
v -0.6 0.2 -0.7
v -0.6 0.3 0.7
v -0.6 0.3 0.6
v -0.6 0.3 0.5
v -0.6 0.3 0.4
v -0.6 0.3 0.3
v -0.6 0.3 0.2
v -0.6 0.3 -0.5
v -0.6 0.3 -0.6
v -0.6 0.3 -0.7
v -0.6 0.3 -0.8
v -0.5 0 -0.6
v -0.5 0 -0.7
v -0.5 0.1 0.8
v -0.5 0.1 0.7
v -0.5 0.1 0.2
v -0.5 0.1 0.1
v -0.5 0.1 -0.6
v -0.5 0.1 -0.7
v -0.5 0.2 0.8
v -0.5 0.2 0.7
v -0.5 0.2 0.2
v -0.5 0.2 0.1
v -0.4 0 0.6
v -0.4 0 0.3
v -0.4 0.1 0.6
v -0.4 0.1 0.3
v -0.4 0.2 0.8
v -0.4 0.2 0.7
v -0.4 0.2 0.2
v -0.4 0.2 0.1
v -0.4 0.3 0.8
v -0.4 0.3 0.7
v -0.4 0.3 0.2
v -0.4 0.3 0.1
v -0.2 0.2 0.8
v -0.2 0.2 0.7
v -0.2 0.2 0.2
v -0.2 0.2 0.1
v -0.2 0.3 0.8
v -0.2 0.3 0.7
v -0.2 0.3 0.2
v -0.2 0.3 0.1
v 0 0.2 0.7
v 0 0.2 0.6
v 0 0.2 0.5
v 0 0.2 0.4
v 0 0.2 0.3
v 0 0.2 0.2
v 0 0.3 0.7
v 0 0.3 0.6
v 0 0.3 0.5
v 0 0.3 0.4
v 0 0.3 0.3
v 0 0.3 0.2
v 0.2 0.1 -0.3
v 0.2 0.1 -0.6
v 0.2 0.2 -0.3
v 0.2 0.2 -0.4
v 0.2 0.2 -0.5
v 0.2 0.2 -0.6
v 0.2 0.3 -0.3
v 0.2 0.3 -0.4
v 0.2 0.3 -0.5
v 0.2 0.3 -0.6
v 0.3 0.1 -0.2
v 0.3 0.1 -0.3
v 0.3 0.1 -0.6
v 0.3 0.1 -0.7
v 0.3 0.2 -0.2
v 0.3 0.2 -0.3
v 0.3 0.2 -0.6
v 0.3 0.2 -0.7
v 0.3 0.3 -0.2
v 0.3 0.3 -0.3
v 0.3 0.3 -0.6
v 0.3 0.3 -0.7
v 0.4 0 -0.4
v 0.4 0 -0.5
v 0.4 0.1 -0.4
v 0.4 0.1 -0.5
v 0.5 0.2 -0.2
v 0.5 0.2 -0.3
v 0.5 0.2 -0.6
v 0.5 0.2 -0.7
v 0.5 0.3 -0.2
v 0.5 0.3 -0.3
v 0.5 0.3 -0.6
v 0.5 0.3 -0.7
v 0.6 0.2 -0.3
v 0.6 0.2 -0.4
v 0.6 0.2 -0.5
v 0.6 0.2 -0.6
v 0.6 0.3 -0.3
v 0.6 0.3 -0.4
v 0.6 0.3 -0.5
v 0.6 0.3 -0.6
v -0.5 0.2 0.7
v -0.5 0.2 0.6
v -0.5 0.2 0.5
v -0.5 0.2 0.4
v -0.5 0.2 0.3
v -0.5 0.2 0.2
v -0.5 0.3 0.7
v -0.5 0.3 0.6
v -0.5 0.3 0.5
v -0.5 0.3 0.4
v -0.5 0.3 0.3
v -0.5 0.3 0.2
v -0.4 0 -0.6
v -0.4 0 -0.7
v -0.4 0.1 -0.6
v -0.4 0.1 -0.7
v -0.3 0.1 -0.5
v -0.3 0.1 -0.6
v -0.3 0.1 -0.7
v -0.3 0.1 -0.8
v -0.3 0.2 0.8
v -0.3 0.2 0.7
v -0.3 0.2 0.2
v -0.3 0.2 0.1
v -0.3 0.2 -0.6
v -0.3 0.2 -0.7
v -0.3 0.3 0.8
v -0.3 0.3 0.7
v -0.3 0.3 0.2
v -0.3 0.3 0.1
v -0.3 0.3 -0.5
v -0.3 0.3 -0.6
v -0.3 0.3 -0.7
v -0.3 0.3 -0.8
v -0.2 0.1 -0.6
v -0.2 0.1 -0.7
v -0.2 0.2 -0.6
v -0.2 0.2 -0.7
v -0.2 0.3 -0.6
v -0.2 0.3 -0.7
v -0.2 0.4 -0.6
v -0.2 0.4 -0.7
v -0.1 0 0.6
v -0.1 0 0.3
v -0.1 0.1 0.6
v -0.1 0.1 0.3
v -0.1 0.2 0.8
v -0.1 0.2 0.7
v -0.1 0.2 0.2
v -0.1 0.2 0.1
v -0.1 0.3 0.8
v -0.1 0.3 0.7
v -0.1 0.3 0.2
v -0.1 0.3 0.1
v 0 0.1 0.8
v 0 0.1 0.7
v 0 0.1 0.2
v 0 0.1 0.1
v 0 0.2 0.8
v 0 0.2 0.7
v 0 0.2 0.2
v 0 0.2 0.1
v 0.1 0.1 0.7
v 0.1 0.1 0.2
v 0.1 0.2 0.7
v 0.1 0.2 0.6
v 0.1 0.2 0.5
v 0.1 0.2 0.4
v 0.1 0.2 0.3
v 0.1 0.2 0.2
v 0.1 0.3 0.7
v 0.1 0.3 0.6
v 0.1 0.3 0.5
v 0.1 0.3 0.4
v 0.1 0.3 0.3
v 0.1 0.3 0.2
v 0.3 0.2 -0.3
v 0.3 0.2 -0.4
v 0.3 0.2 -0.5
v 0.3 0.2 -0.6
v 0.3 0.3 -0.3
v 0.3 0.3 -0.4
v 0.3 0.3 -0.5
v 0.3 0.3 -0.6
v 0.4 0.2 -0.2
v 0.4 0.2 -0.3
v 0.4 0.2 -0.6
v 0.4 0.2 -0.7
v 0.4 0.3 -0.2
v 0.4 0.3 -0.3
v 0.4 0.3 -0.6
v 0.4 0.3 -0.7
v 0.5 0 -0.4
v 0.5 0 -0.5
v 0.5 0.1 -0.4
v 0.5 0.1 -0.5
v 0.6 0.1 -0.2
v 0.6 0.1 -0.3
v 0.6 0.1 -0.6
v 0.6 0.1 -0.7
v 0.6 0.2 -0.2
v 0.6 0.2 -0.3
v 0.6 0.2 -0.6
v 0.6 0.2 -0.7
v 0.6 0.3 -0.2
v 0.6 0.3 -0.3
v 0.6 0.3 -0.6
v 0.6 0.3 -0.7
v 0.7 0.1 -0.3
v 0.7 0.1 -0.6
v 0.7 0.2 -0.3
v 0.7 0.2 -0.4
v 0.7 0.2 -0.5
v 0.7 0.2 -0.6
v 0.7 0.3 -0.3
v 0.7 0.3 -0.4
v 0.7 0.3 -0.5
v 0.7 0.3 -0.6
v -0.5 0.1 0.8
v -0.5 0.2 0.8
v -0.4 0.2 0.8
v -0.4 0.3 0.8
v -0.3 0.2 0.8
v -0.3 0.3 0.8
v -0.2 0.2 0.8
v -0.2 0.3 0.8
v -0.1 0.2 0.8
v -0.1 0.3 0.8
v 0 0.1 0.8
v 0 0.2 0.8
v -0.6 0.1 0.7
v -0.6 0.2 0.7
v -0.6 0.3 0.7
v -0.5 0.1 0.7
v -0.5 0.2 0.7
v -0.5 0.3 0.7
v 0 0.1 0.7
v 0 0.2 0.7
v 0 0.3 0.7
v 0.1 0.1 0.7
v 0.1 0.2 0.7
v 0.1 0.3 0.7
v -0.4 0 0.6
v -0.4 0.1 0.6
v -0.3 0.1 0.6
v -0.2 0.1 0.6
v -0.1 0 0.6
v -0.1 0.1 0.6
v -0.6 0.2 0.5
v -0.6 0.3 0.5
v -0.5 0.2 0.5
v -0.5 0.3 0.5
v 0 0.2 0.5
v 0 0.3 0.5
v 0.1 0.2 0.5
v 0.1 0.3 0.5
v -0.6 0.2 0.3
v -0.6 0.3 0.3
v -0.5 0.2 0.3
v -0.5 0.3 0.3
v 0 0.2 0.3
v 0 0.3 0.3
v 0.1 0.2 0.3
v 0.1 0.3 0.3
v -0.4 0.2 0.2
v -0.4 0.3 0.2
v -0.3 0.2 0.2
v -0.3 0.3 0.2
v -0.2 0.2 0.2
v -0.2 0.3 0.2
v -0.1 0.2 0.2
v -0.1 0.3 0.2
v 0.3 0.1 -0.2
v 0.3 0.2 -0.2
v 0.3 0.3 -0.2
v 0.4 0.2 -0.2
v 0.4 0.3 -0.2
v 0.5 0.2 -0.2
v 0.5 0.3 -0.2
v 0.6 0.1 -0.2
v 0.6 0.2 -0.2
v 0.6 0.3 -0.2
v 0.2 0.1 -0.3
v 0.2 0.2 -0.3
v 0.2 0.3 -0.3
v 0.3 0.1 -0.3
v 0.3 0.2 -0.3
v 0.3 0.3 -0.3
v 0.6 0.1 -0.3
v 0.6 0.2 -0.3
v 0.6 0.3 -0.3
v 0.7 0.1 -0.3
v 0.7 0.2 -0.3
v 0.7 0.3 -0.3
v 0.4 0 -0.4
v 0.4 0.1 -0.4
v 0.5 0 -0.4
v 0.5 0.1 -0.4
v -0.6 0.1 -0.5
v -0.6 0.3 -0.5
v -0.3 0.1 -0.5
v -0.3 0.3 -0.5
v 0.2 0.2 -0.5
v 0.2 0.3 -0.5
v 0.3 0.2 -0.5
v 0.3 0.3 -0.5
v 0.6 0.2 -0.5
v 0.6 0.3 -0.5
v 0.7 0.2 -0.5
v 0.7 0.3 -0.5
v -0.7 0.1 -0.6
v -0.7 0.2 -0.6
v -0.7 0.3 -0.6
v -0.7 0.4 -0.6
v -0.6 0.1 -0.6
v -0.6 0.2 -0.6
v -0.6 0.3 -0.6
v -0.6 0.4 -0.6
v -0.5 0 -0.6
v -0.5 0.1 -0.6
v -0.5 0.3 -0.6
v -0.5 0.4 -0.6
v -0.4 0 -0.6
v -0.4 0.1 -0.6
v -0.4 0.3 -0.6
v -0.4 0.4 -0.6
v -0.3 0.1 -0.6
v -0.3 0.2 -0.6
v -0.3 0.3 -0.6
v -0.3 0.4 -0.6
v -0.2 0.1 -0.6
v -0.2 0.2 -0.6
v -0.2 0.3 -0.6
v -0.2 0.4 -0.6
v 0.3 0.2 -0.6
v 0.3 0.3 -0.6
v 0.4 0.2 -0.6
v 0.4 0.3 -0.6
v 0.5 0.2 -0.6
v 0.5 0.3 -0.6
v 0.6 0.2 -0.6
v 0.6 0.3 -0.6
v -0.4 0.2 0.7
v -0.4 0.3 0.7
v -0.3 0.2 0.7
v -0.3 0.3 0.7
v -0.2 0.2 0.7
v -0.2 0.3 0.7
v -0.1 0.2 0.7
v -0.1 0.3 0.7
v -0.6 0.2 0.6
v -0.6 0.3 0.6
v -0.5 0.2 0.6
v -0.5 0.3 0.6
v 0 0.2 0.6
v 0 0.3 0.6
v 0.1 0.2 0.6
v 0.1 0.3 0.6
v -0.6 0.2 0.4
v -0.6 0.3 0.4
v -0.5 0.2 0.4
v -0.5 0.3 0.4
v 0 0.2 0.4
v 0 0.3 0.4
v 0.1 0.2 0.4
v 0.1 0.3 0.4
v -0.4 0 0.3
v -0.4 0.1 0.3
v -0.3 0.1 0.3
v -0.2 0.1 0.3
v -0.1 0 0.3
v -0.1 0.1 0.3
v -0.6 0.1 0.2
v -0.6 0.2 0.2
v -0.6 0.3 0.2
v -0.5 0.1 0.2
v -0.5 0.2 0.2
v -0.5 0.3 0.2
v 0 0.1 0.2
v 0 0.2 0.2
v 0 0.3 0.2
v 0.1 0.1 0.2
v 0.1 0.2 0.2
v 0.1 0.3 0.2
v -0.5 0.1 0.1
v -0.5 0.2 0.1
v -0.4 0.2 0.1
v -0.4 0.3 0.1
v -0.3 0.2 0.1
v -0.3 0.3 0.1
v -0.2 0.2 0.1
v -0.2 0.3 0.1
v -0.1 0.2 0.1
v -0.1 0.3 0.1
v 0 0.1 0.1
v 0 0.2 0.1
v 0.3 0.2 -0.3
v 0.3 0.3 -0.3
v 0.4 0.2 -0.3
v 0.4 0.3 -0.3
v 0.5 0.2 -0.3
v 0.5 0.3 -0.3
v 0.6 0.2 -0.3
v 0.6 0.3 -0.3
v 0.2 0.2 -0.4
v 0.2 0.3 -0.4
v 0.3 0.2 -0.4
v 0.3 0.3 -0.4
v 0.6 0.2 -0.4
v 0.6 0.3 -0.4
v 0.7 0.2 -0.4
v 0.7 0.3 -0.4
v 0.4 0 -0.5
v 0.4 0.1 -0.5
v 0.5 0 -0.5
v 0.5 0.1 -0.5
v 0.2 0.1 -0.6
v 0.2 0.2 -0.6
v 0.2 0.3 -0.6
v 0.3 0.1 -0.6
v 0.3 0.2 -0.6
v 0.3 0.3 -0.6
v 0.6 0.1 -0.6
v 0.6 0.2 -0.6
v 0.6 0.3 -0.6
v 0.7 0.1 -0.6
v 0.7 0.2 -0.6
v 0.7 0.3 -0.6
v -0.7 0.1 -0.7
v -0.7 0.2 -0.7
v -0.7 0.3 -0.7
v -0.7 0.4 -0.7
v -0.6 0.1 -0.7
v -0.6 0.2 -0.7
v -0.6 0.3 -0.7
v -0.6 0.4 -0.7
v -0.5 0 -0.7
v -0.5 0.1 -0.7
v -0.5 0.3 -0.7
v -0.5 0.4 -0.7
v -0.4 0 -0.7
v -0.4 0.1 -0.7
v -0.4 0.3 -0.7
v -0.4 0.4 -0.7
v -0.3 0.1 -0.7
v -0.3 0.2 -0.7
v -0.3 0.3 -0.7
v -0.3 0.4 -0.7
v -0.2 0.1 -0.7
v -0.2 0.2 -0.7
v -0.2 0.3 -0.7
v -0.2 0.4 -0.7
v 0.3 0.1 -0.7
v 0.3 0.2 -0.7
v 0.3 0.3 -0.7
v 0.4 0.2 -0.7
v 0.4 0.3 -0.7
v 0.5 0.2 -0.7
v 0.5 0.3 -0.7
v 0.6 0.1 -0.7
v 0.6 0.2 -0.7
v 0.6 0.3 -0.7
v -0.6 0.1 -0.8
v -0.6 0.3 -0.8
v -0.3 0.1 -0.8
v -0.3 0.3 -0.8
v -0.4 0 0.6
v -0.1 0 0.6
v -0.4 0 0.3
v -0.1 0 0.3
v 0.4 0 -0.4
v 0.5 0 -0.4
v 0.4 0 -0.5
v 0.5 0 -0.5
v -0.5 0 -0.6
v -0.4 0 -0.6
v -0.5 0 -0.7
v -0.4 0 -0.7
v -0.5 0.1 0.8
v 0 0.1 0.8
v -0.6 0.1 0.7
v -0.5 0.1 0.7
v -0.3 0.1 0.7
v -0.2 0.1 0.7
v 0 0.1 0.7
v 0.1 0.1 0.7
v -0.4 0.1 0.6
v -0.3 0.1 0.6
v -0.2 0.1 0.6
v -0.1 0.1 0.6
v -0.4 0.1 0.3
v -0.3 0.1 0.3
v -0.2 0.1 0.3
v -0.1 0.1 0.3
v -0.6 0.1 0.2
v -0.5 0.1 0.2
v -0.3 0.1 0.2
v -0.2 0.1 0.2
v 0 0.1 0.2
v 0.1 0.1 0.2
v -0.5 0.1 0.1
v 0 0.1 0.1
v 0.3 0.1 -0.2
v 0.6 0.1 -0.2
v 0.2 0.1 -0.3
v 0.3 0.1 -0.3
v 0.6 0.1 -0.3
v 0.7 0.1 -0.3
v 0.3 0.1 -0.4
v 0.4 0.1 -0.4
v 0.5 0.1 -0.4
v 0.6 0.1 -0.4
v -0.6 0.1 -0.5
v -0.3 0.1 -0.5
v 0.3 0.1 -0.5
v 0.4 0.1 -0.5
v 0.5 0.1 -0.5
v 0.6 0.1 -0.5
v -0.7 0.1 -0.6
v -0.6 0.1 -0.6
v -0.5 0.1 -0.6
v -0.4 0.1 -0.6
v -0.3 0.1 -0.6
v -0.2 0.1 -0.6
v 0.2 0.1 -0.6
v 0.3 0.1 -0.6
v 0.6 0.1 -0.6
v 0.7 0.1 -0.6
v -0.7 0.1 -0.7
v -0.6 0.1 -0.7
v -0.5 0.1 -0.7
v -0.4 0.1 -0.7
v -0.3 0.1 -0.7
v -0.2 0.1 -0.7
v 0.3 0.1 -0.7
v 0.6 0.1 -0.7
v -0.6 0.1 -0.8
v -0.3 0.1 -0.8
v -0.5 0.2 0.8
v -0.4 0.2 0.8
v -0.3 0.2 0.8
v -0.2 0.2 0.8
v -0.1 0.2 0.8
v 0 0.2 0.8
v -0.5 0.2 0.7
v -0.4 0.2 0.7
v -0.3 0.2 0.7
v -0.2 0.2 0.7
v -0.1 0.2 0.7
v 0 0.2 0.7
v -0.6 0.2 0.6
v -0.5 0.2 0.6
v -0.4 0.2 0.6
v -0.3 0.2 0.6
v -0.2 0.2 0.6
v -0.1 0.2 0.6
v 0 0.2 0.6
v 0.1 0.2 0.6
v -0.6 0.2 0.5
v -0.5 0.2 0.5
v 0 0.2 0.5
v 0.1 0.2 0.5
v -0.6 0.2 0.4
v -0.5 0.2 0.4
v 0 0.2 0.4
v 0.1 0.2 0.4
v -0.6 0.2 0.3
v -0.5 0.2 0.3
v -0.4 0.2 0.3
v -0.3 0.2 0.3
v -0.2 0.2 0.3
v -0.1 0.2 0.3
v 0 0.2 0.3
v 0.1 0.2 0.3
v -0.5 0.2 0.2
v -0.4 0.2 0.2
v -0.3 0.2 0.2
v -0.2 0.2 0.2
v -0.1 0.2 0.2
v 0 0.2 0.2
v -0.5 0.2 0.1
v -0.4 0.2 0.1
v -0.3 0.2 0.1
v -0.2 0.2 0.1
v -0.1 0.2 0.1
v 0 0.2 0.1
v 0.4 0.2 -0.2
v 0.5 0.2 -0.2
v 0.3 0.2 -0.3
v 0.4 0.2 -0.3
v 0.5 0.2 -0.3
v 0.6 0.2 -0.3
v 0.2 0.2 -0.4
v 0.3 0.2 -0.4
v 0.6 0.2 -0.4
v 0.7 0.2 -0.4
v 0.2 0.2 -0.5
v 0.3 0.2 -0.5
v 0.6 0.2 -0.5
v 0.7 0.2 -0.5
v 0.3 0.2 -0.6
v 0.4 0.2 -0.6
v 0.5 0.2 -0.6
v 0.6 0.2 -0.6
v 0.4 0.2 -0.7
v 0.5 0.2 -0.7
v -0.4 0.3 0.8
v -0.3 0.3 0.8
v -0.2 0.3 0.8
v -0.1 0.3 0.8
v -0.6 0.3 0.7
v -0.5 0.3 0.7
v -0.4 0.3 0.7
v -0.3 0.3 0.7
v -0.2 0.3 0.7
v -0.1 0.3 0.7
v 0 0.3 0.7
v 0.1 0.3 0.7
v -0.6 0.3 0.6
v -0.5 0.3 0.6
v 0 0.3 0.6
v 0.1 0.3 0.6
v -0.6 0.3 0.5
v -0.5 0.3 0.5
v 0 0.3 0.5
v 0.1 0.3 0.5
v -0.6 0.3 0.4
v -0.5 0.3 0.4
v 0 0.3 0.4
v 0.1 0.3 0.4
v -0.6 0.3 0.3
v -0.5 0.3 0.3
v 0 0.3 0.3
v 0.1 0.3 0.3
v -0.6 0.3 0.2
v -0.5 0.3 0.2
v -0.4 0.3 0.2
v -0.3 0.3 0.2
v -0.2 0.3 0.2
v -0.1 0.3 0.2
v 0 0.3 0.2
v 0.1 0.3 0.2
v -0.4 0.3 0.1
v -0.3 0.3 0.1
v -0.2 0.3 0.1
v -0.1 0.3 0.1
v 0.3 0.3 -0.2
v 0.4 0.3 -0.2
v 0.5 0.3 -0.2
v 0.6 0.3 -0.2
v 0.2 0.3 -0.3
v 0.3 0.3 -0.3
v 0.4 0.3 -0.3
v 0.5 0.3 -0.3
v 0.6 0.3 -0.3
v 0.7 0.3 -0.3
v 0.2 0.3 -0.4
v 0.3 0.3 -0.4
v 0.6 0.3 -0.4
v 0.7 0.3 -0.4
v -0.6 0.3 -0.5
v -0.3 0.3 -0.5
v 0.2 0.3 -0.5
v 0.3 0.3 -0.5
v 0.6 0.3 -0.5
v 0.7 0.3 -0.5
v -0.6 0.3 -0.6
v -0.5 0.3 -0.6
v -0.4 0.3 -0.6
v -0.3 0.3 -0.6
v 0.2 0.3 -0.6
v 0.3 0.3 -0.6
v 0.4 0.3 -0.6
v 0.5 0.3 -0.6
v 0.6 0.3 -0.6
v 0.7 0.3 -0.6
v -0.6 0.3 -0.7
v -0.5 0.3 -0.7
v -0.4 0.3 -0.7
v -0.3 0.3 -0.7
v 0.3 0.3 -0.7
v 0.4 0.3 -0.7
v 0.5 0.3 -0.7
v 0.6 0.3 -0.7
v -0.6 0.3 -0.8
v -0.3 0.3 -0.8
v -0.7 0.4 -0.6
v -0.6 0.4 -0.6
v -0.5 0.4 -0.6
v -0.4 0.4 -0.6
v -0.3 0.4 -0.6
v -0.2 0.4 -0.6
v -0.7 0.4 -0.7
v -0.6 0.4 -0.7
v -0.5 0.4 -0.7
v -0.4 0.4 -0.7
v -0.3 0.4 -0.7
v -0.2 0.4 -0.7

# faces
f 3/4/1 2/4/1 1/4/1
f 4/4/1 2/4/1 3/4/1
f 5/1/1 4/1/1 3/1/1
f 6/1/1 4/1/1 5/1/1
f 7/4/1 6/4/1 5/4/1
f 8/4/1 6/4/1 7/4/1
f 15/4/1 10/4/1 9/4/1
f 16/4/1 10/4/1 15/4/1
f 17/4/1 10/4/1 16/4/1
f 18/4/1 10/4/1 17/4/1
f 19/4/1 10/4/1 18/4/1
f 20/4/1 10/4/1 19/4/1
f 21/4/1 12/4/1 11/4/1
f 22/4/1 14/4/1 13/4/1
f 23/1/1 16/1/1 15/1/1
f 24/1/1 16/1/1 23/1/1
f 25/1/1 18/1/1 17/1/1
f 26/1/1 18/1/1 25/1/1
f 27/1/1 20/1/1 19/1/1
f 28/1/1 20/1/1 27/1/1
f 29/4/1 21/4/1 11/4/1
f 30/4/1 21/4/1 29/4/1
f 31/4/1 14/4/1 22/4/1
f 32/4/1 14/4/1 31/4/1
f 39/4/1 34/4/1 33/4/1
f 40/4/1 34/4/1 39/4/1
f 41/4/1 36/4/1 35/4/1
f 42/4/1 36/4/1 41/4/1
f 43/4/1 38/4/1 37/4/1
f 44/4/1 38/4/1 43/4/1
f 47/4/1 46/4/1 45/4/1
f 48/4/1 46/4/1 47/4/1
f 53/1/1 50/1/1 49/1/1
f 54/1/1 50/1/1 53/1/1
f 55/1/1 52/1/1 51/1/1
f 56/1/1 52/1/1 55/1/1
f 61/1/1 58/1/1 57/1/1
f 62/1/1 58/1/1 61/1/1
f 63/1/1 60/1/1 59/1/1
f 64/1/1 60/1/1 63/1/1
f 71/1/1 66/1/1 65/1/1
f 72/1/1 66/1/1 71/1/1
f 73/1/1 68/1/1 67/1/1
f 74/1/1 68/1/1 73/1/1
f 75/1/1 70/1/1 69/1/1
f 76/1/1 70/1/1 75/1/1
f 79/4/1 78/4/1 77/4/1
f 80/4/1 78/4/1 79/4/1
f 81/4/1 78/4/1 80/4/1
f 82/4/1 78/4/1 81/4/1
f 83/1/1 80/1/1 79/1/1
f 84/1/1 80/1/1 83/1/1
f 85/1/1 82/1/1 81/1/1
f 86/1/1 82/1/1 85/1/1
f 91/4/1 88/4/1 87/4/1
f 92/4/1 88/4/1 91/4/1
f 93/4/1 90/4/1 89/4/1
f 94/4/1 90/4/1 93/4/1
f 95/1/1 92/1/1 91/1/1
f 96/1/1 92/1/1 95/1/1
f 97/1/1 94/1/1 93/1/1
f 98/1/1 94/1/1 97/1/1
f 101/3/1 100/3/1 99/3/1
f 102/3/1 100/3/1 101/3/1
f 107/1/1 104/1/1 103/1/1
f 108/1/1 104/1/1 107/1/1
f 109/1/1 106/1/1 105/1/1
f 110/1/1 106/1/1 109/1/1
f 115/1/1 112/1/1 111/1/1
f 116/1/1 112/1/1 115/1/1
f 117/1/1 114/1/1 113/1/1
f 118/1/1 114/1/1 117/1/1
f 119/1/2 120/1/2 125/1/2
f 125/1/2 120/1/2 126/1/2
f 121/1/2 122/1/2 127/1/2
f 127/1/2 122/1/2 128/1/2
f 123/1/2 124/1/2 129/1/2
f 129/1/2 124/1/2 130/1/2
f 131/4/2 132/4/2 133/4/2
f 133/4/2 132/4/2 134/4/2
f 135/4/2 136/4/2 143/4/2
f 137/4/2 138/4/2 144/4/2
f 139/1/2 140/1/2 145/1/2
f 145/1/2 140/1/2 146/1/2
f 141/1/2 142/1/2 147/1/2
f 147/1/2 142/1/2 148/1/2
f 135/4/2 143/4/2 149/4/2
f 149/4/2 143/4/2 150/4/2
f 144/4/2 138/4/2 151/4/2
f 151/4/2 138/4/2 152/4/2
f 153/4/2 154/4/2 155/4/2
f 155/4/2 154/4/2 156/4/2
f 155/1/2 156/1/2 157/1/2
f 157/1/2 156/1/2 158/1/2
f 157/4/2 158/4/2 159/4/2
f 159/4/2 158/4/2 160/4/2
f 161/4/2 162/4/2 163/4/2
f 163/4/2 162/4/2 164/4/2
f 165/1/2 166/1/2 169/1/2
f 169/1/2 166/1/2 170/1/2
f 167/1/2 168/1/2 171/1/2
f 171/1/2 168/1/2 172/1/2
f 173/4/2 174/4/2 177/4/2
f 177/4/2 174/4/2 178/4/2
f 175/4/2 176/4/2 179/4/2
f 179/4/2 176/4/2 180/4/2
f 181/4/2 182/4/2 183/4/2
f 183/4/2 182/4/2 184/4/2
f 184/4/2 182/4/2 185/4/2
f 185/4/2 182/4/2 186/4/2
f 186/4/2 182/4/2 187/4/2
f 187/4/2 182/4/2 188/4/2
f 183/1/2 184/1/2 189/1/2
f 189/1/2 184/1/2 190/1/2
f 185/1/2 186/1/2 191/1/2
f 191/1/2 186/1/2 192/1/2
f 187/1/2 188/1/2 193/1/2
f 193/1/2 188/1/2 194/1/2
f 195/1/2 196/1/2 199/1/2
f 199/1/2 196/1/2 200/1/2
f 197/1/2 198/1/2 201/1/2
f 201/1/2 198/1/2 202/1/2
f 203/1/2 204/1/2 207/1/2
f 207/1/2 204/1/2 208/1/2
f 205/1/2 206/1/2 209/1/2
f 209/1/2 206/1/2 210/1/2
f 211/3/2 212/3/2 213/3/2
f 213/3/2 212/3/2 214/3/2
f 215/4/2 216/4/2 219/4/2
f 219/4/2 216/4/2 220/4/2
f 217/4/2 218/4/2 221/4/2
f 221/4/2 218/4/2 222/4/2
f 219/1/2 220/1/2 223/1/2
f 223/1/2 220/1/2 224/1/2
f 221/1/2 222/1/2 225/1/2
f 225/1/2 222/1/2 226/1/2
f 227/4/2 228/4/2 229/4/2
f 229/4/2 228/4/2 230/4/2
f 230/4/2 228/4/2 231/4/2
f 231/4/2 228/4/2 232/4/2
f 229/1/2 230/1/2 233/1/2
f 233/1/2 230/1/2 234/1/2
f 231/1/2 232/1/2 235/1/2
f 235/1/2 232/1/2 236/1/2
f 239/4/3 238/4/3 237/4/3
f 241/4/3 239/4/3 237/4/3
f 241/1/3 240/1/3 239/1/3
f 242/1/3 240/1/3 241/1/3
f 243/4/3 241/4/3 237/4/3
f 245/4/3 243/4/3 237/4/3
f 245/1/3 244/1/3 243/1/3
f 246/1/3 244/1/3 245/1/3
f 247/4/3 245/4/3 237/4/3
f 248/4/3 245/4/3 247/4/3
f 252/4/3 250/4/3 249/4/3
f 253/1/3 251/1/3 250/1/3
f 253/4/3 250/4/3 252/4/3
f 254/1/3 251/1/3 253/1/3
f 258/4/3 256/4/3 255/4/3
f 259/1/3 257/1/3 256/1/3
f 259/4/3 256/4/3 258/4/3
f 260/1/3 257/1/3 259/1/3
f 263/4/3 262/4/3 261/4/3
f 264/4/3 263/4/3 261/4/3
f 265/4/3 264/4/3 261/4/3
f 266/4/3 264/4/3 265/4/3
f 269/1/3 268/1/3 267/1/3
f 270/1/3 268/1/3 269/1/3
f 273/1/3 272/1/3 271/1/3
f 274/1/3 272/1/3 273/1/3
f 277/1/3 276/1/3 275/1/3
f 278/1/3 276/1/3 277/1/3
f 281/1/3 280/1/3 279/1/3
f 282/1/3 280/1/3 281/1/3
f 285/1/3 284/1/3 283/1/3
f 286/1/3 284/1/3 285/1/3
f 289/1/3 288/1/3 287/1/3
f 290/1/3 288/1/3 289/1/3
f 294/4/3 292/4/3 291/4/3
f 294/1/3 293/1/3 292/1/3
f 295/1/3 293/1/3 294/1/3
f 296/4/3 294/4/3 291/4/3
f 298/4/3 296/4/3 291/4/3
f 299/1/3 297/1/3 296/1/3
f 299/4/3 296/4/3 298/4/3
f 300/1/3 297/1/3 299/1/3
f 304/4/3 302/4/3 301/4/3
f 305/1/3 303/1/3 302/1/3
f 305/4/3 302/4/3 304/4/3
f 306/1/3 303/1/3 305/1/3
f 310/4/3 308/4/3 307/4/3
f 311/1/3 309/1/3 308/1/3
f 311/4/3 308/4/3 310/4/3
f 312/1/3 309/1/3 311/1/3
f 315/3/3 314/3/3 313/3/3
f 316/3/3 314/3/3 315/3/3
f 319/4/3 318/4/3 317/4/3
f 320/4/3 318/4/3 319/4/3
f 323/1/3 322/1/3 321/1/3
f 324/1/3 322/1/3 323/1/3
f 327/1/3 326/1/3 325/1/3
f 328/1/3 326/1/3 327/1/3
f 333/4/3 330/4/3 329/4/3
f 334/1/3 331/1/3 330/1/3
f 334/4/3 330/4/3 333/4/3
f 335/4/3 332/4/3 331/4/3
f 335/1/3 331/1/3 334/1/3
f 336/4/3 332/4/3 335/4/3
f 339/1/3 336/1/3 335/1/3
f 340/1/3 336/1/3 339/1/3
f 341/4/3 338/4/3 337/4/3
f 342/4/3 338/4/3 341/4/3
f 343/4/3 340/4/3 339/4/3
f 344/4/3 340/4/3 343/4/3
f 347/1/3 344/1/3 343/1/3
f 348/1/3 344/1/3 347/1/3
f 349/4/3 346/4/3 345/4/3
f 350/1/3 347/1/3 346/1/3
f 350/4/3 346/4/3 349/4/3
f 351/4/3 348/4/3 347/4/3
f 351/1/3 347/1/3 350/1/3
f 352/4/3 348/4/3 351/4/3
f 355/1/3 354/1/3 353/1/3
f 356/1/3 354/1/3 355/1/3
f 359/1/3 358/1/3 357/1/3
f 360/1/3 358/1/3 359/1/3
f 361/1/4 362/1/4 363/1/4
f 363/1/4 362/1/4 364/1/4
f 365/1/4 366/1/4 367/1/4
f 367/1/4 366/1/4 368/1/4
f 369/1/4 370/1/4 371/1/4
f 371/1/4 370/1/4 372/1/4
f 373/1/4 374/1/4 375/1/4
f 375/1/4 374/1/4 376/1/4
f 377/1/4 378/1/4 379/1/4
f 379/1/4 378/1/4 380/1/4
f 381/1/4 382/1/4 383/1/4
f 383/1/4 382/1/4 384/1/4
f 385/4/4 386/4/4 387/4/4
f 385/4/4 387/4/4 388/4/4
f 385/4/4 388/4/4 389/4/4
f 389/4/4 388/4/4 390/4/4
f 391/4/4 392/4/4 394/4/4
f 392/1/4 393/1/4 395/1/4
f 394/4/4 392/4/4 395/4/4
f 395/1/4 393/1/4 396/1/4
f 397/4/4 398/4/4 400/4/4
f 398/1/4 399/1/4 401/1/4
f 400/4/4 398/4/4 401/4/4
f 401/1/4 399/1/4 402/1/4
f 403/4/4 404/4/4 405/4/4
f 403/4/4 405/4/4 407/4/4
f 405/1/4 406/1/4 407/1/4
f 407/1/4 406/1/4 408/1/4
f 403/4/4 407/4/4 409/4/4
f 403/4/4 409/4/4 411/4/4
f 409/1/4 410/1/4 411/1/4
f 411/1/4 410/1/4 412/1/4
f 403/4/4 411/4/4 413/4/4
f 413/4/4 411/4/4 414/4/4
f 415/1/4 416/1/4 417/1/4
f 417/1/4 416/1/4 418/1/4
f 419/1/4 420/1/4 421/1/4
f 421/1/4 420/1/4 422/1/4
f 423/1/4 424/1/4 425/1/4
f 425/1/4 424/1/4 426/1/4
f 427/1/4 428/1/4 429/1/4
f 429/1/4 428/1/4 430/1/4
f 431/3/4 432/3/4 433/3/4
f 433/3/4 432/3/4 434/3/4
f 435/4/4 436/4/4 438/4/4
f 436/1/4 437/1/4 439/1/4
f 438/4/4 436/4/4 439/4/4
f 439/1/4 437/1/4 440/1/4
f 441/4/4 442/4/4 444/4/4
f 442/1/4 443/1/4 445/1/4
f 444/4/4 442/4/4 445/4/4
f 445/1/4 443/1/4 446/1/4
f 447/4/4 448/4/4 451/4/4
f 448/1/4 449/1/4 452/1/4
f 451/4/4 448/4/4 452/4/4
f 449/4/4 450/4/4 453/4/4
f 452/1/4 449/1/4 453/1/4
f 453/4/4 450/4/4 454/4/4
f 453/1/4 454/1/4 457/1/4
f 457/1/4 454/1/4 458/1/4
f 455/4/4 456/4/4 459/4/4
f 459/4/4 456/4/4 460/4/4
f 457/4/4 458/4/4 461/4/4
f 461/4/4 458/4/4 462/4/4
f 461/1/4 462/1/4 465/1/4
f 465/1/4 462/1/4 466/1/4
f 463/4/4 464/4/4 467/4/4
f 464/1/4 465/1/4 468/1/4
f 467/4/4 464/4/4 468/4/4
f 465/4/4 466/4/4 469/4/4
f 468/1/4 465/1/4 469/1/4
f 469/4/4 466/4/4 470/4/4
f 471/4/4 472/4/4 474/4/4
f 472/1/4 473/1/4 474/1/4
f 474/1/4 473/1/4 475/1/4
f 471/4/4 474/4/4 476/4/4
f 471/4/4 476/4/4 478/4/4
f 476/1/4 477/1/4 479/1/4
f 478/4/4 476/4/4 479/4/4
f 479/1/4 477/1/4 480/1/4
f 481/4/4 482/4/4 483/4/4
f 483/4/4 482/4/4 484/4/4
f 487/4/5 486/4/5 485/4/5
f 488/4/5 486/4/5 487/4/5
f 491/3/5 490/3/5 489/3/5
f 492/3/5 490/3/5 491/3/5
f 495/4/5 494/4/5 493/4/5
f 496/4/5 494/4/5 495/4/5
f 500/4/5 498/4/5 497/4/5
f 501/4/5 498/4/5 500/4/5
f 502/4/5 498/4/5 501/4/5
f 503/4/5 498/4/5 502/4/5
f 505/4/5 500/4/5 499/4/5
f 505/4/5 501/4/5 500/4/5
f 506/2/5 502/2/5 501/2/5
f 506/4/5 501/4/5 505/4/5
f 507/4/5 504/4/5 503/4/5
f 507/2/5 502/2/5 506/2/5
f 507/4/5 503/4/5 502/4/5
f 508/4/5 504/4/5 507/4/5
f 509/4/5 505/4/5 499/4/5
f 512/4/5 504/4/5 508/4/5
f 513/4/5 509/4/5 499/4/5
f 513/4/5 510/4/5 509/4/5
f 514/4/5 510/4/5 513/4/5
f 515/2/5 511/2/5 510/2/5
f 515/4/5 510/4/5 514/4/5
f 516/4/5 512/4/5 511/4/5
f 516/2/5 511/2/5 515/2/5
f 517/4/5 504/4/5 512/4/5
f 517/4/5 512/4/5 516/4/5
f 518/4/5 504/4/5 517/4/5
f 519/4/5 515/4/5 514/4/5
f 519/4/5 517/4/5 516/4/5
f 519/4/5 516/4/5 515/4/5
f 520/4/5 517/4/5 519/4/5
f 524/4/5 522/4/5 521/4/5
f 525/4/5 522/4/5 524/4/5
f 527/4/5 524/4/5 523/4/5
f 527/4/5 526/4/5 525/4/5
f 527/4/5 525/4/5 524/4/5
f 528/4/5 526/4/5 527/4/5
f 529/4/5 526/4/5 528/4/5
f 530/4/5 526/4/5 529/4/5
f 533/4/5 527/4/5 523/4/5
f 533/2/5 528/2/5 527/2/5
f 534/2/5 528/2/5 533/2/5
f 535/2/5 530/2/5 529/2/5
f 536/4/5 526/4/5 530/4/5
f 536/2/5 530/2/5 535/2/5
f 538/4/5 532/4/5 531/4/5
f 539/4/5 532/4/5 538/4/5
f 540/4/5 532/4/5 539/4/5
f 541/4/5 532/4/5 540/4/5
f 543/4/5 534/4/5 533/4/5
f 543/4/5 535/4/5 534/4/5
f 543/4/5 533/4/5 523/4/5
f 543/4/5 536/4/5 535/4/5
f 544/4/5 536/4/5 543/4/5
f 545/4/5 526/4/5 536/4/5
f 545/4/5 536/4/5 544/4/5
f 546/4/5 526/4/5 545/4/5
f 547/4/5 539/4/5 538/4/5
f 547/4/5 538/4/5 537/4/5
f 548/4/5 539/4/5 547/4/5
f 549/4/5 539/4/5 548/4/5
f 550/4/5 542/4/5 541/4/5
f 550/4/5 541/4/5 540/4/5
f 551/4/5 542/4/5 550/4/5
f 552/4/5 542/4/5 551/4/5
f 553/4/5 545/4/5 544/4/5
f 554/4/5 545/4/5 553/4/5
f 555/4/5 549/4/5 548/4/5
f 555/4/5 551/4/5 550/4/5
f 555/4/5 550/4/5 549/4/5
f 556/4/5 551/4/5 555/4/5
f 557/4/6 558/4/6 563/4/6
f 563/4/6 558/4/6 564/4/6
f 559/4/6 560/4/6 565/4/6
f 565/4/6 560/4/6 566/4/6
f 561/4/6 562/4/6 567/4/6
f 567/4/6 562/4/6 568/4/6
f 563/4/6 564/4/6 570/4/6
f 564/4/6 565/4/6 570/4/6
f 570/4/6 565/4/6 571/4/6
f 565/2/6 566/2/6 572/2/6
f 571/4/6 565/4/6 572/4/6
f 567/4/6 568/4/6 573/4/6
f 572/2/6 566/2/6 573/2/6
f 566/4/6 567/4/6 573/4/6
f 573/4/6 568/4/6 574/4/6
f 574/4/6 568/4/6 575/4/6
f 570/4/6 571/4/6 577/4/6
f 569/4/6 570/4/6 577/4/6
f 577/4/6 571/4/6 578/4/6
f 575/4/6 576/4/6 579/4/6
f 574/4/6 575/4/6 579/4/6
f 579/4/6 576/4/6 580/4/6
f 578/4/6 571/4/6 582/4/6
f 574/4/6 579/4/6 583/4/6
f 581/4/6 582/4/6 585/4/6
f 582/4/6 571/4/6 586/4/6
f 585/4/6 582/4/6 586/4/6
f 571/2/6 572/2/6 587/2/6
f 586/4/6 571/4/6 587/4/6
f 573/2/6 574/2/6 587/2/6
f 572/2/6 573/2/6 587/2/6
f 587/2/6 574/2/6 588/2/6
f 588/2/6 574/2/6 589/2/6
f 583/4/6 584/4/6 590/4/6
f 589/2/6 574/2/6 590/2/6
f 574/4/6 583/4/6 590/4/6
f 590/4/6 584/4/6 591/4/6
f 591/4/6 584/4/6 592/4/6
f 587/4/6 588/4/6 593/4/6
f 586/4/6 587/4/6 593/4/6
f 593/4/6 588/4/6 594/4/6
f 588/2/6 589/2/6 595/2/6
f 594/4/6 588/4/6 595/4/6
f 590/4/6 591/4/6 596/4/6
f 595/2/6 589/2/6 596/2/6
f 589/4/6 590/4/6 596/4/6
f 596/4/6 591/4/6 597/4/6
f 597/4/6 591/4/6 598/4/6
f 593/4/6 594/4/6 599/4/6
f 599/4/6 594/4/6 600/4/6
f 595/4/6 596/4/6 601/4/6
f 601/4/6 596/4/6 602/4/6
f 597/4/6 598/4/6 603/4/6
f 603/4/6 598/4/6 604/4/6
f 605/4/6 606/4/6 608/4/6
f 608/4/6 606/4/6 609/4/6
f 607/4/6 608/4/6 612/4/6
f 609/4/6 610/4/6 612/4/6
f 608/4/6 609/4/6 612/4/6
f 612/4/6 610/4/6 613/4/6
f 611/4/6 612/4/6 615/4/6
f 612/2/6 613/2/6 616/2/6
f 615/4/6 612/4/6 616/4/6
f 613/4/6 614/4/6 617/4/6
f 616/2/6 613/2/6 617/2/6
f 617/4/6 614/4/6 618/4/6
f 616/4/6 617/4/6 619/4/6
f 619/4/6 617/4/6 620/4/6
f 620/4/6 617/4/6 621/4/6
f 621/4/6 617/4/6 622/4/6
f 620/4/6 621/4/6 623/4/6
f 623/4/6 621/4/6 624/4/6
f 625/1/6 626/1/6 631/1/6
f 631/1/6 626/1/6 632/1/6
f 627/1/6 628/1/6 633/1/6
f 633/1/6 628/1/6 634/1/6
f 629/1/6 630/1/6 637/1/6
f 637/1/6 630/1/6 638/1/6
f 635/1/6 636/1/6 639/1/6
f 639/1/6 636/1/6 640/1/6
f 641/1/6 642/1/6 645/1/6
f 645/1/6 642/1/6 646/1/6
f 643/1/6 644/1/6 647/1/6
f 647/1/6 644/1/6 648/1/6
f 649/1/6 650/1/6 653/1/6
f 653/1/6 650/1/6 654/1/6
f 651/1/6 652/1/6 659/1/6
f 659/1/6 652/1/6 660/1/6
f 655/1/6 656/1/6 661/1/6
f 661/1/6 656/1/6 662/1/6
f 657/1/6 658/1/6 663/1/6
f 663/1/6 658/1/6 664/1/6
f 665/1/6 666/1/6 670/1/6
f 670/1/6 666/1/6 671/1/6
f 667/1/6 668/1/6 672/1/6
f 672/1/6 668/1/6 673/1/6
f 669/1/6 670/1/6 675/1/6
f 675/1/6 670/1/6 676/1/6
f 673/1/6 674/1/6 677/1/6
f 677/1/6 674/1/6 678/1/6
f 679/4/6 680/4/6 685/4/6
f 685/4/6 680/4/6 686/4/6
f 686/4/6 680/4/6 687/4/6
f 687/4/6 680/4/6 688/4/6
f 681/1/6 682/1/6 689/1/6
f 689/1/6 682/1/6 690/1/6
f 683/1/6 684/1/6 693/1/6
f 693/1/6 684/1/6 694/1/6
f 690/1/6 691/1/6 699/1/6
f 699/1/6 691/1/6 700/1/6
f 692/1/6 693/1/6 701/1/6
f 701/1/6 693/1/6 702/1/6
f 697/4/6 698/4/6 703/4/6
f 695/4/6 696/4/6 703/4/6
f 696/4/6 697/4/6 703/4/6
f 703/4/6 698/4/6 704/4/6
f 705/4/6 706/4/6 711/4/6
f 706/1/6 707/1/6 712/1/6
f 711/4/6 706/4/6 712/4/6
f 707/4/6 708/4/6 713/4/6
f 712/1/6 707/1/6 713/1/6
f 708/1/6 709/1/6 714/1/6
f 713/4/6 708/4/6 714/4/6
f 709/4/6 710/4/6 715/4/6
f 714/1/6 709/1/6 715/1/6
f 715/4/6 710/4/6 716/4/6
