# MagicaVoxel @ Ephtracy

# group
o 

# material
mtllib Tronc4.mtl
usemtl palette

# normals
vn -1 0 0
vn 1 0 0
vn 0 0 1
vn 0 0 -1
vn 0 -1 0
vn 0 1 0

# texcoords
vt 0.939453 0.5
vt 0.943359 0.5
vt 0.958984 0.5

# verts
v -0.8 0 -1.49012e-08
v -0.8 0 -0.2
v -0.8 0 -0.5
v -0.8 0 -0.6
v -0.8 0.1 -0.1
v -0.8 0.1 -0.2
v -0.8 0.1 -0.4
v -0.8 0.1 -0.5
v -0.8 0.1 -0.6
v -0.8 0.2 -1.49012e-08
v -0.8 0.2 -0.1
v -0.8 0.2 -0.2
v -0.8 0.2 -0.3
v -0.8 0.2 -0.4
v -0.8 0.2 -0.5
v -0.8 0.2 -0.6
v -0.8 0.3 -0.4
v -0.8 0.3 -0.5
v -0.8 0.4 -0.1
v -0.8 0.4 -0.2
v -0.8 0.4 -0.3
v -0.8 0.4 -0.4
v -0.8 0.4 -0.5
v -0.8 0.6 -0.2
v -0.8 0.6 -0.3
v -0.8 0.6 -0.4
v -0.6 0 0.1
v -0.6 0 -1.49012e-08
v -0.6 0 -0.6
v -0.6 0 -0.7
v -0.6 0.1 -1.49012e-08
v -0.6 0.2 0.1
v -0.6 0.2 -1.49012e-08
v -0.6 0.2 -0.1
v -0.6 0.2 -0.5
v -0.6 0.2 -0.6
v -0.6 0.2 -0.7
v -0.6 0.4 -1.49012e-08
v -0.6 0.4 -0.1
v -0.6 0.4 -0.2
v -0.6 0.4 -0.4
v -0.6 0.4 -0.5
v -0.6 0.4 -0.6
v -0.6 0.5 -0.2
v -0.6 0.6 -0.1
v -0.6 0.6 -0.2
v -0.6 0.6 -0.4
v -0.6 0.6 -0.5
v -0.6 0.7 -0.2
v -0.6 0.7 -0.4
v 0.5 0 0.1
v 0.5 0 -1.49012e-08
v 0.5 0 -0.6
v 0.5 0 -0.7
v 0.5 0.2 0.1
v 0.5 0.2 -1.49012e-08
v 0.5 0.2 -0.1
v 0.5 0.2 -0.5
v 0.5 0.2 -0.6
v 0.5 0.2 -0.7
v 0.5 0.3 -0.5
v 0.5 0.4 -1.49012e-08
v 0.5 0.4 -0.1
v 0.5 0.4 -0.2
v 0.5 0.4 -0.4
v 0.5 0.4 -0.5
v 0.5 0.4 -0.6
v 0.5 0.5 -0.4
v 0.5 0.6 -0.1
v 0.5 0.6 -0.2
v 0.5 0.6 -0.3
v 0.5 0.6 -0.4
v 0.5 0.6 -0.5
v 0.5 0.7 -0.2
v 0.5 0.7 -0.4
v -0.5 0 0.1
v -0.5 0 -1.49012e-08
v -0.5 0 -0.6
v -0.5 0 -0.7
v -0.5 0.1 -1.49012e-08
v -0.5 0.2 0.1
v -0.5 0.2 -1.49012e-08
v -0.5 0.2 -0.1
v -0.5 0.2 -0.5
v -0.5 0.2 -0.6
v -0.5 0.2 -0.7
v -0.5 0.3 -0.1
v -0.5 0.4 -1.49012e-08
v -0.5 0.4 -0.1
v -0.5 0.4 -0.2
v -0.5 0.4 -0.4
v -0.5 0.4 -0.5
v -0.5 0.4 -0.6
v -0.5 0.5 -0.2
v -0.5 0.6 -0.1
v -0.5 0.6 -0.2
v -0.5 0.6 -0.3
v -0.5 0.6 -0.4
v -0.5 0.6 -0.5
v -0.5 0.7 -0.2
v -0.5 0.7 -0.4
v 0.6 0 0.1
v 0.6 0 -1.49012e-08
v 0.6 0 -0.6
v 0.6 0 -0.7
v 0.6 0.1 -1.49012e-08
v 0.6 0.1 -0.6
v 0.6 0.2 0.1
v 0.6 0.2 -1.49012e-08
v 0.6 0.2 -0.1
v 0.6 0.2 -0.5
v 0.6 0.2 -0.6
v 0.6 0.2 -0.7
v 0.6 0.4 -1.49012e-08
v 0.6 0.4 -0.1
v 0.6 0.4 -0.2
v 0.6 0.4 -0.4
v 0.6 0.4 -0.5
v 0.6 0.4 -0.6
v 0.6 0.5 -0.4
v 0.6 0.6 -0.1
v 0.6 0.6 -0.2
v 0.6 0.6 -0.3
v 0.6 0.6 -0.4
v 0.6 0.6 -0.5
v 0.6 0.7 -0.2
v 0.6 0.7 -0.4
v 0.8 0 -1.49012e-08
v 0.8 0 -0.6
v 0.8 0.1 -1.49012e-08
v 0.8 0.1 -0.1
v 0.8 0.1 -0.4
v 0.8 0.1 -0.6
v 0.8 0.2 -1.49012e-08
v 0.8 0.2 -0.1
v 0.8 0.2 -0.4
v 0.8 0.2 -0.5
v 0.8 0.2 -0.6
v 0.8 0.3 -0.1
v 0.8 0.3 -0.3
v 0.8 0.4 -0.1
v 0.8 0.4 -0.2
v 0.8 0.4 -0.3
v 0.8 0.4 -0.4
v 0.8 0.4 -0.5
v 0.8 0.5 -0.2
v 0.8 0.5 -0.4
v 0.8 0.6 -0.2
v 0.8 0.6 -0.4
v -0.6 0 0.1
v -0.6 0.2 0.1
v -0.5 0 0.1
v -0.5 0.2 0.1
v 0.5 0 0.1
v 0.5 0.2 0.1
v 0.6 0 0.1
v 0.6 0.2 0.1
v -0.8 0 -1.49012e-08
v -0.8 0.2 -1.49012e-08
v -0.7 0.1 -1.49012e-08
v -0.7 0.2 -1.49012e-08
v -0.6 0 -1.49012e-08
v -0.6 0.1 -1.49012e-08
v -0.6 0.2 -1.49012e-08
v -0.6 0.4 -1.49012e-08
v -0.5 0 -1.49012e-08
v -0.5 0.1 -1.49012e-08
v -0.5 0.2 -1.49012e-08
v -0.5 0.4 -1.49012e-08
v -0.4 0.1 -1.49012e-08
v -0.4 0.2 -1.49012e-08
v -0.3 0 -1.49012e-08
v -0.3 0.1 -1.49012e-08
v 5.96046e-08 0 -1.49012e-08
v 5.96046e-08 0.1 -1.49012e-08
v 0.1 0.1 -1.49012e-08
v 0.1 0.2 -1.49012e-08
v 0.3 0.1 -1.49012e-08
v 0.3 0.2 -1.49012e-08
v 0.5 0 -1.49012e-08
v 0.5 0.2 -1.49012e-08
v 0.5 0.4 -1.49012e-08
v 0.6 0 -1.49012e-08
v 0.6 0.1 -1.49012e-08
v 0.6 0.2 -1.49012e-08
v 0.6 0.4 -1.49012e-08
v 0.7 0 -1.49012e-08
v 0.7 0.1 -1.49012e-08
v 0.7 0.2 -1.49012e-08
v 0.8 0 -1.49012e-08
v 0.8 0.1 -1.49012e-08
v 0.8 0.2 -1.49012e-08
v -0.8 0.2 -0.1
v -0.8 0.4 -0.1
v -0.7 0.2 -0.1
v -0.6 0.2 -0.1
v -0.6 0.4 -0.1
v -0.6 0.6 -0.1
v -0.5 0.2 -0.1
v -0.5 0.3 -0.1
v -0.5 0.4 -0.1
v -0.5 0.6 -0.1
v -0.4 0.2 -0.1
v -0.4 0.3 -0.1
v -0.4 0.4 -0.1
v -0.3 0.2 -0.1
v -0.3 0.3 -0.1
v 0.1 0.2 -0.1
v 0.2 0.3 -0.1
v 0.2 0.4 -0.1
v 0.3 0.2 -0.1
v 0.3 0.3 -0.1
v 0.3 0.4 -0.1
v 0.5 0.2 -0.1
v 0.5 0.4 -0.1
v 0.5 0.6 -0.1
v 0.6 0.2 -0.1
v 0.6 0.4 -0.1
v 0.6 0.6 -0.1
v 0.7 0.2 -0.1
v 0.7 0.3 -0.1
v 0.7 0.4 -0.1
v 0.8 0.2 -0.1
v 0.8 0.3 -0.1
v 0.8 0.4 -0.1
v -0.8 0.4 -0.2
v -0.8 0.6 -0.2
v -0.7 0.5 -0.2
v -0.7 0.6 -0.2
v -0.6 0.4 -0.2
v -0.6 0.5 -0.2
v -0.6 0.6 -0.2
v -0.6 0.7 -0.2
v -0.5 0.4 -0.2
v -0.5 0.5 -0.2
v -0.5 0.6 -0.2
v -0.5 0.7 -0.2
v -0.4 0.4 -0.2
v -0.4 0.5 -0.2
v -0.4 0.6 -0.2
v -0.2 0.4 -0.2
v -0.2 0.5 -0.2
v -0.1 0.5 -0.2
v -0.1 0.6 -0.2
v 5.96046e-08 0.4 -0.2
v 5.96046e-08 0.5 -0.2
v 0.1 0.5 -0.2
v 0.1 0.6 -0.2
v 0.2 0.4 -0.2
v 0.2 0.5 -0.2
v 0.3 0.4 -0.2
v 0.3 0.5 -0.2
v 0.5 0.4 -0.2
v 0.5 0.6 -0.2
v 0.5 0.7 -0.2
v 0.6 0.4 -0.2
v 0.6 0.6 -0.2
v 0.6 0.7 -0.2
v 0.7 0.4 -0.2
v 0.7 0.5 -0.2
v 0.7 0.6 -0.2
v 0.8 0.4 -0.2
v 0.8 0.5 -0.2
v 0.8 0.6 -0.2
v -0.8 0.4 -0.4
v -0.8 0.6 -0.4
v -0.6 0.4 -0.4
v -0.6 0.6 -0.4
v -0.6 0.7 -0.4
v -0.5 0.4 -0.4
v -0.5 0.6 -0.4
v -0.5 0.7 -0.4
v -0.4 0.4 -0.4
v -0.2 0.4 -0.4
v -0.2 0.6 -0.4
v -0.1 0.5 -0.4
v -0.1 0.6 -0.4
v 5.96046e-08 0.4 -0.4
v 5.96046e-08 0.5 -0.4
v 0.2 0.4 -0.4
v 0.2 0.5 -0.4
v 0.2 0.6 -0.4
v 0.3 0.4 -0.4
v 0.3 0.5 -0.4
v 0.3 0.6 -0.4
v 0.4 0.4 -0.4
v 0.4 0.5 -0.4
v 0.4 0.6 -0.4
v 0.5 0.4 -0.4
v 0.5 0.5 -0.4
v 0.5 0.6 -0.4
v 0.5 0.7 -0.4
v 0.6 0.4 -0.4
v 0.6 0.5 -0.4
v 0.6 0.6 -0.4
v 0.6 0.7 -0.4
v 0.8 0.4 -0.4
v 0.8 0.5 -0.4
v 0.8 0.6 -0.4
v -0.8 0.2 -0.5
v -0.8 0.3 -0.5
v -0.8 0.4 -0.5
v -0.7 0.2 -0.5
v -0.7 0.3 -0.5
v -0.6 0.2 -0.5
v -0.6 0.4 -0.5
v -0.6 0.6 -0.5
v -0.5 0.2 -0.5
v -0.5 0.4 -0.5
v -0.5 0.6 -0.5
v -0.4 0.3 -0.5
v -0.4 0.4 -0.5
v -0.2 0.3 -0.5
v -0.2 0.4 -0.5
v 0.1 0.2 -0.5
v 0.1 0.3 -0.5
v 0.2 0.2 -0.5
v 0.2 0.3 -0.5
v 0.2 0.4 -0.5
v 0.3 0.2 -0.5
v 0.3 0.4 -0.5
v 0.4 0.3 -0.5
v 0.4 0.4 -0.5
v 0.5 0.2 -0.5
v 0.5 0.3 -0.5
v 0.5 0.4 -0.5
v 0.5 0.6 -0.5
v 0.6 0.2 -0.5
v 0.6 0.4 -0.5
v 0.6 0.6 -0.5
v 0.7 0.2 -0.5
v 0.8 0.2 -0.5
v 0.8 0.4 -0.5
v -0.8 0 -0.6
v -0.8 0.1 -0.6
v -0.8 0.2 -0.6
v -0.7 0 -0.6
v -0.7 0.1 -0.6
v -0.6 0 -0.6
v -0.6 0.2 -0.6
v -0.6 0.4 -0.6
v -0.5 0 -0.6
v -0.5 0.2 -0.6
v -0.5 0.4 -0.6
v -0.3 0 -0.6
v -0.3 0.1 -0.6
v 0.1 0 -0.6
v 0.1 0.1 -0.6
v 0.2 0.1 -0.6
v 0.2 0.2 -0.6
v 0.3 0 -0.6
v 0.3 0.1 -0.6
v 0.3 0.2 -0.6
v 0.4 0 -0.6
v 0.4 0.1 -0.6
v 0.5 0 -0.6
v 0.5 0.2 -0.6
v 0.5 0.4 -0.6
v 0.6 0 -0.6
v 0.6 0.1 -0.6
v 0.6 0.2 -0.6
v 0.6 0.4 -0.6
v 0.7 0 -0.6
v 0.7 0.1 -0.6
v 0.7 0.2 -0.6
v 0.8 0 -0.6
v 0.8 0.1 -0.6
v 0.8 0.2 -0.6
v -0.6 0 -0.7
v -0.6 0.2 -0.7
v -0.5 0 -0.7
v -0.5 0.2 -0.7
v 0.5 0 -0.7
v 0.5 0.2 -0.7
v 0.6 0 -0.7
v 0.6 0.2 -0.7
v -0.6 0 0.1
v -0.5 0 0.1
v 0.5 0 0.1
v 0.6 0 0.1
v -0.8 0 -1.49012e-08
v -0.6 0 -1.49012e-08
v -0.5 0 -1.49012e-08
v -0.3 0 -1.49012e-08
v 5.96046e-08 0 -1.49012e-08
v 0.5 0 -1.49012e-08
v 0.6 0 -1.49012e-08
v 0.7 0 -1.49012e-08
v 0.8 0 -1.49012e-08
v -0.7 0 -0.1
v -0.6 0 -0.1
v -0.3 0 -0.1
v 5.96046e-08 0 -0.1
v 0.6 0 -0.1
v 0.7 0 -0.1
v -0.8 0 -0.2
v -0.7 0 -0.2
v -0.8 0 -0.5
v -0.7 0 -0.5
v -0.3 0 -0.5
v 0.1 0 -0.5
v 0.3 0 -0.5
v 0.4 0 -0.5
v 0.6 0 -0.5
v 0.7 0 -0.5
v -0.8 0 -0.6
v -0.7 0 -0.6
v -0.6 0 -0.6
v -0.5 0 -0.6
v -0.3 0 -0.6
v 0.1 0 -0.6
v 0.3 0 -0.6
v 0.4 0 -0.6
v 0.5 0 -0.6
v 0.6 0 -0.6
v 0.7 0 -0.6
v 0.8 0 -0.6
v -0.6 0 -0.7
v -0.5 0 -0.7
v 0.5 0 -0.7
v 0.6 0 -0.7
v -0.6 0.2 0.1
v -0.5 0.2 0.1
v 0.5 0.2 0.1
v 0.6 0.2 0.1
v -0.8 0.2 -1.49012e-08
v -0.7 0.2 -1.49012e-08
v -0.6 0.2 -1.49012e-08
v -0.5 0.2 -1.49012e-08
v -0.4 0.2 -1.49012e-08
v 0.1 0.2 -1.49012e-08
v 0.3 0.2 -1.49012e-08
v 0.5 0.2 -1.49012e-08
v 0.6 0.2 -1.49012e-08
v 0.7 0.2 -1.49012e-08
v 0.8 0.2 -1.49012e-08
v -0.8 0.2 -0.1
v -0.7 0.2 -0.1
v -0.6 0.2 -0.1
v -0.5 0.2 -0.1
v -0.4 0.2 -0.1
v -0.3 0.2 -0.1
v 0.1 0.2 -0.1
v 0.3 0.2 -0.1
v 0.5 0.2 -0.1
v 0.6 0.2 -0.1
v 0.7 0.2 -0.1
v 0.8 0.2 -0.1
v -0.8 0.2 -0.5
v -0.7 0.2 -0.5
v -0.6 0.2 -0.5
v -0.5 0.2 -0.5
v 0.1 0.2 -0.5
v 0.2 0.2 -0.5
v 0.3 0.2 -0.5
v 0.5 0.2 -0.5
v 0.6 0.2 -0.5
v 0.7 0.2 -0.5
v 0.8 0.2 -0.5
v -0.8 0.2 -0.6
v -0.6 0.2 -0.6
v -0.5 0.2 -0.6
v 0.2 0.2 -0.6
v 0.3 0.2 -0.6
v 0.5 0.2 -0.6
v 0.6 0.2 -0.6
v 0.7 0.2 -0.6
v 0.8 0.2 -0.6
v -0.6 0.2 -0.7
v -0.5 0.2 -0.7
v 0.5 0.2 -0.7
v 0.6 0.2 -0.7
v -0.6 0.4 -1.49012e-08
v -0.5 0.4 -1.49012e-08
v 0.5 0.4 -1.49012e-08
v 0.6 0.4 -1.49012e-08
v -0.8 0.4 -0.1
v -0.6 0.4 -0.1
v -0.5 0.4 -0.1
v -0.4 0.4 -0.1
v 0.2 0.4 -0.1
v 0.3 0.4 -0.1
v 0.5 0.4 -0.1
v 0.6 0.4 -0.1
v 0.7 0.4 -0.1
v 0.8 0.4 -0.1
v -0.8 0.4 -0.2
v -0.6 0.4 -0.2
v -0.5 0.4 -0.2
v -0.4 0.4 -0.2
v -0.2 0.4 -0.2
v 5.96046e-08 0.4 -0.2
v 0.2 0.4 -0.2
v 0.3 0.4 -0.2
v 0.5 0.4 -0.2
v 0.6 0.4 -0.2
v 0.7 0.4 -0.2
v 0.8 0.4 -0.2
v -0.8 0.4 -0.4
v -0.6 0.4 -0.4
v -0.5 0.4 -0.4
v -0.4 0.4 -0.4
v -0.2 0.4 -0.4
v 5.96046e-08 0.4 -0.4
v 0.2 0.4 -0.4
v 0.3 0.4 -0.4
v 0.4 0.4 -0.4
v 0.5 0.4 -0.4
v 0.6 0.4 -0.4
v 0.8 0.4 -0.4
v -0.8 0.4 -0.5
v -0.6 0.4 -0.5
v -0.5 0.4 -0.5
v -0.4 0.4 -0.5
v -0.2 0.4 -0.5
v 0.2 0.4 -0.5
v 0.3 0.4 -0.5
v 0.4 0.4 -0.5
v 0.5 0.4 -0.5
v 0.6 0.4 -0.5
v 0.8 0.4 -0.5
v -0.6 0.4 -0.6
v -0.5 0.4 -0.6
v 0.5 0.4 -0.6
v 0.6 0.4 -0.6
v -0.6 0.6 -0.1
v -0.5 0.6 -0.1
v 0.5 0.6 -0.1
v 0.6 0.6 -0.1
v -0.8 0.6 -0.2
v -0.7 0.6 -0.2
v -0.6 0.6 -0.2
v -0.5 0.6 -0.2
v -0.4 0.6 -0.2
v -0.1 0.6 -0.2
v 0.1 0.6 -0.2
v 0.5 0.6 -0.2
v 0.6 0.6 -0.2
v 0.7 0.6 -0.2
v 0.8 0.6 -0.2
v -0.8 0.6 -0.3
v -0.7 0.6 -0.3
v -0.5 0.6 -0.3
v -0.4 0.6 -0.3
v -0.2 0.6 -0.3
v -0.1 0.6 -0.3
v 0.1 0.6 -0.3
v 0.2 0.6 -0.3
v 0.3 0.6 -0.3
v 0.4 0.6 -0.3
v 0.5 0.6 -0.3
v 0.6 0.6 -0.3
v 0.7 0.6 -0.3
v -0.8 0.6 -0.4
v -0.6 0.6 -0.4
v -0.5 0.6 -0.4
v -0.2 0.6 -0.4
v -0.1 0.6 -0.4
v 0.2 0.6 -0.4
v 0.3 0.6 -0.4
v 0.4 0.6 -0.4
v 0.5 0.6 -0.4
v 0.6 0.6 -0.4
v 0.8 0.6 -0.4
v -0.6 0.6 -0.5
v -0.5 0.6 -0.5
v 0.5 0.6 -0.5
v 0.6 0.6 -0.5
v -0.6 0.7 -0.2
v -0.5 0.7 -0.2
v 0.5 0.7 -0.2
v 0.6 0.7 -0.2
v -0.6 0.7 -0.4
v -0.5 0.7 -0.4
v 0.5 0.7 -0.4
v 0.6 0.7 -0.4

# faces
f 5/2/1 2/2/1 1/2/1
f 6/1/1 3/1/1 2/1/1
f 6/2/1 2/2/1 5/2/1
f 7/1/1 3/1/1 6/1/1
f 8/2/1 4/2/1 3/2/1
f 8/1/1 3/1/1 7/1/1
f 9/2/1 4/2/1 8/2/1
f 10/2/1 5/2/1 1/2/1
f 11/1/1 6/1/1 5/1/1
f 11/2/1 5/2/1 10/2/1
f 12/2/1 7/2/1 6/2/1
f 12/1/1 6/1/1 11/1/1
f 13/2/1 7/2/1 12/2/1
f 14/1/1 8/1/1 7/1/1
f 14/2/1 7/2/1 13/2/1
f 14/1/1 9/1/1 8/1/1
f 15/1/1 9/1/1 14/1/1
f 16/1/1 9/1/1 15/1/1
f 17/2/1 14/2/1 13/2/1
f 17/2/1 15/2/1 14/2/1
f 18/2/1 15/2/1 17/2/1
f 19/1/1 13/1/1 12/1/1
f 19/1/1 12/1/1 11/1/1
f 20/1/1 13/1/1 19/1/1
f 21/2/1 17/2/1 13/2/1
f 21/1/1 13/1/1 20/1/1
f 22/1/1 18/1/1 17/1/1
f 22/2/1 17/2/1 21/2/1
f 23/1/1 18/1/1 22/1/1
f 24/2/1 21/2/1 20/2/1
f 25/1/1 22/1/1 21/1/1
f 25/2/1 21/2/1 24/2/1
f 26/1/1 22/1/1 25/1/1
f 31/3/1 28/3/1 27/3/1
f 32/3/1 31/3/1 27/3/1
f 33/3/1 31/3/1 32/3/1
f 36/3/1 30/3/1 29/3/1
f 37/3/1 30/3/1 36/3/1
f 38/3/1 34/3/1 33/3/1
f 39/3/1 34/3/1 38/3/1
f 42/3/1 36/3/1 35/3/1
f 43/3/1 36/3/1 42/3/1
f 44/3/1 40/3/1 39/3/1
f 45/3/1 44/3/1 39/3/1
f 46/3/1 44/3/1 45/3/1
f 47/3/1 42/3/1 41/3/1
f 48/3/1 42/3/1 47/3/1
f 49/3/1 47/3/1 46/3/1
f 50/3/1 47/3/1 49/3/1
f 55/3/1 52/3/1 51/3/1
f 56/3/1 52/3/1 55/3/1
f 59/3/1 54/3/1 53/3/1
f 60/3/1 54/3/1 59/3/1
f 61/3/1 59/3/1 58/3/1
f 62/3/1 57/3/1 56/3/1
f 63/3/1 57/3/1 62/3/1
f 66/3/1 59/3/1 61/3/1
f 67/3/1 59/3/1 66/3/1
f 68/3/1 66/3/1 65/3/1
f 69/3/1 64/3/1 63/3/1
f 70/3/1 64/3/1 69/3/1
f 72/3/1 66/3/1 68/3/1
f 73/3/1 66/3/1 72/3/1
f 74/3/1 71/3/1 70/3/1
f 74/3/1 72/3/1 71/3/1
f 75/3/1 72/3/1 74/3/1
f 76/3/2 77/3/2 80/3/2
f 76/3/2 80/3/2 81/3/2
f 81/3/2 80/3/2 82/3/2
f 78/3/2 79/3/2 85/3/2
f 85/3/2 79/3/2 86/3/2
f 82/3/2 83/3/2 87/3/2
f 82/3/2 87/3/2 88/3/2
f 88/3/2 87/3/2 89/3/2
f 84/3/2 85/3/2 92/3/2
f 92/3/2 85/3/2 93/3/2
f 89/3/2 90/3/2 94/3/2
f 89/3/2 94/3/2 95/3/2
f 95/3/2 94/3/2 96/3/2
f 91/3/2 92/3/2 98/3/2
f 98/3/2 92/3/2 99/3/2
f 96/3/2 97/3/2 100/3/2
f 97/3/2 98/3/2 100/3/2
f 100/3/2 98/3/2 101/3/2
f 102/3/2 103/3/2 106/3/2
f 104/3/2 105/3/2 107/3/2
f 102/3/2 106/3/2 108/3/2
f 108/3/2 106/3/2 109/3/2
f 107/3/2 105/3/2 112/3/2
f 112/3/2 105/3/2 113/3/2
f 109/3/2 110/3/2 114/3/2
f 114/3/2 110/3/2 115/3/2
f 111/3/2 112/3/2 118/3/2
f 118/3/2 112/3/2 119/3/2
f 117/3/2 118/3/2 120/3/2
f 115/3/2 116/3/2 121/3/2
f 121/3/2 116/3/2 122/3/2
f 120/3/2 118/3/2 124/3/2
f 124/3/2 118/3/2 125/3/2
f 122/3/2 123/3/2 126/3/2
f 123/3/2 124/3/2 126/3/2
f 126/3/2 124/3/2 127/3/2
f 128/1/2 129/1/2 130/1/2
f 130/1/2 129/1/2 131/1/2
f 131/1/2 129/1/2 132/1/2
f 132/1/2 129/1/2 133/1/2
f 130/2/2 131/2/2 134/2/2
f 131/1/2 132/1/2 135/1/2
f 134/2/2 131/2/2 135/2/2
f 132/2/2 133/2/2 136/2/2
f 135/1/2 132/1/2 136/1/2
f 136/2/2 133/2/2 137/2/2
f 137/2/2 133/2/2 138/2/2
f 135/1/2 136/1/2 139/1/2
f 136/1/2 137/1/2 139/1/2
f 139/1/2 137/1/2 140/1/2
f 139/2/2 140/2/2 141/2/2
f 141/2/2 140/2/2 142/2/2
f 140/1/2 137/1/2 143/1/2
f 142/2/2 140/2/2 143/2/2
f 143/1/2 137/1/2 144/1/2
f 144/1/2 137/1/2 145/1/2
f 142/1/2 143/1/2 146/1/2
f 143/1/2 144/1/2 146/1/2
f 146/1/2 144/1/2 147/1/2
f 146/2/2 147/2/2 148/2/2
f 148/2/2 147/2/2 149/2/2
f 152/3/3 151/3/3 150/3/3
f 153/3/3 151/3/3 152/3/3
f 156/3/3 155/3/3 154/3/3
f 157/3/3 155/3/3 156/3/3
f 160/2/3 159/2/3 158/2/3
f 161/2/3 159/2/3 160/2/3
f 162/2/3 160/2/3 158/2/3
f 163/1/3 161/1/3 160/1/3
f 163/2/3 160/2/3 162/2/3
f 164/1/3 161/1/3 163/1/3
f 168/3/3 165/3/3 164/3/3
f 169/3/3 165/3/3 168/3/3
f 170/1/3 167/1/3 166/1/3
f 170/2/3 168/2/3 167/2/3
f 171/2/3 168/2/3 170/2/3
f 172/1/3 170/1/3 166/1/3
f 172/1/3 171/1/3 170/1/3
f 173/1/3 171/1/3 172/1/3
f 174/2/3 173/2/3 172/2/3
f 175/1/3 171/1/3 173/1/3
f 175/2/3 173/2/3 174/2/3
f 176/1/3 175/1/3 174/1/3
f 176/1/3 171/1/3 175/1/3
f 177/1/3 171/1/3 176/1/3
f 178/1/3 176/1/3 174/1/3
f 178/2/3 177/2/3 176/2/3
f 179/2/3 177/2/3 178/2/3
f 180/1/3 178/1/3 174/1/3
f 180/1/3 179/1/3 178/1/3
f 181/1/3 179/1/3 180/1/3
f 185/3/3 182/3/3 181/3/3
f 186/3/3 182/3/3 185/3/3
f 187/2/3 184/2/3 183/2/3
f 188/1/3 185/1/3 184/1/3
f 188/2/3 184/2/3 187/2/3
f 189/1/3 185/1/3 188/1/3
f 190/1/3 188/1/3 187/1/3
f 191/2/3 189/2/3 188/2/3
f 191/1/3 188/1/3 190/1/3
f 192/2/3 189/2/3 191/2/3
f 195/1/3 194/1/3 193/1/3
f 196/1/3 194/1/3 195/1/3
f 197/1/3 194/1/3 196/1/3
f 201/3/3 198/3/3 197/3/3
f 202/3/3 198/3/3 201/3/3
f 203/1/3 200/1/3 199/1/3
f 204/2/3 201/2/3 200/2/3
f 204/1/3 200/1/3 203/1/3
f 205/2/3 201/2/3 204/2/3
f 206/2/3 204/2/3 203/2/3
f 207/1/3 205/1/3 204/1/3
f 207/2/3 204/2/3 206/2/3
f 208/1/3 207/1/3 206/1/3
f 209/1/3 205/1/3 207/1/3
f 209/1/3 207/1/3 208/1/3
f 210/1/3 205/1/3 209/1/3
f 211/1/3 209/1/3 208/1/3
f 212/2/3 210/2/3 209/2/3
f 212/1/3 209/1/3 211/1/3
f 213/2/3 210/2/3 212/2/3
f 214/1/3 212/1/3 211/1/3
f 214/1/3 213/1/3 212/1/3
f 215/1/3 213/1/3 214/1/3
f 218/3/3 216/3/3 215/3/3
f 219/3/3 216/3/3 218/3/3
f 220/1/3 218/1/3 217/1/3
f 221/1/3 218/1/3 220/1/3
f 222/1/3 218/1/3 221/1/3
f 223/1/3 221/1/3 220/1/3
f 224/2/3 222/2/3 221/2/3
f 224/1/3 221/1/3 223/1/3
f 225/2/3 222/2/3 224/2/3
f 228/2/3 227/2/3 226/2/3
f 229/2/3 227/2/3 228/2/3
f 230/2/3 228/2/3 226/2/3
f 231/1/3 229/1/3 228/1/3
f 231/2/3 228/2/3 230/2/3
f 232/1/3 229/1/3 231/1/3
f 236/3/3 233/3/3 232/3/3
f 237/3/3 233/3/3 236/3/3
f 238/1/3 235/1/3 234/1/3
f 239/2/3 236/2/3 235/2/3
f 239/1/3 235/1/3 238/1/3
f 240/2/3 236/2/3 239/2/3
f 241/1/3 239/1/3 238/1/3
f 241/1/3 240/1/3 239/1/3
f 242/1/3 240/1/3 241/1/3
f 243/2/3 242/2/3 241/2/3
f 243/1/3 240/1/3 242/1/3
f 244/1/3 240/1/3 243/1/3
f 245/2/3 243/2/3 241/2/3
f 245/2/3 244/2/3 243/2/3
f 246/2/3 244/2/3 245/2/3
f 247/1/3 246/1/3 245/1/3
f 247/2/3 244/2/3 246/2/3
f 248/2/3 244/2/3 247/2/3
f 249/1/3 247/1/3 245/1/3
f 249/1/3 248/1/3 247/1/3
f 250/1/3 248/1/3 249/1/3
f 251/2/3 250/2/3 249/2/3
f 252/1/3 248/1/3 250/1/3
f 252/2/3 250/2/3 251/2/3
f 253/1/3 252/1/3 251/1/3
f 254/1/3 248/1/3 252/1/3
f 254/1/3 252/1/3 253/1/3
f 257/3/3 255/3/3 254/3/3
f 258/3/3 255/3/3 257/3/3
f 259/1/3 257/1/3 256/1/3
f 260/1/3 257/1/3 259/1/3
f 261/1/3 257/1/3 260/1/3
f 262/1/3 260/1/3 259/1/3
f 263/2/3 261/2/3 260/2/3
f 263/1/3 260/1/3 262/1/3
f 264/2/3 261/2/3 263/2/3
f 265/1/4 266/1/4 267/1/4
f 267/1/4 266/1/4 268/1/4
f 268/3/4 269/3/4 271/3/4
f 271/3/4 269/3/4 272/3/4
f 270/1/4 271/1/4 273/1/4
f 273/1/4 271/1/4 274/1/4
f 274/1/4 271/1/4 275/1/4
f 274/2/4 275/2/4 276/2/4
f 276/2/4 275/2/4 277/2/4
f 274/2/4 276/2/4 278/2/4
f 276/1/4 277/1/4 279/1/4
f 278/2/4 276/2/4 279/2/4
f 278/1/4 279/1/4 280/1/4
f 279/1/4 277/1/4 281/1/4
f 280/1/4 279/1/4 281/1/4
f 281/1/4 277/1/4 282/1/4
f 280/1/4 281/1/4 283/1/4
f 281/2/4 282/2/4 284/2/4
f 283/1/4 281/1/4 284/1/4
f 284/2/4 282/2/4 285/2/4
f 283/1/4 284/1/4 286/1/4
f 284/1/4 285/1/4 286/1/4
f 286/1/4 285/1/4 287/1/4
f 287/1/4 285/1/4 288/1/4
f 286/1/4 287/1/4 289/1/4
f 287/2/4 288/2/4 290/2/4
f 289/1/4 287/1/4 290/1/4
f 290/2/4 288/2/4 291/2/4
f 291/3/4 292/3/4 295/3/4
f 295/3/4 292/3/4 296/3/4
f 293/1/4 294/1/4 297/1/4
f 294/2/4 295/2/4 298/2/4
f 297/1/4 294/1/4 298/1/4
f 298/2/4 295/2/4 299/2/4
f 300/2/4 301/2/4 303/2/4
f 301/1/4 302/1/4 304/1/4
f 303/2/4 301/2/4 304/2/4
f 303/1/4 304/1/4 305/1/4
f 304/1/4 302/1/4 306/1/4
f 305/1/4 304/1/4 306/1/4
f 306/3/4 307/3/4 309/3/4
f 309/3/4 307/3/4 310/3/4
f 308/1/4 309/1/4 311/1/4
f 311/1/4 309/1/4 312/1/4
f 308/1/4 311/1/4 313/1/4
f 311/2/4 312/2/4 313/2/4
f 313/2/4 312/2/4 314/2/4
f 308/1/4 313/1/4 315/1/4
f 313/1/4 314/1/4 315/1/4
f 315/1/4 314/1/4 316/1/4
f 315/2/4 316/2/4 317/2/4
f 316/1/4 314/1/4 318/1/4
f 317/2/4 316/2/4 318/2/4
f 318/1/4 314/1/4 319/1/4
f 317/2/4 318/2/4 320/2/4
f 318/2/4 319/2/4 320/2/4
f 320/2/4 319/2/4 321/2/4
f 320/1/4 321/1/4 322/1/4
f 322/1/4 321/1/4 323/1/4
f 320/1/4 322/1/4 324/1/4
f 322/2/4 323/2/4 325/2/4
f 324/1/4 322/1/4 325/1/4
f 325/2/4 323/2/4 326/2/4
f 326/3/4 327/3/4 329/3/4
f 329/3/4 327/3/4 330/3/4
f 328/1/4 329/1/4 331/1/4
f 331/1/4 329/1/4 332/1/4
f 332/1/4 329/1/4 333/1/4
f 334/2/4 335/2/4 337/2/4
f 335/1/4 336/1/4 338/1/4
f 337/2/4 335/2/4 338/2/4
f 337/1/4 338/1/4 339/1/4
f 338/1/4 336/1/4 340/1/4
f 339/1/4 338/1/4 340/1/4
f 340/3/4 341/3/4 343/3/4
f 343/3/4 341/3/4 344/3/4
f 342/1/4 343/1/4 345/1/4
f 345/1/4 343/1/4 346/1/4
f 345/2/4 346/2/4 347/2/4
f 346/1/4 343/1/4 348/1/4
f 347/2/4 346/2/4 348/2/4
f 347/1/4 348/1/4 349/1/4
f 348/1/4 343/1/4 349/1/4
f 349/1/4 343/1/4 350/1/4
f 347/1/4 349/1/4 351/1/4
f 349/2/4 350/2/4 352/2/4
f 351/1/4 349/1/4 352/1/4
f 352/2/4 350/2/4 353/2/4
f 351/2/4 352/2/4 354/2/4
f 352/1/4 353/1/4 355/1/4
f 354/2/4 352/2/4 355/2/4
f 354/1/4 355/1/4 356/1/4
f 355/1/4 353/1/4 357/1/4
f 356/1/4 355/1/4 357/1/4
f 357/3/4 358/3/4 361/3/4
f 361/3/4 358/3/4 362/3/4
f 359/2/4 360/2/4 363/2/4
f 360/1/4 361/1/4 364/1/4
f 363/2/4 360/2/4 364/2/4
f 364/1/4 361/1/4 365/1/4
f 363/1/4 364/1/4 366/1/4
f 364/2/4 365/2/4 367/2/4
f 366/1/4 364/1/4 367/1/4
f 367/2/4 365/2/4 368/2/4
f 369/3/4 370/3/4 371/3/4
f 371/3/4 370/3/4 372/3/4
f 373/3/4 374/3/4 375/3/4
f 375/3/4 374/3/4 376/3/4
f 382/3/5 378/3/5 377/3/5
f 383/3/5 378/3/5 382/3/5
f 386/3/5 380/3/5 379/3/5
f 387/3/5 380/3/5 386/3/5
f 390/2/5 382/2/5 381/2/5
f 391/1/5 383/1/5 382/1/5
f 391/2/5 382/2/5 390/2/5
f 391/1/5 384/1/5 383/1/5
f 392/2/5 385/2/5 384/2/5
f 392/1/5 384/1/5 391/1/5
f 393/1/5 386/1/5 385/1/5
f 393/2/5 385/2/5 392/2/5
f 393/1/5 387/1/5 386/1/5
f 394/2/5 388/2/5 387/2/5
f 394/1/5 387/1/5 393/1/5
f 395/1/5 389/1/5 388/1/5
f 395/2/5 388/2/5 394/2/5
f 396/2/5 390/2/5 381/2/5
f 397/1/5 391/1/5 390/1/5
f 397/2/5 390/2/5 396/2/5
f 397/1/5 394/1/5 393/1/5
f 397/1/5 395/1/5 394/1/5
f 397/1/5 392/1/5 391/1/5
f 397/1/5 393/1/5 392/1/5
f 398/1/5 397/1/5 396/1/5
f 399/1/5 395/1/5 397/1/5
f 399/1/5 397/1/5 398/1/5
f 400/1/5 395/1/5 399/1/5
f 401/1/5 395/1/5 400/1/5
f 402/1/5 395/1/5 401/1/5
f 403/1/5 395/1/5 402/1/5
f 404/1/5 395/1/5 403/1/5
f 405/1/5 389/1/5 395/1/5
f 405/1/5 395/1/5 404/1/5
f 406/2/5 399/2/5 398/2/5
f 407/1/5 400/1/5 399/1/5
f 407/2/5 399/2/5 406/2/5
f 408/1/5 400/1/5 407/1/5
f 409/1/5 400/1/5 408/1/5
f 410/2/5 401/2/5 400/2/5
f 410/1/5 400/1/5 409/1/5
f 411/1/5 402/1/5 401/1/5
f 411/2/5 401/2/5 410/2/5
f 412/2/5 403/2/5 402/2/5
f 412/1/5 402/1/5 411/1/5
f 413/1/5 404/1/5 403/1/5
f 413/2/5 403/2/5 412/2/5
f 414/1/5 404/1/5 413/1/5
f 415/2/5 405/2/5 404/2/5
f 415/1/5 404/1/5 414/1/5
f 416/1/5 389/1/5 405/1/5
f 416/2/5 405/2/5 415/2/5
f 417/1/5 389/1/5 416/1/5
f 418/3/5 409/3/5 408/3/5
f 419/3/5 409/3/5 418/3/5
f 420/3/5 415/3/5 414/3/5
f 421/3/5 415/3/5 420/3/5
f 422/3/6 423/3/6 428/3/6
f 428/3/6 423/3/6 429/3/6
f 424/3/6 425/3/6 433/3/6
f 433/3/6 425/3/6 434/3/6
f 426/2/6 427/2/6 437/2/6
f 427/1/6 428/1/6 438/1/6
f 437/2/6 427/2/6 438/2/6
f 438/1/6 428/1/6 439/1/6
f 429/2/6 430/2/6 440/2/6
f 430/1/6 431/1/6 441/1/6
f 440/2/6 430/2/6 441/2/6
f 441/1/6 431/1/6 442/1/6
f 431/2/6 432/2/6 443/2/6
f 442/1/6 431/1/6 443/1/6
f 432/1/6 433/1/6 444/1/6
f 443/2/6 432/2/6 444/2/6
f 444/1/6 433/1/6 445/1/6
f 434/1/6 435/1/6 446/1/6
f 435/2/6 436/2/6 447/2/6
f 446/1/6 435/1/6 447/1/6
f 447/2/6 436/2/6 448/2/6
f 449/1/6 450/1/6 460/1/6
f 450/1/6 451/1/6 460/1/6
f 460/1/6 451/1/6 461/1/6
f 452/1/6 453/1/6 462/1/6
f 453/1/6 454/1/6 462/1/6
f 454/2/6 455/2/6 463/2/6
f 462/1/6 454/1/6 463/1/6
f 455/1/6 456/1/6 464/1/6
f 463/2/6 455/2/6 464/2/6
f 464/1/6 456/1/6 465/1/6
f 457/1/6 458/1/6 466/1/6
f 458/2/6 459/2/6 467/2/6
f 466/1/6 458/1/6 467/1/6
f 467/2/6 459/2/6 468/2/6
f 461/3/6 462/3/6 469/3/6
f 469/3/6 462/3/6 470/3/6
f 465/3/6 466/3/6 471/3/6
f 471/3/6 466/3/6 472/3/6
f 473/3/6 474/3/6 478/3/6
f 478/3/6 474/3/6 479/3/6
f 475/3/6 476/3/6 483/3/6
f 483/3/6 476/3/6 484/3/6
f 477/1/6 478/1/6 487/1/6
f 487/1/6 478/1/6 488/1/6
f 479/2/6 480/2/6 489/2/6
f 480/1/6 481/1/6 490/1/6
f 489/2/6 480/2/6 490/2/6
f 490/1/6 481/1/6 491/1/6
f 491/1/6 481/1/6 492/1/6
f 481/2/6 482/2/6 493/2/6
f 492/1/6 481/1/6 493/1/6
f 482/1/6 483/1/6 494/1/6
f 493/2/6 482/2/6 494/2/6
f 494/1/6 483/1/6 495/1/6
f 484/1/6 485/1/6 496/1/6
f 485/2/6 486/2/6 497/2/6
f 496/1/6 485/1/6 497/1/6
f 497/2/6 486/2/6 498/2/6
f 499/1/6 500/1/6 511/1/6
f 511/1/6 500/1/6 512/1/6
f 501/1/6 502/1/6 513/1/6
f 502/2/6 503/2/6 514/2/6
f 513/1/6 502/1/6 514/1/6
f 503/1/6 504/1/6 515/1/6
f 514/2/6 503/2/6 515/2/6
f 504/1/6 505/1/6 515/1/6
f 505/2/6 506/2/6 516/2/6
f 515/1/6 505/1/6 516/1/6
f 506/1/6 507/1/6 517/1/6
f 516/2/6 506/2/6 517/2/6
f 507/2/6 508/2/6 518/2/6
f 517/1/6 507/1/6 518/1/6
f 518/2/6 508/2/6 519/2/6
f 509/1/6 510/1/6 520/1/6
f 520/1/6 510/1/6 521/1/6
f 512/3/6 513/3/6 522/3/6
f 522/3/6 513/3/6 523/3/6
f 519/3/6 520/3/6 524/3/6
f 524/3/6 520/3/6 525/3/6
f 526/3/6 527/3/6 532/3/6
f 532/3/6 527/3/6 533/3/6
f 528/3/6 529/3/6 537/3/6
f 537/3/6 529/3/6 538/3/6
f 530/2/6 531/2/6 541/2/6
f 531/1/6 532/1/6 542/1/6
f 541/2/6 531/2/6 542/2/6
f 533/2/6 534/2/6 543/2/6
f 534/1/6 535/1/6 544/1/6
f 543/2/6 534/2/6 544/2/6
f 544/1/6 535/1/6 545/1/6
f 535/2/6 536/2/6 546/2/6
f 545/1/6 535/1/6 546/1/6
f 536/1/6 537/1/6 547/1/6
f 546/2/6 536/2/6 547/2/6
f 547/1/6 537/1/6 548/1/6
f 548/1/6 537/1/6 549/1/6
f 549/1/6 537/1/6 550/1/6
f 550/1/6 537/1/6 551/1/6
f 538/1/6 539/1/6 552/1/6
f 539/2/6 540/2/6 553/2/6
f 552/1/6 539/1/6 553/1/6
f 541/1/6 542/1/6 554/1/6
f 542/1/6 532/1/6 555/1/6
f 554/1/6 542/1/6 555/1/6
f 544/1/6 545/1/6 556/1/6
f 543/1/6 544/1/6 556/1/6
f 545/2/6 546/2/6 557/2/6
f 556/1/6 545/1/6 557/1/6
f 546/1/6 547/1/6 558/1/6
f 557/2/6 546/2/6 558/2/6
f 547/1/6 548/1/6 558/1/6
f 548/2/6 549/2/6 559/2/6
f 558/1/6 548/1/6 559/1/6
f 549/1/6 550/1/6 560/1/6
f 559/2/6 549/2/6 560/2/6
f 550/2/6 551/2/6 561/2/6
f 560/1/6 550/1/6 561/1/6
f 561/2/6 551/2/6 562/2/6
f 552/2/6 553/2/6 563/2/6
f 553/2/6 540/2/6 564/2/6
f 563/2/6 553/2/6 564/2/6
f 555/3/6 556/3/6 565/3/6
f 565/3/6 556/3/6 566/3/6
f 562/3/6 563/3/6 567/3/6
f 567/3/6 563/3/6 568/3/6
f 569/3/6 570/3/6 573/3/6
f 573/3/6 570/3/6 574/3/6
f 571/3/6 572/3/6 575/3/6
f 575/3/6 572/3/6 576/3/6
