# MagicaVoxel @ Ephtracy

# group
o 

# material
mtllib Choux4.mtl
usemtl palette

# normals
vn -1 0 0
vn 1 0 0
vn 0 0 1
vn 0 0 -1
vn 0 -1 0
vn 0 1 0

# texcoords
vt 0.931641 0.5
vt 0.978516 0.5
vt 0.986328 0.5
vt 0.990234 0.5

# verts
v -0.8 0 0.3
v -0.8 0 -0.3
v -0.8 0.1 0.3
v -0.8 0.1 -0.3
v -0.7 0.1 0.4
v -0.7 0.1 0.3
v -0.7 0.1 -0.3
v -0.7 0.1 -0.4
v -0.7 0.2 0.4
v -0.7 0.2 -0.4
v -0.6 0.2 0.6
v -0.6 0.2 0.4
v -0.6 0.2 0.1
v -0.6 0.2 -0.1
v -0.6 0.2 -0.4
v -0.6 0.2 -0.6
v -0.6 0.3 0.6
v -0.6 0.3 0.1
v -0.6 0.3 -0.1
v -0.6 0.3 -0.6
v -0.4 0.1 0.7
v -0.4 0.1 0.4
v -0.4 0.1 -0.4
v -0.4 0.1 -0.7
v -0.4 0.2 0.7
v -0.4 0.2 0.6
v -0.4 0.2 0.4
v -0.4 0.2 0.1
v -0.4 0.2 -0.1
v -0.4 0.2 -0.4
v -0.4 0.2 -0.6
v -0.4 0.2 -0.7
v -0.4 0.3 0.3
v -0.4 0.3 0.1
v -0.4 0.3 -0.1
v -0.4 0.3 -0.3
v -0.4 0.6 0.3
v -0.4 0.6 -0.3
v -0.3 0 0.9
v -0.3 0 0.4
v -0.3 0 0.3
v -0.3 0 -0.3
v -0.3 0 -0.4
v -0.3 0 -0.9
v -0.3 0.1 0.9
v -0.3 0.1 0.7
v -0.3 0.1 0.4
v -0.3 0.1 0.3
v -0.3 0.1 -0.3
v -0.3 0.1 -0.4
v -0.3 0.1 -0.7
v -0.3 0.1 -0.9
v -0.3 0.3 0.4
v -0.3 0.3 0.3
v -0.3 0.3 -0.3
v -0.3 0.3 -0.4
v -0.3 0.6 0.4
v -0.3 0.6 0.3
v -0.3 0.6 -0.3
v -0.3 0.6 -0.4
v 0.1 0.2 0.6
v 0.1 0.2 0.4
v 0.1 0.2 -0.4
v 0.1 0.2 -0.6
v 0.1 0.3 0.6
v 0.1 0.3 0.4
v 0.1 0.3 -0.4
v 0.1 0.3 -0.6
v 0.3 0.5 0.3
v 0.3 0.5 -0.3
v 0.3 0.6 0.3
v 0.3 0.6 -0.3
v -0.3 0.5 0.3
v -0.3 0.5 -0.3
v -0.3 0.6 0.3
v -0.3 0.6 -0.3
v -0.1 0.2 0.6
v -0.1 0.2 0.4
v -0.1 0.2 -0.4
v -0.1 0.2 -0.6
v -0.1 0.3 0.6
v -0.1 0.3 0.4
v -0.1 0.3 -0.4
v -0.1 0.3 -0.6
v 0.3 0 0.9
v 0.3 0 0.4
v 0.3 0 0.3
v 0.3 0 -0.3
v 0.3 0 -0.4
v 0.3 0 -0.9
v 0.3 0.1 0.9
v 0.3 0.1 0.7
v 0.3 0.1 0.4
v 0.3 0.1 0.3
v 0.3 0.1 -0.3
v 0.3 0.1 -0.4
v 0.3 0.1 -0.7
v 0.3 0.1 -0.9
v 0.3 0.3 0.4
v 0.3 0.3 0.3
v 0.3 0.3 -0.3
v 0.3 0.3 -0.4
v 0.3 0.6 0.4
v 0.3 0.6 0.3
v 0.3 0.6 -0.3
v 0.3 0.6 -0.4
v 0.4 0.1 0.7
v 0.4 0.1 0.4
v 0.4 0.1 -0.4
v 0.4 0.1 -0.7
v 0.4 0.2 0.7
v 0.4 0.2 0.6
v 0.4 0.2 0.4
v 0.4 0.2 0.1
v 0.4 0.2 -0.1
v 0.4 0.2 -0.4
v 0.4 0.2 -0.6
v 0.4 0.2 -0.7
v 0.4 0.3 0.3
v 0.4 0.3 0.1
v 0.4 0.3 -0.1
v 0.4 0.3 -0.3
v 0.4 0.6 0.3
v 0.4 0.6 -0.3
v 0.6 0.2 0.6
v 0.6 0.2 0.4
v 0.6 0.2 0.1
v 0.6 0.2 -0.1
v 0.6 0.2 -0.4
v 0.6 0.2 -0.6
v 0.6 0.3 0.6
v 0.6 0.3 0.1
v 0.6 0.3 -0.1
v 0.6 0.3 -0.6
v 0.7 0.1 0.4
v 0.7 0.1 0.3
v 0.7 0.1 -0.3
v 0.7 0.1 -0.4
v 0.7 0.2 0.4
v 0.7 0.2 -0.4
v 0.8 0 0.3
v 0.8 0 -0.3
v 0.8 0.1 0.3
v 0.8 0.1 -0.3
v -0.3 0 0.9
v -0.3 0.1 0.9
v 0.3 0 0.9
v 0.3 0.1 0.9
v -0.4 0.1 0.7
v -0.4 0.2 0.7
v -0.3 0.1 0.7
v 0.3 0.1 0.7
v 0.4 0.1 0.7
v 0.4 0.2 0.7
v -0.6 0.2 0.6
v -0.6 0.3 0.6
v -0.4 0.2 0.6
v -0.1 0.2 0.6
v -0.1 0.3 0.6
v 0.1 0.2 0.6
v 0.1 0.3 0.6
v 0.4 0.2 0.6
v 0.6 0.2 0.6
v 0.6 0.3 0.6
v -0.7 0.1 0.4
v -0.7 0.2 0.4
v -0.6 0.2 0.4
v -0.4 0.1 0.4
v -0.4 0.2 0.4
v -0.3 0.3 0.4
v -0.3 0.6 0.4
v -0.1 0.2 0.4
v -0.1 0.3 0.4
v 0.1 0.2 0.4
v 0.1 0.3 0.4
v 0.3 0.3 0.4
v 0.3 0.6 0.4
v 0.4 0.1 0.4
v 0.4 0.2 0.4
v 0.6 0.2 0.4
v 0.7 0.1 0.4
v 0.7 0.2 0.4
v -0.8 0 0.3
v -0.8 0.1 0.3
v -0.7 0.1 0.3
v -0.4 0 0.3
v -0.4 0.1 0.3
v -0.4 0.3 0.3
v -0.4 0.6 0.3
v -0.3 0 0.3
v -0.3 0.1 0.3
v -0.3 0.3 0.3
v -0.3 0.6 0.3
v 0.3 0 0.3
v 0.3 0.1 0.3
v 0.3 0.3 0.3
v 0.3 0.6 0.3
v 0.4 0 0.3
v 0.4 0.1 0.3
v 0.4 0.3 0.3
v 0.4 0.6 0.3
v 0.7 0.1 0.3
v 0.8 0 0.3
v 0.8 0.1 0.3
v -0.6 0.2 -0.1
v -0.6 0.3 -0.1
v -0.4 0.2 -0.1
v -0.4 0.3 -0.1
v 0.4 0.2 -0.1
v 0.4 0.3 -0.1
v 0.6 0.2 -0.1
v 0.6 0.3 -0.1
v -0.3 0.5 -0.3
v -0.3 0.6 -0.3
v 0.3 0.5 -0.3
v 0.3 0.6 -0.3
v -0.3 0.5 0.3
v -0.3 0.6 0.3
v 0.3 0.5 0.3
v 0.3 0.6 0.3
v -0.6 0.2 0.1
v -0.6 0.3 0.1
v -0.4 0.2 0.1
v -0.4 0.3 0.1
v 0.4 0.2 0.1
v 0.4 0.3 0.1
v 0.6 0.2 0.1
v 0.6 0.3 0.1
v -0.8 0 -0.3
v -0.8 0.1 -0.3
v -0.7 0.1 -0.3
v -0.4 0 -0.3
v -0.4 0.1 -0.3
v -0.4 0.3 -0.3
v -0.4 0.6 -0.3
v -0.3 0 -0.3
v -0.3 0.1 -0.3
v -0.3 0.3 -0.3
v -0.3 0.6 -0.3
v 0.3 0 -0.3
v 0.3 0.1 -0.3
v 0.3 0.3 -0.3
v 0.3 0.6 -0.3
v 0.4 0 -0.3
v 0.4 0.1 -0.3
v 0.4 0.3 -0.3
v 0.4 0.6 -0.3
v 0.7 0.1 -0.3
v 0.8 0 -0.3
v 0.8 0.1 -0.3
v -0.7 0.1 -0.4
v -0.7 0.2 -0.4
v -0.6 0.2 -0.4
v -0.4 0.1 -0.4
v -0.4 0.2 -0.4
v -0.3 0.3 -0.4
v -0.3 0.6 -0.4
v -0.1 0.2 -0.4
v -0.1 0.3 -0.4
v 0.1 0.2 -0.4
v 0.1 0.3 -0.4
v 0.3 0.3 -0.4
v 0.3 0.6 -0.4
v 0.4 0.1 -0.4
v 0.4 0.2 -0.4
v 0.6 0.2 -0.4
v 0.7 0.1 -0.4
v 0.7 0.2 -0.4
v -0.6 0.2 -0.6
v -0.6 0.3 -0.6
v -0.4 0.2 -0.6
v -0.1 0.2 -0.6
v -0.1 0.3 -0.6
v 0.1 0.2 -0.6
v 0.1 0.3 -0.6
v 0.4 0.2 -0.6
v 0.6 0.2 -0.6
v 0.6 0.3 -0.6
v -0.4 0.1 -0.7
v -0.4 0.2 -0.7
v -0.3 0.1 -0.7
v 0.3 0.1 -0.7
v 0.4 0.1 -0.7
v 0.4 0.2 -0.7
v -0.3 0 -0.9
v -0.3 0.1 -0.9
v 0.3 0 -0.9
v 0.3 0.1 -0.9
v -0.3 0 0.9
v 0.3 0 0.9
v -0.3 0 0.4
v 0.3 0 0.4
v -0.8 0 0.3
v -0.4 0 0.3
v -0.3 0 0.3
v 0.3 0 0.3
v 0.4 0 0.3
v 0.8 0 0.3
v -0.8 0 -0.3
v -0.4 0 -0.3
v -0.3 0 -0.3
v 0.3 0 -0.3
v 0.4 0 -0.3
v 0.8 0 -0.3
v -0.3 0 -0.4
v 0.3 0 -0.4
v -0.3 0 -0.9
v 0.3 0 -0.9
v -0.4 0.1 0.7
v -0.3 0.1 0.7
v 0.3 0.1 0.7
v 0.4 0.1 0.7
v -0.7 0.1 0.4
v -0.4 0.1 0.4
v -0.3 0.1 0.4
v 0.3 0.1 0.4
v 0.4 0.1 0.4
v 0.7 0.1 0.4
v -0.7 0.1 0.3
v -0.4 0.1 0.3
v -0.3 0.1 0.3
v 0.3 0.1 0.3
v 0.4 0.1 0.3
v 0.7 0.1 0.3
v -0.7 0.1 -0.3
v -0.4 0.1 -0.3
v -0.3 0.1 -0.3
v 0.3 0.1 -0.3
v 0.4 0.1 -0.3
v 0.7 0.1 -0.3
v -0.7 0.1 -0.4
v -0.4 0.1 -0.4
v -0.3 0.1 -0.4
v 0.3 0.1 -0.4
v 0.4 0.1 -0.4
v 0.7 0.1 -0.4
v -0.4 0.1 -0.7
v -0.3 0.1 -0.7
v 0.3 0.1 -0.7
v 0.4 0.1 -0.7
v -0.6 0.2 0.6
v -0.4 0.2 0.6
v 0.4 0.2 0.6
v 0.6 0.2 0.6
v -0.6 0.2 0.4
v -0.4 0.2 0.4
v 0.4 0.2 0.4
v 0.6 0.2 0.4
v -0.6 0.2 -0.4
v -0.4 0.2 -0.4
v 0.4 0.2 -0.4
v 0.6 0.2 -0.4
v -0.6 0.2 -0.6
v -0.4 0.2 -0.6
v 0.4 0.2 -0.6
v 0.6 0.2 -0.6
v -0.3 0.1 0.9
v 0.3 0.1 0.9
v -0.3 0.1 0.7
v 0.3 0.1 0.7
v -0.8 0.1 0.3
v -0.7 0.1 0.3
v 0.7 0.1 0.3
v 0.8 0.1 0.3
v -0.8 0.1 -0.3
v -0.7 0.1 -0.3
v 0.7 0.1 -0.3
v 0.8 0.1 -0.3
v -0.3 0.1 -0.7
v 0.3 0.1 -0.7
v -0.3 0.1 -0.9
v 0.3 0.1 -0.9
v -0.4 0.2 0.7
v 0.4 0.2 0.7
v -0.4 0.2 0.6
v -0.1 0.2 0.6
v 0.1 0.2 0.6
v 0.4 0.2 0.6
v -0.7 0.2 0.4
v -0.6 0.2 0.4
v -0.1 0.2 0.4
v 0.1 0.2 0.4
v 0.6 0.2 0.4
v 0.7 0.2 0.4
v -0.6 0.2 0.1
v -0.4 0.2 0.1
v 0.4 0.2 0.1
v 0.6 0.2 0.1
v -0.6 0.2 -0.1
v -0.4 0.2 -0.1
v 0.4 0.2 -0.1
v 0.6 0.2 -0.1
v -0.7 0.2 -0.4
v -0.6 0.2 -0.4
v -0.1 0.2 -0.4
v 0.1 0.2 -0.4
v 0.6 0.2 -0.4
v 0.7 0.2 -0.4
v -0.4 0.2 -0.6
v -0.1 0.2 -0.6
v 0.1 0.2 -0.6
v 0.4 0.2 -0.6
v -0.4 0.2 -0.7
v 0.4 0.2 -0.7
v -0.6 0.3 0.6
v -0.1 0.3 0.6
v 0.1 0.3 0.6
v 0.6 0.3 0.6
v -0.3 0.3 0.4
v -0.1 0.3 0.4
v 0.1 0.3 0.4
v 0.3 0.3 0.4
v -0.4 0.3 0.3
v -0.3 0.3 0.3
v 0.3 0.3 0.3
v 0.4 0.3 0.3
v -0.6 0.3 0.1
v -0.4 0.3 0.1
v 0.4 0.3 0.1
v 0.6 0.3 0.1
v -0.6 0.3 -0.1
v -0.4 0.3 -0.1
v 0.4 0.3 -0.1
v 0.6 0.3 -0.1
v -0.4 0.3 -0.3
v -0.3 0.3 -0.3
v 0.3 0.3 -0.3
v 0.4 0.3 -0.3
v -0.3 0.3 -0.4
v -0.1 0.3 -0.4
v 0.1 0.3 -0.4
v 0.3 0.3 -0.4
v -0.6 0.3 -0.6
v -0.1 0.3 -0.6
v 0.1 0.3 -0.6
v 0.6 0.3 -0.6
v -0.3 0.5 0.3
v 0.3 0.5 0.3
v -0.3 0.5 -0.3
v 0.3 0.5 -0.3
v -0.3 0.6 0.4
v 0.3 0.6 0.4
v -0.4 0.6 0.3
v -0.3 0.6 0.3
v 0.3 0.6 0.3
v 0.4 0.6 0.3
v -0.4 0.6 -0.3
v -0.3 0.6 -0.3
v 0.3 0.6 -0.3
v 0.4 0.6 -0.3
v -0.3 0.6 -0.4
v 0.3 0.6 -0.4

# faces
f 3/4/1 2/4/1 1/4/1
f 4/4/1 2/4/1 3/4/1
f 9/3/1 6/3/1 5/3/1
f 9/3/1 8/3/1 7/3/1
f 9/3/1 7/3/1 6/3/1
f 10/3/1 8/3/1 9/3/1
f 17/2/1 12/2/1 11/2/1
f 17/2/1 13/2/1 12/2/1
f 18/2/1 13/2/1 17/2/1
f 19/2/1 16/2/1 15/2/1
f 19/2/1 15/2/1 14/2/1
f 20/2/1 16/2/1 19/2/1
f 25/3/1 22/3/1 21/3/1
f 26/3/1 22/3/1 25/3/1
f 27/3/1 22/3/1 26/3/1
f 30/3/1 24/3/1 23/3/1
f 31/3/1 24/3/1 30/3/1
f 32/3/1 24/3/1 31/3/1
f 34/3/1 29/3/1 28/3/1
f 35/3/1 29/3/1 34/3/1
f 37/3/1 34/3/1 33/3/1
f 37/3/1 36/3/1 35/3/1
f 37/3/1 35/3/1 34/3/1
f 38/3/1 36/3/1 37/3/1
f 45/4/1 40/4/1 39/4/1
f 46/4/1 40/4/1 45/4/1
f 47/3/1 41/3/1 40/3/1
f 47/4/1 40/4/1 46/4/1
f 48/3/1 41/3/1 47/3/1
f 49/3/1 43/3/1 42/3/1
f 50/4/1 44/4/1 43/4/1
f 50/3/1 43/3/1 49/3/1
f 51/4/1 44/4/1 50/4/1
f 52/4/1 44/4/1 51/4/1
f 57/3/1 54/3/1 53/3/1
f 58/3/1 54/3/1 57/3/1
f 59/3/1 56/3/1 55/3/1
f 60/3/1 56/3/1 59/3/1
f 65/2/1 62/2/1 61/2/1
f 66/2/1 62/2/1 65/2/1
f 67/2/1 64/2/1 63/2/1
f 68/2/1 64/2/1 67/2/1
f 71/3/1 70/3/1 69/3/1
f 72/3/1 70/3/1 71/3/1
f 73/3/2 74/3/2 75/3/2
f 75/3/2 74/3/2 76/3/2
f 77/2/2 78/2/2 81/2/2
f 81/2/2 78/2/2 82/2/2
f 79/2/2 80/2/2 83/2/2
f 83/2/2 80/2/2 84/2/2
f 85/4/2 86/4/2 91/4/2
f 91/4/2 86/4/2 92/4/2
f 86/3/2 87/3/2 93/3/2
f 92/4/2 86/4/2 93/4/2
f 93/3/2 87/3/2 94/3/2
f 88/3/2 89/3/2 95/3/2
f 89/4/2 90/4/2 96/4/2
f 95/3/2 89/3/2 96/3/2
f 96/4/2 90/4/2 97/4/2
f 97/4/2 90/4/2 98/4/2
f 99/3/2 100/3/2 103/3/2
f 103/3/2 100/3/2 104/3/2
f 101/3/2 102/3/2 105/3/2
f 105/3/2 102/3/2 106/3/2
f 107/3/2 108/3/2 111/3/2
f 111/3/2 108/3/2 112/3/2
f 112/3/2 108/3/2 113/3/2
f 109/3/2 110/3/2 116/3/2
f 116/3/2 110/3/2 117/3/2
f 117/3/2 110/3/2 118/3/2
f 114/3/2 115/3/2 120/3/2
f 120/3/2 115/3/2 121/3/2
f 119/3/2 120/3/2 123/3/2
f 121/3/2 122/3/2 123/3/2
f 120/3/2 121/3/2 123/3/2
f 123/3/2 122/3/2 124/3/2
f 125/2/2 126/2/2 131/2/2
f 126/2/2 127/2/2 131/2/2
f 131/2/2 127/2/2 132/2/2
f 129/2/2 130/2/2 133/2/2
f 128/2/2 129/2/2 133/2/2
f 133/2/2 130/2/2 134/2/2
f 135/3/2 136/3/2 139/3/2
f 137/3/2 138/3/2 139/3/2
f 136/3/2 137/3/2 139/3/2
f 139/3/2 138/3/2 140/3/2
f 141/4/2 142/4/2 143/4/2
f 143/4/2 142/4/2 144/4/2
f 147/4/3 146/4/3 145/4/3
f 148/4/3 146/4/3 147/4/3
f 151/3/3 150/3/3 149/3/3
f 152/3/3 150/3/3 151/3/3
f 153/3/3 150/3/3 152/3/3
f 154/3/3 150/3/3 153/3/3
f 157/2/3 156/2/3 155/2/3
f 158/2/3 156/2/3 157/2/3
f 159/2/3 156/2/3 158/2/3
f 162/2/3 161/2/3 160/2/3
f 163/2/3 161/2/3 162/2/3
f 164/2/3 161/2/3 163/2/3
f 167/3/3 166/3/3 165/3/3
f 168/3/3 167/3/3 165/3/3
f 169/3/3 167/3/3 168/3/3
f 173/3/3 171/3/3 170/3/3
f 174/3/3 173/3/3 172/3/3
f 175/3/3 171/3/3 173/3/3
f 175/3/3 173/3/3 174/3/3
f 176/3/3 171/3/3 175/3/3
f 177/3/3 171/3/3 176/3/3
f 180/3/3 179/3/3 178/3/3
f 181/3/3 180/3/3 178/3/3
f 182/3/3 180/3/3 181/3/3
f 185/4/3 184/4/3 183/4/3
f 186/4/3 185/4/3 183/4/3
f 187/4/3 185/4/3 186/4/3
f 190/3/3 187/3/3 186/3/3
f 191/3/3 187/3/3 190/3/3
f 192/3/3 189/3/3 188/3/3
f 193/3/3 189/3/3 192/3/3
f 198/3/3 195/3/3 194/3/3
f 199/3/3 195/3/3 198/3/3
f 200/3/3 197/3/3 196/3/3
f 201/3/3 197/3/3 200/3/3
f 202/4/3 199/4/3 198/4/3
f 203/4/3 202/4/3 198/4/3
f 204/4/3 202/4/3 203/4/3
f 207/2/3 206/2/3 205/2/3
f 208/2/3 206/2/3 207/2/3
f 211/2/3 210/2/3 209/2/3
f 212/2/3 210/2/3 211/2/3
f 215/3/3 214/3/3 213/3/3
f 216/3/3 214/3/3 215/3/3
f 217/3/4 218/3/4 219/3/4
f 219/3/4 218/3/4 220/3/4
f 221/2/4 222/2/4 223/2/4
f 223/2/4 222/2/4 224/2/4
f 225/2/4 226/2/4 227/2/4
f 227/2/4 226/2/4 228/2/4
f 229/4/4 230/4/4 231/4/4
f 229/4/4 231/4/4 232/4/4
f 232/4/4 231/4/4 233/4/4
f 232/3/4 233/3/4 236/3/4
f 236/3/4 233/3/4 237/3/4
f 234/3/4 235/3/4 238/3/4
f 238/3/4 235/3/4 239/3/4
f 240/3/4 241/3/4 244/3/4
f 244/3/4 241/3/4 245/3/4
f 242/3/4 243/3/4 246/3/4
f 246/3/4 243/3/4 247/3/4
f 244/4/4 245/4/4 248/4/4
f 244/4/4 248/4/4 249/4/4
f 249/4/4 248/4/4 250/4/4
f 251/3/4 252/3/4 253/3/4
f 251/3/4 253/3/4 254/3/4
f 254/3/4 253/3/4 255/3/4
f 256/3/4 257/3/4 259/3/4
f 258/3/4 259/3/4 260/3/4
f 259/3/4 257/3/4 261/3/4
f 260/3/4 259/3/4 261/3/4
f 261/3/4 257/3/4 262/3/4
f 262/3/4 257/3/4 263/3/4
f 264/3/4 265/3/4 266/3/4
f 264/3/4 266/3/4 267/3/4
f 267/3/4 266/3/4 268/3/4
f 269/2/4 270/2/4 271/2/4
f 271/2/4 270/2/4 272/2/4
f 272/2/4 270/2/4 273/2/4
f 274/2/4 275/2/4 276/2/4
f 276/2/4 275/2/4 277/2/4
f 277/2/4 275/2/4 278/2/4
f 279/3/4 280/3/4 281/3/4
f 281/3/4 280/3/4 282/3/4
f 282/3/4 280/3/4 283/3/4
f 283/3/4 280/3/4 284/3/4
f 285/4/4 286/4/4 287/4/4
f 287/4/4 286/4/4 288/4/4
f 291/4/5 290/4/5 289/4/5
f 292/4/5 290/4/5 291/4/5
f 295/3/5 292/3/5 291/3/5
f 296/3/5 292/3/5 295/3/5
f 299/4/5 294/4/5 293/4/5
f 300/3/5 295/3/5 294/3/5
f 300/4/5 294/4/5 299/4/5
f 301/2/5 296/2/5 295/2/5
f 301/3/5 295/3/5 300/3/5
f 302/3/5 297/3/5 296/3/5
f 302/2/5 296/2/5 301/2/5
f 303/4/5 298/4/5 297/4/5
f 303/3/5 297/3/5 302/3/5
f 304/4/5 298/4/5 303/4/5
f 305/3/5 302/3/5 301/3/5
f 306/3/5 302/3/5 305/3/5
f 307/4/5 306/4/5 305/4/5
f 308/4/5 306/4/5 307/4/5
f 314/3/5 310/3/5 309/3/5
f 315/3/5 310/3/5 314/3/5
f 316/3/5 312/3/5 311/3/5
f 317/3/5 312/3/5 316/3/5
f 319/3/5 315/3/5 314/3/5
f 319/3/5 314/3/5 313/3/5
f 320/3/5 315/3/5 319/3/5
f 321/3/5 315/3/5 320/3/5
f 322/3/5 318/3/5 317/3/5
f 322/3/5 317/3/5 316/3/5
f 323/3/5 318/3/5 322/3/5
f 324/3/5 318/3/5 323/3/5
f 331/3/5 326/3/5 325/3/5
f 331/3/5 327/3/5 326/3/5
f 332/3/5 327/3/5 331/3/5
f 333/3/5 327/3/5 332/3/5
f 334/3/5 330/3/5 329/3/5
f 334/3/5 329/3/5 328/3/5
f 335/3/5 330/3/5 334/3/5
f 336/3/5 330/3/5 335/3/5
f 337/3/5 333/3/5 332/3/5
f 338/3/5 333/3/5 337/3/5
f 339/3/5 335/3/5 334/3/5
f 340/3/5 335/3/5 339/3/5
f 345/2/5 342/2/5 341/2/5
f 346/2/5 342/2/5 345/2/5
f 347/2/5 344/2/5 343/2/5
f 348/2/5 344/2/5 347/2/5
f 353/2/5 350/2/5 349/2/5
f 354/2/5 350/2/5 353/2/5
f 355/2/5 352/2/5 351/2/5
f 356/2/5 352/2/5 355/2/5
f 357/4/6 358/4/6 359/4/6
f 359/4/6 358/4/6 360/4/6
f 361/4/6 362/4/6 365/4/6
f 365/4/6 362/4/6 366/4/6
f 363/4/6 364/4/6 367/4/6
f 367/4/6 364/4/6 368/4/6
f 369/4/6 370/4/6 371/4/6
f 371/4/6 370/4/6 372/4/6
f 373/3/6 374/3/6 375/3/6
f 375/3/6 374/3/6 376/3/6
f 376/3/6 374/3/6 377/3/6
f 377/3/6 374/3/6 378/3/6
f 376/3/6 377/3/6 381/3/6
f 381/3/6 377/3/6 382/3/6
f 379/3/6 380/3/6 385/3/6
f 383/3/6 384/3/6 388/3/6
f 385/3/6 386/3/6 389/3/6
f 379/3/6 385/3/6 389/3/6
f 389/3/6 386/3/6 390/3/6
f 387/3/6 388/3/6 391/3/6
f 388/3/6 384/3/6 392/3/6
f 391/3/6 388/3/6 392/3/6
f 379/3/6 389/3/6 393/3/6
f 393/3/6 389/3/6 394/3/6
f 392/3/6 384/3/6 397/3/6
f 397/3/6 384/3/6 398/3/6
f 395/3/6 396/3/6 400/3/6
f 400/3/6 396/3/6 401/3/6
f 399/3/6 400/3/6 403/3/6
f 401/3/6 402/3/6 403/3/6
f 400/3/6 401/3/6 403/3/6
f 403/3/6 402/3/6 404/3/6
f 405/2/6 406/2/6 409/2/6
f 409/2/6 406/2/6 410/2/6
f 407/2/6 408/2/6 411/2/6
f 411/2/6 408/2/6 412/2/6
f 405/2/6 409/2/6 413/2/6
f 413/2/6 409/2/6 414/2/6
f 412/2/6 408/2/6 415/2/6
f 415/2/6 408/2/6 416/2/6
f 405/2/6 413/2/6 417/2/6
f 417/2/6 413/2/6 418/2/6
f 416/2/6 408/2/6 419/2/6
f 419/2/6 408/2/6 420/2/6
f 421/2/6 422/2/6 425/2/6
f 423/2/6 424/2/6 428/2/6
f 425/2/6 426/2/6 429/2/6
f 427/2/6 428/2/6 432/2/6
f 429/2/6 430/2/6 433/2/6
f 421/2/6 425/2/6 433/2/6
f 425/2/6 429/2/6 433/2/6
f 433/2/6 430/2/6 434/2/6
f 431/2/6 432/2/6 435/2/6
f 432/2/6 428/2/6 436/2/6
f 435/2/6 432/2/6 436/2/6
f 428/2/6 424/2/6 436/2/6
f 437/1/6 438/1/6 439/1/6
f 439/1/6 438/1/6 440/1/6
f 441/3/6 442/3/6 444/3/6
f 444/3/6 442/3/6 445/3/6
f 443/3/6 444/3/6 447/3/6
f 447/3/6 444/3/6 448/3/6
f 445/3/6 446/3/6 449/3/6
f 449/3/6 446/3/6 450/3/6
f 448/3/6 449/3/6 451/3/6
f 451/3/6 449/3/6 452/3/6
