# MagicaVoxel @ Ephtracy

# group
o 

# material
mtllib Choux2.mtl
usemtl palette

# normals
vn -1 0 0
vn 1 0 0
vn 0 0 1
vn 0 0 -1
vn 0 -1 0
vn 0 1 0

# texcoords
vt 0.947266 0.5
vt 0.982422 0.5
vt 0.990234 0.5

# verts
v -0.8 0.5 0.5
v -0.8 0.5 -0.5
v -0.8 0.7 0.5
v -0.8 0.7 -0.5
v -0.7 0.5 0.7
v -0.7 0.5 0.5
v -0.7 0.5 -0.5
v -0.7 0.5 -0.7
v -0.7 0.6 0.7
v -0.7 0.6 0.5
v -0.7 0.6 -0.5
v -0.7 0.6 -0.7
v -0.5 0.5 0.8
v -0.5 0.5 0.7
v -0.5 0.5 -0.7
v -0.5 0.5 -0.8
v -0.5 0.6 0.7
v -0.5 0.6 0.5
v -0.5 0.6 -0.5
v -0.5 0.6 -0.7
v -0.5 0.7 0.8
v -0.5 0.7 0.5
v -0.5 0.7 -0.5
v -0.5 0.7 -0.8
v -0.5 0.8 0.5
v -0.5 0.8 -0.5
v -0.4 0.4 0.4
v -0.4 0.4 -0.4
v -0.4 0.5 0.4
v -0.4 0.5 -0.4
v -0.3 0.8 0.3
v -0.3 0.8 -0.3
v -0.3 0.9 0.3
v -0.3 0.9 -0.3
v -0.2 0.3 0.2
v -0.2 0.3 -0.2
v -0.2 0.4 0.2
v -0.2 0.4 -0.2
v -0.1 0 0.1
v -0.1 0 -0.1
v -0.1 0.3 0.1
v -0.1 0.3 -0.1
v 0.1 0 0.1
v 0.1 0 -0.1
v 0.1 0.3 0.1
v 0.1 0.3 -0.1
v 0.2 0.3 0.2
v 0.2 0.3 -0.2
v 0.2 0.4 0.2
v 0.2 0.4 -0.2
v 0.3 0.8 0.3
v 0.3 0.8 -0.3
v 0.3 0.9 0.3
v 0.3 0.9 -0.3
v 0.4 0.4 0.4
v 0.4 0.4 -0.4
v 0.4 0.5 0.4
v 0.4 0.5 -0.4
v 0.5 0.5 0.8
v 0.5 0.5 0.7
v 0.5 0.5 -0.7
v 0.5 0.5 -0.8
v 0.5 0.6 0.7
v 0.5 0.6 0.5
v 0.5 0.6 -0.5
v 0.5 0.6 -0.7
v 0.5 0.7 0.8
v 0.5 0.7 0.5
v 0.5 0.7 -0.5
v 0.5 0.7 -0.8
v 0.5 0.8 0.5
v 0.5 0.8 -0.5
v 0.7 0.5 0.7
v 0.7 0.5 0.5
v 0.7 0.5 -0.5
v 0.7 0.5 -0.7
v 0.7 0.6 0.7
v 0.7 0.6 0.5
v 0.7 0.6 -0.5
v 0.7 0.6 -0.7
v 0.8 0.5 0.5
v 0.8 0.5 -0.5
v 0.8 0.7 0.5
v 0.8 0.7 -0.5
v -0.5 0.5 0.8
v -0.5 0.7 0.8
v 0.5 0.5 0.8
v 0.5 0.7 0.8
v -0.7 0.5 0.7
v -0.7 0.6 0.7
v -0.5 0.5 0.7
v -0.5 0.6 0.7
v 0.5 0.5 0.7
v 0.5 0.6 0.7
v 0.7 0.5 0.7
v 0.7 0.6 0.7
v -0.8 0.5 0.5
v -0.8 0.7 0.5
v -0.7 0.5 0.5
v -0.7 0.6 0.5
v -0.5 0.6 0.5
v -0.5 0.7 0.5
v -0.5 0.8 0.5
v 0.5 0.6 0.5
v 0.5 0.7 0.5
v 0.5 0.8 0.5
v 0.7 0.5 0.5
v 0.7 0.6 0.5
v 0.8 0.5 0.5
v 0.8 0.7 0.5
v -0.4 0.4 0.4
v -0.4 0.5 0.4
v 0.4 0.4 0.4
v 0.4 0.5 0.4
v -0.3 0.8 0.3
v -0.3 0.9 0.3
v 0.3 0.8 0.3
v 0.3 0.9 0.3
v -0.2 0.3 0.2
v -0.2 0.4 0.2
v 0.2 0.3 0.2
v 0.2 0.4 0.2
v -0.1 0 0.1
v -0.1 0.3 0.1
v 0.1 0 0.1
v 0.1 0.3 0.1
v -0.1 0 -0.1
v -0.1 0.3 -0.1
v 0.1 0 -0.1
v 0.1 0.3 -0.1
v -0.2 0.3 -0.2
v -0.2 0.4 -0.2
v 0.2 0.3 -0.2
v 0.2 0.4 -0.2
v -0.3 0.8 -0.3
v -0.3 0.9 -0.3
v 0.3 0.8 -0.3
v 0.3 0.9 -0.3
v -0.4 0.4 -0.4
v -0.4 0.5 -0.4
v 0.4 0.4 -0.4
v 0.4 0.5 -0.4
v -0.8 0.5 -0.5
v -0.8 0.7 -0.5
v -0.7 0.5 -0.5
v -0.7 0.6 -0.5
v -0.5 0.6 -0.5
v -0.5 0.7 -0.5
v -0.5 0.8 -0.5
v 0.5 0.6 -0.5
v 0.5 0.7 -0.5
v 0.5 0.8 -0.5
v 0.7 0.5 -0.5
v 0.7 0.6 -0.5
v 0.8 0.5 -0.5
v 0.8 0.7 -0.5
v -0.7 0.5 -0.7
v -0.7 0.6 -0.7
v -0.5 0.5 -0.7
v -0.5 0.6 -0.7
v 0.5 0.5 -0.7
v 0.5 0.6 -0.7
v 0.7 0.5 -0.7
v 0.7 0.6 -0.7
v -0.5 0.5 -0.8
v -0.5 0.7 -0.8
v 0.5 0.5 -0.8
v 0.5 0.7 -0.8
v -0.1 0 0.1
v 0.1 0 0.1
v -0.1 0 -0.1
v 0.1 0 -0.1
v -0.2 0.3 0.2
v 0.2 0.3 0.2
v -0.1 0.3 0.1
v 0.1 0.3 0.1
v -0.1 0.3 -0.1
v 0.1 0.3 -0.1
v -0.2 0.3 -0.2
v 0.2 0.3 -0.2
v -0.4 0.4 0.4
v 0.4 0.4 0.4
v -0.2 0.4 0.2
v 0.2 0.4 0.2
v -0.2 0.4 -0.2
v 0.2 0.4 -0.2
v -0.4 0.4 -0.4
v 0.4 0.4 -0.4
v -0.5 0.5 0.8
v 0.5 0.5 0.8
v -0.7 0.5 0.7
v -0.5 0.5 0.7
v 0.5 0.5 0.7
v 0.7 0.5 0.7
v -0.8 0.5 0.5
v -0.7 0.5 0.5
v -0.5 0.5 0.5
v 0.5 0.5 0.5
v 0.7 0.5 0.5
v 0.8 0.5 0.5
v -0.4 0.5 0.4
v 0.4 0.5 0.4
v -0.4 0.5 -0.4
v 0.4 0.5 -0.4
v -0.8 0.5 -0.5
v -0.7 0.5 -0.5
v -0.5 0.5 -0.5
v 0.5 0.5 -0.5
v 0.7 0.5 -0.5
v 0.8 0.5 -0.5
v -0.7 0.5 -0.7
v -0.5 0.5 -0.7
v 0.5 0.5 -0.7
v 0.7 0.5 -0.7
v -0.5 0.5 -0.8
v 0.5 0.5 -0.8
v -0.7 0.6 0.7
v -0.5 0.6 0.7
v 0.5 0.6 0.7
v 0.7 0.6 0.7
v -0.7 0.6 0.5
v -0.5 0.6 0.5
v 0.5 0.6 0.5
v 0.7 0.6 0.5
v -0.7 0.6 -0.5
v -0.5 0.6 -0.5
v 0.5 0.6 -0.5
v 0.7 0.6 -0.5
v -0.7 0.6 -0.7
v -0.5 0.6 -0.7
v 0.5 0.6 -0.7
v 0.7 0.6 -0.7
v -0.5 0.7 0.8
v 0.5 0.7 0.8
v -0.8 0.7 0.5
v -0.5 0.7 0.5
v 0.5 0.7 0.5
v 0.8 0.7 0.5
v -0.8 0.7 -0.5
v -0.5 0.7 -0.5
v 0.5 0.7 -0.5
v 0.8 0.7 -0.5
v -0.5 0.7 -0.8
v 0.5 0.7 -0.8
v -0.5 0.8 0.5
v 0.5 0.8 0.5
v -0.3 0.8 0.3
v 0.3 0.8 0.3
v -0.3 0.8 -0.3
v 0.3 0.8 -0.3
v -0.5 0.8 -0.5
v 0.5 0.8 -0.5
v -0.3 0.9 0.3
v 0.3 0.9 0.3
v -0.3 0.9 -0.3
v 0.3 0.9 -0.3

# faces
f 3/1/1 2/1/1 1/1/1
f 4/1/1 2/1/1 3/1/1
f 9/3/1 6/3/1 5/3/1
f 10/3/1 6/3/1 9/3/1
f 11/3/1 8/3/1 7/3/1
f 12/3/1 8/3/1 11/3/1
f 17/1/1 14/1/1 13/1/1
f 20/1/1 16/1/1 15/1/1
f 21/1/1 18/1/1 17/1/1
f 21/1/1 17/1/1 13/1/1
f 22/1/1 18/1/1 21/1/1
f 23/1/1 20/1/1 19/1/1
f 24/1/1 16/1/1 20/1/1
f 24/1/1 20/1/1 23/1/1
f 25/1/1 23/1/1 22/1/1
f 26/1/1 23/1/1 25/1/1
f 29/2/1 28/2/1 27/2/1
f 30/2/1 28/2/1 29/2/1
f 33/1/1 32/1/1 31/1/1
f 34/1/1 32/1/1 33/1/1
f 37/2/1 36/2/1 35/2/1
f 38/2/1 36/2/1 37/2/1
f 41/2/1 40/2/1 39/2/1
f 42/2/1 40/2/1 41/2/1
f 43/2/2 44/2/2 45/2/2
f 45/2/2 44/2/2 46/2/2
f 47/2/2 48/2/2 49/2/2
f 49/2/2 48/2/2 50/2/2
f 51/1/2 52/1/2 53/1/2
f 53/1/2 52/1/2 54/1/2
f 55/2/2 56/2/2 57/2/2
f 57/2/2 56/2/2 58/2/2
f 59/1/2 60/1/2 63/1/2
f 61/1/2 62/1/2 66/1/2
f 63/1/2 64/1/2 67/1/2
f 59/1/2 63/1/2 67/1/2
f 67/1/2 64/1/2 68/1/2
f 65/1/2 66/1/2 69/1/2
f 66/1/2 62/1/2 70/1/2
f 69/1/2 66/1/2 70/1/2
f 68/1/2 69/1/2 71/1/2
f 71/1/2 69/1/2 72/1/2
f 73/3/2 74/3/2 77/3/2
f 77/3/2 74/3/2 78/3/2
f 75/3/2 76/3/2 79/3/2
f 79/3/2 76/3/2 80/3/2
f 81/1/2 82/1/2 83/1/2
f 83/1/2 82/1/2 84/1/2
f 87/1/3 86/1/3 85/1/3
f 88/1/3 86/1/3 87/1/3
f 91/3/3 90/3/3 89/3/3
f 92/3/3 90/3/3 91/3/3
f 95/3/3 94/3/3 93/3/3
f 96/3/3 94/3/3 95/3/3
f 99/1/3 98/1/3 97/1/3
f 100/1/3 98/1/3 99/1/3
f 101/1/3 98/1/3 100/1/3
f 102/1/3 98/1/3 101/1/3
f 105/1/3 103/1/3 102/1/3
f 106/1/3 103/1/3 105/1/3
f 108/1/3 105/1/3 104/1/3
f 109/1/3 108/1/3 107/1/3
f 110/1/3 105/1/3 108/1/3
f 110/1/3 108/1/3 109/1/3
f 113/2/3 112/2/3 111/2/3
f 114/2/3 112/2/3 113/2/3
f 117/1/3 116/1/3 115/1/3
f 118/1/3 116/1/3 117/1/3
f 121/2/3 120/2/3 119/2/3
f 122/2/3 120/2/3 121/2/3
f 125/2/3 124/2/3 123/2/3
f 126/2/3 124/2/3 125/2/3
f 127/2/4 128/2/4 129/2/4
f 129/2/4 128/2/4 130/2/4
f 131/2/4 132/2/4 133/2/4
f 133/2/4 132/2/4 134/2/4
f 135/1/4 136/1/4 137/1/4
f 137/1/4 136/1/4 138/1/4
f 139/2/4 140/2/4 141/2/4
f 141/2/4 140/2/4 142/2/4
f 143/1/4 144/1/4 145/1/4
f 145/1/4 144/1/4 146/1/4
f 146/1/4 144/1/4 147/1/4
f 147/1/4 144/1/4 148/1/4
f 148/1/4 149/1/4 151/1/4
f 151/1/4 149/1/4 152/1/4
f 150/1/4 151/1/4 154/1/4
f 153/1/4 154/1/4 155/1/4
f 154/1/4 151/1/4 156/1/4
f 155/1/4 154/1/4 156/1/4
f 157/3/4 158/3/4 159/3/4
f 159/3/4 158/3/4 160/3/4
f 161/3/4 162/3/4 163/3/4
f 163/3/4 162/3/4 164/3/4
f 165/1/4 166/1/4 167/1/4
f 167/1/4 166/1/4 168/1/4
f 171/2/5 170/2/5 169/2/5
f 172/2/5 170/2/5 171/2/5
f 175/2/5 174/2/5 173/2/5
f 176/2/5 174/2/5 175/2/5
f 177/2/5 175/2/5 173/2/5
f 178/2/5 174/2/5 176/2/5
f 179/2/5 177/2/5 173/2/5
f 179/2/5 178/2/5 177/2/5
f 180/2/5 174/2/5 178/2/5
f 180/2/5 178/2/5 179/2/5
f 183/2/5 182/2/5 181/2/5
f 184/2/5 182/2/5 183/2/5
f 185/2/5 183/2/5 181/2/5
f 186/2/5 182/2/5 184/2/5
f 187/2/5 185/2/5 181/2/5
f 187/2/5 186/2/5 185/2/5
f 188/2/5 182/2/5 186/2/5
f 188/2/5 186/2/5 187/2/5
f 192/1/5 190/1/5 189/1/5
f 193/1/5 190/1/5 192/1/5
f 196/3/5 192/3/5 191/3/5
f 196/3/5 194/3/5 193/3/5
f 196/3/5 193/3/5 192/3/5
f 197/3/5 194/3/5 196/3/5
f 198/3/5 194/3/5 197/3/5
f 199/3/5 194/3/5 198/3/5
f 201/2/5 198/2/5 197/2/5
f 202/2/5 198/2/5 201/2/5
f 203/2/5 201/2/5 197/2/5
f 204/2/5 198/2/5 202/2/5
f 205/1/5 196/1/5 195/1/5
f 206/3/5 197/3/5 196/3/5
f 206/1/5 196/1/5 205/1/5
f 207/2/5 204/2/5 203/2/5
f 207/3/5 197/3/5 206/3/5
f 207/2/5 203/2/5 197/2/5
f 208/3/5 199/3/5 198/3/5
f 208/2/5 204/2/5 207/2/5
f 208/2/5 198/2/5 204/2/5
f 209/1/5 200/1/5 199/1/5
f 209/3/5 199/3/5 208/3/5
f 210/1/5 200/1/5 209/1/5
f 211/3/5 208/3/5 207/3/5
f 211/3/5 209/3/5 208/3/5
f 211/3/5 207/3/5 206/3/5
f 212/3/5 209/3/5 211/3/5
f 213/3/5 209/3/5 212/3/5
f 214/3/5 209/3/5 213/3/5
f 215/1/5 213/1/5 212/1/5
f 216/1/5 213/1/5 215/1/5
f 217/3/6 218/3/6 221/3/6
f 221/3/6 218/3/6 222/3/6
f 219/3/6 220/3/6 223/3/6
f 223/3/6 220/3/6 224/3/6
f 225/3/6 226/3/6 229/3/6
f 229/3/6 226/3/6 230/3/6
f 227/3/6 228/3/6 231/3/6
f 231/3/6 228/3/6 232/3/6
f 233/1/6 234/1/6 236/1/6
f 236/1/6 234/1/6 237/1/6
f 235/1/6 236/1/6 239/1/6
f 239/1/6 236/1/6 240/1/6
f 237/1/6 238/1/6 241/1/6
f 241/1/6 238/1/6 242/1/6
f 240/1/6 241/1/6 243/1/6
f 243/1/6 241/1/6 244/1/6
f 245/1/6 246/1/6 247/1/6
f 247/1/6 246/1/6 248/1/6
f 245/1/6 247/1/6 249/1/6
f 248/1/6 246/1/6 250/1/6
f 245/1/6 249/1/6 251/1/6
f 249/1/6 250/1/6 251/1/6
f 250/1/6 246/1/6 252/1/6
f 251/1/6 250/1/6 252/1/6
f 253/1/6 254/1/6 255/1/6
f 255/1/6 254/1/6 256/1/6
