# MagicaVoxel @ Ephtracy

# group
o 

# material
mtllib Citrouille2.mtl
usemtl palette

# normals
vn -1 0 0
vn 1 0 0
vn 0 0 1
vn 0 0 -1
vn 0 -1 0
vn 0 1 0

# texcoords
vt 0.927734 0.5
vt 0.978516 0.5
vt 0.986328 0.5
vt 0.990234 0.5

# verts
v -0.8 0 -0.3
v -0.8 0 -0.8
v -0.8 0.1 -0.3
v -0.8 0.1 -0.8
v -0.7 0 -0.1
v -0.7 0 -0.3
v -0.7 0.1 -0.3
v -0.7 0.1 -0.4
v -0.7 0.1 -0.6
v -0.7 0.2 -0.1
v -0.7 0.2 -0.3
v -0.7 0.2 -0.4
v -0.7 0.2 -0.6
v -0.6 0 0.8
v -0.6 0 0.6
v -0.6 0.1 0.8
v -0.6 0.1 0.6
v -0.6 0.1 -0.3
v -0.6 0.1 -0.4
v -0.6 0.2 -0.2
v -0.6 0.2 -0.3
v -0.6 0.2 -0.4
v -0.6 0.2 -0.5
v -0.6 0.3 -0.2
v -0.6 0.3 -0.5
v -0.5 0.3 -0.3
v -0.5 0.3 -0.4
v -0.5 0.4 -0.1
v -0.5 0.4 -0.3
v -0.5 0.4 -0.4
v -0.5 0.5 -0.1
v -0.5 0.5 -0.3
v -0.4 0 -0.1
v -0.4 0 -0.2
v -0.4 0.1 0.4
v -0.4 0.1 -5.96046e-08
v -0.4 0.1 -0.5
v -0.4 0.1 -0.6
v -0.4 0.2 0.4
v -0.4 0.2 -5.96046e-08
v -0.4 0.2 -0.1
v -0.4 0.2 -0.2
v -0.4 0.2 -0.5
v -0.4 0.2 -0.6
v -0.4 0.4 -0.3
v -0.4 0.4 -0.4
v -0.4 0.5 -0.3
v -0.4 0.5 -0.4
v -0.2 0 0.2
v -0.2 0 -0.1
v -0.2 0.1 0.2
v -0.2 0.1 -5.96046e-08
v -0.2 0.1 -0.1
v 0.3 0 0.7
v 0.3 0 0.5
v 0.3 0.1 0.7
v 0.3 0.1 0.5
v 0.5 0 0.5
v 0.5 0 0.4
v 0.5 0.1 0.6
v 0.5 0.1 0.5
v 0.5 0.2 0.6
v 0.5 0.2 0.5
v 0.5 0.2 0.4
v 0.5 0.3 0.5
v 0.5 0.3 0.4
v -0.5 0 -0.1
v -0.5 0 -0.2
v -0.5 0.1 -0.5
v -0.5 0.1 -0.6
v -0.5 0.2 -0.1
v -0.5 0.2 -0.2
v -0.5 0.2 -0.5
v -0.5 0.2 -0.6
v -0.4 0 0.8
v -0.4 0 0.6
v -0.4 0.1 0.8
v -0.4 0.1 0.6
v -0.4 0.3 -0.3
v -0.4 0.3 -0.4
v -0.4 0.4 -0.3
v -0.4 0.4 -0.4
v -0.3 0 -0.3
v -0.3 0 -0.4
v -0.3 0 -0.6
v -0.3 0 -0.8
v -0.3 0.1 -0.6
v -0.3 0.1 -0.8
v -0.3 0.2 -0.2
v -0.3 0.2 -0.3
v -0.3 0.2 -0.4
v -0.3 0.2 -0.5
v -0.3 0.3 -0.2
v -0.3 0.3 -0.5
v -0.3 0.4 -0.1
v -0.3 0.4 -0.3
v -0.3 0.5 -0.1
v -0.3 0.5 -0.3
v -0.2 0 -0.4
v -0.2 0 -0.6
v -0.2 0.1 -0.1
v -0.2 0.1 -0.3
v -0.2 0.2 -0.1
v -0.2 0.2 -0.3
v -0.2 0.2 -0.4
v -0.2 0.2 -0.6
v -0.2 0.4 -0.3
v -0.2 0.4 -0.4
v -0.2 0.5 -0.3
v -0.2 0.5 -0.4
v 5.96046e-08 0.1 0.4
v 5.96046e-08 0.1 0.2
v 5.96046e-08 0.1 -5.96046e-08
v 5.96046e-08 0.2 0.4
v 5.96046e-08 0.2 -5.96046e-08
v 0.3 0 0.2
v 0.3 0 -0.3
v 0.3 0.1 0.2
v 0.3 0.1 -0.3
v 0.5 0 0.7
v 0.5 0 0.6
v 0.5 0.1 0.7
v 0.5 0.1 0.6
v 0.6 0.2 0.5
v 0.6 0.2 0.4
v 0.6 0.3 0.5
v 0.6 0.3 0.4
v 0.7 0 0.6
v 0.7 0 0.4
v 0.7 0.2 0.6
v 0.7 0.2 0.4
v -0.6 0 0.8
v -0.6 0.1 0.8
v -0.4 0 0.8
v -0.4 0.1 0.8
v 0.3 0 0.7
v 0.3 0.1 0.7
v 0.5 0 0.7
v 0.5 0.1 0.7
v 0.5 0 0.6
v 0.5 0.1 0.6
v 0.5 0.2 0.6
v 0.7 0 0.6
v 0.7 0.2 0.6
v 0.5 0.2 0.5
v 0.5 0.3 0.5
v 0.6 0.2 0.5
v 0.6 0.3 0.5
v -0.4 0.1 0.4
v -0.4 0.2 0.4
v 5.96046e-08 0.1 0.4
v 5.96046e-08 0.2 0.4
v -0.2 0 0.2
v -0.2 0.1 0.2
v 5.96046e-08 0.1 0.2
v 0.3 0 0.2
v 0.3 0.1 0.2
v -0.7 0 -0.1
v -0.7 0.2 -0.1
v -0.5 0 -0.1
v -0.5 0.2 -0.1
v -0.5 0.4 -0.1
v -0.5 0.5 -0.1
v -0.4 0 -0.1
v -0.4 0.2 -0.1
v -0.3 0.4 -0.1
v -0.3 0.5 -0.1
v -0.2 0 -0.1
v -0.2 0.1 -0.1
v -0.2 0.2 -0.1
v -0.6 0.2 -0.2
v -0.6 0.3 -0.2
v -0.5 0 -0.2
v -0.5 0.2 -0.2
v -0.4 0 -0.2
v -0.4 0.2 -0.2
v -0.3 0.2 -0.2
v -0.3 0.3 -0.2
v -0.8 0 -0.3
v -0.8 0.1 -0.3
v -0.7 0 -0.3
v -0.7 0.1 -0.3
v -0.5 0.3 -0.3
v -0.5 0.4 -0.3
v -0.4 0.3 -0.3
v -0.4 0.4 -0.3
v -0.3 0.4 -0.3
v -0.3 0.5 -0.3
v -0.2 0.4 -0.3
v -0.2 0.5 -0.3
v -0.7 0.1 -0.4
v -0.7 0.2 -0.4
v -0.6 0.1 -0.4
v -0.6 0.2 -0.4
v -0.3 0 -0.4
v -0.3 0.2 -0.4
v -0.2 0 -0.4
v -0.2 0.2 -0.4
v -0.6 0 0.6
v -0.6 0.1 0.6
v -0.4 0 0.6
v -0.4 0.1 0.6
v 0.3 0 0.5
v 0.3 0.1 0.5
v 0.5 0 0.5
v 0.5 0.1 0.5
v 0.5 0 0.4
v 0.5 0.2 0.4
v 0.5 0.3 0.4
v 0.6 0.2 0.4
v 0.6 0.3 0.4
v 0.7 0 0.4
v 0.7 0.2 0.4
v -0.4 0.1 -5.96046e-08
v -0.4 0.2 -5.96046e-08
v -0.2 0.1 -5.96046e-08
v 5.96046e-08 0.1 -5.96046e-08
v 5.96046e-08 0.2 -5.96046e-08
v -0.7 0.1 -0.3
v -0.7 0.2 -0.3
v -0.6 0.1 -0.3
v -0.6 0.2 -0.3
v -0.5 0.4 -0.3
v -0.5 0.5 -0.3
v -0.4 0.4 -0.3
v -0.4 0.5 -0.3
v -0.3 0 -0.3
v -0.3 0.2 -0.3
v -0.2 0 -0.3
v -0.2 0.1 -0.3
v -0.2 0.2 -0.3
v 0.3 0 -0.3
v 0.3 0.1 -0.3
v -0.5 0.3 -0.4
v -0.5 0.4 -0.4
v -0.4 0.3 -0.4
v -0.4 0.4 -0.4
v -0.4 0.5 -0.4
v -0.2 0.4 -0.4
v -0.2 0.5 -0.4
v -0.6 0.2 -0.5
v -0.6 0.3 -0.5
v -0.5 0.1 -0.5
v -0.5 0.2 -0.5
v -0.4 0.1 -0.5
v -0.4 0.2 -0.5
v -0.3 0.2 -0.5
v -0.3 0.3 -0.5
v -0.7 0.1 -0.6
v -0.7 0.2 -0.6
v -0.5 0.1 -0.6
v -0.5 0.2 -0.6
v -0.4 0.1 -0.6
v -0.4 0.2 -0.6
v -0.3 0 -0.6
v -0.3 0.1 -0.6
v -0.2 0 -0.6
v -0.2 0.2 -0.6
v -0.8 0 -0.8
v -0.8 0.1 -0.8
v -0.3 0 -0.8
v -0.3 0.1 -0.8
v -0.6 0 0.8
v -0.4 0 0.8
v 0.3 0 0.7
v 0.5 0 0.7
v -0.6 0 0.6
v -0.4 0 0.6
v 0.5 0 0.6
v 0.7 0 0.6
v 0.3 0 0.5
v 0.5 0 0.5
v 0.5 0 0.4
v 0.7 0 0.4
v -0.2 0 0.2
v 0.3 0 0.2
v -0.7 0 -0.1
v -0.5 0 -0.1
v -0.4 0 -0.1
v -0.2 0 -0.1
v -0.5 0 -0.2
v -0.4 0 -0.2
v -0.8 0 -0.3
v -0.7 0 -0.3
v -0.6 0 -0.3
v -0.3 0 -0.3
v -0.2 0 -0.3
v 0.3 0 -0.3
v -0.7 0 -0.4
v -0.6 0 -0.4
v -0.3 0 -0.4
v -0.2 0 -0.4
v -0.5 0 -0.5
v -0.4 0 -0.5
v -0.7 0 -0.6
v -0.5 0 -0.6
v -0.4 0 -0.6
v -0.3 0 -0.6
v -0.2 0 -0.6
v -0.8 0 -0.8
v -0.3 0 -0.8
v -0.4 0.1 0.4
v 5.96046e-08 0.1 0.4
v -0.2 0.1 0.2
v 5.96046e-08 0.1 0.2
v -0.4 0.1 -5.96046e-08
v -0.2 0.1 -5.96046e-08
v -0.5 0.4 -0.1
v -0.3 0.4 -0.1
v -0.5 0.4 -0.3
v -0.4 0.4 -0.3
v -0.3 0.4 -0.3
v -0.2 0.4 -0.3
v -0.4 0.4 -0.4
v -0.2 0.4 -0.4
v -0.6 0.1 0.8
v -0.4 0.1 0.8
v 0.3 0.1 0.7
v 0.5 0.1 0.7
v -0.6 0.1 0.6
v -0.4 0.1 0.6
v 0.5 0.1 0.6
v 0.3 0.1 0.5
v 0.5 0.1 0.5
v 5.96046e-08 0.1 0.2
v 0.3 0.1 0.2
v -0.2 0.1 -5.96046e-08
v 5.96046e-08 0.1 -5.96046e-08
v -0.2 0.1 -0.1
v -0.8 0.1 -0.3
v -0.7 0.1 -0.3
v -0.6 0.1 -0.3
v -0.2 0.1 -0.3
v 0.3 0.1 -0.3
v -0.7 0.1 -0.4
v -0.6 0.1 -0.4
v -0.5 0.1 -0.5
v -0.4 0.1 -0.5
v -0.7 0.1 -0.6
v -0.5 0.1 -0.6
v -0.4 0.1 -0.6
v -0.3 0.1 -0.6
v -0.8 0.1 -0.8
v -0.3 0.1 -0.8
v 0.5 0.2 0.6
v 0.7 0.2 0.6
v 0.5 0.2 0.5
v 0.6 0.2 0.5
v -0.4 0.2 0.4
v 5.96046e-08 0.2 0.4
v 0.6 0.2 0.4
v 0.7 0.2 0.4
v -0.4 0.2 -5.96046e-08
v 5.96046e-08 0.2 -5.96046e-08
v -0.7 0.2 -0.1
v -0.5 0.2 -0.1
v -0.4 0.2 -0.1
v -0.2 0.2 -0.1
v -0.6 0.2 -0.2
v -0.5 0.2 -0.2
v -0.4 0.2 -0.2
v -0.3 0.2 -0.2
v -0.7 0.2 -0.3
v -0.6 0.2 -0.3
v -0.3 0.2 -0.3
v -0.2 0.2 -0.3
v -0.7 0.2 -0.4
v -0.6 0.2 -0.4
v -0.3 0.2 -0.4
v -0.2 0.2 -0.4
v -0.6 0.2 -0.5
v -0.5 0.2 -0.5
v -0.4 0.2 -0.5
v -0.3 0.2 -0.5
v -0.7 0.2 -0.6
v -0.5 0.2 -0.6
v -0.4 0.2 -0.6
v -0.2 0.2 -0.6
v 0.5 0.3 0.5
v 0.6 0.3 0.5
v 0.5 0.3 0.4
v 0.6 0.3 0.4
v -0.6 0.3 -0.2
v -0.3 0.3 -0.2
v -0.5 0.3 -0.3
v -0.4 0.3 -0.3
v -0.5 0.3 -0.4
v -0.4 0.3 -0.4
v -0.6 0.3 -0.5
v -0.3 0.3 -0.5
v -0.5 0.4 -0.3
v -0.4 0.4 -0.3
v -0.5 0.4 -0.4
v -0.4 0.4 -0.4
v -0.5 0.5 -0.1
v -0.3 0.5 -0.1
v -0.5 0.5 -0.3
v -0.4 0.5 -0.3
v -0.3 0.5 -0.3
v -0.2 0.5 -0.3
v -0.4 0.5 -0.4
v -0.2 0.5 -0.4

# faces
f 3/3/1 2/3/1 1/3/1
f 4/3/1 2/3/1 3/3/1
f 7/1/1 6/1/1 5/1/1
f 10/1/1 7/1/1 5/1/1
f 11/1/1 7/1/1 10/1/1
f 12/1/1 9/1/1 8/1/1
f 13/1/1 9/1/1 12/1/1
f 16/3/1 15/3/1 14/3/1
f 17/3/1 15/3/1 16/3/1
f 21/1/1 19/1/1 18/1/1
f 22/1/1 19/1/1 21/1/1
f 24/1/1 21/1/1 20/1/1
f 24/1/1 23/1/1 22/1/1
f 24/1/1 22/1/1 21/1/1
f 25/1/1 23/1/1 24/1/1
f 29/2/1 27/2/1 26/2/1
f 30/2/1 27/2/1 29/2/1
f 31/3/1 29/3/1 28/3/1
f 32/3/1 29/3/1 31/3/1
f 39/4/1 36/4/1 35/4/1
f 40/4/1 36/4/1 39/4/1
f 41/1/1 34/1/1 33/1/1
f 42/1/1 34/1/1 41/1/1
f 43/1/1 38/1/1 37/1/1
f 44/1/1 38/1/1 43/1/1
f 47/2/1 46/2/1 45/2/1
f 48/2/1 46/2/1 47/2/1
f 51/4/1 50/4/1 49/4/1
f 52/4/1 50/4/1 51/4/1
f 53/4/1 50/4/1 52/4/1
f 56/3/1 55/3/1 54/3/1
f 57/3/1 55/3/1 56/3/1
f 61/1/1 59/1/1 58/1/1
f 62/1/1 61/1/1 60/1/1
f 63/1/1 59/1/1 61/1/1
f 63/1/1 61/1/1 62/1/1
f 64/1/1 59/1/1 63/1/1
f 65/2/1 64/2/1 63/2/1
f 66/2/1 64/2/1 65/2/1
f 67/1/2 68/1/2 71/1/2
f 71/1/2 68/1/2 72/1/2
f 69/1/2 70/1/2 73/1/2
f 73/1/2 70/1/2 74/1/2
f 75/3/2 76/3/2 77/3/2
f 77/3/2 76/3/2 78/3/2
f 79/2/2 80/2/2 81/2/2
f 81/2/2 80/2/2 82/2/2
f 85/3/2 86/3/2 87/3/2
f 87/3/2 86/3/2 88/3/2
f 83/1/2 84/1/2 90/1/2
f 90/1/2 84/1/2 91/1/2
f 89/1/2 90/1/2 93/1/2
f 91/1/2 92/1/2 93/1/2
f 90/1/2 91/1/2 93/1/2
f 93/1/2 92/1/2 94/1/2
f 95/3/2 96/3/2 97/3/2
f 97/3/2 96/3/2 98/3/2
f 101/1/2 102/1/2 103/1/2
f 103/1/2 102/1/2 104/1/2
f 99/1/2 100/1/2 105/1/2
f 105/1/2 100/1/2 106/1/2
f 107/2/2 108/2/2 109/2/2
f 109/2/2 108/2/2 110/2/2
f 111/4/2 112/4/2 114/4/2
f 112/4/2 113/4/2 114/4/2
f 114/4/2 113/4/2 115/4/2
f 116/4/2 117/4/2 118/4/2
f 118/4/2 117/4/2 119/4/2
f 120/3/2 121/3/2 122/3/2
f 122/3/2 121/3/2 123/3/2
f 124/2/2 125/2/2 126/2/2
f 126/2/2 125/2/2 127/2/2
f 128/1/2 129/1/2 130/1/2
f 130/1/2 129/1/2 131/1/2
f 134/3/3 133/3/3 132/3/3
f 135/3/3 133/3/3 134/3/3
f 138/3/3 137/3/3 136/3/3
f 139/3/3 137/3/3 138/3/3
f 143/1/3 141/1/3 140/1/3
f 143/1/3 142/1/3 141/1/3
f 144/1/3 142/1/3 143/1/3
f 147/2/3 146/2/3 145/2/3
f 148/2/3 146/2/3 147/2/3
f 151/4/3 150/4/3 149/4/3
f 152/4/3 150/4/3 151/4/3
f 155/4/3 154/4/3 153/4/3
f 156/4/3 155/4/3 153/4/3
f 157/4/3 155/4/3 156/4/3
f 160/1/3 159/1/3 158/1/3
f 161/1/3 159/1/3 160/1/3
f 166/3/3 163/3/3 162/3/3
f 167/3/3 163/3/3 166/3/3
f 168/1/3 165/1/3 164/1/3
f 169/1/3 165/1/3 168/1/3
f 170/1/3 165/1/3 169/1/3
f 174/1/3 172/1/3 171/1/3
f 175/1/3 174/1/3 173/1/3
f 176/1/3 172/1/3 174/1/3
f 176/1/3 174/1/3 175/1/3
f 177/1/3 172/1/3 176/1/3
f 178/1/3 172/1/3 177/1/3
f 181/3/3 180/3/3 179/3/3
f 182/3/3 180/3/3 181/3/3
f 185/2/3 184/2/3 183/2/3
f 186/2/3 184/2/3 185/2/3
f 189/2/3 188/2/3 187/2/3
f 190/2/3 188/2/3 189/2/3
f 193/1/3 192/1/3 191/1/3
f 194/1/3 192/1/3 193/1/3
f 197/1/3 196/1/3 195/1/3
f 198/1/3 196/1/3 197/1/3
f 199/3/4 200/3/4 201/3/4
f 201/3/4 200/3/4 202/3/4
f 203/3/4 204/3/4 205/3/4
f 205/3/4 204/3/4 206/3/4
f 207/1/4 208/1/4 210/1/4
f 208/2/4 209/2/4 210/2/4
f 210/2/4 209/2/4 211/2/4
f 207/1/4 210/1/4 212/1/4
f 212/1/4 210/1/4 213/1/4
f 214/4/4 215/4/4 216/4/4
f 216/4/4 215/4/4 217/4/4
f 217/4/4 215/4/4 218/4/4
f 219/1/4 220/1/4 221/1/4
f 221/1/4 220/1/4 222/1/4
f 223/3/4 224/3/4 225/3/4
f 225/3/4 224/3/4 226/3/4
f 227/1/4 228/1/4 229/1/4
f 229/1/4 228/1/4 230/1/4
f 230/1/4 228/1/4 231/1/4
f 229/4/4 230/4/4 232/4/4
f 232/4/4 230/4/4 233/4/4
f 234/2/4 235/2/4 236/2/4
f 236/2/4 235/2/4 237/2/4
f 237/2/4 238/2/4 239/2/4
f 239/2/4 238/2/4 240/2/4
f 241/1/4 242/1/4 244/1/4
f 243/1/4 244/1/4 245/1/4
f 244/1/4 242/1/4 246/1/4
f 245/1/4 244/1/4 246/1/4
f 246/1/4 242/1/4 247/1/4
f 247/1/4 242/1/4 248/1/4
f 249/1/4 250/1/4 251/1/4
f 251/1/4 250/1/4 252/1/4
f 253/1/4 254/1/4 256/1/4
f 255/1/4 256/1/4 257/1/4
f 256/1/4 254/1/4 258/1/4
f 257/1/4 256/1/4 258/1/4
f 259/3/4 260/3/4 261/3/4
f 261/3/4 260/3/4 262/3/4
f 267/3/5 264/3/5 263/3/5
f 268/3/5 264/3/5 267/3/5
f 269/3/5 266/3/5 265/3/5
f 271/3/5 269/3/5 265/3/5
f 272/1/5 270/1/5 269/1/5
f 272/3/5 269/3/5 271/3/5
f 273/1/5 270/1/5 272/1/5
f 274/1/5 270/1/5 273/1/5
f 280/4/5 276/4/5 275/4/5
f 281/1/5 278/1/5 277/1/5
f 282/1/5 280/1/5 279/1/5
f 284/1/5 281/1/5 277/1/5
f 284/1/5 282/1/5 281/1/5
f 285/1/5 282/1/5 284/1/5
f 286/1/5 280/1/5 282/1/5
f 286/1/5 282/1/5 285/1/5
f 287/4/5 276/4/5 280/4/5
f 287/1/5 280/1/5 286/1/5
f 288/4/5 276/4/5 287/4/5
f 289/3/5 285/3/5 284/3/5
f 289/3/5 284/3/5 283/3/5
f 290/1/5 286/1/5 285/1/5
f 290/3/5 285/3/5 289/3/5
f 291/1/5 286/1/5 290/1/5
f 293/1/5 290/1/5 289/1/5
f 293/1/5 292/1/5 291/1/5
f 293/1/5 291/1/5 290/1/5
f 294/1/5 292/1/5 293/1/5
f 295/3/5 289/3/5 283/3/5
f 295/1/5 293/1/5 289/1/5
f 296/3/5 294/3/5 293/3/5
f 296/1/5 293/1/5 295/1/5
f 297/1/5 292/1/5 294/1/5
f 297/3/5 294/3/5 296/3/5
f 298/1/5 292/1/5 297/1/5
f 299/1/5 292/1/5 298/1/5
f 300/3/5 296/3/5 295/3/5
f 300/3/5 295/3/5 283/3/5
f 300/3/5 298/3/5 297/3/5
f 300/3/5 297/3/5 296/3/5
f 301/3/5 298/3/5 300/3/5
f 304/4/5 303/4/5 302/4/5
f 305/4/5 303/4/5 304/4/5
f 306/4/5 304/4/5 302/4/5
f 307/4/5 304/4/5 306/4/5
f 310/3/5 309/3/5 308/3/5
f 311/3/5 309/3/5 310/3/5
f 312/3/5 309/3/5 311/3/5
f 314/2/5 313/2/5 312/2/5
f 314/2/5 312/2/5 311/2/5
f 315/2/5 313/2/5 314/2/5
f 316/3/6 317/3/6 320/3/6
f 320/3/6 317/3/6 321/3/6
f 318/3/6 319/3/6 322/3/6
f 318/3/6 322/3/6 323/3/6
f 323/3/6 322/3/6 324/3/6
f 325/4/6 326/4/6 328/4/6
f 327/4/6 328/4/6 329/4/6
f 329/4/6 328/4/6 333/4/6
f 328/4/6 326/4/6 334/4/6
f 333/4/6 328/4/6 334/4/6
f 331/3/6 332/3/6 335/3/6
f 330/3/6 331/3/6 335/3/6
f 335/3/6 332/3/6 336/3/6
f 330/3/6 335/3/6 339/3/6
f 337/3/6 338/3/6 340/3/6
f 340/3/6 338/3/6 341/3/6
f 330/3/6 339/3/6 343/3/6
f 341/3/6 342/3/6 343/3/6
f 340/3/6 341/3/6 343/3/6
f 339/3/6 340/3/6 343/3/6
f 343/3/6 342/3/6 344/3/6
f 345/1/6 346/1/6 347/1/6
f 347/1/6 346/1/6 348/1/6
f 348/1/6 346/1/6 351/1/6
f 351/1/6 346/1/6 352/1/6
f 349/4/6 350/4/6 353/4/6
f 353/4/6 350/4/6 354/4/6
f 355/1/6 356/1/6 359/1/6
f 359/1/6 356/1/6 360/1/6
f 357/1/6 358/1/6 361/1/6
f 361/1/6 358/1/6 362/1/6
f 355/1/6 359/1/6 363/1/6
f 363/1/6 359/1/6 364/1/6
f 362/1/6 358/1/6 365/1/6
f 365/1/6 358/1/6 366/1/6
f 367/1/6 368/1/6 371/1/6
f 369/1/6 370/1/6 374/1/6
f 371/1/6 372/1/6 375/1/6
f 367/1/6 371/1/6 375/1/6
f 375/1/6 372/1/6 376/1/6
f 373/1/6 374/1/6 377/1/6
f 374/1/6 370/1/6 378/1/6
f 377/1/6 374/1/6 378/1/6
f 379/2/6 380/2/6 381/2/6
f 381/2/6 380/2/6 382/2/6
f 383/1/6 384/1/6 385/1/6
f 385/1/6 384/1/6 386/1/6
f 383/1/6 385/1/6 387/1/6
f 386/1/6 384/1/6 388/1/6
f 383/1/6 387/1/6 389/1/6
f 387/1/6 388/1/6 389/1/6
f 388/1/6 384/1/6 390/1/6
f 389/1/6 388/1/6 390/1/6
f 391/2/6 392/2/6 393/2/6
f 393/2/6 392/2/6 394/2/6
f 395/3/6 396/3/6 397/3/6
f 397/3/6 396/3/6 398/3/6
f 398/3/6 396/3/6 399/3/6
f 399/2/6 400/2/6 401/2/6
f 398/2/6 399/2/6 401/2/6
f 401/2/6 400/2/6 402/2/6
