# MagicaVoxel @ Ephtracy

# group
o 

# material
mtllib Citrouille4.mtl
usemtl palette

# normals
vn -1 0 0
vn 1 0 0
vn 0 0 1
vn 0 0 -1
vn 0 -1 0
vn 0 1 0

# texcoords
vt 0.927734 0.5
vt 0.978516 0.5
vt 0.986328 0.5
vt 0.990234 0.5

# verts
v -0.7 0 -0.2
v -0.7 0 -0.4
v -0.7 0.2 -0.2
v -0.7 0.2 -0.4
v -0.6 0 -0.4
v -0.6 0 -0.6
v -0.6 0.1 -0.4
v -0.6 0.1 -0.6
v -0.6 0.2 -0.2
v -0.6 0.2 -0.3
v -0.6 0.3 -0.2
v -0.6 0.3 -0.3
v -0.5 0.3 -0.2
v -0.5 0.3 -0.3
v -0.5 0.4 -0.2
v -0.5 0.4 -0.3
v -0.4 0.2 0.2
v -0.4 0.2 0
v -0.4 0.3 0.2
v -0.4 0.3 0
v -0.3 0 0.4
v -0.3 0 0.2
v -0.3 0.1 -0.2
v -0.3 0.1 -0.3
v -0.3 0.2 0.4
v -0.3 0.2 0.2
v -0.3 0.3 -0.2
v -0.3 0.3 -0.3
v -0.3 0.4 -0.2
v -0.3 0.4 -0.3
v -0.3 0.4 -0.5
v -0.3 0.5 -0.2
v -0.3 0.5 -0.5
v -0.2 0 0.1
v -0.2 0 0
v -0.2 0.2 0.3
v -0.2 0.2 0.2
v -0.2 0.2 0.1
v -0.2 0.2 0
v -0.2 0.3 0.3
v -0.2 0.3 0.2
v 0 0 -0.5
v 0 0 -0.6
v 0 0.2 -0.5
v 0 0.2 -0.6
v 0.1 0 0.1
v 0.1 0 0
v 0.1 0.2 -0.5
v 0.1 0.2 -0.6
v 0.1 0.3 0.2
v 0.1 0.3 0.1
v 0.1 0.3 -0.5
v 0.1 0.3 -0.6
v 0.1 0.4 0.2
v 0.1 0.4 0.1
v 0.1 0.5 0.1
v 0.1 0.5 0
v 0.2 0 -0.5
v 0.2 0 -0.7
v 0.2 0.2 -0.5
v 0.2 0.2 -0.6
v 0.2 0.2 -0.7
v 0.3 0 -0.2
v 0.3 0 -0.3
v 0.3 0.2 -0.2
v 0.3 0.2 -0.3
v 0.4 0 0.1
v 0.4 0 -0.1
v 0.4 0 -0.3
v 0.4 0 -0.5
v 0.4 0.1 -0.3
v 0.4 0.1 -0.5
v 0.4 0.2 0.1
v 0.4 0.2 0
v 0.4 0.2 -0.1
v 0.4 0.2 -0.2
v 0.4 0.2 -0.3
v 0.4 0.3 0
v 0.4 0.3 -0.3
v -0.5 0.1 -0.2
v -0.5 0.1 -0.4
v -0.5 0.2 -0.2
v -0.5 0.2 -0.3
v -0.5 0.2 -0.4
v -0.5 0.3 -0.2
v -0.5 0.3 -0.3
v -0.2 0 -0.2
v -0.2 0 -0.3
v -0.2 0 -0.6
v -0.2 0.1 -0.3
v -0.2 0.1 -0.6
v -0.2 0.2 0.1
v -0.2 0.2 0
v -0.2 0.3 0.1
v -0.2 0.3 0
v -0.2 0.4 -0.2
v -0.2 0.4 -0.3
v -0.1 0 0.4
v -0.1 0 0.2
v -0.1 0 0.1
v -0.1 0 0
v -0.1 0.2 0.4
v -0.1 0.2 0.3
v -0.1 0.2 0.2
v -0.1 0.2 0.1
v -0.1 0.2 0
v -0.1 0.3 0.3
v -0.1 0.3 0.1
v 0 0.4 -0.2
v 0 0.4 -0.5
v 0 0.5 -0.2
v 0 0.5 -0.5
v 0.1 0 -0.5
v 0.1 0 -0.6
v 0.1 0.2 -0.5
v 0.1 0.2 -0.6
v 0.2 0 0.1
v 0.2 0 0
v 0.2 0.3 0.1
v 0.2 0.3 0
v 0.2 0.4 0.1
v 0.2 0.4 0
v 0.2 0.5 0.1
v 0.2 0.5 0
v 0.3 0.2 -0.5
v 0.3 0.2 -0.6
v 0.3 0.3 0.2
v 0.3 0.3 0
v 0.3 0.3 -0.5
v 0.3 0.3 -0.6
v 0.3 0.4 0.2
v 0.3 0.4 0
v 0.4 0 -0.2
v 0.4 0 -0.3
v 0.4 0 -0.6
v 0.4 0 -0.7
v 0.4 0.1 -0.3
v 0.4 0.1 -0.5
v 0.4 0.1 -0.6
v 0.4 0.2 -0.2
v 0.4 0.2 -0.3
v 0.4 0.2 -0.5
v 0.4 0.2 -0.7
v 0.5 0.2 0
v 0.5 0.2 -0.1
v 0.5 0.2 -0.3
v 0.5 0.3 0
v 0.5 0.3 -0.3
v 0.6 0 0.1
v 0.6 0 -0.1
v 0.6 0.2 0.1
v 0.6 0.2 -0.1
v 0.7 0 -0.3
v 0.7 0 -0.6
v 0.7 0.1 -0.3
v 0.7 0.1 -0.6
v -0.3 0 0.4
v -0.3 0.2 0.4
v -0.1 0 0.4
v -0.1 0.2 0.4
v -0.2 0.2 0.3
v -0.2 0.3 0.3
v -0.1 0.2 0.3
v -0.1 0.3 0.3
v -0.4 0.2 0.2
v -0.4 0.3 0.2
v -0.3 0.2 0.2
v -0.2 0.2 0.2
v -0.2 0.3 0.2
v 0.1 0.3 0.2
v 0.1 0.4 0.2
v 0.3 0.3 0.2
v 0.3 0.4 0.2
v -0.2 0 0.1
v -0.2 0.2 0.1
v -0.1 0 0.1
v -0.1 0.2 0.1
v 0.1 0 0.1
v 0.1 0.3 0.1
v 0.1 0.4 0.1
v 0.1 0.5 0.1
v 0.2 0 0.1
v 0.2 0.3 0.1
v 0.2 0.4 0.1
v 0.2 0.5 0.1
v 0.4 0 0.1
v 0.4 0.2 0.1
v 0.6 0 0.1
v 0.6 0.2 0.1
v 0.4 0.2 0
v 0.4 0.3 0
v 0.5 0.2 0
v 0.5 0.3 0
v -0.7 0 -0.2
v -0.7 0.2 -0.2
v -0.6 0.2 -0.2
v -0.6 0.3 -0.2
v -0.5 0 -0.2
v -0.5 0.1 -0.2
v -0.5 0.2 -0.2
v -0.5 0.3 -0.2
v -0.5 0.4 -0.2
v -0.3 0 -0.2
v -0.3 0.1 -0.2
v -0.3 0.3 -0.2
v -0.3 0.4 -0.2
v -0.3 0.5 -0.2
v -0.2 0 -0.2
v -0.2 0.4 -0.2
v 0 0.4 -0.2
v 0 0.5 -0.2
v 0.3 0 -0.2
v 0.3 0.2 -0.2
v 0.4 0 -0.2
v 0.4 0.2 -0.2
v 0.4 0 -0.3
v 0.4 0.1 -0.3
v 0.7 0 -0.3
v 0.7 0.1 -0.3
v 0 0 -0.5
v 0 0.2 -0.5
v 0.1 0 -0.5
v 0.1 0.2 -0.5
v 0.1 0.3 -0.5
v 0.2 0 -0.5
v 0.2 0.2 -0.5
v 0.3 0.2 -0.5
v 0.3 0.3 -0.5
v 0.4 0 -0.5
v 0.4 0.1 -0.5
v 0.4 0.2 -0.5
v -0.3 0 0.2
v -0.3 0.2 0.2
v -0.2 0.2 0.2
v -0.1 0 0.2
v -0.1 0.2 0.2
v -0.2 0.2 0.1
v -0.2 0.3 0.1
v -0.1 0.2 0.1
v -0.1 0.3 0.1
v -0.4 0.2 0
v -0.4 0.3 0
v -0.2 0 0
v -0.2 0.2 0
v -0.2 0.3 0
v -0.1 0 0
v -0.1 0.2 0
v 0.1 0 0
v 0.1 0.5 0
v 0.2 0 0
v 0.2 0.3 0
v 0.2 0.4 0
v 0.2 0.5 0
v 0.3 0.3 0
v 0.3 0.4 0
v 0.4 0 -0.1
v 0.4 0.2 -0.1
v 0.5 0.2 -0.1
v 0.6 0 -0.1
v 0.6 0.2 -0.1
v -0.6 0.2 -0.3
v -0.6 0.3 -0.3
v -0.5 0.2 -0.3
v -0.5 0.3 -0.3
v -0.5 0.4 -0.3
v -0.3 0.1 -0.3
v -0.3 0.3 -0.3
v -0.3 0.4 -0.3
v -0.2 0.1 -0.3
v -0.2 0.4 -0.3
v 0.3 0 -0.3
v 0.3 0.2 -0.3
v 0.4 0 -0.3
v 0.4 0.1 -0.3
v 0.4 0.2 -0.3
v 0.4 0.3 -0.3
v 0.5 0.2 -0.3
v 0.5 0.3 -0.3
v -0.7 0 -0.4
v -0.7 0.2 -0.4
v -0.6 0 -0.4
v -0.6 0.1 -0.4
v -0.5 0.1 -0.4
v -0.5 0.2 -0.4
v -0.3 0.4 -0.5
v -0.3 0.5 -0.5
v 0 0.4 -0.5
v 0 0.5 -0.5
v -0.6 0 -0.6
v -0.6 0.1 -0.6
v -0.2 0 -0.6
v -0.2 0.1 -0.6
v 0 0 -0.6
v 0 0.2 -0.6
v 0.1 0 -0.6
v 0.1 0.2 -0.6
v 0.1 0.3 -0.6
v 0.2 0.2 -0.6
v 0.3 0.2 -0.6
v 0.3 0.3 -0.6
v 0.4 0 -0.6
v 0.4 0.1 -0.6
v 0.7 0 -0.6
v 0.7 0.1 -0.6
v 0.2 0 -0.7
v 0.2 0.2 -0.7
v 0.4 0 -0.7
v 0.4 0.2 -0.7
v -0.3 0 0.4
v -0.1 0 0.4
v -0.3 0 0.2
v -0.1 0 0.2
v -0.2 0 0.1
v -0.1 0 0.1
v 0.1 0 0.1
v 0.2 0 0.1
v 0.4 0 0.1
v 0.6 0 0.1
v -0.2 0 0
v -0.1 0 0
v 0.1 0 0
v 0.2 0 0
v 0.4 0 -0.1
v 0.6 0 -0.1
v -0.7 0 -0.2
v -0.5 0 -0.2
v -0.3 0 -0.2
v -0.2 0 -0.2
v 0.3 0 -0.2
v 0.4 0 -0.2
v -0.3 0 -0.3
v -0.2 0 -0.3
v 0.3 0 -0.3
v 0.4 0 -0.3
v 0.7 0 -0.3
v -0.7 0 -0.4
v -0.6 0 -0.4
v -0.5 0 -0.4
v 0 0 -0.5
v 0.1 0 -0.5
v 0.2 0 -0.5
v 0.4 0 -0.5
v -0.6 0 -0.6
v -0.2 0 -0.6
v 0 0 -0.6
v 0.1 0 -0.6
v 0.4 0 -0.6
v 0.7 0 -0.6
v 0.2 0 -0.7
v 0.4 0 -0.7
v -0.4 0.2 0.2
v -0.3 0.2 0.2
v -0.2 0.2 0.2
v -0.1 0.2 0.2
v -0.2 0.2 0.1
v -0.1 0.2 0.1
v -0.4 0.2 0
v -0.2 0.2 0
v 0.4 0.2 -0.1
v 0.5 0.2 -0.1
v 0.4 0.2 -0.2
v 0.4 0.2 -0.3
v 0.5 0.2 -0.3
v 0.1 0.2 -0.5
v 0.2 0.2 -0.5
v 0.1 0.2 -0.6
v 0.2 0.2 -0.6
v 0.1 0.3 0.2
v 0.3 0.3 0.2
v 0.1 0.3 0.1
v 0.2 0.3 0.1
v 0.2 0.3 0
v 0.3 0.3 0
v -0.5 0.3 -0.2
v -0.3 0.3 -0.2
v -0.5 0.3 -0.3
v -0.3 0.3 -0.3
v -0.2 0.4 -0.2
v 0 0.4 -0.2
v -0.3 0.4 -0.3
v -0.2 0.4 -0.3
v -0.3 0.4 -0.5
v 0 0.4 -0.5
v -0.5 0.1 -0.2
v -0.3 0.1 -0.2
v -0.3 0.1 -0.3
v -0.2 0.1 -0.3
v 0.4 0.1 -0.3
v 0.7 0.1 -0.3
v -0.6 0.1 -0.4
v -0.5 0.1 -0.4
v 0.4 0.1 -0.5
v -0.6 0.1 -0.6
v -0.2 0.1 -0.6
v 0.4 0.1 -0.6
v 0.7 0.1 -0.6
v -0.3 0.2 0.4
v -0.1 0.2 0.4
v -0.2 0.2 0.3
v -0.1 0.2 0.3
v -0.3 0.2 0.2
v -0.2 0.2 0.2
v -0.2 0.2 0.1
v -0.1 0.2 0.1
v 0.4 0.2 0.1
v 0.6 0.2 0.1
v -0.2 0.2 0
v -0.1 0.2 0
v 0.4 0.2 0
v 0.5 0.2 0
v 0.5 0.2 -0.1
v 0.6 0.2 -0.1
v -0.7 0.2 -0.2
v -0.6 0.2 -0.2
v 0.3 0.2 -0.2
v 0.4 0.2 -0.2
v -0.6 0.2 -0.3
v -0.5 0.2 -0.3
v 0.3 0.2 -0.3
v 0.4 0.2 -0.3
v -0.7 0.2 -0.4
v -0.5 0.2 -0.4
v 0 0.2 -0.5
v 0.1 0.2 -0.5
v 0.3 0.2 -0.5
v 0.4 0.2 -0.5
v 0 0.2 -0.6
v 0.1 0.2 -0.6
v 0.2 0.2 -0.6
v 0.3 0.2 -0.6
v 0.2 0.2 -0.7
v 0.4 0.2 -0.7
v -0.2 0.3 0.3
v -0.1 0.3 0.3
v -0.4 0.3 0.2
v -0.2 0.3 0.2
v -0.2 0.3 0.1
v -0.1 0.3 0.1
v -0.4 0.3 0
v -0.2 0.3 0
v 0.4 0.3 0
v 0.5 0.3 0
v -0.6 0.3 -0.2
v -0.5 0.3 -0.2
v -0.6 0.3 -0.3
v -0.5 0.3 -0.3
v 0.4 0.3 -0.3
v 0.5 0.3 -0.3
v 0.1 0.3 -0.5
v 0.3 0.3 -0.5
v 0.1 0.3 -0.6
v 0.3 0.3 -0.6
v 0.1 0.4 0.2
v 0.3 0.4 0.2
v 0.1 0.4 0.1
v 0.2 0.4 0.1
v 0.2 0.4 0
v 0.3 0.4 0
v -0.5 0.4 -0.2
v -0.3 0.4 -0.2
v -0.5 0.4 -0.3
v -0.3 0.4 -0.3
v 0.1 0.5 0.1
v 0.2 0.5 0.1
v 0.1 0.5 0
v 0.2 0.5 0
v -0.3 0.5 -0.2
v 0 0.5 -0.2
v -0.3 0.5 -0.5
v 0 0.5 -0.5

# faces
f 3/1/1 2/1/1 1/1/1
f 4/1/1 2/1/1 3/1/1
f 7/2/1 6/2/1 5/2/1
f 8/2/1 6/2/1 7/2/1
f 11/3/1 10/3/1 9/3/1
f 12/3/1 10/3/1 11/3/1
f 15/3/1 14/3/1 13/3/1
f 16/3/1 14/3/1 15/3/1
f 19/2/1 18/2/1 17/2/1
f 20/2/1 18/2/1 19/2/1
f 25/1/1 22/1/1 21/1/1
f 26/1/1 22/1/1 25/1/1
f 27/4/1 24/4/1 23/4/1
f 28/4/1 24/4/1 27/4/1
f 32/3/1 30/3/1 29/3/1
f 32/3/1 31/3/1 30/3/1
f 33/3/1 31/3/1 32/3/1
f 38/3/1 35/3/1 34/3/1
f 39/3/1 35/3/1 38/3/1
f 40/3/1 37/3/1 36/3/1
f 41/3/1 37/3/1 40/3/1
f 44/3/1 43/3/1 42/3/1
f 45/3/1 43/3/1 44/3/1
f 51/4/1 47/4/1 46/4/1
f 52/3/1 49/3/1 48/3/1
f 53/3/1 49/3/1 52/3/1
f 54/3/1 51/3/1 50/3/1
f 55/4/1 47/4/1 51/4/1
f 55/3/1 51/3/1 54/3/1
f 56/4/1 47/4/1 55/4/1
f 57/4/1 47/4/1 56/4/1
f 60/1/1 59/1/1 58/1/1
f 61/1/1 59/1/1 60/1/1
f 62/1/1 59/1/1 61/1/1
f 65/3/1 64/3/1 63/3/1
f 66/3/1 64/3/1 65/3/1
f 71/2/1 70/2/1 69/2/1
f 72/2/1 70/2/1 71/2/1
f 73/1/1 68/1/1 67/1/1
f 74/1/1 68/1/1 73/1/1
f 75/1/1 68/1/1 74/1/1
f 78/3/1 77/3/1 76/3/1
f 78/3/1 76/3/1 75/3/1
f 78/3/1 75/3/1 74/3/1
f 79/3/1 77/3/1 78/3/1
f 80/1/2 81/1/2 82/1/2
f 82/1/2 81/1/2 83/1/2
f 83/1/2 81/1/2 84/1/2
f 82/3/2 83/3/2 85/3/2
f 85/3/2 83/3/2 86/3/2
f 87/4/2 88/4/2 90/4/2
f 88/2/2 89/2/2 90/2/2
f 90/2/2 89/2/2 91/2/2
f 92/2/2 93/2/2 94/2/2
f 94/2/2 93/2/2 95/2/2
f 87/4/2 90/4/2 96/4/2
f 96/4/2 90/4/2 97/4/2
f 98/1/2 99/1/2 102/1/2
f 102/1/2 99/1/2 103/1/2
f 103/1/2 99/1/2 104/1/2
f 100/3/2 101/3/2 105/3/2
f 105/3/2 101/3/2 106/3/2
f 103/3/2 104/3/2 107/3/2
f 104/3/2 105/3/2 107/3/2
f 107/3/2 105/3/2 108/3/2
f 109/3/2 110/3/2 111/3/2
f 111/3/2 110/3/2 112/3/2
f 113/3/2 114/3/2 115/3/2
f 115/3/2 114/3/2 116/3/2
f 117/4/2 118/4/2 119/4/2
f 119/4/2 118/4/2 120/4/2
f 121/4/2 122/4/2 123/4/2
f 123/4/2 122/4/2 124/4/2
f 125/3/2 126/3/2 129/3/2
f 129/3/2 126/3/2 130/3/2
f 127/3/2 128/3/2 131/3/2
f 131/3/2 128/3/2 132/3/2
f 133/3/2 134/3/2 137/3/2
f 135/1/2 136/1/2 139/1/2
f 133/3/2 137/3/2 140/3/2
f 140/3/2 137/3/2 141/3/2
f 138/1/2 139/1/2 142/1/2
f 139/1/2 136/1/2 143/1/2
f 142/1/2 139/1/2 143/1/2
f 144/3/2 145/3/2 147/3/2
f 145/3/2 146/3/2 147/3/2
f 147/3/2 146/3/2 148/3/2
f 149/1/2 150/1/2 151/1/2
f 151/1/2 150/1/2 152/1/2
f 153/2/2 154/2/2 155/2/2
f 155/2/2 154/2/2 156/2/2
f 159/1/3 158/1/3 157/1/3
f 160/1/3 158/1/3 159/1/3
f 163/3/3 162/3/3 161/3/3
f 164/3/3 162/3/3 163/3/3
f 167/2/3 166/2/3 165/2/3
f 168/2/3 166/2/3 167/2/3
f 169/2/3 166/2/3 168/2/3
f 172/3/3 171/3/3 170/3/3
f 173/3/3 171/3/3 172/3/3
f 176/3/3 175/3/3 174/3/3
f 177/3/3 175/3/3 176/3/3
f 182/4/3 179/4/3 178/4/3
f 183/4/3 179/4/3 182/4/3
f 184/4/3 181/4/3 180/4/3
f 185/4/3 181/4/3 184/4/3
f 188/1/3 187/1/3 186/1/3
f 189/1/3 187/1/3 188/1/3
f 192/3/3 191/3/3 190/3/3
f 193/3/3 191/3/3 192/3/3
f 196/1/3 195/1/3 194/1/3
f 198/1/3 196/1/3 194/1/3
f 199/1/3 196/1/3 198/1/3
f 200/3/3 197/3/3 196/3/3
f 200/1/3 196/1/3 199/1/3
f 201/3/3 197/3/3 200/3/3
f 203/2/3 199/2/3 198/2/3
f 204/2/3 199/2/3 203/2/3
f 205/3/3 202/3/3 201/3/3
f 206/3/3 202/3/3 205/3/3
f 208/4/3 204/4/3 203/4/3
f 208/4/3 205/4/3 204/4/3
f 208/4/3 206/4/3 205/4/3
f 209/3/3 207/3/3 206/3/3
f 209/4/3 206/4/3 208/4/3
f 210/3/3 207/3/3 209/3/3
f 211/3/3 207/3/3 210/3/3
f 214/3/3 213/3/3 212/3/3
f 215/3/3 213/3/3 214/3/3
f 218/2/3 217/2/3 216/2/3
f 219/2/3 217/2/3 218/2/3
f 222/3/3 221/3/3 220/3/3
f 223/3/3 221/3/3 222/3/3
f 226/3/3 224/3/3 223/3/3
f 227/3/3 224/3/3 226/3/3
f 227/1/3 226/1/3 225/1/3
f 228/3/3 224/3/3 227/3/3
f 229/1/3 227/1/3 225/1/3
f 230/1/3 227/1/3 229/1/3
f 231/1/3 227/1/3 230/1/3
f 232/1/4 233/1/4 234/1/4
f 232/1/4 234/1/4 235/1/4
f 235/1/4 234/1/4 236/1/4
f 237/3/4 238/3/4 239/3/4
f 239/3/4 238/3/4 240/3/4
f 241/2/4 242/2/4 244/2/4
f 244/2/4 242/2/4 245/2/4
f 243/3/4 244/3/4 246/3/4
f 246/3/4 244/3/4 247/3/4
f 248/4/4 249/4/4 250/4/4
f 250/4/4 249/4/4 251/4/4
f 251/4/4 249/4/4 252/4/4
f 252/4/4 249/4/4 253/4/4
f 251/3/4 252/3/4 254/3/4
f 254/3/4 252/3/4 255/3/4
f 256/1/4 257/1/4 258/1/4
f 256/1/4 258/1/4 259/1/4
f 259/1/4 258/1/4 260/1/4
f 261/3/4 262/3/4 263/3/4
f 263/3/4 262/3/4 264/3/4
f 264/3/4 265/3/4 267/3/4
f 267/3/4 265/3/4 268/3/4
f 266/4/4 267/4/4 269/4/4
f 267/4/4 268/4/4 269/4/4
f 269/4/4 268/4/4 270/4/4
f 271/3/4 272/3/4 273/3/4
f 273/3/4 272/3/4 274/3/4
f 274/3/4 272/3/4 275/3/4
f 275/3/4 276/3/4 277/3/4
f 277/3/4 276/3/4 278/3/4
f 279/1/4 280/1/4 281/1/4
f 281/1/4 280/1/4 282/1/4
f 282/1/4 280/1/4 283/1/4
f 283/1/4 280/1/4 284/1/4
f 285/3/4 286/3/4 287/3/4
f 287/3/4 286/3/4 288/3/4
f 289/2/4 290/2/4 291/2/4
f 291/2/4 290/2/4 292/2/4
f 293/3/4 294/3/4 295/3/4
f 295/3/4 294/3/4 296/3/4
f 296/3/4 297/3/4 298/3/4
f 298/3/4 297/3/4 299/3/4
f 299/3/4 297/3/4 300/3/4
f 301/2/4 302/2/4 303/2/4
f 303/2/4 302/2/4 304/2/4
f 305/1/4 306/1/4 307/1/4
f 307/1/4 306/1/4 308/1/4
f 311/1/5 310/1/5 309/1/5
f 312/1/5 310/1/5 311/1/5
f 319/3/5 314/3/5 313/3/5
f 320/3/5 314/3/5 319/3/5
f 321/4/5 316/4/5 315/4/5
f 322/4/5 316/4/5 321/4/5
f 323/1/5 318/1/5 317/1/5
f 324/1/5 318/1/5 323/1/5
f 331/2/5 327/2/5 326/2/5
f 331/4/5 328/4/5 327/4/5
f 332/4/5 328/4/5 331/4/5
f 333/3/5 330/3/5 329/3/5
f 334/3/5 330/3/5 333/3/5
f 336/1/5 326/1/5 325/1/5
f 337/1/5 326/1/5 336/1/5
f 338/2/5 332/2/5 331/2/5
f 338/1/5 326/1/5 337/1/5
f 338/2/5 331/2/5 326/2/5
f 342/2/5 335/2/5 334/2/5
f 343/2/5 338/2/5 337/2/5
f 344/2/5 332/2/5 338/2/5
f 344/2/5 338/2/5 343/2/5
f 345/3/5 340/3/5 339/3/5
f 346/3/5 340/3/5 345/3/5
f 347/1/5 342/1/5 341/1/5
f 347/2/5 335/2/5 342/2/5
f 348/2/5 335/2/5 347/2/5
f 349/1/5 347/1/5 341/1/5
f 350/1/5 347/1/5 349/1/5
f 355/2/5 352/2/5 351/2/5
f 355/3/5 354/3/5 353/3/5
f 355/2/5 353/2/5 352/2/5
f 356/3/5 354/3/5 355/3/5
f 357/2/5 355/2/5 351/2/5
f 358/2/5 355/2/5 357/2/5
f 361/3/5 360/3/5 359/3/5
f 362/3/5 360/3/5 361/3/5
f 363/3/5 360/3/5 362/3/5
f 366/3/5 365/3/5 364/3/5
f 367/3/5 365/3/5 366/3/5
f 370/3/5 369/3/5 368/3/5
f 371/3/5 369/3/5 370/3/5
f 372/3/5 369/3/5 371/3/5
f 373/3/5 369/3/5 372/3/5
f 376/3/5 375/3/5 374/3/5
f 377/3/5 375/3/5 376/3/5
f 381/3/5 379/3/5 378/3/5
f 382/3/5 381/3/5 380/3/5
f 383/3/5 379/3/5 381/3/5
f 383/3/5 381/3/5 382/3/5
f 384/2/6 385/2/6 386/2/6
f 384/2/6 386/2/6 391/2/6
f 386/2/6 387/2/6 391/2/6
f 388/2/6 389/2/6 392/2/6
f 390/2/6 391/2/6 393/2/6
f 391/2/6 387/2/6 394/2/6
f 393/2/6 391/2/6 394/2/6
f 392/2/6 389/2/6 395/2/6
f 395/2/6 389/2/6 396/2/6
f 397/1/6 398/1/6 399/1/6
f 399/1/6 398/1/6 400/1/6
f 397/1/6 399/1/6 401/1/6
f 401/1/6 399/1/6 402/1/6
f 403/3/6 404/3/6 407/3/6
f 407/3/6 404/3/6 408/3/6
f 405/1/6 406/1/6 409/1/6
f 409/1/6 406/1/6 410/1/6
f 410/1/6 406/1/6 411/1/6
f 411/1/6 406/1/6 412/1/6
f 413/1/6 414/1/6 417/1/6
f 415/3/6 416/3/6 419/3/6
f 419/3/6 416/3/6 420/3/6
f 417/1/6 418/1/6 421/1/6
f 413/1/6 417/1/6 421/1/6
f 421/1/6 418/1/6 422/1/6
f 423/3/6 424/3/6 427/3/6
f 427/3/6 424/3/6 428/3/6
f 425/1/6 426/1/6 430/1/6
f 429/1/6 430/1/6 431/1/6
f 430/1/6 426/1/6 432/1/6
f 431/1/6 430/1/6 432/1/6
f 433/3/6 434/3/6 436/3/6
f 436/3/6 434/3/6 437/3/6
f 435/2/6 436/2/6 437/2/6
f 437/3/6 434/3/6 438/3/6
f 435/2/6 437/2/6 439/2/6
f 439/2/6 437/2/6 440/2/6
f 443/3/6 444/3/6 445/3/6
f 445/3/6 444/3/6 446/3/6
f 441/3/6 442/3/6 447/3/6
f 447/3/6 442/3/6 448/3/6
f 449/3/6 450/3/6 451/3/6
f 451/3/6 450/3/6 452/3/6
f 453/3/6 454/3/6 455/3/6
f 455/3/6 454/3/6 456/3/6
f 456/3/6 454/3/6 457/3/6
f 457/3/6 454/3/6 458/3/6
f 459/3/6 460/3/6 461/3/6
f 461/3/6 460/3/6 462/3/6
f 463/4/6 464/4/6 465/4/6
f 465/4/6 464/4/6 466/4/6
f 467/3/6 468/3/6 469/3/6
f 469/3/6 468/3/6 470/3/6
