# MagicaVoxel @ Ephtracy

# group
o 

# material
mtllib Outil3.mtl
usemtl palette

# normals
vn -1 0 0
vn 1 0 0
vn 0 0 1
vn 0 0 -1
vn 0 -1 0
vn 0 1 0

# texcoords
vt 0.939453 0.5
vt 0.943359 0.5
vt 0.970703 0.5
vt 0.974609 0.5

# verts
v -0.4 0.1 0.9
v -0.4 0.1 0.4
v -0.4 0.2 0.9
v -0.4 0.2 0.4
v 0 0.1 0.4
v 0 0.1 -0.1
v 0 0.1 -0.8
v 0 0.2 0.4
v 0 0.2 -0.1
v 0 0.2 -0.8
v 0 0.1 0.9
v 0 0.1 0.8
v 0 0.2 0.9
v 0 0.2 0.8
v 0.1 0.1 0.8
v 0.1 0.1 0.7
v 0.1 0.1 0.5
v 0.1 0.1 -0.1
v 0.1 0.1 -0.8
v 0.1 0.2 0.8
v 0.1 0.2 0.7
v 0.1 0.2 0.5
v 0.1 0.2 -0.1
v 0.1 0.2 -0.8
v 0.2 0.1 0.7
v 0.2 0.1 0.5
v 0.2 0.2 0.7
v 0.2 0.2 0.5
v -0.4 0.1 0.9
v -0.4 0.2 0.9
v -0.2 0.1 0.9
v -0.2 0.2 0.9
v 0 0.1 0.9
v 0 0.2 0.9
v 0 0.1 0.8
v 0 0.2 0.8
v 0.1 0.1 0.8
v 0.1 0.2 0.8
v 0.1 0.1 0.7
v 0.1 0.2 0.7
v 0.2 0.1 0.7
v 0.2 0.2 0.7
v 0.1 0.1 0.5
v 0.1 0.2 0.5
v 0.2 0.1 0.5
v 0.2 0.2 0.5
v -0.4 0.1 0.4
v -0.4 0.2 0.4
v -0.2 0.1 0.4
v -0.2 0.2 0.4
v 0 0.1 0.4
v 0 0.2 0.4
v 0 0.1 -0.8
v 0 0.2 -0.8
v 0.1 0.1 -0.8
v 0.1 0.2 -0.8
v -0.4 0.1 0.9
v -0.2 0.1 0.9
v 0 0.1 0.9
v -0.2 0.1 0.8
v -0.1 0.1 0.8
v 0 0.1 0.8
v 0.1 0.1 0.8
v 0.1 0.1 0.7
v 0.2 0.1 0.7
v -0.2 0.1 0.5
v -0.1 0.1 0.5
v 0 0.1 0.5
v 0.1 0.1 0.5
v 0.2 0.1 0.5
v -0.4 0.1 0.4
v -0.2 0.1 0.4
v 0 0.1 0.4
v 0 0.1 -0.1
v 0.1 0.1 -0.1
v 0 0.1 -0.8
v 0.1 0.1 -0.8
v -0.4 0.2 0.9
v -0.2 0.2 0.9
v 0 0.2 0.9
v -0.2 0.2 0.8
v -0.1 0.2 0.8
v 0 0.2 0.8
v 0.1 0.2 0.8
v 0.1 0.2 0.7
v 0.2 0.2 0.7
v -0.2 0.2 0.5
v -0.1 0.2 0.5
v 0 0.2 0.5
v 0.1 0.2 0.5
v 0.2 0.2 0.5
v -0.4 0.2 0.4
v -0.2 0.2 0.4
v 0 0.2 0.4
v 0 0.2 -0.1
v 0.1 0.2 -0.1
v 0 0.2 -0.8
v 0.1 0.2 -0.8

# faces
f 3/4/1 2/4/1 1/4/1
f 4/4/1 2/4/1 3/4/1
f 8/1/1 6/1/1 5/1/1
f 9/2/1 7/2/1 6/2/1
f 9/1/1 6/1/1 8/1/1
f 10/2/1 7/2/1 9/2/1
f 11/3/2 12/3/2 13/3/2
f 13/3/2 12/3/2 14/3/2
f 15/3/2 16/3/2 20/3/2
f 20/3/2 16/3/2 21/3/2
f 17/1/2 18/1/2 22/1/2
f 18/2/2 19/2/2 23/2/2
f 22/1/2 18/1/2 23/1/2
f 23/2/2 19/2/2 24/2/2
f 25/3/2 26/3/2 27/3/2
f 27/3/2 26/3/2 28/3/2
f 31/4/3 30/4/3 29/4/3
f 32/4/3 30/4/3 31/4/3
f 33/3/3 32/3/3 31/3/3
f 34/3/3 32/3/3 33/3/3
f 37/3/3 36/3/3 35/3/3
f 38/3/3 36/3/3 37/3/3
f 41/3/3 40/3/3 39/3/3
f 42/3/3 40/3/3 41/3/3
f 43/3/4 44/3/4 45/3/4
f 45/3/4 44/3/4 46/3/4
f 47/4/4 48/4/4 49/4/4
f 49/4/4 48/4/4 50/4/4
f 49/3/4 50/3/4 51/3/4
f 51/3/4 50/3/4 52/3/4
f 53/2/4 54/2/4 55/2/4
f 55/2/4 54/2/4 56/2/4
f 60/4/5 58/4/5 57/4/5
f 60/3/5 59/3/5 58/3/5
f 61/3/5 59/3/5 60/3/5
f 62/3/5 59/3/5 61/3/5
f 64/3/5 62/3/5 61/3/5
f 64/3/5 63/3/5 62/3/5
f 66/4/5 60/4/5 57/4/5
f 66/4/5 61/4/5 60/4/5
f 67/3/5 65/3/5 64/3/5
f 67/4/5 61/4/5 66/4/5
f 67/3/5 64/3/5 61/3/5
f 68/3/5 65/3/5 67/3/5
f 69/3/5 65/3/5 68/3/5
f 70/3/5 65/3/5 69/3/5
f 71/4/5 66/4/5 57/4/5
f 72/3/5 67/3/5 66/3/5
f 72/4/5 66/4/5 71/4/5
f 72/3/5 68/3/5 67/3/5
f 73/1/5 69/1/5 68/1/5
f 73/3/5 68/3/5 72/3/5
f 74/1/5 69/1/5 73/1/5
f 75/1/5 69/1/5 74/1/5
f 76/2/5 75/2/5 74/2/5
f 77/2/5 75/2/5 76/2/5
f 78/4/6 79/4/6 81/4/6
f 79/3/6 80/3/6 81/3/6
f 81/3/6 80/3/6 82/3/6
f 82/3/6 80/3/6 83/3/6
f 82/3/6 83/3/6 85/3/6
f 83/3/6 84/3/6 85/3/6
f 78/4/6 81/4/6 87/4/6
f 81/4/6 82/4/6 87/4/6
f 85/3/6 86/3/6 88/3/6
f 87/4/6 82/4/6 88/4/6
f 82/3/6 85/3/6 88/3/6
f 88/3/6 86/3/6 89/3/6
f 89/3/6 86/3/6 90/3/6
f 90/3/6 86/3/6 91/3/6
f 78/4/6 87/4/6 92/4/6
f 87/3/6 88/3/6 93/3/6
f 92/4/6 87/4/6 93/4/6
f 88/3/6 89/3/6 93/3/6
f 89/1/6 90/1/6 94/1/6
f 93/3/6 89/3/6 94/3/6
f 94/1/6 90/1/6 95/1/6
f 95/1/6 90/1/6 96/1/6
f 95/2/6 96/2/6 97/2/6
f 97/2/6 96/2/6 98/2/6
