# MagicaVoxel @ Ephtracy

# group
o 

# material
mtllib Pasteque4.mtl
usemtl palette

# normals
vn -1 0 0
vn 1 0 0
vn 0 0 1
vn 0 0 -1
vn 0 -1 0
vn 0 1 0

# texcoords
vt 0.978516 0.5
vt 0.982422 0.5
vt 0.986328 0.5
vt 0.990234 0.5

# verts
v -0.7 0 -0.3
v -0.7 0 -0.5
v -0.7 0.2 -0.3
v -0.7 0.2 -0.5
v -0.5 0.2 -0.3
v -0.5 0.2 -0.4
v -0.5 0.3 -0.3
v -0.5 0.3 -0.4
v -0.3 0.1 -0.3
v -0.3 0.1 -0.4
v -0.3 0.2 -0.3
v -0.3 0.2 -0.4
v -0.3 0.3 0.3
v -0.3 0.3 0.2
v -0.3 0.4 0.3
v -0.3 0.4 0.2
v -0.3 0.5 0.4
v -0.3 0.5 0.2
v -0.3 0.6 0.4
v -0.3 0.6 0.2
v -0.2 0 -0.3
v -0.2 0 -0.4
v -0.2 0.1 -0.3
v -0.2 0.1 -0.4
v -0.2 0.4 0.3
v -0.2 0.4 0.2
v -0.2 0.5 0.3
v -0.2 0.5 0.2
v -0.1 0 0.4
v -0.1 0 0.3
v -0.1 0 0.1
v -0.1 0.1 0.4
v -0.1 0.1 0.3
v -0.1 0.1 0.2
v -0.1 0.1 0.1
v -0.1 0.1 -0.3
v -0.1 0.1 -0.4
v -0.1 0.1 -0.6
v -0.1 0.2 0.2
v -0.1 0.2 0.1
v -0.1 0.2 -0.3
v -0.1 0.2 -0.6
v -0.1 0.3 0.4
v -0.1 0.3 0.1
v 0 0.3 0.3
v 0 0.3 0.2
v 0 0.4 0.3
v 0 0.4 0.2
v 0.1 0.4 0.3
v 0.1 0.4 0.2
v 0.1 0.4 -0.2
v 0.1 0.4 -0.4
v 0.1 0.5 0.3
v 0.1 0.5 0.2
v 0.1 0.5 -0.2
v 0.1 0.5 -0.4
v 0.2 0.3 -0.3
v 0.2 0.3 -0.4
v 0.2 0.4 0.2
v 0.2 0.4 -0.1
v 0.2 0.4 -0.3
v 0.2 0.4 -0.4
v 0.2 0.5 0.2
v 0.2 0.5 -0.1
v 0.4 0 -0.2
v 0.4 0 -0.4
v 0.4 0.1 -0.2
v 0.4 0.1 -0.3
v 0.4 0.2 -0.2
v 0.4 0.2 -0.3
v 0.4 0.2 -0.4
v 0.4 0.3 -0.3
v 0.4 0.3 -0.4
v 0.5 0.3 -0.4
v 0.5 0.3 -0.5
v 0.5 0.4 -0.4
v 0.5 0.4 -0.5
v -0.5 0 -0.3
v -0.5 0 -0.5
v -0.5 0.1 -0.4
v -0.5 0.1 -0.5
v -0.5 0.2 -0.3
v -0.5 0.2 -0.4
v -0.5 0.2 -0.5
v -0.3 0.2 -0.3
v -0.3 0.2 -0.4
v -0.3 0.3 -0.3
v -0.3 0.3 -0.4
v -0.2 0.1 -0.3
v -0.2 0.1 -0.4
v -0.2 0.2 -0.3
v -0.2 0.2 -0.4
v -0.2 0.3 0.3
v -0.2 0.3 0.2
v -0.2 0.4 0.3
v -0.2 0.4 0.2
v -0.1 0.5 0.4
v -0.1 0.5 0.3
v -0.1 0.5 0.2
v -0.1 0.6 0.4
v -0.1 0.6 0.2
v 0 0 -0.3
v 0 0 -0.4
v 0 0.1 -0.3
v 0 0.1 -0.4
v 0 0.4 0.3
v 0 0.4 0.2
v 0 0.5 0.3
v 0 0.5 0.2
v 0.1 0.3 0.3
v 0.1 0.3 0.2
v 0.1 0.4 0.3
v 0.1 0.4 0.2
v 0.2 0 0.4
v 0.2 0 0.3
v 0.2 0 0.2
v 0.2 0 0.1
v 0.2 0.1 0.4
v 0.2 0.1 0.3
v 0.2 0.1 0.2
v 0.2 0.1 0.1
v 0.2 0.1 -0.3
v 0.2 0.1 -0.6
v 0.2 0.2 0.2
v 0.2 0.2 0.1
v 0.2 0.2 -0.3
v 0.2 0.2 -0.6
v 0.2 0.3 0.4
v 0.2 0.3 0.2
v 0.2 0.3 0.1
v 0.3 0.4 -0.2
v 0.3 0.4 -0.3
v 0.3 0.4 -0.4
v 0.3 0.5 -0.2
v 0.3 0.5 -0.4
v 0.4 0.3 -0.3
v 0.4 0.3 -0.4
v 0.4 0.4 0.3
v 0.4 0.4 0.2
v 0.4 0.4 -0.3
v 0.4 0.4 -0.4
v 0.4 0.5 0.3
v 0.4 0.5 0.2
v 0.5 0.2 -0.3
v 0.5 0.2 -0.4
v 0.5 0.3 -0.3
v 0.5 0.3 -0.4
v 0.5 0.4 0.2
v 0.5 0.4 -0.1
v 0.5 0.5 0.2
v 0.5 0.5 -0.1
v 0.6 0 -0.2
v 0.6 0 -0.3
v 0.6 0 -0.4
v 0.6 0.1 -0.3
v 0.6 0.1 -0.4
v 0.6 0.2 -0.2
v 0.6 0.2 -0.4
v 0.6 0.3 -0.4
v 0.6 0.3 -0.5
v 0.6 0.4 -0.4
v 0.6 0.4 -0.5
v -0.3 0.5 0.4
v -0.3 0.6 0.4
v -0.1 0 0.4
v -0.1 0.1 0.4
v -0.1 0.3 0.4
v -0.1 0.5 0.4
v -0.1 0.6 0.4
v 0 0 0.4
v 0 0.1 0.4
v 0 0.2 0.4
v 0 0.3 0.4
v 0.1 0 0.4
v 0.1 0.1 0.4
v 0.1 0.2 0.4
v 0.1 0.3 0.4
v 0.2 0 0.4
v 0.2 0.1 0.4
v 0.2 0.3 0.4
v -0.3 0.3 0.3
v -0.3 0.4 0.3
v -0.2 0.3 0.3
v -0.2 0.4 0.3
v -0.2 0.5 0.3
v -0.1 0.5 0.3
v 0 0.3 0.3
v 0 0.4 0.3
v 0 0.5 0.3
v 0.1 0.3 0.3
v 0.1 0.4 0.3
v 0.1 0.5 0.3
v 0.4 0.4 0.3
v 0.4 0.5 0.3
v 0.4 0.4 0.2
v 0.4 0.5 0.2
v 0.5 0.4 0.2
v 0.5 0.5 0.2
v 0.1 0.4 -0.2
v 0.1 0.5 -0.2
v 0.3 0.4 -0.2
v 0.3 0.5 -0.2
v 0.4 0 -0.2
v 0.4 0.1 -0.2
v 0.4 0.2 -0.2
v 0.5 0.1 -0.2
v 0.5 0.2 -0.2
v 0.6 0 -0.2
v 0.6 0.2 -0.2
v -0.7 0 -0.3
v -0.7 0.2 -0.3
v -0.5 0 -0.3
v -0.5 0.2 -0.3
v -0.5 0.3 -0.3
v -0.3 0.1 -0.3
v -0.3 0.2 -0.3
v -0.3 0.3 -0.3
v -0.2 0 -0.3
v -0.2 0.1 -0.3
v -0.2 0.2 -0.3
v -0.1 0.1 -0.3
v -0.1 0.2 -0.3
v 0 0 -0.3
v 0 0.1 -0.3
v 0.2 0.1 -0.3
v 0.2 0.2 -0.3
v 0.2 0.3 -0.3
v 0.2 0.4 -0.3
v 0.3 0.4 -0.3
v 0.4 0.2 -0.3
v 0.4 0.3 -0.3
v 0.4 0.4 -0.3
v 0.5 0.2 -0.3
v 0.5 0.3 -0.3
v 0.5 0.3 -0.4
v 0.5 0.4 -0.4
v 0.6 0.3 -0.4
v 0.6 0.4 -0.4
v -0.3 0.3 0.2
v -0.3 0.4 0.2
v -0.3 0.5 0.2
v -0.3 0.6 0.2
v -0.2 0.3 0.2
v -0.2 0.4 0.2
v -0.2 0.5 0.2
v -0.1 0.5 0.2
v -0.1 0.6 0.2
v 0 0.3 0.2
v 0 0.4 0.2
v 0 0.5 0.2
v 0.1 0.3 0.2
v 0.1 0.4 0.2
v 0.1 0.5 0.2
v 0.2 0.4 0.2
v 0.2 0.5 0.2
v -0.1 0 0.1
v -0.1 0.1 0.1
v -0.1 0.2 0.1
v -0.1 0.3 0.1
v 0 0.1 0.1
v 0 0.2 0.1
v 0.1 0 0.1
v 0.1 0.1 0.1
v 0.1 0.2 0.1
v 0.1 0.3 0.1
v 0.2 0 0.1
v 0.2 0.1 0.1
v 0.2 0.2 0.1
v 0.2 0.3 0.1
v 0.2 0.4 -0.1
v 0.2 0.5 -0.1
v 0.5 0.4 -0.1
v 0.5 0.5 -0.1
v -0.5 0.2 -0.4
v -0.5 0.3 -0.4
v -0.3 0.1 -0.4
v -0.3 0.2 -0.4
v -0.3 0.3 -0.4
v -0.2 0 -0.4
v -0.2 0.1 -0.4
v -0.2 0.2 -0.4
v -0.1 0.1 -0.4
v 0 0 -0.4
v 0 0.1 -0.4
v 0.1 0.4 -0.4
v 0.1 0.5 -0.4
v 0.2 0.3 -0.4
v 0.2 0.4 -0.4
v 0.3 0.4 -0.4
v 0.3 0.5 -0.4
v 0.4 0 -0.4
v 0.4 0.2 -0.4
v 0.4 0.3 -0.4
v 0.4 0.4 -0.4
v 0.5 0 -0.4
v 0.5 0.1 -0.4
v 0.5 0.2 -0.4
v 0.5 0.3 -0.4
v 0.6 0 -0.4
v 0.6 0.1 -0.4
v 0.6 0.2 -0.4
v -0.7 0 -0.5
v -0.7 0.2 -0.5
v -0.6 0.1 -0.5
v -0.6 0.2 -0.5
v -0.5 0 -0.5
v -0.5 0.1 -0.5
v -0.5 0.2 -0.5
v 0.5 0.3 -0.5
v 0.5 0.4 -0.5
v 0.6 0.3 -0.5
v 0.6 0.4 -0.5
v -0.1 0.1 -0.6
v -0.1 0.2 -0.6
v 0.2 0.1 -0.6
v 0.2 0.2 -0.6
v -0.1 0 0.4
v 0 0 0.4
v 0.1 0 0.4
v 0.2 0 0.4
v -0.1 0 0.3
v 0 0 0.3
v 0.1 0 0.3
v 0.2 0 0.3
v 0.1 0 0.2
v 0.2 0 0.2
v -0.1 0 0.1
v 0.1 0 0.1
v 0.2 0 0.1
v 0.4 0 -0.2
v 0.6 0 -0.2
v -0.7 0 -0.3
v -0.5 0 -0.3
v -0.2 0 -0.3
v 0 0 -0.3
v 0.5 0 -0.3
v 0.6 0 -0.3
v -0.2 0 -0.4
v 0 0 -0.4
v 0.4 0 -0.4
v 0.5 0 -0.4
v 0.6 0 -0.4
v -0.7 0 -0.5
v -0.5 0 -0.5
v -0.3 0.1 -0.3
v -0.2 0.1 -0.3
v 0 0.1 -0.3
v 0.2 0.1 -0.3
v -0.3 0.1 -0.4
v -0.2 0.1 -0.4
v -0.1 0.1 -0.4
v 0 0.1 -0.4
v -0.1 0.1 -0.6
v 0.2 0.1 -0.6
v -0.5 0.2 -0.3
v -0.3 0.2 -0.3
v -0.5 0.2 -0.4
v -0.3 0.2 -0.4
v -0.3 0.3 0.3
v -0.2 0.3 0.3
v -0.3 0.3 0.2
v -0.2 0.3 0.2
v 0.2 0.3 -0.3
v 0.4 0.3 -0.3
v 0.2 0.3 -0.4
v 0.4 0.3 -0.4
v 0.5 0.3 -0.4
v 0.6 0.3 -0.4
v 0.5 0.3 -0.5
v 0.6 0.3 -0.5
v -0.2 0.4 0.3
v 0 0.4 0.3
v 0.1 0.4 0.3
v 0.4 0.4 0.3
v -0.2 0.4 0.2
v 0 0.4 0.2
v 0.1 0.4 0.2
v 0.2 0.4 0.2
v 0.4 0.4 0.2
v 0.5 0.4 0.2
v 0.2 0.4 -0.1
v 0.5 0.4 -0.1
v 0.1 0.4 -0.2
v 0.3 0.4 -0.2
v 0.2 0.4 -0.3
v 0.3 0.4 -0.3
v 0.1 0.4 -0.4
v 0.2 0.4 -0.4
v -0.3 0.5 0.4
v -0.1 0.5 0.4
v -0.2 0.5 0.3
v -0.1 0.5 0.3
v -0.3 0.5 0.2
v -0.2 0.5 0.2
v -0.2 0.1 -0.3
v -0.1 0.1 -0.3
v -0.2 0.1 -0.4
v -0.1 0.1 -0.4
v 0.4 0.2 -0.2
v 0.5 0.2 -0.2
v 0.6 0.2 -0.2
v -0.7 0.2 -0.3
v -0.5 0.2 -0.3
v -0.3 0.2 -0.3
v -0.2 0.2 -0.3
v -0.1 0.2 -0.3
v 0.2 0.2 -0.3
v 0.4 0.2 -0.3
v 0.5 0.2 -0.3
v -0.6 0.2 -0.4
v -0.5 0.2 -0.4
v -0.3 0.2 -0.4
v -0.2 0.2 -0.4
v 0.5 0.2 -0.4
v 0.6 0.2 -0.4
v -0.7 0.2 -0.5
v -0.6 0.2 -0.5
v -0.5 0.2 -0.5
v -0.1 0.2 -0.6
v 0.2 0.2 -0.6
v -0.1 0.3 0.4
v 0 0.3 0.4
v 0.1 0.3 0.4
v 0.2 0.3 0.4
v 0 0.3 0.3
v 0.1 0.3 0.3
v 0 0.3 0.2
v 0.1 0.3 0.2
v 0.2 0.3 0.2
v -0.1 0.3 0.1
v 0.1 0.3 0.1
v 0.2 0.3 0.1
v -0.5 0.3 -0.3
v -0.3 0.3 -0.3
v 0.4 0.3 -0.3
v 0.5 0.3 -0.3
v -0.5 0.3 -0.4
v -0.3 0.3 -0.4
v 0.4 0.3 -0.4
v 0.5 0.3 -0.4
v -0.3 0.4 0.3
v -0.2 0.4 0.3
v 0 0.4 0.3
v 0.1 0.4 0.3
v -0.3 0.4 0.2
v -0.2 0.4 0.2
v 0 0.4 0.2
v 0.1 0.4 0.2
v 0.3 0.4 -0.3
v 0.4 0.4 -0.3
v 0.3 0.4 -0.4
v 0.4 0.4 -0.4
v 0.5 0.4 -0.4
v 0.6 0.4 -0.4
v 0.5 0.4 -0.5
v 0.6 0.4 -0.5
v -0.1 0.5 0.3
v 0 0.5 0.3
v 0.1 0.5 0.3
v 0.4 0.5 0.3
v -0.1 0.5 0.2
v 0 0.5 0.2
v 0.1 0.5 0.2
v 0.2 0.5 0.2
v 0.4 0.5 0.2
v 0.5 0.5 0.2
v 0.2 0.5 -0.1
v 0.5 0.5 -0.1
v 0.1 0.5 -0.2
v 0.3 0.5 -0.2
v 0.1 0.5 -0.4
v 0.3 0.5 -0.4
v -0.3 0.6 0.4
v -0.1 0.6 0.4
v -0.3 0.6 0.2
v -0.1 0.6 0.2

# faces
f 3/1/1 2/1/1 1/1/1
f 4/1/1 2/1/1 3/1/1
f 7/4/1 6/4/1 5/4/1
f 8/4/1 6/4/1 7/4/1
f 11/4/1 10/4/1 9/4/1
f 12/4/1 10/4/1 11/4/1
f 15/4/1 14/4/1 13/4/1
f 16/4/1 14/4/1 15/4/1
f 19/3/1 18/3/1 17/3/1
f 20/3/1 18/3/1 19/3/1
f 23/4/1 22/4/1 21/4/1
f 24/4/1 22/4/1 23/4/1
f 27/4/1 26/4/1 25/4/1
f 28/4/1 26/4/1 27/4/1
f 32/2/1 30/2/1 29/2/1
f 33/1/1 31/1/1 30/1/1
f 33/2/1 30/2/1 32/2/1
f 34/1/1 31/1/1 33/1/1
f 35/1/1 31/1/1 34/1/1
f 39/1/1 33/1/1 32/1/1
f 39/1/1 34/1/1 33/1/1
f 39/2/1 35/2/1 34/2/1
f 40/2/1 35/2/1 39/2/1
f 41/3/1 38/3/1 37/3/1
f 41/3/1 37/3/1 36/3/1
f 42/3/1 38/3/1 41/3/1
f 43/1/1 40/1/1 39/1/1
f 43/1/1 39/1/1 32/1/1
f 44/1/1 40/1/1 43/1/1
f 47/4/1 46/4/1 45/4/1
f 48/4/1 46/4/1 47/4/1
f 53/4/1 50/4/1 49/4/1
f 54/4/1 50/4/1 53/4/1
f 55/3/1 52/3/1 51/3/1
f 56/3/1 52/3/1 55/3/1
f 61/4/1 58/4/1 57/4/1
f 62/4/1 58/4/1 61/4/1
f 63/3/1 60/3/1 59/3/1
f 64/3/1 60/3/1 63/3/1
f 67/1/1 66/1/1 65/1/1
f 68/1/1 66/1/1 67/1/1
f 69/2/1 68/2/1 67/2/1
f 70/1/1 66/1/1 68/1/1
f 70/2/1 68/2/1 69/2/1
f 71/1/1 66/1/1 70/1/1
f 72/4/1 71/4/1 70/4/1
f 73/4/1 71/4/1 72/4/1
f 76/4/1 75/4/1 74/4/1
f 77/4/1 75/4/1 76/4/1
f 78/1/2 79/1/2 80/1/2
f 80/1/2 79/1/2 81/1/2
f 78/1/2 80/1/2 82/1/2
f 80/2/2 81/2/2 83/2/2
f 82/1/2 80/1/2 83/1/2
f 83/2/2 81/2/2 84/2/2
f 85/4/2 86/4/2 87/4/2
f 87/4/2 86/4/2 88/4/2
f 89/4/2 90/4/2 91/4/2
f 91/4/2 90/4/2 92/4/2
f 93/4/2 94/4/2 95/4/2
f 95/4/2 94/4/2 96/4/2
f 97/3/2 98/3/2 100/3/2
f 98/3/2 99/3/2 100/3/2
f 100/3/2 99/3/2 101/3/2
f 102/4/2 103/4/2 104/4/2
f 104/4/2 103/4/2 105/4/2
f 106/4/2 107/4/2 108/4/2
f 108/4/2 107/4/2 109/4/2
f 110/4/2 111/4/2 112/4/2
f 112/4/2 111/4/2 113/4/2
f 114/2/2 115/2/2 118/2/2
f 115/1/2 116/1/2 119/1/2
f 118/2/2 115/2/2 119/2/2
f 116/2/2 117/2/2 120/2/2
f 119/1/2 116/1/2 120/1/2
f 120/2/2 117/2/2 121/2/2
f 118/1/2 119/1/2 124/1/2
f 119/1/2 120/1/2 124/1/2
f 120/1/2 121/1/2 124/1/2
f 124/1/2 121/1/2 125/1/2
f 122/3/2 123/3/2 126/3/2
f 126/3/2 123/3/2 127/3/2
f 118/1/2 124/1/2 128/1/2
f 124/2/2 125/2/2 129/2/2
f 128/1/2 124/1/2 129/1/2
f 129/2/2 125/2/2 130/2/2
f 131/3/2 132/3/2 134/3/2
f 132/3/2 133/3/2 134/3/2
f 134/3/2 133/3/2 135/3/2
f 136/4/2 137/4/2 140/4/2
f 140/4/2 137/4/2 141/4/2
f 138/4/2 139/4/2 142/4/2
f 142/4/2 139/4/2 143/4/2
f 144/4/2 145/4/2 146/4/2
f 146/4/2 145/4/2 147/4/2
f 148/3/2 149/3/2 150/3/2
f 150/3/2 149/3/2 151/3/2
f 152/1/2 153/1/2 155/1/2
f 153/2/2 154/2/2 155/2/2
f 155/2/2 154/2/2 156/2/2
f 152/1/2 155/1/2 157/1/2
f 155/1/2 156/1/2 157/1/2
f 157/1/2 156/1/2 158/1/2
f 159/4/2 160/4/2 161/4/2
f 161/4/2 160/4/2 162/4/2
f 168/3/3 164/3/3 163/3/3
f 169/3/3 164/3/3 168/3/3
f 170/2/3 166/2/3 165/2/3
f 171/1/3 167/1/3 166/1/3
f 171/2/3 166/2/3 170/2/3
f 172/1/3 167/1/3 171/1/3
f 173/1/3 167/1/3 172/1/3
f 174/1/3 171/1/3 170/1/3
f 174/1/3 172/1/3 171/1/3
f 175/1/3 172/1/3 174/1/3
f 176/2/3 173/2/3 172/2/3
f 176/1/3 172/1/3 175/1/3
f 177/2/3 173/2/3 176/2/3
f 178/2/3 175/2/3 174/2/3
f 179/1/3 176/1/3 175/1/3
f 179/2/3 175/2/3 178/2/3
f 179/1/3 177/1/3 176/1/3
f 180/1/3 177/1/3 179/1/3
f 183/4/3 182/4/3 181/4/3
f 184/4/3 182/4/3 183/4/3
f 186/4/3 185/4/3 184/4/3
f 188/4/3 186/4/3 184/4/3
f 189/4/3 186/4/3 188/4/3
f 190/4/3 188/4/3 187/4/3
f 191/4/3 188/4/3 190/4/3
f 193/4/3 192/4/3 191/4/3
f 194/4/3 192/4/3 193/4/3
f 197/3/3 196/3/3 195/3/3
f 198/3/3 196/3/3 197/3/3
f 201/3/3 200/3/3 199/3/3
f 202/3/3 200/3/3 201/3/3
f 206/1/3 204/1/3 203/1/3
f 206/2/3 205/2/3 204/2/3
f 207/2/3 205/2/3 206/2/3
f 208/1/3 206/1/3 203/1/3
f 208/1/3 207/1/3 206/1/3
f 209/1/3 207/1/3 208/1/3
f 212/1/3 211/1/3 210/1/3
f 213/1/3 211/1/3 212/1/3
f 216/4/3 214/4/3 213/4/3
f 217/4/3 214/4/3 216/4/3
f 219/4/3 216/4/3 215/4/3
f 220/4/3 216/4/3 219/4/3
f 221/4/3 219/4/3 218/4/3
f 223/4/3 221/4/3 218/4/3
f 224/3/3 222/3/3 221/3/3
f 224/4/3 221/4/3 223/4/3
f 225/3/3 222/3/3 224/3/3
f 226/3/3 222/3/3 225/3/3
f 229/4/3 228/4/3 227/4/3
f 231/4/3 229/4/3 227/4/3
f 232/4/3 229/4/3 231/4/3
f 233/4/3 231/4/3 230/4/3
f 234/4/3 231/4/3 233/4/3
f 237/4/3 236/4/3 235/4/3
f 238/4/3 236/4/3 237/4/3
f 239/4/4 240/4/4 243/4/4
f 243/4/4 240/4/4 244/4/4
f 241/3/4 242/3/4 245/3/4
f 244/4/4 245/4/4 246/4/4
f 245/3/4 242/3/4 246/3/4
f 246/3/4 242/3/4 247/3/4
f 244/4/4 246/4/4 249/4/4
f 249/4/4 246/4/4 250/4/4
f 248/4/4 249/4/4 251/4/4
f 251/4/4 249/4/4 252/4/4
f 252/4/4 253/4/4 254/4/4
f 254/4/4 253/4/4 255/4/4
f 256/1/4 257/1/4 260/1/4
f 257/2/4 258/2/4 260/2/4
f 258/1/4 259/1/4 261/1/4
f 260/2/4 258/2/4 261/2/4
f 256/1/4 260/1/4 262/1/4
f 260/1/4 261/1/4 262/1/4
f 262/1/4 261/1/4 263/1/4
f 261/1/4 259/1/4 264/1/4
f 263/1/4 261/1/4 264/1/4
f 264/1/4 259/1/4 265/1/4
f 262/2/4 263/2/4 266/2/4
f 263/1/4 264/1/4 267/1/4
f 266/2/4 263/2/4 267/2/4
f 264/2/4 265/2/4 268/2/4
f 267/1/4 264/1/4 268/1/4
f 268/2/4 265/2/4 269/2/4
f 270/3/4 271/3/4 272/3/4
f 272/3/4 271/3/4 273/3/4
f 274/4/4 275/4/4 277/4/4
f 277/4/4 275/4/4 278/4/4
f 276/4/4 277/4/4 280/4/4
f 280/4/4 277/4/4 281/4/4
f 279/4/4 280/4/4 282/4/4
f 279/4/4 282/4/4 283/4/4
f 283/4/4 282/4/4 284/4/4
f 285/3/4 286/3/4 288/3/4
f 288/3/4 286/3/4 289/3/4
f 287/4/4 288/4/4 289/4/4
f 289/3/4 286/3/4 290/3/4
f 287/4/4 289/4/4 293/4/4
f 293/4/4 289/4/4 294/4/4
f 291/1/4 292/1/4 295/1/4
f 295/1/4 292/1/4 296/1/4
f 292/4/4 293/4/4 297/4/4
f 296/1/4 292/1/4 297/1/4
f 297/4/4 293/4/4 298/4/4
f 295/2/4 296/2/4 299/2/4
f 296/1/4 297/1/4 300/1/4
f 299/2/4 296/2/4 300/2/4
f 300/1/4 297/1/4 301/1/4
f 302/1/4 303/1/4 304/1/4
f 304/1/4 303/1/4 305/1/4
f 302/1/4 304/1/4 306/1/4
f 304/2/4 305/2/4 307/2/4
f 306/1/4 304/1/4 307/1/4
f 307/2/4 305/2/4 308/2/4
f 309/4/4 310/4/4 311/4/4
f 311/4/4 310/4/4 312/4/4
f 313/3/4 314/3/4 315/3/4
f 315/3/4 314/3/4 316/3/4
f 321/2/5 318/2/5 317/2/5
f 322/1/5 319/1/5 318/1/5
f 322/2/5 318/2/5 321/2/5
f 323/2/5 320/2/5 319/2/5
f 323/1/5 319/1/5 322/1/5
f 324/2/5 320/2/5 323/2/5
f 325/1/5 322/1/5 321/1/5
f 325/1/5 323/1/5 322/1/5
f 325/1/5 324/1/5 323/1/5
f 326/1/5 324/1/5 325/1/5
f 327/1/5 325/1/5 321/1/5
f 328/2/5 326/2/5 325/2/5
f 328/1/5 325/1/5 327/1/5
f 329/2/5 326/2/5 328/2/5
f 336/1/5 331/1/5 330/1/5
f 337/1/5 331/1/5 336/1/5
f 338/4/5 335/4/5 334/4/5
f 339/4/5 335/4/5 338/4/5
f 340/1/5 336/1/5 330/1/5
f 341/2/5 337/2/5 336/2/5
f 341/1/5 336/1/5 340/1/5
f 342/2/5 337/2/5 341/2/5
f 343/1/5 333/1/5 332/1/5
f 344/1/5 333/1/5 343/1/5
f 349/4/5 346/4/5 345/4/5
f 350/4/5 346/4/5 349/4/5
f 352/3/5 348/3/5 347/3/5
f 353/3/5 352/3/5 351/3/5
f 354/3/5 348/3/5 352/3/5
f 354/3/5 352/3/5 353/3/5
f 357/4/5 356/4/5 355/4/5
f 358/4/5 356/4/5 357/4/5
f 361/4/5 360/4/5 359/4/5
f 362/4/5 360/4/5 361/4/5
f 365/4/5 364/4/5 363/4/5
f 366/4/5 364/4/5 365/4/5
f 369/4/5 368/4/5 367/4/5
f 370/4/5 368/4/5 369/4/5
f 375/4/5 372/4/5 371/4/5
f 376/4/5 372/4/5 375/4/5
f 377/4/5 374/4/5 373/4/5
f 378/4/5 374/4/5 377/4/5
f 379/4/5 374/4/5 378/4/5
f 381/3/5 380/3/5 379/3/5
f 381/3/5 379/3/5 378/3/5
f 382/3/5 380/3/5 381/3/5
f 385/3/5 384/3/5 383/3/5
f 386/3/5 384/3/5 385/3/5
f 387/3/5 385/3/5 383/3/5
f 388/3/5 385/3/5 387/3/5
f 391/3/5 390/3/5 389/3/5
f 392/3/5 390/3/5 391/3/5
f 393/3/5 391/3/5 389/3/5
f 394/3/5 391/3/5 393/3/5
f 395/4/6 396/4/6 397/4/6
f 397/4/6 396/4/6 398/4/6
f 399/2/6 400/2/6 408/2/6
f 400/1/6 401/1/6 409/1/6
f 408/2/6 400/2/6 409/2/6
f 402/1/6 403/1/6 410/1/6
f 410/1/6 403/1/6 411/1/6
f 404/4/6 405/4/6 412/4/6
f 412/4/6 405/4/6 413/4/6
f 409/1/6 401/1/6 414/1/6
f 414/1/6 401/1/6 415/1/6
f 402/1/6 410/1/6 416/1/6
f 410/2/6 411/2/6 417/2/6
f 416/1/6 410/1/6 417/1/6
f 417/2/6 411/2/6 418/2/6
f 406/3/6 407/3/6 419/3/6
f 419/3/6 407/3/6 420/3/6
f 421/1/6 422/1/6 425/1/6
f 422/2/6 423/2/6 425/2/6
f 423/1/6 424/1/6 426/1/6
f 425/2/6 423/2/6 426/2/6
f 421/1/6 425/1/6 427/1/6
f 426/1/6 424/1/6 428/1/6
f 428/1/6 424/1/6 429/1/6
f 421/1/6 427/1/6 430/1/6
f 427/1/6 428/1/6 430/1/6
f 428/2/6 429/2/6 431/2/6
f 430/1/6 428/1/6 431/1/6
f 431/2/6 429/2/6 432/2/6
f 433/4/6 434/4/6 437/4/6
f 437/4/6 434/4/6 438/4/6
f 435/4/6 436/4/6 439/4/6
f 439/4/6 436/4/6 440/4/6
f 441/4/6 442/4/6 445/4/6
f 445/4/6 442/4/6 446/4/6
f 443/4/6 444/4/6 447/4/6
f 447/4/6 444/4/6 448/4/6
f 449/4/6 450/4/6 451/4/6
f 451/4/6 450/4/6 452/4/6
f 453/4/6 454/4/6 455/4/6
f 455/4/6 454/4/6 456/4/6
f 457/4/6 458/4/6 461/4/6
f 461/4/6 458/4/6 462/4/6
f 459/4/6 460/4/6 463/4/6
f 463/4/6 460/4/6 464/4/6
f 464/4/6 460/4/6 465/4/6
f 465/3/6 466/3/6 467/3/6
f 464/3/6 465/3/6 467/3/6
f 467/3/6 466/3/6 468/3/6
f 469/3/6 470/3/6 471/3/6
f 471/3/6 470/3/6 472/3/6
f 473/3/6 474/3/6 475/3/6
f 475/3/6 474/3/6 476/3/6
