# MagicaVoxel @ Ephtracy

# group
o 

# material
mtllib Pasteque3.mtl
usemtl palette

# normals
vn -1 0 0
vn 1 0 0
vn 0 0 1
vn 0 0 -1
vn 0 -1 0
vn 0 1 0

# texcoords
vt 0.978516 0.5
vt 0.982422 0.5
vt 0.986328 0.5
vt 0.990234 0.5

# verts
v -0.5 0 0.6
v -0.5 0 0.3
v -0.5 0.1 0.6
v -0.5 0.1 0.3
v -0.4 0 -0.2
v -0.4 0 -0.3
v -0.4 0 -0.4
v -0.4 0 -0.5
v -0.4 0.3 -0.2
v -0.4 0.3 -0.3
v -0.4 0.3 -0.4
v -0.4 0.3 -0.5
v -0.4 0.4 -0.3
v -0.4 0.4 -0.5
v -0.4 0.5 -0.3
v -0.4 0.5 -0.5
v -0.3 0 0.3
v -0.3 0 0.1
v -0.3 0.1 0.3
v -0.3 0.1 0.1
v -0.3 0.3 -0.3
v -0.3 0.3 -0.4
v -0.3 0.4 -0.2
v -0.3 0.4 -0.3
v -0.3 0.4 -0.4
v -0.3 0.5 -0.2
v -0.3 0.5 -0.3
v 0 0.5 0.2
v 0 0.5 0.1
v 0 0.6 0.2
v 0 0.6 0.1
v 0.1 0 0.5
v 0.1 0 0.4
v 0.1 0 0.3
v 0.1 0 0.2
v 0.1 0 0.1
v 0.1 0.4 0.5
v 0.1 0.4 0.4
v 0.1 0.4 0.3
v 0.1 0.4 0.2
v 0.1 0.4 0.1
v 0.2 0 -0.1
v 0.2 0 -0.2
v 0.2 0.1 -0.2
v 0.2 0.1 -0.3
v 0.2 0.2 -0.1
v 0.2 0.2 -0.3
v 0.2 0.4 0.3
v 0.2 0.4 0.2
v 0.2 0.5 0.6
v 0.2 0.5 0.3
v 0.2 0.5 0.2
v 0.2 0.6 0.6
v 0.2 0.6 0.3
v 0.2 0.6 0.2
v -0.2 0 0.6
v -0.2 0 0.3
v -0.2 0.1 0.6
v -0.2 0.1 0.3
v -0.2 0.3 -0.3
v -0.2 0.3 -0.4
v -0.2 0.4 -0.2
v -0.2 0.4 -0.3
v -0.2 0.4 -0.4
v -0.2 0.4 -0.5
v -0.2 0.5 -0.2
v -0.2 0.5 -0.4
v -0.2 0.5 -0.5
v -0.1 0 0.3
v -0.1 0 0.1
v -0.1 0 -0.2
v -0.1 0 -0.3
v -0.1 0 -0.4
v -0.1 0 -0.5
v -0.1 0.1 0.3
v -0.1 0.1 0.1
v -0.1 0.3 -0.2
v -0.1 0.3 -0.3
v -0.1 0.3 -0.4
v -0.1 0.3 -0.5
v 0.2 0.5 0.2
v 0.2 0.5 0.1
v 0.2 0.6 0.2
v 0.2 0.6 0.1
v 0.3 0 -0.1
v 0.3 0 -0.2
v 0.3 0.1 -0.1
v 0.3 0.1 -0.2
v 0.3 0.4 0.3
v 0.3 0.4 0.2
v 0.3 0.5 0.3
v 0.3 0.5 0.2
v 0.4 0.1 -0.1
v 0.4 0.1 -0.3
v 0.4 0.2 -0.1
v 0.4 0.2 -0.3
v 0.5 0 0.5
v 0.5 0 0.4
v 0.5 0 0.3
v 0.5 0 0.2
v 0.5 0 0.1
v 0.5 0.4 0.5
v 0.5 0.4 0.4
v 0.5 0.4 0.3
v 0.5 0.4 0.2
v 0.5 0.4 0.1
v 0.6 0.5 0.6
v 0.6 0.5 0.2
v 0.6 0.6 0.6
v 0.6 0.6 0.2
v -0.5 0 0.6
v -0.5 0.1 0.6
v -0.2 0 0.6
v -0.2 0.1 0.6
v 0.2 0.5 0.6
v 0.2 0.6 0.6
v 0.6 0.5 0.6
v 0.6 0.6 0.6
v 0.1 0 0.5
v 0.1 0.4 0.5
v 0.2 0 0.5
v 0.2 0.4 0.5
v 0.3 0 0.5
v 0.3 0.4 0.5
v 0.4 0 0.5
v 0.4 0.4 0.5
v 0.5 0 0.5
v 0.5 0.4 0.5
v -0.2 0 0.3
v -0.2 0.1 0.3
v -0.1 0 0.3
v -0.1 0.1 0.3
v 0.2 0.4 0.3
v 0.2 0.5 0.3
v 0.3 0.4 0.3
v 0.3 0.5 0.3
v 0 0.5 0.2
v 0 0.6 0.2
v 0.2 0.5 0.2
v 0.2 0.6 0.2
v 0.2 0 -0.1
v 0.2 0.2 -0.1
v 0.3 0 -0.1
v 0.3 0.1 -0.1
v 0.4 0.1 -0.1
v 0.4 0.2 -0.1
v -0.4 0 -0.2
v -0.4 0.3 -0.2
v -0.3 0 -0.2
v -0.3 0.3 -0.2
v -0.3 0.4 -0.2
v -0.3 0.5 -0.2
v -0.2 0 -0.2
v -0.2 0.3 -0.2
v -0.2 0.4 -0.2
v -0.2 0.5 -0.2
v -0.1 0 -0.2
v -0.1 0.3 -0.2
v -0.4 0.4 -0.3
v -0.4 0.5 -0.3
v -0.3 0.3 -0.3
v -0.3 0.4 -0.3
v -0.3 0.5 -0.3
v -0.2 0.3 -0.3
v -0.2 0.4 -0.3
v -0.5 0 0.3
v -0.5 0.1 0.3
v -0.3 0 0.3
v -0.3 0.1 0.3
v 0.2 0.4 0.2
v 0.2 0.5 0.2
v 0.2 0.6 0.2
v 0.3 0.4 0.2
v 0.3 0.5 0.2
v 0.3 0.6 0.2
v 0.6 0.5 0.2
v 0.6 0.6 0.2
v -0.3 0 0.1
v -0.3 0.1 0.1
v -0.1 0 0.1
v -0.1 0.1 0.1
v 0 0.5 0.1
v 0 0.6 0.1
v 0.1 0 0.1
v 0.1 0.4 0.1
v 0.2 0 0.1
v 0.2 0.4 0.1
v 0.2 0.5 0.1
v 0.2 0.6 0.1
v 0.3 0 0.1
v 0.3 0.4 0.1
v 0.4 0 0.1
v 0.4 0.4 0.1
v 0.5 0 0.1
v 0.5 0.4 0.1
v 0.2 0 -0.2
v 0.2 0.1 -0.2
v 0.3 0 -0.2
v 0.3 0.1 -0.2
v 0.2 0.1 -0.3
v 0.2 0.2 -0.3
v 0.4 0.1 -0.3
v 0.4 0.2 -0.3
v -0.3 0.3 -0.4
v -0.3 0.4 -0.4
v -0.2 0.3 -0.4
v -0.2 0.4 -0.4
v -0.4 0 -0.5
v -0.4 0.3 -0.5
v -0.4 0.4 -0.5
v -0.4 0.5 -0.5
v -0.3 0 -0.5
v -0.3 0.3 -0.5
v -0.2 0 -0.5
v -0.2 0.3 -0.5
v -0.2 0.4 -0.5
v -0.2 0.5 -0.5
v -0.1 0 -0.5
v -0.1 0.3 -0.5
v -0.5 0 0.6
v -0.2 0 0.6
v 0.1 0 0.5
v 0.2 0 0.5
v 0.3 0 0.5
v 0.4 0 0.5
v 0.5 0 0.5
v 0.1 0 0.4
v 0.2 0 0.4
v 0.3 0 0.4
v 0.4 0 0.4
v 0.5 0 0.4
v -0.5 0 0.3
v -0.3 0 0.3
v -0.2 0 0.3
v -0.1 0 0.3
v 0.1 0 0.3
v 0.2 0 0.3
v 0.4 0 0.3
v 0.5 0 0.3
v 0.1 0 0.2
v 0.2 0 0.2
v 0.3 0 0.2
v 0.4 0 0.2
v 0.5 0 0.2
v -0.3 0 0.1
v -0.1 0 0.1
v 0.1 0 0.1
v 0.2 0 0.1
v 0.3 0 0.1
v 0.4 0 0.1
v 0.5 0 0.1
v 0.2 0 -0.1
v 0.3 0 -0.1
v -0.4 0 -0.2
v -0.3 0 -0.2
v -0.2 0 -0.2
v -0.1 0 -0.2
v 0.2 0 -0.2
v 0.3 0 -0.2
v -0.4 0 -0.3
v -0.3 0 -0.3
v -0.2 0 -0.3
v -0.1 0 -0.3
v -0.4 0 -0.4
v -0.3 0 -0.4
v -0.2 0 -0.4
v -0.1 0 -0.4
v -0.4 0 -0.5
v -0.3 0 -0.5
v -0.2 0 -0.5
v -0.1 0 -0.5
v 0.3 0.1 -0.1
v 0.4 0.1 -0.1
v 0.2 0.1 -0.2
v 0.3 0.1 -0.2
v 0.2 0.1 -0.3
v 0.4 0.1 -0.3
v -0.3 0.4 -0.2
v -0.2 0.4 -0.2
v -0.4 0.4 -0.3
v -0.3 0.4 -0.3
v -0.2 0.4 -0.3
v -0.3 0.4 -0.4
v -0.2 0.4 -0.4
v -0.4 0.4 -0.5
v -0.2 0.4 -0.5
v 0.2 0.5 0.6
v 0.6 0.5 0.6
v 0.2 0.5 0.3
v 0.3 0.5 0.3
v 0 0.5 0.2
v 0.2 0.5 0.2
v 0.3 0.5 0.2
v 0.6 0.5 0.2
v 0 0.5 0.1
v 0.2 0.5 0.1
v -0.5 0.1 0.6
v -0.2 0.1 0.6
v -0.5 0.1 0.3
v -0.3 0.1 0.3
v -0.2 0.1 0.3
v -0.1 0.1 0.3
v -0.3 0.1 0.1
v -0.1 0.1 0.1
v 0.2 0.2 -0.1
v 0.4 0.2 -0.1
v 0.2 0.2 -0.3
v 0.4 0.2 -0.3
v -0.4 0.3 -0.2
v -0.3 0.3 -0.2
v -0.2 0.3 -0.2
v -0.1 0.3 -0.2
v -0.4 0.3 -0.3
v -0.3 0.3 -0.3
v -0.2 0.3 -0.3
v -0.1 0.3 -0.3
v -0.4 0.3 -0.4
v -0.3 0.3 -0.4
v -0.2 0.3 -0.4
v -0.1 0.3 -0.4
v -0.4 0.3 -0.5
v -0.3 0.3 -0.5
v -0.2 0.3 -0.5
v -0.1 0.3 -0.5
v 0.1 0.4 0.5
v 0.2 0.4 0.5
v 0.3 0.4 0.5
v 0.4 0.4 0.5
v 0.5 0.4 0.5
v 0.1 0.4 0.4
v 0.2 0.4 0.4
v 0.3 0.4 0.4
v 0.4 0.4 0.4
v 0.5 0.4 0.4
v 0.1 0.4 0.3
v 0.2 0.4 0.3
v 0.3 0.4 0.3
v 0.4 0.4 0.3
v 0.5 0.4 0.3
v 0.1 0.4 0.2
v 0.2 0.4 0.2
v 0.3 0.4 0.2
v 0.4 0.4 0.2
v 0.5 0.4 0.2
v 0.1 0.4 0.1
v 0.2 0.4 0.1
v 0.3 0.4 0.1
v 0.4 0.4 0.1
v 0.5 0.4 0.1
v -0.3 0.5 -0.2
v -0.2 0.5 -0.2
v -0.4 0.5 -0.3
v -0.3 0.5 -0.3
v -0.3 0.5 -0.4
v -0.2 0.5 -0.4
v -0.4 0.5 -0.5
v -0.2 0.5 -0.5
v 0.2 0.6 0.6
v 0.6 0.6 0.6
v 0.2 0.6 0.3
v 0.3 0.6 0.3
v 0 0.6 0.2
v 0.2 0.6 0.2
v 0.3 0.6 0.2
v 0.6 0.6 0.2
v 0 0.6 0.1
v 0.2 0.6 0.1

# faces
f 3/4/1 2/4/1 1/4/1
f 4/4/1 2/4/1 3/4/1
f 9/1/1 6/1/1 5/1/1
f 10/2/1 7/2/1 6/2/1
f 10/1/1 6/1/1 9/1/1
f 11/1/1 8/1/1 7/1/1
f 11/2/1 7/2/1 10/2/1
f 12/1/1 8/1/1 11/1/1
f 15/4/1 14/4/1 13/4/1
f 16/4/1 14/4/1 15/4/1
f 19/4/1 18/4/1 17/4/1
f 20/4/1 18/4/1 19/4/1
f 24/3/1 22/3/1 21/3/1
f 25/3/1 22/3/1 24/3/1
f 26/3/1 24/3/1 23/3/1
f 27/3/1 24/3/1 26/3/1
f 30/3/1 29/3/1 28/3/1
f 31/3/1 29/3/1 30/3/1
f 37/2/1 33/2/1 32/2/1
f 38/1/1 34/1/1 33/1/1
f 38/2/1 33/2/1 37/2/1
f 39/2/1 35/2/1 34/2/1
f 39/1/1 34/1/1 38/1/1
f 40/1/1 36/1/1 35/1/1
f 40/2/1 35/2/1 39/2/1
f 41/1/1 36/1/1 40/1/1
f 44/4/1 43/4/1 42/4/1
f 46/4/1 44/4/1 42/4/1
f 46/4/1 45/4/1 44/4/1
f 47/4/1 45/4/1 46/4/1
f 51/3/1 49/3/1 48/3/1
f 52/3/1 49/3/1 51/3/1
f 53/4/1 51/4/1 50/4/1
f 54/3/1 52/3/1 51/3/1
f 54/4/1 51/4/1 53/4/1
f 55/3/1 52/3/1 54/3/1
f 56/4/2 57/4/2 58/4/2
f 58/4/2 57/4/2 59/4/2
f 60/3/2 61/3/2 63/3/2
f 63/3/2 61/3/2 64/3/2
f 62/3/2 63/3/2 66/3/2
f 63/3/2 64/3/2 66/3/2
f 64/4/2 65/4/2 67/4/2
f 66/3/2 64/3/2 67/3/2
f 67/4/2 65/4/2 68/4/2
f 69/4/2 70/4/2 75/4/2
f 75/4/2 70/4/2 76/4/2
f 71/1/2 72/1/2 77/1/2
f 72/2/2 73/2/2 78/2/2
f 77/1/2 72/1/2 78/1/2
f 73/1/2 74/1/2 79/1/2
f 78/2/2 73/2/2 79/2/2
f 79/1/2 74/1/2 80/1/2
f 81/3/2 82/3/2 83/3/2
f 83/3/2 82/3/2 84/3/2
f 85/4/2 86/4/2 87/4/2
f 87/4/2 86/4/2 88/4/2
f 89/3/2 90/3/2 91/3/2
f 91/3/2 90/3/2 92/3/2
f 93/4/2 94/4/2 95/4/2
f 95/4/2 94/4/2 96/4/2
f 97/1/2 98/1/2 102/1/2
f 98/2/2 99/2/2 103/2/2
f 102/1/2 98/1/2 103/1/2
f 99/1/2 100/1/2 104/1/2
f 103/2/2 99/2/2 104/2/2
f 100/2/2 101/2/2 105/2/2
f 104/1/2 100/1/2 105/1/2
f 105/2/2 101/2/2 106/2/2
f 107/4/2 108/4/2 109/4/2
f 109/4/2 108/4/2 110/4/2
f 113/4/3 112/4/3 111/4/3
f 114/4/3 112/4/3 113/4/3
f 117/4/3 116/4/3 115/4/3
f 118/4/3 116/4/3 117/4/3
f 121/2/3 120/2/3 119/2/3
f 122/2/3 120/2/3 121/2/3
f 123/1/3 122/1/3 121/1/3
f 124/1/3 122/1/3 123/1/3
f 125/2/3 124/2/3 123/2/3
f 126/2/3 124/2/3 125/2/3
f 127/1/3 126/1/3 125/1/3
f 128/1/3 126/1/3 127/1/3
f 131/4/3 130/4/3 129/4/3
f 132/4/3 130/4/3 131/4/3
f 135/3/3 134/3/3 133/3/3
f 136/3/3 134/3/3 135/3/3
f 139/3/3 138/3/3 137/3/3
f 140/3/3 138/3/3 139/3/3
f 143/4/3 142/4/3 141/4/3
f 144/4/3 142/4/3 143/4/3
f 145/4/3 142/4/3 144/4/3
f 146/4/3 142/4/3 145/4/3
f 149/1/3 148/1/3 147/1/3
f 150/1/3 148/1/3 149/1/3
f 153/2/3 150/2/3 149/2/3
f 154/2/3 150/2/3 153/2/3
f 155/3/3 152/3/3 151/3/3
f 156/3/3 152/3/3 155/3/3
f 157/1/3 154/1/3 153/1/3
f 158/1/3 154/1/3 157/1/3
f 162/4/3 160/4/3 159/4/3
f 163/4/3 160/4/3 162/4/3
f 164/3/3 162/3/3 161/3/3
f 165/3/3 162/3/3 164/3/3
f 166/4/4 167/4/4 168/4/4
f 168/4/4 167/4/4 169/4/4
f 170/3/4 171/3/4 173/3/4
f 171/3/4 172/3/4 173/3/4
f 173/3/4 172/3/4 174/3/4
f 174/3/4 172/3/4 175/3/4
f 174/4/4 175/4/4 176/4/4
f 176/4/4 175/4/4 177/4/4
f 178/4/4 179/4/4 180/4/4
f 180/4/4 179/4/4 181/4/4
f 184/1/4 185/1/4 186/1/4
f 186/1/4 185/1/4 187/1/4
f 182/3/4 183/3/4 188/3/4
f 188/3/4 183/3/4 189/3/4
f 186/2/4 187/2/4 190/2/4
f 190/2/4 187/2/4 191/2/4
f 190/1/4 191/1/4 192/1/4
f 192/1/4 191/1/4 193/1/4
f 192/2/4 193/2/4 194/2/4
f 194/2/4 193/2/4 195/2/4
f 196/4/4 197/4/4 198/4/4
f 198/4/4 197/4/4 199/4/4
f 200/4/4 201/4/4 202/4/4
f 202/4/4 201/4/4 203/4/4
f 204/3/4 205/3/4 206/3/4
f 206/3/4 205/3/4 207/3/4
f 208/1/4 209/1/4 212/1/4
f 212/1/4 209/1/4 213/1/4
f 212/2/4 213/2/4 214/2/4
f 214/2/4 213/2/4 215/2/4
f 210/4/4 211/4/4 216/4/4
f 216/4/4 211/4/4 217/4/4
f 214/1/4 215/1/4 218/1/4
f 218/1/4 215/1/4 219/1/4
f 227/2/5 223/2/5 222/2/5
f 228/1/5 224/1/5 223/1/5
f 228/2/5 223/2/5 227/2/5
f 229/2/5 225/2/5 224/2/5
f 229/1/5 224/1/5 228/1/5
f 230/1/5 226/1/5 225/1/5
f 230/2/5 225/2/5 229/2/5
f 231/1/5 226/1/5 230/1/5
f 232/4/5 221/4/5 220/4/5
f 233/4/5 221/4/5 232/4/5
f 234/4/5 221/4/5 233/4/5
f 236/1/5 228/1/5 227/1/5
f 237/2/5 229/2/5 228/2/5
f 237/1/5 228/1/5 236/1/5
f 237/2/5 230/2/5 229/2/5
f 237/2/5 231/2/5 230/2/5
f 238/2/5 231/2/5 237/2/5
f 239/2/5 231/2/5 238/2/5
f 240/2/5 237/2/5 236/2/5
f 240/2/5 238/2/5 237/2/5
f 241/2/5 238/2/5 240/2/5
f 242/2/5 238/2/5 241/2/5
f 243/1/5 239/1/5 238/1/5
f 243/2/5 238/2/5 242/2/5
f 244/1/5 239/1/5 243/1/5
f 245/4/5 235/4/5 234/4/5
f 245/4/5 234/4/5 233/4/5
f 246/4/5 235/4/5 245/4/5
f 247/1/5 241/1/5 240/1/5
f 248/2/5 242/2/5 241/2/5
f 248/1/5 241/1/5 247/1/5
f 249/1/5 243/1/5 242/1/5
f 249/2/5 242/2/5 248/2/5
f 250/2/5 244/2/5 243/2/5
f 250/1/5 243/1/5 249/1/5
f 251/2/5 244/2/5 250/2/5
f 258/4/5 253/4/5 252/4/5
f 259/4/5 253/4/5 258/4/5
f 260/1/5 255/1/5 254/1/5
f 261/2/5 256/2/5 255/2/5
f 261/1/5 255/1/5 260/1/5
f 262/1/5 257/1/5 256/1/5
f 262/2/5 256/2/5 261/2/5
f 263/1/5 257/1/5 262/1/5
f 264/2/5 261/2/5 260/2/5
f 264/2/5 262/2/5 261/2/5
f 264/2/5 263/2/5 262/2/5
f 265/2/5 263/2/5 264/2/5
f 266/2/5 263/2/5 265/2/5
f 267/2/5 263/2/5 266/2/5
f 268/1/5 265/1/5 264/1/5
f 269/2/5 266/2/5 265/2/5
f 269/1/5 265/1/5 268/1/5
f 270/1/5 267/1/5 266/1/5
f 270/2/5 266/2/5 269/2/5
f 271/1/5 267/1/5 270/1/5
f 275/4/5 273/4/5 272/4/5
f 276/4/5 275/4/5 274/4/5
f 277/4/5 273/4/5 275/4/5
f 277/4/5 275/4/5 276/4/5
f 281/3/5 279/3/5 278/3/5
f 282/3/5 279/3/5 281/3/5
f 283/4/5 281/4/5 280/4/5
f 285/4/5 283/4/5 280/4/5
f 285/4/5 284/4/5 283/4/5
f 286/4/5 284/4/5 285/4/5
f 289/4/5 288/4/5 287/4/5
f 290/4/5 288/4/5 289/4/5
f 293/4/5 288/4/5 290/4/5
f 294/4/5 288/4/5 293/4/5
f 295/3/5 292/3/5 291/3/5
f 296/3/5 292/3/5 295/3/5
f 297/4/6 298/4/6 299/4/6
f 299/4/6 298/4/6 300/4/6
f 300/4/6 298/4/6 301/4/6
f 301/4/6 302/4/6 303/4/6
f 300/4/6 301/4/6 303/4/6
f 303/4/6 302/4/6 304/4/6
f 305/4/6 306/4/6 307/4/6
f 307/4/6 306/4/6 308/4/6
f 309/1/6 310/1/6 313/1/6
f 310/2/6 311/2/6 314/2/6
f 313/1/6 310/1/6 314/1/6
f 311/1/6 312/1/6 315/1/6
f 314/2/6 311/2/6 315/2/6
f 315/1/6 312/1/6 316/1/6
f 313/2/6 314/2/6 317/2/6
f 317/2/6 314/2/6 318/2/6
f 315/2/6 316/2/6 319/2/6
f 319/2/6 316/2/6 320/2/6
f 317/1/6 318/1/6 321/1/6
f 318/2/6 319/2/6 322/2/6
f 321/1/6 318/1/6 322/1/6
f 319/1/6 320/1/6 323/1/6
f 322/2/6 319/2/6 323/2/6
f 323/1/6 320/1/6 324/1/6
f 325/2/6 326/2/6 330/2/6
f 326/1/6 327/1/6 331/1/6
f 330/2/6 326/2/6 331/2/6
f 327/2/6 328/2/6 332/2/6
f 331/1/6 327/1/6 332/1/6
f 328/1/6 329/1/6 333/1/6
f 332/2/6 328/2/6 333/2/6
f 333/1/6 329/1/6 334/1/6
f 330/1/6 331/1/6 335/1/6
f 331/2/6 332/2/6 336/2/6
f 335/1/6 331/1/6 336/1/6
f 332/2/6 333/2/6 336/2/6
f 333/2/6 334/2/6 336/2/6
f 336/2/6 334/2/6 337/2/6
f 337/2/6 334/2/6 338/2/6
f 338/2/6 334/2/6 339/2/6
f 335/2/6 336/2/6 340/2/6
f 340/2/6 336/2/6 341/2/6
f 337/2/6 338/2/6 342/2/6
f 338/1/6 339/1/6 343/1/6
f 342/2/6 338/2/6 343/2/6
f 343/1/6 339/1/6 344/1/6
f 340/1/6 341/1/6 345/1/6
f 341/2/6 342/2/6 346/2/6
f 345/1/6 341/1/6 346/1/6
f 342/1/6 343/1/6 347/1/6
f 346/2/6 342/2/6 347/2/6
f 343/2/6 344/2/6 348/2/6
f 347/1/6 343/1/6 348/1/6
f 348/2/6 344/2/6 349/2/6
f 350/3/6 351/3/6 353/3/6
f 353/3/6 351/3/6 354/3/6
f 352/4/6 353/4/6 354/4/6
f 354/3/6 351/3/6 355/3/6
f 352/4/6 354/4/6 356/4/6
f 354/4/6 355/4/6 356/4/6
f 356/4/6 355/4/6 357/4/6
f 358/4/6 359/4/6 360/4/6
f 360/4/6 359/4/6 361/4/6
f 360/3/6 361/3/6 363/3/6
f 361/4/6 359/4/6 364/4/6
f 363/3/6 361/3/6 364/3/6
f 364/4/6 359/4/6 365/4/6
f 362/3/6 363/3/6 366/3/6
f 366/3/6 363/3/6 367/3/6
