# MagicaVoxel @ Ephtracy

# group
o 

# material
mtllib Terre5.mtl
usemtl palette

# normals
vn -1 0 0
vn 1 0 0
vn 0 0 1
vn 0 0 -1
vn 0 -1 0
vn 0 1 0

# texcoords
vt 0.912109 0.5
vt 0.939453 0.5

# verts
v -0.8 0 0.8
v -0.8 0 -1
v -0.8 0.2 0.8
v -0.8 0.2 -1
v -0.6 0.2 0.6
v -0.6 0.2 -1
v -0.6 0.4 0.6
v -0.6 0.4 -1
v 1 0 0.8
v 1 0 -1
v 1 0.2 0.8
v 1 0.2 0.6
v 1 0.2 -1
v 1 0.4 0.6
v 1 0.4 -1
v -0.8 0 0.8
v -0.8 0.2 0.8
v 1 0 0.8
v 1 0.2 0.8
v -0.6 0.2 0.6
v -0.6 0.4 0.6
v 1 0.2 0.6
v 1 0.4 0.6
v -0.8 0 -1
v -0.8 0.2 -1
v -0.6 0.2 -1
v -0.6 0.4 -1
v 1 0 -1
v 1 0.2 -1
v 1 0.4 -1
v -0.8 0 0.8
v 1 0 0.8
v -0.8 0 -1
v 1 0 -1
v -0.8 0.2 0.8
v 1 0.2 0.8
v -0.6 0.2 0.6
v 1 0.2 0.6
v -0.8 0.2 -1
v -0.6 0.2 -1
v -0.6 0.4 0.6
v 1 0.4 0.6
v -0.6 0.4 -1
v 1 0.4 -1

# faces
f 3/1/1 2/1/1 1/1/1
f 4/1/1 2/1/1 3/1/1
f 7/2/1 6/2/1 5/2/1
f 8/2/1 6/2/1 7/2/1
f 9/1/2 10/1/2 11/1/2
f 11/1/2 10/1/2 12/1/2
f 12/1/2 10/1/2 13/1/2
f 12/2/2 13/2/2 14/2/2
f 14/2/2 13/2/2 15/2/2
f 18/1/3 17/1/3 16/1/3
f 19/1/3 17/1/3 18/1/3
f 22/2/3 21/2/3 20/2/3
f 23/2/3 21/2/3 22/2/3
f 24/1/4 25/1/4 26/1/4
f 24/1/4 26/1/4 28/1/4
f 26/2/4 27/2/4 29/2/4
f 28/1/4 26/1/4 29/1/4
f 29/2/4 27/2/4 30/2/4
f 33/1/5 32/1/5 31/1/5
f 34/1/5 32/1/5 33/1/5
f 35/1/6 36/1/6 37/1/6
f 37/1/6 36/1/6 38/1/6
f 35/1/6 37/1/6 39/1/6
f 39/1/6 37/1/6 40/1/6
f 41/2/6 42/2/6 43/2/6
f 43/2/6 42/2/6 44/2/6
