# MagicaVoxel @ Ephtracy

# group
o 

# material
mtllib Vigne1.mtl
usemtl palette

# normals
vn -1 0 0
vn 1 0 0
vn 0 0 1
vn 0 0 -1
vn 0 -1 0
vn 0 1 0

# texcoords
vt 0.931641 0.5
vt 0.939453 0.5
vt 0.947266 0.5
vt 0.990234 0.5

# verts
v -0.6 0.6 -0.1
v -0.6 0.6 -0.3
v -0.6 1 -0.1
v -0.6 1 -0.3
v -0.6 1.2 0.3
v -0.6 1.2 -2.98023e-08
v -0.6 1.2 -0.1
v -0.6 1.3 -2.98023e-08
v -0.6 1.3 -0.1
v -0.6 1.5 -2.98023e-08
v -0.6 1.5 -0.3
v -0.6 1.6 0.3
v -0.6 1.6 -2.98023e-08
v -0.6 1.9 -2.98023e-08
v -0.6 1.9 -0.3
v -0.5 0.5 0.2
v -0.5 0.5 -0.2
v -0.5 0.6 -0.1
v -0.5 0.6 -0.2
v -0.5 1 -0.1
v -0.5 1 -0.2
v -0.5 1.2 0.2
v -0.5 1.2 -2.98023e-08
v -0.5 1.2 -0.1
v -0.5 1.3 -2.98023e-08
v -0.5 1.3 -0.1
v -0.5 1.5 -2.98023e-08
v -0.5 1.5 -0.2
v -0.5 1.6 0.2
v -0.5 1.6 -2.98023e-08
v -0.5 1.8 0.2
v -0.5 1.8 -2.98023e-08
v -0.4 0.4 0.3
v -0.4 0.4 0.2
v -0.4 0.5 0.3
v -0.4 0.5 0.2
v -0.4 0.6 0.3
v -0.4 0.6 0.2
v -0.4 0.7 0.3
v -0.4 0.7 0.2
v -0.3 0.5 0.3
v -0.3 0.5 0.2
v -0.3 0.6 0.3
v -0.3 0.6 0.2
v -0.3 1.3 -0.2
v -0.3 1.3 -0.3
v -0.3 1.4 -0.2
v -0.3 1.4 -0.3
v -0.2 1.2 -0.2
v -0.2 1.2 -0.3
v -0.2 1.3 -0.2
v -0.2 1.3 -0.3
v -0.2 1.4 -0.2
v -0.2 1.4 -0.3
v -0.2 1.5 -0.2
v -0.2 1.5 -0.3
v -0.1 0 0.1
v -0.1 0 -0.1
v -0.1 0.5 0.1
v -0.1 0.5 -0.1
v 0 1.7 0.3
v 0 1.7 0.2
v 0 1.8 0.2
v 0 1.8 -2.98023e-08
v 0 1.9 0.3
v 0 1.9 -2.98023e-08
v 0.1 0.8 0.3
v 0.1 0.8 0.2
v 0.1 1.2 0.3
v 0.1 1.2 0.2
v 0.3 0.9 -0.2
v 0.3 0.9 -0.3
v 0.3 1.2 0.3
v 0.3 1.2 0.2
v 0.3 1.3 0.3
v 0.3 1.3 0.2
v 0.3 1.4 0.3
v 0.3 1.4 0.2
v 0.3 1.4 -0.2
v 0.3 1.4 -0.3
v 0.3 1.5 0.3
v 0.3 1.5 0.2
v 0.4 0.4 0.1
v 0.4 0.4 -0.1
v 0.4 0.5 0.1
v 0.4 0.5 -0.1
v 0.4 1.3 0.3
v 0.4 1.3 0.2
v 0.4 1.4 0.3
v 0.4 1.4 0.2
v -0.3 0.4 0.3
v -0.3 0.4 0.2
v -0.3 0.5 0.3
v -0.3 0.5 0.2
v -0.3 0.6 0.3
v -0.3 0.6 0.2
v -0.3 0.7 0.3
v -0.3 0.7 0.2
v -0.3 1.2 0.3
v -0.3 1.2 0.2
v -0.3 1.6 0.3
v -0.3 1.6 0.2
v -0.2 0.5 0.3
v -0.2 0.5 0.2
v -0.2 0.6 0.3
v -0.2 0.6 0.2
v -0.2 1.3 -0.2
v -0.2 1.3 -0.3
v -0.2 1.4 -0.2
v -0.2 1.4 -0.3
v -0.1 0.6 -0.2
v -0.1 0.6 -0.3
v -0.1 1 -0.2
v -0.1 1 -0.3
v -0.1 1.2 -0.2
v -0.1 1.2 -0.3
v -0.1 1.3 -0.2
v -0.1 1.3 -0.3
v -0.1 1.4 -0.2
v -0.1 1.4 -0.3
v -0.1 1.5 -0.2
v -0.1 1.5 -0.3
v -0.1 1.8 -2.98023e-08
v -0.1 1.8 -0.2
v -0.1 1.9 -2.98023e-08
v -0.1 1.9 -0.3
v 0.1 0 0.1
v 0.1 0 -0.1
v 0.1 0.5 0.1
v 0.1 0.5 -0.1
v 0.3 0.8 0.3
v 0.3 0.8 0.2
v 0.3 1.2 0.3
v 0.3 1.2 0.2
v 0.4 1.2 0.3
v 0.4 1.2 0.2
v 0.4 1.3 0.3
v 0.4 1.3 0.2
v 0.4 1.4 0.3
v 0.4 1.4 0.2
v 0.4 1.5 0.3
v 0.4 1.5 0.2
v 0.4 1.7 0.3
v 0.4 1.7 0.2
v 0.4 1.8 0.2
v 0.4 1.8 -2.98023e-08
v 0.4 1.9 0.3
v 0.4 1.9 -2.98023e-08
v 0.5 0.5 0.2
v 0.5 0.5 0.1
v 0.5 0.5 -0.1
v 0.5 0.5 -0.2
v 0.5 0.6 0.1
v 0.5 0.6 -0.1
v 0.5 0.9 -2.98023e-08
v 0.5 0.9 -0.2
v 0.5 1.3 0.3
v 0.5 1.3 0.2
v 0.5 1.4 0.3
v 0.5 1.4 0.2
v 0.5 1.4 -2.98023e-08
v 0.5 1.4 -0.2
v 0.5 1.8 0.2
v 0.5 1.8 -0.2
v 0.6 0.4 0.1
v 0.6 0.4 -0.1
v 0.6 0.6 0.1
v 0.6 0.6 -0.1
v 0.6 0.9 -2.98023e-08
v 0.6 0.9 -0.3
v 0.6 1.4 -2.98023e-08
v 0.6 1.4 -0.3
v -0.6 1.2 0.3
v -0.6 1.6 0.3
v -0.4 0.4 0.3
v -0.4 0.5 0.3
v -0.4 0.6 0.3
v -0.4 0.7 0.3
v -0.3 0.4 0.3
v -0.3 0.5 0.3
v -0.3 0.6 0.3
v -0.3 0.7 0.3
v -0.3 1.2 0.3
v -0.3 1.6 0.3
v -0.2 0.5 0.3
v -0.2 0.6 0.3
v 0 1.7 0.3
v 0 1.9 0.3
v 0.1 0.8 0.3
v 0.1 1.2 0.3
v 0.3 0.8 0.3
v 0.3 1.2 0.3
v 0.3 1.3 0.3
v 0.3 1.4 0.3
v 0.3 1.5 0.3
v 0.4 1.2 0.3
v 0.4 1.3 0.3
v 0.4 1.4 0.3
v 0.4 1.5 0.3
v 0.4 1.7 0.3
v 0.4 1.9 0.3
v 0.5 1.3 0.3
v 0.5 1.4 0.3
v -0.5 0.5 0.2
v -0.5 1.2 0.2
v -0.5 1.6 0.2
v -0.5 1.8 0.2
v -0.4 0.5 0.2
v -0.4 0.6 0.2
v -0.4 0.7 0.2
v -0.3 0.5 0.2
v -0.3 0.6 0.2
v -0.3 0.7 0.2
v -0.3 1.2 0.2
v -0.3 1.6 0.2
v -0.2 0.5 0.2
v -0.2 0.6 0.2
v 0 1.7 0.2
v 0 1.8 0.2
v 0.1 0.8 0.2
v 0.1 1.2 0.2
v 0.3 0.8 0.2
v 0.3 1.2 0.2
v 0.3 1.3 0.2
v 0.3 1.4 0.2
v 0.3 1.5 0.2
v 0.4 1.2 0.2
v 0.4 1.3 0.2
v 0.4 1.4 0.2
v 0.4 1.5 0.2
v 0.4 1.7 0.2
v 0.4 1.8 0.2
v 0.5 0.5 0.2
v 0.5 1.3 0.2
v 0.5 1.4 0.2
v 0.5 1.8 0.2
v -0.1 0 0.1
v -0.1 0.5 0.1
v 0.1 0 0.1
v 0.1 0.5 0.1
v 0.4 0.4 0.1
v 0.4 0.5 0.1
v 0.5 0.5 0.1
v 0.5 0.6 0.1
v 0.6 0.4 0.1
v 0.6 0.6 0.1
v -0.6 1.6 -2.98023e-08
v -0.6 1.9 -2.98023e-08
v -0.5 1.6 -2.98023e-08
v -0.5 1.8 -2.98023e-08
v -0.1 1.8 -2.98023e-08
v -0.1 1.9 -2.98023e-08
v 0.5 0.9 -2.98023e-08
v 0.5 1.4 -2.98023e-08
v 0.6 0.9 -2.98023e-08
v 0.6 1.4 -2.98023e-08
v -0.6 0.6 -0.1
v -0.6 1 -0.1
v -0.5 0.6 -0.1
v -0.5 1 -0.1
v -0.4 0.4 0.2
v -0.4 0.5 0.2
v -0.3 0.4 0.2
v -0.3 0.5 0.2
v -0.6 1.3 -2.98023e-08
v -0.6 1.5 -2.98023e-08
v -0.5 1.3 -2.98023e-08
v -0.5 1.5 -2.98023e-08
v 0 1.8 -2.98023e-08
v 0 1.9 -2.98023e-08
v 0.4 1.8 -2.98023e-08
v 0.4 1.9 -2.98023e-08
v -0.6 1.2 -0.1
v -0.6 1.3 -0.1
v -0.5 1.2 -0.1
v -0.5 1.3 -0.1
v -0.1 0 -0.1
v -0.1 0.5 -0.1
v 0.1 0 -0.1
v 0.1 0.5 -0.1
v 0.4 0.4 -0.1
v 0.4 0.5 -0.1
v 0.5 0.5 -0.1
v 0.5 0.6 -0.1
v 0.6 0.4 -0.1
v 0.6 0.6 -0.1
v -0.5 0.5 -0.2
v -0.5 0.6 -0.2
v -0.5 1 -0.2
v -0.5 1.5 -0.2
v -0.3 1.3 -0.2
v -0.3 1.4 -0.2
v -0.2 1.2 -0.2
v -0.2 1.3 -0.2
v -0.2 1.4 -0.2
v -0.2 1.5 -0.2
v -0.1 0.6 -0.2
v -0.1 1 -0.2
v -0.1 1.2 -0.2
v -0.1 1.3 -0.2
v -0.1 1.4 -0.2
v -0.1 1.5 -0.2
v -0.1 1.8 -0.2
v 0.3 0.9 -0.2
v 0.3 1.4 -0.2
v 0.5 0.5 -0.2
v 0.5 0.9 -0.2
v 0.5 1.4 -0.2
v 0.5 1.8 -0.2
v -0.6 0.6 -0.3
v -0.6 1 -0.3
v -0.6 1.5 -0.3
v -0.6 1.9 -0.3
v -0.3 1.3 -0.3
v -0.3 1.4 -0.3
v -0.2 1.2 -0.3
v -0.2 1.3 -0.3
v -0.2 1.4 -0.3
v -0.2 1.5 -0.3
v -0.1 0.6 -0.3
v -0.1 1 -0.3
v -0.1 1.2 -0.3
v -0.1 1.3 -0.3
v -0.1 1.4 -0.3
v -0.1 1.5 -0.3
v -0.1 1.9 -0.3
v 0.3 0.9 -0.3
v 0.3 1.4 -0.3
v 0.6 0.9 -0.3
v 0.6 1.4 -0.3
v -0.1 0 0.1
v 0.1 0 0.1
v -0.1 0 -0.1
v 0.1 0 -0.1
v -0.4 0.4 0.3
v -0.3 0.4 0.3
v -0.4 0.4 0.2
v -0.3 0.4 0.2
v 0.4 0.4 0.1
v 0.6 0.4 0.1
v 0.4 0.4 -0.1
v 0.6 0.4 -0.1
v -0.3 0.5 0.3
v -0.2 0.5 0.3
v -0.5 0.5 0.2
v -0.4 0.5 0.2
v -0.3 0.5 0.2
v -0.2 0.5 0.2
v 0.5 0.5 0.2
v -0.1 0.5 0.1
v 0.1 0.5 0.1
v 0.4 0.5 0.1
v 0.5 0.5 0.1
v -0.1 0.5 -0.1
v 0.1 0.5 -0.1
v 0.4 0.5 -0.1
v 0.5 0.5 -0.1
v -0.5 0.5 -0.2
v 0.5 0.5 -0.2
v -0.4 0.6 0.3
v -0.3 0.6 0.3
v -0.4 0.6 0.2
v -0.3 0.6 0.2
v -0.6 0.6 -0.1
v -0.5 0.6 -0.1
v -0.5 0.6 -0.2
v -0.1 0.6 -0.2
v -0.6 0.6 -0.3
v -0.1 0.6 -0.3
v 0.1 0.8 0.3
v 0.3 0.8 0.3
v 0.1 0.8 0.2
v 0.3 0.8 0.2
v 0.5 0.9 -2.98023e-08
v 0.6 0.9 -2.98023e-08
v 0.3 0.9 -0.2
v 0.5 0.9 -0.2
v 0.3 0.9 -0.3
v 0.6 0.9 -0.3
v -0.6 1.2 0.3
v -0.3 1.2 0.3
v 0.3 1.2 0.3
v 0.4 1.2 0.3
v -0.5 1.2 0.2
v -0.3 1.2 0.2
v 0.3 1.2 0.2
v 0.4 1.2 0.2
v -0.6 1.2 -2.98023e-08
v -0.5 1.2 -2.98023e-08
v -0.6 1.2 -0.1
v -0.5 1.2 -0.1
v -0.2 1.2 -0.2
v -0.1 1.2 -0.2
v -0.2 1.2 -0.3
v -0.1 1.2 -0.3
v 0.4 1.3 0.3
v 0.5 1.3 0.3
v 0.4 1.3 0.2
v 0.5 1.3 0.2
v -0.3 1.3 -0.2
v -0.2 1.3 -0.2
v -0.3 1.3 -0.3
v -0.2 1.3 -0.3
v 0.3 1.4 0.3
v 0.4 1.4 0.3
v 0.3 1.4 0.2
v 0.4 1.4 0.2
v -0.2 1.4 -0.2
v -0.1 1.4 -0.2
v -0.2 1.4 -0.3
v -0.1 1.4 -0.3
v -0.6 1.5 -2.98023e-08
v -0.5 1.5 -2.98023e-08
v -0.5 1.5 -0.2
v -0.2 1.5 -0.2
v -0.6 1.5 -0.3
v -0.2 1.5 -0.3
v 0 1.7 0.3
v 0.4 1.7 0.3
v 0 1.7 0.2
v 0.4 1.7 0.2
v -0.4 0.5 0.3
v -0.3 0.5 0.3
v -0.4 0.5 0.2
v -0.3 0.5 0.2
v -0.3 0.6 0.3
v -0.2 0.6 0.3
v -0.3 0.6 0.2
v -0.2 0.6 0.2
v 0.5 0.6 0.1
v 0.6 0.6 0.1
v 0.5 0.6 -0.1
v 0.6 0.6 -0.1
v -0.4 0.7 0.3
v -0.3 0.7 0.3
v -0.4 0.7 0.2
v -0.3 0.7 0.2
v -0.6 1 -0.1
v -0.5 1 -0.1
v -0.5 1 -0.2
v -0.1 1 -0.2
v -0.6 1 -0.3
v -0.1 1 -0.3
v 0.1 1.2 0.3
v 0.3 1.2 0.3
v 0.1 1.2 0.2
v 0.3 1.2 0.2
v 0.3 1.3 0.3
v 0.4 1.3 0.3
v 0.3 1.3 0.2
v 0.4 1.3 0.2
v -0.6 1.3 -2.98023e-08
v -0.5 1.3 -2.98023e-08
v -0.6 1.3 -0.1
v -0.5 1.3 -0.1
v -0.2 1.3 -0.2
v -0.1 1.3 -0.2
v -0.2 1.3 -0.3
v -0.1 1.3 -0.3
v 0.4 1.4 0.3
v 0.5 1.4 0.3
v 0.4 1.4 0.2
v 0.5 1.4 0.2
v 0.5 1.4 -2.98023e-08
v 0.6 1.4 -2.98023e-08
v -0.3 1.4 -0.2
v -0.2 1.4 -0.2
v 0.3 1.4 -0.2
v 0.5 1.4 -0.2
v -0.3 1.4 -0.3
v -0.2 1.4 -0.3
v 0.3 1.4 -0.3
v 0.6 1.4 -0.3
v 0.3 1.5 0.3
v 0.4 1.5 0.3
v 0.3 1.5 0.2
v 0.4 1.5 0.2
v -0.6 1.6 0.3
v -0.3 1.6 0.3
v -0.5 1.6 0.2
v -0.3 1.6 0.2
v -0.6 1.6 -2.98023e-08
v -0.5 1.6 -2.98023e-08
v -0.5 1.8 0.2
v 0 1.8 0.2
v 0.4 1.8 0.2
v 0.5 1.8 0.2
v -0.5 1.8 -2.98023e-08
v -0.1 1.8 -2.98023e-08
v 0 1.8 -2.98023e-08
v 0.4 1.8 -2.98023e-08
v -0.1 1.8 -0.2
v 0.5 1.8 -0.2
v 0 1.9 0.3
v 0.4 1.9 0.3
v -0.6 1.9 -2.98023e-08
v -0.1 1.9 -2.98023e-08
v 0 1.9 -2.98023e-08
v 0.4 1.9 -2.98023e-08
v -0.6 1.9 -0.3
v -0.1 1.9 -0.3

# faces
f 3/4/1 2/4/1 1/4/1
f 4/4/1 2/4/1 3/4/1
f 8/4/1 6/4/1 5/4/1
f 8/1/1 7/1/1 6/1/1
f 9/1/1 7/1/1 8/1/1
f 10/4/1 8/4/1 5/4/1
f 12/4/1 10/4/1 5/4/1
f 13/3/1 11/3/1 10/3/1
f 13/4/1 10/4/1 12/4/1
f 14/3/1 11/3/1 13/3/1
f 15/3/1 11/3/1 14/3/1
f 18/4/1 17/4/1 16/4/1
f 19/4/1 17/4/1 18/4/1
f 20/4/1 18/4/1 16/4/1
f 22/4/1 20/4/1 16/4/1
f 22/4/1 21/4/1 20/4/1
f 23/4/1 21/4/1 22/4/1
f 24/4/1 21/4/1 23/4/1
f 26/4/1 21/4/1 24/4/1
f 27/4/1 26/4/1 25/4/1
f 28/4/1 21/4/1 26/4/1
f 28/4/1 26/4/1 27/4/1
f 31/4/1 30/4/1 29/4/1
f 32/4/1 30/4/1 31/4/1
f 35/1/1 34/1/1 33/1/1
f 36/1/1 34/1/1 35/1/1
f 39/1/1 38/1/1 37/1/1
f 40/1/1 38/1/1 39/1/1
f 43/1/1 42/1/1 41/1/1
f 44/1/1 42/1/1 43/1/1
f 47/1/1 46/1/1 45/1/1
f 48/1/1 46/1/1 47/1/1
f 51/1/1 50/1/1 49/1/1
f 52/1/1 50/1/1 51/1/1
f 55/1/1 54/1/1 53/1/1
f 56/1/1 54/1/1 55/1/1
f 59/2/1 58/2/1 57/2/1
f 60/2/1 58/2/1 59/2/1
f 63/4/1 62/4/1 61/4/1
f 65/4/1 63/4/1 61/4/1
f 65/4/1 64/4/1 63/4/1
f 66/4/1 64/4/1 65/4/1
f 69/3/1 68/3/1 67/3/1
f 70/3/1 68/3/1 69/3/1
f 75/1/1 74/1/1 73/1/1
f 76/1/1 74/1/1 75/1/1
f 79/3/1 72/3/1 71/3/1
f 80/3/1 72/3/1 79/3/1
f 81/1/1 78/1/1 77/1/1
f 82/1/1 78/1/1 81/1/1
f 85/4/1 84/4/1 83/4/1
f 86/4/1 84/4/1 85/4/1
f 89/1/1 88/1/1 87/1/1
f 90/1/1 88/1/1 89/1/1
f 91/1/2 92/1/2 93/1/2
f 93/1/2 92/1/2 94/1/2
f 95/1/2 96/1/2 97/1/2
f 97/1/2 96/1/2 98/1/2
f 99/4/2 100/4/2 101/4/2
f 101/4/2 100/4/2 102/4/2
f 103/1/2 104/1/2 105/1/2
f 105/1/2 104/1/2 106/1/2
f 107/1/2 108/1/2 109/1/2
f 109/1/2 108/1/2 110/1/2
f 111/4/2 112/4/2 113/4/2
f 113/4/2 112/4/2 114/4/2
f 115/1/2 116/1/2 117/1/2
f 117/1/2 116/1/2 118/1/2
f 119/1/2 120/1/2 121/1/2
f 121/1/2 120/1/2 122/1/2
f 121/3/2 122/3/2 124/3/2
f 123/3/2 124/3/2 125/3/2
f 124/3/2 122/3/2 126/3/2
f 125/3/2 124/3/2 126/3/2
f 127/2/2 128/2/2 129/2/2
f 129/2/2 128/2/2 130/2/2
f 131/3/2 132/3/2 133/3/2
f 133/3/2 132/3/2 134/3/2
f 135/1/2 136/1/2 137/1/2
f 137/1/2 136/1/2 138/1/2
f 139/1/2 140/1/2 141/1/2
f 141/1/2 140/1/2 142/1/2
f 143/4/2 144/4/2 145/4/2
f 143/4/2 145/4/2 147/4/2
f 145/4/2 146/4/2 147/4/2
f 147/4/2 146/4/2 148/4/2
f 149/4/2 150/4/2 153/4/2
f 151/4/2 152/4/2 154/4/2
f 153/4/2 154/4/2 155/4/2
f 154/4/2 152/4/2 156/4/2
f 155/4/2 154/4/2 156/4/2
f 149/4/2 153/4/2 158/4/2
f 153/4/2 155/4/2 158/4/2
f 157/1/2 158/1/2 159/1/2
f 158/4/2 155/4/2 160/4/2
f 159/1/2 158/1/2 160/1/2
f 160/4/2 155/4/2 161/4/2
f 161/4/2 162/4/2 163/4/2
f 160/4/2 161/4/2 163/4/2
f 163/4/2 162/4/2 164/4/2
f 165/4/2 166/4/2 167/4/2
f 167/4/2 166/4/2 168/4/2
f 169/3/2 170/3/2 171/3/2
f 171/3/2 170/3/2 172/3/2
f 179/1/3 176/1/3 175/1/3
f 180/1/3 176/1/3 179/1/3
f 181/1/3 178/1/3 177/1/3
f 182/1/3 178/1/3 181/1/3
f 183/4/3 174/4/3 173/4/3
f 184/4/3 174/4/3 183/4/3
f 185/1/3 181/1/3 180/1/3
f 186/1/3 181/1/3 185/1/3
f 191/3/3 190/3/3 189/3/3
f 192/3/3 190/3/3 191/3/3
f 196/1/3 193/1/3 192/1/3
f 197/1/3 193/1/3 196/1/3
f 198/1/3 195/1/3 194/1/3
f 199/1/3 195/1/3 198/1/3
f 200/4/3 188/4/3 187/4/3
f 201/4/3 188/4/3 200/4/3
f 202/1/3 198/1/3 197/1/3
f 203/1/3 198/1/3 202/1/3
f 208/4/3 205/4/3 204/4/3
f 209/4/3 205/4/3 208/4/3
f 210/4/3 205/4/3 209/4/3
f 211/4/3 209/4/3 208/4/3
f 212/4/3 209/4/3 211/4/3
f 213/4/3 205/4/3 210/4/3
f 214/4/3 205/4/3 213/4/3
f 215/4/3 207/4/3 206/4/3
f 217/4/3 214/4/3 213/4/3
f 217/4/3 215/4/3 214/4/3
f 217/4/3 213/4/3 212/4/3
f 218/4/3 207/4/3 215/4/3
f 218/4/3 217/4/3 216/4/3
f 218/4/3 215/4/3 217/4/3
f 219/4/3 207/4/3 218/4/3
f 220/4/3 218/4/3 216/4/3
f 221/4/3 218/4/3 220/4/3
f 222/4/3 220/4/3 216/4/3
f 223/4/3 218/4/3 221/4/3
f 224/4/3 218/4/3 223/4/3
f 225/4/3 218/4/3 224/4/3
f 226/4/3 218/4/3 225/4/3
f 227/4/3 223/4/3 222/4/3
f 228/4/3 225/4/3 224/4/3
f 229/4/3 225/4/3 228/4/3
f 230/4/3 218/4/3 226/4/3
f 231/4/3 218/4/3 230/4/3
f 233/4/3 222/4/3 216/4/3
f 233/4/3 227/4/3 222/4/3
f 233/4/3 228/4/3 227/4/3
f 234/4/3 228/4/3 233/4/3
f 235/4/3 232/4/3 231/4/3
f 235/4/3 231/4/3 230/4/3
f 235/4/3 230/4/3 229/4/3
f 236/4/3 232/4/3 235/4/3
f 239/2/3 238/2/3 237/2/3
f 240/2/3 238/2/3 239/2/3
f 243/4/3 242/4/3 241/4/3
f 245/4/3 243/4/3 241/4/3
f 245/4/3 244/4/3 243/4/3
f 246/4/3 244/4/3 245/4/3
f 249/3/3 248/3/3 247/3/3
f 250/3/3 248/3/3 249/3/3
f 251/3/3 248/3/3 250/3/3
f 252/3/3 248/3/3 251/3/3
f 255/3/3 254/3/3 253/3/3
f 256/3/3 254/3/3 255/3/3
f 259/4/3 258/4/3 257/4/3
f 260/4/3 258/4/3 259/4/3
f 261/1/4 262/1/4 263/1/4
f 263/1/4 262/1/4 264/1/4
f 265/4/4 266/4/4 267/4/4
f 267/4/4 266/4/4 268/4/4
f 269/4/4 270/4/4 271/4/4
f 271/4/4 270/4/4 272/4/4
f 273/1/4 274/1/4 275/1/4
f 275/1/4 274/1/4 276/1/4
f 277/2/4 278/2/4 279/2/4
f 279/2/4 278/2/4 280/2/4
f 281/4/4 282/4/4 283/4/4
f 281/4/4 283/4/4 285/4/4
f 283/4/4 284/4/4 285/4/4
f 285/4/4 284/4/4 286/4/4
f 289/4/4 290/4/4 291/4/4
f 291/4/4 290/4/4 292/4/4
f 289/4/4 291/4/4 293/4/4
f 293/4/4 291/4/4 294/4/4
f 292/4/4 290/4/4 295/4/4
f 295/4/4 290/4/4 296/4/4
f 287/4/4 288/4/4 297/4/4
f 289/4/4 293/4/4 298/4/4
f 298/4/4 293/4/4 299/4/4
f 294/4/4 295/4/4 300/4/4
f 300/4/4 295/4/4 301/4/4
f 301/4/4 302/4/4 304/4/4
f 302/4/4 303/4/4 304/4/4
f 300/4/4 301/4/4 304/4/4
f 299/4/4 300/4/4 304/4/4
f 298/4/4 299/4/4 304/4/4
f 297/4/4 298/4/4 304/4/4
f 304/4/4 303/4/4 305/4/4
f 287/4/4 297/4/4 306/4/4
f 297/4/4 304/4/4 306/4/4
f 306/4/4 304/4/4 307/4/4
f 305/4/4 303/4/4 308/4/4
f 308/4/4 303/4/4 309/4/4
f 314/1/4 315/1/4 317/1/4
f 317/1/4 315/1/4 318/1/4
f 312/3/4 313/3/4 319/3/4
f 310/4/4 311/4/4 320/4/4
f 320/4/4 311/4/4 321/4/4
f 316/1/4 317/1/4 322/1/4
f 322/1/4 317/1/4 323/1/4
f 318/1/4 319/1/4 324/1/4
f 319/3/4 313/3/4 325/3/4
f 324/1/4 319/1/4 325/1/4
f 325/3/4 313/3/4 326/3/4
f 327/3/4 328/3/4 329/3/4
f 329/3/4 328/3/4 330/3/4
f 333/2/5 332/2/5 331/2/5
f 334/2/5 332/2/5 333/2/5
f 337/1/5 336/1/5 335/1/5
f 338/1/5 336/1/5 337/1/5
f 341/4/5 340/4/5 339/4/5
f 342/4/5 340/4/5 341/4/5
f 347/1/5 344/1/5 343/1/5
f 348/1/5 344/1/5 347/1/5
f 350/4/5 346/4/5 345/4/5
f 350/4/5 349/4/5 348/4/5
f 350/4/5 348/4/5 347/4/5
f 350/4/5 347/4/5 346/4/5
f 351/4/5 349/4/5 350/4/5
f 352/4/5 349/4/5 351/4/5
f 353/4/5 349/4/5 352/4/5
f 354/4/5 350/4/5 345/4/5
f 355/4/5 352/4/5 351/4/5
f 356/4/5 352/4/5 355/4/5
f 358/4/5 354/4/5 345/4/5
f 358/4/5 357/4/5 356/4/5
f 358/4/5 356/4/5 355/4/5
f 358/4/5 355/4/5 354/4/5
f 359/4/5 357/4/5 358/4/5
f 362/1/5 361/1/5 360/1/5
f 363/1/5 361/1/5 362/1/5
f 366/4/5 365/4/5 364/4/5
f 368/4/5 366/4/5 364/4/5
f 368/4/5 367/4/5 366/4/5
f 369/4/5 367/4/5 368/4/5
f 372/3/5 371/3/5 370/3/5
f 373/3/5 371/3/5 372/3/5
f 377/3/5 375/3/5 374/3/5
f 378/3/5 377/3/5 376/3/5
f 379/3/5 375/3/5 377/3/5
f 379/3/5 377/3/5 378/3/5
f 384/4/5 381/4/5 380/4/5
f 385/4/5 381/4/5 384/4/5
f 386/1/5 383/1/5 382/1/5
f 387/1/5 383/1/5 386/1/5
f 388/4/5 384/4/5 380/4/5
f 389/4/5 384/4/5 388/4/5
f 390/1/5 389/1/5 388/1/5
f 391/1/5 389/1/5 390/1/5
f 394/1/5 393/1/5 392/1/5
f 395/1/5 393/1/5 394/1/5
f 398/1/5 397/1/5 396/1/5
f 399/1/5 397/1/5 398/1/5
f 402/1/5 401/1/5 400/1/5
f 403/1/5 401/1/5 402/1/5
f 406/1/5 405/1/5 404/1/5
f 407/1/5 405/1/5 406/1/5
f 410/1/5 409/1/5 408/1/5
f 411/1/5 409/1/5 410/1/5
f 414/3/5 413/3/5 412/3/5
f 416/3/5 414/3/5 412/3/5
f 416/3/5 415/3/5 414/3/5
f 417/3/5 415/3/5 416/3/5
f 420/4/5 419/4/5 418/4/5
f 421/4/5 419/4/5 420/4/5
f 422/1/6 423/1/6 424/1/6
f 424/1/6 423/1/6 425/1/6
f 426/1/6 427/1/6 428/1/6
f 428/1/6 427/1/6 429/1/6
f 430/4/6 431/4/6 432/4/6
f 432/4/6 431/4/6 433/4/6
f 434/1/6 435/1/6 436/1/6
f 436/1/6 435/1/6 437/1/6
f 438/4/6 439/4/6 440/4/6
f 438/4/6 440/4/6 442/4/6
f 440/4/6 441/4/6 442/4/6
f 442/4/6 441/4/6 443/4/6
f 444/3/6 445/3/6 446/3/6
f 446/3/6 445/3/6 447/3/6
f 448/1/6 449/1/6 450/1/6
f 450/1/6 449/1/6 451/1/6
f 452/1/6 453/1/6 454/1/6
f 454/1/6 453/1/6 455/1/6
f 456/1/6 457/1/6 458/1/6
f 458/1/6 457/1/6 459/1/6
f 460/1/6 461/1/6 462/1/6
f 462/1/6 461/1/6 463/1/6
f 464/3/6 465/3/6 469/3/6
f 466/1/6 467/1/6 470/1/6
f 470/1/6 467/1/6 471/1/6
f 468/3/6 469/3/6 472/3/6
f 469/3/6 465/3/6 473/3/6
f 472/3/6 469/3/6 473/3/6
f 474/1/6 475/1/6 476/1/6
f 476/1/6 475/1/6 477/1/6
f 478/4/6 479/4/6 480/4/6
f 480/4/6 479/4/6 481/4/6
f 478/4/6 480/4/6 482/4/6
f 482/4/6 480/4/6 483/4/6
f 484/4/6 485/4/6 488/4/6
f 488/4/6 485/4/6 489/4/6
f 489/4/6 485/4/6 490/4/6
f 486/4/6 487/4/6 491/4/6
f 489/4/6 490/4/6 492/4/6
f 490/4/6 491/4/6 492/4/6
f 491/4/6 487/4/6 493/4/6
f 492/4/6 491/4/6 493/4/6
f 494/4/6 495/4/6 498/4/6
f 498/4/6 495/4/6 499/4/6
f 496/3/6 497/3/6 500/3/6
f 500/3/6 497/3/6 501/3/6
